<?xml version="1.0" standalone="no"?>
<!DOCTYPE svg PUBLIC "-//W3C//DTD SVG 1.1//EN" "http://www.w3.org/Graphics/SVG/1.1/DTD/svg11.dtd" >
<svg xmlns="http://www.w3.org/2000/svg" xmlns:xlink="http://www.w3.org/1999/xlink" version="1.1">
<metadata>
Created by FontForge 20170731 at Fri Nov 30 22:52:29 2012
 By Aleksey,,,
Copyright (c) 2012, Pablo Impallari (www.impallari.com|impallari@gmail.com), Copyright (c) 2012, Rodrigo Fuenzalida (www.rfuenzalida.com|hello@rfuenzalida.com), with Reserved Font Name Libre Baskerville.
</metadata>
<defs>
<font id="LibreBaskerville-Regular" horiz-adv-x="670" >
  <font-face 
    font-family="Libre Baskerville"
    font-weight="400"
    font-stretch="normal"
    units-per-em="1000"
    panose-1="2 0 0 0 0 0 0 0 0 0"
    ascent="800"
    descent="-200"
    x-height="530"
    cap-height="770"
    bbox="-280 -260 1606 970"
    underline-thickness="50"
    underline-position="-150"
    unicode-range="U+0020-FB06"
  />
<missing-glyph horiz-adv-x="756" 
d="M130 970h496v-1230h-496v1230zM240 -199h275v1110h-275v-1110z" />
    <glyph glyph-name="f_f" unicode="ff" horiz-adv-x="729" 
d="M226 161q0 -37 4 -61t14.5 -38.5t28.5 -20t47 -6.5v-35h-264v35q25 1 40 5.5t23 17t10.5 35t2.5 60.5v314h-113v47h113v32q2 115 61.5 179.5t171.5 64.5q42 0 74 -13.5t49 -29.5q29 33 79.5 58t119.5 25q62 0 101 -19t39 -49q0 -20 -12.5 -33.5t-31.5 -13.5
q-12 0 -25.5 7.5t-35.5 25.5q-25 21 -39 27.5t-33 6.5q-60 0 -86 -61q-9 -20 -12.5 -49t-3.5 -80v-78h161v-47h-161v-306q0 -37 4 -61t14.5 -38.5t28.5 -20t47 -6.5v-35h-264v35q25 1 40 5.5t23 17t10.5 35t2.5 60.5v314h-228v-306zM454 514v156q-13 8 -26 18.5t-24 20.5
q-25 21 -41 27t-35 6q-60 0 -86 -61q-9 -20 -12.5 -49t-3.5 -80v-38h228z" />
    <glyph glyph-name="f_i" unicode="fi" horiz-adv-x="651" 
d="M547 162q0 -39 3 -63.5t11 -38t22 -18.5t37 -5v-37h-257v37q28 0 45 5t26 18t12 36t3 58v126q0 58 -2 95t-5 51q-5 24 -23 32.5t-68 8.5h-125v-306q0 -37 3.5 -61.5t13 -38.5t25.5 -20t42 -6v-35h-254v35q25 0 40 4t23 17t10.5 36t2.5 61v314h-113v47h113v72
q0 115 66 179.5t187 64.5q71 0 115.5 -17.5t44.5 -45.5q0 -20 -12.5 -33.5t-31.5 -13.5q-12 0 -27 7t-38 23q-15 10 -26 16.5t-20.5 10t-19 4.5t-22.5 1q-31 0 -54 -8t-38 -29t-22.5 -58t-7.5 -95v-78h160l161 26v-378z" />
    <glyph glyph-name="f_l" unicode="fl" horiz-adv-x="678" 
d="M562 156q0 -38 3 -61.5t13 -37t27 -18t46 -4.5v-35h-266v35q27 0 43.5 5t25.5 17.5t12 34.5t3 57v562l-22 19q-35 31 -59 41.5t-51 10.5t-47.5 -8t-34 -29t-20 -58t-6.5 -95v-78h161v-47h-161v-306q0 -37 4.5 -61.5t15 -38.5t28.5 -20t46 -6v-35h-274v35q28 0 45 4t26 17
t12 36t3 61v314h-113v47h113v72q0 115 60.5 179.5t171.5 64.5q35 0 62.5 -6t46.5 -17l86 23v-674z" />
    <glyph glyph-name="f_f_i" unicode="ffi" horiz-adv-x="973" 
d="M869 162q0 -39 3 -63.5t11 -38t22 -18.5t37 -5v-37h-257v37q27 0 44 5t26.5 18t12.5 36t3 58v126q0 58 -2 95t-5 51q-5 24 -23 32.5t-68 8.5h-125v-321q0 -33 4.5 -54t15 -34t29 -18t45.5 -5v-35h-264v35q23 0 38 4.5t23.5 17.5t11.5 36t3 60v314h-228v-306
q0 -37 4 -61.5t14.5 -38.5t28.5 -20t47 -6v-35h-264v35q26 0 41 4t23 17t10 36t2 61v314h-113v47h113v32q0 115 60.5 179.5t172.5 64.5q41 0 72 -13t59 -39q32 42 84 67t127 25q71 0 115.5 -17.5t44.5 -45.5q0 -20 -12.5 -33.5t-31.5 -13.5q-12 0 -27 7t-38 23
q-15 10 -26 16.5t-20.5 10t-19 4.5t-22.5 1q-31 0 -54 -8t-38 -29t-22.5 -58t-7.5 -95v-78h160l161 26v-378zM454 514v156q-27 19 -50 39q-25 21 -41 27t-35 6q-24 0 -43 -8.5t-32 -30t-20 -58t-7 -93.5v-38h228z" />
    <glyph glyph-name="f_f_l" unicode="ffl" horiz-adv-x="997" 
d="M881 156q0 -38 3 -61t12.5 -36t27 -18t46.5 -6v-35h-266v35q27 1 43.5 6.5t25.5 17.5t12 33.5t3 56.5v562l-22 19q-35 31 -59 41.5t-51 10.5q-37 0 -58 -15.5t-34 -45.5q-4 -10 -7 -20.5t-5 -25t-3 -35t-1 -48.5v-78h161v-47h-161v-306q0 -37 4 -61t14.5 -38.5t28.5 -20
t47 -6.5v-35h-274v35q28 1 45 5.5t26 17t12 35t3 60.5v314h-228v-306q0 -37 4 -61t14.5 -38.5t28.5 -20t47 -6.5v-35h-264v35q25 1 40 5.5t23 17t10.5 35t2.5 60.5v314h-113v47h113v32q2 115 61.5 179.5t171.5 64.5q42 0 75.5 -14t53.5 -37q32 45 78 68t114 23q35 0 62.5 -6
t46.5 -17l86 23v-674zM454 514v156q-13 8 -26 18.5t-24 20.5q-25 21 -41 27t-35 6q-60 0 -86 -61q-9 -20 -12.5 -49t-3.5 -80v-38h228z" />
    <glyph glyph-name="f_b" unicode="fb" horiz-adv-x="1032" 
d="M565 459h4q32 42 70.5 61.5t89.5 19.5q54 0 100.5 -21t81 -58t54 -87.5t19.5 -108.5q0 -59 -20 -109.5t-54.5 -87.5t-81.5 -58t-102 -21q-57 0 -106.5 21t-81.5 57l-47 -67h-22v711l-22 19q-35 31 -59 41.5t-51 10.5t-47.5 -8t-34 -29t-20 -58t-6.5 -95v-78h161v-47h-161
v-306q0 -37 4 -61.5t14.5 -38.5t28.5 -20t47 -6v-35h-274v35q29 0 46 4t26 17t11.5 36t2.5 61v314h-113v47h113v72q0 115 60.5 179.5t171.5 64.5q35 0 62.5 -6t46.5 -17l89 23v-371zM567 209q0 -38 11 -69.5t30.5 -54t47 -35.5t59.5 -13q35 0 63.5 16t49 45.5t32 71
t11.5 92.5t-12 93.5t-33 73t-50.5 47.5t-64.5 17q-69 0 -106.5 -48.5t-37.5 -146.5v-89z" />
    <glyph glyph-name="f_h" unicode="fh" horiz-adv-x="1047" 
d="M567 159q0 -41 2.5 -65.5t10.5 -37.5t24.5 -17t44.5 -4v-35h-266v35q28 0 45 4t26 16.5t12 35.5t3 61v559l-22 19q-35 31 -59 41.5t-51 10.5t-47.5 -8t-34 -29t-20 -58t-6.5 -95v-78h161v-47h-161v-306q0 -37 4 -61.5t14.5 -38.5t29 -20t46.5 -6v-35h-274v35q28 0 45 4
t26 17t12 36t3 61v314h-113v47h113v72q0 115 60.5 179.5t171.5 64.5q35 0 62.5 -6t46.5 -17l86 23l-3 -4l6 4v-381h4q15 20 37.5 36.5t48.5 28.5t54.5 19t55.5 7q46 0 84.5 -16t59.5 -43q17 -23 25 -60.5t8 -101.5v-160q0 -41 2 -65.5t10.5 -37.5t24.5 -17t45 -4v-35h-265
v35q28 0 45 4t25.5 16.5t11 35.5t2.5 61v126q0 112 -26 159.5t-87 47.5q-47 0 -85.5 -24t-60.5 -66q-5 -11 -8.5 -20.5t-5.5 -21.5t-2.5 -27.5t-0.5 -38.5v-128z" />
    <glyph glyph-name="f_f_b" unicode="ffb" horiz-adv-x="1350" 
d="M883 459h4q32 42 70.5 61.5t89.5 19.5q54 0 100.5 -21t81 -58t54 -87.5t19.5 -108.5q0 -59 -20 -109.5t-54.5 -87.5t-81.5 -58t-102 -21q-57 0 -106.5 21t-81.5 57l-47 -67h-22v712l-21 18q-35 31 -59 41.5t-51 10.5t-47.5 -8t-34 -29t-20 -58t-6.5 -95v-78h161v-47h-161
v-306q0 -37 4 -61t14.5 -38.5t28.5 -20t47 -6.5v-35h-274v35q28 0 45 4t26 17t12 36t3 61v314h-228v-306q0 -37 4 -61.5t14.5 -38.5t28.5 -20t47 -6v-35h-264v35q25 0 40 4t23 17t10.5 36t2.5 61v314h-113v47h113v32q0 115 60.5 179.5t172.5 64.5q42 0 75.5 -14t53.5 -37
q32 45 78 68t114 23q35 0 62.5 -6t46.5 -17l88 23v-371zM885 209q0 -38 11 -69.5t30.5 -54t47 -35.5t59.5 -13q35 0 63.5 16t49 45.5t32 71t11.5 92.5t-12 93.5t-33 73t-50.5 47.5t-64.5 17q-69 0 -106.5 -48.5t-37.5 -146.5v-89zM454 514v156q-13 8 -26 18.5t-24 20.5
q-25 21 -41 27t-35 6q-24 0 -43 -8.5t-32 -30t-20 -58t-7 -93.5v-38h228z" />
    <glyph glyph-name="f_f_h" unicode="ffh" horiz-adv-x="1366" 
d="M886 159q0 -41 2 -65t10.5 -36.5t24.5 -16.5t45 -6v-35h-266v35q29 2 46 6t26 16t11.5 34.5t2.5 60.5v559l-22 19q-35 31 -59 41.5t-51 10.5q-37 0 -58 -15.5t-34 -45.5q-4 -10 -7 -20.5t-5 -25t-3 -35t-1 -48.5v-78h161v-47h-161v-306q0 -37 4 -61t14.5 -38.5t28.5 -20
t47 -6.5v-35h-274v35q28 1 45 5.5t26 17t12 35t3 60.5v314h-228v-306q0 -37 4 -61t14.5 -38.5t28.5 -20t47 -6.5v-35h-264v35q25 1 40 5.5t23 17t10.5 35t2.5 60.5v314h-113v47h113v32q2 115 61.5 179.5t171.5 64.5q42 0 75.5 -14t53.5 -37q32 45 78 68t114 23q35 0 62.5 -6
t46.5 -17l86 23l-3 -4l6 4v-381h4q15 20 37.5 36.5t48.5 28.5t54.5 19t55.5 7q46 0 84.5 -16t59.5 -43q17 -23 25 -60.5t8 -101.5v-160q0 -41 2 -64.5t10.5 -36.5t24.5 -17t45 -6v-35h-265v35q28 1 45 5.5t25.5 16.5t11 34.5t2.5 60.5v126q0 112 -26 159.5t-87 47.5
q-47 0 -85.5 -24t-60.5 -66q-5 -11 -8.5 -20.5t-5.5 -21.5t-2.5 -27.5t-0.5 -38.5v-128zM454 514v156q-13 8 -26 18.5t-24 20.5q-25 21 -41 27t-35 6q-60 0 -86 -61q-9 -20 -12.5 -49t-3.5 -80v-38h228z" />
    <glyph glyph-name="f_j" unicode="fj" horiz-adv-x="638" 
d="M547 -2q0 -125 -52.5 -191.5t-152.5 -66.5q-64 0 -104.5 25.5t-40.5 67.5q0 23 13.5 35t37.5 12q18 0 27.5 -8.5t24.5 -38.5q14 -30 26 -40t37 -10q48 0 67 33t19 116v348q0 58 -2 95.5t-5 51.5q-5 23 -23 31.5t-68 8.5h-125v-306q0 -37 3.5 -61.5t13 -38.5t26 -20
t41.5 -6v-35h-254v35q25 0 40 4t23 17t10.5 36t2.5 61v314h-113v47h113v72q0 115 66 179.5t187 64.5q71 0 115.5 -17.5t44.5 -45.5q0 -20 -12.5 -33.5t-31.5 -13.5q-12 0 -27 7t-38 23q-15 10 -26 16.5t-20.5 10t-19 4.5t-22.5 1q-31 0 -54 -8t-38 -29t-22.5 -58t-7.5 -95
v-79h160l161 27v-542z" />
    <glyph glyph-name="f_f_j" unicode="ffj" horiz-adv-x="960" 
d="M869 -2q0 -125 -52.5 -191.5t-152.5 -66.5q-64 0 -104.5 25.5t-40.5 67.5q0 23 13.5 35t37.5 12q18 0 29 -11t23 -36q14 -30 26 -40t37 -10q48 0 67 33t19 116v348q0 58 -2 95.5t-5 51.5q-5 23 -23 31.5t-68 8.5h-125v-321q0 -33 4.5 -54t15.5 -34t29 -18t45 -5v-35h-264
v35q23 0 38 4.5t23.5 17.5t11.5 36t3 60v314h-228v-306q0 -37 4 -61.5t14.5 -38.5t29 -20t46.5 -6v-35h-264v35q25 0 40 4t23 17t10.5 36t2.5 61v314h-113v47h113v32q0 115 60.5 179.5t172.5 64.5q41 0 72 -13t59 -39q32 42 84 67t127 25q71 0 115.5 -17.5t44.5 -45.5
q0 -20 -12.5 -33.5t-31.5 -13.5q-12 0 -27 7t-38 23q-15 10 -26 16.5t-20.5 10t-19 4.5t-22.5 1q-31 0 -54 -8t-38 -29t-22.5 -58t-7.5 -95v-79h160l161 27v-542zM454 514v156q-13 8 -26 18.5t-24 20.5q-25 21 -41 27t-35 6q-24 0 -43 -8.5t-32 -30t-20 -58t-7 -93.5v-38
h228z" />
    <glyph glyph-name="f_k" unicode="fk" horiz-adv-x="971" 
d="M703 35q35 0 45.5 2.5t10.5 10.5q0 3 -2 8t-7.5 13.5t-16 21.5t-27.5 34l-106 128l-37 -35v-59q0 -39 3.5 -63t13 -37.5t28 -18.5t48.5 -5v-35h-284v35q30 0 48.5 5t29 18t14.5 35.5t4 58.5v560l-21 18q-17 15 -30.5 25t-26.5 16t-26 8.5t-29 2.5q-27 0 -46.5 -8t-33 -29
t-20 -58t-6.5 -95v-78h161v-47h-161v-306q0 -37 4 -61.5t14.5 -38.5t29 -20t46.5 -6v-35h-274v35q28 0 45 4t26 17t12 36t3 61v314h-113v47h113v72q0 115 60.5 179.5t171.5 64.5q35 0 62.5 -6t46.5 -17l87 23v-549l93 91q29 28 46 45.5t26 28.5t12 16.5t3 10.5
q0 12 -16.5 17t-62.5 5v35h260v-35q-19 0 -33 -2t-26.5 -8t-26.5 -16.5t-32 -26.5l-144 -128l198 -224q14 -17 26 -27.5t24 -16.5t25.5 -8.5t30.5 -2.5v-35h-263v35z" />
    <glyph glyph-name="f_f_k" unicode="ffk" horiz-adv-x="1291" 
d="M1023 35q37 0 47.5 3t10.5 8q0 3 -2 8t-8 14t-17 22.5t-28 34.5l-106 128l-37 -35v-59q0 -39 3.5 -63t13.5 -37.5t28 -18.5t48 -5v-35h-284v35q30 0 48.5 5t29 18t14.5 35.5t4 58.5v559l-22 19q-35 31 -59 41.5t-51 10.5t-47.5 -8t-34 -29t-20 -58t-6.5 -95v-78h161v-47
h-161v-306q0 -37 4 -61.5t14.5 -38.5t29 -20t46.5 -6v-35h-274v35q28 0 45 4t26 17t12 36t3 61v314h-228v-306q0 -37 4 -61.5t14.5 -38.5t29 -20t46.5 -6v-35h-264v35q25 0 40 4t23 17t10.5 36t2.5 61v314h-113v47h113v32q0 115 60.5 179.5t172.5 64.5q42 0 75.5 -14
t53.5 -37q32 45 78 68t114 23q35 0 62.5 -6t46.5 -17l88 23v-549l93 91q31 30 48.5 48t26.5 29t11.5 16t2.5 10q0 8 -19 14t-62 6v35h260v-35q-18 0 -32 -2t-27 -8t-27 -16.5t-32 -26.5l-144 -128l198 -224q28 -32 51 -43.5t55 -11.5v-35h-263v35zM454 514v156
q-13 8 -26 18.5t-24 20.5q-25 21 -41 27t-35 6q-24 0 -43 -8.5t-32 -30t-20 -58t-7 -93.5v-38h228z" />
    <glyph glyph-name="f_t" unicode="ft" horiz-adv-x="762" 
d="M229 467v-306q0 -37 4.5 -61.5t16 -38.5t31.5 -20t52 -6v-35h-284v35q29 0 46 4t26 17t11.5 36t2.5 61v314h-113v47h113v72q0 115 60.5 179.5t172.5 64.5q62 0 101 -19t39 -49q0 -20 -12.5 -33.5t-31.5 -13.5q-12 0 -26 7.5t-35 25.5q-25 21 -39 27.5t-33 6.5
q-24 0 -43 -8.5t-32 -30t-20 -58t-7 -93.5v-78h175q21 0 44 10.5t43.5 28.5t36.5 40.5t25 46.5h29v-126h134v-47h-134v-304q0 -35 3.5 -59t11.5 -38.5t21 -20.5t33 -6q25 0 42.5 10.5t34.5 35.5l25 -19q-14 -37 -48.5 -56.5t-85.5 -19.5q-66 0 -100.5 31.5t-34.5 90.5v355
h-255z" />
    <glyph glyph-name="f_f_t" unicode="fft" horiz-adv-x="1057" 
d="M548 467v-306q0 -37 4 -61t14.5 -38.5t28.5 -20t47 -6.5v-35h-264v35q25 1 40 5.5t23 17t10.5 35t2.5 60.5v314h-228v-306q0 -37 4 -61t14.5 -38.5t28.5 -20t47 -6.5v-35h-264v35q25 1 40 5.5t23 17t10.5 35t2.5 60.5v314h-113v47h113v32q2 115 61.5 179.5t171.5 64.5
q42 0 74 -13.5t49 -29.5q29 33 79.5 58t119.5 25q62 0 101 -19t39 -49q0 -20 -12.5 -33.5t-31.5 -13.5q-12 0 -25.5 7.5t-35.5 25.5q-25 21 -39 27.5t-33 6.5q-60 0 -86 -61q-9 -20 -12.5 -49t-3.5 -80v-78h151q21 0 44 10.5t43.5 28.5t36.5 40.5t25 46.5h29v-126h134v-47
h-134v-304q0 -35 3.5 -59t11.5 -38.5t21 -20.5t33 -6q25 0 42.5 10.5t34.5 35.5l25 -19q-14 -37 -48.5 -56.5t-85.5 -19.5q-66 0 -100.5 31.5t-34.5 90.5v355h-231zM454 514v156q-13 8 -26 18.5t-24 20.5q-25 21 -41 27t-35 6q-60 0 -86 -61q-9 -20 -12.5 -49t-3.5 -80v-38
h228z" />
    <glyph glyph-name=".notdef" horiz-adv-x="756" 
d="M130 970h496v-1230h-496v1230zM240 -199h275v1110h-275v-1110z" />
    <glyph glyph-name=".null" horiz-adv-x="0" 
 />
    <glyph glyph-name="nonmarkingreturn" horiz-adv-x="333" 
 />
    <glyph glyph-name="space" unicode=" " horiz-adv-x="287" 
 />
    <glyph glyph-name="exclam" unicode="!" horiz-adv-x="308" 
d="M89 55q0 28 19 47t46 19q28 0 47 -19t19 -47q0 -27 -19 -46t-47 -19q-27 0 -46 19t-19 46zM130 207q0 80 -1.5 136t-5 98t-8.5 75t-11 68q-5 28 -8 46.5t-4.5 32t-2 25t-0.5 26.5q0 27 17.5 46.5t47.5 19.5t47.5 -19.5t17.5 -46.5v-25.5t-1.5 -25.5t-4.5 -33.5t-9 -49.5
q-6 -33 -11 -65.5t-8 -74t-5 -97.5t-2 -136h-48z" />
    <glyph glyph-name="quotedbl" unicode="&#x22;" horiz-adv-x="367" 
d="M93 564q-4 28 -9.5 61t-11 64t-9 55.5t-3.5 36.5q0 21 13.5 35t33.5 14t33.5 -14t13.5 -36q0 -12 -3.5 -37t-8.5 -55l-10.5 -63t-9.5 -61h-29zM245 564q-4 28 -9.5 61t-11 64t-9 55.5t-3.5 36.5q0 21 13.5 35t33.5 14t33.5 -14t13.5 -36q0 -12 -3.5 -37t-8.5 -55
l-10.5 -63t-9.5 -61h-29z" />
    <glyph glyph-name="numbersign" unicode="#" horiz-adv-x="666" 
d="M590 255h-139l-37 -255h-59l35 255h-151l-38 -255h-60l38 255h-140l8 50h142l24 170h-143l8 50h144l35 245h60l-35 -245h151l34 245h60l-34 -245h134l-8 -50h-135l-23 -170h137zM273 475l-24 -170h151l23 170h-150z" />
    <glyph glyph-name="dollar" unicode="$" horiz-adv-x="622" 
d="M343 900v-122q42 -4 80 -18t66.5 -35t45 -47t16.5 -54q0 -26 -14 -40t-38 -14q-22 0 -32.5 11t-16.5 27.5t-11 36.5t-15 37.5t-28.5 31t-52.5 17.5v-276q66 -29 110.5 -55.5t72.5 -55t40 -59.5t12 -68q0 -47 -17 -86.5t-48 -69t-74.5 -47.5t-95.5 -22v-162h-55v161
q-50 2 -95 16t-79.5 37t-55 54.5t-20.5 69.5q0 34 15 48t34 14t30.5 -11.5t18.5 -28t11 -34.5t7 -30q4 -16 12.5 -30.5t24 -26.5t39 -19.5t58.5 -8.5v300q-38 16 -75 34t-66 44t-47 62t-18 87q0 45 14.5 82.5t41.5 65t65 44t85 19.5v121h55zM474 169q0 29 -10.5 51.5t-28 40
t-41.5 31t-51 25.5v-274q66 8 98.5 41.5t32.5 84.5zM176 618q0 -42 26.5 -76t85.5 -63v251q-52 -8 -82 -37t-30 -75z" />
    <glyph glyph-name="percent" unicode="%" horiz-adv-x="671" 
d="M92 0h-57l553 770h48zM200 780q24 0 45.5 -12.5t37.5 -34t25.5 -50.5t9.5 -63q0 -33 -9.5 -61.5t-25.5 -49.5t-37.5 -33t-45.5 -12t-45.5 12t-37.5 33t-25.5 49.5t-9.5 61.5q0 34 9.5 63t25.5 50.5t37.5 34t45.5 12.5zM200 489q29 0 45 27t16 102q0 39 -4 65.5t-12 42.5
t-19 22.5t-26 6.5t-26 -6.5t-19 -22.5t-12 -42.5t-4 -65.5q0 -75 16 -102t45 -27zM471 306q24 0 45.5 -12.5t37.5 -34t25.5 -50.5t9.5 -63q0 -33 -9.5 -61.5t-25.5 -49.5t-37.5 -33t-45.5 -12t-45.5 12t-37.5 33t-25.5 49.5t-9.5 61.5q0 34 9.5 63t25.5 50.5t37.5 34
t45.5 12.5zM471 15q29 0 45 27t16 102q0 39 -4 65.5t-12 42.5t-19 22.5t-26 6.5t-26 -6.5t-19 -22.5t-12 -42.5t-4 -65.5q0 -75 16 -102t45 -27z" />
    <glyph glyph-name="ampersand" unicode="&#x26;" horiz-adv-x="878" 
d="M347 458q48 37 70 75.5t22 83.5q0 47 -21 74.5t-56 27.5q-66 0 -66 -101q0 -44 13 -84.5t38 -75.5zM290 364q-63 -36 -98 -84.5t-35 -100.5q0 -55 35.5 -90.5t91.5 -35.5q42 0 90 21t91 59zM537 209q24 30 44.5 58.5t35.5 54t23 46.5t8 34q0 16 -14.5 23t-46.5 7v35h230
v-35q-22 0 -37.5 -2.5t-27.5 -8.5t-22.5 -16t-20.5 -26l-142 -208q42 -57 87.5 -86.5t90.5 -29.5q13 0 23 2.5t18.5 9t16 17.5t15.5 28l25 -7q-11 -56 -49 -85.5t-99 -29.5q-25 0 -47.5 5.5t-45.5 18.5t-49 34t-57 52q-50 -52 -115.5 -81t-133.5 -29q-46 0 -84.5 13.5
t-66.5 37t-44 56t-16 70.5q0 68 54 125.5t173 115.5q-32 47 -46.5 88t-14.5 86q0 44 12.5 80.5t35.5 62.5t55 40.5t71 14.5q34 0 62.5 -11t49.5 -31t32.5 -47t11.5 -60q0 -56 -36.5 -105t-120.5 -106z" />
    <glyph glyph-name="quotesingle" unicode="'" horiz-adv-x="215" 
d="M93 564q-4 28 -9.5 61t-11 64t-9 55.5t-3.5 36.5q0 21 13.5 35t33.5 14t33.5 -14t13.5 -36q0 -12 -3.5 -37t-8.5 -55l-10.5 -63t-9.5 -61h-29z" />
    <glyph glyph-name="parenleft" unicode="(" horiz-adv-x="332" 
d="M312 803q-49 -66 -81 -121.5t-50.5 -108.5t-26 -109t-7.5 -124q0 -83 9.5 -153t30.5 -131.5t54 -116t79 -105.5l-31 -28q-120 117 -181 247.5t-61 269.5q0 136 59 264t175 244z" />
    <glyph glyph-name="parenright" unicode=")" horiz-adv-x="332" 
d="M51 831q116 -116 175 -244t59 -264q0 -139 -61 -269.5t-181 -247.5l-31 28q46 51 79 105.5t54 116t30.5 131.5t9.5 153q0 68 -7.5 124t-26 109t-50.5 108.5t-81 121.5z" />
    <glyph glyph-name="asterisk" unicode="*" horiz-adv-x="516" 
d="M272 539q0 -31 4.5 -54t10 -40.5t10 -29.5t4.5 -21q0 -18 -13 -31.5t-31 -13.5q-21 0 -33.5 14.5t-12.5 34.5q0 7 4.5 18t10 27.5t10.5 40t6 55.5q-41 -23 -60 -42t-29.5 -33t-18 -21.5t-25.5 -7.5q-19 0 -32.5 13.5t-13.5 32.5q0 23 13 32t35.5 14t52 12t63.5 26
q-30 17 -52 24t-38 10t-27.5 4t-20.5 7q-12 7 -18 17.5t-6 22.5q0 20 14.5 32.5t32.5 12.5q13 0 25 -10.5t26.5 -26t33.5 -34t46 -33.5q0 62 -17 102q-5 8 -9 20.5t-4 20.5q0 20 12.5 33t32.5 13t33 -13t13 -33q0 -8 -4 -19.5t-9 -21.5q-10 -21 -13.5 -45.5t-4.5 -56.5
q36 21 55 40t30.5 33.5t20 22.5t25.5 8q19 0 33 -13t14 -32q0 -24 -10 -31.5t-30.5 -11.5t-51 -11.5t-70.5 -30.5q37 -22 67.5 -28.5t52 -10.5t33 -12.5t11.5 -33.5q0 -20 -14.5 -32t-32.5 -12q-12 0 -24 7t-27 31q-9 14 -31 32t-52 33z" />
    <glyph glyph-name="plus" unicode="+" horiz-adv-x="550" 
d="M249 104v209h-208v50h208v209h52v-209h208v-50h-208v-209h-52z" />
    <glyph glyph-name="comma" unicode="," horiz-adv-x="273" 
d="M49 -143q54 38 77 73t23 78q-13 -8 -30 -8q-23 0 -37.5 16.5t-14.5 42.5q0 28 18.5 45t48.5 17q72 0 72 -100q0 -28 -7 -52t-22.5 -47t-41.5 -46.5t-63 -50.5z" />
    <glyph glyph-name="hyphen" unicode="-" horiz-adv-x="463" 
d="M77 248v83h309v-83h-309z" />
    <glyph glyph-name="period" unicode="." horiz-adv-x="265" 
d="M67 55q0 28 19 47t46 19q28 0 47 -19t19 -47q0 -27 -19 -46t-47 -19q-27 0 -46 19t-19 46z" />
    <glyph glyph-name="slash" unicode="/" horiz-adv-x="460" 
d="M87 0h-58l353 770h49z" />
    <glyph glyph-name="zero" unicode="0" horiz-adv-x="714" 
d="M357 780q61 0 115 -31t94 -85t63.5 -127t23.5 -158q0 -81 -23.5 -152t-63.5 -123.5t-94 -83t-115 -30.5t-115 30.5t-94 83t-63.5 123.5t-23.5 152q0 85 23.5 158t63.5 127t94 85t115 31zM357 38q39 0 69.5 16t52 55t33 104t11.5 163q0 102 -11.5 170t-32.5 109.5t-52 59
t-70 17.5t-70 -17.5t-52 -59t-32.5 -109.5t-11.5 -170q0 -98 11.5 -163t32.5 -104t52 -55t70 -16z" />
    <glyph glyph-name="one" unicode="1" horiz-adv-x="446" 
d="M276 162q0 -39 3.5 -62.5t14.5 -37t31.5 -18.5t54.5 -6v-38h-306v38q33 1 53.5 6.5t32 18t15 35t3.5 57.5v367q0 58 -0.5 96t-3.5 50q-5 22 -30 27t-75 5v38q49 2 103.5 13.5t103.5 28.5v-618z" />
    <glyph glyph-name="two" unicode="2" horiz-adv-x="616" 
d="M196 98h199q24 0 42 4.5t32 17.5t25 35.5t22 57.5h37l-38 -213h-465v33q114 102 187.5 178.5t115.5 137.5t58 112.5t16 104.5q0 78 -36.5 123t-99.5 45q-60 0 -97.5 -39t-37.5 -101q0 -54 29.5 -86t80.5 -32q-5 -24 -26 -38.5t-52 -14.5q-28 0 -51.5 11t-41 31t-27 47.5
t-9.5 60.5q0 45 19 83t52 65.5t78.5 43.5t98.5 16t97 -16t76 -45t49.5 -68.5t17.5 -87.5q0 -62 -27.5 -121.5t-75.5 -117t-112 -113t-137 -109.5z" />
    <glyph glyph-name="three" unicode="3" horiz-adv-x="616" 
d="M429 214q0 83 -33.5 128.5t-94.5 45.5q-15 -8 -33.5 -13t-33.5 -5q-20 0 -33 9.5t-13 24.5q0 14 12 21t32 7q13 0 29.5 -3t31.5 -8q54 0 86.5 48t32.5 128q0 140 -118 140q-53 0 -83.5 -24t-30.5 -66q0 -34 20 -55t52 -21q-5 -17 -24.5 -27.5t-45.5 -10.5q-22 0 -40.5 8
t-32 22.5t-21.5 33.5t-8 42q0 32 15.5 58t43.5 44.5t67.5 28.5t87.5 10q54 0 98 -13t75 -36t48 -56t17 -73q0 -34 -12 -64t-32 -54.5t-47.5 -41.5t-58.5 -25v-6q37 -10 69 -29t55 -45t36 -59t13 -71q0 -47 -20 -86.5t-55 -68.5t-83.5 -45.5t-106.5 -16.5q-52 0 -95.5 13.5
t-75.5 37t-50 56t-18 70.5q0 27 9 50t24.5 40.5t36.5 27t45 9.5q28 0 50 -12.5t27 -31.5q-38 0 -62 -27.5t-24 -70.5q0 -51 36 -83t95 -32q69 0 105 45.5t36 131.5z" />
    <glyph glyph-name="four" unicode="4" horiz-adv-x="585" 
d="M18 229l352 551h31v-553q31 1 49.5 4.5t28 13t12.5 27t3 46.5h35v-223h-35q0 27 -3 44t-12.5 26.5t-28 13t-49.5 4.5v-21q0 -39 3 -63t11.5 -37.5t24 -18.5t40.5 -5v-38h-281v38q33 0 53.5 5t31.5 18t15 36t4 58v24h-285v50zM303 585h-5l-230 -356h235v356z" />
    <glyph glyph-name="five" unicode="5" horiz-adv-x="568" 
d="M198 482l2 -3q15 11 44 18.5t58 7.5q44 0 82 -17.5t65.5 -48.5t43.5 -73.5t16 -91.5q0 -60 -22.5 -111.5t-62 -90t-93 -60.5t-115.5 -22q-42 0 -78 10.5t-61.5 28.5t-40 43.5t-14.5 55.5q0 27 12.5 42t35.5 15q21 0 31.5 -11t16.5 -28t11 -36.5t14.5 -36.5t27 -28
t48.5 -11q39 0 70 18.5t52 53t32.5 83t11.5 108.5q0 85 -23.5 125t-78.5 40q-42 0 -68.5 -22.5t-43.5 -72.5q-6 -18 -11 -23t-13 -5q-22 0 -22 20q0 5 1 8l107 413q22 -9 50 -13.5t67 -4.5q93 0 133 19l6 -1q-12 -57 -52.5 -88t-103.5 -31h-88z" />
    <glyph glyph-name="six" unicode="6" horiz-adv-x="643" 
d="M586 259q0 -56 -20.5 -105t-56.5 -85.5t-84.5 -57.5t-103.5 -21q-57 0 -105 25.5t-82.5 71.5t-53.5 109.5t-19 140.5q0 91 25 171.5t68 141t101 95.5t123 35q36 0 67.5 -8t55 -21.5t37 -32.5t13.5 -40q0 -24 -14.5 -38t-39.5 -14q-29 0 -41.5 17t-23.5 37.5t-28 37.5
t-55 17q-35 0 -64 -24t-51 -66t-34 -100t-12 -125l3 -2q32 47 69.5 68.5t88.5 21.5t94 -19t75 -52.5t50 -79t18 -98.5zM186 283q0 -248 139 -248q69 0 102.5 53.5t33.5 166.5q0 100 -32 152t-94 52q-46 0 -81 -30t-68 -97v-49z" />
    <glyph glyph-name="seven" unicode="7" horiz-adv-x="502" 
d="M417 671h-186q-39 0 -63 -2.5t-39 -11t-24.5 -24.5t-19.5 -44l-15 -39h-38l70 280h40q-2 -5 -3 -14.5t-1 -16.5q0 -17 15 -23t61 -6h293v-20q-33 -75 -58.5 -132.5t-46 -105t-37.5 -89.5t-34.5 -85t-36 -92t-41.5 -110q-17 -45 -30.5 -73t-25.5 -44.5t-23.5 -22.5
t-24.5 -6q-18 0 -30.5 13.5t-12.5 27.5q0 8 1.5 17.5t7 25t17 40.5t31 64t48.5 95.5t70 136.5z" />
    <glyph glyph-name="eight" unicode="8" horiz-adv-x="606" 
d="M269 365q-57 -32 -86 -78.5t-29 -103.5q0 -68 40.5 -107.5t109.5 -39.5t109.5 38.5t40.5 104.5q0 22 -6.5 41t-21 37t-38.5 36t-59 38zM385 433q160 -85 160 -221q0 -47 -18.5 -87.5t-51.5 -70.5t-78 -47t-97 -17q-51 0 -95 14.5t-76.5 40t-51 60.5t-18.5 75
q0 125 168 206q-141 76 -141 194q0 41 16.5 78t47.5 66q61 56 150 56q78 0 140 -42q37 -26 56.5 -60.5t19.5 -74.5q0 -51 -31 -94t-100 -76zM343 454q43 29 66.5 66t23.5 78q0 29 -10.5 54t-29 43.5t-43.5 29t-55 10.5q-56 0 -89.5 -32t-33.5 -84q0 -40 29 -72.5t95 -67.5z
" />
    <glyph glyph-name="nine" unicode="9" horiz-adv-x="643" 
d="M57 511q0 56 20.5 105t56.5 85.5t84.5 57.5t103.5 21q57 0 105 -25.5t82.5 -71.5t53.5 -110t19 -140q0 -91 -25 -171.5t-68 -141t-101 -95.5t-123 -35q-36 0 -67.5 8t-55 21.5t-37 32.5t-13.5 40q0 24 14.5 38t39.5 14q29 0 41.5 -17t23.5 -37.5t28 -37.5t55 -17
q34 0 63.5 24t51.5 66t34 99.5t12 125.5l-3 2q-32 -47 -69.5 -68.5t-88.5 -21.5t-94 19t-75 52.5t-50 79t-18 98.5zM457 487q0 248 -139 248q-69 0 -102.5 -53.5t-33.5 -166.5q0 -100 32 -152t94 -52q46 0 81 30t68 97v49z" />
    <glyph glyph-name="colon" unicode=":" horiz-adv-x="285" 
d="M77 55q0 28 19 47t46 19q28 0 47 -19t19 -47q0 -27 -19 -46t-47 -19q-27 0 -46 19t-19 46zM77 381q0 28 19 47t46 19q28 0 47 -19t19 -47q0 -27 -19 -46t-47 -19q-27 0 -46 19t-19 46z" />
    <glyph glyph-name="semicolon" unicode=";" horiz-adv-x="311" 
d="M89 381q0 28 19 47t46 19q28 0 47 -19t19 -47q0 -27 -19 -46t-47 -19q-27 0 -46 19t-19 46zM71 -143q54 38 77 73t23 78q-13 -8 -30 -8q-23 0 -37.5 16.5t-14.5 42.5q0 28 18.5 45t48.5 17q72 0 72 -100q0 -28 -7 -52t-22.5 -47t-41.5 -46.5t-63 -50.5z" />
    <glyph glyph-name="less" unicode="&#x3c;" horiz-adv-x="581" 
d="M497 126v-54l-458 232v64l458 232v-56l-413 -208z" />
    <glyph glyph-name="equal" unicode="=" horiz-adv-x="620" 
d="M537 422h-454v50h454v-50zM537 252h-454v50h454v-50z" />
    <glyph glyph-name="greater" unicode="&#x3e;" horiz-adv-x="581" 
d="M497 336l-413 208v56l458 -232v-64l-458 -232v54z" />
    <glyph glyph-name="question" unicode="?" horiz-adv-x="399" 
d="M125 237v229h29q130 0 130 99q0 24 -7 45t-18.5 37t-27.5 25t-34 9t-38 -5.5t-37 -5.5q-23 0 -38 15t-15 39q0 56 62 56q41 0 79 -20.5t67 -55t46.5 -80t17.5 -94.5q0 -76 -42 -118t-119 -42v-133h-55zM84 55q0 28 19 47t46 19q28 0 47 -19t19 -47q0 -27 -19 -46t-47 -19
q-27 0 -46 19t-19 46z" />
    <glyph glyph-name="at" unicode="@" horiz-adv-x="1029" 
d="M693 530h96l-67 -237q-11 -40 -18.5 -75.5t-7.5 -50.5q0 -19 12 -29.5t32 -10.5q33 0 65.5 25.5t58 67t41.5 94t16 106.5q0 68 -26.5 125.5t-73 99.5t-110.5 66t-140 24q-90 0 -168.5 -33.5t-136 -92t-90.5 -138.5t-33 -172q0 -86 29.5 -157t83 -121.5t128.5 -78.5
t166 -28q169 0 314 100l21 -31q-88 -61 -171 -89t-177 -28q-107 0 -196 32t-153 89.5t-100 137.5t-36 175q0 101 39.5 189t109 152.5t163 101.5t201.5 37q90 0 163.5 -26t126.5 -73t82 -113t29 -146q0 -69 -20.5 -131.5t-55.5 -110t-81 -75.5t-97 -28q-96 0 -105 115h-4
q-31 -52 -77 -83.5t-92 -31.5q-32 0 -59.5 13t-47.5 35.5t-31.5 54t-11.5 68.5q0 55 23 107.5t60.5 93.5t85 66t97.5 25q47 0 75 -23.5t42 -74.5l4 -1zM558 498q-33 0 -64.5 -23.5t-56.5 -61.5t-40 -86.5t-15 -99.5q0 -105 67 -105q32 0 65 24.5t59.5 63.5t43.5 87.5
t17 96.5q0 49 -20 76.5t-56 27.5z" />
    <glyph glyph-name="A" unicode="A" horiz-adv-x="772" 
d="M488 279h-267q-17 -41 -29 -72.5t-19.5 -54.5t-10.5 -39t-3 -26q0 -28 18 -38.5t60 -10.5v-38h-243v38q23 3 39.5 8t29 14t22 23.5t18.5 35.5l260 651h43l227 -564q23 -56 40 -89.5t33 -50.5t34.5 -22t44.5 -5v-39h-326v39q53 0 73 10t20 33q0 10 -1 18.5t-3.5 18.5
t-7 22.5t-11.5 29.5zM241 329h228l-111 295z" />
    <glyph glyph-name="B" unicode="B" horiz-adv-x="767" 
d="M38 0v38q39 1 62.5 6t36 17t17 34t4.5 57v466q0 35 -3.5 56.5t-14 34t-30.5 17t-52 6.5v38h299q135 0 210 -48t75 -135q0 -66 -41.5 -108t-131.5 -69v-4q31 -3 54 -7t41 -9.5t33.5 -13.5t30.5 -18q89 -63 89 -158q0 -53 -29.5 -98.5t-82.5 -71.5q-17 -9 -35 -14.5t-42 -9
t-55.5 -5t-74.5 -1.5h-360zM401 43q181 0 181 155q0 113 -93 158q-16 7 -31 12t-35 7.5t-47.5 3.5t-67.5 1h-45v-223q0 -61 32 -87.5t106 -26.5zM319 430q31 0 52 1t36 3.5t26.5 7t23.5 12.5q32 20 45.5 48t13.5 73q0 79 -38.5 113.5t-120.5 34.5h-77q-17 0 -17 -17v-276h56
z" />
    <glyph glyph-name="C" unicode="C" horiz-adv-x="802" 
d="M689 770h28l9 -230h-37q-22 88 -85 138t-152 50q-61 0 -109 -24t-81 -69t-50.5 -110t-17.5 -147q0 -161 67 -247.5t194 -86.5q193 0 248 205h41v-249h-35l-23 79q-105 -89 -254 -89q-85 0 -153.5 27t-117 76.5t-75 120.5t-26.5 158q0 91 28 166t78.5 129t121 83.5
t155.5 29.5q60 0 113 -17t115 -55z" />
    <glyph glyph-name="D" unicode="D" horiz-adv-x="884" 
d="M38 0v38q38 1 61.5 5.5t36.5 17t17.5 34t4.5 57.5v466q0 35 -3.5 56.5t-14 34t-30.5 17t-52 6.5v38h351q90 0 166.5 -30t132 -83t86.5 -126t31 -159q0 -82 -29 -150.5t-81.5 -117.5t-125.5 -76.5t-160 -27.5h-391zM280 721q-17 0 -17 -17v-541q0 -114 149 -114
q137 0 210 81.5t73 239.5q0 83 -20 148t-57.5 110t-90.5 69t-120 24h-127z" />
    <glyph glyph-name="E" unicode="E" horiz-adv-x="726" 
d="M260 423q54 0 90.5 6.5t58 20.5t31 36t9.5 52h35v-273h-35q0 30 -8.5 52t-30 36.5t-58 22t-92.5 7.5v-226q0 -33 8 -54.5t27.5 -35t51.5 -19t79 -5.5q53 0 90 7.5t62 25.5t40 47.5t25 73.5h38l-15 -197h-621v38q35 1 56.5 6t33.5 17t16 34t4 57v466q0 35 -3.5 56.5
t-14 34t-30.5 17t-52 6.5v38h578l9 -176h-35q-6 40 -19.5 65.5t-37 40.5t-59.5 21t-87 6h-127q-17 0 -17 -17v-287z" />
    <glyph glyph-name="F" unicode="F" 
d="M260 159q0 -38 4.5 -61.5t19.5 -36t42.5 -17.5t72.5 -6v-38h-354v38q35 1 56.5 6t33.5 17t16 34t4 57v466q0 35 -3.5 56.5t-14 34t-30.5 17t-52 6.5v38h578l11 -191h-35q-6 43 -19 70.5t-36.5 43.5t-59.5 22.5t-90 6.5h-127q-17 0 -17 -17v-302q48 0 82.5 5.5t57 19.5
t34.5 38t15 62h35v-293h-35q-5 38 -16 63t-32.5 39t-55.5 20t-85 6v-204z" />
    <glyph glyph-name="G" unicode="G" horiz-adv-x="870" 
d="M428 -10q-85 0 -153 27t-116 76.5t-73.5 120.5t-25.5 158q0 91 28 166t78.5 129t121 83.5t155.5 29.5q60 0 113 -17t115 -55l21 62h35l-13 -230h-48q0 49 -18.5 84.5t-48.5 58.5t-68.5 34t-78.5 11q-61 0 -109 -24t-81 -69t-50.5 -110t-17.5 -147q0 -161 67 -247.5
t194 -86.5q48 0 86 11.5t64.5 31t40 45t13.5 53.5q0 58 -23.5 78.5t-76.5 20.5v38h284v-38q-24 0 -40 -4t-25.5 -14.5t-13 -27.5t-3.5 -43v-112q-19 0 -34.5 -1.5t-32.5 -7t-37.5 -15t-48.5 -25.5q-35 -20 -80.5 -32t-99.5 -12z" />
    <glyph glyph-name="H" unicode="H" horiz-adv-x="925" 
d="M770 159q0 -38 4 -61.5t15.5 -36t33 -17.5t56.5 -6v-38h-324v38q35 1 56.5 6t33.5 17t16 34t4 57v217h-405v-210q0 -38 4 -61.5t15.5 -36t33 -17.5t56.5 -6v-38h-324v38q35 1 56.5 6t33.5 17t16 34t4 57v466q0 35 -3.5 56.5t-14 34t-30.5 17t-52 6.5v38h304v-38
q-32 -1 -51.5 -6t-30 -18t-14 -36t-3.5 -61v-192h405v199q0 35 -3.5 56.5t-14 34t-30.5 17t-52 6.5v38h304v-38q-32 -1 -51.5 -6t-30 -18t-14 -36t-3.5 -61v-452z" />
    <glyph glyph-name="I" unicode="I" horiz-adv-x="415" 
d="M260 189q0 -50 4 -79t15.5 -45t33 -21t56.5 -6v-38h-324v38q35 1 56.5 6.5t33.5 20.5t16 42.5t4 74.5v406q0 42 -3.5 69.5t-14 43.5t-30.5 22.5t-52 8.5v38h304v-38q-32 -1 -51.5 -8t-30 -23.5t-14 -45.5t-3.5 -74v-392z" />
    <glyph glyph-name="J" unicode="J" horiz-adv-x="394" 
d="M145 618q0 35 -3.5 56.5t-14 34t-30.5 17t-52 6.5v38h304v-38q-32 -1 -51.5 -6t-30 -18t-14 -36t-3.5 -61v-613q0 -126 -53 -192t-155 -66q-69 0 -110.5 26.5t-41.5 70.5q0 26 13.5 39.5t37.5 13.5q19 0 30.5 -9.5t26.5 -37.5q17 -32 29.5 -43.5t32.5 -11.5q41 0 63 44
t22 125v661z" />
    <glyph glyph-name="K" unicode="K" horiz-adv-x="779" 
d="M260 159q0 -38 4 -62t16 -37t33 -17.5t56 -4.5v-38h-324v38q35 0 56.5 4.5t33.5 17t16 35t4 57.5v466q0 38 -4.5 60.5t-16 34.5t-30.5 15.5t-49 3.5v38h304v-38q-30 0 -49 -4t-30.5 -17t-15.5 -36.5t-4 -63.5v-247l250 301q20 25 20 39q0 28 -57 28v38h241v-37
q-20 0 -35 -2.5t-29.5 -10.5t-30.5 -23t-37 -39l-188 -217l292 -351q25 -29 47 -40.5t59 -11.5v-38h-307v38q39 0 56 6.5t17 20.5q0 8 -8 23t-26 37l-195 240l-69 -80v-126z" />
    <glyph glyph-name="L" unicode="L" horiz-adv-x="727" 
d="M691 0h-646v38q35 1 56.5 6t33.5 17t16 34t4 57v466q0 35 -3.5 56.5t-14 34t-30.5 17t-52 6.5v38h304v-38q-32 -1 -51.5 -6t-30 -18t-14 -36t-3.5 -61v-431q0 -42 8.5 -68.5t29 -41t54.5 -20t86 -5.5q57 0 96 6.5t65.5 23t42 46t26.5 76.5h38z" />
    <glyph glyph-name="M" unicode="M" horiz-adv-x="1090" 
d="M550 179l260 591h224v-38q-32 -1 -51.5 -8t-30 -23.5t-14 -45.5t-3.5 -74v-392q0 -50 4 -79t15.5 -45t33 -21t56.5 -6v-38h-324v38q35 1 56.5 6.5t33.5 20.5t16 42.5t4 74.5v464h-10l-292 -656h-22l-287 656h-4v-457q0 -50 4 -79t15.5 -45t33 -21t56.5 -6v-38h-279v38
q35 1 56.5 6.5t33.5 20.5t16 42.5t4 74.5v406q0 42 -3.5 69.5t-14 43.5t-30.5 22.5t-52 8.5v38h239l252 -591h4z" />
    <glyph glyph-name="N" unicode="N" horiz-adv-x="902" 
d="M694 -10l-475 626h-4v-427q0 -50 3.5 -79t14 -45t30 -21t51.5 -6v-38h-269v38q35 1 56.5 6.5t33.5 20.5t16 42.5t4 74.5v406q0 42 -3.5 69.5t-14 43.5t-30.5 22.5t-52 8.5v38h198l437 -583h4v394q0 49 -3.5 78.5t-14 45.5t-30 21t-51.5 6v38h269v-38q-35 -1 -56.5 -6.5
t-33.5 -20.5t-16 -43t-4 -74v-598h-60z" />
    <glyph glyph-name="O" unicode="O" horiz-adv-x="946" 
d="M473 780q88 0 164 -31t132 -85t88 -127t32 -158q0 -81 -32.5 -152t-88.5 -123.5t-132 -83t-163 -30.5t-163 30.5t-132 83t-88.5 123.5t-32.5 152q0 85 32 158t88 127t132 85t164 31zM473 45q66 0 118.5 23t90 66t57.5 104.5t20 137.5q0 80 -20 144.5t-57 110t-90 70
t-119 24.5t-119 -24.5t-90 -70t-57 -110t-20 -144.5q0 -76 20 -137.5t57 -104.5t90 -66t119 -23z" />
    <glyph glyph-name="P" unicode="P" horiz-adv-x="687" 
d="M658 577q0 -53 -17 -95t-53.5 -71t-95 -45t-142.5 -16h-90v-193q0 -37 4.5 -60.5t19 -36.5t42 -17.5t72.5 -4.5v-38h-353v38q35 1 56.5 6t33.5 17t16 34t4 57v466q0 35 -3.5 56.5t-14 34t-30.5 17t-52 6.5v38h314q138 0 213.5 -51t75.5 -142zM260 400h71
q100 0 148.5 38.5t48.5 126.5q0 85 -38.5 121.5t-120.5 36.5h-92q-17 0 -17 -17v-306z" />
    <glyph glyph-name="Q" unicode="Q" horiz-adv-x="948" 
d="M474 780q88 0 164 -31t132 -85t88 -127.5t32 -158.5q0 -94 -38.5 -171.5t-102.5 -133.5q-42 -36 -94 -60.5t-109 -45.5q-27 -11 -52.5 -23t-46.5 -28v-4q6 1 16.5 1.5t18.5 0.5q45 0 84 -11.5t76 -26t74 -26t78 -11.5q47 0 71 20t39 69h25q2 -9 3 -20t1 -22
q0 -32 -13.5 -58.5t-37 -46t-55.5 -30.5t-69 -11q-56 0 -103.5 21.5t-90 47t-81.5 47t-77 21.5q-26 0 -42 -10t-29 -22.5t-24.5 -22.5t-28.5 -10q-29 0 -29 25q0 7 2 12t8.5 11.5t19.5 15t36 21.5l130 74q-84 3 -156 35.5t-124 87t-81.5 127t-29.5 155.5q0 86 32 160t88 128
t132 85t164 31zM474 20q66 0 118.5 25t90 71.5t57.5 112t20 147.5q0 80 -20 144.5t-57 110t-90 70t-119 24.5t-119 -24.5t-90 -70t-57 -110t-20 -144.5q0 -82 20 -147.5t57 -112t90 -71.5t119 -25z" />
    <glyph glyph-name="R" unicode="R" horiz-adv-x="788" 
d="M658 577q0 -80 -48 -133t-153 -71l221 -266q27 -33 59.5 -47.5t77.5 -21.5v-38h-193l-245 314q-13 17 -24.5 27t-24 15.5t-29 7t-39.5 1.5v-208q0 -37 4.5 -60.5t19 -36.5t42 -17.5t72.5 -4.5v-38h-353v38q35 1 56.5 6t33.5 17t16 34t4 57v466q0 35 -3.5 56.5t-14 34
t-30.5 17t-52 6.5v38h314q138 0 213.5 -51t75.5 -142zM260 415h71q100 0 148.5 36.5t48.5 120.5q0 81 -38.5 116t-120.5 35h-92q-17 0 -17 -17v-291z" />
    <glyph glyph-name="S" unicode="S" horiz-adv-x="645" 
d="M58 235h37q7 -45 26.5 -81t49 -61t68 -38.5t83.5 -13.5q74 0 117 35t43 95q0 25 -8.5 46t-28.5 40.5t-53.5 38.5t-84.5 41q-62 27 -104 52t-67 52t-35.5 57.5t-10.5 69.5q0 46 16.5 85t46.5 67.5t71 44t90 15.5q44 0 82 -14t77 -45l26 45h23l11 -199h-37
q-24 82 -69.5 122t-109.5 40q-61 0 -97 -30t-36 -81q0 -24 8 -43.5t26 -37t47 -35t72 -36.5q74 -33 123 -61.5t78 -57t41 -60t12 -70.5q0 -50 -20 -92t-56 -72t-86 -46.5t-110 -16.5q-57 0 -102.5 16t-92.5 54l-28 -49h-23z" />
    <glyph glyph-name="T" unicode="T" horiz-adv-x="803" 
d="M786 579h-41q-3 43 -14 72t-31.5 45.5t-51.5 23.5t-74 7q-37 0 -59.5 -1.5t-34.5 -5.5t-15.5 -9.5t-3.5 -14.5v-535q0 -32 4.5 -55t18 -37.5t39 -22t67.5 -8.5v-38h-378v38q42 1 68 8.5t39.5 22t18 37.5t4.5 55v535q0 9 -3.5 14.5t-14 9.5t-29.5 5.5t-51 1.5
q-39 0 -72.5 -3t-58 -17.5t-39.5 -44.5t-16 -83h-37v191h755z" />
    <glyph glyph-name="U" unicode="U" horiz-adv-x="861" 
d="M722 310q0 -79 -15.5 -139t-50 -100t-89.5 -60.5t-133 -20.5q-74 0 -129 14.5t-92 48t-55 87.5t-18 133v264q0 74 -3.5 114t-20.5 59q-12 13 -32.5 17.5t-54.5 4.5v38h341v-38q-34 0 -55 -4t-33 -20q-14 -18 -18 -57.5t-4 -113.5v-272q0 -51 10.5 -90.5t34.5 -67
t62.5 -41.5t94.5 -14q100 0 150 55.5t50 163.5v241q0 89 -7 135t-26 65q-14 13 -35 16.5t-52 3.5v38h290v-38q-32 0 -52.5 -5t-32.5 -22q-15 -21 -20 -65.5t-5 -127.5v-202z" />
    <glyph glyph-name="V" unicode="V" horiz-adv-x="784" 
d="M424 153l176 434q15 37 21 58t6 38q0 27 -16.5 38t-61.5 11v38h243v-38q-23 -3 -39.5 -8t-29 -14t-22 -23.5t-18.5 -35.5l-271 -661h-35l-258 623q-13 30 -25.5 52t-27.5 36t-34 21t-45 9v39h326v-39q-28 0 -45.5 -2.5t-27.5 -8t-14 -13.5t-4 -18q0 -14 5 -32.5t19 -53.5
z" />
    <glyph glyph-name="W" unicode="W" horiz-adv-x="1176" 
d="M834 151l156 434q14 39 20 62t6 40q0 26 -16.5 35.5t-58.5 9.5v38h243v-38q-46 0 -69.5 -19t-39.5 -62l-251 -661h-35l-192 569l-213 -569h-35l-208 574q-18 48 -32.5 80.5t-31 51.5t-37.5 27t-51 8v39h326v-39q-51 0 -71.5 -9t-20.5 -35q0 -13 4 -30t12 -40l152 -463
l123 346q14 39 27.5 72.5t21.5 60.5q-14 29 -25.5 48t-23 30t-24 15.5t-26.5 4.5v39h306v-39q-29 0 -47 -2t-27.5 -6.5t-13 -12.5t-3.5 -19q0 -15 5.5 -36.5t15.5 -54.5z" />
    <glyph glyph-name="X" unicode="X" horiz-adv-x="818" 
d="M695 109q52 -71 127 -71v-38h-341v38q45 0 61.5 8.5t16.5 23.5q0 7 -1.5 14.5t-7 18.5t-15.5 27t-27 42l-114 170l-86 -108q-31 -39 -52 -67t-33.5 -48t-18 -33t-5.5 -22q0 -15 17 -20.5t64 -5.5v-38h-278v38q24 0 43.5 5t38.5 16.5t38.5 31t42.5 48.5l196 250l-203 277
q-25 35 -56 50.5t-74 15.5v38h332v-38q-65 0 -65 -39q0 -25 28 -66l109 -162l98 124q28 35 39 57t11 42q0 25 -16.5 34.5t-58.5 9.5v38h275v-38q-24 0 -41.5 -3.5t-33.5 -14.5t-35 -32t-46 -56l-159 -205z" />
    <glyph glyph-name="Y" unicode="Y" horiz-adv-x="733" 
d="M114 646q-15 26 -28 42.5t-26.5 26.5t-28.5 13.5t-36 3.5v38h315v-38q-50 0 -70.5 -7.5t-20.5 -26.5q0 -21 23 -60l155 -265h4l113 190q32 54 45.5 85t13.5 50t-14.5 26.5t-50.5 7.5v38h229v-38q-21 0 -37.5 -6t-34.5 -24t-39.5 -50t-52.5 -84l-154 -260v-119
q0 -49 3.5 -78.5t15 -45.5t33 -21.5t57.5 -5.5v-38h-324v38q36 0 57.5 5.5t33 21t15.5 43.5t4 74v122z" />
    <glyph glyph-name="Z" unicode="Z" horiz-adv-x="770" 
d="M710 0h-694v4l526 724h-274q-71 0 -106 -32t-49 -110h-37l15 184h609v-4l-521 -720h310q51 0 84 7.5t53.5 28.5t32 57.5t20.5 95.5h43z" />
    <glyph glyph-name="bracketleft" unicode="[" horiz-adv-x="371" 
d="M197 773v-876h151v-47h-241v970h241v-47h-151z" />
    <glyph glyph-name="backslash" unicode="\" horiz-adv-x="460" 
d="M29 770h49l353 -770h-58z" />
    <glyph glyph-name="bracketright" unicode="]" horiz-adv-x="371" 
d="M174 -103v876h-151v47h241v-970h-241v47h151z" />
    <glyph glyph-name="asciicircum" unicode="^" horiz-adv-x="480" 
d="M285 409l119 -179h-45l-119 118l-119 -118h-45l119 179h90z" />
    <glyph glyph-name="underscore" unicode="_" horiz-adv-x="722" 
d="M76 -143v68h570v-68h-570z" />
    <glyph glyph-name="grave" unicode="`" horiz-adv-x="275" 
d="M208 651l-137 65q-24 11 -37.5 23.5t-13.5 28.5q0 17 10.5 26t27.5 9q31 0 67 -33l130 -119h-47z" />
    <glyph glyph-name="a" unicode="a" horiz-adv-x="554" 
d="M349 296q-57 -22 -96.5 -43t-63.5 -42t-34.5 -42t-10.5 -43q0 -33 22 -54t58 -21q26 0 48.5 13t39.5 35.5t27 53t10 64.5v79zM349 339v41q0 122 -104 122q-17 0 -29 -3t-20 -10t-14.5 -20t-12.5 -32q-11 -29 -21.5 -38.5t-30.5 -9.5q-50 0 -50 50q0 48 51 74.5t145 26.5
q100 0 142 -35.5t42 -120.5v-224q0 -114 45 -114q14 0 27 3.5t22 18.5l14 -24q-12 -23 -44 -38.5t-67 -15.5q-44 0 -65.5 28t-21.5 79h-5q-26 -49 -72 -77.5t-102 -28.5q-63 0 -99 32t-36 86q0 24 8.5 46t27.5 42t50 39.5t76 39.5z" />
    <glyph glyph-name="b" unicode="b" horiz-adv-x="654" 
d="M189 209q0 -38 11 -69.5t30.5 -54t47 -35.5t59.5 -13q35 0 63.5 16t49 45.5t32 71t11.5 92.5t-12 93.5t-33 73t-50.5 47.5t-64.5 17q-41 0 -73 -19.5t-49 -54.5q-22 -44 -22 -121v-89zM187 459h4q32 42 70.5 61.5t89.5 19.5q54 0 100.5 -21t81 -58t54 -87.5t19.5 -108.5
q0 -59 -20 -109.5t-54.5 -87.5t-81.5 -58t-102 -21q-57 0 -106.5 21t-81.5 57l-47 -67h-22v604q0 101 -13 129q-3 7 -7 11.5t-12 8t-22 6.5t-38 6v25l188 40v-371z" />
    <glyph glyph-name="c" unicode="c" horiz-adv-x="536" 
d="M506 83q-36 -44 -93 -68.5t-123 -24.5q-53 0 -97.5 19.5t-76.5 55t-49.5 85.5t-17.5 111q0 64 20 115.5t56.5 88t88 56t113.5 19.5q39 0 71 -6.5t55.5 -18t36.5 -28t13 -35.5q0 -20 -13 -31t-36 -11q-18 0 -30 7.5t-31 33.5q-20 23 -38.5 32.5t-47.5 9.5
q-71 0 -107.5 -55t-36.5 -162q0 -115 40.5 -174.5t118.5 -59.5q42 0 79 16.5t75 53.5z" />
    <glyph glyph-name="d" unicode="d" horiz-adv-x="675" 
d="M484 84h-4q-36 -51 -76.5 -72.5t-95.5 -21.5q-57 0 -104.5 20.5t-82 57t-54 87.5t-19.5 111q0 59 19.5 109.5t54 87t82.5 57t104 20.5q48 0 85.5 -16t72.5 -51v102q0 57 -1.5 95t-4.5 52q-5 22 -28 31t-75 9v30l205 38v-577q0 -69 1 -113.5t6 -63.5q3 -12 7.5 -20
t13 -12.5t23 -6.5t37.5 -2v-34l-166 -11v94zM464 305q0 52 -5.5 79t-21.5 47q-23 30 -58.5 45.5t-70.5 15.5q-72 0 -109.5 -59.5t-37.5 -161.5q0 -53 9.5 -96t28 -73.5t46 -47t63.5 -16.5q18 0 36.5 4t36 12.5t32.5 20t25 26.5q14 22 20 53t6 85v66z" />
    <glyph glyph-name="e" unicode="e" horiz-adv-x="573" 
d="M522 93q-85 -103 -211 -103q-59 0 -107 19.5t-82.5 55t-53.5 85t-19 109.5q0 61 20 113t56.5 89t87 58t110.5 21q97 0 150 -52.5t53 -150.5q0 -14 -5.5 -17t-25.5 -3h-329q-2 -8 -3 -19.5t-1 -25.5q0 -52 12.5 -94.5t36 -72.5t56 -46.5t72.5 -16.5q42 0 78 18.5t74 60.5z
M357 363q20 0 32 1t18 4t8 8.5t2 14.5q0 46 -29.5 73.5t-80.5 27.5q-108 0 -134 -129h184z" />
    <glyph glyph-name="f" unicode="f" horiz-adv-x="412" 
d="M22 514h113v72q0 115 60.5 179.5t172.5 64.5q62 0 101 -19t39 -49q0 -20 -12.5 -33.5t-31.5 -13.5q-12 0 -25.5 7.5t-35.5 25.5q-25 21 -39 27.5t-33 6.5q-60 0 -86 -61q-9 -20 -12.5 -49t-3.5 -80v-78h161v-47h-161v-306q0 -37 4.5 -61t16 -38.5t31.5 -20t52 -6.5v-35
h-284v35q28 1 45 5.5t26 17t12 35t3 60.5v314h-113v47z" />
    <glyph glyph-name="g" unicode="g" horiz-adv-x="599" 
d="M274 215q42 0 65.5 38t23.5 107q0 68 -23.5 105.5t-66.5 37.5t-68.5 -38t-25.5 -104t26 -106t69 -40zM219 98q24 -2 44 -4t39.5 -4t39 -5t42.5 -6q72 -11 115.5 -55.5t43.5 -111.5q0 -84 -66.5 -128t-192.5 -44q-56 0 -102.5 10t-79.5 28.5t-51.5 44.5t-18.5 57
q0 21 7 39t19 31.5t28.5 21.5t34.5 8q34 0 61 -21q-27 -6 -44 -29.5t-17 -53.5q0 -44 43.5 -68t123.5 -24q171 0 171 105q0 40 -27 66.5t-64 31.5q-24 3 -49.5 6.5t-50 6.5t-45.5 5t-34 4q-56 6 -85 30t-29 66q0 35 29 62t73 34v4q-22 9 -41 25.5t-32.5 37.5t-21.5 45.5
t-8 50.5q0 38 14.5 70t41 55.5t62.5 37t79 13.5q44 0 83 -13.5t67 -39.5q34 28 60 40.5t49 12.5q36 0 57.5 -16.5t21.5 -44.5q0 -17 -11.5 -27t-28.5 -10q-14 0 -23 5t-16.5 10.5t-15.5 10.5t-20 5q-24 0 -49 -17q24 -37 24 -93q0 -85 -53 -133.5t-159 -56.5q-61 -5 -85 -13
t-24 -29q0 -16 18 -23.5t53 -9.5z" />
    <glyph glyph-name="h" unicode="h" horiz-adv-x="688" 
d="M208 159q0 -41 2 -65t10.5 -36.5t24.5 -16.5t45 -6v-35h-266v35q29 2 46 6t26 16t11.5 34.5t2.5 60.5v419q0 59 -1.5 94t-5.5 53q-2 12 -6.5 19.5t-13.5 12t-24 6.5t-37 2v34l184 38v-381h4q15 20 37.5 36.5t48.5 28.5t54.5 19t55.5 7q46 0 84.5 -16t59.5 -43
q17 -23 25 -60.5t8 -101.5v-160q0 -41 2 -64.5t10.5 -36.5t24.5 -17t45 -6v-35h-265v35q28 1 45 5.5t25.5 16.5t11 34.5t2.5 60.5v126q0 112 -26 159.5t-87 47.5q-47 0 -85.5 -24t-60.5 -66q-5 -11 -8.5 -20.5t-5.5 -21.5t-2.5 -27.5t-0.5 -38.5v-128z" />
    <glyph glyph-name="i" unicode="i" horiz-adv-x="341" 
d="M228 159q0 -39 3.5 -62.5t13.5 -37t28 -18.5t48 -6v-35h-287v35q30 1 49 6.5t29.5 18t14 35t3.5 57.5v128q0 58 -1.5 95.5t-5.5 51.5q-5 23 -23 31.5t-68 8.5v35l196 38v-381zM113 743q0 26 18 44t44 18t44 -18t18 -44t-18 -44t-44 -18t-44 18t-18 44z" />
    <glyph glyph-name="j" unicode="j" horiz-adv-x="304" 
d="M213 -2q0 -125 -52.5 -191.5t-152.5 -66.5q-64 0 -104.5 25.5t-40.5 67.5q0 23 13.5 35t37.5 12q18 0 27.5 -8.5t24.5 -38.5q14 -30 26 -40t37 -10q48 0 67 33t19 116v348q0 58 -1.5 95.5t-5.5 51.5q-5 23 -23 31.5t-68 8.5v35l196 38v-542zM100 743q0 26 18 44t44 18
t44 -18t18 -44t-18 -44t-44 -18t-44 18t-18 44z" />
    <glyph glyph-name="k" unicode="k" horiz-adv-x="616" 
d="M348 35q33 0 45.5 3t12.5 8q-1 8 -16 29t-39 50l-106 128l-37 -35v-59q0 -39 3.5 -62.5t13 -37t28 -18.5t48.5 -6v-35h-284v35q30 1 48.5 6t29 18t14.5 35t4 58v419q0 76 -1.5 115t-10.5 53t-30 16.5t-56 2.5v34l193 38v-549l93 91q45 45 67 66.5t22 32.5t-21 17.5
t-60 6.5v35h260v-35q-19 0 -33 -2t-26.5 -8t-26.5 -16.5t-32 -26.5l-144 -128l198 -224q14 -17 25.5 -27.5t23 -16.5t25 -8.5t32.5 -2.5v-35h-263v35z" />
    <glyph glyph-name="l" unicode="l" horiz-adv-x="325" 
d="M209 156q0 -38 3 -61t12.5 -36t27 -18t46.5 -6v-35h-276v35q30 1 48 6.5t28.5 17.5t14 33.5t3.5 56.5v431q0 54 -1.5 90.5t-4.5 49.5q-5 23 -23.5 31t-66.5 8v34l189 37v-674z" />
    <glyph glyph-name="m" unicode="m" horiz-adv-x="1073" 
d="M221 160q0 -42 2 -66t10.5 -36.5t24.5 -16.5t45 -6v-35h-266v35q29 2 46 6t26 16t11.5 34.5t2.5 60.5v128q0 57 -1.5 95t-5.5 52q-3 13 -7 20.5t-13 12t-23.5 6t-37.5 1.5v35l163 38l13 -100h5q45 51 94.5 75.5t109.5 24.5q63 0 106 -25.5t60 -73.5h4q37 47 90 73t113 26
q47 0 85.5 -15.5t58.5 -42.5q18 -23 25.5 -60.5t7.5 -102.5v-159q0 -41 2.5 -65t10.5 -37t24.5 -17t45.5 -6v-35h-266v35q28 1 45 5.5t26 17t11.5 34.5t2.5 60v126q0 57 -6 96.5t-20 64t-36.5 35.5t-54.5 11q-44 0 -82.5 -24.5t-60.5 -65.5q-5 -10 -8.5 -19.5t-5.5 -21
t-2.5 -27.5t-0.5 -40v-127q0 -41 2 -65t10.5 -37t25.5 -17t46 -6v-35h-266v35q28 2 45 6t25.5 16t11 34.5t2.5 60.5v126q0 58 -6 97.5t-19.5 64t-35.5 35t-54 10.5q-45 0 -84.5 -24.5t-59.5 -65.5q-5 -10 -8.5 -19.5t-5.5 -21t-2.5 -27.5t-0.5 -40v-127z" />
    <glyph glyph-name="n" unicode="n" horiz-adv-x="689" 
d="M216 157q0 -41 2 -64.5t10.5 -36t25 -16.5t45.5 -6v-34h-262v34q28 2 44.5 6t25.5 16t11.5 34t2.5 60v133q0 119 -6 145q-3 13 -7.5 21.5t-13.5 13t-23 6t-36 1.5v32l160 38l12 -99h4q38 47 89 73t111 26q46 0 84 -15t58 -41q17 -23 24 -59.5t7 -100.5v-167
q0 -41 2.5 -64.5t10.5 -36t24.5 -16.5t43.5 -6v-34h-259v34q28 1 44.5 5.5t25 16.5t11 34.5t2.5 59.5v132q0 57 -6 96t-19.5 63t-35.5 34.5t-53 10.5q-45 0 -82.5 -23.5t-58.5 -64.5q-5 -10 -8.5 -19t-5.5 -21t-3 -27.5t-1 -39.5v-134z" />
    <glyph glyph-name="o" unicode="o" horiz-adv-x="654" 
d="M325 540q57 0 108 -20.5t89.5 -56.5t61 -85.5t22.5 -108.5q0 -61 -22.5 -112t-61 -88t-89.5 -58t-108 -21q-56 0 -106.5 20.5t-88.5 57.5t-60 88.5t-22 112.5q0 59 22 109t60 86t88.5 56t106.5 20zM325 492q-37 0 -67.5 -16t-52 -45.5t-33 -71t-11.5 -91.5
q0 -52 11.5 -94t33 -71.5t51.5 -45.5t68 -16t69 16t53 46t34 72t12 93q0 50 -12 91t-34 70.5t-53 46t-69 16.5z" />
    <glyph glyph-name="p" unicode="p" horiz-adv-x="679" 
d="M210 458h4q32 38 69 60t86 22q57 0 104.5 -20.5t82.5 -57.5t54.5 -87.5t19.5 -110.5q0 -61 -20 -111.5t-55 -86.5t-83 -56t-104 -20q-46 0 -83.5 15.5t-70.5 50.5v-146q0 -40 4 -64t16 -37t34.5 -18t59.5 -6v-35h-308v35q30 1 48.5 6t29 18t14.5 35.5t4 58.5v374
q0 58 -1.5 95t-5.5 51q-5 24 -23 32.5t-68 8.5v34l192 38v-78zM240 429q-13 -20 -19.5 -47.5t-6.5 -71.5v-78q0 -27 1.5 -46.5t4.5 -33.5t8 -25t13 -21q23 -32 55 -49.5t67 -17.5q69 0 111.5 58t42.5 163q0 52 -11.5 94.5t-32.5 73t-50.5 47.5t-65.5 17t-66.5 -16.5
t-50.5 -46.5z" />
    <glyph glyph-name="q" unicode="q" horiz-adv-x="653" 
d="M464 320q0 37 -11 68.5t-31 54t-47 35.5t-58 13q-36 0 -64.5 -16t-49 -45.5t-31.5 -71.5t-11 -93q0 -52 11 -94t31.5 -71.5t49.5 -45.5t65 -16q41 0 74 19t50 54q22 44 22 121v88zM467 72h-4q-35 -44 -72.5 -63t-90.5 -19q-56 0 -102 19.5t-79.5 55t-52 85t-18.5 108.5
t20 110.5t55 89.5t82 60t101 22t104 -22t83 -59l44 69h25v-618q0 -42 2.5 -66t13 -37t31 -17t56.5 -5v-35h-305v35q32 1 52.5 6.5t32.5 19t17 36t5 56.5v169z" />
    <glyph glyph-name="r" unicode="r" horiz-adv-x="477" 
d="M222 159q0 -41 2 -65t10.5 -36.5t24.5 -16.5t45 -6v-35h-266v35q29 1 46 5.5t26 16.5t11.5 34.5t2.5 60.5v117q0 68 -1.5 106t-10 56t-26.5 21.5t-50 3.5v35l175 38l14 -124h4q13 30 32.5 55t42.5 42.5t48 27.5t51 10q32 0 50.5 -15.5t18.5 -41.5q0 -24 -15 -37.5
t-43 -13.5q-16 0 -27 4t-19.5 8.5t-16 8.5t-16.5 4q-27 0 -54 -34.5t-42 -87.5q-8 -29 -12.5 -65.5t-4.5 -76.5v-34z" />
    <glyph glyph-name="s" unicode="s" horiz-adv-x="454" 
d="M86 0h-22v172h25q39 -141 142 -141q40 0 63.5 19.5t23.5 59.5q0 15 -4.5 25.5t-17 22t-35 26.5t-59.5 38q-34 21 -59 39t-42 36.5t-25.5 39.5t-8.5 49q0 34 11.5 62.5t31.5 48.5t47 31.5t59 11.5q27 0 56 -8.5t51 -22.5l20 21h19v-144h-26q-22 61 -48 87t-64 26
q-34 0 -54.5 -18t-20.5 -50q0 -17 5.5 -29.5t17.5 -24.5t30.5 -24.5t44.5 -28.5q43 -27 73.5 -48t49.5 -41.5t28 -42.5t9 -50q0 -71 -46 -111.5t-121 -40.5q-78 0 -134 45z" />
    <glyph glyph-name="t" unicode="t" horiz-adv-x="378" 
d="M40 467v37q53 31 83 62t46 74h29v-126h134v-47h-134v-304q0 -35 3.5 -59t11.5 -38.5t21 -20.5t33 -6q25 0 42.5 10.5t34.5 35.5l25 -19q-14 -37 -48.5 -56.5t-85.5 -19.5q-66 0 -100.5 31.5t-34.5 90.5v355h-60z" />
    <glyph glyph-name="u" unicode="u" 
d="M463 370q0 41 -2 64.5t-10.5 36t-25 17t-45.5 7.5v35h181v-307q0 -57 1.5 -93t4.5 -54q2 -13 6.5 -20.5t13.5 -12t23.5 -6t37.5 -1.5v-35l-165 -12l-11 120h-4q-38 -62 -87.5 -90.5t-103.5 -28.5q-42 0 -81.5 16t-59.5 43q-17 22 -24.5 61t-7.5 101v159q0 41 -2 64.5
t-10.5 36t-25 17t-45.5 7.5v35h181v-273q0 -109 25.5 -158t81.5 -49q88 0 137 115q5 12 8 22t5 22t3 27t1 36v98z" />
    <glyph glyph-name="v" unicode="v" horiz-adv-x="610" 
d="M104 406q-12 30 -21.5 47.5t-20.5 26.5t-24.5 11.5t-32.5 3.5v35h265v-35q-20 -1 -33 -2t-20.5 -4.5t-10.5 -10t-3 -18.5q0 -17 4.5 -32t9.5 -30l106 -290h4l91 215q21 50 30 80t9 53t-12 31t-52 8v35h199v-35q-16 0 -29 -8t-23 -20q-8 -11 -16.5 -29.5t-17 -38.5
t-15.5 -39.5t-13 -31.5l-147 -339h-58z" />
    <glyph glyph-name="w" unicode="w" horiz-adv-x="852" 
d="M278 -10h-37l-130 416q-9 28 -17 45t-19 27t-26 13.5t-37 3.5v35h265v-35q-39 0 -55 -9t-16 -31q0 -10 3 -23.5t8 -33.5l68 -239h4l147 371h31l133 -371h4l60 162q12 33 20 55.5t12.5 38t6.5 25.5t2 19q0 22 -13 29t-54 7v35h200v-35q-15 0 -25.5 -4.5t-21 -17.5
t-21.5 -37t-27 -63l-155 -383h-37l-122 369h-4z" />
    <glyph glyph-name="x" unicode="x" horiz-adv-x="609" 
d="M392 412q24 30 24 51q0 32 -59 32v35h219v-35q-18 0 -32.5 -4t-28.5 -13t-28.5 -24.5t-32.5 -38.5l-103 -131l133 -175q31 -41 57.5 -57.5t56.5 -16.5v-35h-266v35q36 0 50 5.5t14 21.5q0 7 -8.5 20.5t-28.5 39.5l-70 90l-85 -108q-15 -18 -15 -36q0 -14 12 -23.5
t38 -9.5v-35h-229v35q23 0 41 4t34.5 14t34 28t39.5 45l102 125l-133 189q-23 32 -42 43.5t-48 11.5v35h246v-35q-27 0 -39 -6.5t-12 -17.5q0 -15 19 -42l72 -105z" />
    <glyph glyph-name="y" unicode="y" horiz-adv-x="639" 
d="M281 -157q-46 -103 -143 -103q-63 0 -63 47q0 25 17.5 36.5t64.5 19.5q21 3 36 8.5t27 14t21.5 21.5t18.5 32l35 70l-192 417q-13 28 -22.5 44.5t-20 26t-23.5 13t-33 5.5v35h265v-35q-67 0 -67 -33q0 -13 8 -41t20 -57l110 -266h5l91 225q13 33 21.5 54t13 34.5t6 22.5
t1.5 17q0 26 -14.5 35t-55.5 9v35h220v-35q-19 0 -32 -5t-26.5 -22.5t-30 -50.5t-40.5 -89z" />
    <glyph glyph-name="z" unicode="z" horiz-adv-x="557" 
d="M498 0h-480v4l346 484h-111q-43 0 -70.5 -3.5t-45 -14t-26.5 -29t-14 -49.5h-32l16 138h430v-4l-341 -480h117q51 0 84.5 4t55 16t34 33t21.5 56h33z" />
    <glyph glyph-name="braceleft" unicode="{" horiz-adv-x="335" 
d="M208 0q0 -54 17.5 -84t68.5 -44v-22q-50 0 -84 7t-54.5 24.5t-29 47.5t-8.5 75v196q0 22 -4.5 44.5t-14.5 40.5t-27.5 30.5t-42.5 14.5v25q28 6 45.5 16t27 25.5t13 37t3.5 50.5v175q0 48 7 80.5t26 52.5t52.5 29t86.5 9v-23q-47 -12 -64.5 -42.5t-17.5 -84.5v-179
q0 -31 -3.5 -56.5t-14 -45.5t-29.5 -33.5t-51 -20.5v-5q30 -5 49.5 -16.5t30 -29.5t14.5 -42t4 -54v-198z" />
    <glyph glyph-name="bar" unicode="|" horiz-adv-x="290" 
d="M185 820v-1070h-80v1070h80z" />
    <glyph glyph-name="braceright" unicode="}" horiz-adv-x="335" 
d="M127 198q0 30 4 54t14.5 42t30 29.5t49.5 16.5v5q-32 7 -51 20.5t-29.5 33.5t-14 45.5t-3.5 56.5v179q0 54 -17.5 84.5t-64.5 42.5v23q53 0 86.5 -9t52.5 -29t26 -52.5t7 -80.5v-175q0 -29 3.5 -50.5t13 -37t27 -25.5t45.5 -16v-25q-26 -2 -43 -14.5t-27 -30.5
t-14.5 -40.5t-4.5 -44.5v-196q0 -45 -8.5 -75t-29 -47.5t-54.5 -24.5t-84 -7v22q51 14 68.5 44t17.5 84v198z" />
    <glyph glyph-name="asciitilde" unicode="~" horiz-adv-x="553" 
d="M84 249q9 53 38.5 83.5t71.5 30.5q21 0 46 -7t50.5 -16t51.5 -16t49 -7q19 0 28.5 9t17.5 33h33q-8 -53 -36 -85.5t-67 -32.5q-21 0 -46.5 7.5t-52.5 16.5t-54 16.5t-51 7.5q-19 0 -28.5 -8.5t-16.5 -31.5h-34z" />
    <glyph glyph-name="uni00A0" unicode="&#xa0;" horiz-adv-x="287" 
 />
    <glyph glyph-name="exclamdown" unicode="&#xa1;" horiz-adv-x="308" 
d="M89 715q0 27 19 46t46 19q28 0 47 -19t19 -46q0 -28 -19 -47t-47 -19q-27 0 -46 19t-19 47zM178 563q0 -80 2 -136t5 -97.5t8 -74t11 -65.5q6 -30 9 -49.5t4.5 -33.5t1.5 -25.5v-25.5q0 -27 -17.5 -46.5t-47.5 -19.5t-47.5 19.5t-17.5 46.5q0 15 0.5 26.5t2 25t4.5 31.5
t8 47q6 34 11 67.5t8.5 75.5t5 98t1.5 136h48z" />
    <glyph glyph-name="cent" unicode="&#xa2;" horiz-adv-x="555" 
d="M338 683v-143q37 -1 68 -7.5t53.5 -18t35 -27.5t12.5 -35q0 -20 -13 -31t-36 -11q-18 0 -30 7.5t-31 33.5q-15 17 -28.5 26.5t-30.5 13.5v-449q38 2 72.5 18.5t69.5 51.5l30 -29q-30 -36 -74.5 -59.5t-97.5 -30.5v-140h-50v137q-52 1 -95.5 21t-74.5 55.5t-48 85
t-17 109.5q0 58 16.5 106t47.5 83.5t74.5 58t96.5 28.5v146h50zM167 276q0 -100 30.5 -158t90.5 -72v445q-60 -8 -90.5 -62.5t-30.5 -152.5z" />
    <glyph glyph-name="sterling" unicode="&#xa3;" horiz-adv-x="680" 
d="M235 83q-25 12 -46.5 19t-41.5 7t-32 -8.5t-12 -23.5q0 -17 13.5 -24.5t36.5 -7.5q50 0 82 38zM314 431h217v-61h-204q8 -30 11 -51.5t3 -48.5q0 -50 -8.5 -88.5t-25.5 -70.5q18 -5 39.5 -9t44 -7t45 -4.5t40.5 -1.5q49 0 84.5 16.5t63.5 52.5l10 -4q0 -87 -40 -125.5
t-106 -38.5q-21 0 -41 3t-43.5 11t-53.5 21t-70 34q-10 -15 -26 -28t-35.5 -22t-41.5 -14.5t-43 -5.5q-44 0 -69.5 22t-25.5 60q0 42 29.5 68t74.5 26q25 0 52 -7.5t54 -23.5q3 11 4.5 29.5t1.5 30.5q0 30 -11.5 79t-29.5 97h-139v61h120q-12 41 -17.5 73.5t-5.5 61.5
q0 49 16.5 89t47.5 67.5t74 42.5t97 15q41 0 76.5 -8.5t61 -24t40 -36.5t14.5 -46q0 -46 -44 -46q-27 0 -38.5 17.5t-22.5 39t-31.5 39t-65.5 17.5q-57 0 -89.5 -30t-32.5 -81q0 -17 3.5 -40.5t9.5 -46.5z" />
    <glyph glyph-name="currency" unicode="&#xa4;" horiz-adv-x="613" 
d="M136 128q-23 28 -35 62t-12 73q0 78 47 136l-72 72l35 35l72 -72q28 23 62 35t73 12t72.5 -12t62.5 -35l72 72l35 -35l-72 -72q48 -59 48 -136q0 -39 -12 -73t-35 -62l71 -71l-35 -35l-71 71q-58 -47 -136 -47q-79 0 -136 48l-71 -71l-34 34zM139 263q0 -35 13 -65
t36 -53t53 -36t65 -13q34 0 65 13t53.5 36t36 53t13.5 65q0 34 -13.5 65t-36 53.5t-53.5 36t-65 13.5q-35 0 -65 -13.5t-53 -36t-36 -53.5t-13 -65z" />
    <glyph glyph-name="yen" unicode="&#xa5;" horiz-adv-x="802" 
d="M626 175h-172q0 -44 4 -71t16 -41.5t33 -19.5t56 -5v-38h-324v38q35 0 56.5 5t33.5 20t16 41.5t4 70.5h-177v60h177v69h-177v60h142l-165 282q-15 26 -28 42.5t-26.5 26.5t-28.5 13.5t-36 3.5v38h315v-38q-29 0 -46.5 -2t-27.5 -6t-13.5 -10.5t-3.5 -15.5q0 -21 23 -60
l155 -265h4l113 190q32 54 45.5 85t13.5 50t-14.5 26.5t-50.5 7.5v38h229v-38q-21 0 -37.5 -6t-34.5 -24t-39.5 -50t-52.5 -84l-121 -204h139v-60h-172v-69h172v-60z" />
    <glyph glyph-name="brokenbar" unicode="&#xa6;" horiz-adv-x="298" 
d="M189 750v-385h-80v385h80zM189 205v-385h-80v385h80z" />
    <glyph glyph-name="section" unicode="&#xa7;" horiz-adv-x="566" 
d="M375 196q31 24 43.5 42t12.5 40q0 32 -23.5 64.5t-68.5 59.5l-133 79q-38 -20 -53.5 -37.5t-15.5 -42.5q0 -31 20 -59.5t56 -49.5zM243 145q-49 27 -83.5 52.5t-56 51t-31 53t-9.5 59.5q0 53 25.5 90.5t73.5 57.5q-35 29 -53 68.5t-18 84.5q0 78 51 123t138 45
q41 0 75.5 -10t60 -28t39.5 -43t14 -54q0 -32 -16.5 -51t-45.5 -19q-26 0 -42.5 15.5t-16.5 40.5q0 13 4.5 22t9.5 15.5t9.5 12t4.5 13.5q0 20 -27.5 33t-69.5 13q-54 0 -84 -25t-30 -71q0 -37 23.5 -65.5t81.5 -61.5l60 -35q93 -54 133.5 -105t40.5 -113q0 -45 -20.5 -79
t-66.5 -68q77 -63 77 -153q0 -42 -16.5 -76.5t-45.5 -59t-69.5 -38.5t-89.5 -14q-47 0 -86 12.5t-67 34t-44 51.5t-16 66q0 38 17 60.5t46 22.5q26 0 45 -18t19 -44q0 -16 -7 -28t-15 -21.5t-15 -18t-7 -17.5q0 -11 11 -21t30 -17.5t43.5 -12t50.5 -4.5q65 0 101 29t36 82
q0 37 -25 65.5t-88 64.5z" />
    <glyph glyph-name="dieresis" unicode="&#xa8;" horiz-adv-x="323" 
d="M20 709q0 25 16.5 41.5t41.5 16.5t41.5 -16.5t16.5 -41.5t-16.5 -41.5t-41.5 -16.5t-41.5 16.5t-16.5 41.5zM187 709q0 25 16.5 41.5t41.5 16.5t41.5 -16.5t16.5 -41.5t-16.5 -41.5t-41.5 -16.5t-41.5 16.5t-16.5 41.5z" />
    <glyph glyph-name="copyright" unicode="&#xa9;" horiz-adv-x="888" 
d="M831 386q0 -83 -30.5 -155t-83.5 -125.5t-123.5 -84.5t-151.5 -31q-80 0 -150 31t-122.5 85t-82.5 126t-30 153t30 153t82 126t122 85t150 31q81 0 152 -31t124 -84t83.5 -125t30.5 -154zM783 386q0 72 -27 135.5t-73.5 110t-108.5 73.5t-133 27t-132 -27.5t-106.5 -75
t-71.5 -110.5t-26 -134q0 -72 26 -135t72 -110t107 -74.5t132 -27.5q70 0 132.5 27.5t108.5 74.5t73 110.5t27 135.5zM617 305q-14 -66 -56 -107t-117 -41q-50 0 -90 15.5t-68.5 44t-44 68.5t-15.5 90q0 52 16.5 95t46 74t70.5 48t91 17q33 0 62 -9.5t64 -31.5l10 35h21
l5 -131h-26q-12 45 -47 71t-84 26q-68 0 -105 -50t-37 -140q0 -88 37 -134.5t107 -46.5q98 0 127 107h33z" />
    <glyph glyph-name="ordfeminine" unicode="&#xaa;" horiz-adv-x="378" 
d="M218 654q-51 -19 -72 -37t-21 -37q0 -17 9.5 -27.5t25.5 -10.5q23 0 40.5 23t17.5 55v34zM218 682v19q0 55 -50 55q-22 0 -31 -5.5t-14 -25.5q-6 -24 -26 -24q-25 0 -25 29q0 20 28 35t77 15q54 0 75.5 -17.5t21.5 -59.5v-112q0 -58 22 -58q15 0 24 13l7 -12
q-7 -12 -24 -19.5t-36 -7.5q-44 0 -44 48h-4q-13 -22 -35 -35t-49 -13q-33 0 -52.5 16.5t-19.5 42.5t18.5 45t66.5 40z" />
    <glyph glyph-name="guillemotleft" unicode="&#xab;" horiz-adv-x="489" 
d="M49 262l170 159l20 -21l-99 -138l98 -138l-19 -20zM220 262l170 159l20 -21l-99 -138l98 -138l-19 -20z" />
    <glyph glyph-name="logicalnot" unicode="&#xac;" horiz-adv-x="625" 
d="M491 313h-408v50h458v-253h-50v203z" />
    <glyph glyph-name="uni00AD" unicode="&#xad;" horiz-adv-x="463" 
d="M77 248v83h309v-83h-309z" />
    <glyph glyph-name="registered" unicode="&#xae;" horiz-adv-x="888" 
d="M831 386q0 -83 -30.5 -155t-83.5 -125.5t-123.5 -84.5t-151.5 -31q-80 0 -150 31t-122.5 85t-82.5 126t-30 153t30 153t82 126t122 85t150 31q81 0 152 -31t124 -84t83.5 -125t30.5 -154zM783 386q0 72 -27 135.5t-73.5 110t-108.5 73.5t-133 27t-132 -27.5t-106.5 -75
t-71.5 -110.5t-26 -134q0 -72 26 -135t72 -110t107 -74.5t132 -27.5q70 0 132.5 27.5t108.5 74.5t73 110.5t27 135.5zM592 507q0 -45 -25.5 -75t-82.5 -39l124 -150q14 -17 29 -25.5t38 -12.5v-22h-108l-138 171q-7 9 -12.5 15t-12 9t-15 4t-20.5 1v-112q0 -20 2 -33
t9.5 -20.5t22 -10t38.5 -2.5v-22h-198v22q36 1 46 13t10 50v259q0 19 -2 31t-7 19t-15 9.5t-26 3.5v25h175q81 0 124.5 -28.5t43.5 -79.5zM369 416h40q51 0 75.5 20.5t24.5 67.5q0 45 -20 63t-65 18h-46q-9 0 -9 -9v-160z" />
    <glyph glyph-name="macron" unicode="&#xaf;" horiz-adv-x="310" 
d="M20 702v50h270v-50h-270z" />
    <glyph glyph-name="degree" unicode="&#xb0;" horiz-adv-x="346" 
d="M53 660q0 25 9.5 46.5t26 38t38 26t46.5 9.5t46.5 -9.5t38 -26t26 -38t9.5 -46.5t-9.5 -46.5t-26 -38t-38 -26t-46.5 -9.5t-46.5 9.5t-38 26t-26 38t-9.5 46.5zM83 660q0 -37 26.5 -63.5t63.5 -26.5t63 26.5t26 63.5t-26 63t-63 26t-63.5 -26t-26.5 -63z" />
    <glyph glyph-name="plusminus" unicode="&#xb1;" horiz-adv-x="634" 
d="M291 234v209h-208v50h208v209h52v-209h208v-50h-208v-209h-52zM551 95h-468v50h468v-50z" />
    <glyph glyph-name="twosuperior" unicode="&#xb2;" horiz-adv-x="285" 
d="M97 507h85q20 0 30 9t18 37h20l-15 -85h-201v13q46 41 75 71.5t46 55t23.5 45t6.5 41.5q0 29 -14.5 46t-40.5 17q-21 0 -35 -14.5t-14 -36.5q0 -20 12 -31.5t32 -11.5q-2 -11 -11.5 -18.5t-24.5 -7.5q-22 0 -36.5 17t-14.5 43q0 36 28 59.5t71 23.5q45 0 73 -24t28 -62
q0 -25 -11 -48.5t-30 -46t-45 -44.5t-55 -44v-4z" />
    <glyph glyph-name="threesuperior" unicode="&#xb3;" horiz-adv-x="279" 
d="M186 554q0 32 -13.5 49.5t-37.5 17.5q-14 -7 -27 -7q-18 0 -18 16q0 14 17 14q12 0 25 -5q21 0 34 18.5t13 49.5q0 51 -47 51q-40 0 -40 -31q0 -11 7.5 -18.5t20.5 -7.5q-2 -8 -11.5 -14t-21.5 -6q-17 0 -28.5 12.5t-11.5 30.5q0 26 23.5 41t61.5 15q46 0 73 -19.5
t27 -51.5q0 -27 -18.5 -47.5t-46.5 -26.5v-4q32 -8 53.5 -29t21.5 -51q0 -38 -31.5 -62.5t-79.5 -24.5q-42 0 -69 20t-27 51q0 22 13 36.5t33 14.5q13 0 23.5 -6.5t12.5 -16.5q-15 0 -25 -9.5t-10 -24.5q0 -18 13.5 -29.5t34.5 -11.5q56 0 56 66z" />
    <glyph glyph-name="acute" unicode="&#xb4;" horiz-adv-x="275" 
d="M20 651l130 119q36 33 67 33q17 0 27.5 -9t10.5 -26q0 -16 -13.5 -28.5t-37.5 -23.5l-137 -65h-47z" />
    <glyph glyph-name="mu" unicode="&#xb5;" horiz-adv-x="721" 
d="M203 81q8 -39 15.5 -81t13 -79.5t9 -67t3.5 -43.5q0 -32 -15 -51t-41 -19q-25 0 -41.5 18t-16.5 44v568q0 40 -3 64.5t-12 38t-25 18t-43 4.5v35h181v-273q0 -112 25.5 -162.5t82.5 -50.5q44 0 76.5 29t59.5 92q5 12 8.5 22t5.5 22t2.5 27t0.5 36v98q0 40 -3 64.5t-12 38
t-25 18t-43 4.5v35h181v-307q0 -111 6 -147q2 -12 6.5 -20t13 -12.5t23.5 -6t38 -1.5v-35l-165 -12l-11 120h-4q-32 -58 -74 -88.5t-89 -30.5q-83 0 -124 92z" />
    <glyph glyph-name="paragraph" unicode="&#xb6;" horiz-adv-x="631" 
d="M473 63q0 -57 3.5 -97.5t9.5 -56.5q7 -20 28.5 -28t67.5 -8v-38h-183v891h-52v-891h-194v38q53 0 77.5 9t31.5 30q2 6 3.5 21.5t3 36t2.5 45t1 48.5v310q-8 0 -15.5 -0.5t-18.5 -0.5q-96 0 -149 50.5t-53 141.5q0 100 69 153t201 53h276v-38q-49 0 -69 -7.5t-29 -28.5
q-6 -16 -8.5 -42.5t-2.5 -80.5v-510z" />
    <glyph glyph-name="periodcentered" unicode="&#xb7;" horiz-adv-x="285" 
d="M77 274q0 28 19 47t46 19q28 0 47 -19t19 -47q0 -27 -19 -46t-47 -19q-27 0 -46 19t-19 46z" />
    <glyph glyph-name="cedilla" unicode="&#xb8;" horiz-adv-x="232" 
d="M123 -72q124 0 124 -86q0 -48 -34 -75t-92 -27q-51 0 -83 21t-32 55q0 36 31 36q11 0 17.5 -6.5t15.5 -25.5q9 -21 18.5 -29t26.5 -8q22 0 36 13.5t14 36.5q0 54 -79 54q-8 0 -17.5 -0.5t-17.5 -1.5l-3 5l53 122h53z" />
    <glyph glyph-name="onesuperior" unicode="&#xb9;" horiz-adv-x="246" 
d="M147 538q0 -31 7.5 -40t34.5 -10v-20h-128v20q27 2 34.5 10t7.5 37v137v38.5t-2 19.5q-2 8 -12 10.5t-30 2.5v20q21 1 44 5.5t44 11.5v-242z" />
    <glyph glyph-name="ordmasculine" unicode="&#xba;" horiz-adv-x="383" 
d="M190 780q28 0 53.5 -10t44.5 -28t30.5 -43t11.5 -54q0 -30 -11.5 -55.5t-30.5 -43.5t-44.5 -28.5t-53.5 -10.5t-53 10.5t-43.5 28.5t-29.5 43.5t-11 55.5q0 29 11 54t29.5 43t43.5 28t53 10zM190 754q-32 0 -52.5 -30.5t-20.5 -78.5q0 -51 20 -81t53 -30q34 0 54.5 30
t20.5 81q0 48 -20.5 78.5t-54.5 30.5z" />
    <glyph glyph-name="guillemotright" unicode="&#xbb;" horiz-adv-x="489" 
d="M270 104l-19 20l98 138l-99 138l20 21l170 -159zM99 104l-19 20l98 138l-99 138l20 21l170 -159z" />
    <glyph glyph-name="onequarter" unicode="&#xbc;" horiz-adv-x="669" 
d="M88 0h-57l553 770h48zM219 538q0 -31 7.5 -40t34.5 -10v-20h-128v20q27 2 34.5 10t7.5 37v137v38.5t-2 19.5q-2 8 -12 10.5t-30 2.5v20q21 1 44 5.5t44 11.5v-242zM353 97l141 215h22v-216q25 1 31 7t6 29h19v-94h-19q0 22 -6 28t-31 7v-8q0 -31 6 -40t26 -10v-15h-123
v15q27 2 34.5 10t7.5 37v10h-114v25zM467 227h-4l-85 -130h89v130z" />
    <glyph glyph-name="onehalf" unicode="&#xbd;" horiz-adv-x="675" 
d="M88 0h-57l553 770h48zM219 538q0 -31 7.5 -40t34.5 -10v-20h-128v20q27 2 34.5 10t7.5 37v137v38.5t-2 19.5q-2 8 -12 10.5t-30 2.5v20q21 1 44 5.5t44 11.5v-242zM432 39h85q20 0 30 9t18 37h20l-15 -85h-201v13q46 41 75 71.5t46 55t23.5 45t6.5 41.5q0 29 -14.5 46
t-40.5 17q-21 0 -35 -14.5t-14 -36.5q0 -20 12 -31.5t32 -11.5q-2 -11 -11.5 -18.5t-24.5 -7.5q-22 0 -36.5 17t-14.5 43q0 36 28 59.5t71 23.5q45 0 73 -24t28 -62q0 -25 -11 -48.5t-30 -46t-45 -44.5t-55 -44v-4z" />
    <glyph glyph-name="threequarters" unicode="&#xbe;" horiz-adv-x="671" 
d="M95 0h-57l553 770h48zM360 97l141 215h22v-216q25 1 31 7t6 29h19v-94h-19q0 22 -6 28t-31 7v-8q0 -31 6 -40t26 -10v-15h-123v15q27 2 34.5 10t7.5 37v10h-114v25zM474 227h-4l-85 -130h89v130zM241 554q0 32 -13.5 49.5t-37.5 17.5q-14 -7 -27 -7q-18 0 -18 16
q0 14 17 14q12 0 25 -5q21 0 34 18.5t13 49.5q0 51 -47 51q-40 0 -40 -31q0 -11 7.5 -18.5t20.5 -7.5q-2 -8 -11.5 -14t-21.5 -6q-17 0 -28.5 12.5t-11.5 30.5q0 26 23.5 41t61.5 15q46 0 73 -19.5t27 -51.5q0 -27 -18.5 -47.5t-46.5 -26.5v-4q32 -8 53.5 -29t21.5 -51
q0 -38 -31.5 -62.5t-79.5 -24.5q-42 0 -69 20t-27 51q0 22 13 36.5t33 14.5q13 0 23.5 -6.5t12.5 -16.5q-15 0 -25 -9.5t-10 -24.5q0 -18 13.5 -29.5t34.5 -11.5q56 0 56 66z" />
    <glyph glyph-name="questiondown" unicode="&#xbf;" horiz-adv-x="399" 
d="M274 533v-229h-29q-130 0 -130 -99q0 -24 7 -45t18.5 -37t27.5 -25t34 -9t38 5.5t37 5.5q23 0 38 -15t15 -39q0 -56 -62 -56q-41 0 -79 20.5t-67 55t-46.5 80t-17.5 94.5q0 76 42 118t119 42v133h55zM315 715q0 -28 -19 -47t-46 -19q-28 0 -47 19t-19 47q0 27 19 46
t47 19q27 0 46 -19t19 -46z" />
    <glyph glyph-name="Agrave" unicode="&#xc0;" horiz-adv-x="772" 
d="M488 279h-267q-17 -41 -29 -72.5t-19.5 -54.5t-10.5 -39t-3 -26q0 -28 18 -38.5t60 -10.5v-38h-243v38q23 3 39.5 8t29 14t22 23.5t18.5 35.5l260 651h43l227 -564q23 -56 40 -89.5t33 -50.5t34.5 -22t44.5 -5v-39h-326v39q53 0 73 10t20 33q0 10 -1 18.5t-3.5 18.5
t-7 22.5t-11.5 29.5zM241 329h228l-111 295zM429 850l-120 28q-34 8 -54.5 19.5t-20.5 27.5q0 17 10.5 26t27.5 9q20 0 39.5 -8t47.5 -25l130 -77h-60z" />
    <glyph glyph-name="Aacute" unicode="&#xc1;" horiz-adv-x="772" 
d="M488 279h-267q-17 -41 -29 -72.5t-19.5 -54.5t-10.5 -39t-3 -26q0 -28 18 -38.5t60 -10.5v-38h-243v38q23 3 39.5 8t29 14t22 23.5t18.5 35.5l260 651h43l227 -564q23 -56 40 -89.5t33 -50.5t34.5 -22t44.5 -5v-39h-326v39q53 0 73 10t20 33q0 10 -1 18.5t-3.5 18.5
t-7 22.5t-11.5 29.5zM241 329h228l-111 295zM283 850l130 77q28 17 47.5 25t39.5 8q17 0 27.5 -9t10.5 -26q0 -16 -20.5 -27.5t-54.5 -19.5l-120 -28h-60z" />
    <glyph glyph-name="Acircumflex" unicode="&#xc2;" horiz-adv-x="772" 
d="M488 279h-267q-17 -41 -29 -72.5t-19.5 -54.5t-10.5 -39t-3 -26q0 -28 18 -38.5t60 -10.5v-38h-243v38q23 3 39.5 8t29 14t22 23.5t18.5 35.5l260 651h43l227 -564q23 -56 40 -89.5t33 -50.5t34.5 -22t44.5 -5v-39h-326v39q53 0 73 10t20 33q0 10 -1 18.5t-3.5 18.5
t-7 22.5t-11.5 29.5zM241 329h228l-111 295zM438 960l109 -109h-45l-119 54l-119 -54h-45l109 109h110z" />
    <glyph glyph-name="Atilde" unicode="&#xc3;" horiz-adv-x="772" 
d="M488 279h-267q-17 -41 -29 -72.5t-19.5 -54.5t-10.5 -39t-3 -26q0 -28 18 -38.5t60 -10.5v-38h-243v38q23 3 39.5 8t29 14t22 23.5t18.5 35.5l260 651h43l227 -564q23 -56 40 -89.5t33 -50.5t34.5 -22t44.5 -5v-39h-326v39q53 0 73 10t20 33q0 10 -1 18.5t-3.5 18.5
t-7 22.5t-11.5 29.5zM241 329h228l-111 295zM212 846q8 51 37.5 82.5t68.5 31.5q20 0 39.5 -7t39 -16t38.5 -16t38 -7t29 9.5t18 32.5h33q-5 -51 -33.5 -84.5t-66.5 -33.5q-20 0 -40 7.5t-40.5 16.5t-41 16.5t-40.5 7.5q-19 0 -28.5 -8.5t-16.5 -31.5h-34z" />
    <glyph glyph-name="Adieresis" unicode="&#xc4;" horiz-adv-x="772" 
d="M488 279h-267q-17 -41 -29 -72.5t-19.5 -54.5t-10.5 -39t-3 -26q0 -28 18 -38.5t60 -10.5v-38h-243v38q23 3 39.5 8t29 14t22 23.5t18.5 35.5l260 651h43l227 -564q23 -56 40 -89.5t33 -50.5t34.5 -22t44.5 -5v-39h-326v39q53 0 73 10t20 33q0 10 -1 18.5t-3.5 18.5
t-7 22.5t-11.5 29.5zM241 329h228l-111 295zM242 910q0 21 14.5 35.5t35.5 14.5q22 0 36.5 -14.5t14.5 -35.5q0 -22 -14.5 -36.5t-36.5 -14.5q-21 0 -35.5 14.5t-14.5 36.5zM424 910q0 21 14.5 35.5t36.5 14.5q21 0 35.5 -14.5t14.5 -35.5q0 -22 -14.5 -36.5t-35.5 -14.5
q-22 0 -36.5 14.5t-14.5 36.5z" />
    <glyph glyph-name="Aring" unicode="&#xc5;" horiz-adv-x="772" 
d="M488 279h-267q-17 -41 -29 -72.5t-19.5 -54.5t-10.5 -39t-3 -26q0 -28 18 -38.5t60 -10.5v-38h-243v38q23 3 39.5 8t29 14t22 23.5t18.5 35.5l260 651h43l227 -564q23 -56 40 -89.5t33 -50.5t34.5 -22t44.5 -5v-39h-326v39q53 0 73 10t20 33q0 10 -1 18.5t-3.5 18.5
t-7 22.5t-11.5 29.5zM241 329h228l-111 295zM318 895q0 28 18.5 46.5t46.5 18.5t46.5 -18.5t18.5 -46.5t-18.5 -46.5t-46.5 -18.5t-46.5 18.5t-18.5 46.5zM349 895q0 -15 9.5 -24.5t24.5 -9.5q14 0 23.5 9.5t9.5 24.5q0 14 -9.5 23.5t-23.5 9.5q-15 0 -24.5 -9.5t-9.5 -23.5
z" />
    <glyph glyph-name="AE" unicode="&#xc6;" horiz-adv-x="1051" 
d="M370 38q35 1 56.5 6t33.5 17t16 34t4 57v132h-231l-4 -9q-15 -29 -30.5 -57.5t-28 -54t-20.5 -47.5t-8 -38q0 -15 7 -22.5t17.5 -11t23.5 -4.5t25 -2v-38h-242v38q23 3 39 8t28.5 14t23 23.5t22.5 35.5q9 17 19.5 34.5t24.5 43.5t34.5 64t50.5 95t72 137t99 191
q3 7 5 12.5t2 10.5q0 14 -18.5 19.5t-64.5 5.5v38h636v-176h-35q-6 40 -18.5 65.5t-35.5 40.5t-58 21t-86 6h-127q-17 0 -17 -17v-287q48 0 82.5 5t57 17.5t34.5 35t15 57.5h35v-273h-35q-5 35 -16 58t-32.5 36t-55.5 18.5t-85 5.5v-226q0 -33 8 -54.5t27.5 -35t51.5 -19
t79 -5.5q53 0 90 7.5t62 25.5t40 47.5t25 73.5h38l-15 -197h-621v38zM480 329v392l-207 -392h207z" />
    <glyph glyph-name="Ccedilla" unicode="&#xc7;" horiz-adv-x="802" 
d="M689 770h28l9 -230h-37q-22 88 -85 138t-152 50q-61 0 -109 -24t-81 -69t-50.5 -110t-17.5 -147q0 -161 67 -247.5t194 -86.5q193 0 248 205h41v-249h-35l-23 79q-100 -83 -235 -88l-23 -63q124 0 124 -86q0 -48 -34 -75t-92 -27q-51 0 -83 21t-32 55q0 36 31 36
q11 0 17.5 -6.5t15.5 -25.5q9 -21 18.5 -29t26.5 -8q22 0 36 13.5t14 36.5q0 54 -79 54q-8 0 -17.5 -0.5t-17.5 -1.5l-3 5l44 101q-77 5 -139.5 34t-106.5 78.5t-67.5 117.5t-23.5 151q0 91 28 166t78.5 129t121 83.5t155.5 29.5q60 0 113 -17t115 -55z" />
    <glyph glyph-name="Egrave" unicode="&#xc8;" horiz-adv-x="726" 
d="M260 423q54 0 90.5 6.5t58 20.5t31 36t9.5 52h35v-273h-35q0 30 -8.5 52t-30 36.5t-58 22t-92.5 7.5v-226q0 -33 8 -54.5t27.5 -35t51.5 -19t79 -5.5q53 0 90 7.5t62 25.5t40 47.5t25 73.5h38l-15 -197h-621v38q35 1 56.5 6t33.5 17t16 34t4 57v466q0 35 -3.5 56.5
t-14 34t-30.5 17t-52 6.5v38h578l9 -176h-35q-6 40 -19.5 65.5t-37 40.5t-59.5 21t-87 6h-127q-17 0 -17 -17v-287zM425 850l-120 28q-34 8 -54.5 19.5t-20.5 27.5q0 17 10.5 26t27.5 9q20 0 39.5 -8t47.5 -25l130 -77h-60z" />
    <glyph glyph-name="Eacute" unicode="&#xc9;" horiz-adv-x="726" 
d="M260 423q54 0 90.5 6.5t58 20.5t31 36t9.5 52h35v-273h-35q0 30 -8.5 52t-30 36.5t-58 22t-92.5 7.5v-226q0 -33 8 -54.5t27.5 -35t51.5 -19t79 -5.5q53 0 90 7.5t62 25.5t40 47.5t25 73.5h38l-15 -197h-621v38q35 1 56.5 6t33.5 17t16 34t4 57v466q0 35 -3.5 56.5
t-14 34t-30.5 17t-52 6.5v38h578l9 -176h-35q-6 40 -19.5 65.5t-37 40.5t-59.5 21t-87 6h-127q-17 0 -17 -17v-287zM279 850l130 77q28 17 47.5 25t39.5 8q17 0 27.5 -9t10.5 -26q0 -16 -20.5 -27.5t-54.5 -19.5l-120 -28h-60z" />
    <glyph glyph-name="Ecircumflex" unicode="&#xca;" horiz-adv-x="726" 
d="M260 423q54 0 90.5 6.5t58 20.5t31 36t9.5 52h35v-273h-35q0 30 -8.5 52t-30 36.5t-58 22t-92.5 7.5v-226q0 -33 8 -54.5t27.5 -35t51.5 -19t79 -5.5q53 0 90 7.5t62 25.5t40 47.5t25 73.5h38l-15 -197h-621v38q35 1 56.5 6t33.5 17t16 34t4 57v466q0 35 -3.5 56.5
t-14 34t-30.5 17t-52 6.5v38h578l9 -176h-35q-6 40 -19.5 65.5t-37 40.5t-59.5 21t-87 6h-127q-17 0 -17 -17v-287zM434 960l109 -109h-45l-119 54l-119 -54h-45l109 109h110z" />
    <glyph glyph-name="Edieresis" unicode="&#xcb;" horiz-adv-x="726" 
d="M260 423q54 0 90.5 6.5t58 20.5t31 36t9.5 52h35v-273h-35q0 30 -8.5 52t-30 36.5t-58 22t-92.5 7.5v-226q0 -33 8 -54.5t27.5 -35t51.5 -19t79 -5.5q53 0 90 7.5t62 25.5t40 47.5t25 73.5h38l-15 -197h-621v38q35 1 56.5 6t33.5 17t16 34t4 57v466q0 35 -3.5 56.5
t-14 34t-30.5 17t-52 6.5v38h578l9 -176h-35q-6 40 -19.5 65.5t-37 40.5t-59.5 21t-87 6h-127q-17 0 -17 -17v-287zM224 910q0 21 14.5 35.5t35.5 14.5q22 0 36.5 -14.5t14.5 -35.5q0 -22 -14.5 -36.5t-36.5 -14.5q-21 0 -35.5 14.5t-14.5 36.5zM406 910q0 21 14.5 35.5
t36.5 14.5q21 0 35.5 -14.5t14.5 -35.5q0 -22 -14.5 -36.5t-35.5 -14.5q-22 0 -36.5 14.5t-14.5 36.5z" />
    <glyph glyph-name="Igrave" unicode="&#xcc;" horiz-adv-x="415" 
d="M260 189q0 -50 4 -79t15.5 -45t33 -21t56.5 -6v-38h-324v38q35 1 56.5 6.5t33.5 20.5t16 42.5t4 74.5v406q0 42 -3.5 69.5t-14 43.5t-30.5 22.5t-52 8.5v38h304v-38q-32 -1 -51.5 -8t-30 -23.5t-14 -45.5t-3.5 -74v-392zM252 850l-120 28q-34 8 -54.5 19.5t-20.5 27.5
q0 17 10.5 26t27.5 9q20 0 39.5 -8t47.5 -25l130 -77h-60z" />
    <glyph glyph-name="Iacute" unicode="&#xcd;" horiz-adv-x="415" 
d="M260 189q0 -50 4 -79t15.5 -45t33 -21t56.5 -6v-38h-324v38q35 1 56.5 6.5t33.5 20.5t16 42.5t4 74.5v406q0 42 -3.5 69.5t-14 43.5t-30.5 22.5t-52 8.5v38h304v-38q-32 -1 -51.5 -8t-30 -23.5t-14 -45.5t-3.5 -74v-392zM106 850l130 77q28 17 47.5 25t39.5 8
q17 0 27.5 -9t10.5 -26q0 -16 -20.5 -27.5t-54.5 -19.5l-120 -28h-60z" />
    <glyph glyph-name="Icircumflex" unicode="&#xce;" horiz-adv-x="415" 
d="M260 189q0 -50 4 -79t15.5 -45t33 -21t56.5 -6v-38h-324v38q35 1 56.5 6.5t33.5 20.5t16 42.5t4 74.5v406q0 42 -3.5 69.5t-14 43.5t-30.5 22.5t-52 8.5v38h304v-38q-32 -1 -51.5 -8t-30 -23.5t-14 -45.5t-3.5 -74v-392zM261 960l109 -109h-45l-119 54l-119 -54h-45
l109 109h110z" />
    <glyph glyph-name="Idieresis" unicode="&#xcf;" horiz-adv-x="415" 
d="M260 189q0 -50 4 -79t15.5 -45t33 -21t56.5 -6v-38h-324v38q35 1 56.5 6.5t33.5 20.5t16 42.5t4 74.5v406q0 42 -3.5 69.5t-14 43.5t-30.5 22.5t-52 8.5v38h304v-38q-32 -1 -51.5 -8t-30 -23.5t-14 -45.5t-3.5 -74v-392zM67 910q0 21 14.5 35.5t35.5 14.5
q22 0 36.5 -14.5t14.5 -35.5q0 -22 -14.5 -36.5t-36.5 -14.5q-21 0 -35.5 14.5t-14.5 36.5zM249 910q0 21 14.5 35.5t36.5 14.5q21 0 35.5 -14.5t14.5 -35.5q0 -22 -14.5 -36.5t-35.5 -14.5q-22 0 -36.5 14.5t-14.5 36.5z" />
    <glyph glyph-name="Eth" unicode="&#xd0;" horiz-adv-x="882" 
d="M76 383v53h80v182q0 35 -3.5 56.5t-14 34t-30.5 17t-52 6.5v38h351q90 0 166.5 -30t132 -83t86.5 -126t31 -159q0 -82 -29 -150.5t-81.5 -117.5t-125.5 -76.5t-160 -27.5h-391v38q38 1 61.5 5.5t36.5 17t17.5 34t4.5 57.5v231h-80zM278 721q-17 0 -17 -17v-268h164v-53
h-164v-220q0 -114 149 -114q137 0 210 81.5t73 239.5q0 83 -20 148t-57.5 110t-90.5 69t-120 24h-127z" />
    <glyph glyph-name="Ntilde" unicode="&#xd1;" horiz-adv-x="902" 
d="M694 -10l-475 626h-4v-427q0 -50 3.5 -79t14 -45t30 -21t51.5 -6v-38h-269v38q35 1 56.5 6.5t33.5 20.5t16 42.5t4 74.5v406q0 42 -3.5 69.5t-14 43.5t-30.5 22.5t-52 8.5v38h198l437 -583h4v394q0 49 -3.5 78.5t-14 45.5t-30 21t-51.5 6v38h269v-38q-35 -1 -56.5 -6.5
t-33.5 -20.5t-16 -43t-4 -74v-598h-60zM293 846q8 51 37.5 82.5t68.5 31.5q20 0 39.5 -7t39 -16t38.5 -16t38 -7t29 9.5t18 32.5h33q-5 -51 -33.5 -84.5t-66.5 -33.5q-20 0 -40 7.5t-40.5 16.5t-41 16.5t-40.5 7.5q-19 0 -28.5 -8.5t-16.5 -31.5h-34z" />
    <glyph glyph-name="Ograve" unicode="&#xd2;" horiz-adv-x="946" 
d="M473 780q88 0 164 -31t132 -85t88 -127t32 -158q0 -81 -32.5 -152t-88.5 -123.5t-132 -83t-163 -30.5t-163 30.5t-132 83t-88.5 123.5t-32.5 152q0 85 32 158t88 127t132 85t164 31zM473 45q66 0 118.5 23t90 66t57.5 104.5t20 137.5q0 80 -20 144.5t-57 110t-90 70
t-119 24.5t-119 -24.5t-90 -70t-57 -110t-20 -144.5q0 -76 20 -137.5t57 -104.5t90 -66t119 -23zM520 850l-120 28q-34 8 -54.5 19.5t-20.5 27.5q0 17 10.5 26t27.5 9q20 0 39.5 -8t47.5 -25l130 -77h-60z" />
    <glyph glyph-name="Oacute" unicode="&#xd3;" horiz-adv-x="946" 
d="M473 780q88 0 164 -31t132 -85t88 -127t32 -158q0 -81 -32.5 -152t-88.5 -123.5t-132 -83t-163 -30.5t-163 30.5t-132 83t-88.5 123.5t-32.5 152q0 85 32 158t88 127t132 85t164 31zM473 45q66 0 118.5 23t90 66t57.5 104.5t20 137.5q0 80 -20 144.5t-57 110t-90 70
t-119 24.5t-119 -24.5t-90 -70t-57 -110t-20 -144.5q0 -76 20 -137.5t57 -104.5t90 -66t119 -23zM374 850l130 77q28 17 47.5 25t39.5 8q17 0 27.5 -9t10.5 -26q0 -16 -20.5 -27.5t-54.5 -19.5l-120 -28h-60z" />
    <glyph glyph-name="Ocircumflex" unicode="&#xd4;" horiz-adv-x="946" 
d="M473 780q88 0 164 -31t132 -85t88 -127t32 -158q0 -81 -32.5 -152t-88.5 -123.5t-132 -83t-163 -30.5t-163 30.5t-132 83t-88.5 123.5t-32.5 152q0 85 32 158t88 127t132 85t164 31zM473 45q66 0 118.5 23t90 66t57.5 104.5t20 137.5q0 80 -20 144.5t-57 110t-90 70
t-119 24.5t-119 -24.5t-90 -70t-57 -110t-20 -144.5q0 -76 20 -137.5t57 -104.5t90 -66t119 -23zM529 960l109 -109h-45l-119 54l-119 -54h-45l109 109h110z" />
    <glyph glyph-name="Otilde" unicode="&#xd5;" horiz-adv-x="946" 
d="M473 780q88 0 164 -31t132 -85t88 -127t32 -158q0 -81 -32.5 -152t-88.5 -123.5t-132 -83t-163 -30.5t-163 30.5t-132 83t-88.5 123.5t-32.5 152q0 85 32 158t88 127t132 85t164 31zM473 45q66 0 118.5 23t90 66t57.5 104.5t20 137.5q0 80 -20 144.5t-57 110t-90 70
t-119 24.5t-119 -24.5t-90 -70t-57 -110t-20 -144.5q0 -76 20 -137.5t57 -104.5t90 -66t119 -23zM303 846q8 51 37.5 82.5t68.5 31.5q20 0 39.5 -7t39 -16t38.5 -16t38 -7t29 9.5t18 32.5h33q-5 -51 -33.5 -84.5t-66.5 -33.5q-20 0 -40 7.5t-40.5 16.5t-41 16.5t-40.5 7.5
q-19 0 -28.5 -8.5t-16.5 -31.5h-34z" />
    <glyph glyph-name="Odieresis" unicode="&#xd6;" horiz-adv-x="946" 
d="M473 780q88 0 164 -31t132 -85t88 -127t32 -158q0 -81 -32.5 -152t-88.5 -123.5t-132 -83t-163 -30.5t-163 30.5t-132 83t-88.5 123.5t-32.5 152q0 85 32 158t88 127t132 85t164 31zM473 45q66 0 118.5 23t90 66t57.5 104.5t20 137.5q0 80 -20 144.5t-57 110t-90 70
t-119 24.5t-119 -24.5t-90 -70t-57 -110t-20 -144.5q0 -76 20 -137.5t57 -104.5t90 -66t119 -23zM333 910q0 21 14.5 35.5t35.5 14.5q22 0 36.5 -14.5t14.5 -35.5q0 -22 -14.5 -36.5t-36.5 -14.5q-21 0 -35.5 14.5t-14.5 36.5zM515 910q0 21 14.5 35.5t36.5 14.5
q21 0 35.5 -14.5t14.5 -35.5q0 -22 -14.5 -36.5t-35.5 -14.5q-22 0 -36.5 14.5t-14.5 36.5z" />
    <glyph glyph-name="multiply" unicode="&#xd7;" horiz-adv-x="519" 
d="M68 184l155 155l-154 154l35 35l154 -154l155 155l37 -37l-155 -155l154 -154l-35 -35l-154 154l-155 -155z" />
    <glyph glyph-name="Oslash" unicode="&#xd8;" horiz-adv-x="946" 
d="M473 780q62 0 118 -15.5t104 -44.5l87 110h69l-111 -141q69 -55 109 -134.5t40 -175.5q0 -81 -32.5 -152t-88.5 -123.5t-132 -83t-163 -30.5q-66 0 -124.5 17t-109.5 49l-108 -137h-68l133 168q-65 54 -102 129t-37 163q0 85 32 158t88 127t132 85t164 31zM473 45
q66 0 118.5 23t90 66t57.5 104.5t20 137.5q0 78 -18 140t-53 107l-404 -510q74 -68 189 -68zM187 376q0 -137 61 -222l402 509q-71 62 -177 62q-66 0 -119 -24.5t-90 -70t-57 -110t-20 -144.5z" />
    <glyph glyph-name="Ugrave" unicode="&#xd9;" horiz-adv-x="861" 
d="M722 310q0 -79 -15.5 -139t-50 -100t-89.5 -60.5t-133 -20.5q-74 0 -129 14.5t-92 48t-55 87.5t-18 133v264q0 74 -3.5 114t-20.5 59q-12 13 -32.5 17.5t-54.5 4.5v38h341v-38q-34 0 -55 -4t-33 -20q-14 -18 -18 -57.5t-4 -113.5v-272q0 -51 10.5 -90.5t34.5 -67
t62.5 -41.5t94.5 -14q100 0 150 55.5t50 163.5v241q0 89 -7 135t-26 65q-14 13 -35 16.5t-52 3.5v38h290v-38q-32 0 -52.5 -5t-32.5 -22q-15 -21 -20 -65.5t-5 -127.5v-202zM505 850l-120 28q-34 8 -54.5 19.5t-20.5 27.5q0 17 10.5 26t27.5 9q20 0 39.5 -8t47.5 -25
l130 -77h-60z" />
    <glyph glyph-name="Uacute" unicode="&#xda;" horiz-adv-x="861" 
d="M722 310q0 -79 -15.5 -139t-50 -100t-89.5 -60.5t-133 -20.5q-74 0 -129 14.5t-92 48t-55 87.5t-18 133v264q0 74 -3.5 114t-20.5 59q-12 13 -32.5 17.5t-54.5 4.5v38h341v-38q-34 0 -55 -4t-33 -20q-14 -18 -18 -57.5t-4 -113.5v-272q0 -51 10.5 -90.5t34.5 -67
t62.5 -41.5t94.5 -14q100 0 150 55.5t50 163.5v241q0 89 -7 135t-26 65q-14 13 -35 16.5t-52 3.5v38h290v-38q-32 0 -52.5 -5t-32.5 -22q-15 -21 -20 -65.5t-5 -127.5v-202zM359 850l130 77q28 17 47.5 25t39.5 8q17 0 27.5 -9t10.5 -26q0 -16 -20.5 -27.5t-54.5 -19.5
l-120 -28h-60z" />
    <glyph glyph-name="Ucircumflex" unicode="&#xdb;" horiz-adv-x="861" 
d="M722 310q0 -79 -15.5 -139t-50 -100t-89.5 -60.5t-133 -20.5q-74 0 -129 14.5t-92 48t-55 87.5t-18 133v264q0 74 -3.5 114t-20.5 59q-12 13 -32.5 17.5t-54.5 4.5v38h341v-38q-34 0 -55 -4t-33 -20q-14 -18 -18 -57.5t-4 -113.5v-272q0 -51 10.5 -90.5t34.5 -67
t62.5 -41.5t94.5 -14q100 0 150 55.5t50 163.5v241q0 89 -7 135t-26 65q-14 13 -35 16.5t-52 3.5v38h290v-38q-32 0 -52.5 -5t-32.5 -22q-15 -21 -20 -65.5t-5 -127.5v-202zM514 960l109 -109h-45l-119 54l-119 -54h-45l109 109h110z" />
    <glyph glyph-name="Udieresis" unicode="&#xdc;" horiz-adv-x="861" 
d="M722 310q0 -79 -15.5 -139t-50 -100t-89.5 -60.5t-133 -20.5q-74 0 -129 14.5t-92 48t-55 87.5t-18 133v264q0 74 -3.5 114t-20.5 59q-12 13 -32.5 17.5t-54.5 4.5v38h341v-38q-34 0 -55 -4t-33 -20q-14 -18 -18 -57.5t-4 -113.5v-272q0 -51 10.5 -90.5t34.5 -67
t62.5 -41.5t94.5 -14q100 0 150 55.5t50 163.5v241q0 89 -7 135t-26 65q-14 13 -35 16.5t-52 3.5v38h290v-38q-32 0 -52.5 -5t-32.5 -22q-15 -21 -20 -65.5t-5 -127.5v-202zM318 910q0 21 14.5 35.5t35.5 14.5q22 0 36.5 -14.5t14.5 -35.5q0 -22 -14.5 -36.5t-36.5 -14.5
q-21 0 -35.5 14.5t-14.5 36.5zM500 910q0 21 14.5 35.5t36.5 14.5q21 0 35.5 -14.5t14.5 -35.5q0 -22 -14.5 -36.5t-35.5 -14.5q-22 0 -36.5 14.5t-14.5 36.5z" />
    <glyph glyph-name="Yacute" unicode="&#xdd;" horiz-adv-x="733" 
d="M114 646q-15 26 -28 42.5t-26.5 26.5t-28.5 13.5t-36 3.5v38h315v-38q-50 0 -70.5 -7.5t-20.5 -26.5q0 -21 23 -60l155 -265h4l113 190q32 54 45.5 85t13.5 50t-14.5 26.5t-50.5 7.5v38h229v-38q-21 0 -37.5 -6t-34.5 -24t-39.5 -50t-52.5 -84l-154 -260v-119
q0 -49 3.5 -78.5t15 -45.5t33 -21.5t57.5 -5.5v-38h-324v38q36 0 57.5 5.5t33 21t15.5 43.5t4 74v122zM278 850l130 77q28 17 47.5 25t39.5 8q17 0 27.5 -9t10.5 -26q0 -16 -20.5 -27.5t-54.5 -19.5l-120 -28h-60z" />
    <glyph glyph-name="Thorn" unicode="&#xde;" horiz-adv-x="699" 
d="M262 596h109q69 0 122.5 -15t90.5 -42t56.5 -65t19.5 -83q0 -53 -17 -93t-53.5 -67t-95 -41t-142.5 -14h-90v-19q0 -37 4.5 -60.5t19 -36.5t42 -17.5t72.5 -4.5v-38h-353v38q35 1 56.5 6t33.5 17t16 34t4 57v466q0 35 -4 57t-16 34t-33.5 17t-56.5 6v38h353v-38
q-45 0 -72.5 -4.5t-42 -17.5t-19 -36.5t-4.5 -60.5v-17zM262 226h71q100 0 148.5 38.5t48.5 126.5q0 85 -38.5 121.5t-120.5 36.5h-92q-17 0 -17 -17v-306z" />
    <glyph glyph-name="germandbls" unicode="&#xdf;" horiz-adv-x="658" 
d="M338 830q46 0 85 -13.5t67 -38t43.5 -59t15.5 -75.5q0 -69 -33 -114.5t-111 -62.5v-5q44 0 81.5 -18.5t65 -51t43 -77t15.5 -97.5q0 -49 -16.5 -91t-45 -72.5t-67 -47.5t-81.5 -17q-52 0 -81 22.5t-29 57.5q0 23 10 35.5t25 12.5q28 0 41 -34q3 -8 6.5 -16.5t8 -15.5
t10.5 -11.5t16 -4.5q17 0 32 13.5t26.5 37.5t18 57t6.5 71q0 47 -11 87.5t-34 70t-57.5 46.5t-82.5 17v51q64 0 94 35.5t30 110.5q0 147 -105 147q-37 0 -63.5 -15.5t-40.5 -45.5q-9 -20 -12.5 -48t-3.5 -79v-431q0 -37 2.5 -61t10 -37.5t19.5 -19t32 -5.5v-38h-244v38
q28 0 45 4t26 16t12 34.5t3 60.5v433q0 114 60 179t168 65z" />
    <glyph glyph-name="agrave" unicode="&#xe0;" horiz-adv-x="554" 
d="M349 296q-57 -22 -96.5 -43t-63.5 -42t-34.5 -42t-10.5 -43q0 -33 22 -54t58 -21q26 0 48.5 13t39.5 35.5t27 53t10 64.5v79zM349 339v41q0 122 -104 122q-17 0 -29 -3t-20 -10t-14.5 -20t-12.5 -32q-11 -29 -21.5 -38.5t-30.5 -9.5q-50 0 -50 50q0 48 51 74.5t145 26.5
q100 0 142 -35.5t42 -120.5v-224q0 -114 45 -114q14 0 27 3.5t22 18.5l14 -24q-12 -23 -44 -38.5t-67 -15.5q-44 0 -65.5 28t-21.5 79h-5q-26 -49 -72 -77.5t-102 -28.5q-63 0 -99 32t-36 86q0 24 8.5 46t27.5 42t50 39.5t76 39.5zM318 651l-137 65q-24 11 -37.5 23.5
t-13.5 28.5q0 17 10.5 26t27.5 9q31 0 67 -33l130 -119h-47z" />
    <glyph glyph-name="aacute" unicode="&#xe1;" horiz-adv-x="554" 
d="M349 296q-57 -22 -96.5 -43t-63.5 -42t-34.5 -42t-10.5 -43q0 -33 22 -54t58 -21q26 0 48.5 13t39.5 35.5t27 53t10 64.5v79zM349 339v41q0 122 -104 122q-17 0 -29 -3t-20 -10t-14.5 -20t-12.5 -32q-11 -29 -21.5 -38.5t-30.5 -9.5q-50 0 -50 50q0 48 51 74.5t145 26.5
q100 0 142 -35.5t42 -120.5v-224q0 -114 45 -114q14 0 27 3.5t22 18.5l14 -24q-12 -23 -44 -38.5t-67 -15.5q-44 0 -65.5 28t-21.5 79h-5q-26 -49 -72 -77.5t-102 -28.5q-63 0 -99 32t-36 86q0 24 8.5 46t27.5 42t50 39.5t76 39.5zM175 651l130 119q36 33 67 33
q17 0 27.5 -9t10.5 -26q0 -16 -13.5 -28.5t-37.5 -23.5l-137 -65h-47z" />
    <glyph glyph-name="acircumflex" unicode="&#xe2;" horiz-adv-x="554" 
d="M349 296q-57 -22 -96.5 -43t-63.5 -42t-34.5 -42t-10.5 -43q0 -33 22 -54t58 -21q26 0 48.5 13t39.5 35.5t27 53t10 64.5v79zM349 339v41q0 122 -104 122q-17 0 -29 -3t-20 -10t-14.5 -20t-12.5 -32q-11 -29 -21.5 -38.5t-30.5 -9.5q-50 0 -50 50q0 48 51 74.5t145 26.5
q100 0 142 -35.5t42 -120.5v-224q0 -114 45 -114q14 0 27 3.5t22 18.5l14 -24q-12 -23 -44 -38.5t-67 -15.5q-44 0 -65.5 28t-21.5 79h-5q-26 -49 -72 -77.5t-102 -28.5q-63 0 -99 32t-36 86q0 24 8.5 46t27.5 42t50 39.5t76 39.5zM310 780l119 -129h-45l-119 68l-119 -68
h-45l119 129h90z" />
    <glyph glyph-name="atilde" unicode="&#xe3;" horiz-adv-x="554" 
d="M349 296q-57 -22 -96.5 -43t-63.5 -42t-34.5 -42t-10.5 -43q0 -33 22 -54t58 -21q26 0 48.5 13t39.5 35.5t27 53t10 64.5v79zM349 339v41q0 122 -104 122q-17 0 -29 -3t-20 -10t-14.5 -20t-12.5 -32q-11 -29 -21.5 -38.5t-30.5 -9.5q-50 0 -50 50q0 48 51 74.5t145 26.5
q100 0 142 -35.5t42 -120.5v-224q0 -114 45 -114q14 0 27 3.5t22 18.5l14 -24q-12 -23 -44 -38.5t-67 -15.5q-44 0 -65.5 28t-21.5 79h-5q-26 -49 -72 -77.5t-102 -28.5q-63 0 -99 32t-36 86q0 24 8.5 46t27.5 42t50 39.5t76 39.5zM95 660q8 51 37.5 82.5t68.5 31.5
q20 0 39.5 -7t39 -16t38.5 -16t38 -7t29 9.5t18 32.5h33q-5 -51 -33.5 -84.5t-66.5 -33.5q-20 0 -40 7.5t-40.5 16.5t-41 16.5t-40.5 7.5q-19 0 -28.5 -8.5t-16.5 -31.5h-34z" />
    <glyph glyph-name="adieresis" unicode="&#xe4;" horiz-adv-x="554" 
d="M349 296q-57 -22 -96.5 -43t-63.5 -42t-34.5 -42t-10.5 -43q0 -33 22 -54t58 -21q26 0 48.5 13t39.5 35.5t27 53t10 64.5v79zM349 339v41q0 122 -104 122q-17 0 -29 -3t-20 -10t-14.5 -20t-12.5 -32q-11 -29 -21.5 -38.5t-30.5 -9.5q-50 0 -50 50q0 48 51 74.5t145 26.5
q100 0 142 -35.5t42 -120.5v-224q0 -114 45 -114q14 0 27 3.5t22 18.5l14 -24q-12 -23 -44 -38.5t-67 -15.5q-44 0 -65.5 28t-21.5 79h-5q-26 -49 -72 -77.5t-102 -28.5q-63 0 -99 32t-36 86q0 24 8.5 46t27.5 42t50 39.5t76 39.5zM124 709q0 25 16.5 41.5t41.5 16.5
t41.5 -16.5t16.5 -41.5t-16.5 -41.5t-41.5 -16.5t-41.5 16.5t-16.5 41.5zM291 709q0 25 16.5 41.5t41.5 16.5t41.5 -16.5t16.5 -41.5t-16.5 -41.5t-41.5 -16.5t-41.5 16.5t-16.5 41.5z" />
    <glyph glyph-name="aring" unicode="&#xe5;" horiz-adv-x="554" 
d="M349 296q-57 -22 -96.5 -43t-63.5 -42t-34.5 -42t-10.5 -43q0 -33 22 -54t58 -21q26 0 48.5 13t39.5 35.5t27 53t10 64.5v79zM349 339v41q0 122 -104 122q-17 0 -29 -3t-20 -10t-14.5 -20t-12.5 -32q-11 -29 -21.5 -38.5t-30.5 -9.5q-50 0 -50 50q0 48 51 74.5t145 26.5
q100 0 142 -35.5t42 -120.5v-224q0 -114 45 -114q14 0 27 3.5t22 18.5l14 -24q-12 -23 -44 -38.5t-67 -15.5q-44 0 -65.5 28t-21.5 79h-5q-26 -49 -72 -77.5t-102 -28.5q-63 0 -99 32t-36 86q0 24 8.5 46t27.5 42t50 39.5t76 39.5zM186 742q0 38 24.5 63t61.5 25
q38 0 63 -25t25 -63q0 -37 -25 -61.5t-63 -24.5q-37 0 -61.5 24.5t-24.5 61.5zM225 742q0 -20 13.5 -33.5t33.5 -13.5t32.5 13.5t12.5 33.5t-12.5 32.5t-32.5 12.5t-33.5 -12.5t-13.5 -32.5z" />
    <glyph glyph-name="ae" unicode="&#xe6;" horiz-adv-x="852" 
d="M802 93q-88 -103 -208 -103q-74 0 -129 34t-85 94q-28 -61 -79.5 -94t-118.5 -33q-65 0 -102 31.5t-37 86.5t39.5 95.5t122.5 71.5l144 53v51q0 63 -25.5 92.5t-80.5 29.5q-32 0 -46 -13.5t-28 -51.5q-11 -29 -21.5 -38.5t-29.5 -9.5q-51 0 -51 50q0 48 51.5 74.5
t145.5 26.5q69 0 108 -16.5t58 -52.5q33 33 77.5 51t98.5 18q94 0 147 -53.5t53 -147.5q0 -11 -6.5 -16.5t-24.5 -5.5h-309q-4 -12 -4 -44q0 -107 42.5 -169t117.5 -62q77 0 149 79zM349 286q-108 -40 -156.5 -77.5t-48.5 -82.5q0 -33 22.5 -54t57.5 -21q25 0 48 11.5
t40 31.5t27 46.5t10 56.5v89zM637 363q20 0 32 1t18 3.5t8 8t2 14.5q0 46 -29.5 74t-77.5 28t-76.5 -31.5t-40.5 -97.5h164z" />
    <glyph glyph-name="ccedilla" unicode="&#xe7;" horiz-adv-x="536" 
d="M506 83q-33 -41 -84 -64.5t-111 -27.5l-23 -63q124 0 124 -86q0 -48 -34 -75t-92 -27q-51 0 -83 21t-32 55q0 36 31 36q11 0 17.5 -6.5t15.5 -25.5q9 -21 18.5 -29t26.5 -8q22 0 36 13.5t14 36.5q0 54 -79 54q-8 0 -17.5 -0.5t-17.5 -1.5l-3 5l44 102q-47 6 -85 27.5
t-65.5 56.5t-42.5 82t-15 103q0 64 20 115.5t56.5 88t88 56t113.5 19.5q39 0 71 -6.5t55.5 -18t36.5 -28t13 -35.5q0 -20 -13 -31t-36 -11q-18 0 -30 7.5t-31 33.5q-20 23 -38.5 32.5t-47.5 9.5q-71 0 -107.5 -55t-36.5 -162q0 -115 40.5 -174.5t118.5 -59.5q42 0 79 16.5
t75 53.5z" />
    <glyph glyph-name="egrave" unicode="&#xe8;" horiz-adv-x="573" 
d="M522 93q-85 -103 -211 -103q-59 0 -107 19.5t-82.5 55t-53.5 85t-19 109.5q0 61 20 113t56.5 89t87 58t110.5 21q97 0 150 -52.5t53 -150.5q0 -14 -5.5 -17t-25.5 -3h-329q-2 -8 -3 -19.5t-1 -25.5q0 -52 12.5 -94.5t36 -72.5t56 -46.5t72.5 -16.5q42 0 78 18.5t74 60.5z
M357 363q20 0 32 1t18 4t8 8.5t2 14.5q0 46 -29.5 73.5t-80.5 27.5q-108 0 -134 -129h184zM399 651l-137 65q-24 11 -37.5 23.5t-13.5 28.5q0 17 10.5 26t27.5 9q31 0 67 -33l130 -119h-47z" />
    <glyph glyph-name="eacute" unicode="&#xe9;" horiz-adv-x="573" 
d="M522 93q-85 -103 -211 -103q-59 0 -107 19.5t-82.5 55t-53.5 85t-19 109.5q0 61 20 113t56.5 89t87 58t110.5 21q97 0 150 -52.5t53 -150.5q0 -14 -5.5 -17t-25.5 -3h-329q-2 -8 -3 -19.5t-1 -25.5q0 -52 12.5 -94.5t36 -72.5t56 -46.5t72.5 -16.5q42 0 78 18.5t74 60.5z
M357 363q20 0 32 1t18 4t8 8.5t2 14.5q0 46 -29.5 73.5t-80.5 27.5q-108 0 -134 -129h184zM240 651l130 119q36 33 67 33q17 0 27.5 -9t10.5 -26q0 -16 -13.5 -28.5t-37.5 -23.5l-137 -65h-47z" />
    <glyph glyph-name="ecircumflex" unicode="&#xea;" horiz-adv-x="573" 
d="M522 93q-85 -103 -211 -103q-59 0 -107 19.5t-82.5 55t-53.5 85t-19 109.5q0 61 20 113t56.5 89t87 58t110.5 21q97 0 150 -52.5t53 -150.5q0 -14 -5.5 -17t-25.5 -3h-329q-2 -8 -3 -19.5t-1 -25.5q0 -52 12.5 -94.5t36 -72.5t56 -46.5t72.5 -16.5q42 0 78 18.5t74 60.5z
M357 363q20 0 32 1t18 4t8 8.5t2 14.5q0 46 -29.5 73.5t-80.5 27.5q-108 0 -134 -129h184zM358 780l119 -129h-45l-119 68l-119 -68h-45l119 129h90z" />
    <glyph glyph-name="edieresis" unicode="&#xeb;" horiz-adv-x="573" 
d="M522 93q-85 -103 -211 -103q-59 0 -107 19.5t-82.5 55t-53.5 85t-19 109.5q0 61 20 113t56.5 89t87 58t110.5 21q97 0 150 -52.5t53 -150.5q0 -14 -5.5 -17t-25.5 -3h-329q-2 -8 -3 -19.5t-1 -25.5q0 -52 12.5 -94.5t36 -72.5t56 -46.5t72.5 -16.5q42 0 78 18.5t74 60.5z
M357 363q20 0 32 1t18 4t8 8.5t2 14.5q0 46 -29.5 73.5t-80.5 27.5q-108 0 -134 -129h184zM172 709q0 25 16.5 41.5t41.5 16.5t41.5 -16.5t16.5 -41.5t-16.5 -41.5t-41.5 -16.5t-41.5 16.5t-16.5 41.5zM339 709q0 25 16.5 41.5t41.5 16.5t41.5 -16.5t16.5 -41.5t-16.5 -41.5
t-41.5 -16.5t-41.5 16.5t-16.5 41.5z" />
    <glyph glyph-name="igrave" unicode="&#xec;" horiz-adv-x="341" 
d="M228 162q0 -39 3.5 -63t13.5 -37.5t28 -18.5t48 -6v-37h-287v37q30 1 49 6.5t29.5 18t14 35t3.5 57.5v124q0 58 -1.5 95t-5.5 51q-5 24 -23 32.5t-68 8.5v37l196 38v-378zM207 651l-137 65q-24 11 -37.5 23.5t-13.5 28.5q0 17 10.5 26t27.5 9q31 0 67 -33l130 -119h-47z
" />
    <glyph glyph-name="iacute" unicode="&#xed;" horiz-adv-x="341" 
d="M228 162q0 -39 3.5 -63t13.5 -37.5t28 -18.5t48 -6v-37h-287v37q30 1 49 6.5t29.5 18t14 35t3.5 57.5v124q0 58 -1.5 95t-5.5 51q-5 24 -23 32.5t-68 8.5v37l196 38v-378zM90 651l130 119q36 33 67 33q17 0 27.5 -9t10.5 -26q0 -16 -13.5 -28.5t-37.5 -23.5l-137 -65h-47
z" />
    <glyph glyph-name="icircumflex" unicode="&#xee;" horiz-adv-x="341" 
d="M228 162q0 -39 3.5 -63t13.5 -37.5t28 -18.5t48 -6v-37h-287v37q30 1 49 6.5t29.5 18t14 35t3.5 57.5v124q0 58 -1.5 95t-5.5 51q-5 24 -23 32.5t-68 8.5v37l196 38v-378zM225 780l119 -129h-45l-119 68l-119 -68h-45l119 129h90z" />
    <glyph glyph-name="idieresis" unicode="&#xef;" horiz-adv-x="341" 
d="M228 162q0 -39 3.5 -63t13.5 -37.5t28 -18.5t48 -6v-37h-287v37q30 1 49 6.5t29.5 18t14 35t3.5 57.5v124q0 58 -1.5 95t-5.5 51q-5 24 -23 32.5t-68 8.5v37l196 38v-378zM39 709q0 25 16.5 41.5t41.5 16.5t41.5 -16.5t16.5 -41.5t-16.5 -41.5t-41.5 -16.5t-41.5 16.5
t-16.5 41.5zM206 709q0 25 16.5 41.5t41.5 16.5t41.5 -16.5t16.5 -41.5t-16.5 -41.5t-41.5 -16.5t-41.5 16.5t-16.5 41.5z" />
    <glyph glyph-name="eth" unicode="&#xf0;" horiz-adv-x="640" 
d="M175 244q0 -100 35.5 -154.5t98.5 -54.5q64 0 101.5 56t37.5 153q0 96 -37 150.5t-101 54.5t-99.5 -54t-35.5 -151zM179 780q47 -14 92.5 -30.5t80.5 -37.5l130 75l25 -32l-117 -68q44 -31 78.5 -72.5t58 -91t36 -104t12.5 -111.5q0 -70 -20 -128.5t-55.5 -100.5
t-84.5 -65.5t-107 -23.5q-54 0 -101.5 19t-82 53t-54.5 80.5t-20 101.5q0 53 19 99t52.5 80.5t79 54.5t99.5 20t93 -22t60 -64l3 2q-20 80 -51 138t-75 100l-130 -75l-24 32l121 71q-23 17 -54.5 32.5t-82.5 33.5z" />
    <glyph glyph-name="ntilde" unicode="&#xf1;" horiz-adv-x="689" 
d="M216 157q0 -41 2 -64.5t10.5 -36t25 -16.5t45.5 -6v-34h-262v34q28 2 44.5 6t25.5 16t11.5 34t2.5 60v133q0 119 -6 145q-3 13 -7.5 21.5t-13.5 13t-23 6t-36 1.5v32l160 38l12 -99h4q38 47 89 73t111 26q46 0 84 -15t58 -41q17 -23 24 -59.5t7 -100.5v-167
q0 -41 2.5 -64.5t10.5 -36t24.5 -16.5t43.5 -6v-34h-259v34q28 1 44.5 5.5t25 16.5t11 34.5t2.5 59.5v132q0 57 -6 96t-19.5 63t-35.5 34.5t-53 10.5q-45 0 -82.5 -23.5t-58.5 -64.5q-5 -10 -8.5 -19t-5.5 -21t-3 -27.5t-1 -39.5v-134zM175 660q8 51 37.5 82.5t68.5 31.5
q20 0 39.5 -7t39 -16t38.5 -16t38 -7t29 9.5t18 32.5h33q-5 -51 -33.5 -84.5t-66.5 -33.5q-20 0 -40 7.5t-40.5 16.5t-41 16.5t-40.5 7.5q-19 0 -28.5 -8.5t-16.5 -31.5h-34z" />
    <glyph glyph-name="ograve" unicode="&#xf2;" horiz-adv-x="654" 
d="M325 540q57 0 108 -20.5t89.5 -56.5t61 -85.5t22.5 -108.5q0 -61 -22.5 -112t-61 -88t-89.5 -58t-108 -21q-56 0 -106.5 20.5t-88.5 57.5t-60 88.5t-22 112.5q0 59 22 109t60 86t88.5 56t106.5 20zM325 492q-37 0 -67.5 -16t-52 -45.5t-33 -71t-11.5 -91.5
q0 -52 11.5 -94t33 -71.5t51.5 -45.5t68 -16t69 16t53 46t34 72t12 93q0 50 -12 91t-34 70.5t-53 46t-69 16.5zM398 651l-137 65q-24 11 -37.5 23.5t-13.5 28.5q0 17 10.5 26t27.5 9q31 0 67 -33l130 -119h-47z" />
    <glyph glyph-name="oacute" unicode="&#xf3;" horiz-adv-x="654" 
d="M325 540q57 0 108 -20.5t89.5 -56.5t61 -85.5t22.5 -108.5q0 -61 -22.5 -112t-61 -88t-89.5 -58t-108 -21q-56 0 -106.5 20.5t-88.5 57.5t-60 88.5t-22 112.5q0 59 22 109t60 86t88.5 56t106.5 20zM325 492q-37 0 -67.5 -16t-52 -45.5t-33 -71t-11.5 -91.5
q0 -52 11.5 -94t33 -71.5t51.5 -45.5t68 -16t69 16t53 46t34 72t12 93q0 50 -12 91t-34 70.5t-53 46t-69 16.5zM235 651l130 119q36 33 67 33q17 0 27.5 -9t10.5 -26q0 -16 -13.5 -28.5t-37.5 -23.5l-137 -65h-47z" />
    <glyph glyph-name="ocircumflex" unicode="&#xf4;" horiz-adv-x="654" 
d="M325 540q57 0 108 -20.5t89.5 -56.5t61 -85.5t22.5 -108.5q0 -61 -22.5 -112t-61 -88t-89.5 -58t-108 -21q-56 0 -106.5 20.5t-88.5 57.5t-60 88.5t-22 112.5q0 59 22 109t60 86t88.5 56t106.5 20zM325 492q-37 0 -67.5 -16t-52 -45.5t-33 -71t-11.5 -91.5
q0 -52 11.5 -94t33 -71.5t51.5 -45.5t68 -16t69 16t53 46t34 72t12 93q0 50 -12 91t-34 70.5t-53 46t-69 16.5zM370 780l119 -129h-45l-119 68l-119 -68h-45l119 129h90z" />
    <glyph glyph-name="otilde" unicode="&#xf5;" horiz-adv-x="654" 
d="M325 540q57 0 108 -20.5t89.5 -56.5t61 -85.5t22.5 -108.5q0 -61 -22.5 -112t-61 -88t-89.5 -58t-108 -21q-56 0 -106.5 20.5t-88.5 57.5t-60 88.5t-22 112.5q0 59 22 109t60 86t88.5 56t106.5 20zM325 492q-37 0 -67.5 -16t-52 -45.5t-33 -71t-11.5 -91.5
q0 -52 11.5 -94t33 -71.5t51.5 -45.5t68 -16t69 16t53 46t34 72t12 93q0 50 -12 91t-34 70.5t-53 46t-69 16.5zM147 660q8 51 37.5 82.5t68.5 31.5q20 0 39.5 -7t39 -16t38.5 -16t38 -7t29 9.5t18 32.5h33q-5 -51 -33.5 -84.5t-66.5 -33.5q-20 0 -40 7.5t-40.5 16.5
t-41 16.5t-40.5 7.5q-19 0 -28.5 -8.5t-16.5 -31.5h-34z" />
    <glyph glyph-name="odieresis" unicode="&#xf6;" horiz-adv-x="654" 
d="M325 540q57 0 108 -20.5t89.5 -56.5t61 -85.5t22.5 -108.5q0 -61 -22.5 -112t-61 -88t-89.5 -58t-108 -21q-56 0 -106.5 20.5t-88.5 57.5t-60 88.5t-22 112.5q0 59 22 109t60 86t88.5 56t106.5 20zM325 492q-37 0 -67.5 -16t-52 -45.5t-33 -71t-11.5 -91.5
q0 -52 11.5 -94t33 -71.5t51.5 -45.5t68 -16t69 16t53 46t34 72t12 93q0 50 -12 91t-34 70.5t-53 46t-69 16.5zM184 709q0 25 16.5 41.5t41.5 16.5t41.5 -16.5t16.5 -41.5t-16.5 -41.5t-41.5 -16.5t-41.5 16.5t-16.5 41.5zM351 709q0 25 16.5 41.5t41.5 16.5t41.5 -16.5
t16.5 -41.5t-16.5 -41.5t-41.5 -16.5t-41.5 16.5t-16.5 41.5z" />
    <glyph glyph-name="divide" unicode="&#xf7;" horiz-adv-x="599" 
d="M237 162q0 28 19 47t46 19q28 0 47 -19t19 -47q0 -27 -19 -46t-47 -19q-27 0 -46 19t-19 46zM237 512q0 28 19 47t46 19q28 0 47 -19t19 -47q0 -27 -19 -46t-47 -19q-27 0 -46 19t-19 46zM534 313h-468v50h468v-50z" />
    <glyph glyph-name="oslash" unicode="&#xf8;" horiz-adv-x="651" 
d="M324 540q43 0 82 -11.5t73 -33.5l77 97h69l-103 -130q38 -36 60.5 -85t22.5 -108q0 -61 -22.5 -112t-61 -88t-89.5 -58t-108 -21q-40 0 -76.5 10t-68.5 29l-71 -90h-68l96 122q-41 38 -65 90.5t-24 117.5q0 59 22 109t60 86t88.5 56t106.5 20zM324 492q-37 0 -67.5 -16
t-52 -45.5t-33 -71t-11.5 -91.5q0 -84 29 -140l247 313q-21 24 -49.5 37.5t-62.5 13.5zM492 268q0 70 -25 125l-246 -311q41 -41 103 -41q38 0 69 16t53 46t34 72t12 93z" />
    <glyph glyph-name="ugrave" unicode="&#xf9;" 
d="M463 370q0 41 -2 64.5t-10.5 36t-25 17t-45.5 7.5v35h181v-307q0 -57 1.5 -93t4.5 -54q2 -13 6.5 -20.5t13.5 -12t23.5 -6t37.5 -1.5v-35l-165 -12l-11 120h-4q-38 -62 -87.5 -90.5t-103.5 -28.5q-42 0 -81.5 16t-59.5 43q-17 22 -24.5 61t-7.5 101v159q0 41 -2 64.5
t-10.5 36t-25 17t-45.5 7.5v35h181v-273q0 -109 25.5 -158t81.5 -49q88 0 137 115q5 12 8 22t5 22t3 27t1 36v98zM366 651l-137 65q-24 11 -37.5 23.5t-13.5 28.5q0 17 10.5 26t27.5 9q31 0 67 -33l130 -119h-47z" />
    <glyph glyph-name="uacute" unicode="&#xfa;" 
d="M463 370q0 41 -2 64.5t-10.5 36t-25 17t-45.5 7.5v35h181v-307q0 -57 1.5 -93t4.5 -54q2 -13 6.5 -20.5t13.5 -12t23.5 -6t37.5 -1.5v-35l-165 -12l-11 120h-4q-38 -62 -87.5 -90.5t-103.5 -28.5q-42 0 -81.5 16t-59.5 43q-17 22 -24.5 61t-7.5 101v159q0 41 -2 64.5
t-10.5 36t-25 17t-45.5 7.5v35h181v-273q0 -109 25.5 -158t81.5 -49q88 0 137 115q5 12 8 22t5 22t3 27t1 36v98zM223 651l130 119q36 33 67 33q17 0 27.5 -9t10.5 -26q0 -16 -13.5 -28.5t-37.5 -23.5l-137 -65h-47z" />
    <glyph glyph-name="ucircumflex" unicode="&#xfb;" 
d="M463 370q0 41 -2 64.5t-10.5 36t-25 17t-45.5 7.5v35h181v-307q0 -57 1.5 -93t4.5 -54q2 -13 6.5 -20.5t13.5 -12t23.5 -6t37.5 -1.5v-35l-165 -12l-11 120h-4q-38 -62 -87.5 -90.5t-103.5 -28.5q-42 0 -81.5 16t-59.5 43q-17 22 -24.5 61t-7.5 101v159q0 41 -2 64.5
t-10.5 36t-25 17t-45.5 7.5v35h181v-273q0 -109 25.5 -158t81.5 -49q88 0 137 115q5 12 8 22t5 22t3 27t1 36v98zM358 780l119 -129h-45l-119 68l-119 -68h-45l119 129h90z" />
    <glyph glyph-name="udieresis" unicode="&#xfc;" 
d="M463 370q0 41 -2 64.5t-10.5 36t-25 17t-45.5 7.5v35h181v-307q0 -57 1.5 -93t4.5 -54q2 -13 6.5 -20.5t13.5 -12t23.5 -6t37.5 -1.5v-35l-165 -12l-11 120h-4q-38 -62 -87.5 -90.5t-103.5 -28.5q-42 0 -81.5 16t-59.5 43q-17 22 -24.5 61t-7.5 101v159q0 41 -2 64.5
t-10.5 36t-25 17t-45.5 7.5v35h181v-273q0 -109 25.5 -158t81.5 -49q88 0 137 115q5 12 8 22t5 22t3 27t1 36v98zM172 709q0 25 16.5 41.5t41.5 16.5t41.5 -16.5t16.5 -41.5t-16.5 -41.5t-41.5 -16.5t-41.5 16.5t-16.5 41.5zM339 709q0 25 16.5 41.5t41.5 16.5t41.5 -16.5
t16.5 -41.5t-16.5 -41.5t-41.5 -16.5t-41.5 16.5t-16.5 41.5z" />
    <glyph glyph-name="yacute" unicode="&#xfd;" horiz-adv-x="639" 
d="M281 -157q-46 -103 -143 -103q-63 0 -63 47q0 25 17.5 36.5t64.5 19.5q21 3 36 8.5t27 14t21.5 21.5t18.5 32l35 70l-192 417q-13 28 -22.5 44.5t-20 26t-23.5 13t-33 5.5v35h265v-35q-67 0 -67 -33q0 -13 8 -41t20 -57l110 -266h5l91 225q13 33 21.5 54t13 34.5t6 22.5
t1.5 17q0 26 -14.5 35t-55.5 9v35h220v-35q-19 0 -32 -5t-26.5 -22.5t-30 -50.5t-40.5 -89zM259 651l130 119q36 33 67 33q17 0 27.5 -9t10.5 -26q0 -16 -13.5 -28.5t-37.5 -23.5l-137 -65h-47z" />
    <glyph glyph-name="thorn" unicode="&#xfe;" horiz-adv-x="654" 
d="M91 604q0 101 -13 129q-3 7 -7 11.5t-12 8t-22 6.5t-38 6v25l188 40v-371h4q32 42 70.5 61.5t89.5 19.5q54 0 100.5 -21t81 -58t54 -87.5t19.5 -108.5q0 -59 -20 -109.5t-54.5 -87.5t-81.5 -58t-102 -21q-48 0 -88 17.5t-69 49.5v-146q0 -40 4 -64t16 -37t34.5 -18
t59.5 -6v-35h-308v35q30 1 48.5 6t28.5 18t13.5 35.5t3.5 58.5v701zM189 209q0 -38 11 -69.5t30.5 -54t47 -35.5t59.5 -13q35 0 63.5 16t49 45.5t32 71t11.5 92.5t-12 93.5t-33 73t-50.5 47.5t-64.5 17q-41 0 -73 -19.5t-49 -54.5q-22 -44 -22 -121v-89z" />
    <glyph glyph-name="ydieresis" unicode="&#xff;" horiz-adv-x="639" 
d="M281 -157q-46 -103 -143 -103q-63 0 -63 47q0 25 17.5 36.5t64.5 19.5q21 3 36 8.5t27 14t21.5 21.5t18.5 32l35 70l-192 417q-13 28 -22.5 44.5t-20 26t-23.5 13t-33 5.5v35h265v-35q-67 0 -67 -33q0 -13 8 -41t20 -57l110 -266h5l91 225q13 33 21.5 54t13 34.5t6 22.5
t1.5 17q0 26 -14.5 35t-55.5 9v35h220v-35q-19 0 -32 -5t-26.5 -22.5t-30 -50.5t-40.5 -89zM208 709q0 25 16.5 41.5t41.5 16.5t41.5 -16.5t16.5 -41.5t-16.5 -41.5t-41.5 -16.5t-41.5 16.5t-16.5 41.5zM375 709q0 25 16.5 41.5t41.5 16.5t41.5 -16.5t16.5 -41.5
t-16.5 -41.5t-41.5 -16.5t-41.5 16.5t-16.5 41.5z" />
    <glyph glyph-name="Amacron" unicode="&#x100;" horiz-adv-x="772" 
d="M488 279h-267q-17 -41 -29 -72.5t-19.5 -54.5t-10.5 -39t-3 -26q0 -28 18 -38.5t60 -10.5v-38h-243v38q23 3 39.5 8t29 14t22 23.5t18.5 35.5l260 651h43l227 -564q23 -56 40 -89.5t33 -50.5t34.5 -22t44.5 -5v-39h-326v39q53 0 73 10t20 33q0 10 -1 18.5t-3.5 18.5
t-7 22.5t-11.5 29.5zM241 329h228l-111 295zM248 880v50h270v-50h-270z" />
    <glyph glyph-name="amacron" unicode="&#x101;" horiz-adv-x="554" 
d="M349 296q-57 -22 -96.5 -43t-63.5 -42t-34.5 -42t-10.5 -43q0 -33 22 -54t58 -21q26 0 48.5 13t39.5 35.5t27 53t10 64.5v79zM349 339v41q0 122 -104 122q-17 0 -29 -3t-20 -10t-14.5 -20t-12.5 -32q-11 -29 -21.5 -38.5t-30.5 -9.5q-50 0 -50 50q0 48 51 74.5t145 26.5
q100 0 142 -35.5t42 -120.5v-224q0 -114 45 -114q14 0 27 3.5t22 18.5l14 -24q-12 -23 -44 -38.5t-67 -15.5q-44 0 -65.5 28t-21.5 79h-5q-26 -49 -72 -77.5t-102 -28.5q-63 0 -99 32t-36 86q0 24 8.5 46t27.5 42t50 39.5t76 39.5zM130 702v50h270v-50h-270z" />
    <glyph glyph-name="Abreve" unicode="&#x102;" horiz-adv-x="772" 
d="M488 279h-267q-17 -41 -29 -72.5t-19.5 -54.5t-10.5 -39t-3 -26q0 -28 18 -38.5t60 -10.5v-38h-243v38q23 3 39.5 8t29 14t22 23.5t18.5 35.5l260 651h43l227 -564q23 -56 40 -89.5t33 -50.5t34.5 -22t44.5 -5v-39h-326v39q53 0 73 10t20 33q0 10 -1 18.5t-3.5 18.5
t-7 22.5t-11.5 29.5zM241 329h228l-111 295zM521 960q-4 -51 -42.5 -83t-95.5 -32q-29 0 -53.5 8.5t-43 24t-29.5 36.5t-12 46h36q8 -21 35.5 -33.5t65.5 -12.5t66 12.5t36 33.5h37z" />
    <glyph glyph-name="abreve" unicode="&#x103;" horiz-adv-x="554" 
d="M349 296q-57 -22 -96.5 -43t-63.5 -42t-34.5 -42t-10.5 -43q0 -33 22 -54t58 -21q26 0 48.5 13t39.5 35.5t27 53t10 64.5v79zM349 339v41q0 122 -104 122q-17 0 -29 -3t-20 -10t-14.5 -20t-12.5 -32q-11 -29 -21.5 -38.5t-30.5 -9.5q-50 0 -50 50q0 48 51 74.5t145 26.5
q100 0 142 -35.5t42 -120.5v-224q0 -114 45 -114q14 0 27 3.5t22 18.5l14 -24q-12 -23 -44 -38.5t-67 -15.5q-44 0 -65.5 28t-21.5 79h-5q-26 -49 -72 -77.5t-102 -28.5q-63 0 -99 32t-36 86q0 24 8.5 46t27.5 42t50 39.5t76 39.5zM403 776q-2 -29 -13 -52.5t-29.5 -41
t-43 -27t-52.5 -9.5q-29 0 -53.5 10t-43 27t-29.5 41t-12 52h36q9 -28 36.5 -44.5t64.5 -16.5q38 0 66 16.5t36 44.5h37z" />
    <glyph glyph-name="Aogonek" unicode="&#x104;" horiz-adv-x="772" 
d="M737 -152q-35 -46 -74 -64t-83 -18q-46 0 -71.5 22.5t-25.5 62.5q0 43 32 82t91 67h-147v39q53 0 73 10t20 33q0 10 -1 18.5t-3.5 18.5t-7 22.5t-11.5 29.5l-41 108h-267q-17 -41 -29 -72.5t-19.5 -54.5t-10.5 -39t-3 -26q0 -28 18 -38.5t60 -10.5v-38h-243v38
q23 3 39.5 8t29 14t22 23.5t18.5 35.5l260 651h43l227 -564q23 -56 40 -89.5t33 -50.5t34.5 -22t44.5 -5v-39h-114q-49 -26 -79 -61.5t-30 -64.5q0 -20 13.5 -34t37.5 -14q19 0 44 13t51 40zM241 329h228l-111 295z" />
    <glyph glyph-name="aogonek" unicode="&#x105;" horiz-adv-x="555" 
d="M534 -152q-35 -46 -74 -64t-83 -18q-46 0 -71.5 22.5t-25.5 62.5q0 43 31.5 81.5t89.5 66.5q-44 22 -44 98h-5q-26 -49 -72 -77.5t-102 -28.5q-63 0 -99 32t-36 86q0 24 8.5 46t27.5 42t50 39.5t76 39.5l144 63v41q0 122 -104 122q-17 0 -29 -3t-20 -10t-14.5 -20
t-12.5 -32q-11 -29 -21.5 -38.5t-30.5 -9.5q-50 0 -50 50q0 48 51 74.5t145 26.5q100 0 142 -35.5t42 -120.5v-224q0 -114 45 -114q14 0 27 3.5t22 18.5l14 -24q-11 -23 -41 -37.5t-63 -16.5q-42 -26 -67 -57.5t-25 -58.5q0 -20 13.5 -34t37.5 -14q19 0 44 13t51 40z
M349 296q-57 -22 -96.5 -43t-63.5 -42t-34.5 -42t-10.5 -43q0 -33 22 -54t58 -21q26 0 48.5 13t39.5 35.5t27 53t10 64.5v79z" />
    <glyph glyph-name="Cacute" unicode="&#x106;" horiz-adv-x="802" 
d="M689 770h28l9 -230h-37q-22 88 -85 138t-152 50q-61 0 -109 -24t-81 -69t-50.5 -110t-17.5 -147q0 -161 67 -247.5t194 -86.5q193 0 248 205h41v-249h-35l-23 79q-105 -89 -254 -89q-85 0 -153.5 27t-117 76.5t-75 120.5t-26.5 158q0 91 28 166t78.5 129t121 83.5
t155.5 29.5q60 0 113 -17t115 -55zM348 850l130 77q28 17 47.5 25t39.5 8q17 0 27.5 -9t10.5 -26q0 -16 -20.5 -27.5t-54.5 -19.5l-120 -28h-60z" />
    <glyph glyph-name="cacute" unicode="&#x107;" horiz-adv-x="536" 
d="M506 83q-36 -44 -93 -68.5t-123 -24.5q-53 0 -97.5 19.5t-76.5 55t-49.5 85.5t-17.5 111q0 64 20 115.5t56.5 88t88 56t113.5 19.5q39 0 71 -6.5t55.5 -18t36.5 -28t13 -35.5q0 -20 -13 -31t-36 -11q-18 0 -30 7.5t-31 33.5q-20 23 -38.5 32.5t-47.5 9.5
q-71 0 -107.5 -55t-36.5 -162q0 -115 40.5 -174.5t118.5 -59.5q42 0 79 16.5t75 53.5zM252 651l130 119q36 33 67 33q17 0 27.5 -9t10.5 -26q0 -16 -13.5 -28.5t-37.5 -23.5l-137 -65h-47z" />
    <glyph glyph-name="Ccircumflex" unicode="&#x108;" horiz-adv-x="802" 
d="M689 770h28l9 -230h-37q-22 88 -85 138t-152 50q-61 0 -109 -24t-81 -69t-50.5 -110t-17.5 -147q0 -161 67 -247.5t194 -86.5q193 0 248 205h41v-249h-35l-23 79q-105 -89 -254 -89q-85 0 -153.5 27t-117 76.5t-75 120.5t-26.5 158q0 91 28 166t78.5 129t121 83.5
t155.5 29.5q60 0 113 -17t115 -55zM503 960l109 -109h-45l-119 54l-119 -54h-45l109 109h110z" />
    <glyph glyph-name="ccircumflex" unicode="&#x109;" horiz-adv-x="536" 
d="M506 83q-36 -44 -93 -68.5t-123 -24.5q-53 0 -97.5 19.5t-76.5 55t-49.5 85.5t-17.5 111q0 64 20 115.5t56.5 88t88 56t113.5 19.5q39 0 71 -6.5t55.5 -18t36.5 -28t13 -35.5q0 -20 -13 -31t-36 -11q-18 0 -30 7.5t-31 33.5q-20 23 -38.5 32.5t-47.5 9.5
q-71 0 -107.5 -55t-36.5 -162q0 -115 40.5 -174.5t118.5 -59.5q42 0 79 16.5t75 53.5zM361 780l119 -129h-45l-119 68l-119 -68h-45l119 129h90z" />
    <glyph glyph-name="Cdotaccent" unicode="&#x10a;" horiz-adv-x="802" 
d="M689 770h28l9 -230h-37q-22 88 -85 138t-152 50q-61 0 -109 -24t-81 -69t-50.5 -110t-17.5 -147q0 -161 67 -247.5t194 -86.5q193 0 248 205h41v-249h-35l-23 79q-105 -89 -254 -89q-85 0 -153.5 27t-117 76.5t-75 120.5t-26.5 158q0 91 28 166t78.5 129t121 83.5
t155.5 29.5q60 0 113 -17t115 -55zM396 904q0 23 15.5 39t36.5 16q23 0 39 -16t16 -39q0 -21 -16 -36.5t-39 -15.5q-21 0 -36.5 15.5t-15.5 36.5z" />
    <glyph glyph-name="cdotaccent" unicode="&#x10b;" horiz-adv-x="536" 
d="M506 83q-36 -44 -93 -68.5t-123 -24.5q-53 0 -97.5 19.5t-76.5 55t-49.5 85.5t-17.5 111q0 64 20 115.5t56.5 88t88 56t113.5 19.5q39 0 71 -6.5t55.5 -18t36.5 -28t13 -35.5q0 -20 -13 -31t-36 -11q-18 0 -30 7.5t-31 33.5q-20 23 -38.5 32.5t-47.5 9.5
q-71 0 -107.5 -55t-36.5 -162q0 -115 40.5 -174.5t118.5 -59.5q42 0 79 16.5t75 53.5zM254 743q0 26 18 44t44 18t44 -18t18 -44t-18 -44t-44 -18t-44 18t-18 44z" />
    <glyph glyph-name="Ccaron" unicode="&#x10c;" horiz-adv-x="802" 
d="M689 770h28l9 -230h-37q-22 88 -85 138t-152 50q-61 0 -109 -24t-81 -69t-50.5 -110t-17.5 -147q0 -161 67 -247.5t194 -86.5q193 0 248 205h41v-249h-35l-23 79q-105 -89 -254 -89q-85 0 -153.5 27t-117 76.5t-75 120.5t-26.5 158q0 91 28 166t78.5 129t121 83.5
t155.5 29.5q60 0 113 -17t115 -55zM393 851l-109 109h45l119 -54l119 54h45l-109 -109h-110z" />
    <glyph glyph-name="ccaron" unicode="&#x10d;" horiz-adv-x="536" 
d="M506 83q-36 -44 -93 -68.5t-123 -24.5q-53 0 -97.5 19.5t-76.5 55t-49.5 85.5t-17.5 111q0 64 20 115.5t56.5 88t88 56t113.5 19.5q39 0 71 -6.5t55.5 -18t36.5 -28t13 -35.5q0 -20 -13 -31t-36 -11q-18 0 -30 7.5t-31 33.5q-20 23 -38.5 32.5t-47.5 9.5
q-71 0 -107.5 -55t-36.5 -162q0 -115 40.5 -174.5t118.5 -59.5q42 0 79 16.5t75 53.5zM271 651l-119 129h45l119 -68l119 68h45l-119 -129h-90z" />
    <glyph glyph-name="Dcaron" unicode="&#x10e;" horiz-adv-x="884" 
d="M38 0v38q38 1 61.5 5.5t36.5 17t17.5 34t4.5 57.5v466q0 35 -3.5 56.5t-14 34t-30.5 17t-52 6.5v38h351q90 0 166.5 -30t132 -83t86.5 -126t31 -159q0 -82 -29 -150.5t-81.5 -117.5t-125.5 -76.5t-160 -27.5h-391zM280 721q-17 0 -17 -17v-541q0 -114 149 -114
q137 0 210 81.5t73 239.5q0 83 -20 148t-57.5 110t-90.5 69t-120 24h-127zM388 851l-109 109h45l119 -54l119 54h45l-109 -109h-110z" />
    <glyph glyph-name="dcaron" unicode="&#x10f;" horiz-adv-x="675" 
d="M484 84h-4q-36 -51 -76.5 -72.5t-95.5 -21.5q-57 0 -104.5 20.5t-82 57t-54 87.5t-19.5 111q0 59 19.5 109.5t54 87t82.5 57t104 20.5q48 0 85.5 -16t72.5 -51v102q0 57 -1.5 95t-4.5 52q-5 22 -28 31t-75 9v30l205 38v-577q0 -69 1 -113.5t6 -63.5q3 -12 7.5 -20
t13 -12.5t23 -6.5t37.5 -2v-34l-166 -11v94zM464 305q0 52 -5.5 79t-21.5 47q-23 30 -58.5 45.5t-70.5 15.5q-72 0 -109.5 -59.5t-37.5 -161.5q0 -53 9.5 -96t28 -73.5t46 -47t63.5 -16.5q18 0 36.5 4t36 12.5t32.5 20t25 26.5q14 22 20 53t6 85v66zM647 610
q34 19 49.5 37.5t15.5 40.5q-10 -8 -26 -8q-20 0 -32 13t-12 34q0 23 16.5 38t42.5 15q30 0 46.5 -20.5t16.5 -58.5q0 -32 -21.5 -60.5t-73.5 -56.5z" />
    <glyph glyph-name="Dcroat" unicode="&#x110;" horiz-adv-x="882" 
d="M76 383v53h80v182q0 35 -3.5 56.5t-14 34t-30.5 17t-52 6.5v38h351q90 0 166.5 -30t132 -83t86.5 -126t31 -159q0 -82 -29 -150.5t-81.5 -117.5t-125.5 -76.5t-160 -27.5h-391v38q38 1 61.5 5.5t36.5 17t17.5 34t4.5 57.5v231h-80zM278 721q-17 0 -17 -17v-268h164v-53
h-164v-220q0 -114 149 -114q137 0 210 81.5t73 239.5q0 83 -20 148t-57.5 110t-90.5 69t-120 24h-127z" />
    <glyph glyph-name="dcroat" unicode="&#x111;" horiz-adv-x="675" 
d="M484 84h-4q-36 -51 -76.5 -72.5t-95.5 -21.5q-57 0 -104.5 20.5t-82 57t-54 87.5t-19.5 111q0 59 19.5 109.5t54 87t82.5 57t104 20.5q48 0 85.5 -16t72.5 -51v125h-98v53h97q-1 52 -5 71q-5 22 -28 31t-75 9v30l205 38v-179h85v-53h-85v-345q0 -69 1 -113.5t6 -63.5
q3 -12 7.5 -20t13 -12.5t23 -6.5t37.5 -2v-34l-166 -11v94zM464 305q0 52 -5.5 79t-21.5 47q-23 30 -58.5 45.5t-70.5 15.5q-72 0 -109.5 -59.5t-37.5 -161.5q0 -53 9.5 -96t28 -73.5t46 -47t63.5 -16.5q18 0 36.5 4t36 12.5t32.5 20t25 26.5q14 22 20 53t6 85v66z" />
    <glyph glyph-name="Emacron" unicode="&#x112;" horiz-adv-x="726" 
d="M260 423q54 0 90.5 6.5t58 20.5t31 36t9.5 52h35v-273h-35q0 30 -8.5 52t-30 36.5t-58 22t-92.5 7.5v-226q0 -33 8 -54.5t27.5 -35t51.5 -19t79 -5.5q53 0 90 7.5t62 25.5t40 47.5t25 73.5h38l-15 -197h-621v38q35 1 56.5 6t33.5 17t16 34t4 57v466q0 35 -3.5 56.5
t-14 34t-30.5 17t-52 6.5v38h578l9 -176h-35q-6 40 -19.5 65.5t-37 40.5t-59.5 21t-87 6h-127q-17 0 -17 -17v-287zM244 880v50h270v-50h-270z" />
    <glyph glyph-name="emacron" unicode="&#x113;" horiz-adv-x="573" 
d="M522 93q-85 -103 -211 -103q-59 0 -107 19.5t-82.5 55t-53.5 85t-19 109.5q0 61 20 113t56.5 89t87 58t110.5 21q97 0 150 -52.5t53 -150.5q0 -14 -5.5 -17t-25.5 -3h-329q-2 -8 -3 -19.5t-1 -25.5q0 -52 12.5 -94.5t36 -72.5t56 -46.5t72.5 -16.5q42 0 78 18.5t74 60.5z
M357 363q20 0 32 1t18 4t8 8.5t2 14.5q0 46 -29.5 73.5t-80.5 27.5q-108 0 -134 -129h184zM178 702v50h270v-50h-270z" />
    <glyph glyph-name="Ebreve" unicode="&#x114;" horiz-adv-x="726" 
d="M260 423q54 0 90.5 6.5t58 20.5t31 36t9.5 52h35v-273h-35q0 30 -8.5 52t-30 36.5t-58 22t-92.5 7.5v-226q0 -33 8 -54.5t27.5 -35t51.5 -19t79 -5.5q53 0 90 7.5t62 25.5t40 47.5t25 73.5h38l-15 -197h-621v38q35 1 56.5 6t33.5 17t16 34t4 57v466q0 35 -3.5 56.5
t-14 34t-30.5 17t-52 6.5v38h578l9 -176h-35q-6 40 -19.5 65.5t-37 40.5t-59.5 21t-87 6h-127q-17 0 -17 -17v-287zM517 960q-4 -51 -42.5 -83t-95.5 -32q-29 0 -53.5 8.5t-43 24t-29.5 36.5t-12 46h36q8 -21 35.5 -33.5t65.5 -12.5t66 12.5t36 33.5h37z" />
    <glyph glyph-name="ebreve" unicode="&#x115;" horiz-adv-x="573" 
d="M522 93q-85 -103 -211 -103q-59 0 -107 19.5t-82.5 55t-53.5 85t-19 109.5q0 61 20 113t56.5 89t87 58t110.5 21q97 0 150 -52.5t53 -150.5q0 -14 -5.5 -17t-25.5 -3h-329q-2 -8 -3 -19.5t-1 -25.5q0 -52 12.5 -94.5t36 -72.5t56 -46.5t72.5 -16.5q42 0 78 18.5t74 60.5z
M357 363q20 0 32 1t18 4t8 8.5t2 14.5q0 46 -29.5 73.5t-80.5 27.5q-108 0 -134 -129h184zM451 776q-2 -29 -13 -52.5t-29.5 -41t-43 -27t-52.5 -9.5q-29 0 -53.5 10t-43 27t-29.5 41t-12 52h36q9 -28 36.5 -44.5t64.5 -16.5q38 0 66 16.5t36 44.5h37z" />
    <glyph glyph-name="Edotaccent" unicode="&#x116;" horiz-adv-x="726" 
d="M260 423q54 0 90.5 6.5t58 20.5t31 36t9.5 52h35v-273h-35q0 30 -8.5 52t-30 36.5t-58 22t-92.5 7.5v-226q0 -33 8 -54.5t27.5 -35t51.5 -19t79 -5.5q53 0 90 7.5t62 25.5t40 47.5t25 73.5h38l-15 -197h-621v38q35 1 56.5 6t33.5 17t16 34t4 57v466q0 35 -3.5 56.5
t-14 34t-30.5 17t-52 6.5v38h578l9 -176h-35q-6 40 -19.5 65.5t-37 40.5t-59.5 21t-87 6h-127q-17 0 -17 -17v-287zM306 904q0 23 15.5 39t36.5 16q23 0 39 -16t16 -39q0 -21 -16 -36.5t-39 -15.5q-21 0 -36.5 15.5t-15.5 36.5z" />
    <glyph glyph-name="edotaccent" unicode="&#x117;" horiz-adv-x="573" 
d="M522 93q-85 -103 -211 -103q-59 0 -107 19.5t-82.5 55t-53.5 85t-19 109.5q0 61 20 113t56.5 89t87 58t110.5 21q97 0 150 -52.5t53 -150.5q0 -14 -5.5 -17t-25.5 -3h-329q-2 -8 -3 -19.5t-1 -25.5q0 -52 12.5 -94.5t36 -72.5t56 -46.5t72.5 -16.5q42 0 78 18.5t74 60.5z
M357 363q20 0 32 1t18 4t8 8.5t2 14.5q0 46 -29.5 73.5t-80.5 27.5q-108 0 -134 -129h184zM251 743q0 26 18 44t44 18t44 -18t18 -44t-18 -44t-44 -18t-44 18t-18 44z" />
    <glyph glyph-name="Eogonek" unicode="&#x118;" horiz-adv-x="726" 
d="M483 -152q-35 -46 -74 -64t-83 -18q-46 0 -71.5 22.5t-25.5 62.5q0 43 32 82t91 67h-307v38q35 1 56.5 6t33.5 17t16 34t4 57v466q0 35 -3.5 56.5t-14 34t-30.5 17t-52 6.5v38h578l9 -176h-35q-6 40 -19.5 65.5t-37 40.5t-59.5 21t-87 6h-127q-17 0 -17 -17v-287
q54 0 90.5 6.5t58 20.5t31 36t9.5 52h35v-273h-35q0 30 -8.5 52t-30 36.5t-58 22t-92.5 7.5v-226q0 -33 8 -54.5t27.5 -35t51.5 -19t79 -5.5q53 0 90 7.5t62 25.5t40 47.5t25 73.5h38l-15 -197h-249q-49 -26 -79 -61.5t-30 -64.5q0 -20 13.5 -34t37.5 -14q19 0 44 13t51 40z
" />
    <glyph glyph-name="eogonek" unicode="&#x119;" horiz-adv-x="573" 
d="M400 -152q-35 -46 -74 -64t-83 -18q-46 0 -71.5 22.5t-25.5 62.5q0 42 29 79t83 65q-47 8 -85.5 30t-66 56.5t-42.5 79.5t-15 98q0 61 20 113t56.5 89t87 58t110.5 21q97 0 150 -52.5t53 -150.5q0 -14 -5.5 -17t-25.5 -3h-329q-2 -8 -3 -19.5t-1 -25.5q0 -52 12.5 -94.5
t36 -72.5t56 -46.5t72.5 -16.5q42 0 78 18.5t74 60.5l31 -28q-43 -52 -93 -76.5t-112 -26.5q-42 -26 -67 -57.5t-25 -58.5q0 -20 13.5 -34t37.5 -14q19 0 44 13t51 40zM357 363q20 0 32 1t18 4t8 8.5t2 14.5q0 46 -29.5 73.5t-80.5 27.5q-108 0 -134 -129h184z" />
    <glyph glyph-name="Ecaron" unicode="&#x11a;" horiz-adv-x="726" 
d="M260 423q54 0 90.5 6.5t58 20.5t31 36t9.5 52h35v-273h-35q0 30 -8.5 52t-30 36.5t-58 22t-92.5 7.5v-226q0 -33 8 -54.5t27.5 -35t51.5 -19t79 -5.5q53 0 90 7.5t62 25.5t40 47.5t25 73.5h38l-15 -197h-621v38q35 1 56.5 6t33.5 17t16 34t4 57v466q0 35 -3.5 56.5
t-14 34t-30.5 17t-52 6.5v38h578l9 -176h-35q-6 40 -19.5 65.5t-37 40.5t-59.5 21t-87 6h-127q-17 0 -17 -17v-287zM324 851l-109 109h45l119 -54l119 54h45l-109 -109h-110z" />
    <glyph glyph-name="ecaron" unicode="&#x11b;" horiz-adv-x="573" 
d="M522 93q-85 -103 -211 -103q-59 0 -107 19.5t-82.5 55t-53.5 85t-19 109.5q0 61 20 113t56.5 89t87 58t110.5 21q97 0 150 -52.5t53 -150.5q0 -14 -5.5 -17t-25.5 -3h-329q-2 -8 -3 -19.5t-1 -25.5q0 -52 12.5 -94.5t36 -72.5t56 -46.5t72.5 -16.5q42 0 78 18.5t74 60.5z
M357 363q20 0 32 1t18 4t8 8.5t2 14.5q0 46 -29.5 73.5t-80.5 27.5q-108 0 -134 -129h184zM268 651l-119 129h45l119 -68l119 68h45l-119 -129h-90z" />
    <glyph glyph-name="Gcircumflex" unicode="&#x11c;" horiz-adv-x="870" 
d="M428 -10q-85 0 -153 27t-116 76.5t-73.5 120.5t-25.5 158q0 91 28 166t78.5 129t121 83.5t155.5 29.5q60 0 113 -17t115 -55l21 62h35l-13 -230h-48q0 49 -18.5 84.5t-48.5 58.5t-68.5 34t-78.5 11q-61 0 -109 -24t-81 -69t-50.5 -110t-17.5 -147q0 -161 67 -247.5
t194 -86.5q48 0 86 11.5t64.5 31t40 45t13.5 53.5q0 58 -23.5 78.5t-76.5 20.5v38h284v-38q-24 0 -40 -4t-25.5 -14.5t-13 -27.5t-3.5 -43v-112q-19 0 -34.5 -1.5t-32.5 -7t-37.5 -15t-48.5 -25.5q-35 -20 -80.5 -32t-99.5 -12zM501 960l109 -109h-45l-119 54l-119 -54h-45
l109 109h110z" />
    <glyph glyph-name="gcircumflex" unicode="&#x11d;" horiz-adv-x="599" 
d="M274 215q42 0 65.5 38t23.5 107q0 68 -23.5 105.5t-66.5 37.5t-68.5 -38t-25.5 -104t26 -106t69 -40zM219 98q24 -2 44 -4t39.5 -4t39 -5t42.5 -6q72 -11 115.5 -55.5t43.5 -111.5q0 -84 -66.5 -128t-192.5 -44q-56 0 -102.5 10t-79.5 28.5t-51.5 44.5t-18.5 57
q0 21 7 39t19 31.5t28.5 21.5t34.5 8q34 0 61 -21q-27 -6 -44 -29.5t-17 -53.5q0 -44 43.5 -68t123.5 -24q171 0 171 105q0 40 -27 66.5t-64 31.5q-24 3 -49.5 6.5t-50 6.5t-45.5 5t-34 4q-56 6 -85 30t-29 66q0 35 29 62t73 34v4q-22 9 -41 25.5t-32.5 37.5t-21.5 45.5
t-8 50.5q0 38 14.5 70t41 55.5t62.5 37t79 13.5q44 0 83 -13.5t67 -39.5q34 28 60 40.5t49 12.5q36 0 57.5 -16.5t21.5 -44.5q0 -17 -11.5 -27t-28.5 -10q-14 0 -23 5t-16.5 10.5t-15.5 10.5t-20 5q-24 0 -49 -17q24 -37 24 -93q0 -85 -53 -133.5t-159 -56.5q-61 -5 -85 -13
t-24 -29q0 -16 18 -23.5t53 -9.5zM336 780l119 -129h-45l-119 68l-119 -68h-45l119 129h90z" />
    <glyph glyph-name="Gbreve" unicode="&#x11e;" horiz-adv-x="870" 
d="M428 -10q-85 0 -153 27t-116 76.5t-73.5 120.5t-25.5 158q0 91 28 166t78.5 129t121 83.5t155.5 29.5q60 0 113 -17t115 -55l21 62h35l-13 -230h-48q0 49 -18.5 84.5t-48.5 58.5t-68.5 34t-78.5 11q-61 0 -109 -24t-81 -69t-50.5 -110t-17.5 -147q0 -161 67 -247.5
t194 -86.5q48 0 86 11.5t64.5 31t40 45t13.5 53.5q0 58 -23.5 78.5t-76.5 20.5v38h284v-38q-24 0 -40 -4t-25.5 -14.5t-13 -27.5t-3.5 -43v-112q-19 0 -34.5 -1.5t-32.5 -7t-37.5 -15t-48.5 -25.5q-35 -20 -80.5 -32t-99.5 -12zM584 960q-4 -51 -42.5 -83t-95.5 -32
q-29 0 -53.5 8.5t-43 24t-29.5 36.5t-12 46h36q8 -21 35.5 -33.5t65.5 -12.5t66 12.5t36 33.5h37z" />
    <glyph glyph-name="gbreve" unicode="&#x11f;" horiz-adv-x="599" 
d="M274 215q42 0 65.5 38t23.5 107q0 68 -23.5 105.5t-66.5 37.5t-68.5 -38t-25.5 -104t26 -106t69 -40zM219 98q24 -2 44 -4t39.5 -4t39 -5t42.5 -6q72 -11 115.5 -55.5t43.5 -111.5q0 -84 -66.5 -128t-192.5 -44q-56 0 -102.5 10t-79.5 28.5t-51.5 44.5t-18.5 57
q0 21 7 39t19 31.5t28.5 21.5t34.5 8q34 0 61 -21q-27 -6 -44 -29.5t-17 -53.5q0 -44 43.5 -68t123.5 -24q171 0 171 105q0 40 -27 66.5t-64 31.5q-24 3 -49.5 6.5t-50 6.5t-45.5 5t-34 4q-56 6 -85 30t-29 66q0 35 29 62t73 34v4q-22 9 -41 25.5t-32.5 37.5t-21.5 45.5
t-8 50.5q0 38 14.5 70t41 55.5t62.5 37t79 13.5q44 0 83 -13.5t67 -39.5q34 28 60 40.5t49 12.5q36 0 57.5 -16.5t21.5 -44.5q0 -17 -11.5 -27t-28.5 -10q-14 0 -23 5t-16.5 10.5t-15.5 10.5t-20 5q-24 0 -49 -17q24 -37 24 -93q0 -85 -53 -133.5t-159 -56.5q-61 -5 -85 -13
t-24 -29q0 -16 18 -23.5t53 -9.5zM420 776q-2 -29 -13 -52.5t-29.5 -41t-43 -27t-52.5 -9.5q-29 0 -53.5 10t-43 27t-29.5 41t-12 52h36q9 -28 36.5 -44.5t64.5 -16.5q38 0 66 16.5t36 44.5h37z" />
    <glyph glyph-name="Gdotaccent" unicode="&#x120;" horiz-adv-x="870" 
d="M428 -10q-85 0 -153 27t-116 76.5t-73.5 120.5t-25.5 158q0 91 28 166t78.5 129t121 83.5t155.5 29.5q60 0 113 -17t115 -55l21 62h35l-13 -230h-48q0 49 -18.5 84.5t-48.5 58.5t-68.5 34t-78.5 11q-61 0 -109 -24t-81 -69t-50.5 -110t-17.5 -147q0 -161 67 -247.5
t194 -86.5q48 0 86 11.5t64.5 31t40 45t13.5 53.5q0 58 -23.5 78.5t-76.5 20.5v38h284v-38q-24 0 -40 -4t-25.5 -14.5t-13 -27.5t-3.5 -43v-112q-19 0 -34.5 -1.5t-32.5 -7t-37.5 -15t-48.5 -25.5q-35 -20 -80.5 -32t-99.5 -12zM394 904q0 23 15.5 39t36.5 16q23 0 39 -16
t16 -39q0 -21 -16 -36.5t-39 -15.5q-21 0 -36.5 15.5t-15.5 36.5z" />
    <glyph glyph-name="gdotaccent" unicode="&#x121;" horiz-adv-x="599" 
d="M274 215q42 0 65.5 38t23.5 107q0 68 -23.5 105.5t-66.5 37.5t-68.5 -38t-25.5 -104t26 -106t69 -40zM219 98q24 -2 44 -4t39.5 -4t39 -5t42.5 -6q72 -11 115.5 -55.5t43.5 -111.5q0 -84 -66.5 -128t-192.5 -44q-56 0 -102.5 10t-79.5 28.5t-51.5 44.5t-18.5 57
q0 21 7 39t19 31.5t28.5 21.5t34.5 8q34 0 61 -21q-27 -6 -44 -29.5t-17 -53.5q0 -44 43.5 -68t123.5 -24q171 0 171 105q0 40 -27 66.5t-64 31.5q-24 3 -49.5 6.5t-50 6.5t-45.5 5t-34 4q-56 6 -85 30t-29 66q0 35 29 62t73 34v4q-22 9 -41 25.5t-32.5 37.5t-21.5 45.5
t-8 50.5q0 38 14.5 70t41 55.5t62.5 37t79 13.5q44 0 83 -13.5t67 -39.5q34 28 60 40.5t49 12.5q36 0 57.5 -16.5t21.5 -44.5q0 -17 -11.5 -27t-28.5 -10q-14 0 -23 5t-16.5 10.5t-15.5 10.5t-20 5q-24 0 -49 -17q24 -37 24 -93q0 -85 -53 -133.5t-159 -56.5q-61 -5 -85 -13
t-24 -29q0 -16 18 -23.5t53 -9.5zM224 743q0 26 18 44t44 18t44 -18t18 -44t-18 -44t-44 -18t-44 18t-18 44z" />
    <glyph glyph-name="Gcommaaccent" unicode="&#x122;" horiz-adv-x="870" 
d="M428 -10q-85 0 -153 27t-116 76.5t-73.5 120.5t-25.5 158q0 91 28 166t78.5 129t121 83.5t155.5 29.5q60 0 113 -17t115 -55l21 62h35l-13 -230h-48q0 49 -18.5 84.5t-48.5 58.5t-68.5 34t-78.5 11q-61 0 -109 -24t-81 -69t-50.5 -110t-17.5 -147q0 -161 67 -247.5
t194 -86.5q48 0 86 11.5t64.5 31t40 45t13.5 53.5q0 58 -23.5 78.5t-76.5 20.5v38h284v-38q-24 0 -40 -4t-25.5 -14.5t-13 -27.5t-3.5 -43v-112q-19 0 -34.5 -1.5t-32.5 -7t-37.5 -15t-48.5 -25.5q-35 -20 -80.5 -32t-99.5 -12zM375 -224q34 19 49.5 37.5t15.5 40.5
q-10 -8 -26 -8q-20 0 -32 13t-12 34q0 23 16.5 38t42.5 15q30 0 46.5 -20.5t16.5 -58.5q0 -32 -21.5 -60.5t-73.5 -56.5z" />
    <glyph glyph-name="gcommaaccent" unicode="&#x123;" horiz-adv-x="599" 
d="M344 821q-34 -19 -49.5 -37.5t-15.5 -40.5q10 8 26 8q20 0 32 -13t12 -34q0 -23 -16.5 -38t-42.5 -15q-30 0 -46.5 20t-16.5 53q0 32 21.5 63.5t73.5 59.5zM274 215q42 0 65.5 38t23.5 107q0 68 -23.5 105.5t-66.5 37.5t-68.5 -38t-25.5 -104t26 -106t69 -40zM219 98
q24 -2 44 -4t39.5 -4t39 -5t42.5 -6q72 -11 115.5 -55.5t43.5 -111.5q0 -84 -66.5 -128t-192.5 -44q-56 0 -102.5 10t-79.5 28.5t-51.5 44.5t-18.5 57q0 21 7 39t19 31.5t28.5 21.5t34.5 8q34 0 61 -21q-27 -6 -44 -29.5t-17 -53.5q0 -44 43.5 -68t123.5 -24q171 0 171 105
q0 40 -27 66.5t-64 31.5q-24 3 -49.5 6.5t-50 6.5t-45.5 5t-34 4q-56 6 -85 30t-29 66q0 35 29 62t73 34v4q-22 9 -41 25.5t-32.5 37.5t-21.5 45.5t-8 50.5q0 38 14.5 70t41 55.5t62.5 37t79 13.5q44 0 83 -13.5t67 -39.5q34 28 60 40.5t49 12.5q36 0 57.5 -16.5t21.5 -44.5
q0 -17 -11.5 -27t-28.5 -10q-14 0 -23 5t-16.5 10.5t-15.5 10.5t-20 5q-24 0 -49 -17q24 -37 24 -93q0 -85 -53 -133.5t-159 -56.5q-61 -5 -85 -13t-24 -29q0 -16 18 -23.5t53 -9.5z" />
    <glyph glyph-name="Hcircumflex" unicode="&#x124;" horiz-adv-x="925" 
d="M770 159q0 -38 4 -61.5t15.5 -36t33 -17.5t56.5 -6v-38h-324v38q35 1 56.5 6t33.5 17t16 34t4 57v217h-405v-210q0 -38 4 -61.5t15.5 -36t33 -17.5t56.5 -6v-38h-324v38q35 1 56.5 6t33.5 17t16 34t4 57v466q0 35 -3.5 56.5t-14 34t-30.5 17t-52 6.5v38h304v-38
q-32 -1 -51.5 -6t-30 -18t-14 -36t-3.5 -61v-192h405v199q0 35 -3.5 56.5t-14 34t-30.5 17t-52 6.5v38h304v-38q-32 -1 -51.5 -6t-30 -18t-14 -36t-3.5 -61v-452zM519 960l109 -109h-45l-119 54l-119 -54h-45l109 109h110z" />
    <glyph glyph-name="hcircumflex" unicode="&#x125;" horiz-adv-x="688" 
d="M208 159q0 -41 2 -65t10.5 -36.5t24.5 -16.5t45 -6v-35h-266v35q29 2 46 6t26 16t11.5 34.5t2.5 60.5v419q0 59 -1.5 94t-5.5 53q-2 12 -6.5 19.5t-13.5 12t-24 6.5t-37 2v34l184 38v-381h4q15 20 37.5 36.5t48.5 28.5t54.5 19t55.5 7q46 0 84.5 -16t59.5 -43
q17 -23 25 -60.5t8 -101.5v-160q0 -41 2 -64.5t10.5 -36.5t24.5 -17t45 -6v-35h-265v35q28 1 45 5.5t25.5 16.5t11 34.5t2.5 60.5v126q0 112 -26 159.5t-87 47.5q-47 0 -85.5 -24t-60.5 -66q-5 -11 -8.5 -20.5t-5.5 -21.5t-2.5 -27.5t-0.5 -38.5v-128zM431 780l119 -129h-45
l-119 68l-119 -68h-45l119 129h90z" />
    <glyph glyph-name="Hbar" unicode="&#x126;" horiz-adv-x="927" 
d="M771 591h79v-50h-79v-382q0 -38 4 -61.5t15.5 -36t33 -17.5t56.5 -6v-38h-324v38q35 1 56.5 6t33.5 17t16 34t4 57v217h-405v-210q0 -38 4 -61.5t15.5 -36t33 -17.5t56.5 -6v-38h-324v38q35 1 56.5 6t33.5 17t16 34t4 57v389h-80v50h80v27q0 35 -3.5 56.5t-14 34
t-30.5 17t-52 6.5v38h304v-38q-32 -1 -51.5 -6t-30 -18t-14 -36t-3.5 -61v-20h405v27q0 35 -3.5 56.5t-14 34t-30.5 17t-52 6.5v38h304v-38q-32 -1 -51.5 -6t-30 -18t-14 -36t-3.5 -61v-20zM666 419v122h-405v-122h405z" />
    <glyph glyph-name="hbar" unicode="&#x127;" horiz-adv-x="688" 
d="M208 159q0 -41 2 -65t10.5 -36.5t24.5 -16.5t45 -6v-35h-266v35q29 2 46 6t26 16t11.5 34.5t2.5 60.5v446h-87v53h86q-1 46 -6 67q-2 12 -6.5 19.5t-13.5 12t-24 6.5t-37 2v34l184 38v-179h96v-53h-96v-149h4q15 20 37.5 36.5t48.5 28.5t54.5 19t55.5 7q46 0 84.5 -16
t59.5 -43q17 -23 25 -60.5t8 -101.5v-160q0 -41 2 -64.5t10.5 -36.5t24.5 -17t45 -6v-35h-265v35q28 1 45 5.5t25.5 16.5t11 34.5t2.5 60.5v126q0 112 -26 159.5t-87 47.5q-47 0 -85.5 -24t-60.5 -66q-5 -11 -8.5 -20.5t-5.5 -21.5t-2.5 -27.5t-0.5 -38.5v-128z" />
    <glyph glyph-name="Itilde" unicode="&#x128;" horiz-adv-x="415" 
d="M260 189q0 -50 4 -79t15.5 -45t33 -21t56.5 -6v-38h-324v38q35 1 56.5 6.5t33.5 20.5t16 42.5t4 74.5v406q0 42 -3.5 69.5t-14 43.5t-30.5 22.5t-52 8.5v38h304v-38q-32 -1 -51.5 -8t-30 -23.5t-14 -45.5t-3.5 -74v-392zM35 846q8 51 37.5 82.5t68.5 31.5q20 0 39.5 -7
t39 -16t38.5 -16t38 -7t29 9.5t18 32.5h33q-5 -51 -33.5 -84.5t-66.5 -33.5q-20 0 -40 7.5t-40.5 16.5t-41 16.5t-40.5 7.5q-19 0 -28.5 -8.5t-16.5 -31.5h-34z" />
    <glyph glyph-name="itilde" unicode="&#x129;" horiz-adv-x="341" 
d="M228 162q0 -39 3.5 -63t13.5 -37.5t28 -18.5t48 -6v-37h-287v37q30 1 49 6.5t29.5 18t14 35t3.5 57.5v124q0 58 -1.5 95t-5.5 51q-5 24 -23 32.5t-68 8.5v37l196 38v-378zM2 660q8 51 37.5 82.5t68.5 31.5q20 0 39.5 -7t39 -16t38.5 -16t38 -7t29 9.5t18 32.5h33
q-5 -51 -33.5 -84.5t-66.5 -33.5q-20 0 -40 7.5t-40.5 16.5t-41 16.5t-40.5 7.5q-19 0 -28.5 -8.5t-16.5 -31.5h-34z" />
    <glyph glyph-name="Imacron" unicode="&#x12a;" horiz-adv-x="415" 
d="M260 189q0 -50 4 -79t15.5 -45t33 -21t56.5 -6v-38h-324v38q35 1 56.5 6.5t33.5 20.5t16 42.5t4 74.5v406q0 42 -3.5 69.5t-14 43.5t-30.5 22.5t-52 8.5v38h304v-38q-32 -1 -51.5 -8t-30 -23.5t-14 -45.5t-3.5 -74v-392zM71 880v50h270v-50h-270z" />
    <glyph glyph-name="imacron" unicode="&#x12b;" horiz-adv-x="341" 
d="M228 162q0 -39 3.5 -63t13.5 -37.5t28 -18.5t48 -6v-37h-287v37q30 1 49 6.5t29.5 18t14 35t3.5 57.5v124q0 58 -1.5 95t-5.5 51q-5 24 -23 32.5t-68 8.5v37l196 38v-378zM45 702v50h270v-50h-270z" />
    <glyph glyph-name="Ibreve" unicode="&#x12c;" horiz-adv-x="415" 
d="M260 189q0 -50 4 -79t15.5 -45t33 -21t56.5 -6v-38h-324v38q35 1 56.5 6.5t33.5 20.5t16 42.5t4 74.5v406q0 42 -3.5 69.5t-14 43.5t-30.5 22.5t-52 8.5v38h304v-38q-32 -1 -51.5 -8t-30 -23.5t-14 -45.5t-3.5 -74v-392zM344 960q-4 -51 -42.5 -83t-95.5 -32
q-29 0 -53.5 8.5t-43 24t-29.5 36.5t-12 46h36q8 -21 35.5 -33.5t65.5 -12.5t66 12.5t36 33.5h37z" />
    <glyph glyph-name="ibreve" unicode="&#x12d;" horiz-adv-x="341" 
d="M228 162q0 -39 3.5 -63t13.5 -37.5t28 -18.5t48 -6v-37h-287v37q30 1 49 6.5t29.5 18t14 35t3.5 57.5v124q0 58 -1.5 95t-5.5 51q-5 24 -23 32.5t-68 8.5v37l196 38v-378zM318 776q-2 -29 -13 -52.5t-29.5 -41t-43 -27t-52.5 -9.5q-29 0 -53.5 10t-43 27t-29.5 41t-12 52
h36q9 -28 36.5 -44.5t64.5 -16.5q38 0 66 16.5t36 44.5h37z" />
    <glyph glyph-name="Iogonek" unicode="&#x12e;" horiz-adv-x="415" 
d="M312 -152q-35 -46 -74 -64t-83 -18q-46 0 -71.5 22.5t-25.5 62.5q0 43 32 82t91 67h-136v38q35 1 56.5 6.5t33.5 20.5t16 42.5t4 74.5v406q0 42 -3.5 69.5t-14 43.5t-30.5 22.5t-52 8.5v38h304v-38q-32 -1 -51.5 -8t-30 -23.5t-14 -45.5t-3.5 -74v-392q0 -50 4 -79
t15.5 -45t33 -21t56.5 -6v-38h-123q-49 -26 -79 -61.5t-30 -64.5q0 -20 13.5 -34t37.5 -14q19 0 44 13t51 40z" />
    <glyph glyph-name="iogonek" unicode="&#x12f;" horiz-adv-x="341" 
d="M267 -152q-35 -46 -74 -64t-83 -18q-46 0 -71.5 22.5t-25.5 62.5q0 43 32 82t91 67h-102v35q30 1 49 6.5t29.5 18t14 35t3.5 57.5v128q0 58 -1.5 95.5t-5.5 51.5q-5 23 -23 31.5t-68 8.5v35l196 38v-381q0 -39 3.5 -62.5t13.5 -37t28 -18.5t48 -6v-35h-120
q-49 -26 -79 -61.5t-30 -64.5q0 -20 13.5 -34t37.5 -14q19 0 44 13t51 40zM113 743q0 26 18 44t44 18t44 -18t18 -44t-18 -44t-44 -18t-44 18t-18 44z" />
    <glyph glyph-name="Idotaccent" unicode="&#x130;" horiz-adv-x="415" 
d="M260 189q0 -50 4 -79t15.5 -45t33 -21t56.5 -6v-38h-324v38q35 1 56.5 6.5t33.5 20.5t16 42.5t4 74.5v406q0 42 -3.5 69.5t-14 43.5t-30.5 22.5t-52 8.5v38h304v-38q-32 -1 -51.5 -8t-30 -23.5t-14 -45.5t-3.5 -74v-392zM155 904q0 23 15.5 39t36.5 16q23 0 39 -16
t16 -39q0 -21 -16 -36.5t-39 -15.5q-21 0 -36.5 15.5t-15.5 36.5z" />
    <glyph glyph-name="dotlessi" unicode="&#x131;" horiz-adv-x="341" 
d="M228 162q0 -39 3.5 -63t13.5 -37.5t28 -18.5t48 -6v-37h-287v37q30 1 49 6.5t29.5 18t14 35t3.5 57.5v124q0 58 -1.5 95t-5.5 51q-5 24 -23 32.5t-68 8.5v37l196 38v-378z" />
    <glyph glyph-name="IJ" unicode="&#x132;" horiz-adv-x="809" 
d="M260 189q0 -50 4 -79t15.5 -45t33 -21t56.5 -6v-38h-324v38q35 1 56.5 6.5t33.5 20.5t16 42.5t4 74.5v406q0 42 -3.5 69.5t-14 43.5t-30.5 22.5t-52 8.5v38h304v-38q-32 -1 -51.5 -8t-30 -23.5t-14 -45.5t-3.5 -74v-392zM560 618q0 35 -3.5 56.5t-14 34t-30.5 17t-52 6.5
v38h304v-38q-32 -1 -51.5 -6t-30 -18t-14 -36t-3.5 -61v-613q0 -126 -53 -192t-155 -66q-69 0 -110.5 26.5t-41.5 70.5q0 26 13.5 39.5t37.5 13.5q19 0 30.5 -9.5t26.5 -37.5q17 -32 29.5 -43.5t32.5 -11.5q41 0 63 44t22 125v661z" />
    <glyph glyph-name="ij" unicode="&#x133;" horiz-adv-x="645" 
d="M228 159q0 -39 3.5 -62.5t13.5 -37t28 -18.5t48 -6v-35h-287v35q30 1 49 6.5t29.5 18t14 35t3.5 57.5v128q0 58 -1.5 95.5t-5.5 51.5q-5 23 -23 31.5t-68 8.5v35l196 38v-381zM113 743q0 26 18 44t44 18t44 -18t18 -44t-18 -44t-44 -18t-44 18t-18 44zM554 -2
q0 -125 -52.5 -191.5t-152.5 -66.5q-64 0 -104.5 25.5t-40.5 67.5q0 23 13.5 35t37.5 12q18 0 27.5 -8.5t24.5 -38.5q14 -30 26 -40t37 -10q48 0 67 33t19 116v348q0 58 -1.5 95.5t-5.5 51.5q-5 23 -23 31.5t-68 8.5v35l196 38v-542zM441 743q0 26 18 44t44 18t44 -18
t18 -44t-18 -44t-44 -18t-44 18t-18 44z" />
    <glyph glyph-name="Jcircumflex" unicode="&#x134;" horiz-adv-x="394" 
d="M145 618q0 35 -3.5 56.5t-14 34t-30.5 17t-52 6.5v38h304v-38q-32 -1 -51.5 -6t-30 -18t-14 -36t-3.5 -61v-613q0 -126 -53 -192t-155 -66q-69 0 -110.5 26.5t-41.5 70.5q0 26 13.5 39.5t37.5 13.5q19 0 30.5 -9.5t26.5 -37.5q17 -32 29.5 -43.5t32.5 -11.5q41 0 63 44
t22 125v661zM254 960l109 -109h-45l-119 54l-119 -54h-45l109 109h110z" />
    <glyph glyph-name="jcircumflex" unicode="&#x135;" horiz-adv-x="304" 
d="M213 -2q0 -125 -52.5 -191.5t-152.5 -66.5q-64 0 -104.5 25.5t-40.5 67.5q0 23 13.5 35t37.5 12q18 0 27.5 -8.5t24.5 -38.5q14 -30 26 -40t37 -10q48 0 67 33t19 116v348q0 58 -1.5 95.5t-5.5 51.5q-5 23 -23 31.5t-68 8.5v35l196 38v-542zM207 780l119 -129h-45
l-119 68l-119 -68h-45l119 129h90z" />
    <glyph glyph-name="Kcommaaccent" unicode="&#x136;" horiz-adv-x="779" 
d="M260 159q0 -38 4 -62t16 -37t33 -17.5t56 -4.5v-38h-324v38q35 0 56.5 4.5t33.5 17t16 35t4 57.5v466q0 38 -4.5 60.5t-16 34.5t-30.5 15.5t-49 3.5v38h304v-38q-30 0 -49 -4t-30.5 -17t-15.5 -36.5t-4 -63.5v-247l250 301q20 25 20 39q0 28 -57 28v38h241v-37
q-20 0 -35 -2.5t-29.5 -10.5t-30.5 -23t-37 -39l-188 -217l292 -351q25 -29 47 -40.5t59 -11.5v-38h-307v38q39 0 56 6.5t17 20.5q0 8 -8 23t-26 37l-195 240l-69 -80v-126zM356 -224q34 19 49.5 37.5t15.5 40.5q-10 -8 -26 -8q-20 0 -32 13t-12 34q0 23 16.5 38t42.5 15
q30 0 46.5 -20.5t16.5 -58.5q0 -32 -21.5 -60.5t-73.5 -56.5z" />
    <glyph glyph-name="kcommaaccent" unicode="&#x137;" horiz-adv-x="616" 
d="M348 35q33 0 45.5 3t12.5 8q-1 8 -16 29t-39 50l-106 128l-37 -35v-59q0 -39 3.5 -62.5t13 -37t28 -18.5t48.5 -6v-35h-284v35q30 1 48.5 6t29 18t14.5 35t4 58v419q0 76 -1.5 115t-10.5 53t-30 16.5t-56 2.5v34l193 38v-549l93 91q45 45 67 66.5t22 32.5t-21 17.5
t-60 6.5v35h260v-35q-19 0 -33 -2t-26.5 -8t-26.5 -16.5t-32 -26.5l-144 -128l198 -224q14 -17 25.5 -27.5t23 -16.5t25 -8.5t32.5 -2.5v-35h-263v35zM270 -224q34 19 49.5 37.5t15.5 40.5q-10 -8 -26 -8q-20 0 -32 13t-12 34q0 23 16.5 38t42.5 15q30 0 46.5 -20.5
t16.5 -58.5q0 -32 -21.5 -60.5t-73.5 -56.5z" />
    <glyph glyph-name="kgreenlandic" unicode="&#x138;" horiz-adv-x="633" 
d="M365 35q32 0 42 3t10 12t-10 24.5t-39 50.5l-106 128l-37 -35v-59q0 -39 3.5 -63.5t13.5 -38t28.5 -18t47.5 -4.5v-35h-284v35q30 0 48.5 5t29 17.5t14.5 35.5t4 59v208q0 40 -3 63.5t-13 35.5t-29.5 15.5t-52.5 3.5v34l193 38v-269l93 91q49 47 67.5 69.5t18.5 33.5
t-17 15.5t-61 4.5v35h260v-35q-18 0 -32 -2t-26.5 -8t-26.5 -16.5t-33 -26.5l-144 -128l198 -224q29 -33 51 -44t55 -11v-35h-263v35z" />
    <glyph glyph-name="Lacute" unicode="&#x139;" horiz-adv-x="727" 
d="M691 0h-646v38q35 1 56.5 6t33.5 17t16 34t4 57v466q0 35 -3.5 56.5t-14 34t-30.5 17t-52 6.5v38h304v-38q-32 -1 -51.5 -6t-30 -18t-14 -36t-3.5 -61v-431q0 -42 8.5 -68.5t29 -41t54.5 -20t86 -5.5q57 0 96 6.5t65.5 23t42 46t26.5 76.5h38zM106 850l130 77
q28 17 47.5 25t39.5 8q17 0 27.5 -9t10.5 -26q0 -16 -20.5 -27.5t-54.5 -19.5l-120 -28h-60z" />
    <glyph glyph-name="lacute" unicode="&#x13a;" horiz-adv-x="325" 
d="M209 156q0 -38 3 -61t12.5 -36t27 -18t46.5 -6v-35h-276v35q30 1 48 6.5t28.5 17.5t14 33.5t3.5 56.5v411q0 54 -1.5 90.5t-4.5 49.5q-5 23 -23.5 31t-66.5 8v34l189 37v-654zM63 850l130 77q28 17 47.5 25t39.5 8q17 0 27.5 -9t10.5 -26q0 -16 -20.5 -27.5t-54.5 -19.5
l-120 -28h-60z" />
    <glyph glyph-name="Lcommaaccent" unicode="&#x13b;" horiz-adv-x="727" 
d="M691 0h-646v38q35 1 56.5 6t33.5 17t16 34t4 57v466q0 35 -3.5 56.5t-14 34t-30.5 17t-52 6.5v38h304v-38q-32 -1 -51.5 -6t-30 -18t-14 -36t-3.5 -61v-431q0 -42 8.5 -68.5t29 -41t54.5 -20t86 -5.5q57 0 96 6.5t65.5 23t42 46t26.5 76.5h38zM325 -224q34 19 49.5 37.5
t15.5 40.5q-10 -8 -26 -8q-20 0 -32 13t-12 34q0 23 16.5 38t42.5 15q30 0 46.5 -20.5t16.5 -58.5q0 -32 -21.5 -60.5t-73.5 -56.5z" />
    <glyph glyph-name="lcommaaccent" unicode="&#x13c;" horiz-adv-x="325" 
d="M209 156q0 -38 3 -61t12.5 -36t27 -18t46.5 -6v-35h-276v35q30 1 48 6.5t28.5 17.5t14 33.5t3.5 56.5v431q0 54 -1.5 90.5t-4.5 49.5q-5 23 -23.5 31t-66.5 8v34l189 37v-674zM108 -224q34 19 49.5 37.5t15.5 40.5q-10 -8 -26 -8q-20 0 -32 13t-12 34q0 23 16.5 38
t42.5 15q30 0 46.5 -20.5t16.5 -58.5q0 -32 -21.5 -60.5t-73.5 -56.5z" />
    <glyph glyph-name="Lcaron" unicode="&#x13d;" horiz-adv-x="727" 
d="M691 0h-646v38q35 1 56.5 6t33.5 17t16 34t4 57v466q0 35 -3.5 56.5t-14 34t-30.5 17t-52 6.5v38h304v-38q-32 -1 -51.5 -6t-30 -18t-14 -36t-3.5 -61v-431q0 -42 8.5 -68.5t29 -41t54.5 -20t86 -5.5q57 0 96 6.5t65.5 23t42 46t26.5 76.5h38zM151 851l-109 109h45
l119 -54l119 54h45l-109 -109h-110z" />
    <glyph glyph-name="lcaron" unicode="&#x13e;" horiz-adv-x="325" 
d="M209 156q0 -38 3 -61t12.5 -36t27 -18t46.5 -6v-35h-276v35q30 1 48 6.5t28.5 17.5t14 33.5t3.5 56.5v431q0 54 -1.5 90.5t-4.5 49.5q-5 23 -23.5 31t-66.5 8v34l189 37v-674zM294 610q34 19 49.5 37.5t15.5 40.5q-10 -8 -26 -8q-20 0 -32 13t-12 34q0 23 16.5 38
t42.5 15q30 0 46.5 -20.5t16.5 -58.5q0 -32 -21.5 -60.5t-73.5 -56.5z" />
    <glyph glyph-name="Ldot" unicode="&#x13f;" horiz-adv-x="727" 
d="M691 0h-646v38q35 1 56.5 6t33.5 17t16 34t4 57v466q0 35 -3.5 56.5t-14 34t-30.5 17t-52 6.5v38h304v-38q-32 -1 -51.5 -6t-30 -18t-14 -36t-3.5 -61v-431q0 -42 8.5 -68.5t29 -41t54.5 -20t86 -5.5q57 0 96 6.5t65.5 23t42 46t26.5 76.5h38zM392 401q0 28 19 47t46 19
q28 0 47 -19t19 -47q0 -27 -19 -46t-47 -19q-27 0 -46 19t-19 46z" />
    <glyph glyph-name="ldot" unicode="&#x140;" horiz-adv-x="403" 
d="M209 156q0 -38 3 -61t12.5 -36t27 -18t46.5 -6v-35h-276v35q30 1 48 6.5t28.5 17.5t14 33.5t3.5 56.5v431q0 54 -1.5 90.5t-4.5 49.5q-5 23 -23.5 31t-66.5 8v34l189 37v-674zM296 416q0 28 19 47t46 19q28 0 47 -19t19 -47q0 -27 -19 -46t-47 -19q-27 0 -46 19t-19 46z
" />
    <glyph glyph-name="Lslash" unicode="&#x141;" horiz-adv-x="728" 
d="M692 0h-646v38q35 1 56.5 6t33.5 17t16 34t4 57v171l-90 -56v60l90 56v235q0 35 -3.5 56.5t-14 34t-30.5 17t-52 6.5v38h304v-38q-32 -1 -51.5 -6t-30 -18t-14 -36t-3.5 -61v-162l129 81v-60l-129 -81v-209q0 -42 8.5 -68.5t29 -41t54.5 -20t86 -5.5q57 0 96 6.5t65.5 23
t42 46t26.5 76.5h38z" />
    <glyph glyph-name="lslash" unicode="&#x142;" horiz-adv-x="327" 
d="M210 465l79 49v-65l-79 -49v-244q0 -38 3 -61t12.5 -36t27 -18t46.5 -6v-35h-276v35q30 1 48 6.5t28.5 17.5t14 33.5t3.5 56.5v193l-80 -50v65l80 50v173q0 54 -1.5 90.5t-4.5 49.5q-5 23 -23.5 31t-66.5 8v34l189 37v-365z" />
    <glyph glyph-name="Nacute" unicode="&#x143;" horiz-adv-x="902" 
d="M694 -10l-475 626h-4v-427q0 -50 3.5 -79t14 -45t30 -21t51.5 -6v-38h-269v38q35 1 56.5 6.5t33.5 20.5t16 42.5t4 74.5v406q0 42 -3.5 69.5t-14 43.5t-30.5 22.5t-52 8.5v38h198l437 -583h4v394q0 49 -3.5 78.5t-14 45.5t-30 21t-51.5 6v38h269v-38q-35 -1 -56.5 -6.5
t-33.5 -20.5t-16 -43t-4 -74v-598h-60zM364 850l130 77q28 17 47.5 25t39.5 8q17 0 27.5 -9t10.5 -26q0 -16 -20.5 -27.5t-54.5 -19.5l-120 -28h-60z" />
    <glyph glyph-name="nacute" unicode="&#x144;" horiz-adv-x="689" 
d="M216 157q0 -41 2 -64.5t10.5 -36t25 -16.5t45.5 -6v-34h-262v34q28 2 44.5 6t25.5 16t11.5 34t2.5 60v133q0 119 -6 145q-3 13 -7.5 21.5t-13.5 13t-23 6t-36 1.5v32l160 38l12 -99h4q38 47 89 73t111 26q46 0 84 -15t58 -41q17 -23 24 -59.5t7 -100.5v-167
q0 -41 2.5 -64.5t10.5 -36t24.5 -16.5t43.5 -6v-34h-259v34q28 1 44.5 5.5t25 16.5t11 34.5t2.5 59.5v132q0 57 -6 96t-19.5 63t-35.5 34.5t-53 10.5q-45 0 -82.5 -23.5t-58.5 -64.5q-5 -10 -8.5 -19t-5.5 -21t-3 -27.5t-1 -39.5v-134zM263 651l130 119q36 33 67 33
q17 0 27.5 -9t10.5 -26q0 -16 -13.5 -28.5t-37.5 -23.5l-137 -65h-47z" />
    <glyph glyph-name="Ncommaaccent" unicode="&#x145;" horiz-adv-x="902" 
d="M694 -10l-475 626h-4v-427q0 -50 3.5 -79t14 -45t30 -21t51.5 -6v-38h-269v38q35 1 56.5 6.5t33.5 20.5t16 42.5t4 74.5v406q0 42 -3.5 69.5t-14 43.5t-30.5 22.5t-52 8.5v38h198l437 -583h4v394q0 49 -3.5 78.5t-14 45.5t-30 21t-51.5 6v38h269v-38q-35 -1 -56.5 -6.5
t-33.5 -20.5t-16 -43t-4 -74v-598h-60zM403 -224q34 19 49.5 37.5t15.5 40.5q-10 -8 -26 -8q-20 0 -32 13t-12 34q0 23 16.5 38t42.5 15q30 0 46.5 -20.5t16.5 -58.5q0 -32 -21.5 -60.5t-73.5 -56.5z" />
    <glyph glyph-name="ncommaaccent" unicode="&#x146;" horiz-adv-x="689" 
d="M216 157q0 -41 2 -64.5t10.5 -36t25 -16.5t45.5 -6v-34h-262v34q28 2 44.5 6t25.5 16t11.5 34t2.5 60v133q0 119 -6 145q-3 13 -7.5 21.5t-13.5 13t-23 6t-36 1.5v32l160 38l12 -99h4q38 47 89 73t111 26q46 0 84 -15t58 -41q17 -23 24 -59.5t7 -100.5v-167
q0 -41 2.5 -64.5t10.5 -36t24.5 -16.5t43.5 -6v-34h-259v34q28 1 44.5 5.5t25 16.5t11 34.5t2.5 59.5v132q0 57 -6 96t-19.5 63t-35.5 34.5t-53 10.5q-45 0 -82.5 -23.5t-58.5 -64.5q-5 -10 -8.5 -19t-5.5 -21t-3 -27.5t-1 -39.5v-134zM297 -224q34 19 49.5 37.5t15.5 40.5
q-10 -8 -26 -8q-20 0 -32 13t-12 34q0 23 16.5 38t42.5 15q30 0 46.5 -20.5t16.5 -58.5q0 -32 -21.5 -60.5t-73.5 -56.5z" />
    <glyph glyph-name="Ncaron" unicode="&#x147;" horiz-adv-x="902" 
d="M694 -10l-475 626h-4v-427q0 -50 3.5 -79t14 -45t30 -21t51.5 -6v-38h-269v38q35 1 56.5 6.5t33.5 20.5t16 42.5t4 74.5v406q0 42 -3.5 69.5t-14 43.5t-30.5 22.5t-52 8.5v38h198l437 -583h4v394q0 49 -3.5 78.5t-14 45.5t-30 21t-51.5 6v38h269v-38q-35 -1 -56.5 -6.5
t-33.5 -20.5t-16 -43t-4 -74v-598h-60zM409 851l-109 109h45l119 -54l119 54h45l-109 -109h-110z" />
    <glyph glyph-name="ncaron" unicode="&#x148;" horiz-adv-x="689" 
d="M216 157q0 -41 2 -64.5t10.5 -36t25 -16.5t45.5 -6v-34h-262v34q28 2 44.5 6t25.5 16t11.5 34t2.5 60v133q0 119 -6 145q-3 13 -7.5 21.5t-13.5 13t-23 6t-36 1.5v32l160 38l12 -99h4q38 47 89 73t111 26q46 0 84 -15t58 -41q17 -23 24 -59.5t7 -100.5v-167
q0 -41 2.5 -64.5t10.5 -36t24.5 -16.5t43.5 -6v-34h-259v34q28 1 44.5 5.5t25 16.5t11 34.5t2.5 59.5v132q0 57 -6 96t-19.5 63t-35.5 34.5t-53 10.5q-45 0 -82.5 -23.5t-58.5 -64.5q-5 -10 -8.5 -19t-5.5 -21t-3 -27.5t-1 -39.5v-134zM308 651l-119 129h45l119 -68l119 68
h45l-119 -129h-90z" />
    <glyph glyph-name="napostrophe" unicode="&#x149;" horiz-adv-x="759" 
d="M286 157q0 -41 2 -64.5t10.5 -36t25 -16.5t45.5 -6v-34h-262v34q28 2 44.5 6t25.5 16t11.5 34t2.5 60v133q0 119 -6 145q-3 13 -7.5 21.5t-13.5 13t-23 6t-36 1.5v32l160 38l12 -99h4q38 47 89 73t111 26q46 0 84 -15t58 -41q17 -23 24 -59.5t7 -100.5v-167
q0 -41 2.5 -64.5t10.5 -36t24.5 -16.5t43.5 -6v-34h-259v34q28 1 44.5 5.5t25 16.5t11 34.5t2.5 59.5v132q0 57 -6 96t-19.5 63t-35.5 34.5t-53 10.5q-45 0 -82.5 -23.5t-58.5 -64.5q-5 -10 -8.5 -19t-5.5 -21t-3 -27.5t-1 -39.5v-134zM61 611q-4 21 -9.5 47t-11 50.5t-9 44
t-3.5 28.5q0 21 13.5 35t33.5 14t33.5 -14t13.5 -36q0 -9 -3.5 -28.5t-8.5 -43.5t-10.5 -50t-9.5 -47h-29z" />
    <glyph glyph-name="Eng" unicode="&#x14a;" horiz-adv-x="902" 
d="M694 -10l-475 626h-4v-427q0 -50 3.5 -79t14 -45t30 -21t51.5 -6v-38h-269v38q35 1 56.5 6.5t33.5 20.5t16 42.5t4 74.5v406q0 42 -3.5 69.5t-14 43.5t-30.5 22.5t-52 8.5v38h198l437 -583h4v394q0 49 -3.5 78.5t-14 45.5t-30 21t-51.5 6v38h269v-38q-35 -1 -56.5 -6.5
t-33.5 -20.5t-16 -43t-4 -74v-598q0 -122 -54 -186t-154 -64q-69 0 -110.5 26.5t-41.5 70.5q0 26 13.5 39.5t37.5 13.5q19 0 30.5 -9.5t26.5 -37.5q17 -32 29.5 -43.5t32.5 -11.5q62 0 96 44t34 125v33z" />
    <glyph glyph-name="eng" unicode="&#x14b;" horiz-adv-x="664" 
d="M216 157q0 -41 2 -64.5t10.5 -36t25 -16.5t45.5 -6v-34h-262v34q28 2 44.5 6t25.5 16t11.5 34t2.5 60v133q0 119 -6 145q-3 13 -7.5 21.5t-13.5 13t-23 6t-36 1.5v32l160 38l12 -99h4q38 47 89 73t111 26q46 0 84 -15t58 -41q17 -23 24 -59.5t7 -100.5v-326
q0 -125 -52.5 -191.5t-152.5 -66.5q-64 0 -104.5 25.5t-40.5 67.5q0 23 13.5 35t37.5 12q18 0 27.5 -8.5t24.5 -38.5q14 -30 26 -40t37 -10q48 0 68.5 33t20.5 116v350q0 57 -6 96t-19.5 63t-35.5 34.5t-53 10.5q-45 0 -82.5 -23.5t-58.5 -64.5q-5 -10 -8.5 -19t-5.5 -21
t-3 -27.5t-1 -39.5v-134z" />
    <glyph glyph-name="Omacron" unicode="&#x14c;" horiz-adv-x="946" 
d="M473 780q88 0 164 -31t132 -85t88 -127t32 -158q0 -81 -32.5 -152t-88.5 -123.5t-132 -83t-163 -30.5t-163 30.5t-132 83t-88.5 123.5t-32.5 152q0 85 32 158t88 127t132 85t164 31zM473 45q66 0 118.5 23t90 66t57.5 104.5t20 137.5q0 80 -20 144.5t-57 110t-90 70
t-119 24.5t-119 -24.5t-90 -70t-57 -110t-20 -144.5q0 -76 20 -137.5t57 -104.5t90 -66t119 -23zM339 880v50h270v-50h-270z" />
    <glyph glyph-name="omacron" unicode="&#x14d;" horiz-adv-x="654" 
d="M325 540q57 0 108 -20.5t89.5 -56.5t61 -85.5t22.5 -108.5q0 -61 -22.5 -112t-61 -88t-89.5 -58t-108 -21q-56 0 -106.5 20.5t-88.5 57.5t-60 88.5t-22 112.5q0 59 22 109t60 86t88.5 56t106.5 20zM325 492q-37 0 -67.5 -16t-52 -45.5t-33 -71t-11.5 -91.5
q0 -52 11.5 -94t33 -71.5t51.5 -45.5t68 -16t69 16t53 46t34 72t12 93q0 50 -12 91t-34 70.5t-53 46t-69 16.5zM190 702v50h270v-50h-270z" />
    <glyph glyph-name="Obreve" unicode="&#x14e;" horiz-adv-x="946" 
d="M473 780q88 0 164 -31t132 -85t88 -127t32 -158q0 -81 -32.5 -152t-88.5 -123.5t-132 -83t-163 -30.5t-163 30.5t-132 83t-88.5 123.5t-32.5 152q0 85 32 158t88 127t132 85t164 31zM473 45q66 0 118.5 23t90 66t57.5 104.5t20 137.5q0 80 -20 144.5t-57 110t-90 70
t-119 24.5t-119 -24.5t-90 -70t-57 -110t-20 -144.5q0 -76 20 -137.5t57 -104.5t90 -66t119 -23zM612 960q-4 -51 -42.5 -83t-95.5 -32q-29 0 -53.5 8.5t-43 24t-29.5 36.5t-12 46h36q8 -21 35.5 -33.5t65.5 -12.5t66 12.5t36 33.5h37z" />
    <glyph glyph-name="obreve" unicode="&#x14f;" horiz-adv-x="654" 
d="M325 540q57 0 108 -20.5t89.5 -56.5t61 -85.5t22.5 -108.5q0 -61 -22.5 -112t-61 -88t-89.5 -58t-108 -21q-56 0 -106.5 20.5t-88.5 57.5t-60 88.5t-22 112.5q0 59 22 109t60 86t88.5 56t106.5 20zM325 492q-37 0 -67.5 -16t-52 -45.5t-33 -71t-11.5 -91.5
q0 -52 11.5 -94t33 -71.5t51.5 -45.5t68 -16t69 16t53 46t34 72t12 93q0 50 -12 91t-34 70.5t-53 46t-69 16.5zM463 776q-2 -29 -13 -52.5t-29.5 -41t-43 -27t-52.5 -9.5q-29 0 -53.5 10t-43 27t-29.5 41t-12 52h36q9 -28 36.5 -44.5t64.5 -16.5q38 0 66 16.5t36 44.5h37z
" />
    <glyph glyph-name="Ohungarumlaut" unicode="&#x150;" horiz-adv-x="946" 
d="M473 780q88 0 164 -31t132 -85t88 -127t32 -158q0 -81 -32.5 -152t-88.5 -123.5t-132 -83t-163 -30.5t-163 30.5t-132 83t-88.5 123.5t-32.5 152q0 85 32 158t88 127t132 85t164 31zM473 45q66 0 118.5 23t90 66t57.5 104.5t20 137.5q0 80 -20 144.5t-57 110t-90 70
t-119 24.5t-119 -24.5t-90 -70t-57 -110t-20 -144.5q0 -76 20 -137.5t57 -104.5t90 -66t119 -23zM289 850l120 77q27 17 47 25t40 8q17 0 27.5 -9t10.5 -26q0 -16 -20.5 -27.5t-54.5 -19.5l-110 -28h-60zM476 850l120 77q27 17 47 25t40 8q17 0 27.5 -9t10.5 -26
q0 -16 -20.5 -27.5t-54.5 -19.5l-110 -28h-60z" />
    <glyph glyph-name="ohungarumlaut" unicode="&#x151;" horiz-adv-x="654" 
d="M325 540q57 0 108 -20.5t89.5 -56.5t61 -85.5t22.5 -108.5q0 -61 -22.5 -112t-61 -88t-89.5 -58t-108 -21q-56 0 -106.5 20.5t-88.5 57.5t-60 88.5t-22 112.5q0 59 22 109t60 86t88.5 56t106.5 20zM325 492q-37 0 -67.5 -16t-52 -45.5t-33 -71t-11.5 -91.5
q0 -52 11.5 -94t33 -71.5t51.5 -45.5t68 -16t69 16t53 46t34 72t12 93q0 50 -12 91t-34 70.5t-53 46t-69 16.5zM166 651l130 119q36 33 67 33q17 0 27.5 -9t10.5 -26q0 -16 -13.5 -28.5t-37.5 -23.5l-137 -65h-47zM364 651l130 119q36 33 67 33q17 0 27.5 -9t10.5 -26
q0 -16 -13.5 -28.5t-37.5 -23.5l-137 -65h-47z" />
    <glyph glyph-name="OE" unicode="&#x152;" horiz-adv-x="1152" 
d="M1059 770l9 -176h-35q-6 40 -19.5 65.5t-37 40.5t-59.5 21t-87 6h-127q-17 0 -17 -17v-287q48 0 84 5t59 17.5t34.5 35t11.5 57.5h35v-273h-35q0 36 -10.5 58.5t-33 35.5t-58.5 18.5t-87 5.5v-226q0 -33 8 -54.5t27.5 -35t51.5 -19t79 -5.5q53 0 90 7.5t62 25.5t40 47.5
t25 73.5h38l-15 -197h-621q-87 0 -162.5 29.5t-131 81t-87.5 120.5t-32 148q0 82 32 153.5t88 124.5t132 83t164 30h585zM474 730q-66 0 -119 -24.5t-90 -70.5t-57 -111.5t-20 -147.5q0 -77 20 -139t57 -105.5t90 -66.5t119 -23q35 0 56 4t32.5 16t15 33.5t3.5 56.5v466
q0 35 -4.5 57t-16.5 34t-33 16.5t-53 4.5z" />
    <glyph glyph-name="oe" unicode="&#x153;" horiz-adv-x="1017" 
d="M966 93q-85 -103 -211 -103q-69 0 -123 26.5t-89 74.5q-39 -48 -96 -74.5t-122 -26.5q-56 0 -106.5 20.5t-88.5 57.5t-60 88.5t-22 112.5q0 59 22 109t60 86t88.5 56t106.5 20q67 0 125.5 -28t97.5 -76q36 49 92 76.5t127 27.5q97 0 150 -52.5t53 -150.5q0 -14 -5.5 -17
t-25.5 -3h-329q-2 -8 -3 -19.5t-1 -25.5v-11q1 -50 14 -90.5t36 -69t55.5 -44t71.5 -15.5q42 0 78 18.5t74 60.5zM325 492q-37 0 -67.5 -16t-52 -45.5t-33 -71t-11.5 -91.5q0 -52 11.5 -94t33 -71.5t51.5 -45.5t68 -16q37 0 67.5 15.5t52.5 44t34.5 68.5t13.5 90v9
q0 50 -12 91t-34 70.5t-53 46t-69 16.5zM801 363q20 0 32 1t18 4t8 8.5t2 14.5q0 46 -29.5 73.5t-80.5 27.5q-108 0 -134 -129h184z" />
    <glyph glyph-name="Racute" unicode="&#x154;" horiz-adv-x="788" 
d="M658 577q0 -80 -48 -133t-153 -71l221 -266q27 -33 59.5 -47.5t77.5 -21.5v-38h-193l-245 314q-13 17 -24.5 27t-24 15.5t-29 7t-39.5 1.5v-208q0 -37 4.5 -60.5t19 -36.5t42 -17.5t72.5 -4.5v-38h-353v38q35 1 56.5 6t33.5 17t16 34t4 57v466q0 35 -3.5 56.5t-14 34
t-30.5 17t-52 6.5v38h314q138 0 213.5 -51t75.5 -142zM260 415h71q100 0 148.5 36.5t48.5 120.5q0 81 -38.5 116t-120.5 35h-92q-17 0 -17 -17v-291zM275 850l130 77q28 17 47.5 25t39.5 8q17 0 27.5 -9t10.5 -26q0 -16 -20.5 -27.5t-54.5 -19.5l-120 -28h-60z" />
    <glyph glyph-name="racute" unicode="&#x155;" horiz-adv-x="477" 
d="M222 159q0 -41 2 -65t10.5 -36.5t24.5 -16.5t45 -6v-35h-266v35q29 1 46 5.5t26 16.5t11.5 34.5t2.5 60.5v117q0 68 -1.5 106t-10 56t-26.5 21.5t-50 3.5v35l175 38l14 -124h4q13 30 32.5 55t42.5 42.5t48 27.5t51 10q32 0 50.5 -15.5t18.5 -41.5q0 -24 -15 -37.5
t-43 -13.5q-16 0 -27 4t-19.5 8.5t-16 8.5t-16.5 4q-27 0 -54 -34.5t-42 -87.5q-8 -29 -12.5 -65.5t-4.5 -76.5v-34zM180 651l130 119q36 33 67 33q17 0 27.5 -9t10.5 -26q0 -16 -13.5 -28.5t-37.5 -23.5l-137 -65h-47z" />
    <glyph glyph-name="Rcommaaccent" unicode="&#x156;" horiz-adv-x="788" 
d="M658 577q0 -80 -48 -133t-153 -71l221 -266q27 -33 59.5 -47.5t77.5 -21.5v-38h-193l-245 314q-13 17 -24.5 27t-24 15.5t-29 7t-39.5 1.5v-208q0 -37 4.5 -60.5t19 -36.5t42 -17.5t72.5 -4.5v-38h-353v38q35 1 56.5 6t33.5 17t16 34t4 57v466q0 35 -3.5 56.5t-14 34
t-30.5 17t-52 6.5v38h314q138 0 213.5 -51t75.5 -142zM260 415h71q100 0 148.5 36.5t48.5 120.5q0 81 -38.5 116t-120.5 35h-92q-17 0 -17 -17v-291zM356 -224q34 19 49.5 37.5t15.5 40.5q-10 -8 -26 -8q-20 0 -32 13t-12 34q0 23 16.5 38t42.5 15q30 0 46.5 -20.5
t16.5 -58.5q0 -32 -21.5 -60.5t-73.5 -56.5z" />
    <glyph glyph-name="rcommaaccent" unicode="&#x157;" horiz-adv-x="477" 
d="M222 159q0 -41 2 -65t10.5 -36.5t24.5 -16.5t45 -6v-35h-266v35q29 1 46 5.5t26 16.5t11.5 34.5t2.5 60.5v117q0 68 -1.5 106t-10 56t-26.5 21.5t-50 3.5v35l175 38l14 -124h4q13 30 32.5 55t42.5 42.5t48 27.5t51 10q32 0 50.5 -15.5t18.5 -41.5q0 -24 -15 -37.5
t-43 -13.5q-16 0 -27 4t-19.5 8.5t-16 8.5t-16.5 4q-27 0 -54 -34.5t-42 -87.5q-8 -29 -12.5 -65.5t-4.5 -76.5v-34zM119 -224q34 19 49.5 37.5t15.5 40.5q-10 -8 -26 -8q-20 0 -32 13t-12 34q0 23 16.5 38t42.5 15q30 0 46.5 -20.5t16.5 -58.5q0 -32 -21.5 -60.5
t-73.5 -56.5z" />
    <glyph glyph-name="Rcaron" unicode="&#x158;" horiz-adv-x="788" 
d="M658 577q0 -80 -48 -133t-153 -71l221 -266q27 -33 59.5 -47.5t77.5 -21.5v-38h-193l-245 314q-13 17 -24.5 27t-24 15.5t-29 7t-39.5 1.5v-208q0 -37 4.5 -60.5t19 -36.5t42 -17.5t72.5 -4.5v-38h-353v38q35 1 56.5 6t33.5 17t16 34t4 57v466q0 35 -3.5 56.5t-14 34
t-30.5 17t-52 6.5v38h314q138 0 213.5 -51t75.5 -142zM260 415h71q100 0 148.5 36.5t48.5 120.5q0 81 -38.5 116t-120.5 35h-92q-17 0 -17 -17v-291zM320 851l-109 109h45l119 -54l119 54h45l-109 -109h-110z" />
    <glyph glyph-name="rcaron" unicode="&#x159;" horiz-adv-x="477" 
d="M222 159q0 -41 2 -65t10.5 -36.5t24.5 -16.5t45 -6v-35h-266v35q29 1 46 5.5t26 16.5t11.5 34.5t2.5 60.5v117q0 68 -1.5 106t-10 56t-26.5 21.5t-50 3.5v35l175 38l14 -124h4q13 30 32.5 55t42.5 42.5t48 27.5t51 10q32 0 50.5 -15.5t18.5 -41.5q0 -24 -15 -37.5
t-43 -13.5q-16 0 -27 4t-19.5 8.5t-16 8.5t-16.5 4q-27 0 -54 -34.5t-42 -87.5q-8 -29 -12.5 -65.5t-4.5 -76.5v-34zM225 651l-119 129h45l119 -68l119 68h45l-119 -129h-90z" />
    <glyph glyph-name="Sacute" unicode="&#x15a;" horiz-adv-x="645" 
d="M58 235h37q7 -45 26.5 -81t49 -61t68 -38.5t83.5 -13.5q74 0 117 35t43 95q0 25 -8.5 46t-28.5 40.5t-53.5 38.5t-84.5 41q-62 27 -104 52t-67 52t-35.5 57.5t-10.5 69.5q0 46 16.5 85t46.5 67.5t71 44t90 15.5q44 0 82 -14t77 -45l26 45h23l11 -199h-37
q-24 82 -69.5 122t-109.5 40q-61 0 -97 -30t-36 -81q0 -24 8 -43.5t26 -37t47 -35t72 -36.5q74 -33 123 -61.5t78 -57t41 -60t12 -70.5q0 -50 -20 -92t-56 -72t-86 -46.5t-110 -16.5q-57 0 -102.5 16t-92.5 54l-28 -49h-23zM216 850l130 77q28 17 47.5 25t39.5 8
q17 0 27.5 -9t10.5 -26q0 -16 -20.5 -27.5t-54.5 -19.5l-120 -28h-60z" />
    <glyph glyph-name="sacute" unicode="&#x15b;" horiz-adv-x="454" 
d="M86 0h-22v172h25q39 -141 142 -141q40 0 63.5 19.5t23.5 59.5q0 15 -4.5 25.5t-17 22t-35 26.5t-59.5 38q-34 21 -59 39t-42 36.5t-25.5 39.5t-8.5 49q0 34 11.5 62.5t31.5 48.5t47 31.5t59 11.5q27 0 56 -8.5t51 -22.5l20 21h19v-144h-26q-22 61 -48 87t-64 26
q-34 0 -54.5 -18t-20.5 -50q0 -17 5.5 -29.5t17.5 -24.5t30.5 -24.5t44.5 -28.5q43 -27 73.5 -48t49.5 -41.5t28 -42.5t9 -50q0 -71 -46 -111.5t-121 -40.5q-78 0 -134 45zM148 651l130 119q36 33 67 33q17 0 27.5 -9t10.5 -26q0 -16 -13.5 -28.5t-37.5 -23.5l-137 -65h-47z
" />
    <glyph glyph-name="Scircumflex" unicode="&#x15c;" horiz-adv-x="645" 
d="M58 235h37q7 -45 26.5 -81t49 -61t68 -38.5t83.5 -13.5q74 0 117 35t43 95q0 25 -8.5 46t-28.5 40.5t-53.5 38.5t-84.5 41q-62 27 -104 52t-67 52t-35.5 57.5t-10.5 69.5q0 46 16.5 85t46.5 67.5t71 44t90 15.5q44 0 82 -14t77 -45l26 45h23l11 -199h-37
q-24 82 -69.5 122t-109.5 40q-61 0 -97 -30t-36 -81q0 -24 8 -43.5t26 -37t47 -35t72 -36.5q74 -33 123 -61.5t78 -57t41 -60t12 -70.5q0 -50 -20 -92t-56 -72t-86 -46.5t-110 -16.5q-57 0 -102.5 16t-92.5 54l-28 -49h-23zM371 960l109 -109h-45l-119 54l-119 -54h-45
l109 109h110z" />
    <glyph glyph-name="scircumflex" unicode="&#x15d;" horiz-adv-x="454" 
d="M86 0h-22v172h25q39 -141 142 -141q40 0 63.5 19.5t23.5 59.5q0 15 -4.5 25.5t-17 22t-35 26.5t-59.5 38q-34 21 -59 39t-42 36.5t-25.5 39.5t-8.5 49q0 34 11.5 62.5t31.5 48.5t47 31.5t59 11.5q27 0 56 -8.5t51 -22.5l20 21h19v-144h-26q-22 61 -48 87t-64 26
q-34 0 -54.5 -18t-20.5 -50q0 -17 5.5 -29.5t17.5 -24.5t30.5 -24.5t44.5 -28.5q43 -27 73.5 -48t49.5 -41.5t28 -42.5t9 -50q0 -71 -46 -111.5t-121 -40.5q-78 0 -134 45zM268 780l119 -129h-45l-119 68l-119 -68h-45l119 129h90z" />
    <glyph glyph-name="uni015E" unicode="&#x15e;" horiz-adv-x="645" 
d="M58 235h37q7 -45 26.5 -81t49 -61t68 -38.5t83.5 -13.5q74 0 117 35t43 95q0 25 -8.5 46t-28.5 40.5t-53.5 38.5t-84.5 41q-62 27 -104 52t-67 52t-35.5 57.5t-10.5 69.5q0 46 16.5 85t46.5 67.5t71 44t90 15.5q44 0 82 -14t77 -45l26 45h23l11 -199h-37
q-24 82 -69.5 122t-109.5 40q-61 0 -97 -30t-36 -81q0 -24 8 -43.5t26 -37t47 -35t72 -36.5q74 -33 123 -61.5t78 -57t41 -60t12 -70.5q0 -48 -18.5 -88.5t-52 -70t-80 -47t-102.5 -20.5l-23 -63q124 0 124 -86q0 -48 -34 -75t-92 -27q-51 0 -83 21t-32 55q0 36 31 36
q11 0 17.5 -6.5t15.5 -25.5q9 -21 18.5 -29t26.5 -8q22 0 36 13.5t14 36.5q0 54 -79 54q-8 0 -17.5 -0.5t-17.5 -1.5l-3 5l44 102q-45 4 -83 20t-77 48l-28 -49h-23z" />
    <glyph glyph-name="uni015F" unicode="&#x15f;" horiz-adv-x="454" 
d="M86 0h-22v172h25q39 -141 142 -141q40 0 63.5 19.5t23.5 59.5q0 15 -4.5 25.5t-17 22t-35 26.5t-59.5 38q-34 21 -59 39t-42 36.5t-25.5 39.5t-8.5 49q0 34 11.5 62.5t31.5 48.5t47 31.5t59 11.5q27 0 56 -8.5t51 -22.5l20 21h19v-144h-26q-22 61 -48 87t-64 26
q-34 0 -54.5 -18t-20.5 -50q0 -17 5.5 -29.5t17.5 -24.5t30.5 -24.5t44.5 -28.5q43 -27 73.5 -48t49.5 -41.5t28 -42.5t9 -50q0 -67 -41.5 -106.5t-108.5 -44.5l-23 -63q124 0 124 -86q0 -48 -34 -75t-92 -27q-51 0 -83 21t-32 55q0 36 31 36q11 0 17.5 -6.5t15.5 -25.5
q9 -21 18.5 -29t26.5 -8q22 0 36 13.5t14 36.5q0 54 -79 54q-8 0 -17.5 -0.5t-17.5 -1.5l-3 5l44 103q-57 9 -97 42z" />
    <glyph glyph-name="Scaron" unicode="&#x160;" horiz-adv-x="645" 
d="M58 235h37q7 -45 26.5 -81t49 -61t68 -38.5t83.5 -13.5q74 0 117 35t43 95q0 25 -8.5 46t-28.5 40.5t-53.5 38.5t-84.5 41q-62 27 -104 52t-67 52t-35.5 57.5t-10.5 69.5q0 46 16.5 85t46.5 67.5t71 44t90 15.5q44 0 82 -14t77 -45l26 45h23l11 -199h-37
q-24 82 -69.5 122t-109.5 40q-61 0 -97 -30t-36 -81q0 -24 8 -43.5t26 -37t47 -35t72 -36.5q74 -33 123 -61.5t78 -57t41 -60t12 -70.5q0 -50 -20 -92t-56 -72t-86 -46.5t-110 -16.5q-57 0 -102.5 16t-92.5 54l-28 -49h-23zM261 851l-109 109h45l119 -54l119 54h45
l-109 -109h-110z" />
    <glyph glyph-name="scaron" unicode="&#x161;" horiz-adv-x="454" 
d="M86 0h-22v172h25q39 -141 142 -141q40 0 63.5 19.5t23.5 59.5q0 15 -4.5 25.5t-17 22t-35 26.5t-59.5 38q-34 21 -59 39t-42 36.5t-25.5 39.5t-8.5 49q0 34 11.5 62.5t31.5 48.5t47 31.5t59 11.5q27 0 56 -8.5t51 -22.5l20 21h19v-144h-26q-22 61 -48 87t-64 26
q-34 0 -54.5 -18t-20.5 -50q0 -17 5.5 -29.5t17.5 -24.5t30.5 -24.5t44.5 -28.5q43 -27 73.5 -48t49.5 -41.5t28 -42.5t9 -50q0 -71 -46 -111.5t-121 -40.5q-78 0 -134 45zM178 651l-119 129h45l119 -68l119 68h45l-119 -129h-90z" />
    <glyph glyph-name="uni0162" unicode="&#x162;" horiz-adv-x="803" 
d="M786 579h-41q-3 43 -14 72t-31.5 45.5t-51.5 23.5t-74 7q-37 0 -59.5 -1.5t-34.5 -5.5t-15.5 -9.5t-3.5 -14.5v-535q0 -32 4.5 -55t18 -37.5t39 -22t67.5 -8.5v-38h-167l-26 -72q124 0 124 -86q0 -48 -34 -75t-92 -27q-51 0 -83 21t-32 55q0 36 31 36q11 0 17.5 -6.5
t15.5 -25.5q9 -21 18.5 -29t26.5 -8q22 0 36 13.5t14 36.5q0 54 -79 54q-8 0 -17.5 -0.5t-17.5 -1.5l-3 5l48 110h-158v38q42 1 68 8.5t39.5 22t18 37.5t4.5 55v535q0 9 -3.5 14.5t-14 9.5t-29.5 5.5t-51 1.5q-39 0 -72.5 -3t-58 -17.5t-39.5 -44.5t-16 -83h-37v191h755z
" />
    <glyph glyph-name="uni0163" unicode="&#x163;" horiz-adv-x="378" 
d="M40 467v37q53 31 83 62t46 74h29v-126h134v-47h-134v-304q0 -35 3.5 -59t11.5 -38.5t21 -20.5t33 -6q25 0 42.5 10.5t34.5 35.5l25 -19q-14 -37 -48.5 -56.5t-85.5 -19.5h-9l-23 -62q124 0 124 -86q0 -48 -34 -75t-92 -27q-51 0 -83 21t-32 55q0 36 31 36q11 0 17.5 -6.5
t15.5 -25.5q9 -21 18.5 -29t26.5 -8q22 0 36 13.5t14 36.5q0 54 -79 54q-8 0 -17.5 -0.5t-17.5 -1.5l-3 5l47 109q-75 24 -75 113v355h-60z" />
    <glyph glyph-name="Tcaron" unicode="&#x164;" horiz-adv-x="803" 
d="M786 579h-41q-3 43 -14 72t-31.5 45.5t-51.5 23.5t-74 7q-37 0 -59.5 -1.5t-34.5 -5.5t-15.5 -9.5t-3.5 -14.5v-535q0 -32 4.5 -55t18 -37.5t39 -22t67.5 -8.5v-38h-378v38q42 1 68 8.5t39.5 22t18 37.5t4.5 55v535q0 9 -3.5 14.5t-14 9.5t-29.5 5.5t-51 1.5
q-39 0 -72.5 -3t-58 -17.5t-39.5 -44.5t-16 -83h-37v191h755zM347 851l-109 109h45l119 -54l119 54h45l-109 -109h-110z" />
    <glyph glyph-name="tcaron" unicode="&#x165;" horiz-adv-x="378" 
d="M40 467v37q53 31 83 62t46 74h29v-126h134v-47h-134v-304q0 -35 3.5 -59t11.5 -38.5t21 -20.5t33 -6q25 0 42.5 10.5t34.5 35.5l25 -19q-14 -37 -48.5 -56.5t-85.5 -19.5q-66 0 -100.5 31.5t-34.5 90.5v355h-60zM308 610q34 19 49.5 37.5t15.5 40.5q-10 -8 -26 -8
q-20 0 -32 13t-12 34q0 23 16.5 38t42.5 15q30 0 46.5 -20.5t16.5 -58.5q0 -32 -21.5 -60.5t-73.5 -56.5z" />
    <glyph glyph-name="Tbar" unicode="&#x166;" horiz-adv-x="805" 
d="M787 579h-41q-3 43 -14 72t-31.5 45.5t-51.5 23.5t-74 7q-37 0 -59.5 -1.5t-34.5 -5.5t-15.5 -9.5t-3.5 -14.5v-229h204v-50h-204v-256q0 -32 4.5 -55t18 -37.5t39 -22t67.5 -8.5v-38h-378v38q42 1 68 8.5t39.5 22t18 37.5t4.5 55v256h-204v50h204v229q0 9 -3.5 14.5
t-14 9.5t-29.5 5.5t-51 1.5q-39 0 -72.5 -3t-58 -17.5t-39.5 -44.5t-16 -83h-37v191h755z" />
    <glyph glyph-name="tbar" unicode="&#x167;" horiz-adv-x="381" 
d="M43 467v37q53 31 83 62t46 74h29v-126h134v-47h-134v-86h121v-53h-121v-165q0 -35 3.5 -59t11.5 -38.5t21 -20.5t33 -6q25 0 42.5 10.5t34.5 35.5l25 -19q-14 -37 -48.5 -56.5t-85.5 -19.5q-66 0 -100.5 31.5t-34.5 90.5v216h-60v53h60v86h-60z" />
    <glyph glyph-name="Utilde" unicode="&#x168;" horiz-adv-x="861" 
d="M722 310q0 -79 -15.5 -139t-50 -100t-89.5 -60.5t-133 -20.5q-74 0 -129 14.5t-92 48t-55 87.5t-18 133v264q0 74 -3.5 114t-20.5 59q-12 13 -32.5 17.5t-54.5 4.5v38h341v-38q-34 0 -55 -4t-33 -20q-14 -18 -18 -57.5t-4 -113.5v-272q0 -51 10.5 -90.5t34.5 -67
t62.5 -41.5t94.5 -14q100 0 150 55.5t50 163.5v241q0 89 -7 135t-26 65q-14 13 -35 16.5t-52 3.5v38h290v-38q-32 0 -52.5 -5t-32.5 -22q-15 -21 -20 -65.5t-5 -127.5v-202zM288 846q8 51 37.5 82.5t68.5 31.5q20 0 39.5 -7t39 -16t38.5 -16t38 -7t29 9.5t18 32.5h33
q-5 -51 -33.5 -84.5t-66.5 -33.5q-20 0 -40 7.5t-40.5 16.5t-41 16.5t-40.5 7.5q-19 0 -28.5 -8.5t-16.5 -31.5h-34z" />
    <glyph glyph-name="utilde" unicode="&#x169;" 
d="M463 370q0 41 -2 64.5t-10.5 36t-25 17t-45.5 7.5v35h181v-307q0 -57 1.5 -93t4.5 -54q2 -13 6.5 -20.5t13.5 -12t23.5 -6t37.5 -1.5v-35l-165 -12l-11 120h-4q-38 -62 -87.5 -90.5t-103.5 -28.5q-42 0 -81.5 16t-59.5 43q-17 22 -24.5 61t-7.5 101v159q0 41 -2 64.5
t-10.5 36t-25 17t-45.5 7.5v35h181v-273q0 -109 25.5 -158t81.5 -49q88 0 137 115q5 12 8 22t5 22t3 27t1 36v98zM135 660q8 51 37.5 82.5t68.5 31.5q20 0 39.5 -7t39 -16t38.5 -16t38 -7t29 9.5t18 32.5h33q-5 -51 -33.5 -84.5t-66.5 -33.5q-20 0 -40 7.5t-40.5 16.5
t-41 16.5t-40.5 7.5q-19 0 -28.5 -8.5t-16.5 -31.5h-34z" />
    <glyph glyph-name="Umacron" unicode="&#x16a;" horiz-adv-x="861" 
d="M722 310q0 -79 -15.5 -139t-50 -100t-89.5 -60.5t-133 -20.5q-74 0 -129 14.5t-92 48t-55 87.5t-18 133v264q0 74 -3.5 114t-20.5 59q-12 13 -32.5 17.5t-54.5 4.5v38h341v-38q-34 0 -55 -4t-33 -20q-14 -18 -18 -57.5t-4 -113.5v-272q0 -51 10.5 -90.5t34.5 -67
t62.5 -41.5t94.5 -14q100 0 150 55.5t50 163.5v241q0 89 -7 135t-26 65q-14 13 -35 16.5t-52 3.5v38h290v-38q-32 0 -52.5 -5t-32.5 -22q-15 -21 -20 -65.5t-5 -127.5v-202zM324 880v50h270v-50h-270z" />
    <glyph glyph-name="umacron" unicode="&#x16b;" 
d="M463 370q0 41 -2 64.5t-10.5 36t-25 17t-45.5 7.5v35h181v-307q0 -57 1.5 -93t4.5 -54q2 -13 6.5 -20.5t13.5 -12t23.5 -6t37.5 -1.5v-35l-165 -12l-11 120h-4q-38 -62 -87.5 -90.5t-103.5 -28.5q-42 0 -81.5 16t-59.5 43q-17 22 -24.5 61t-7.5 101v159q0 41 -2 64.5
t-10.5 36t-25 17t-45.5 7.5v35h181v-273q0 -109 25.5 -158t81.5 -49q88 0 137 115q5 12 8 22t5 22t3 27t1 36v98zM178 702v50h270v-50h-270z" />
    <glyph glyph-name="Ubreve" unicode="&#x16c;" horiz-adv-x="861" 
d="M722 310q0 -79 -15.5 -139t-50 -100t-89.5 -60.5t-133 -20.5q-74 0 -129 14.5t-92 48t-55 87.5t-18 133v264q0 74 -3.5 114t-20.5 59q-12 13 -32.5 17.5t-54.5 4.5v38h341v-38q-34 0 -55 -4t-33 -20q-14 -18 -18 -57.5t-4 -113.5v-272q0 -51 10.5 -90.5t34.5 -67
t62.5 -41.5t94.5 -14q100 0 150 55.5t50 163.5v241q0 89 -7 135t-26 65q-14 13 -35 16.5t-52 3.5v38h290v-38q-32 0 -52.5 -5t-32.5 -22q-15 -21 -20 -65.5t-5 -127.5v-202zM597 960q-4 -51 -42.5 -83t-95.5 -32q-29 0 -53.5 8.5t-43 24t-29.5 36.5t-12 46h36
q8 -21 35.5 -33.5t65.5 -12.5t66 12.5t36 33.5h37z" />
    <glyph glyph-name="ubreve" unicode="&#x16d;" 
d="M463 370q0 41 -2 64.5t-10.5 36t-25 17t-45.5 7.5v35h181v-307q0 -57 1.5 -93t4.5 -54q2 -13 6.5 -20.5t13.5 -12t23.5 -6t37.5 -1.5v-35l-165 -12l-11 120h-4q-38 -62 -87.5 -90.5t-103.5 -28.5q-42 0 -81.5 16t-59.5 43q-17 22 -24.5 61t-7.5 101v159q0 41 -2 64.5
t-10.5 36t-25 17t-45.5 7.5v35h181v-273q0 -109 25.5 -158t81.5 -49q88 0 137 115q5 12 8 22t5 22t3 27t1 36v98zM451 776q-2 -29 -13 -52.5t-29.5 -41t-43 -27t-52.5 -9.5q-29 0 -53.5 10t-43 27t-29.5 41t-12 52h36q9 -28 36.5 -44.5t64.5 -16.5q38 0 66 16.5t36 44.5h37z
" />
    <glyph glyph-name="Uring" unicode="&#x16e;" horiz-adv-x="861" 
d="M722 310q0 -79 -15.5 -139t-50 -100t-89.5 -60.5t-133 -20.5q-74 0 -129 14.5t-92 48t-55 87.5t-18 133v264q0 74 -3.5 114t-20.5 59q-12 13 -32.5 17.5t-54.5 4.5v38h341v-38q-34 0 -55 -4t-33 -20q-14 -18 -18 -57.5t-4 -113.5v-272q0 -51 10.5 -90.5t34.5 -67
t62.5 -41.5t94.5 -14q100 0 150 55.5t50 163.5v241q0 89 -7 135t-26 65q-14 13 -35 16.5t-52 3.5v38h290v-38q-32 0 -52.5 -5t-32.5 -22q-15 -21 -20 -65.5t-5 -127.5v-202zM394 895q0 28 18.5 46.5t46.5 18.5t46.5 -18.5t18.5 -46.5t-18.5 -46.5t-46.5 -18.5t-46.5 18.5
t-18.5 46.5zM425 895q0 -15 9.5 -24.5t24.5 -9.5q14 0 23.5 9.5t9.5 24.5q0 14 -9.5 23.5t-23.5 9.5q-15 0 -24.5 -9.5t-9.5 -23.5z" />
    <glyph glyph-name="uring" unicode="&#x16f;" 
d="M463 370q0 41 -2 64.5t-10.5 36t-25 17t-45.5 7.5v35h181v-307q0 -57 1.5 -93t4.5 -54q2 -13 6.5 -20.5t13.5 -12t23.5 -6t37.5 -1.5v-35l-165 -12l-11 120h-4q-38 -62 -87.5 -90.5t-103.5 -28.5q-42 0 -81.5 16t-59.5 43q-17 22 -24.5 61t-7.5 101v159q0 41 -2 64.5
t-10.5 36t-25 17t-45.5 7.5v35h181v-273q0 -109 25.5 -158t81.5 -49q88 0 137 115q5 12 8 22t5 22t3 27t1 36v98zM236 742q0 38 24.5 63t61.5 25q38 0 63 -25t25 -63q0 -37 -25 -61.5t-63 -24.5q-37 0 -61.5 24.5t-24.5 61.5zM275 742q0 -20 13.5 -33.5t33.5 -13.5
t32.5 13.5t12.5 33.5t-12.5 32.5t-32.5 12.5t-33.5 -12.5t-13.5 -32.5z" />
    <glyph glyph-name="Uhungarumlaut" unicode="&#x170;" horiz-adv-x="861" 
d="M722 310q0 -79 -15.5 -139t-50 -100t-89.5 -60.5t-133 -20.5q-74 0 -129 14.5t-92 48t-55 87.5t-18 133v264q0 74 -3.5 114t-20.5 59q-12 13 -32.5 17.5t-54.5 4.5v38h341v-38q-34 0 -55 -4t-33 -20q-14 -18 -18 -57.5t-4 -113.5v-272q0 -51 10.5 -90.5t34.5 -67
t62.5 -41.5t94.5 -14q100 0 150 55.5t50 163.5v241q0 89 -7 135t-26 65q-14 13 -35 16.5t-52 3.5v38h290v-38q-32 0 -52.5 -5t-32.5 -22q-15 -21 -20 -65.5t-5 -127.5v-202zM274 850l120 77q27 17 47 25t40 8q17 0 27.5 -9t10.5 -26q0 -16 -20.5 -27.5t-54.5 -19.5l-110 -28
h-60zM461 850l120 77q27 17 47 25t40 8q17 0 27.5 -9t10.5 -26q0 -16 -20.5 -27.5t-54.5 -19.5l-110 -28h-60z" />
    <glyph glyph-name="uhungarumlaut" unicode="&#x171;" 
d="M463 370q0 41 -2 64.5t-10.5 36t-25 17t-45.5 7.5v35h181v-307q0 -57 1.5 -93t4.5 -54q2 -13 6.5 -20.5t13.5 -12t23.5 -6t37.5 -1.5v-35l-165 -12l-11 120h-4q-38 -62 -87.5 -90.5t-103.5 -28.5q-42 0 -81.5 16t-59.5 43q-17 22 -24.5 61t-7.5 101v159q0 41 -2 64.5
t-10.5 36t-25 17t-45.5 7.5v35h181v-273q0 -109 25.5 -158t81.5 -49q88 0 137 115q5 12 8 22t5 22t3 27t1 36v98zM140 651l130 119q36 33 67 33q17 0 27.5 -9t10.5 -26q0 -16 -13.5 -28.5t-37.5 -23.5l-137 -65h-47zM338 651l130 119q36 33 67 33q17 0 27.5 -9t10.5 -26
q0 -16 -13.5 -28.5t-37.5 -23.5l-137 -65h-47z" />
    <glyph glyph-name="Uogonek" unicode="&#x172;" horiz-adv-x="861" 
d="M551 -152q-35 -46 -74 -64t-83 -18q-46 0 -71.5 22.5t-25.5 62.5t27 76t78 64q-66 3 -115 19t-82 50t-49 86t-16 127v264q0 74 -3.5 114t-20.5 59q-12 13 -32.5 17.5t-54.5 4.5v38h341v-38q-34 0 -55 -4t-33 -20q-14 -18 -18 -57.5t-4 -113.5v-272q0 -51 10.5 -90.5
t34.5 -67t62.5 -41.5t94.5 -14q100 0 150 55.5t50 163.5v241q0 89 -7 135t-26 65q-14 13 -35 16.5t-52 3.5v38h290v-38q-32 0 -52.5 -5t-32.5 -22q-15 -21 -20 -65.5t-5 -127.5v-202q0 -75 -14 -132t-44 -97t-78 -62.5t-116 -26.5q-42 -26 -68 -58.5t-26 -59.5
q0 -20 13.5 -34t37.5 -14q19 0 44 13t51 40z" />
    <glyph glyph-name="uogonek" unicode="&#x173;" 
d="M634 -152q-35 -46 -74 -64t-83 -18q-46 0 -71.5 22.5t-25.5 62.5q0 39 26.5 75t76.5 64l-11 119h-4q-38 -62 -87.5 -90.5t-103.5 -28.5q-42 0 -81.5 16t-59.5 43q-17 22 -24.5 61t-7.5 101v159q0 41 -2 64.5t-10.5 36t-25 17t-45.5 7.5v35h181v-273q0 -109 25.5 -158
t81.5 -49q88 0 137 115q5 12 8 22t5 22t3 27t1 36v98q0 41 -2 64.5t-10.5 36t-25 17t-45.5 7.5v35h181v-307q0 -57 1.5 -93t4.5 -54q2 -13 6.5 -20.5t13.5 -12t23.5 -6t37.5 -1.5v-35l-90 -6q-45 -26 -72 -59t-27 -62q0 -20 13.5 -34t37.5 -14q19 0 44 13t51 40z" />
    <glyph glyph-name="Wcircumflex" unicode="&#x174;" horiz-adv-x="1176" 
d="M834 151l156 434q14 39 20 62t6 40q0 26 -16.5 35.5t-58.5 9.5v38h243v-38q-46 0 -69.5 -19t-39.5 -62l-251 -661h-35l-192 569l-213 -569h-35l-208 574q-18 48 -32.5 80.5t-31 51.5t-37.5 27t-51 8v39h326v-39q-51 0 -71.5 -9t-20.5 -35q0 -13 4 -30t12 -40l152 -463
l123 346q14 39 27.5 72.5t21.5 60.5q-14 29 -25.5 48t-23 30t-24 15.5t-26.5 4.5v39h306v-39q-29 0 -47 -2t-27.5 -6.5t-13 -12.5t-3.5 -19q0 -15 5.5 -36.5t15.5 -54.5zM670 960l109 -109h-45l-119 54l-119 -54h-45l109 109h110z" />
    <glyph glyph-name="wcircumflex" unicode="&#x175;" horiz-adv-x="852" 
d="M278 -10h-37l-130 416q-9 28 -17 45t-19 27t-26 13.5t-37 3.5v35h265v-35q-39 0 -55 -9t-16 -31q0 -10 3 -23.5t8 -33.5l68 -239h4l147 371h31l133 -371h4l60 162q12 33 20 55.5t12.5 38t6.5 25.5t2 19q0 22 -13 29t-54 7v35h200v-35q-15 0 -25.5 -4.5t-21 -17.5
t-21.5 -37t-27 -63l-155 -383h-37l-122 369h-4zM496 780l119 -129h-45l-119 68l-119 -68h-45l119 129h90z" />
    <glyph glyph-name="Ycircumflex" unicode="&#x176;" horiz-adv-x="733" 
d="M114 646q-15 26 -28 42.5t-26.5 26.5t-28.5 13.5t-36 3.5v38h315v-38q-50 0 -70.5 -7.5t-20.5 -26.5q0 -21 23 -60l155 -265h4l113 190q32 54 45.5 85t13.5 50t-14.5 26.5t-50.5 7.5v38h229v-38q-21 0 -37.5 -6t-34.5 -24t-39.5 -50t-52.5 -84l-154 -260v-119
q0 -49 3.5 -78.5t15 -45.5t33 -21.5t57.5 -5.5v-38h-324v38q36 0 57.5 5.5t33 21t15.5 43.5t4 74v122zM463 960l109 -109h-45l-119 54l-119 -54h-45l109 109h110z" />
    <glyph glyph-name="ycircumflex" unicode="&#x177;" horiz-adv-x="639" 
d="M281 -157q-46 -103 -143 -103q-63 0 -63 47q0 25 17.5 36.5t64.5 19.5q21 3 36 8.5t27 14t21.5 21.5t18.5 32l35 70l-192 417q-13 28 -22.5 44.5t-20 26t-23.5 13t-33 5.5v35h265v-35q-67 0 -67 -33q0 -13 8 -41t20 -57l110 -266h5l91 225q13 33 21.5 54t13 34.5t6 22.5
t1.5 17q0 26 -14.5 35t-55.5 9v35h220v-35q-19 0 -32 -5t-26.5 -22.5t-30 -50.5t-40.5 -89zM394 780l119 -129h-45l-119 68l-119 -68h-45l119 129h90z" />
    <glyph glyph-name="Ydieresis" unicode="&#x178;" horiz-adv-x="733" 
d="M114 646q-15 26 -28 42.5t-26.5 26.5t-28.5 13.5t-36 3.5v38h315v-38q-50 0 -70.5 -7.5t-20.5 -26.5q0 -21 23 -60l155 -265h4l113 190q32 54 45.5 85t13.5 50t-14.5 26.5t-50.5 7.5v38h229v-38q-21 0 -37.5 -6t-34.5 -24t-39.5 -50t-52.5 -84l-154 -260v-119
q0 -49 3.5 -78.5t15 -45.5t33 -21.5t57.5 -5.5v-38h-324v38q36 0 57.5 5.5t33 21t15.5 43.5t4 74v122zM267 910q0 21 14.5 35.5t35.5 14.5q22 0 36.5 -14.5t14.5 -35.5q0 -22 -14.5 -36.5t-36.5 -14.5q-21 0 -35.5 14.5t-14.5 36.5zM449 910q0 21 14.5 35.5t36.5 14.5
q21 0 35.5 -14.5t14.5 -35.5q0 -22 -14.5 -36.5t-35.5 -14.5q-22 0 -36.5 14.5t-14.5 36.5z" />
    <glyph glyph-name="Zacute" unicode="&#x179;" horiz-adv-x="770" 
d="M710 0h-694v4l526 724h-274q-71 0 -106 -32t-49 -110h-37l15 184h609v-4l-521 -720h310q51 0 84 7.5t53.5 28.5t32 57.5t20.5 95.5h43zM437 850l-120 28q-34 8 -54.5 19.5t-20.5 27.5q0 17 10.5 26t27.5 9q20 0 39.5 -8t47.5 -25l130 -77h-60z" />
    <glyph glyph-name="zacute" unicode="&#x17a;" horiz-adv-x="557" 
d="M498 0h-480v4l346 484h-111q-43 0 -70.5 -3.5t-45 -14t-26.5 -29t-14 -49.5h-32l16 138h430v-4l-341 -480h117q51 0 84.5 4t55 16t34 33t21.5 56h33zM197 651l130 119q36 33 67 33q17 0 27.5 -9t10.5 -26q0 -16 -13.5 -28.5t-37.5 -23.5l-137 -65h-47z" />
    <glyph glyph-name="Zdotaccent" unicode="&#x17b;" horiz-adv-x="770" 
d="M710 0h-694v4l526 724h-274q-71 0 -106 -32t-49 -110h-37l15 184h609v-4l-521 -720h310q51 0 84 7.5t53.5 28.5t32 57.5t20.5 95.5h43zM339 904q0 23 15.5 39t36.5 16q23 0 39 -16t16 -39q0 -21 -16 -36.5t-39 -15.5q-21 0 -36.5 15.5t-15.5 36.5z" />
    <glyph glyph-name="zdotaccent" unicode="&#x17c;" horiz-adv-x="557" 
d="M498 0h-480v4l346 484h-111q-43 0 -70.5 -3.5t-45 -14t-26.5 -29t-14 -49.5h-32l16 138h430v-4l-341 -480h117q51 0 84.5 4t55 16t34 33t21.5 56h33zM225 743q0 26 18 44t44 18t44 -18t18 -44t-18 -44t-44 -18t-44 18t-18 44z" />
    <glyph glyph-name="Zcaron" unicode="&#x17d;" horiz-adv-x="770" 
d="M710 0h-694v4l526 724h-274q-71 0 -106 -32t-49 -110h-37l15 184h609v-4l-521 -720h310q51 0 84 7.5t53.5 28.5t32 57.5t20.5 95.5h43zM336 851l-109 109h45l119 -54l119 54h45l-109 -109h-110z" />
    <glyph glyph-name="zcaron" unicode="&#x17e;" horiz-adv-x="557" 
d="M498 0h-480v4l346 484h-111q-43 0 -70.5 -3.5t-45 -14t-26.5 -29t-14 -49.5h-32l16 138h430v-4l-341 -480h117q51 0 84.5 4t55 16t34 33t21.5 56h33zM242 651l-119 129h45l119 -68l119 68h45l-119 -129h-90z" />
    <glyph glyph-name="Schwa" unicode="&#x18f;" horiz-adv-x="803" 
d="M59 637q63 76 139.5 110t168.5 34q84 0 153.5 -28t119 -79t77 -122.5t27.5 -157.5q0 -89 -29 -163t-81.5 -127.5t-124.5 -83.5t-159 -30q-139 0 -215.5 75.5t-76.5 216.5q0 20 8 24.5t37 4.5h507q3 12 4 28.5t1 35.5q0 79 -20.5 143t-58 110t-90.5 71t-119 25
q-35 0 -64 -6t-56 -19.5t-53.5 -36.5t-54.5 -56zM286 245q-29 0 -46 -1.5t-26 -6t-11.5 -12.5t-2.5 -21q0 -71 46 -113.5t127 -42.5q91 0 148.5 49t78.5 148h-314z" />
    <glyph glyph-name="florin" unicode="&#x192;" horiz-adv-x="667" 
d="M65 -211q21 0 37.5 16t31 51.5t27 91t24.5 134.5l50 337h-105l14 48h100l11 58q23 121 90 188t166 67q57 0 95 -20t38 -50q0 -19 -13 -32t-31 -13q-12 0 -25.5 7.5t-35.5 25.5q-24 20 -38 27t-30 7q-85 0 -121 -209l-10 -56h124l-13 -48h-116l-31 -193q-10 -61 -19 -109
t-19 -86.5t-20.5 -70t-23.5 -59.5q-73 -161 -195 -161q-52 0 -86 24.5t-34 62.5q0 23 12.5 36t34.5 13q34 0 53 -34q18 -32 29.5 -42.5t28.5 -10.5z" />
    <glyph glyph-name="uni01C4" unicode="&#x1c4;" horiz-adv-x="1654" 
d="M38 0v38q38 1 61.5 5.5t36.5 17t17.5 34t4.5 57.5v466q0 35 -3.5 56.5t-14 34t-30.5 17t-52 6.5v38h351q90 0 166.5 -30t132 -83t86.5 -126t31 -159q0 -82 -29 -150.5t-81.5 -117.5t-125.5 -76.5t-160 -27.5h-391zM280 721q-17 0 -17 -17v-541q0 -114 149 -114
q137 0 210 81.5t73 239.5q0 83 -20 148t-57.5 110t-90.5 69t-120 24h-127zM1594 0h-694v4l526 724h-274q-71 0 -106 -32t-49 -110h-37l15 184h609v-4l-521 -720h310q51 0 84 7.5t53.5 28.5t32 57.5t20.5 95.5h43zM1220 851l-109 109h45l119 -54l119 54h45l-109 -109h-110z
" />
    <glyph glyph-name="uni01C5" unicode="&#x1c5;" horiz-adv-x="1441" 
d="M38 0v38q38 1 61.5 5.5t36.5 17t17.5 34t4.5 57.5v466q0 35 -3.5 56.5t-14 34t-30.5 17t-52 6.5v38h351q90 0 166.5 -30t132 -83t86.5 -126t31 -159q0 -82 -29 -150.5t-81.5 -117.5t-125.5 -76.5t-160 -27.5h-391zM280 721q-17 0 -17 -17v-541q0 -114 149 -114
q137 0 210 81.5t73 239.5q0 83 -20 148t-57.5 110t-90.5 69t-120 24h-127zM1382 0h-480v4l346 484h-111q-43 0 -70.5 -3.5t-45 -14t-26.5 -29t-14 -49.5h-32l16 138h430v-4l-341 -480h117q51 0 84.5 4t55 16t34 33t21.5 56h33zM1126 651l-119 129h45l119 -68l119 68h45
l-119 -129h-90z" />
    <glyph glyph-name="uni01C6" unicode="&#x1c6;" horiz-adv-x="1232" 
d="M484 84h-4q-36 -51 -76.5 -72.5t-95.5 -21.5q-57 0 -104.5 20.5t-82 57t-54 87.5t-19.5 111q0 59 19.5 109.5t54 87t82.5 57t104 20.5q48 0 85.5 -16t72.5 -51v102q0 57 -1.5 95t-4.5 52q-5 22 -28 31t-75 9v30l205 38v-577q0 -69 1 -113.5t6 -63.5q3 -12 7.5 -20
t13 -12.5t23 -6.5t37.5 -2v-34l-166 -11v94zM464 305q0 52 -5.5 79t-21.5 47q-23 30 -58.5 45.5t-70.5 15.5q-72 0 -109.5 -59.5t-37.5 -161.5q0 -53 9.5 -96t28 -73.5t46 -47t63.5 -16.5q18 0 36.5 4t36 12.5t32.5 20t25 26.5q14 22 20 53t6 85v66zM1173 0h-480v4l346 484
h-111q-43 0 -70.5 -3.5t-45 -14t-26.5 -29t-14 -49.5h-32l16 138h430v-4l-341 -480h117q51 0 84.5 4t55 16t34 33t21.5 56h33zM917 651l-119 129h45l119 -68l119 68h45l-119 -129h-90z" />
    <glyph glyph-name="uni01C7" unicode="&#x1c7;" horiz-adv-x="1112" 
d="M691 0h-646v38q35 1 56.5 6t33.5 17t16 34t4 57v466q0 35 -3.5 56.5t-14 34t-30.5 17t-52 6.5v38h304v-38q-32 -1 -51.5 -6t-30 -18t-14 -36t-3.5 -61v-431q0 -42 8.5 -68.5t29 -41t54.5 -20t86 -5.5q57 0 96 6.5t65.5 23t42 46t26.5 76.5h38zM863 618q0 35 -3.5 56.5
t-14 34t-30.5 17t-52 6.5v38h304v-38q-32 -1 -51.5 -6t-30 -18t-14 -36t-3.5 -61v-613q0 -126 -53 -192t-155 -66q-69 0 -110.5 26.5t-41.5 70.5q0 26 13.5 39.5t37.5 13.5q19 0 30.5 -9.5t26.5 -37.5q17 -32 29.5 -43.5t32.5 -11.5q41 0 63 44t22 125v661z" />
    <glyph glyph-name="uni01C8" unicode="&#x1c8;" horiz-adv-x="1026" 
d="M691 0h-646v38q35 1 56.5 6t33.5 17t16 34t4 57v466q0 35 -3.5 56.5t-14 34t-30.5 17t-52 6.5v38h304v-38q-32 -1 -51.5 -6t-30 -18t-14 -36t-3.5 -61v-431q0 -42 8.5 -68.5t29 -41t54.5 -20t86 -5.5q57 0 96 6.5t65.5 23t42 46t26.5 76.5h38zM935 -2
q0 -125 -52.5 -191.5t-152.5 -66.5q-64 0 -104.5 25.5t-40.5 67.5q0 23 13.5 35t37.5 12q18 0 27.5 -8.5t24.5 -38.5q14 -30 26 -40t37 -10q48 0 67 33t19 116v348q0 58 -1.5 95.5t-5.5 51.5q-5 23 -23 31.5t-68 8.5v35l196 38v-542zM822 743q0 26 18 44t44 18t44 -18
t18 -44t-18 -44t-44 -18t-44 18t-18 44z" />
    <glyph glyph-name="uni01C9" unicode="&#x1c9;" horiz-adv-x="629" 
d="M209 156q0 -38 3 -61t12.5 -36t27 -18t46.5 -6v-35h-276v35q30 1 48 6.5t28.5 17.5t14 33.5t3.5 56.5v431q0 54 -1.5 90.5t-4.5 49.5q-5 23 -23.5 31t-66.5 8v34l189 37v-674zM538 -2q0 -125 -52.5 -191.5t-152.5 -66.5q-64 0 -104.5 25.5t-40.5 67.5q0 23 13.5 35
t37.5 12q18 0 27.5 -8.5t24.5 -38.5q14 -30 26 -40t37 -10q48 0 67 33t19 116v348q0 58 -1.5 95.5t-5.5 51.5q-5 23 -23 31.5t-68 8.5v35l196 38v-542zM425 743q0 26 18 44t44 18t44 -18t18 -44t-18 -44t-44 -18t-44 18t-18 44z" />
    <glyph glyph-name="uni01CA" unicode="&#x1ca;" horiz-adv-x="1296" 
d="M694 -10l-475 626h-4v-427q0 -50 3.5 -79t14 -45t30 -21t51.5 -6v-38h-269v38q35 1 56.5 6.5t33.5 20.5t16 42.5t4 74.5v406q0 42 -3.5 69.5t-14 43.5t-30.5 22.5t-52 8.5v38h198l437 -583h4v394q0 49 -3.5 78.5t-14 45.5t-30 21t-51.5 6v38h269v-38q-35 -1 -56.5 -6.5
t-33.5 -20.5t-16 -43t-4 -74v-598h-60zM1047 618q0 35 -3.5 56.5t-14 34t-30.5 17t-52 6.5v38h304v-38q-32 -1 -51.5 -6t-30 -18t-14 -36t-3.5 -61v-613q0 -126 -53 -192t-155 -66q-69 0 -110.5 26.5t-41.5 70.5q0 26 13.5 39.5t37.5 13.5q19 0 30.5 -9.5t26.5 -37.5
q17 -32 29.5 -43.5t32.5 -11.5q41 0 63 44t22 125v661z" />
    <glyph glyph-name="uni01CB" unicode="&#x1cb;" horiz-adv-x="1195" 
d="M694 -10l-475 626h-4v-427q0 -50 3.5 -79t14 -45t30 -21t51.5 -6v-38h-269v38q35 1 56.5 6.5t33.5 20.5t16 42.5t4 74.5v406q0 42 -3.5 69.5t-14 43.5t-30.5 22.5t-52 8.5v38h198l437 -583h4v394q0 49 -3.5 78.5t-14 45.5t-30 21t-51.5 6v38h269v-38q-35 -1 -56.5 -6.5
t-33.5 -20.5t-16 -43t-4 -74v-598h-60zM1104 -2q0 -125 -52.5 -191.5t-152.5 -66.5q-64 0 -104.5 25.5t-40.5 67.5q0 23 13.5 35t37.5 12q18 0 27.5 -8.5t24.5 -38.5q14 -30 26 -40t37 -10q48 0 67 33t19 116v348q0 58 -1.5 95.5t-5.5 51.5q-5 23 -23 31.5t-68 8.5v35
l196 38v-542zM991 743q0 26 18 44t44 18t44 -18t18 -44t-18 -44t-44 -18t-44 18t-18 44z" />
    <glyph glyph-name="uni01CC" unicode="&#x1cc;" horiz-adv-x="993" 
d="M216 157q0 -41 2 -64.5t10.5 -36t25 -16.5t45.5 -6v-34h-262v34q28 2 44.5 6t25.5 16t11.5 34t2.5 60v133q0 119 -6 145q-3 13 -7.5 21.5t-13.5 13t-23 6t-36 1.5v32l160 38l12 -99h4q38 47 89 73t111 26q46 0 84 -15t58 -41q17 -23 24 -59.5t7 -100.5v-167
q0 -41 2.5 -64.5t10.5 -36t24.5 -16.5t43.5 -6v-34h-259v34q28 1 44.5 5.5t25 16.5t11 34.5t2.5 59.5v132q0 57 -6 96t-19.5 63t-35.5 34.5t-53 10.5q-45 0 -82.5 -23.5t-58.5 -64.5q-5 -10 -8.5 -19t-5.5 -21t-3 -27.5t-1 -39.5v-134zM902 -2q0 -125 -52.5 -191.5
t-152.5 -66.5q-64 0 -104.5 25.5t-40.5 67.5q0 23 13.5 35t37.5 12q18 0 27.5 -8.5t24.5 -38.5q14 -30 26 -40t37 -10q48 0 67 33t19 116v348q0 58 -1.5 95.5t-5.5 51.5q-5 23 -23 31.5t-68 8.5v35l196 38v-542zM789 743q0 26 18 44t44 18t44 -18t18 -44t-18 -44t-44 -18
t-44 18t-18 44z" />
    <glyph glyph-name="Oogonek" unicode="&#x1ea;" horiz-adv-x="946" 
d="M578 -152q-35 -46 -74 -64t-83 -18q-46 0 -71.5 22.5t-25.5 62.5t28 76.5t80 64.5q-80 7 -148.5 39.5t-119 84.5t-79 119t-28.5 144q0 85 32 158t88 127t132 85t164 31t164 -31t132 -85t88 -127t32 -158q0 -79 -30.5 -148t-83.5 -121t-124.5 -83.5t-154.5 -35.5
q-42 -26 -67.5 -58t-25.5 -59q0 -20 13.5 -34t37.5 -14q19 0 44 13t51 40zM473 45q66 0 118.5 23t90 66t57.5 104.5t20 137.5q0 80 -20 144.5t-57 110t-90 70t-119 24.5t-119 -24.5t-90 -70t-57 -110t-20 -144.5q0 -76 20 -137.5t57 -104.5t90 -66t119 -23z" />
    <glyph glyph-name="oogonek" unicode="&#x1eb;" horiz-adv-x="653" 
d="M443 -152q-35 -46 -74 -64t-83 -18q-46 0 -71.5 22.5t-25.5 62.5t28 76.5t79 64.5q-51 5 -96.5 27.5t-79 58.5t-53 85t-19.5 106q0 59 22 109t60 86t88.5 56t106.5 20q57 0 108 -20.5t89.5 -56.5t61 -85.5t22.5 -108.5q0 -56 -19 -103.5t-51.5 -83.5t-76.5 -59t-95 -30
q-44 -26 -70 -58.5t-26 -60.5q0 -20 13.5 -34t37.5 -14q19 0 44 13t51 40zM325 492q-37 0 -67.5 -16t-52 -45.5t-33 -71t-11.5 -91.5q0 -52 11.5 -94t33 -71.5t51.5 -45.5t68 -16t69 16t53 46t34 72t12 93q0 50 -12 91t-34 70.5t-53 46t-69 16.5z" />
    <glyph glyph-name="uni01F1" unicode="&#x1f1;" horiz-adv-x="1642" 
d="M38 0v38q38 1 61.5 5.5t36.5 17t17.5 34t4.5 57.5v466q0 35 -3.5 56.5t-14 34t-30.5 17t-52 6.5v38h351q90 0 166.5 -30t132 -83t86.5 -126t31 -159q0 -82 -29 -150.5t-81.5 -117.5t-125.5 -76.5t-160 -27.5h-391zM280 721q-17 0 -17 -17v-541q0 -114 149 -114
q137 0 210 81.5t73 239.5q0 83 -20 148t-57.5 110t-90.5 69t-120 24h-127zM1582 0h-694v4l526 724h-274q-71 0 -106 -32t-49 -110h-37l15 184h609v-4l-521 -720h310q51 0 84 7.5t53.5 28.5t32 57.5t20.5 95.5h43z" />
    <glyph glyph-name="uni01F2" unicode="&#x1f2;" horiz-adv-x="1433" 
d="M38 0v38q38 1 61.5 5.5t36.5 17t17.5 34t4.5 57.5v466q0 35 -3.5 56.5t-14 34t-30.5 17t-52 6.5v38h351q90 0 166.5 -30t132 -83t86.5 -126t31 -159q0 -82 -29 -150.5t-81.5 -117.5t-125.5 -76.5t-160 -27.5h-391zM280 721q-17 0 -17 -17v-541q0 -114 149 -114
q137 0 210 81.5t73 239.5q0 83 -20 148t-57.5 110t-90.5 69t-120 24h-127zM1374 0h-480v4l346 484h-111q-43 0 -70.5 -3.5t-45 -14t-26.5 -29t-14 -49.5h-32l16 138h430v-4l-341 -480h117q51 0 84.5 4t55 16t34 33t21.5 56h33z" />
    <glyph glyph-name="uni01F3" unicode="&#x1f3;" horiz-adv-x="1232" 
d="M484 84h-4q-36 -51 -76.5 -72.5t-95.5 -21.5q-57 0 -104.5 20.5t-82 57t-54 87.5t-19.5 111q0 59 19.5 109.5t54 87t82.5 57t104 20.5q48 0 85.5 -16t72.5 -51v102q0 57 -1.5 95t-4.5 52q-5 22 -28 31t-75 9v30l205 38v-577q0 -69 1 -113.5t6 -63.5q3 -12 7.5 -20
t13 -12.5t23 -6.5t37.5 -2v-34l-166 -11v94zM464 305q0 52 -5.5 79t-21.5 47q-23 30 -58.5 45.5t-70.5 15.5q-72 0 -109.5 -59.5t-37.5 -161.5q0 -53 9.5 -96t28 -73.5t46 -47t63.5 -16.5q18 0 36.5 4t36 12.5t32.5 20t25 26.5q14 22 20 53t6 85v66zM1173 0h-480v4l346 484
h-111q-43 0 -70.5 -3.5t-45 -14t-26.5 -29t-14 -49.5h-32l16 138h430v-4l-341 -480h117q51 0 84.5 4t55 16t34 33t21.5 56h33z" />
    <glyph glyph-name="Aringacute" unicode="&#x1fa;" horiz-adv-x="775" 
d="M484 279h-261l-42 -106q-13 -32 -17.5 -50t-4.5 -34q0 -28 19 -39.5t60 -11.5v-38h-243v38q42 0 66.5 19.5t42.5 61.5l260 601h43l254 -578q25 -57 53 -80t72 -23v-39h-326v39q51 0 72 11.5t21 37.5q0 29 -23 83zM246 329h217l-104 265zM300 878q0 36 22.5 59t56.5 23
q25 0 45 -13q13 13 24 18t23 5q13 0 21 -7t8 -19q0 -14 -11.5 -26.5t-31.5 -23.5q2 -10 2 -16q0 -33 -22.5 -56t-57.5 -23q-29 0 -51 17l-32 -15h-54l60 56q-1 5 -1.5 10.5t-0.5 10.5zM337 878q0 -18 11.5 -29.5t30.5 -11.5t30.5 11.5t11.5 29.5q0 19 -11.5 30.5t-30.5 11.5
t-30.5 -11.5t-11.5 -30.5z" />
    <glyph glyph-name="aringacute" unicode="&#x1fb;" horiz-adv-x="554" 
d="M183 738q0 36 22.5 59t56.5 23q25 0 45 -13q13 13 24 18t23 5q13 0 21 -7t8 -19q0 -14 -11.5 -26.5t-31.5 -23.5q2 -10 2 -16q0 -33 -22.5 -56t-57.5 -23q-29 0 -51 17l-32 -15h-54l60 56q-1 5 -1.5 10.5t-0.5 10.5zM220 738q0 -18 11.5 -29.5t30.5 -11.5t30.5 11.5
t11.5 29.5q0 19 -11.5 30.5t-30.5 11.5t-30.5 -11.5t-11.5 -30.5zM349 296q-57 -22 -96.5 -43t-63.5 -42t-34.5 -42t-10.5 -43q0 -33 22 -54t58 -21q26 0 48.5 13t39.5 35.5t27 53t10 64.5v79zM349 339v41q0 122 -104 122q-17 0 -29 -3t-20 -10t-14.5 -20t-12.5 -32
q-11 -29 -21.5 -38.5t-30.5 -9.5q-50 0 -50 50q0 48 51 74.5t145 26.5q100 0 142 -35.5t42 -120.5v-224q0 -114 45 -114q14 0 27 3.5t22 18.5l14 -24q-12 -23 -44 -38.5t-67 -15.5q-44 0 -65.5 28t-21.5 79h-5q-26 -49 -72 -77.5t-102 -28.5q-63 0 -99 32t-36 86
q0 24 8.5 46t27.5 42t50 39.5t76 39.5z" />
    <glyph glyph-name="AEacute" unicode="&#x1fc;" horiz-adv-x="1051" 
d="M370 38q35 1 56.5 6t33.5 17t16 34t4 57v132h-231l-4 -9q-15 -29 -30.5 -57.5t-28 -54t-20.5 -47.5t-8 -38q0 -15 7 -22.5t17.5 -11t23.5 -4.5t25 -2v-38h-242v38q23 3 39 8t28.5 14t23 23.5t22.5 35.5q9 17 19.5 34.5t24.5 43.5t34.5 64t50.5 95t72 137t99 191
q3 7 5 12.5t2 10.5q0 14 -18.5 19.5t-64.5 5.5v38h636v-176h-35q-6 40 -18.5 65.5t-35.5 40.5t-58 21t-86 6h-127q-17 0 -17 -17v-287q48 0 82.5 5t57 17.5t34.5 35t15 57.5h35v-273h-35q-5 35 -16 58t-32.5 36t-55.5 18.5t-85 5.5v-226q0 -33 8 -54.5t27.5 -35t51.5 -19
t79 -5.5q53 0 90 7.5t62 25.5t40 47.5t25 73.5h38l-15 -197h-621v38zM480 329v392l-207 -392h207zM472 850l130 77q28 17 47.5 25t39.5 8q17 0 27.5 -9t10.5 -26q0 -16 -20.5 -27.5t-54.5 -19.5l-120 -28h-60z" />
    <glyph glyph-name="aeacute" unicode="&#x1fd;" horiz-adv-x="852" 
d="M802 93q-88 -103 -208 -103q-74 0 -129 34t-85 94q-28 -61 -79.5 -94t-118.5 -33q-65 0 -102 31.5t-37 86.5t39.5 95.5t122.5 71.5l144 53v51q0 63 -25.5 92.5t-80.5 29.5q-32 0 -46 -13.5t-28 -51.5q-11 -29 -21.5 -38.5t-29.5 -9.5q-51 0 -51 50q0 48 51.5 74.5
t145.5 26.5q69 0 108 -16.5t58 -52.5q33 33 77.5 51t98.5 18q94 0 147 -53.5t53 -147.5q0 -11 -6.5 -16.5t-24.5 -5.5h-309q-4 -12 -4 -44q0 -107 42.5 -169t117.5 -62q77 0 149 79zM349 286q-108 -40 -156.5 -77.5t-48.5 -82.5q0 -33 22.5 -54t57.5 -21q25 0 48 11.5
t40 31.5t27 46.5t10 56.5v89zM637 363q20 0 32 1t18 3.5t8 8t2 14.5q0 46 -29.5 74t-77.5 28t-76.5 -31.5t-40.5 -97.5h164zM341 651l130 119q36 33 67 33q17 0 27.5 -9t10.5 -26q0 -16 -13.5 -28.5t-37.5 -23.5l-137 -65h-47z" />
    <glyph glyph-name="Oslashacute" unicode="&#x1fe;" horiz-adv-x="943" 
d="M473 780q62 0 118 -15.5t104 -44.5l87 110h69l-111 -141q69 -55 109 -134.5t40 -175.5q0 -81 -32.5 -152t-88.5 -123.5t-132 -83t-163 -30.5q-66 0 -124.5 17t-109.5 49l-108 -137h-68l133 168q-65 54 -102 129t-37 163q0 85 32 158t88 127t132 85t164 31zM473 45
q66 0 118.5 23t90 66t57.5 104.5t20 137.5q0 78 -18 140t-53 107l-404 -510q74 -68 189 -68zM187 376q0 -137 61 -222l402 509q-71 62 -177 62q-66 0 -119 -24.5t-90 -70t-57 -110t-20 -144.5zM376 850l130 77q28 17 47.5 25t39.5 8q17 0 27.5 -9t10.5 -26
q0 -16 -20.5 -27.5t-54.5 -19.5l-120 -28h-60z" />
    <glyph glyph-name="oslashacute" unicode="&#x1ff;" horiz-adv-x="651" 
d="M324 540q43 0 82 -11.5t73 -33.5l77 97h69l-103 -130q38 -36 60.5 -85t22.5 -108q0 -61 -22.5 -112t-61 -88t-89.5 -58t-108 -21q-40 0 -76.5 10t-68.5 29l-71 -90h-68l96 122q-41 38 -65 90.5t-24 117.5q0 59 22 109t60 86t88.5 56t106.5 20zM324 492q-37 0 -67.5 -16
t-52 -45.5t-33 -71t-11.5 -91.5q0 -84 29 -140l247 313q-21 24 -49.5 37.5t-62.5 13.5zM492 268q0 70 -25 125l-246 -311q41 -41 103 -41q38 0 69 16t53 46t34 72t12 93zM273 651l130 119q36 33 67 33q17 0 27.5 -9t10.5 -26q0 -16 -13.5 -28.5t-37.5 -23.5l-137 -65h-47z
" />
    <glyph glyph-name="uni0218" unicode="&#x218;" horiz-adv-x="645" 
d="M58 235h37q7 -45 26.5 -81t49 -61t68 -38.5t83.5 -13.5q74 0 117 35t43 95q0 25 -8.5 46t-28.5 40.5t-53.5 38.5t-84.5 41q-62 27 -104 52t-67 52t-35.5 57.5t-10.5 69.5q0 46 16.5 85t46.5 67.5t71 44t90 15.5q44 0 82 -14t77 -45l26 45h23l11 -199h-37
q-24 82 -69.5 122t-109.5 40q-61 0 -97 -30t-36 -81q0 -24 8 -43.5t26 -37t47 -35t72 -36.5q74 -33 123 -61.5t78 -57t41 -60t12 -70.5q0 -50 -20 -92t-56 -72t-86 -46.5t-110 -16.5q-57 0 -102.5 16t-92.5 54l-28 -49h-23zM262 -224q34 19 49.5 37.5t15.5 40.5
q-10 -8 -26 -8q-20 0 -32 13t-12 34q0 23 16.5 38t42.5 15q30 0 46.5 -20.5t16.5 -58.5q0 -32 -21.5 -60.5t-73.5 -56.5z" />
    <glyph glyph-name="uni0219" unicode="&#x219;" horiz-adv-x="454" 
d="M86 0h-22v172h25q39 -141 142 -141q40 0 63.5 19.5t23.5 59.5q0 15 -4.5 25.5t-17 22t-35 26.5t-59.5 38q-34 21 -59 39t-42 36.5t-25.5 39.5t-8.5 49q0 34 11.5 62.5t31.5 48.5t47 31.5t59 11.5q27 0 56 -8.5t51 -22.5l20 21h19v-144h-26q-22 61 -48 87t-64 26
q-34 0 -54.5 -18t-20.5 -50q0 -17 5.5 -29.5t17.5 -24.5t30.5 -24.5t44.5 -28.5q43 -27 73.5 -48t49.5 -41.5t28 -42.5t9 -50q0 -71 -46 -111.5t-121 -40.5q-78 0 -134 45zM184 -223q34 19 49.5 37.5t15.5 40.5q-10 -8 -26 -8q-20 0 -32 13t-12 34q0 23 16.5 38t42.5 15
q30 0 46.5 -20.5t16.5 -58.5q0 -32 -21.5 -60.5t-73.5 -56.5z" />
    <glyph glyph-name="uni021A" unicode="&#x21a;" horiz-adv-x="803" 
d="M786 579h-41q-3 43 -14 72t-31.5 45.5t-51.5 23.5t-74 7q-37 0 -59.5 -1.5t-34.5 -5.5t-15.5 -9.5t-3.5 -14.5v-535q0 -32 4.5 -55t18 -37.5t39 -22t67.5 -8.5v-38h-378v38q42 1 68 8.5t39.5 22t18 37.5t4.5 55v535q0 9 -3.5 14.5t-14 9.5t-29.5 5.5t-51 1.5
q-39 0 -72.5 -3t-58 -17.5t-39.5 -44.5t-16 -83h-37v191h755zM346 -224q34 19 49.5 37.5t15.5 40.5q-10 -8 -26 -8q-20 0 -32 13t-12 34q0 23 16.5 38t42.5 15q30 0 46.5 -20.5t16.5 -58.5q0 -32 -21.5 -60.5t-73.5 -56.5z" />
    <glyph glyph-name="uni021B" unicode="&#x21b;" horiz-adv-x="378" 
d="M40 467v37q53 31 83 62t46 74h29v-126h134v-47h-134v-304q0 -35 3.5 -59t11.5 -38.5t21 -20.5t33 -6q25 0 42.5 10.5t34.5 35.5l25 -19q-14 -37 -48.5 -56.5t-85.5 -19.5q-66 0 -100.5 31.5t-34.5 90.5v355h-60zM179 -224q34 19 49.5 37.5t15.5 40.5q-10 -8 -26 -8
q-20 0 -32 13t-12 34q0 23 16.5 38t42.5 15q30 0 46.5 -20.5t16.5 -58.5q0 -32 -21.5 -60.5t-73.5 -56.5z" />
    <glyph glyph-name="dotlessj" unicode="&#x237;" horiz-adv-x="304" 
d="M213 -2q0 -125 -52.5 -191.5t-152.5 -66.5q-64 0 -104.5 25.5t-40.5 67.5q0 23 13.5 35t37.5 12q18 0 27.5 -8.5t24.5 -38.5q14 -30 26 -40t37 -10q48 0 67 33t19 116v348q0 58 -1.5 95.5t-5.5 51.5q-5 23 -23 31.5t-68 8.5v35l196 38v-542z" />
    <glyph glyph-name="schwa" unicode="&#x259;" horiz-adv-x="574" 
d="M52 437q44 53 95.5 78t115.5 25q58 0 106.5 -19.5t83 -55t53.5 -85t19 -109.5q0 -62 -20 -113.5t-56.5 -88.5t-87 -58t-110.5 -21q-97 0 -150 52.5t-53 150.5q0 14 5.5 17t25.5 3h329q2 8 3 19.5t1 25.5q0 52 -12.5 94.5t-36 72.5t-56 46.5t-72.5 16.5q-42 0 -78 -18.5
t-74 -60.5zM217 167q-20 0 -32 -1t-18 -4t-8 -8.5t-2 -14.5q0 -46 29.5 -73.5t80.5 -27.5q108 0 134 129h-184z" />
    <glyph glyph-name="apostrophe" unicode="&#x2bc;" horiz-adv-x="194" 
d="M83 611q-4 21 -9.5 47t-11 50.5t-9 44t-3.5 28.5q0 21 13.5 35t33.5 14t33.5 -14t13.5 -36q0 -9 -3.5 -28.5t-8.5 -43.5t-10.5 -50t-9.5 -47h-29z" />
    <glyph glyph-name="circumflex" unicode="&#x2c6;" horiz-adv-x="368" 
d="M229 780l119 -129h-45l-119 68l-119 -68h-45l119 129h90z" />
    <glyph glyph-name="caron" unicode="&#x2c7;" horiz-adv-x="368" 
d="M139 651l-119 129h45l119 -68l119 68h45l-119 -129h-90z" />
    <glyph glyph-name="breve" unicode="&#x2d8;" horiz-adv-x="316" 
d="M296 776q-2 -29 -13 -52.5t-29.5 -41t-43 -27t-52.5 -9.5q-29 0 -53.5 10t-43 27t-29.5 41t-12 52h36q9 -28 36.5 -44.5t64.5 -16.5q38 0 66 16.5t36 44.5h37z" />
    <glyph glyph-name="dotaccent" unicode="&#x2d9;" horiz-adv-x="164" 
d="M20 743q0 26 18 44t44 18t44 -18t18 -44t-18 -44t-44 -18t-44 18t-18 44z" />
    <glyph glyph-name="ring" unicode="&#x2da;" horiz-adv-x="214" 
d="M20 742q0 38 24.5 63t61.5 25q38 0 63 -25t25 -63q0 -37 -25 -61.5t-63 -24.5q-37 0 -61.5 24.5t-24.5 61.5zM59 742q0 -20 13.5 -33.5t33.5 -13.5t32.5 13.5t12.5 33.5t-12.5 32.5t-32.5 12.5t-33.5 -12.5t-13.5 -32.5z" />
    <glyph glyph-name="ogonek" unicode="&#x2db;" horiz-adv-x="265" 
d="M254 -152q-35 -46 -74 -64t-83 -18q-46 0 -71.5 22.5t-25.5 62.5q0 48 39 90t110 70h53v-4q-27 -13 -49.5 -29.5t-39 -34.5t-25.5 -35.5t-9 -33.5q0 -20 13.5 -34t37.5 -14q19 0 44 13t51 40z" />
    <glyph glyph-name="tilde" unicode="&#x2dc;" horiz-adv-x="381" 
d="M20 660q8 51 37.5 82.5t68.5 31.5q20 0 39.5 -7t39 -16t38.5 -16t38 -7t29 9.5t18 32.5h33q-5 -51 -33.5 -84.5t-66.5 -33.5q-20 0 -40 7.5t-40.5 16.5t-41 16.5t-40.5 7.5q-19 0 -28.5 -8.5t-16.5 -31.5h-34z" />
    <glyph glyph-name="hungarumlaut" unicode="&#x2dd;" horiz-adv-x="473" 
d="M20 651l130 119q36 33 67 33q17 0 27.5 -9t10.5 -26q0 -16 -13.5 -28.5t-37.5 -23.5l-137 -65h-47zM218 651l130 119q36 33 67 33q17 0 27.5 -9t10.5 -26q0 -16 -13.5 -28.5t-37.5 -23.5l-137 -65h-47z" />
    <glyph glyph-name="uni03BC" unicode="&#x3bc;" horiz-adv-x="721" 
d="M203 81q8 -39 15.5 -81t13 -79.5t9 -67t3.5 -43.5q0 -32 -15 -51t-41 -19q-25 0 -41.5 18t-16.5 44v568q0 40 -3 64.5t-12 38t-25 18t-43 4.5v35h181v-273q0 -112 25.5 -162.5t82.5 -50.5q44 0 76.5 29t59.5 92q5 12 8.5 22t5.5 22t2.5 27t0.5 36v98q0 40 -3 64.5t-12 38
t-25 18t-43 4.5v35h181v-307q0 -111 6 -147q2 -12 6.5 -20t13 -12.5t23.5 -6t38 -1.5v-35l-165 -12l-11 120h-4q-32 -58 -74 -88.5t-89 -30.5q-83 0 -124 92z" />
    <glyph glyph-name="Ddotbelow" unicode="&#x1e0c;" horiz-adv-x="884" 
d="M38 0v38q38 1 61.5 5.5t36.5 17t17.5 34t4.5 57.5v466q0 35 -3.5 56.5t-14 34t-30.5 17t-52 6.5v38h351q90 0 166.5 -30t132 -83t86.5 -126t31 -159q0 -82 -29 -150.5t-81.5 -117.5t-125.5 -76.5t-160 -27.5h-391zM280 721q-17 0 -17 -17v-541q0 -114 149 -114
q137 0 210 81.5t73 239.5q0 83 -20 148t-57.5 110t-90.5 69t-120 24h-127zM379 -168q0 26 18 44t44 18t44 -18t18 -44t-18 -44t-44 -18t-44 18t-18 44z" />
    <glyph glyph-name="ddotbelow" unicode="&#x1e0d;" horiz-adv-x="675" 
d="M484 84h-4q-36 -51 -76.5 -72.5t-95.5 -21.5q-57 0 -104.5 20.5t-82 57t-54 87.5t-19.5 111q0 59 19.5 109.5t54 87t82.5 57t104 20.5q48 0 85.5 -16t72.5 -51v102q0 57 -1.5 95t-4.5 52q-5 22 -28 31t-75 9v30l205 38v-577q0 -69 1 -113.5t6 -63.5q3 -12 7.5 -20
t13 -12.5t23 -6.5t37.5 -2v-34l-166 -11v94zM464 305q0 52 -5.5 79t-21.5 47q-23 30 -58.5 45.5t-70.5 15.5q-72 0 -109.5 -59.5t-37.5 -161.5q0 -53 9.5 -96t28 -73.5t46 -47t63.5 -16.5q18 0 36.5 4t36 12.5t32.5 20t25 26.5q14 22 20 53t6 85v66zM246 -168q0 26 18 44
t44 18t44 -18t18 -44t-18 -44t-44 -18t-44 18t-18 44z" />
    <glyph glyph-name="Hdotbelow" unicode="&#x1e24;" horiz-adv-x="925" 
d="M770 159q0 -38 4 -61.5t15.5 -36t33 -17.5t56.5 -6v-38h-324v38q35 1 56.5 6t33.5 17t16 34t4 57v217h-405v-210q0 -38 4 -61.5t15.5 -36t33 -17.5t56.5 -6v-38h-324v38q35 1 56.5 6t33.5 17t16 34t4 57v466q0 35 -3.5 56.5t-14 34t-30.5 17t-52 6.5v38h304v-38
q-32 -1 -51.5 -6t-30 -18t-14 -36t-3.5 -61v-192h405v199q0 35 -3.5 56.5t-14 34t-30.5 17t-52 6.5v38h304v-38q-32 -1 -51.5 -6t-30 -18t-14 -36t-3.5 -61v-452zM402 -168q0 26 18 44t44 18t44 -18t18 -44t-18 -44t-44 -18t-44 18t-18 44z" />
    <glyph glyph-name="hdotbelow" unicode="&#x1e25;" horiz-adv-x="688" 
d="M208 159q0 -41 2 -65t10.5 -36.5t24.5 -16.5t45 -6v-35h-266v35q29 2 46 6t26 16t11.5 34.5t2.5 60.5v419q0 59 -1.5 94t-5.5 53q-2 12 -6.5 19.5t-13.5 12t-24 6.5t-37 2v34l184 38v-381h4q15 20 37.5 36.5t48.5 28.5t54.5 19t55.5 7q46 0 84.5 -16t59.5 -43
q17 -23 25 -60.5t8 -101.5v-160q0 -41 2 -64.5t10.5 -36.5t24.5 -17t45 -6v-35h-265v35q28 1 45 5.5t25.5 16.5t11 34.5t2.5 60.5v126q0 112 -26 159.5t-87 47.5q-47 0 -85.5 -24t-60.5 -66q-5 -11 -8.5 -20.5t-5.5 -21.5t-2.5 -27.5t-0.5 -38.5v-128zM283 -168q0 26 18 44
t44 18t44 -18t18 -44t-18 -44t-44 -18t-44 18t-18 44z" />
    <glyph glyph-name="Ndotaccent" unicode="&#x1e44;" horiz-adv-x="902" 
d="M694 -10l-475 626h-4v-427q0 -50 3.5 -79t14 -45t30 -21t51.5 -6v-38h-269v38q35 1 56.5 6.5t33.5 20.5t16 42.5t4 74.5v406q0 42 -3.5 69.5t-14 43.5t-30.5 22.5t-52 8.5v38h198l437 -583h4v394q0 49 -3.5 78.5t-14 45.5t-30 21t-51.5 6v38h269v-38q-35 -1 -56.5 -6.5
t-33.5 -20.5t-16 -43t-4 -74v-598h-60zM412 904q0 23 15.5 39t36.5 16q23 0 39 -16t16 -39q0 -21 -16 -36.5t-39 -15.5q-21 0 -36.5 15.5t-15.5 36.5z" />
    <glyph glyph-name="ndotaccent" unicode="&#x1e45;" horiz-adv-x="689" 
d="M216 157q0 -41 2 -64.5t10.5 -36t25 -16.5t45.5 -6v-34h-262v34q28 2 44.5 6t25.5 16t11.5 34t2.5 60v133q0 119 -6 145q-3 13 -7.5 21.5t-13.5 13t-23 6t-36 1.5v32l160 38l12 -99h4q38 47 89 73t111 26q46 0 84 -15t58 -41q17 -23 24 -59.5t7 -100.5v-167
q0 -41 2.5 -64.5t10.5 -36t24.5 -16.5t43.5 -6v-34h-259v34q28 1 44.5 5.5t25 16.5t11 34.5t2.5 59.5v132q0 57 -6 96t-19.5 63t-35.5 34.5t-53 10.5q-45 0 -82.5 -23.5t-58.5 -64.5q-5 -10 -8.5 -19t-5.5 -21t-3 -27.5t-1 -39.5v-134zM291 743q0 26 18 44t44 18t44 -18
t18 -44t-18 -44t-44 -18t-44 18t-18 44z" />
    <glyph glyph-name="Rdotbelow" unicode="&#x1e5a;" horiz-adv-x="788" 
d="M658 577q0 -80 -48 -133t-153 -71l221 -266q27 -33 59.5 -47.5t77.5 -21.5v-38h-193l-245 314q-13 17 -24.5 27t-24 15.5t-29 7t-39.5 1.5v-208q0 -37 4.5 -60.5t19 -36.5t42 -17.5t72.5 -4.5v-38h-353v38q35 1 56.5 6t33.5 17t16 34t4 57v466q0 35 -3.5 56.5t-14 34
t-30.5 17t-52 6.5v38h314q138 0 213.5 -51t75.5 -142zM260 415h71q100 0 148.5 36.5t48.5 120.5q0 81 -38.5 116t-120.5 35h-92q-17 0 -17 -17v-291zM350 -168q0 26 18 44t44 18t44 -18t18 -44t-18 -44t-44 -18t-44 18t-18 44z" />
    <glyph glyph-name="rdotbelow" unicode="&#x1e5b;" horiz-adv-x="477" 
d="M222 159q0 -41 2 -65t10.5 -36.5t24.5 -16.5t45 -6v-35h-266v35q29 1 46 5.5t26 16.5t11.5 34.5t2.5 60.5v117q0 68 -1.5 106t-10 56t-26.5 21.5t-50 3.5v35l175 38l14 -124h4q13 30 32.5 55t42.5 42.5t48 27.5t51 10q32 0 50.5 -15.5t18.5 -41.5q0 -24 -15 -37.5
t-43 -13.5q-16 0 -27 4t-19.5 8.5t-16 8.5t-16.5 4q-27 0 -54 -34.5t-42 -87.5q-8 -29 -12.5 -65.5t-4.5 -76.5v-34zM113 -168q0 26 18 44t44 18t44 -18t18 -44t-18 -44t-44 -18t-44 18t-18 44z" />
    <glyph glyph-name="Sdotbelow" unicode="&#x1e62;" horiz-adv-x="645" 
d="M58 235h37q7 -45 26.5 -81t49 -61t68 -38.5t83.5 -13.5q74 0 117 35t43 95q0 25 -8.5 46t-28.5 40.5t-53.5 38.5t-84.5 41q-62 27 -104 52t-67 52t-35.5 57.5t-10.5 69.5q0 46 16.5 85t46.5 67.5t71 44t90 15.5q44 0 82 -14t77 -45l26 45h23l11 -199h-37
q-24 82 -69.5 122t-109.5 40q-61 0 -97 -30t-36 -81q0 -24 8 -43.5t26 -37t47 -35t72 -36.5q74 -33 123 -61.5t78 -57t41 -60t12 -70.5q0 -50 -20 -92t-56 -72t-86 -46.5t-110 -16.5q-57 0 -102.5 16t-92.5 54l-28 -49h-23zM256 -168q0 26 18 44t44 18t44 -18t18 -44
t-18 -44t-44 -18t-44 18t-18 44z" />
    <glyph glyph-name="sdotbelow" unicode="&#x1e63;" horiz-adv-x="454" 
d="M86 0h-22v172h25q39 -141 142 -141q40 0 63.5 19.5t23.5 59.5q0 15 -4.5 25.5t-17 22t-35 26.5t-59.5 38q-34 21 -59 39t-42 36.5t-25.5 39.5t-8.5 49q0 34 11.5 62.5t31.5 48.5t47 31.5t59 11.5q27 0 56 -8.5t51 -22.5l20 21h19v-144h-26q-22 61 -48 87t-64 26
q-34 0 -54.5 -18t-20.5 -50q0 -17 5.5 -29.5t17.5 -24.5t30.5 -24.5t44.5 -28.5q43 -27 73.5 -48t49.5 -41.5t28 -42.5t9 -50q0 -71 -46 -111.5t-121 -40.5q-78 0 -134 45zM178 -167q0 26 18 44t44 18t44 -18t18 -44t-18 -44t-44 -18t-44 18t-18 44z" />
    <glyph glyph-name="Tdotbelow" unicode="&#x1e6c;" horiz-adv-x="803" 
d="M786 579h-41q-3 43 -14 72t-31.5 45.5t-51.5 23.5t-74 7q-37 0 -59.5 -1.5t-34.5 -5.5t-15.5 -9.5t-3.5 -14.5v-535q0 -32 4.5 -55t18 -37.5t39 -22t67.5 -8.5v-38h-378v38q42 1 68 8.5t39.5 22t18 37.5t4.5 55v535q0 9 -3.5 14.5t-14 9.5t-29.5 5.5t-51 1.5
q-39 0 -72.5 -3t-58 -17.5t-39.5 -44.5t-16 -83h-37v191h755zM340 -168q0 26 18 44t44 18t44 -18t18 -44t-18 -44t-44 -18t-44 18t-18 44z" />
    <glyph glyph-name="tdotbelow" unicode="&#x1e6d;" horiz-adv-x="378" 
d="M40 467v37q53 31 83 62t46 74h29v-126h134v-47h-134v-304q0 -35 3.5 -59t11.5 -38.5t21 -20.5t33 -6q25 0 42.5 10.5t34.5 35.5l25 -19q-14 -37 -48.5 -56.5t-85.5 -19.5q-66 0 -100.5 31.5t-34.5 90.5v355h-60zM173 -168q0 26 18 44t44 18t44 -18t18 -44t-18 -44
t-44 -18t-44 18t-18 44z" />
    <glyph glyph-name="Wgrave" unicode="&#x1e80;" horiz-adv-x="1176" 
d="M834 151l156 434q14 39 20 62t6 40q0 26 -16.5 35.5t-58.5 9.5v38h243v-38q-46 0 -69.5 -19t-39.5 -62l-251 -661h-35l-192 569l-213 -569h-35l-208 574q-18 48 -32.5 80.5t-31 51.5t-37.5 27t-51 8v39h326v-39q-51 0 -71.5 -9t-20.5 -35q0 -13 4 -30t12 -40l152 -463
l123 346q14 39 27.5 72.5t21.5 60.5q-14 29 -25.5 48t-23 30t-24 15.5t-26.5 4.5v39h306v-39q-29 0 -47 -2t-27.5 -6.5t-13 -12.5t-3.5 -19q0 -15 5.5 -36.5t15.5 -54.5zM661 850l-120 28q-34 8 -54.5 19.5t-20.5 27.5q0 17 10.5 26t27.5 9q20 0 39.5 -8t47.5 -25l130 -77
h-60z" />
    <glyph glyph-name="wgrave" unicode="&#x1e81;" horiz-adv-x="852" 
d="M278 -10h-37l-130 416q-9 28 -17 45t-19 27t-26 13.5t-37 3.5v35h265v-35q-39 0 -55 -9t-16 -31q0 -10 3 -23.5t8 -33.5l68 -239h4l147 371h31l133 -371h4l60 162q12 33 20 55.5t12.5 38t6.5 25.5t2 19q0 22 -13 29t-54 7v35h200v-35q-15 0 -25.5 -4.5t-21 -17.5
t-21.5 -37t-27 -63l-155 -383h-37l-122 369h-4zM504 651l-137 65q-24 11 -37.5 23.5t-13.5 28.5q0 17 10.5 26t27.5 9q31 0 67 -33l130 -119h-47z" />
    <glyph glyph-name="Wacute" unicode="&#x1e82;" horiz-adv-x="1176" 
d="M834 151l156 434q14 39 20 62t6 40q0 26 -16.5 35.5t-58.5 9.5v38h243v-38q-46 0 -69.5 -19t-39.5 -62l-251 -661h-35l-192 569l-213 -569h-35l-208 574q-18 48 -32.5 80.5t-31 51.5t-37.5 27t-51 8v39h326v-39q-51 0 -71.5 -9t-20.5 -35q0 -13 4 -30t12 -40l152 -463
l123 346q14 39 27.5 72.5t21.5 60.5q-14 29 -25.5 48t-23 30t-24 15.5t-26.5 4.5v39h306v-39q-29 0 -47 -2t-27.5 -6.5t-13 -12.5t-3.5 -19q0 -15 5.5 -36.5t15.5 -54.5zM486 850l130 77q28 17 47.5 25t39.5 8q17 0 27.5 -9t10.5 -26q0 -16 -20.5 -27.5t-54.5 -19.5
l-120 -28h-60z" />
    <glyph glyph-name="wacute" unicode="&#x1e83;" horiz-adv-x="852" 
d="M278 -10h-37l-130 416q-9 28 -17 45t-19 27t-26 13.5t-37 3.5v35h265v-35q-39 0 -55 -9t-16 -31q0 -10 3 -23.5t8 -33.5l68 -239h4l147 371h31l133 -371h4l60 162q12 33 20 55.5t12.5 38t6.5 25.5t2 19q0 22 -13 29t-54 7v35h200v-35q-15 0 -25.5 -4.5t-21 -17.5
t-21.5 -37t-27 -63l-155 -383h-37l-122 369h-4zM361 651l130 119q36 33 67 33q17 0 27.5 -9t10.5 -26q0 -16 -13.5 -28.5t-37.5 -23.5l-137 -65h-47z" />
    <glyph glyph-name="Wdieresis" unicode="&#x1e84;" horiz-adv-x="1176" 
d="M834 151l156 434q14 39 20 62t6 40q0 26 -16.5 35.5t-58.5 9.5v38h243v-38q-46 0 -69.5 -19t-39.5 -62l-251 -661h-35l-192 569l-213 -569h-35l-208 574q-18 48 -32.5 80.5t-31 51.5t-37.5 27t-51 8v39h326v-39q-51 0 -71.5 -9t-20.5 -35q0 -13 4 -30t12 -40l152 -463
l123 346q14 39 27.5 72.5t21.5 60.5q-14 29 -25.5 48t-23 30t-24 15.5t-26.5 4.5v39h306v-39q-29 0 -47 -2t-27.5 -6.5t-13 -12.5t-3.5 -19q0 -15 5.5 -36.5t15.5 -54.5zM474 910q0 21 14.5 35.5t35.5 14.5q22 0 36.5 -14.5t14.5 -35.5q0 -22 -14.5 -36.5t-36.5 -14.5
q-21 0 -35.5 14.5t-14.5 36.5zM656 910q0 21 14.5 35.5t36.5 14.5q21 0 35.5 -14.5t14.5 -35.5q0 -22 -14.5 -36.5t-35.5 -14.5q-22 0 -36.5 14.5t-14.5 36.5z" />
    <glyph glyph-name="wdieresis" unicode="&#x1e85;" horiz-adv-x="852" 
d="M278 -10h-37l-130 416q-9 28 -17 45t-19 27t-26 13.5t-37 3.5v35h265v-35q-39 0 -55 -9t-16 -31q0 -10 3 -23.5t8 -33.5l68 -239h4l147 371h31l133 -371h4l60 162q12 33 20 55.5t12.5 38t6.5 25.5t2 19q0 22 -13 29t-54 7v35h200v-35q-15 0 -25.5 -4.5t-21 -17.5
t-21.5 -37t-27 -63l-155 -383h-37l-122 369h-4zM310 709q0 25 16.5 41.5t41.5 16.5t41.5 -16.5t16.5 -41.5t-16.5 -41.5t-41.5 -16.5t-41.5 16.5t-16.5 41.5zM477 709q0 25 16.5 41.5t41.5 16.5t41.5 -16.5t16.5 -41.5t-16.5 -41.5t-41.5 -16.5t-41.5 16.5t-16.5 41.5z" />
    <glyph glyph-name="Zdotbelow" unicode="&#x1e92;" horiz-adv-x="770" 
d="M710 0h-694v4l526 724h-274q-71 0 -106 -32t-49 -110h-37l15 184h609v-4l-521 -720h310q51 0 84 7.5t53.5 28.5t32 57.5t20.5 95.5h43zM325 -168q0 26 18 44t44 18t44 -18t18 -44t-18 -44t-44 -18t-44 18t-18 44z" />
    <glyph glyph-name="zdotbelow" unicode="&#x1e93;" horiz-adv-x="557" 
d="M498 0h-480v4l346 484h-111q-43 0 -70.5 -3.5t-45 -14t-26.5 -29t-14 -49.5h-32l16 138h430v-4l-341 -480h117q51 0 84.5 4t55 16t34 33t21.5 56h33zM213 -168q0 26 18 44t44 18t44 -18t18 -44t-18 -44t-44 -18t-44 18t-18 44z" />
    <glyph glyph-name="Edotbelow" unicode="&#x1eb8;" horiz-adv-x="726" 
d="M260 423q54 0 90.5 6.5t58 20.5t31 36t9.5 52h35v-273h-35q0 30 -8.5 52t-30 36.5t-58 22t-92.5 7.5v-226q0 -33 8 -54.5t27.5 -35t51.5 -19t79 -5.5q53 0 90 7.5t62 25.5t40 47.5t25 73.5h38l-15 -197h-621v38q35 1 56.5 6t33.5 17t16 34t4 57v466q0 35 -3.5 56.5
t-14 34t-30.5 17t-52 6.5v38h578l9 -176h-35q-6 40 -19.5 65.5t-37 40.5t-59.5 21t-87 6h-127q-17 0 -17 -17v-287zM317 -168q0 26 18 44t44 18t44 -18t18 -44t-18 -44t-44 -18t-44 18t-18 44z" />
    <glyph glyph-name="edotbelow" unicode="&#x1eb9;" horiz-adv-x="573" 
d="M522 93q-85 -103 -211 -103q-59 0 -107 19.5t-82.5 55t-53.5 85t-19 109.5q0 61 20 113t56.5 89t87 58t110.5 21q97 0 150 -52.5t53 -150.5q0 -14 -5.5 -17t-25.5 -3h-329q-2 -8 -3 -19.5t-1 -25.5q0 -52 12.5 -94.5t36 -72.5t56 -46.5t72.5 -16.5q42 0 78 18.5t74 60.5z
M357 363q20 0 32 1t18 4t8 8.5t2 14.5q0 46 -29.5 73.5t-80.5 27.5q-108 0 -134 -129h184zM250 -168q0 26 18 44t44 18t44 -18t18 -44t-18 -44t-44 -18t-44 18t-18 44z" />
    <glyph glyph-name="Etilde" unicode="&#x1ebc;" horiz-adv-x="726" 
d="M260 423q54 0 90.5 6.5t58 20.5t31 36t9.5 52h35v-273h-35q0 30 -8.5 52t-30 36.5t-58 22t-92.5 7.5v-226q0 -33 8 -54.5t27.5 -35t51.5 -19t79 -5.5q53 0 90 7.5t62 25.5t40 47.5t25 73.5h38l-15 -197h-621v38q35 1 56.5 6t33.5 17t16 34t4 57v466q0 35 -3.5 56.5
t-14 34t-30.5 17t-52 6.5v38h578l9 -176h-35q-6 40 -19.5 65.5t-37 40.5t-59.5 21t-87 6h-127q-17 0 -17 -17v-287zM208 846q8 51 37.5 82.5t68.5 31.5q20 0 39.5 -7t39 -16t38.5 -16t38 -7t29 9.5t18 32.5h33q-5 -51 -33.5 -84.5t-66.5 -33.5q-20 0 -40 7.5t-40.5 16.5
t-41 16.5t-40.5 7.5q-19 0 -28.5 -8.5t-16.5 -31.5h-34z" />
    <glyph glyph-name="etilde" unicode="&#x1ebd;" horiz-adv-x="573" 
d="M522 93q-85 -103 -211 -103q-59 0 -107 19.5t-82.5 55t-53.5 85t-19 109.5q0 61 20 113t56.5 89t87 58t110.5 21q97 0 150 -52.5t53 -150.5q0 -14 -5.5 -17t-25.5 -3h-329q-2 -8 -3 -19.5t-1 -25.5q0 -52 12.5 -94.5t36 -72.5t56 -46.5t72.5 -16.5q42 0 78 18.5t74 60.5z
M357 363q20 0 32 1t18 4t8 8.5t2 14.5q0 46 -29.5 73.5t-80.5 27.5q-108 0 -134 -129h184zM135 660q8 51 37.5 82.5t68.5 31.5q20 0 39.5 -7t39 -16t38.5 -16t38 -7t29 9.5t18 32.5h33q-5 -51 -33.5 -84.5t-66.5 -33.5q-20 0 -40 7.5t-40.5 16.5t-41 16.5t-40.5 7.5
q-19 0 -28.5 -8.5t-16.5 -31.5h-34z" />
    <glyph glyph-name="Idotbelow" unicode="&#x1eca;" horiz-adv-x="415" 
d="M260 189q0 -50 4 -79t15.5 -45t33 -21t56.5 -6v-38h-324v38q35 1 56.5 6.5t33.5 20.5t16 42.5t4 74.5v406q0 42 -3.5 69.5t-14 43.5t-30.5 22.5t-52 8.5v38h304v-38q-32 -1 -51.5 -8t-30 -23.5t-14 -45.5t-3.5 -74v-392zM144 -168q0 26 18 44t44 18t44 -18t18 -44
t-18 -44t-44 -18t-44 18t-18 44z" />
    <glyph glyph-name="idotbelow" unicode="&#x1ecb;" horiz-adv-x="341" 
d="M228 159q0 -39 3.5 -62.5t13.5 -37t28 -18.5t48 -6v-35h-287v35q30 1 49 6.5t29.5 18t14 35t3.5 57.5v128q0 58 -1.5 95.5t-5.5 51.5q-5 23 -23 31.5t-68 8.5v35l196 38v-381zM113 743q0 26 18 44t44 18t44 -18t18 -44t-18 -44t-44 -18t-44 18t-18 44zM117 -168
q0 26 18 44t44 18t44 -18t18 -44t-18 -44t-44 -18t-44 18t-18 44z" />
    <glyph glyph-name="Odotbelow" unicode="&#x1ecc;" horiz-adv-x="946" 
d="M473 780q88 0 164 -31t132 -85t88 -127t32 -158q0 -81 -32.5 -152t-88.5 -123.5t-132 -83t-163 -30.5t-163 30.5t-132 83t-88.5 123.5t-32.5 152q0 85 32 158t88 127t132 85t164 31zM473 45q66 0 118.5 23t90 66t57.5 104.5t20 137.5q0 80 -20 144.5t-57 110t-90 70
t-119 24.5t-119 -24.5t-90 -70t-57 -110t-20 -144.5q0 -76 20 -137.5t57 -104.5t90 -66t119 -23zM412 -168q0 26 18 44t44 18t44 -18t18 -44t-18 -44t-44 -18t-44 18t-18 44z" />
    <glyph glyph-name="odotbelow" unicode="&#x1ecd;" horiz-adv-x="654" 
d="M325 540q57 0 108 -20.5t89.5 -56.5t61 -85.5t22.5 -108.5q0 -61 -22.5 -112t-61 -88t-89.5 -58t-108 -21q-56 0 -106.5 20.5t-88.5 57.5t-60 88.5t-22 112.5q0 59 22 109t60 86t88.5 56t106.5 20zM325 492q-37 0 -67.5 -16t-52 -45.5t-33 -71t-11.5 -91.5
q0 -52 11.5 -94t33 -71.5t51.5 -45.5t68 -16t69 16t53 46t34 72t12 93q0 50 -12 91t-34 70.5t-53 46t-69 16.5zM263 -168q0 26 18 44t44 18t44 -18t18 -44t-18 -44t-44 -18t-44 18t-18 44z" />
    <glyph glyph-name="Udotbelow" unicode="&#x1ee4;" horiz-adv-x="861" 
d="M722 310q0 -79 -15.5 -139t-50 -100t-89.5 -60.5t-133 -20.5q-74 0 -129 14.5t-92 48t-55 87.5t-18 133v264q0 74 -3.5 114t-20.5 59q-12 13 -32.5 17.5t-54.5 4.5v38h341v-38q-34 0 -55 -4t-33 -20q-14 -18 -18 -57.5t-4 -113.5v-272q0 -51 10.5 -90.5t34.5 -67
t62.5 -41.5t94.5 -14q100 0 150 55.5t50 163.5v241q0 89 -7 135t-26 65q-14 13 -35 16.5t-52 3.5v38h290v-38q-32 0 -52.5 -5t-32.5 -22q-15 -21 -20 -65.5t-5 -127.5v-202zM390 -168q0 26 18 44t44 18t44 -18t18 -44t-18 -44t-44 -18t-44 18t-18 44z" />
    <glyph glyph-name="udotbelow" unicode="&#x1ee5;" 
d="M463 370q0 41 -2 64.5t-10.5 36t-25 17t-45.5 7.5v35h181v-307q0 -57 1.5 -93t4.5 -54q2 -13 6.5 -20.5t13.5 -12t23.5 -6t37.5 -1.5v-35l-165 -12l-11 120h-4q-38 -62 -87.5 -90.5t-103.5 -28.5q-42 0 -81.5 16t-59.5 43q-17 22 -24.5 61t-7.5 101v159q0 41 -2 64.5
t-10.5 36t-25 17t-45.5 7.5v35h181v-273q0 -109 25.5 -158t81.5 -49q88 0 137 115q5 12 8 22t5 22t3 27t1 36v98zM229 -168q0 26 18 44t44 18t44 -18t18 -44t-18 -44t-44 -18t-44 18t-18 44z" />
    <glyph glyph-name="Ygrave" unicode="&#x1ef2;" horiz-adv-x="733" 
d="M114 646q-15 26 -28 42.5t-26.5 26.5t-28.5 13.5t-36 3.5v38h315v-38q-50 0 -70.5 -7.5t-20.5 -26.5q0 -21 23 -60l155 -265h4l113 190q32 54 45.5 85t13.5 50t-14.5 26.5t-50.5 7.5v38h229v-38q-21 0 -37.5 -6t-34.5 -24t-39.5 -50t-52.5 -84l-154 -260v-119
q0 -49 3.5 -78.5t15 -45.5t33 -21.5t57.5 -5.5v-38h-324v38q36 0 57.5 5.5t33 21t15.5 43.5t4 74v122zM454 850l-120 28q-34 8 -54.5 19.5t-20.5 27.5q0 17 10.5 26t27.5 9q20 0 39.5 -8t47.5 -25l130 -77h-60z" />
    <glyph glyph-name="ygrave" unicode="&#x1ef3;" horiz-adv-x="639" 
d="M281 -157q-46 -103 -143 -103q-63 0 -63 47q0 25 17.5 36.5t64.5 19.5q21 3 36 8.5t27 14t21.5 21.5t18.5 32l35 70l-192 417q-13 28 -22.5 44.5t-20 26t-23.5 13t-33 5.5v35h265v-35q-67 0 -67 -33q0 -13 8 -41t20 -57l110 -266h5l91 225q13 33 21.5 54t13 34.5t6 22.5
t1.5 17q0 26 -14.5 35t-55.5 9v35h220v-35q-19 0 -32 -5t-26.5 -22.5t-30 -50.5t-40.5 -89zM402 651l-137 65q-24 11 -37.5 23.5t-13.5 28.5q0 17 10.5 26t27.5 9q31 0 67 -33l130 -119h-47z" />
    <glyph glyph-name="Ytilde" unicode="&#x1ef8;" horiz-adv-x="733" 
d="M114 646q-15 26 -28 42.5t-26.5 26.5t-28.5 13.5t-36 3.5v38h315v-38q-50 0 -70.5 -7.5t-20.5 -26.5q0 -21 23 -60l155 -265h4l113 190q32 54 45.5 85t13.5 50t-14.5 26.5t-50.5 7.5v38h229v-38q-21 0 -37.5 -6t-34.5 -24t-39.5 -50t-52.5 -84l-154 -260v-119
q0 -49 3.5 -78.5t15 -45.5t33 -21.5t57.5 -5.5v-38h-324v38q36 0 57.5 5.5t33 21t15.5 43.5t4 74v122zM237 846q8 51 37.5 82.5t68.5 31.5q20 0 39.5 -7t39 -16t38.5 -16t38 -7t29 9.5t18 32.5h33q-5 -51 -33.5 -84.5t-66.5 -33.5q-20 0 -40 7.5t-40.5 16.5t-41 16.5
t-40.5 7.5q-19 0 -28.5 -8.5t-16.5 -31.5h-34z" />
    <glyph glyph-name="ytilde" unicode="&#x1ef9;" horiz-adv-x="639" 
d="M281 -157q-46 -103 -143 -103q-63 0 -63 47q0 25 17.5 36.5t64.5 19.5q21 3 36 8.5t27 14t21.5 21.5t18.5 32l35 70l-192 417q-13 28 -22.5 44.5t-20 26t-23.5 13t-33 5.5v35h265v-35q-67 0 -67 -33q0 -13 8 -41t20 -57l110 -266h5l91 225q13 33 21.5 54t13 34.5t6 22.5
t1.5 17q0 26 -14.5 35t-55.5 9v35h220v-35q-19 0 -32 -5t-26.5 -22.5t-30 -50.5t-40.5 -89zM171 660q8 51 37.5 82.5t68.5 31.5q20 0 39.5 -7t39 -16t38.5 -16t38 -7t29 9.5t18 32.5h33q-5 -51 -33.5 -84.5t-66.5 -33.5q-20 0 -40 7.5t-40.5 16.5t-41 16.5t-40.5 7.5
q-19 0 -28.5 -8.5t-16.5 -31.5h-34z" />
    <glyph glyph-name="endash" unicode="&#x2013;" horiz-adv-x="724" 
d="M77 248v83h570v-83h-570z" />
    <glyph glyph-name="emdash" unicode="&#x2014;" horiz-adv-x="1112" 
d="M77 248v83h958v-83h-958z" />
    <glyph glyph-name="quoteleft" unicode="&#x2018;" horiz-adv-x="257" 
d="M198 803q-46 -35 -65.5 -66.5t-19.5 -69.5q13 8 30 8q23 0 37.5 -15.5t14.5 -39.5q0 -27 -18.5 -44t-49.5 -17q-71 0 -71 94q0 25 6 46.5t19.5 42t36.5 42t57 46.5z" />
    <glyph glyph-name="quoteright" unicode="&#x2019;" horiz-adv-x="254" 
d="M64 586q46 35 65.5 66.5t19.5 69.5q-13 -8 -30 -8q-23 0 -37.5 15.5t-14.5 39.5q0 27 18.5 44t49.5 17q71 0 71 -94q0 -26 -6 -47t-19.5 -41.5t-36.5 -42t-57 -46.5z" />
    <glyph glyph-name="quotesinglbase" unicode="&#x201a;" horiz-adv-x="275" 
d="M66 -138q46 35 65.5 66.5t19.5 69.5q-13 -8 -30 -8q-23 0 -37.5 15.5t-14.5 39.5q0 27 18.5 44t49.5 17q71 0 71 -94q0 -26 -6 -47t-19.5 -41.5t-36.5 -42t-57 -46.5z" />
    <glyph glyph-name="quotedblleft" unicode="&#x201c;" horiz-adv-x="449" 
d="M390 803q-46 -35 -65.5 -66.5t-19.5 -69.5q13 8 30 8q23 0 37.5 -15.5t14.5 -39.5q0 -27 -18.5 -44t-49.5 -17q-71 0 -71 94q0 25 6 46.5t19.5 42t36.5 42t57 46.5zM198 803q-46 -35 -65.5 -66.5t-19.5 -69.5q13 8 30 8q23 0 37.5 -15.5t14.5 -39.5q0 -27 -18.5 -44
t-49.5 -17q-71 0 -71 94q0 25 6 46.5t19.5 42t36.5 42t57 46.5z" />
    <glyph glyph-name="quotedblright" unicode="&#x201d;" horiz-adv-x="446" 
d="M64 586q46 35 65.5 66.5t19.5 69.5q-13 -8 -30 -8q-23 0 -37.5 15.5t-14.5 39.5q0 27 18.5 44t49.5 17q71 0 71 -94q0 -26 -6 -47t-19.5 -41.5t-36.5 -42t-57 -46.5zM256 586q46 35 65.5 66.5t19.5 69.5q-13 -8 -30 -8q-23 0 -37.5 15.5t-14.5 39.5q0 27 18.5 44t49.5 17
q71 0 71 -94q0 -26 -6 -47t-19.5 -41.5t-36.5 -42t-57 -46.5z" />
    <glyph glyph-name="quotedblbase" unicode="&#x201e;" horiz-adv-x="467" 
d="M66 -138q46 35 65.5 66.5t19.5 69.5q-13 -8 -30 -8q-23 0 -37.5 15.5t-14.5 39.5q0 27 18.5 44t49.5 17q71 0 71 -94q0 -26 -6 -47t-19.5 -41.5t-36.5 -42t-57 -46.5zM258 -138q46 35 65.5 66.5t19.5 69.5q-13 -8 -30 -8q-23 0 -37.5 15.5t-14.5 39.5q0 27 18.5 44
t49.5 17q71 0 71 -94q0 -26 -6 -47t-19.5 -41.5t-36.5 -42t-57 -46.5z" />
    <glyph glyph-name="dagger" unicode="&#x2020;" horiz-adv-x="552" 
d="M92 429q-26 0 -44 18t-18 44t18 44t44 18q17 0 32 -5.5t33 -12t41.5 -13.5t57.5 -10q-1 45 -7.5 75t-14 52t-13.5 40t-6 39q0 26 18 44t44 18t44 -18t18 -44q0 -21 -6 -38.5t-13.5 -39.5t-14 -52.5t-8.5 -75.5q34 3 57 10t41 14t33 12t32 5q26 0 44 -18t18 -44t-18 -44
t-44 -18q-17 0 -32 5t-33 12t-41.5 13.5t-56.5 9.5q0 -37 3.5 -66.5t10 -54t17 -45.5t24.5 -42q-11 -41 -21 -103.5t-17.5 -134.5t-12 -146t-4.5 -137h-40q0 63 -4.5 137t-12 146t-17.5 134.5t-21 103.5q14 21 24 42t17 45.5t10.5 54t3.5 66.5q-34 -3 -57.5 -9.5
t-41.5 -13.5t-33.5 -12t-32.5 -5z" />
    </font>
</defs>
</svg>
