<?xml version="1.0" standalone="no"?>
<!DOCTYPE svg PUBLIC "-//W3C//DTD SVG 1.1//EN" "http://www.w3.org/Graphics/SVG/1.1/DTD/svg11.dtd" >
<svg xmlns="http://www.w3.org/2000/svg" xmlns:xlink="http://www.w3.org/1999/xlink" version="1.1">
<metadata>
Created by FontForge 20170731 at Fri Nov 30 22:52:24 2012
 By Aleksey,,,
Copyright (c) 2012, Pablo Impallari (www.impallari.com|impallari@gmail.com), Copyright (c) 2012, Rodrigo Fuenzalida (www.rfuenzalida.com|hello@rfuenzalida.com), with Reserved Font Name Libre Baskerville.
</metadata>
<defs>
<font id="LibreBaskerville-Bold" horiz-adv-x="585" >
  <font-face 
    font-family="Libre Baskerville"
    font-weight="700"
    font-stretch="normal"
    units-per-em="1000"
    panose-1="2 0 0 0 0 0 0 0 0 0"
    ascent="800"
    descent="-200"
    x-height="530"
    cap-height="770"
    bbox="-305 -260 1679 970"
    underline-thickness="50"
    underline-position="-150"
    unicode-range="U+0020-FB06"
  />
<missing-glyph horiz-adv-x="756" 
d="M130 970h496v-1230h-496v1230zM240 -199h275v1110h-275v-1110z" />
    <glyph glyph-name="f_f" unicode="ff" horiz-adv-x="772" 
d="M265 166q0 -37 3.5 -61t11.5 -38.5t22.5 -20t37.5 -6.5v-40h-303v40q30 1 47.5 5.5t26.5 17t12 35t3 60.5v299h-107v57h107v32q0 56 18 101.5t51 77t80 48.5t106 17q38 0 64.5 -7.5t52.5 -25.5q18 16 44 29.5t57 23.5t65 15t68 5q69 0 109.5 -24t40.5 -65q0 -27 -15 -40
t-35 -13q-24 0 -42 10t-33 30q-20 26 -32 35t-27 9q-21 0 -39 -8.5t-31 -29.5t-20 -55.5t-7 -86.5v-78h157v-57h-157v-291q0 -38 4 -62t15.5 -38t30.5 -19.5t49 -6.5v-40h-299v40q20 1 32 5.5t18.5 17.5t8.5 35.5t2 59.5v299h-197v-291zM462 514v146q-33 44 -58.5 58
t-54.5 14q-48 0 -66 -47t-18 -133v-38h197z" />
    <glyph glyph-name="f_i" unicode="fi" horiz-adv-x="692" 
d="M588 165q0 -40 3 -64t12 -37t26 -18t46 -6v-40h-295v40q22 1 35.5 6t21 18t10 35t2.5 58v113q0 54 -2 92.5t-5 53.5q-5 24 -24.5 32.5t-70.5 8.5h-91v-293q0 -37 3.5 -61t12 -38.5t23.5 -20t38 -6.5v-38h-286v38q23 1 36.5 6t21 17t10 34.5t2.5 60.5v301h-99v57h99v72
q0 117 72 180.5t203 63.5q79 0 128.5 -25.5t49.5 -67.5q0 -22 -13.5 -35.5t-35.5 -13.5q-35 0 -69 33q-29 29 -51 40t-48 11q-55 0 -77 -51q-20 -43 -20 -129v-78h127l205 26v-375z" />
    <glyph glyph-name="f_l" unicode="fl" horiz-adv-x="707" 
d="M599 161q0 -38 3 -61t12.5 -36t26.5 -18t45 -6v-40h-295v40q22 1 35.5 6t21 17.5t10 34t2.5 56.5v564q-25 26 -53.5 40t-54.5 14q-53 0 -76 -61q-8 -23 -12 -51.5t-4 -67.5v-78h115v-57h-115v-291q0 -37 3.5 -61t13 -38.5t26 -20t41.5 -6.5v-40h-297v40q24 1 39 6
t22.5 17t10 34.5t2.5 60.5v299h-103v57h103v72q0 115 67 179.5t186 64.5q41 0 81 -7.5t61 -18.5l83 26v-669z" />
    <glyph glyph-name="f_f_i" unicode="ffi" horiz-adv-x="1044" 
d="M940 164q0 -39 3 -63t12 -37t26 -18t46 -6v-40h-295v40q22 1 35.5 6.5t21 18.5t10 35t2.5 57v112q0 58 -2 95.5t-5 51.5q-5 25 -22.5 33t-63.5 8h-107v-291q0 -38 3.5 -62t13 -38t25.5 -19.5t42 -6.5v-40h-294v40q23 1 37 5.5t21.5 17.5t10 35.5t2.5 59.5v299h-197v-291
q0 -37 3.5 -61t11.5 -38.5t22.5 -20t37.5 -6.5v-40h-303v40q30 1 47.5 5.5t26.5 17t12 35t3 60.5v299h-107v57h107v32q0 56 18 101.5t51 77t80 48.5t106 17q38 0 64.5 -7.5t52.5 -25.5q18 16 44 29.5t57 23.5t65 15t68 5q87 0 138.5 -24t51.5 -65q0 -27 -15 -40t-35 -13
t-36 8.5t-39 31.5q-25 25 -50 34.5t-49 9.5q-21 0 -39 -8.5t-31 -29.5t-20 -55.5t-7 -86.5v-78h156l183 26v-376zM462 514v146q-33 44 -58.5 58t-54.5 14q-48 0 -66 -47t-18 -133v-38h197z" />
    <glyph glyph-name="f_f_l" unicode="ffl" horiz-adv-x="1048" 
d="M265 166q0 -37 3.5 -61t11.5 -38.5t22.5 -20t37.5 -6.5v-40h-303v40q30 1 47.5 5.5t26.5 17t12 35t3 60.5v299h-107v57h107v32q0 56 18 101.5t51 77t80 48.5t106 17q38 0 64.5 -7.5t52.5 -25.5q18 16 44 29.5t57 23.5t65 15t68 5q84 0 135 -23l73 23v-666q0 -39 3 -63
t12 -37t26 -18t46 -6v-40h-295v40q22 1 35.5 6.5t21 18.5t10 35t2.5 57v568q-25 25 -52 36t-51 11q-21 0 -39 -8.5t-31 -29.5t-20 -55.5t-7 -86.5v-78h132v-57h-132v-291q0 -38 3.5 -62t13 -38t25.5 -19.5t42 -6.5v-40h-294v40q23 1 37 5.5t21.5 17.5t10 35.5t2.5 59.5v299
h-197v-291zM462 514v146q-33 44 -58.5 58t-54.5 14q-48 0 -66 -47t-18 -133v-38h197z" />
    <glyph glyph-name="f_b" unicode="fb" horiz-adv-x="1050" 
d="M599 461h4q26 38 67 58.5t94 20.5q52 0 97.5 -21t79 -58t52.5 -87.5t19 -108.5q0 -59 -20.5 -109t-56 -87.5t-82.5 -58.5t-100 -21q-57 0 -105 21.5t-77 56.5l-76 -67h-34v718q-25 26 -54 40t-55 14q-92 0 -92 -180v-78h115v-57h-115v-291q0 -37 3.5 -61t13 -38.5t26 -20
t41.5 -6.5v-40h-297v40q24 1 39 6t22.5 17t10 34.5t2.5 60.5v299h-103v57h103v72q0 115 67 179.5t186 64.5q41 0 81 -7.5t61 -18.5l83 26v-369zM601 219q0 -37 10.5 -68.5t28.5 -54.5t43 -36t55 -13q60 0 91 55t31 159q0 106 -31 161t-91 55q-63 0 -100 -50.5t-37 -144.5
v-63z" />
    <glyph glyph-name="f_f_b" unicode="ffb" horiz-adv-x="1391" 
d="M940 461h4q26 38 67 58.5t94 20.5q52 0 97.5 -21t79 -58t52.5 -87.5t19 -108.5q0 -59 -20.5 -109t-56 -87.5t-82.5 -58.5t-100 -21q-57 0 -105 21.5t-77 56.5l-76 -67h-34v725q-25 25 -52.5 36t-51.5 11q-21 0 -39 -8.5t-31 -29.5t-20 -55.5t-7 -86.5v-78h132v-57h-132
v-291q0 -38 3.5 -62t13 -38t25.5 -19.5t42 -6.5v-40h-294v40q23 1 37 5.5t21.5 17.5t10 35.5t2.5 59.5v299h-197v-291q0 -37 3.5 -61t11.5 -38.5t22.5 -20t37.5 -6.5v-40h-303v40q30 1 47.5 5.5t26.5 17t12 35t3 60.5v299h-107v57h107v32q0 56 18 101.5t51 77t80 48.5
t106 17q38 0 64.5 -7.5t52.5 -25.5q18 16 44 29.5t57 23.5t65 15t68 5q47 0 84 -7.5t62 -21.5l62 29v-369zM942 219q0 -37 10.5 -68.5t28.5 -54.5t43 -36t55 -13q60 0 91 55t31 159q0 106 -31 161t-91 55q-63 0 -100 -50.5t-37 -144.5v-63zM462 514v146q-33 44 -58.5 58
t-54.5 14q-48 0 -66 -47t-18 -133v-38h197z" />
    <glyph glyph-name="f_h" unicode="fh" horiz-adv-x="1071" 
d="M601 164q0 -41 2.5 -64.5t11 -36.5t26 -17t47.5 -6v-40h-295v40q24 2 37.5 6t20.5 16t9 34.5t2 60.5v561q-25 26 -54.5 40t-55.5 14q-92 0 -92 -180v-78h115v-57h-115v-291q0 -37 3.5 -61t11.5 -38.5t22.5 -20t36.5 -6.5v-40h-287v40q24 1 39 6t22.5 17t10 34.5t2.5 60.5
v299h-103v57h103v72q0 115 67 179.5t186 64.5q41 0 81 -7.5t61 -18.5l83 26v-369h4q31 41 69.5 60t92.5 19q50 0 88.5 -17t65 -46.5t40.5 -70t14 -87.5v-155q0 -42 2 -65.5t10.5 -36t25.5 -16.5t47 -6v-40h-313v40q30 1 47.5 5.5t27 16.5t12 34.5t2.5 60.5v123
q0 106 -23 150t-79 44q-64 0 -97.5 -47.5t-33.5 -129.5v-133z" />
    <glyph glyph-name="f_f_h" unicode="ffh" horiz-adv-x="1412" 
d="M942 164q0 -41 2.5 -64.5t11 -36.5t26 -17t47.5 -6v-40h-295v40q24 2 37.5 6t20.5 16t9 34.5t2 60.5v566q-2 0 -2 2q-25 25 -52 36t-51 11q-21 0 -39 -8.5t-31 -29.5t-20 -55.5t-7 -86.5v-78h132v-57h-132v-291q0 -38 3.5 -62t13 -38t25.5 -19.5t42 -6.5v-40h-294v40
q23 1 37 5.5t21.5 17.5t10 35.5t2.5 59.5v299h-197v-291q0 -37 3.5 -61t11.5 -38.5t22.5 -20t37.5 -6.5v-40h-303v40q30 1 47.5 5.5t26.5 17t12 35t3 60.5v299h-107v57h107v32q0 56 18 101.5t51 77t80 48.5t106 17q38 0 64.5 -7.5t52.5 -25.5q18 16 44 29.5t57 23.5t65 15
t68 5q86 0 138 -25l70 25v-369h4q31 41 69.5 60t92.5 19q98 0 152 -60q26 -30 41 -72.5t15 -88.5v-155q0 -42 2 -65.5t10.5 -36t25.5 -16.5t47 -6v-40h-313v40q30 1 47.5 5.5t27 16.5t12 34.5t2.5 60.5v123q0 106 -23 150t-79 44q-60 0 -95 -44q-17 -23 -26.5 -57t-9.5 -76
v-133zM462 514v146q-33 44 -58.5 58t-54.5 14q-48 0 -66 -47t-18 -133v-38h197z" />
    <glyph glyph-name="f_j" unicode="fj" horiz-adv-x="673" 
d="M588 -2q0 -125 -60.5 -191.5t-174.5 -66.5q-77 0 -120.5 28.5t-43.5 70.5q0 25 16.5 38.5t37.5 13.5q28 0 42 -15.5t25 -33.5t24.5 -33.5t40.5 -15.5q37 0 55.5 29t18.5 100v494q-5 24 -24.5 32.5t-70.5 8.5h-98v-293q0 -37 3.5 -61t12 -38.5t23.5 -20t38 -6.5v-38h-286
v38q23 1 36.5 6t21 17t10 34.5t2.5 60.5v301h-99v57h99v72q0 117 72 180.5t203 63.5q79 0 128.5 -25.5t49.5 -67.5q0 -22 -13.5 -35.5t-35.5 -13.5q-35 0 -69 33q-29 29 -51 40t-48 11q-55 0 -77 -51q-20 -43 -20 -129v-78h127l205 26v-542z" />
    <glyph glyph-name="f_f_j" unicode="ffj" horiz-adv-x="1025" 
d="M940 -2q0 -125 -60.5 -191.5t-174.5 -66.5q-77 0 -120.5 28.5t-43.5 70.5q0 25 16.5 38.5t37.5 13.5q28 0 42 -15.5t25 -33.5t24.5 -33.5t40.5 -15.5q37 0 55.5 29t18.5 100v494q-5 25 -26 33t-67 8h-107v-291q0 -38 3.5 -62t13 -38t25.5 -19.5t42 -6.5v-40h-294v40
q23 1 37 5.5t21.5 17.5t10 35.5t2.5 59.5v299h-197v-291q0 -37 3.5 -61t11.5 -38.5t22.5 -20t37.5 -6.5v-40h-303v40q30 1 47.5 5.5t26.5 17t12 35t3 60.5v299h-107v57h107v32q0 56 18 101.5t51 77t80 48.5t106 17q38 0 64.5 -7.5t52.5 -25.5q18 16 44 29.5t57 23.5t65 15
t68 5q87 0 138.5 -24t51.5 -65q0 -27 -15 -40t-35 -13t-36 8.5t-39 31.5q-25 25 -50 34.5t-49 9.5q-21 0 -39 -8.5t-31 -29.5t-20 -55.5t-7 -86.5v-78h156l183 26v-542zM462 514v146q-33 44 -58.5 58t-54.5 14q-48 0 -66 -47t-18 -133v-38h197z" />
    <glyph glyph-name="f_k" unicode="fk" horiz-adv-x="1021" 
d="M715 40q30 0 40.5 3.5t10.5 14.5q0 3 -1 6t-4 9t-9.5 16t-16.5 27l-86 135l-50 -48v-39q0 -39 3 -63t10.5 -37.5t21 -18.5t34.5 -5v-40h-285v40q25 0 40.5 5t24 18t11.5 35.5t3 58.5v561q-25 26 -54.5 40t-55.5 14q-92 0 -92 -180v-78h115v-57h-115v-291q0 -37 3.5 -61.5
t11.5 -38.5t22.5 -20t36.5 -6v-40h-287v40q24 0 38.5 4.5t22.5 17t10.5 35.5t2.5 61v299h-103v57h103v72q0 115 67 179.5t186 64.5q41 0 81 -7.5t61 -18.5l83 26v-556l96 91q28 26 45.5 43.5t28 29.5t14.5 19t4 12q0 12 -17.5 16.5t-65.5 4.5v40h273v-40q-38 0 -66.5 -13
t-63.5 -45l-97 -91l173 -245q23 -32 44.5 -44t58.5 -12v-40h-311v40z" />
    <glyph glyph-name="f_f_k" unicode="ffk" horiz-adv-x="1362" 
d="M1056 40q31 0 41.5 3.5t10.5 12.5q0 3 -1 6.5t-4 9.5t-9 15.5t-16 25.5l-88 138l-50 -48v-39q0 -39 3 -63t11 -37.5t21 -18.5t34 -5v-40h-295v40q27 0 44 5t27 18t14 35.5t4 58.5v568q-25 25 -53 36t-52 11q-21 0 -39 -8.5t-31 -29.5t-20 -55.5t-7 -86.5v-78h132v-57
h-132v-291q0 -38 3.5 -62t13 -38t25.5 -19.5t42 -6.5v-40h-294v40q23 1 37 5.5t21.5 17.5t10 35.5t2.5 59.5v299h-197v-291q0 -37 3.5 -61t11.5 -38.5t22.5 -20t37.5 -6.5v-40h-303v40q30 1 47.5 5.5t26.5 17t12 35t3 60.5v299h-107v57h107v32q0 56 18 101.5t51 77t80 48.5
t106 17q38 0 64.5 -7.5t52.5 -25.5q18 16 44 29.5t57 23.5t65 15t68 5q48 0 85 -7.5t62 -21.5l61 29v-556l96 91q30 28 48.5 47t29 31t14.5 19t4 12q0 8 -16.5 12t-70.5 4v40h273v-40q-38 0 -66.5 -13t-63.5 -45l-97 -91l173 -245q25 -35 47.5 -45.5t55.5 -10.5v-40h-311v40
zM462 514v146q-33 44 -58.5 58t-54.5 14q-48 0 -66 -47t-18 -133v-38h197z" />
    <glyph glyph-name="f_t" unicode="ft" horiz-adv-x="774" 
d="M17 530h108v56q0 54 18.5 99t51.5 77.5t79.5 50t103.5 17.5q34 0 62.5 -6.5t49.5 -17.5t32.5 -27t11.5 -34q0 -23 -17 -38t-43 -15q-18 0 -31.5 12t-40.5 44q-12 14 -25 20t-27 6q-40 0 -63 -48.5t-23 -133.5v-62h158q24 0 48.5 10.5t45.5 27.5t37.5 38.5t24.5 44.5h51
v-121h115v-55h-115v-307q0 -62 13.5 -88t45.5 -26q39 0 59 36l21 -29q-28 -71 -132 -71q-69 0 -107.5 32t-38.5 90v363h-226v-309q0 -38 4.5 -62t17 -38t33.5 -19.5t54 -6.5v-40h-338v40q30 1 48 5.5t27 17t12 35t3 60.5v317h-108v55z" />
    <glyph glyph-name="f_f_t" unicode="fft" horiz-adv-x="1093" 
d="M599 475v-309q0 -38 4.5 -62t15.5 -38.5t30 -20t49 -5.5v-40h-299v40q20 0 32 4.5t18.5 17.5t8.5 36t2 60v317h-197v-309q0 -37 3.5 -61.5t12 -38.5t23 -20t36.5 -6v-40h-303v40q31 0 48.5 4t26.5 17t11.5 36t2.5 61v317h-107v55h107v16q0 56 18 101.5t51 77t80 48.5
t106 17q38 0 64.5 -7.5t52.5 -25.5q18 16 44 29.5t57 23.5t65 15t68 5q69 0 109.5 -24t40.5 -65q0 -27 -15 -40t-35 -13q-24 0 -42 10t-33 30q-20 26 -32 35t-27 9q-21 0 -39 -8.5t-31 -29.5t-20 -55.5t-7 -86.5v-62h142q24 0 48.5 10.5t45.5 27.5t37.5 38.5t24.5 44.5h51
v-121h115v-55h-115v-307q0 -62 13.5 -88t45.5 -26q39 0 59 36l21 -29q-28 -71 -132 -71q-69 0 -107.5 32t-38.5 90v363h-210zM460 530v130q-33 44 -58.5 58t-54.5 14q-48 0 -66 -47t-18 -133v-22h197z" />
    <glyph glyph-name=".notdef" horiz-adv-x="756" 
d="M130 970h496v-1230h-496v1230zM240 -199h275v1110h-275v-1110z" />
    <glyph glyph-name=".null" horiz-adv-x="0" 
 />
    <glyph glyph-name="nonmarkingreturn" horiz-adv-x="350" 
 />
    <glyph glyph-name="space" unicode=" " horiz-adv-x="266" 
 />
    <glyph glyph-name="exclam" unicode="!" horiz-adv-x="311" 
d="M125 207q0 91 -6 154t-14 111q-5 30 -10 56.5t-9 52t-6.5 52t-2.5 57.5q0 90 78 90t78 -90q0 -31 -2.5 -57.5t-6.5 -52t-9 -52t-10 -56.5q-8 -48 -14 -110.5t-6 -154.5h-60zM80 65q0 32 22 54t54 22t54 -22t22 -54t-22 -53.5t-54 -21.5t-54 21.5t-22 53.5z" />
    <glyph glyph-name="quotedbl" unicode="&#x22;" horiz-adv-x="392" 
d="M86 554q-5 27 -11.5 60t-12.5 64t-10 56t-4 37q0 26 16.5 42.5t41.5 16.5q26 0 42.5 -17t16.5 -43q0 -12 -4.5 -37t-10.5 -55.5t-12.5 -63.5t-10.5 -60h-41zM266 554q-5 27 -11.5 60t-12.5 64t-10.5 56t-4.5 37q0 26 16.5 42.5t42.5 16.5q25 0 41.5 -17t16.5 -43
q0 -12 -4 -37t-10 -55.5t-12.5 -63.5t-10.5 -60h-41z" />
    <glyph glyph-name="numbersign" unicode="#" horiz-adv-x="702" 
d="M625 250h-146l-38 -250h-72l36 250h-149l-39 -250h-73l39 250h-147l11 60h149l23 160h-150l10 60h151l36 240h73l-36 -240h149l35 240h73l-35 -240h141l-11 -60h-141l-23 -160h144zM292 470l-23 -160h148l22 160h-147z" />
    <glyph glyph-name="dollar" unicode="$" horiz-adv-x="644" 
d="M353 900v-123q43 0 83.5 -13.5t71.5 -37t49.5 -53.5t18.5 -63q0 -26 -16 -42t-42 -16q-24 0 -38 12t-23.5 30.5t-16.5 40t-17.5 40t-26.5 30.5t-43 12v-244q67 -27 115.5 -55t79 -58.5t45 -65t14.5 -74.5q0 -47 -18 -87t-51 -69.5t-80 -48t-105 -23.5v-162h-68v161
q-53 3 -98.5 18.5t-78.5 40.5t-52 58t-19 70q0 35 15.5 53.5t43.5 18.5t45.5 -22.5t32.5 -81.5q22 -87 111 -94v276q-115 46 -168 102t-53 132q0 51 19 91t50 68t70.5 43t81.5 15v121h68zM480 168q0 42 -29 72.5t-98 60.5v-247q61 8 94 37.5t33 76.5zM177 616
q0 -66 108 -115v215q-22 0 -41.5 -8t-34.5 -21.5t-23.5 -32t-8.5 -38.5z" />
    <glyph glyph-name="percent" unicode="%" horiz-adv-x="712" 
d="M111 0h-80l580 770h71zM215 780q27 0 50.5 -12.5t41 -34t27.5 -50.5t10 -63q0 -33 -10 -61.5t-27.5 -49.5t-41 -33t-50.5 -12q-26 0 -49.5 12t-41 33t-28 49.5t-10.5 61.5q0 34 10.5 63t28 50.5t41 34t49.5 12.5zM215 499q26 0 40 25t14 94q0 73 -14 100t-40 27t-40 -27
t-14 -100q0 -69 14 -94t40 -25zM499 306q26 0 49.5 -12.5t41 -34t28 -50.5t10.5 -63q0 -33 -10.5 -61.5t-28 -49.5t-41 -33t-49.5 -12t-49.5 12t-41 33t-28 49.5t-10.5 61.5q0 34 10.5 63t28 50.5t41 34t49.5 12.5zM499 25q26 0 40 25t14 94q0 73 -14 100t-40 27t-40 -27
t-14 -100q0 -69 14 -94t40 -25z" />
    <glyph glyph-name="ampersand" unicode="&#x26;" horiz-adv-x="891" 
d="M356 473q43 33 62.5 68t19.5 76q0 42 -20.5 67t-55.5 25q-64 0 -64 -91q0 -39 15 -76t43 -69zM282 354q-51 -34 -78 -80t-27 -95q0 -51 32 -83.5t81 -32.5q39 0 84 18.5t86 51.5zM551 224q24 27 44.5 54t35.5 50.5t23 42.5t8 31q0 16 -14.5 23t-49.5 7v40h242v-40
q-23 0 -39.5 -4t-30 -11.5t-24.5 -19t-22 -27.5l-139 -193q41 -52 88 -82t91 -30q28 0 44 9.5t33 37.5l26 -7q-11 -56 -51 -85.5t-104 -29.5q-26 0 -49.5 6t-48 19t-51.5 33.5t-60 48.5q-51 -48 -120.5 -77.5t-141.5 -29.5q-48 0 -88.5 13.5t-70 37t-46 56t-16.5 70.5
q0 67 54.5 124.5t173.5 116.5q-33 47 -48.5 88t-15.5 86q0 44 14 80.5t39.5 62.5t61 40.5t78.5 14.5q38 0 70 -11t55 -31t36 -47t13 -60q0 -54 -38 -102.5t-122 -103.5z" />
    <glyph glyph-name="quotesingle" unicode="'" horiz-adv-x="213" 
d="M86 554q-5 27 -11.5 60t-12.5 64t-10 56t-4 37q0 26 16.5 42.5t41.5 16.5q26 0 42.5 -17t16.5 -43q0 -12 -4.5 -37t-10.5 -55.5t-12.5 -63.5t-10.5 -60h-41z" />
    <glyph glyph-name="parenleft" unicode="(" horiz-adv-x="343" 
d="M323 803q-44 -65 -73.5 -125.5t-47 -118t-25 -111.5t-7.5 -106q0 -65 9 -132.5t28.5 -132.5t50.5 -126t74 -112l-33 -33q-131 116 -197.5 246.5t-66.5 270.5q0 136 64 264t192 244z" />
    <glyph glyph-name="parenright" unicode=")" horiz-adv-x="343" 
d="M52 831q128 -116 192 -244t64 -264q0 -140 -66.5 -270.5t-197.5 -246.5l-33 33q43 51 74 112t50.5 126t28.5 132.5t9 132.5q0 52 -7.5 106t-25 111.5t-47 118t-73.5 125.5z" />
    <glyph glyph-name="asterisk" unicode="*" horiz-adv-x="492" 
d="M267 528q1 -35 5.5 -52t10 -27t10 -18t4.5 -26q0 -26 -14.5 -41t-36.5 -15q-23 0 -38 15.5t-15 41.5q0 14 5 24.5t11 22.5t11 29t5 45q-24 -11 -38.5 -27.5t-27 -32t-25.5 -26.5t-33 -11q-19 0 -34 14.5t-15 36.5q0 14 7.5 27.5t23.5 22.5q12 7 23.5 8t25 1.5t30.5 5
t41 18.5q-25 12 -45 18.5t-43 6.5q-24 0 -43.5 17.5t-19.5 39.5q0 23 15.5 37.5t35.5 14.5q23 0 34 -9t21 -23.5t23.5 -31.5t42.5 -33q-1 34 -6 51t-10.5 27t-10 18t-4.5 25q0 26 14.5 42t37.5 16t38 -16t15 -42q0 -14 -5 -24.5t-11 -22.5t-11 -29t-5 -45q28 16 42 33
t23.5 31.5t20.5 23.5t35 9q19 0 35 -14.5t16 -37.5q0 -11 -5.5 -21t-14.5 -18t-20 -13t-23 -5q-24 0 -43 -5.5t-45 -19.5q24 -14 41 -18.5t30.5 -5t25 -1.5t23.5 -8q31 -19 31 -50q0 -22 -15 -36.5t-34 -14.5q-23 0 -36 11.5t-24 27.5t-24.5 32.5t-37.5 26.5z" />
    <glyph glyph-name="plus" unicode="+" horiz-adv-x="560" 
d="M246 86v221h-212v62h212v221h68v-221h212v-62h-212v-221h-68z" />
    <glyph glyph-name="comma" unicode="," horiz-adv-x="262" 
d="M30 -113q54 36 79.5 65t25.5 56q-5 -3 -13.5 -5.5t-16.5 -2.5q-21 0 -36 19t-15 45q0 33 21.5 55t53.5 22q35 0 56 -25t21 -68q0 -54 -36 -103.5t-111 -99.5z" />
    <glyph glyph-name="hyphen" unicode="-" horiz-adv-x="457" 
d="M66 243v93h325v-93h-325z" />
    <glyph glyph-name="period" unicode="." horiz-adv-x="260" 
d="M54 64q0 32 21.5 54.5t53.5 22.5q33 0 55 -22.5t22 -54.5q0 -31 -22 -52.5t-55 -21.5q-32 0 -53.5 21.5t-21.5 52.5z" />
    <glyph glyph-name="slash" unicode="/" horiz-adv-x="477" 
d="M94 0h-71l371 770h61z" />
    <glyph glyph-name="zero" unicode="0" horiz-adv-x="755" 
d="M375 780q69 0 129.5 -31t105.5 -85t71.5 -127t26.5 -158q0 -81 -26.5 -152t-71.5 -123.5t-105.5 -83t-129.5 -30.5q-68 0 -127.5 30.5t-104 83t-70.5 123.5t-26 152q0 85 26 158t70.5 127t104 85t127.5 31zM375 48q36 0 64.5 15.5t48.5 53.5t30.5 101t10.5 158
q0 99 -10.5 165.5t-30.5 106.5t-48.5 57t-64.5 17t-64.5 -17t-48.5 -57t-30.5 -106.5t-10.5 -165.5q0 -95 10.5 -158t30.5 -101t48.5 -53.5t64.5 -15.5z" />
    <glyph glyph-name="one" unicode="1" horiz-adv-x="436" 
d="M302 164q0 -39 3.5 -62.5t15 -37t33 -18.5t57.5 -6v-40h-376v40q39 1 62.5 6.5t36 18t17 35t4.5 57.5v363q0 58 -0.5 96t-4.5 50q-6 22 -34.5 27t-85.5 5v40q27 1 62.5 4.5t73 9t73.5 12.5t63 16v-616z" />
    <glyph glyph-name="two" unicode="2" horiz-adv-x="651" 
d="M228 118h204q25 0 44 4.5t33.5 17.5t26.5 35.5t23 57.5h44l-40 -233h-524v46q119 102 195 176.5t119.5 133t60 108t16.5 102.5q0 73 -33 115t-90 42q-27 0 -50.5 -9.5t-40 -26.5t-26 -41t-9.5 -52q0 -50 25.5 -79t69.5 -29q-5 -29 -27.5 -46t-54.5 -17q-31 0 -57.5 11
t-46 31t-30.5 47.5t-11 60.5q0 45 20.5 82.5t57.5 65.5t87.5 43.5t109.5 15.5t108 -16t84.5 -44.5t55 -68t19.5 -87.5q0 -60 -27.5 -117t-76 -111t-115 -107t-145.5 -106z" />
    <glyph glyph-name="three" unicode="3" horiz-adv-x="637" 
d="M429 216q0 77 -30 119.5t-84 42.5q-20 -8 -38.5 -13t-31.5 -5q-28 0 -43.5 11.5t-15.5 32.5q0 18 15 28t42 10q14 0 31.5 -3.5t31.5 -7.5q48 0 76.5 37.5t28.5 112.5q0 72 -28.5 109t-77.5 37q-46 0 -71.5 -22t-25.5 -61q0 -27 15.5 -45t39.5 -18q-6 -27 -26 -42.5
t-51 -15.5q-24 0 -45.5 9t-37.5 25t-25.5 36.5t-9.5 44.5q0 32 17 58t48.5 45t75 29t97.5 10q59 0 106.5 -12.5t81.5 -36t52 -56.5t18 -73q0 -32 -10.5 -62t-30 -54.5t-46 -42.5t-57.5 -26v-6q38 -11 69.5 -30.5t53.5 -46.5t34 -59t12 -68q0 -47 -21.5 -87t-60 -69t-91 -45
t-115.5 -16q-57 0 -105.5 13.5t-83.5 37t-55 56t-20 71.5q0 28 10.5 52.5t28.5 43t42 29.5t51 11q33 0 56 -17.5t29 -46.5q-30 0 -50 -24.5t-20 -60.5q0 -49 31.5 -78.5t84.5 -29.5q57 0 93 46t36 123z" />
    <glyph glyph-name="four" unicode="4" horiz-adv-x="664" 
d="M8 268l365 512h95v-509q36 1 59 5.5t36 15t18 28.5t5 47h37v-243h-37q0 27 -5 44t-18 26.5t-36 13t-59 4.5v-31q0 -35 3.5 -61t13.5 -43.5t28.5 -26.5t47.5 -10v-40h-343v40q35 1 56.5 10.5t33 26.5t15.5 41t4 56v34h-319v60zM327 595h-4l-230 -324h234v324z" />
    <glyph glyph-name="five" unicode="5" horiz-adv-x="595" 
d="M202 477l2 -3q17 18 47.5 29.5t62.5 11.5q51 0 94 -18.5t75 -50.5t50 -76.5t18 -95.5q0 -60 -25 -111.5t-69.5 -90t-104 -60.5t-128.5 -22q-47 0 -86 10.5t-67.5 28.5t-44.5 43.5t-16 55.5q0 32 15.5 49.5t44.5 17.5q22 0 33 -11t17 -28t11.5 -36.5t15.5 -36.5t28.5 -28
t51.5 -11q39 0 69.5 18t51.5 51t32 80t11 104q0 83 -22 121.5t-75 38.5q-44 0 -72.5 -21.5t-45.5 -68.5q-8 -23 -17.5 -30.5t-23.5 -7.5q-28 0 -28 26q0 4 2 12l112 413q28 -9 62 -13.5t81 -4.5q56 0 96.5 5t63.5 14l6 -1q-14 -62 -62 -95.5t-122 -33.5h-97z" />
    <glyph glyph-name="six" unicode="6" horiz-adv-x="674" 
d="M629 259q0 -56 -22.5 -105t-61.5 -85.5t-91.5 -57.5t-112.5 -21q-65 0 -119 25.5t-92.5 71.5t-60 109.5t-21.5 140.5q0 91 28 171.5t76 141t112 95.5t137 35q40 0 75 -8.5t60.5 -23.5t40.5 -35.5t15 -44.5q0 -29 -18 -45.5t-48 -16.5q-21 0 -33 9t-20.5 22t-15.5 28.5
t-17.5 28.5t-26.5 22t-43 9q-33 0 -61 -21.5t-48.5 -59t-32.5 -88.5t-12 -111l3 -2q32 36 67.5 53t83.5 17q55 0 102.5 -19.5t82 -53.5t54.5 -80.5t20 -100.5zM214 283q0 -118 33.5 -178t97.5 -60q63 0 93 51t30 159q0 98 -28.5 148.5t-83.5 50.5q-44 0 -77 -28t-65 -89v-54
z" />
    <glyph glyph-name="seven" unicode="7" horiz-adv-x="516" 
d="M228 651q-41 0 -67 -2t-42 -8.5t-25 -19t-18 -32.5l-17 -39h-40l74 280h42q-2 -9 -3.5 -16t-1.5 -13q0 -18 17 -24.5t63 -6.5h318v-40q-38 -78 -65.5 -135.5t-48.5 -103.5t-38 -86.5t-33.5 -85t-35.5 -97.5t-43 -125q-20 -58 -44 -82.5t-59 -24.5q-30 0 -47 16.5
t-17 46.5q0 13 3.5 27.5t15 38t33.5 61t58 97.5q45 74 74.5 123.5t51.5 89t41 76t44 85.5h-190z" />
    <glyph glyph-name="eight" unicode="8" horiz-adv-x="635" 
d="M260 350q-42 -28 -63.5 -68t-21.5 -88q0 -68 38 -108t103 -40q34 0 62 10t48.5 27.5t32 42t11.5 53.5q0 42 -31 74t-97 61zM452 448q66 -42 102 -101.5t36 -126.5q0 -50 -20.5 -92.5t-57 -73t-87.5 -47.5t-111 -17q-56 0 -104.5 14.5t-84 40t-55.5 60.5t-20 76
q0 57 35 106t101 84q-57 38 -87.5 91t-30.5 113q0 91 67 149q32 28 77.5 42t100.5 14q48 0 91 -11t76 -31q34 -24 52 -59t18 -76q0 -46 -23 -82t-75 -73zM378 469q29 24 44.5 55t15.5 64q0 29 -10 54t-27.5 43.5t-41 29t-51.5 10.5q-27 0 -49.5 -8.5t-39.5 -23t-26.5 -34.5
t-9.5 -43q0 -71 127 -120z" />
    <glyph glyph-name="nine" unicode="9" horiz-adv-x="674" 
d="M45 511q0 56 22.5 105t61.5 85.5t91.5 57.5t112.5 21q65 0 119 -25.5t92.5 -71.5t60 -110t21.5 -140q0 -91 -28 -171.5t-76 -141t-112 -95.5t-137 -35q-40 0 -75 8.5t-60.5 23.5t-40.5 35.5t-15 44.5q0 29 18 45.5t48 16.5q20 0 32.5 -9t21 -22t15.5 -28.5t17.5 -28.5
t26.5 -22t43 -9q34 0 63 21.5t50.5 59t33.5 88.5t12 111l-3 2q-32 -36 -69 -53t-87 -17q-55 0 -102.5 19.5t-82 53.5t-54.5 80.5t-20 100.5zM460 482q0 121 -33.5 182t-97.5 61q-63 0 -93 -51t-30 -159q0 -98 28.5 -148.5t83.5 -50.5q44 0 77 28t65 89v49z" />
    <glyph glyph-name="colon" unicode=":" horiz-adv-x="284" 
d="M66 64q0 32 21.5 54.5t53.5 22.5q33 0 55 -22.5t22 -54.5q0 -31 -22 -52.5t-55 -21.5q-32 0 -53.5 21.5t-21.5 52.5zM66 380q0 32 21.5 54.5t53.5 22.5q33 0 55 -22.5t22 -54.5q0 -31 -22 -52.5t-55 -21.5q-32 0 -53.5 21.5t-21.5 52.5z" />
    <glyph glyph-name="semicolon" unicode=";" horiz-adv-x="295" 
d="M49 -113q54 36 79.5 65t25.5 56q-5 -3 -13.5 -5.5t-16.5 -2.5q-21 0 -36 19t-15 45q0 33 21.5 55t53.5 22q35 0 56 -25t21 -68q0 -54 -36 -103.5t-111 -99.5zM73 380q0 32 21.5 54.5t53.5 22.5q33 0 55 -22.5t22 -54.5q0 -31 -22 -52.5t-55 -21.5q-32 0 -53.5 21.5
t-21.5 52.5z" />
    <glyph glyph-name="less" unicode="&#x3c;" horiz-adv-x="593" 
d="M516 141v-69l-480 232v64l480 232v-69l-420 -195z" />
    <glyph glyph-name="equal" unicode="=" horiz-adv-x="618" 
d="M547 422h-476v60h476v-60zM547 242h-476v60h476v-60z" />
    <glyph glyph-name="greater" unicode="&#x3e;" horiz-adv-x="593" 
d="M497 336l-420 195v69l480 -232v-64l-480 -232v69z" />
    <glyph glyph-name="question" unicode="?" horiz-adv-x="403" 
d="M118 239v237h35q137 0 137 89q0 22 -7 41t-19.5 33.5t-29 23t-35.5 8.5q-20 0 -41 -5.5t-38 -5.5q-29 0 -47.5 16.5t-18.5 42.5q0 30 19.5 45.5t55.5 15.5q45 0 86 -20.5t72.5 -55t50.5 -80t19 -94.5q0 -81 -45 -125.5t-126 -44.5v-121h-68zM72 65q0 32 22 54t54 22
t54 -22t22 -54t-22 -53.5t-54 -21.5t-54 21.5t-22 53.5z" />
    <glyph glyph-name="at" unicode="@" horiz-adv-x="1061" 
d="M713 530h121l-70 -227q-15 -49 -21.5 -80.5t-6.5 -45.5q0 -18 12.5 -29t33.5 -11q31 0 61.5 25t55 64.5t39.5 90t15 101.5q0 66 -27 122.5t-74.5 97.5t-112.5 64t-142 23q-92 0 -170.5 -32.5t-136.5 -90t-91 -135t-33 -167.5q0 -84 29.5 -153.5t83 -119t128.5 -76.5
t166 -27q172 0 320 100l32 -41q-47 -31 -91.5 -53t-89.5 -36.5t-91 -21t-96 -6.5q-113 0 -208 32t-163.5 90t-107 138t-38.5 175q0 100 42.5 187.5t116 152.5t173.5 102t215 37q95 0 173 -26t133.5 -73t86 -113t30.5 -146q0 -69 -22 -132t-59 -110t-86 -75t-103 -28
t-83 29.5t-34 85.5h-4q-33 -55 -78.5 -85t-94.5 -30q-35 0 -65 14.5t-53 40t-36 59.5t-13 72q0 52 25 102t65.5 89t92.5 62.5t106 23.5q49 0 76 -22t42 -76h4zM580 488q-33 0 -63 -21t-53.5 -56t-37.5 -80.5t-14 -94.5q0 -104 60 -104q30 0 61.5 24.5t58 62.5t43 84t16.5 90
q0 46 -18 70.5t-53 24.5z" />
    <glyph glyph-name="A" unicode="A" horiz-adv-x="809" 
d="M501 233h-283q-47 -106 -47 -147q0 -30 22.5 -38t67.5 -8v-40h-274v40q24 3 41.5 8t31 14t23.5 23.5t19 35.5l263 659h74l239 -584q21 -51 35.5 -80t31 -44.5t38 -21.5t55.5 -9v-41h-378v41q48 2 69 10t21 32q0 14 -7 36t-19 54zM241 293h238l-115 303h-4z" />
    <glyph glyph-name="B" unicode="B" horiz-adv-x="797" 
d="M33 0v40q34 1 54.5 6t32 17t15.5 34t4 57v462q0 35 -3 56.5t-12.5 34t-26 17t-43.5 6.5v40h321q151 0 232.5 -48.5t81.5 -138.5q0 -119 -171 -168v-4q55 0 99.5 -15.5t75.5 -43.5t48 -66t17 -83q0 -51 -24.5 -89t-70.5 -64q-89 -50 -245 -50h-385zM425 61q161 0 161 145
q0 89 -58 130q-30 21 -77.5 30t-116.5 9h-48v-200q0 -62 32 -88t107 -26zM345 435q45 0 78 8.5t56 24.5q48 33 48 103q0 73 -36 105.5t-116 32.5h-71q-18 0 -18 -17v-257h59z" />
    <glyph glyph-name="C" unicode="C" horiz-adv-x="823" 
d="M707 770h49l-20 -253h-40q-21 92 -81.5 145t-146.5 53q-59 0 -105 -23.5t-77.5 -67t-48 -106t-16.5 -140.5q0 -155 63.5 -238.5t187.5 -83.5q100 0 165.5 54t93.5 161h44v-271h-47l-14 79q-110 -89 -267 -89q-91 0 -165 27t-126 76.5t-80.5 120.5t-28.5 158q0 91 30 166
t84.5 129t130 83.5t167.5 29.5q61 0 114 -17t115 -55z" />
    <glyph glyph-name="D" unicode="D" horiz-adv-x="919" 
d="M35 0v40q33 1 53.5 5.5t32 17t15.5 34t4 57.5v462q0 35 -3 56.5t-13 34t-27.5 17t-45.5 6.5v40h380q96 0 177 -30t140 -83t92 -126t33 -159q0 -82 -31 -150.5t-86.5 -117.5t-133 -76.5t-170.5 -27.5h-417zM304 709q-17 0 -17 -17v-517q0 -58 36 -86t111 -28
q131 0 201.5 79t70.5 230q0 80 -19 143t-55 106.5t-87.5 66.5t-115.5 23h-125z" />
    <glyph glyph-name="E" unicode="E" horiz-adv-x="764" 
d="M287 426q64 0 103 4t60.5 16.5t30.5 36.5t14 65h37v-293h-37q-6 40 -16 64t-32 36.5t-59.5 16t-100.5 3.5v-206q0 -32 8.5 -54t28.5 -35.5t53 -19t81 -5.5q57 0 96.5 8t65.5 28t42 53.5t27 84.5h40l-16 -229h-678v40q33 1 54 6t32 17t15 34t4 57v462q0 35 -3.5 56.5
t-13.5 34t-28.5 17t-48.5 6.5v40h632l7 -196h-43q-6 42 -19 69.5t-36 44t-59.5 23t-89.5 6.5h-113q-26 0 -32 -6.5t-6 -30.5v-254z" />
    <glyph glyph-name="F" unicode="F" horiz-adv-x="689" 
d="M287 161q0 -38 5 -61.5t20.5 -36t44 -17.5t76.5 -6v-40h-398v40q33 1 54 6t32 17t15 34t4 57v462q0 35 -3.5 56.5t-13.5 34t-28.5 17t-48.5 6.5v40h612l12 -211h-42q-6 43 -17.5 72.5t-32.5 48t-54 26.5t-81 8h-138q-18 0 -18 -17v-289q61 0 99.5 5t61.5 19.5t33 39.5
t14 66h37v-313h-37q-6 42 -17 67.5t-33.5 39t-60.5 18.5t-97 5v-194z" />
    <glyph glyph-name="G" unicode="G" horiz-adv-x="876" 
d="M438 -10q-90 0 -162.5 26.5t-123 76t-78 120t-27.5 158.5q0 91 29.5 166.5t82.5 129.5t127 83.5t164 29.5q62 0 118 -17t121 -55l19 62h36v-253h-50q-20 94 -80.5 146t-151.5 52q-115 0 -178.5 -88.5t-63.5 -247.5q0 -156 62 -239t180 -83q85 0 132.5 43.5t47.5 120.5
q0 46 -24 67.5t-81 26.5v40h324v-40q-49 0 -68 -21.5t-19 -77.5v-133q-22 0 -37 -1.5t-29.5 -6t-32.5 -14.5t-45 -26q-77 -45 -192 -45z" />
    <glyph glyph-name="H" unicode="H" horiz-adv-x="945" 
d="M805 161q0 -38 3.5 -61.5t15 -36t32 -17.5t54.5 -6v-40h-367v40q37 1 59.5 6t35 17t16.5 34t4 57v209h-371v-202q0 -38 4 -61.5t16 -36t34.5 -17.5t59.5 -6v-40h-366v40q34 1 54.5 6t31.5 17t15 34t4 57v462q0 35 -3.5 56.5t-13.5 34t-28.5 17t-48.5 6.5v40h345v-40
q-34 -1 -54.5 -6t-31.5 -18t-14.5 -36t-3.5 -61v-184h371v191q0 35 -4 56.5t-15 34t-31.5 17t-54.5 6.5v40h346v-40q-30 -1 -48.5 -6t-28.5 -18t-13.5 -36t-3.5 -61v-448z" />
    <glyph glyph-name="I" unicode="I" horiz-adv-x="429" 
d="M393 0h-357v40q34 1 54.5 6.5t31.5 20.5t15 42.5t4 74.5v402q0 42 -3.5 69.5t-13.5 43.5t-28.5 22.5t-49.5 8.5v40h337v-40q-31 -2 -49.5 -8.5t-28.5 -22.5t-13.5 -43.5t-3.5 -69.5v-402q0 -47 3.5 -74.5t15 -42.5t32 -20.5t54.5 -6.5v-40z" />
    <glyph glyph-name="J" unicode="J" horiz-adv-x="407" 
d="M130 616q0 35 -3.5 56.5t-13.5 34t-28.5 17t-49.5 6.5v40h337v-40q-31 -1 -50 -6t-29 -18t-13 -36t-3 -61v-611q0 -126 -64 -192t-191 -66q-91 0 -140.5 31t-49.5 79q0 29 18.5 44.5t45.5 15.5q23 0 36.5 -12t33.5 -45t36 -44t39 -11q43 0 66 47t23 132v639z" />
    <glyph glyph-name="K" unicode="K" horiz-adv-x="822" 
d="M287 161q0 -38 3.5 -61t13.5 -36t28.5 -18t49.5 -6v-40h-347v40q33 1 54 6t32 17t15 34t4 57v462q0 34 -3.5 56t-13.5 34t-28.5 17t-48.5 7v40h345v-40q-34 -1 -54.5 -6t-31.5 -18t-14.5 -36t-3.5 -61v-222l259 278q23 25 23 42q0 11 -14.5 17t-53.5 6v40h273v-39
q-22 -1 -38.5 -4t-33 -13t-37 -28.5t-50.5 -49.5l-178 -186l294 -358q21 -26 46.5 -38t65.5 -14v-40h-370v40q41 1 59 7t18 20q0 5 -1.5 9.5t-5 11t-10.5 16t-19 23.5l-177 218l-50 -52v-132z" />
    <glyph glyph-name="L" unicode="L" horiz-adv-x="755" 
d="M724 0h-689v40q33 1 54 6t32 17t15 34t4 57v462q0 35 -3.5 56.5t-13.5 34t-28.5 17t-48.5 6.5v40h345v-40q-34 -1 -54.5 -6t-31.5 -18t-14.5 -36t-3.5 -61v-419q0 -42 8.5 -68.5t29.5 -41t56 -20t87 -5.5q58 0 97 7t65.5 26.5t42.5 52.5t27 86h40z" />
    <glyph glyph-name="M" unicode="M" horiz-adv-x="1145" 
d="M581 187l231 583h292v-40q-33 0 -53.5 -6.5t-31.5 -23.5t-14.5 -46.5t-3.5 -74.5v-388q0 -50 4 -79t16 -45t34.5 -21t59.5 -6v-40h-376v40q37 1 59.5 6.5t35 20.5t16.5 42.5t4 74.5v468h-5l-269 -662h-74l-278 662h-4v-461q0 -50 4 -79t16 -45t34.5 -21t59.5 -6v-40h-308
v40q37 1 60 6.5t35.5 20.5t16.5 42.5t4 74.5v402q0 42 -4 70t-15 44.5t-31.5 23t-54.5 6.5v40h303l233 -583h4z" />
    <glyph glyph-name="N" unicode="N" horiz-adv-x="940" 
d="M670 -10l-443 631h-4v-430q0 -50 3.5 -79t15 -45t32 -21t53.5 -6v-40h-297v40q37 1 59.5 6.5t35 20.5t16.5 42.5t4 74.5v402q0 42 -4 69.5t-15 43.5t-31.5 22.5t-54.5 8.5v40h279l403 -578h4v387q0 49 -3.5 78.5t-15 45.5t-32 21t-53.5 6v40h297v-40q-37 -1 -59.5 -6.5
t-35 -20.5t-16.5 -43t-4 -74v-596h-134z" />
    <glyph glyph-name="O" unicode="O" horiz-adv-x="943" 
d="M472 780q90 0 168 -31t135.5 -85t90.5 -127t33 -158q0 -81 -33.5 -152t-91 -123.5t-135.5 -83t-167 -30.5t-167 30.5t-136 83t-91 123.5t-33 152q0 85 33 158t90.5 127t135.5 85t168 31zM472 55q58 0 105 22.5t80 64t50.5 101t17.5 133.5q0 78 -17.5 140.5t-50.5 107
t-80 68t-105 23.5q-59 0 -105.5 -23.5t-79.5 -68t-50.5 -107t-17.5 -140.5q0 -74 17.5 -133.5t50.5 -101t79.5 -64t105.5 -22.5z" />
    <glyph glyph-name="P" unicode="P" horiz-adv-x="717" 
d="M700 556q0 -108 -84 -164.5t-244 -56.5h-85v-176q0 -38 5 -61.5t21 -36.5t44 -17t75 -4v-40h-397v40q33 1 54 6t32 17t15 34t4 57v462q0 35 -3.5 56.5t-13.5 34t-28.5 17t-48.5 6.5v40h346q152 0 230 -54t78 -160zM287 395h65q97 0 142 39t45 123q0 75 -38 116t-119 41
h-77q-18 0 -18 -17v-302z" />
    <glyph glyph-name="Q" unicode="Q" horiz-adv-x="949" 
d="M471 780q91 0 170 -31t137.5 -85.5t92 -128t33.5 -157.5q0 -103 -50.5 -189.5t-141.5 -145.5q-17 -11 -32.5 -19.5t-35.5 -17.5t-46.5 -19t-63.5 -23q-22 -8 -37.5 -14t-27.5 -11.5t-21.5 -11t-18.5 -11.5v-4q7 1 18 1.5t21 0.5q43 0 81.5 -9.5t76 -20.5t75.5 -20.5
t80 -9.5q48 0 75 17t42 57h37q2 -13 3 -24t1 -19q0 -31 -14 -57.5t-39 -46t-59 -30.5t-73 -11q-56 0 -104 19t-92 42t-84 42t-79 19q-27 0 -44 -9t-30.5 -19.5t-27 -19.5t-32.5 -9q-17 0 -27 8t-10 20q0 17 15.5 31.5t57.5 37.5l126 71q-80 7 -149 41t-119.5 88t-79.5 124.5
t-29 150.5q0 85 32.5 159t89.5 128t135 85t168 31zM471 30q59 0 107 24.5t81.5 69.5t52 109t18.5 142t-18.5 141t-52 107t-81.5 68t-107 24t-105.5 -23.5t-78.5 -67.5t-49.5 -107t-17.5 -142q0 -80 17.5 -144t50 -108.5t79 -68.5t104.5 -24z" />
    <glyph glyph-name="R" unicode="R" horiz-adv-x="815" 
d="M695 577q0 -83 -48 -139t-153 -75l232 -266q24 -28 57 -42.5t67 -14.5v-40h-237l-248 304q-25 30 -43.5 40.5t-34.5 10.5v-196q0 -37 5 -60.5t20 -36.5t43.5 -17.5t76.5 -4.5v-40h-397v40q33 0 53.5 4.5t32 17t15.5 35t4 57.5v462q0 35 -3 56.5t-13 34t-28.5 17
t-49.5 6.5v40h346q145 0 224 -51t79 -142zM287 415h65q94 0 140.5 36.5t46.5 120.5q0 64 -39 103t-108 39h-87q-18 0 -18 -17v-282z" />
    <glyph glyph-name="S" unicode="S" horiz-adv-x="663" 
d="M54 255h39q14 -95 76 -149.5t153 -54.5q37 0 68 9t53 25.5t34 39t12 50.5q0 24 -7.5 41.5t-28.5 34t-57.5 33.5t-94.5 39q-117 45 -173 104.5t-56 140.5q0 47 18 86t50.5 67t78 43.5t100.5 15.5q51 0 96 -16t89 -48l18 50h24l11 -216h-39q-24 82 -75 125.5t-118 43.5
q-62 0 -100.5 -30.5t-38.5 -78.5q0 -21 7 -37.5t26 -31.5t52 -30.5t85 -34.5q70 -27 119.5 -54.5t81 -59t46.5 -66.5t15 -77q0 -51 -22 -93t-61.5 -72t-94 -47t-120.5 -17q-60 0 -108 16.5t-99 53.5l-20 -60h-24z" />
    <glyph glyph-name="T" unicode="T" horiz-adv-x="827" 
d="M815 550h-43q-3 49 -14.5 81.5t-32.5 52t-51 27t-70 7.5q-39 0 -62.5 -1.5t-36 -5t-16.5 -9.5t-4 -15v-524q0 -32 4.5 -55t18.5 -37.5t41 -22t71 -8.5v-40h-419v40q45 1 72 8.5t41.5 22t19 37.5t4.5 55v524q0 9 -3.5 15t-14.5 9.5t-31.5 5t-53.5 1.5q-36 0 -69 -3.5
t-58 -20t-40.5 -50t-16.5 -94.5h-39l10 220h783z" />
    <glyph glyph-name="U" unicode="U" horiz-adv-x="880" 
d="M757 310q0 -85 -18.5 -145.5t-57.5 -99.5t-100.5 -57t-147.5 -18q-161 0 -235.5 67.5t-74.5 215.5v274q0 39 -1 65.5t-3 44.5t-5.5 29.5t-8.5 19.5q-9 14 -26 19t-52 5v40h359v-40q-42 0 -62 -4.5t-31 -17.5q-7 -8 -11.5 -19.5t-7 -30t-3.5 -45.5t-1 -66v-262
q0 -114 48.5 -168.5t149.5 -54.5q206 0 206 229v231q0 42 -1.5 72t-5 51t-9 35t-13.5 23q-14 14 -36 20.5t-61 6.5v40h324v-40q-37 0 -57 -5.5t-31 -19.5q-8 -9 -13 -23.5t-8 -36t-4.5 -51.5t-1.5 -72v-212z" />
    <glyph glyph-name="V" unicode="V" horiz-adv-x="805" 
d="M438 172l130 333q19 49 30.5 80t17.5 51t8 32t2 23q0 24 -18 31.5t-72 7.5v40h284v-40q-83 0 -115 -81l-263 -659h-74l-239 584q-20 47 -36 77t-34 47.5t-39.5 24t-50.5 6.5v41h378v-41q-26 -1 -43.5 -3t-27.5 -6.5t-14 -12t-4 -18.5q0 -14 5 -33t15 -46z" />
    <glyph glyph-name="W" unicode="W" horiz-adv-x="1227" 
d="M887 194l135 386q24 67 24 100q0 31 -21.5 40.5t-66.5 9.5v40h284v-40q-38 0 -68.5 -18.5t-46.5 -62.5l-241 -659h-89l-174 528l-198 -528h-83l-212 584q-19 51 -35 82t-34 47t-39 21t-50 5v41h378v-41q-51 0 -70 -9.5t-19 -31.5q0 -8 1 -15.5t4 -17t7.5 -23.5t12.5 -35
l140 -403l162 442q-10 27 -20 44t-23.5 27t-30.5 14.5t-41 7.5v41h353v-41q-42 0 -62 -10.5t-20 -40.5q0 -15 4.5 -35t12.5 -46z" />
    <glyph glyph-name="X" unicode="X" horiz-adv-x="848" 
d="M726 111q25 -34 58.5 -52.5t74.5 -18.5v-40h-373v40q25 0 40.5 2t24 5t11 8t2.5 11t-2.5 12.5t-8.5 16.5t-16 25t-26 37l-107 152l-69 -85q-22 -27 -42.5 -50t-37 -43t-26.5 -35.5t-10 -27.5q0 -16 20 -22t66 -6v-40h-307v40q27 0 46.5 2.5t35 9.5t29 19.5t30.5 32.5
l219 267l-233 302q-27 35 -54 46t-61 11v40h376v-40q-36 0 -52 -9t-16 -27q0 -27 30 -67l103 -142l129 154q15 18 21.5 32.5t6.5 27.5q0 7 -3 13t-11.5 10t-24.5 6t-42 2v40h298v-40q-42 0 -65 -6t-38 -24l-223 -276z" />
    <glyph glyph-name="Y" unicode="Y" horiz-adv-x="760" 
d="M101 644q-15 26 -27.5 43t-25.5 26.5t-28 13t-34 3.5v40h336v-40q-42 0 -59 -8t-17 -24q0 -10 6 -24t19 -38l143 -273h4l126 210q33 56 46 83.5t13 43.5q0 17 -15.5 23.5t-57.5 6.5v40h251v-40q-22 0 -40 -7t-37.5 -27.5t-44 -57t-58.5 -95.5l-146 -250v-102
q0 -50 4.5 -80t16 -45.5t31.5 -20.5t52 -5v-40h-356v40q31 0 51.5 5t32.5 20t16.5 43.5t4.5 75.5v92z" />
    <glyph glyph-name="Z" unicode="Z" horiz-adv-x="797" 
d="M747 0h-732v23l503 695h-253q-74 0 -111.5 -37t-51.5 -115h-39l16 204h648v-23l-498 -691h286q54 0 88.5 9t56 32t33.5 61t21 97h46z" />
    <glyph glyph-name="bracketleft" unicode="[" horiz-adv-x="392" 
d="M220 768v-866h159v-52h-283v970h283v-52h-159z" />
    <glyph glyph-name="backslash" unicode="\" horiz-adv-x="477" 
d="M22 770h61l371 -770h-71z" />
    <glyph glyph-name="bracketright" unicode="]" horiz-adv-x="392" 
d="M13 768v52h283v-970h-283v52h159v866h-159z" />
    <glyph glyph-name="asciicircum" unicode="^" horiz-adv-x="492" 
d="M293 410l135 -180h-57l-125 99l-125 -99h-57l135 180h94z" />
    <glyph glyph-name="underscore" unicode="_" horiz-adv-x="730" 
d="M66 -148v78h598v-78h-598z" />
    <glyph glyph-name="grave" unicode="`" horiz-adv-x="299" 
d="M219 651l-134 60q-32 14 -50.5 27t-18.5 30q0 21 15 33t40 12q20 0 40.5 -10t44.5 -33l127 -119h-64z" />
    <glyph glyph-name="a" unicode="a" horiz-adv-x="574" 
d="M344 285q-84 -38 -126.5 -70.5t-42.5 -67.5q0 -29 16 -46t40 -17t45 8.5t36 22.5t23.5 33.5t8.5 41.5v95zM344 338v42q0 58 -20.5 84.5t-63.5 26.5q-29 0 -44 -15.5t-28 -51.5q-9 -25 -25.5 -39t-45.5 -14q-28 0 -43 17t-15 48q0 48 52.5 76t158.5 28q112 0 160 -40.5
t48 -135.5v-219q0 -85 34 -85q19 0 35 13l15 -29q-14 -25 -43.5 -39.5t-66.5 -14.5q-46 0 -70 28t-24 79h-5q-29 -52 -75 -79t-105 -27q-63 0 -101 35.5t-38 92.5q0 44 39 82.5t130 75.5z" />
    <glyph glyph-name="b" unicode="b" horiz-adv-x="674" 
d="M225 219q0 -37 10.5 -68.5t28.5 -54.5t43 -36t55 -13q60 0 91 55t31 162q0 104 -30.5 158.5t-91.5 54.5q-36 0 -66.5 -19.5t-47.5 -54.5q-23 -48 -23 -121v-63zM223 461h4q26 38 67 58.5t93 20.5q53 0 98.5 -21.5t79 -58.5t52.5 -87t19 -107q0 -60 -20.5 -110.5
t-56 -87.5t-83 -58t-100.5 -21q-55 0 -103.5 21.5t-77.5 56.5l-76 -67h-34v595q0 94 -13 129q-3 7 -7 12t-11.5 8.5t-20.5 6t-34 5.5v34l224 40v-369z" />
    <glyph glyph-name="c" unicode="c" horiz-adv-x="564" 
d="M528 83q-38 -42 -94.5 -65t-122.5 -23q-61 0 -111 19.5t-86 54.5t-55.5 84.5t-19.5 109.5q0 62 21 113t59 87.5t91 56.5t117 20q45 0 83.5 -9t66 -25t43.5 -37.5t16 -46.5q0 -29 -16.5 -46t-44.5 -17q-23 0 -40.5 12t-34.5 39q-15 24 -25.5 38t-19.5 21.5t-18 10t-22 2.5
q-58 0 -90 -54t-32 -151q0 -104 38.5 -160t110.5 -56q41 0 82 15.5t78 44.5z" />
    <glyph glyph-name="d" unicode="d" horiz-adv-x="694" 
d="M481 64h-4q-69 -74 -179 -74q-57 0 -104.5 20t-82 56t-53.5 85.5t-19 109.5t19.5 111t53 88.5t80 58.5t100.5 21q50 0 88.5 -15t67.5 -51h4v85q0 59 -1.5 101.5t-4.5 55.5q-5 21 -30.5 30.5t-78.5 9.5v34l253 40v-572q0 -75 1.5 -115.5t5.5 -61.5q2 -13 6 -21t12 -12.5
t21.5 -6t34.5 -1.5v-39l-190 -11v74zM450 287q0 38 -8 70.5t-24 57.5q-18 29 -46 44t-60 15q-59 0 -90 -54t-31 -157q0 -104 31 -160t89 -56q33 0 63 17t49 46q14 22 20.5 54.5t6.5 83.5v39z" />
    <glyph glyph-name="e" unicode="e" 
d="M540 93q-91 -103 -227 -103q-62 0 -112.5 19.5t-86.5 55t-56 84.5t-20 109q0 62 21 113.5t59.5 89t91 58.5t115.5 21q106 0 165 -57t59 -160q0 -16 -5 -19.5t-28 -3.5h-322q-4 -9 -4 -33q0 -98 42.5 -155t115.5 -57q42 0 83.5 19t80.5 54zM346 356q40 0 51.5 4.5
t11.5 21.5q0 44 -25 72t-63 28q-43 0 -76.5 -35.5t-43.5 -90.5h145z" />
    <glyph glyph-name="f" unicode="f" horiz-adv-x="443" 
d="M17 530h108v56q0 54 18.5 99t51.5 77.5t79.5 50t103.5 17.5q34 0 62.5 -6.5t49.5 -17.5t32.5 -27t11.5 -34q0 -23 -17 -38t-43 -15q-18 0 -31.5 12t-40.5 44q-12 14 -25 20t-27 6q-40 0 -63 -48.5t-23 -133.5v-62h169v-55h-169v-309q0 -38 4.5 -62t17 -38t33.5 -19.5
t54 -6.5v-40h-338v40q30 1 48 5.5t27 17t12 35t3 60.5v317h-108v55z" />
    <glyph glyph-name="g" unicode="g" horiz-adv-x="610" 
d="M228 108q27 -2 47.5 -4t39 -4.5l37 -5t39.5 -5.5q78 -11 122.5 -58.5t44.5 -117.5q0 -85 -70 -129t-206 -44q-125 0 -192.5 36.5t-67.5 103.5q0 52 27 78.5t68 26.5q26 0 50.5 -10.5t41.5 -30.5q-26 -5 -42.5 -23.5t-16.5 -43.5q0 -40 35.5 -61.5t104.5 -21.5
q150 0 150 95q0 34 -22.5 58.5t-64.5 29.5l-175 24q-111 15 -111 99q0 41 26.5 67t75.5 36v4q-23 9 -41.5 25t-32.5 37t-21.5 45.5t-7.5 50.5q0 37 15.5 69.5t43 55.5t65 36.5t81.5 13.5q43 0 84 -13t70 -36q23 14 40 23.5t31.5 15t26.5 8t24 2.5q38 0 61.5 -17t23.5 -45
q0 -21 -13 -34.5t-34 -13.5q-15 0 -24 6.5t-17.5 15t-17.5 15t-24 6.5q-21 0 -40 -27q10 -17 14 -36.5t4 -45.5q0 -38 -12 -70t-37.5 -56.5t-65.5 -41.5t-97 -23q-48 -5 -66.5 -13t-18.5 -24q0 -24 45 -28zM276 230q32 0 50 34t18 95q0 62 -18 95.5t-51 33.5q-34 0 -54 -34
t-20 -93q0 -60 20.5 -95.5t54.5 -35.5z" />
    <glyph glyph-name="h" unicode="h" horiz-adv-x="714" 
d="M244 164q0 -41 2.5 -64.5t11 -36.5t26 -17t47.5 -6v-40h-315v40q30 2 48 6t27 16t11.5 34.5t2.5 60.5v411q0 60 -1.5 94.5t-5.5 52.5q-3 13 -7 20.5t-12.5 12t-23 6t-36.5 1.5v37l223 38v-369h4q31 41 69.5 60t92.5 19q98 0 152 -60q26 -30 41 -72.5t15 -88.5v-155
q0 -42 2 -65.5t10.5 -36t25.5 -16.5t47 -6v-40h-313v40q30 1 47.5 5.5t27 16.5t12 34.5t2.5 60.5v123q0 106 -23 150t-79 44q-60 0 -95 -44q-17 -23 -26.5 -57t-9.5 -76v-133z" />
    <glyph glyph-name="i" unicode="i" horiz-adv-x="361" 
d="M257 164q0 -40 3 -64t12 -37t26 -17.5t46 -5.5v-40h-315v40q28 1 45.5 6.5t27 18t13 35t3.5 57.5v123q0 58 -2 95.5t-5 51.5q-5 25 -22.5 33t-63.5 8v34l232 38v-376zM110 752q0 33 22.5 55.5t54.5 22.5q33 0 55.5 -22.5t22.5 -55.5q0 -32 -22.5 -54.5t-55.5 -22.5
q-32 0 -54.5 22.5t-22.5 54.5z" />
    <glyph glyph-name="j" unicode="j" horiz-adv-x="331" 
d="M246 -2q0 -125 -60.5 -191.5t-174.5 -66.5q-77 0 -120.5 28.5t-43.5 70.5q0 25 16.5 38.5t37.5 13.5q28 0 42 -15.5t25 -33.5t24.5 -33.5t40.5 -15.5q37 0 55.5 29t18.5 100v368q0 55 -2.5 90t-5.5 48q-5 23 -22 31.5t-63 8.5v34l232 38v-542zM99 752q0 33 22.5 55.5
t54.5 22.5q33 0 55.5 -22.5t22.5 -55.5q0 -32 -22.5 -54.5t-55.5 -22.5q-32 0 -54.5 22.5t-22.5 54.5z" />
    <glyph glyph-name="k" unicode="k" horiz-adv-x="664" 
d="M358 40q32 0 45 2.5t13 10.5q0 6 -13.5 29.5t-34.5 54.5l-76 114l-50 -48v-39q0 -39 3 -63t10.5 -37.5t21 -18.5t34.5 -5v-40h-295v40q28 1 45 6t27 17.5t13.5 35t3.5 58.5v424q0 61 -2 96t-10.5 52.5t-26 21.5t-47.5 4v37l223 38v-556l96 91q52 49 74 73.5t22 35.5
q0 9 -18.5 12.5t-68.5 3.5v40h273v-40q-38 0 -67 -13t-63 -45l-97 -91l173 -245q23 -32 45 -44t58 -12v-40h-311v40z" />
    <glyph glyph-name="l" unicode="l" horiz-adv-x="355" 
d="M247 164q0 -40 3 -64t12 -37t26 -17.5t46 -5.5v-40h-315v40q28 1 45.5 6.5t27 18t13 35t3.5 57.5v413q0 58 -2 95.5t-5 51.5q-5 25 -22.5 33t-63.5 8v34l232 38v-666z" />
    <glyph glyph-name="m" unicode="m" horiz-adv-x="1106" 
d="M258 165q0 -42 2 -66t11 -36.5t26 -16.5t47 -6v-40h-316v40q30 2 48 6t27 16t12 34.5t3 60.5v124q0 57 -1.5 95t-5.5 52q-3 13 -7.5 20.5t-14 12t-24.5 6t-39 1.5v34l193 38l12 -87h6q42 47 84.5 67t98.5 20q66 0 109 -23t65 -66h4q36 42 86 65.5t107 23.5
q60 0 104.5 -15t69.5 -43q20 -23 29.5 -60t9.5 -103v-154q0 -41 2.5 -65t11.5 -37t26 -17t47 -6v-40h-316v40q30 1 47.5 5.5t27 17t12 34.5t2.5 60v131q0 52 -6 88t-19 58t-34.5 31.5t-52.5 9.5q-35 0 -57.5 -17t-37.5 -44q-26 -47 -26 -117v-132q0 -41 2 -65t11 -37
t26.5 -17t48.5 -6v-40h-317v40q30 2 47.5 6t27 16t12 34.5t2.5 60.5v131q0 52 -6 88t-19.5 58t-35.5 31.5t-55 9.5t-54.5 -16t-35.5 -43q-13 -24 -20 -55t-7 -64v-132z" />
    <glyph glyph-name="n" unicode="n" horiz-adv-x="727" 
d="M257 163q0 -41 2.5 -64.5t11 -36t26 -16.5t47.5 -6v-40h-315v40q29 2 46.5 6t27 16t12.5 34t3 60v125q0 59 -2 95.5t-5 49.5t-8 21.5t-15 13t-25 6t-38 1.5v34l193 38l13 -88h4q33 42 78 65t99 23q64 0 103.5 -17.5t70.5 -58.5q17 -23 30 -59.5t13 -100.5v-141
q0 -41 2.5 -64.5t11 -36t25.5 -16.5t46 -6v-40h-313v40q30 1 47.5 5.5t26.5 16.5t12 34.5t3 59.5v136q0 51 -6 86t-19.5 56.5t-35.5 31t-55 9.5q-32 0 -55 -18t-40 -50q-9 -18 -15.5 -46.5t-6.5 -59.5v-138z" />
    <glyph glyph-name="o" unicode="o" horiz-adv-x="660" 
d="M328 540q60 0 113.5 -20.5t94 -56.5t64 -85.5t23.5 -108.5q0 -61 -23.5 -112t-64 -88t-94 -58t-113.5 -21q-59 0 -112 20.5t-93 57.5t-63 88.5t-23 112.5q0 59 23 109t63 86t93 56t112 20zM328 482q-30 0 -55 -15.5t-42.5 -43.5t-27 -67.5t-9.5 -87.5q0 -50 9.5 -90
t27 -68t42 -43.5t55.5 -15.5t56.5 15.5t43.5 44t28 68.5t10 89q0 48 -10 87t-28 67.5t-43.5 44t-56.5 15.5z" />
    <glyph glyph-name="p" unicode="p" horiz-adv-x="697" 
d="M218 465h4q66 75 172 75q58 0 106.5 -20.5t84 -57t55 -87t19.5 -110.5t-19.5 -110t-54.5 -87t-83.5 -57.5t-105.5 -20.5q-97 0 -148 66h-4v-139q0 -40 4 -64t17 -37t36.5 -18t62.5 -6v-42h-345v42q27 1 44 6t26.5 18t13 35.5t3.5 58.5v372q0 46 -2 87.5t-5 58.5
q-5 23 -22.5 32t-59.5 9v39l201 28v-71zM388 483q-32 0 -61 -14t-46 -37t-26 -57.5t-9 -74.5v-68q0 -71 35 -121q38 -55 107 -55q61 0 90.5 50.5t29.5 156.5q0 220 -120 220z" />
    <glyph glyph-name="q" unicode="q" horiz-adv-x="674" 
d="M449 311q0 37 -10.5 68t-28.5 54t-42.5 36t-53.5 13q-60 0 -92 -55t-32 -158q0 -104 32 -159t92 -55q36 0 65.5 19t46.5 54q23 49 23 121v62zM451 62h-5q-35 -38 -70.5 -55t-82.5 -17q-55 0 -101.5 20.5t-80.5 57t-53 86.5t-19 109q0 61 19 111.5t53.5 87.5t82 57.5
t104.5 20.5q100 0 171 -68l76 58h44v-615q0 -42 2.5 -66t12.5 -37t29.5 -17t52.5 -5v-40h-358v40q36 1 60 6.5t38 19t19.5 36t5.5 56.5v154z" />
    <glyph glyph-name="r" unicode="r" horiz-adv-x="498" 
d="M258 155q0 -39 3.5 -61.5t14.5 -34.5t32 -15.5t56 -3.5v-40h-334v40q30 2 48 6t27 16t11.5 34.5t2.5 60.5v122q0 62 -3 99t-13 57t-28.5 26.5t-48.5 6.5v35l200 37l16 -115h4q27 53 71 84t93 31q38 0 62 -19t24 -48q0 -32 -18.5 -54t-50.5 -22q-15 0 -27 6t-21.5 13.5
t-19 14t-19.5 6.5q-19 0 -36 -25t-28 -67q-8 -30 -13 -67.5t-5 -74.5v-48z" />
    <glyph glyph-name="s" unicode="s" horiz-adv-x="466" 
d="M85 0h-31v182h42q17 -72 49 -105t83 -33q37 0 57.5 15.5t20.5 42.5q0 28 -25 54.5t-81 56.5q-76 41 -109 81.5t-33 91.5q0 33 12.5 61.5t34 49.5t51.5 32.5t65 11.5q31 0 61.5 -9t53.5 -25l18 24h26v-151h-39q-23 57 -47.5 82t-59.5 25q-28 0 -44.5 -15t-16.5 -40
q0 -28 24.5 -53t81.5 -55q40 -22 69 -43t47 -42.5t26.5 -45t8.5 -50.5q0 -35 -13 -63t-37 -48t-57.5 -31t-74.5 -11q-43 0 -80 11.5t-61 33.5z" />
    <glyph glyph-name="t" unicode="t" horiz-adv-x="382" 
d="M25 475v45q60 17 100.5 51.5t60.5 79.5h51v-121h115v-55h-115v-307q0 -62 13.5 -88t45.5 -26q39 0 59 36l21 -29q-28 -71 -132 -71q-69 0 -107.5 32t-38.5 90v363h-73z" />
    <glyph glyph-name="u" unicode="u" horiz-adv-x="709" 
d="M465 366q0 40 -2 63.5t-11 36t-26.5 17t-47.5 7.5v40h226v-303q0 -61 1.5 -95.5t5.5 -51.5q3 -13 7 -20.5t13 -12t24.5 -6t40.5 -1.5v-39l-199 -12l-11 89h-4q-26 -42 -73 -65t-105 -23q-107 0 -163 76q-43 58 -43 165v135q0 41 -2 64.5t-10.5 35.5t-25.5 16.5t-47 7.5
v40h224v-283q0 -101 25 -146.5t80 -45.5q59 0 91 54q32 52 32 153v104z" />
    <glyph glyph-name="v" unicode="v" horiz-adv-x="624" 
d="M101 401q-11 29 -21 46.5t-20.5 27t-23 12.5t-29.5 3v40h299v-40q-25 0 -39.5 -2t-22 -6t-9.5 -10.5t-2 -14.5q0 -13 5 -30t12 -34l95 -262h4l107 261q7 17 11 30.5t4 24.5q0 22 -15 32t-53 11v40h221v-40q-27 0 -46.5 -14t-40.5 -62l-187 -424h-91z" />
    <glyph glyph-name="w" unicode="w" horiz-adv-x="891" 
d="M313 -10h-75l-137 411q-16 48 -37 67.5t-56 21.5v40h286v-40q-36 -1 -50 -10.5t-14 -32.5q0 -11 3 -24t8 -30l63 -234h4l140 371h82l105 -371h5l80 207q10 25 14 43.5t4 32.5q0 26 -17 37t-46 11v40h215v-40q-18 0 -30 -4t-24 -19t-26 -46t-35 -85l-138 -346h-79
l-106 355h-4z" />
    <glyph glyph-name="x" unicode="x" horiz-adv-x="648" 
d="M406 404q21 27 28 38t7 22q0 14 -11.5 20t-38.5 6v40h230v-40q-19 -1 -34 -4t-30 -11.5t-31 -23.5t-37 -39l-102 -118l158 -203q23 -30 45 -40.5t55 -10.5v-40h-318v40q29 0 40.5 5t11.5 19q0 11 -7 23.5t-21 32.5l-58 80l-44 -53q-17 -21 -27 -34t-15 -21t-6.5 -12.5
t-1.5 -8.5q0 -17 14.5 -24t46.5 -7v-40h-251v40q32 0 62 9.5t47 29.5l139 163l-167 212q-19 24 -33.5 30t-39.5 6v40h305v-40q-51 0 -51 -28q0 -10 11 -26l71 -100z" />
    <glyph glyph-name="y" unicode="y" horiz-adv-x="646" 
d="M287 -157q-11 -22 -27.5 -41t-37 -32.5t-42.5 -21.5t-44 -8q-33 0 -53 16t-20 43q0 25 17.5 39t56.5 17q89 7 115 56l27 52l-177 438q-12 29 -20.5 46t-18.5 26.5t-23 12.5t-32 4v40h303v-40q-39 0 -54.5 -7.5t-15.5 -27.5q0 -8 2.5 -18.5t6.5 -21.5l102 -292h4l86 195
q13 31 22 51.5t13.5 35t6.5 23.5t2 18q0 26 -14.5 35t-58.5 9v40h241v-40q-20 0 -34 -5.5t-28.5 -22.5t-32 -50.5t-43.5 -88.5z" />
    <glyph glyph-name="z" unicode="z" horiz-adv-x="568" 
d="M520 0h-494v23l313 454h-92q-43 0 -70 -3.5t-43.5 -15t-25 -31.5t-14.5 -53h-39l12 156h451v-23l-308 -453h88q52 0 86 4.5t55 17t33 35t21 59.5h39z" />
    <glyph glyph-name="braceleft" unicode="{" horiz-adv-x="354" 
d="M237 5q0 -52 18.5 -80.5t72.5 -42.5v-32q-62 0 -103.5 7t-66 24.5t-35 47.5t-10.5 75v191q0 22 -4.5 44.5t-15.5 40.5t-29 30.5t-45 14.5v35q30 6 48 16t28.5 25.5t14 37t3.5 50.5v170q0 48 8.5 80.5t31.5 52.5t64 29t106 9v-33q-49 -11 -67.5 -41t-18.5 -81v-174
q0 -31 -4 -56.5t-17 -45.5t-37.5 -33.5t-64.5 -20.5v-5q38 -5 62 -16.5t37.5 -29.5t18.5 -42t5 -54v-193z" />
    <glyph glyph-name="bar" unicode="|" horiz-adv-x="295" 
d="M201 820v-1070h-107v1070h107z" />
    <glyph glyph-name="braceright" unicode="}" horiz-adv-x="354" 
d="M117 198q0 30 5 54t18.5 42t37.5 29.5t62 16.5v5q-41 7 -65 20.5t-37 33.5t-17 45.5t-4 56.5v174q0 51 -18.5 81t-67.5 41v33q65 0 106 -9t64 -29t31.5 -52.5t8.5 -80.5v-170q0 -29 3.5 -50.5t14 -37t28.5 -25.5t48 -16v-35q-27 -2 -45 -14.5t-29 -30.5t-15.5 -40.5
t-4.5 -44.5v-191q0 -45 -10.5 -75t-35 -47.5t-66 -24.5t-103.5 -7v32q54 14 72.5 42.5t18.5 80.5v193z" />
    <glyph glyph-name="asciitilde" unicode="~" horiz-adv-x="562" 
d="M73 249q10 62 43 98t80 36q22 0 47.5 -7t51.5 -16t52 -16t48 -7q21 0 32.5 9.5t19.5 32.5h45q-11 -66 -43 -102t-80 -36q-24 0 -48 7.5t-49.5 16.5t-51.5 16.5t-53 7.5q-21 0 -30.5 -7.5t-17.5 -32.5h-46z" />
    <glyph glyph-name="uni00A0" unicode="&#xa0;" horiz-adv-x="266" 
 />
    <glyph glyph-name="exclamdown" unicode="&#xa1;" horiz-adv-x="311" 
d="M186 563q0 -91 6 -154t14 -111q5 -30 10 -56.5t9 -52t6.5 -52t2.5 -57.5q0 -90 -78 -90t-78 90q0 31 2.5 57.5t6.5 52t9 52t10 56.5q8 48 14 110.5t6 154.5h60zM231 705q0 -32 -22 -54t-54 -22t-54 22t-22 54t22 53.5t54 21.5t54 -21.5t22 -53.5z" />
    <glyph glyph-name="cent" unicode="&#xa2;" horiz-adv-x="579" 
d="M349 683v-143q48 -2 84 -13t60 -28.5t36 -38t12 -41.5q0 -22 -14.5 -41t-46.5 -19q-19 0 -37 10t-38 42q-14 26 -27 42t-29 23v-414q46 1 84 15.5t74 43.5l26 -38q-31 -35 -79.5 -58t-104.5 -31v-141h-64v137q-54 2 -98 22.5t-76 56t-49.5 84.5t-17.5 108q0 57 17 105
t48.5 83.5t76 58t99.5 29.5v146h64zM198 276q0 -165 87 -203v406q-87 -26 -87 -203z" />
    <glyph glyph-name="sterling" unicode="&#xa3;" horiz-adv-x="708" 
d="M242 77q-32 20 -53 28t-38 8q-38 0 -38 -32t45 -32q23 0 45 7t39 21zM344 431h213v-61h-199q8 -29 11 -51t3 -48q0 -48 -9.5 -82t-30.5 -63q18 -4 40 -7t44 -5.5t43.5 -3.5t39.5 -1q52 0 89 11.5t66 37.5l11 -4q0 -164 -158 -164q-21 0 -43 3t-47.5 10t-55.5 18.5
t-68 27.5q-10 -13 -27 -24t-37 -19t-43 -12.5t-45 -4.5q-50 0 -78 22.5t-28 60.5q0 43 32 70.5t83 27.5q26 0 55.5 -7t57.5 -20q1 3 1.5 10t1 15.5t1 16.5t0.5 14q0 31 -15.5 76t-42.5 95h-131v61h111q-24 75 -24 133q0 49 18 89t51.5 68.5t81 43.5t106.5 15q46 0 85 -9.5
t67 -26t43.5 -39.5t15.5 -50q0 -51 -54 -51q-23 0 -35.5 8.5t-21 22t-15 28.5t-17.5 28.5t-28.5 22t-48.5 8.5q-54 0 -87 -27.5t-33 -73.5q0 -9 1 -20.5t3 -23.5t4.5 -23.5t5.5 -19.5z" />
    <glyph glyph-name="currency" unicode="&#xa4;" horiz-adv-x="610" 
d="M126 128q-23 28 -36 62t-13 73q0 78 49 136l-75 72l37 35l75 -72q29 23 64.5 35t77.5 12t77 -12t65 -35l75 72l37 -35l-76 -72q51 -59 51 -136q0 -39 -13 -73t-36 -62l74 -71l-37 -35l-74 71q-61 -47 -143 -47q-83 0 -143 48l-74 -71l-36 34zM140 263q0 -32 13 -60.5
t35.5 -50t52.5 -34t64 -12.5t64.5 12.5t53 34t35.5 50t13 60.5q0 33 -13 61.5t-35.5 50t-53 34t-64.5 12.5t-64 -12.5t-52.5 -34t-35.5 -50t-13 -61.5z" />
    <glyph glyph-name="yen" unicode="&#xa5;" horiz-adv-x="851" 
d="M661 170h-164q0 -41 4 -66.5t15.5 -39.5t32.5 -19.5t56 -6.5v-38h-360v38q35 1 55.5 7t31.5 20.5t14.5 39.5t3.5 65h-165v65h165v64h-165v65h119l-161 282q-15 27 -26.5 43.5t-24 25.5t-27.5 12t-37 3v40h343v-40q-47 0 -62 -7.5t-15 -24.5q0 -20 21 -60l143 -275h4
l118 200q20 34 32 56t19 36.5t9 24t2 18.5q0 17 -13.5 24.5t-54.5 7.5v40h251v-40q-22 0 -39.5 -5.5t-35.5 -22.5t-40 -49t-53 -85l-119 -204h123v-65h-164v-64h164v-65z" />
    <glyph glyph-name="brokenbar" unicode="&#xa6;" horiz-adv-x="304" 
d="M206 750v-385h-108v385h108zM206 205v-385h-108v385h108z" />
    <glyph glyph-name="section" unicode="&#xa7;" horiz-adv-x="560" 
d="M378 211q25 16 36 33t11 35q-1 30 -25.5 59t-59.5 49l-140 79q-31 -17 -44 -36t-13 -38q0 -25 18 -47t47 -38zM173 168q-63 35 -93 77.5t-30 100.5q0 106 99 153q-37 27 -58.5 70t-21.5 91q0 39 14.5 70t41.5 53.5t65 34.5t85 12q44 0 81 -10.5t63.5 -30t41.5 -46
t15 -58.5q0 -35 -17.5 -55t-48.5 -20q-29 0 -47.5 17t-18.5 44q0 14 4.5 22.5t10.5 15t10.5 12t4.5 13.5q0 20 -28 33t-71 13q-52 0 -80 -22t-28 -67q0 -12 3.5 -22.5t15.5 -24t36 -30.5t65 -42l105 -64q67 -41 94 -83.5t27 -96.5q0 -48 -20 -83.5t-66 -67.5
q37 -32 56.5 -73.5t19.5 -87.5q0 -42 -17 -77t-47.5 -60t-73 -39t-93.5 -14q-49 0 -90.5 13t-71.5 36t-46.5 55t-16.5 70q0 41 18 64.5t49 23.5q29 0 50 -19.5t21 -46.5q0 -17 -7 -29t-16 -21.5t-16 -18t-7 -17.5q0 -11 11.5 -21t30 -17.5t43.5 -12t52 -4.5q64 0 99 26
t35 74q0 16 -5 29t-19 27t-39.5 30.5t-65.5 39.5z" />
    <glyph glyph-name="dieresis" unicode="&#xa8;" horiz-adv-x="365" 
d="M20 740q0 28 18.5 46.5t45.5 18.5q28 0 46.5 -18.5t18.5 -46.5q0 -27 -18.5 -45.5t-46.5 -18.5q-27 0 -45.5 18.5t-18.5 45.5zM216 740q0 28 18.5 46.5t45.5 18.5q28 0 46.5 -18.5t18.5 -46.5q0 -27 -18.5 -45.5t-46.5 -18.5q-27 0 -45.5 18.5t-18.5 45.5z" />
    <glyph glyph-name="copyright" unicode="&#xa9;" horiz-adv-x="902" 
d="M857 386q0 -83 -32 -155t-87.5 -125.5t-129.5 -84.5t-159 -31q-84 0 -157.5 31t-128.5 85t-86.5 126t-31.5 153t31.5 153t86 126t128 85t157.5 31q85 0 159.5 -31t130 -84t87.5 -125t32 -154zM797 386q0 70 -27.5 131.5t-75 107t-111 71.5t-135.5 26t-134.5 -26.5
t-109 -72.5t-73 -107.5t-26.5 -130.5t26.5 -130.5t73 -107.5t109.5 -72.5t135 -26.5t135 26.5t110.5 72.5t75 107.5t27.5 131.5zM643 305q-15 -66 -59.5 -107t-122.5 -41q-56 0 -101 15.5t-77 44t-49 68.5t-17 90q0 52 18 95t51 74t79 48t102 17q35 0 65.5 -12t67.5 -39
l10 45h22l5 -131h-27q-13 41 -49.5 64t-87.5 23q-67 0 -103.5 -47.5t-36.5 -132.5q0 -84 36.5 -127.5t105.5 -43.5q104 0 133 97h35z" />
    <glyph glyph-name="ordfeminine" unicode="&#xaa;" horiz-adv-x="381" 
d="M211 649q-40 -17 -56.5 -34.5t-16.5 -34.5q0 -12 9 -20t23 -8q17 0 29 20t12 48v29zM211 687v14q0 45 -42 45q-23 0 -32 -6t-16 -25q-5 -14 -12 -21.5t-20 -7.5q-11 0 -21.5 6t-10.5 22q0 26 30.5 46t90.5 20t83.5 -17.5t23.5 -59.5v-102q0 -58 23 -58q17 0 25 13l8 -22
q-8 -12 -27.5 -19.5t-40.5 -7.5q-57 0 -57 38h-4q-12 -17 -32 -27.5t-46 -10.5q-37 0 -59 16.5t-22 42.5q0 27 20.5 47t74.5 43z" />
    <glyph glyph-name="guillemotleft" unicode="&#xab;" horiz-adv-x="553" 
d="M46 262l196 185l32 -23l-92 -162l90 -161l-34 -24zM266 262l196 185l32 -23l-92 -162l90 -161l-34 -24z" />
    <glyph glyph-name="logicalnot" unicode="&#xac;" horiz-adv-x="637" 
d="M489 303h-418v70h490v-263h-72v193z" />
    <glyph glyph-name="uni00AD" unicode="&#xad;" horiz-adv-x="467" 
d="M66 242v95h335v-95h-335z" />
    <glyph glyph-name="registered" unicode="&#xae;" horiz-adv-x="902" 
d="M857 386q0 -83 -32 -155t-87.5 -125.5t-129.5 -84.5t-159 -31q-84 0 -157.5 31t-128.5 85t-86.5 126t-31.5 153t31.5 153t86 126t128 85t157.5 31q85 0 159.5 -31t130 -84t87.5 -125t32 -154zM797 386q0 70 -27.5 131.5t-75 107t-111 71.5t-135.5 26t-134.5 -26.5
t-109 -72.5t-73 -107.5t-26.5 -130.5t26.5 -130.5t73 -107.5t109.5 -72.5t135 -26.5t135 26.5t110.5 72.5t75 107.5t27.5 131.5zM616 507q0 -45 -29 -75t-94 -39l130 -145q15 -17 31 -25.5t40 -12.5v-27h-124l-145 171q-15 17 -25.5 23t-22.5 6v-107q0 -20 2 -33t9.5 -20.5
t21.5 -10t38 -2.5v-27h-208v27q31 1 40 13t9 50v249q0 19 -1.5 31t-6 19t-13 9.5t-22.5 3.5v30h184q89 0 137.5 -28.5t48.5 -79.5zM377 416h37q51 0 75.5 20.5t24.5 67.5q0 42 -19.5 59t-64.5 17h-43q-10 0 -10 -9v-155z" />
    <glyph glyph-name="macron" unicode="&#xaf;" horiz-adv-x="326" 
d="M21 692v65h284v-65h-284z" />
    <glyph glyph-name="degree" unicode="&#xb0;" horiz-adv-x="334" 
d="M41 660q0 25 10 46.5t27 38t40 26t49 9.5t49 -9.5t40 -26t27 -38t10 -46.5t-10 -46.5t-27 -38t-40 -26t-49 -9.5t-49 9.5t-40 26t-27 38t-10 46.5zM87 660q0 -15 6.5 -29t17.5 -24t25.5 -16t30.5 -6q32 0 55 22t23 53t-23 52.5t-55 21.5q-16 0 -30.5 -6t-25.5 -16
t-17.5 -23.5t-6.5 -28.5z" />
    <glyph glyph-name="plusminus" unicode="&#xb1;" horiz-adv-x="628" 
d="M280 227v209h-212v64h212v209h68v-209h212v-64h-212v-209h-68zM560 88h-492v64h492v-64z" />
    <glyph glyph-name="twosuperior" unicode="&#xb2;" horiz-adv-x="284" 
d="M105 512h79q18 0 27.5 8t17.5 33h26l-15 -85h-211v18q45 40 73.5 69.5t45 53.5t23 44t6.5 41q0 25 -12.5 39t-35.5 14q-17 0 -29 -12t-12 -29q0 -20 10 -31.5t26 -11.5q-2 -11 -12 -18.5t-26 -7.5q-25 0 -41.5 17t-16.5 43q0 36 30.5 59.5t78.5 23.5q49 0 80 -24t31 -62
q0 -24 -11 -47t-30.5 -45t-45.5 -43.5t-56 -42.5v-4z" />
    <glyph glyph-name="threesuperior" unicode="&#xb3;" horiz-adv-x="283" 
d="M180 556q0 28 -11.5 44t-31.5 16q-8 -3 -15.5 -5t-13.5 -2q-11 0 -17 6t-6 15q0 19 22 19q10 0 27 -5q17 0 28 17.5t11 43.5q0 43 -38 43t-38 -29q0 -23 24 -23q-2 -8 -12 -14t-23 -6q-20 0 -33.5 13.5t-13.5 33.5q0 26 25.5 41.5t70.5 15.5q50 0 79.5 -19.5t29.5 -52.5
q0 -26 -18 -46t-46 -26v-4q34 -8 54 -30t20 -51q0 -38 -34 -62.5t-86 -24.5q-47 0 -77 20t-30 51q0 22 15 36.5t37 14.5q14 0 25 -6t14 -17q-11 0 -19 -9.5t-8 -22.5q0 -15 11 -24t30 -9q48 0 48 58z" />
    <glyph glyph-name="acute" unicode="&#xb4;" horiz-adv-x="299" 
d="M16 651l127 119q24 23 44.5 33t40.5 10q25 0 40 -12t15 -33q0 -17 -18.5 -30t-50.5 -27l-139 -60h-59z" />
    <glyph glyph-name="mu" unicode="&#xb5;" horiz-adv-x="744" 
d="M198 91q9 -30 20 -71t20.5 -81.5t16 -75t6.5 -52.5q0 -33 -18.5 -52t-50.5 -19q-33 0 -54 23.5t-21 58.5v543q0 41 -2 64.5t-11 36t-26.5 17t-47.5 7.5v40h224v-273q0 -107 24.5 -154.5t78.5 -47.5q36 0 60 16t43 57q10 25 16.5 64t6.5 80v93q0 40 -2 63.5t-11 36.5
t-26.5 17.5t-47.5 7.5v40h225v-307q0 -57 1.5 -91t5.5 -52q2 -12 6.5 -20t14 -12.5t25 -6t39.5 -1.5v-39l-199 -12l-11 89h-4q-22 -48 -57 -68t-89 -20q-47 0 -86 24.5t-65 77.5z" />
    <glyph glyph-name="paragraph" unicode="&#xb6;" horiz-adv-x="659" 
d="M512 68q0 -57 3.5 -97.5t10.5 -56.5q6 -20 25.5 -28t60.5 -8v-43h-196v881h-48v-881h-222v43q56 0 81.5 9t33.5 30q2 6 4 21.5t3.5 36t2 45t0.5 48.5v285q-8 0 -16 -0.5t-20 -0.5q-96 0 -149 54.5t-53 152.5q0 103 74 157t215 54h290v-43q-44 0 -62.5 -7.5t-25.5 -28.5
q-6 -16 -9 -42.5t-3 -80.5v-500z" />
    <glyph glyph-name="periodcentered" unicode="&#xb7;" horiz-adv-x="281" 
d="M65 274q0 32 21.5 54.5t53.5 22.5q33 0 55 -22.5t22 -54.5q0 -31 -22 -52.5t-55 -21.5q-32 0 -53.5 21.5t-21.5 52.5z" />
    <glyph glyph-name="cedilla" unicode="&#xb8;" horiz-adv-x="243" 
d="M134 -62q63 0 99 -25t36 -68q0 -47 -39.5 -76t-102.5 -29q-57 0 -94 24t-37 62q0 20 9.5 30.5t26.5 10.5q14 0 23 -8t18 -29q10 -24 19.5 -33t26.5 -9q20 0 32 12.5t12 32.5q0 54 -76 54q-8 0 -20 -0.5t-19 -1.5l-2 3l55 124h65z" />
    <glyph glyph-name="onesuperior" unicode="&#xb9;" horiz-adv-x="249" 
d="M157 543q0 -15 1.5 -25t6 -15t13.5 -7.5t23 -2.5v-25h-148v25q14 1 23 3t13.5 7t6 14t1.5 23v127v38.5t-2 19.5q-2 8 -12.5 10.5t-31.5 2.5v25q25 1 53 5.5t53 11.5v-237z" />
    <glyph glyph-name="ordmasculine" unicode="&#xba;" horiz-adv-x="383" 
d="M190 780q31 0 58.5 -10t48.5 -28t33 -43t12 -54q0 -30 -12 -55.5t-33 -43.5t-48.5 -28.5t-58.5 -10.5q-30 0 -57.5 10.5t-47.5 28.5t-32 43.5t-12 55.5q0 29 12 54t32 43t47.5 28t57.5 10zM190 744q-27 0 -44.5 -27.5t-17.5 -71.5q0 -46 17 -73.5t45 -27.5
q29 0 46.5 27.5t17.5 73.5q0 44 -17.5 71.5t-46.5 27.5z" />
    <glyph glyph-name="guillemotright" unicode="&#xbb;" horiz-adv-x="553" 
d="M315 77l-34 24l90 161l-92 162l32 23l196 -185zM95 77l-34 24l90 161l-92 162l32 23l196 -185z" />
    <glyph glyph-name="onequarter" unicode="&#xbc;" horiz-adv-x="712" 
d="M108 0h-80l580 770h71zM242 543q0 -15 1.5 -25t6 -15t13.5 -7.5t23 -2.5v-25h-148v25q14 1 23 3t13.5 7t6 14t1.5 23v127v38.5t-2 19.5q-2 8 -12.5 10.5t-31.5 2.5v25q25 1 53 5.5t53 11.5v-237zM369 102l155 210h31v-211q26 1 32.5 7t6.5 29h19v-94h-19q0 19 -6.5 24
t-32.5 6v-8q0 -28 6 -36t27 -9v-20h-144v20q14 1 23 2.5t13.5 6t6 12.5t1.5 21v10h-119v30zM488 213h-4l-80 -111h84v111z" />
    <glyph glyph-name="onehalf" unicode="&#xbd;" horiz-adv-x="716" 
d="M108 0h-80l580 770h71zM242 543q0 -15 1.5 -25t6 -15t13.5 -7.5t23 -2.5v-25h-148v25q14 1 23 3t13.5 7t6 14t1.5 23v127v38.5t-2 19.5q-2 8 -12.5 10.5t-31.5 2.5v25q25 1 53 5.5t53 11.5v-237zM469 44h79q18 0 27.5 8t17.5 33h26l-15 -85h-211v18q45 40 73.5 69.5
t45 53.5t23 44t6.5 41q0 25 -12.5 39t-35.5 14q-17 0 -29 -12t-12 -29q0 -20 10 -31.5t26 -11.5q-2 -11 -12 -18.5t-26 -7.5q-25 0 -41.5 17t-16.5 43q0 36 30.5 59.5t78.5 23.5q49 0 80 -24t31 -62q0 -24 -11 -47t-30.5 -45t-45.5 -43.5t-56 -42.5v-4z" />
    <glyph glyph-name="threequarters" unicode="&#xbe;" horiz-adv-x="714" 
d="M114 0h-80l580 770h71zM375 102l155 210h31v-211q26 1 32.5 7t6.5 29h19v-94h-19q0 19 -6.5 24t-32.5 6v-8q0 -28 6 -36t27 -9v-20h-144v20q14 1 23 2.5t13.5 6t6 12.5t1.5 21v10h-119v30zM494 213h-4l-80 -111h84v111zM247 556q0 28 -11.5 44t-31.5 16q-8 -3 -15.5 -5
t-13.5 -2q-11 0 -17 6t-6 15q0 19 22 19q10 0 27 -5q17 0 28 17.5t11 43.5q0 43 -38 43t-38 -29q0 -23 24 -23q-2 -8 -12 -14t-23 -6q-20 0 -33.5 13.5t-13.5 33.5q0 26 25.5 41.5t70.5 15.5q50 0 79.5 -19.5t29.5 -52.5q0 -26 -18 -46t-46 -26v-4q34 -8 54 -30t20 -51
q0 -38 -34 -62.5t-86 -24.5q-47 0 -77 20t-30 51q0 22 15 36.5t37 14.5q14 0 25 -6t14 -17q-11 0 -19 -9.5t-8 -22.5q0 -15 11 -24t30 -9q48 0 48 58z" />
    <glyph glyph-name="questiondown" unicode="&#xbf;" horiz-adv-x="401" 
d="M284 531v-237h-35q-137 0 -137 -89q0 -22 7 -41t19.5 -33.5t29 -23t35.5 -8.5q20 0 41 5.5t38 5.5q29 0 47.5 -16.5t18.5 -42.5q0 -30 -19.5 -45.5t-55.5 -15.5q-45 0 -86 20.5t-72.5 55t-50.5 80t-19 94.5q0 81 45 125.5t126 44.5v121h68zM330 705q0 -32 -22 -54
t-54 -22t-54 22t-22 54t22 53.5t54 21.5t54 -21.5t22 -53.5z" />
    <glyph glyph-name="Agrave" unicode="&#xc0;" horiz-adv-x="809" 
d="M501 233h-283q-47 -106 -47 -147q0 -30 22.5 -38t67.5 -8v-40h-274v40q24 3 41.5 8t31 14t23.5 23.5t19 35.5l263 659h74l239 -584q21 -51 35.5 -80t31 -44.5t38 -21.5t55.5 -9v-41h-378v41q48 2 69 10t21 32q0 14 -7 36t-19 54zM241 293h238l-115 303h-4zM369 830
l-116 28q-52 13 -70 27.5t-18 37.5q0 17 14.5 27t42.5 10q26 0 50 -9t44 -24l126 -97h-73z" />
    <glyph glyph-name="Aacute" unicode="&#xc1;" horiz-adv-x="809" 
d="M501 233h-283q-47 -106 -47 -147q0 -30 22.5 -38t67.5 -8v-40h-274v40q24 3 41.5 8t31 14t23.5 23.5t19 35.5l263 659h74l239 -584q21 -51 35.5 -80t31 -44.5t38 -21.5t55.5 -9v-41h-378v41q48 2 69 10t21 32q0 14 -7 36t-19 54zM241 293h238l-115 303h-4zM364 830
l126 97q20 15 44 24t50 9q28 0 42.5 -10t14.5 -27q0 -23 -18 -37.5t-70 -27.5l-116 -28h-73z" />
    <glyph glyph-name="Acircumflex" unicode="&#xc2;" horiz-adv-x="809" 
d="M501 233h-283q-47 -106 -47 -147q0 -30 22.5 -38t67.5 -8v-40h-274v40q24 3 41.5 8t31 14t23.5 23.5t19 35.5l263 659h74l239 -584q21 -51 35.5 -80t31 -44.5t38 -21.5t55.5 -9v-41h-378v41q48 2 69 10t21 32q0 14 -7 36t-19 54zM241 293h238l-115 303h-4zM456 960
l124 -130h-67l-115 49l-115 -49h-67l124 130h116z" />
    <glyph glyph-name="Atilde" unicode="&#xc3;" horiz-adv-x="809" 
d="M501 233h-283q-47 -106 -47 -147q0 -30 22.5 -38t67.5 -8v-40h-274v40q24 3 41.5 8t31 14t23.5 23.5t19 35.5l263 659h74l239 -584q21 -51 35.5 -80t31 -44.5t38 -21.5t55.5 -9v-41h-378v41q48 2 69 10t21 32q0 14 -7 36t-19 54zM241 293h238l-115 303h-4zM225 828
q10 59 43 96.5t76 37.5q7 0 14.5 -1t17.5 -4t23 -7.5t32 -11.5q31 -12 48 -17t31 -5q19 0 30 9.5t19 32.5h45q-4 -26 -16 -54t-28 -48q-30 -36 -73 -36q-18 0 -37 5.5t-48 19.5q-23 11 -46.5 17t-40.5 6t-26.5 -8.5t-17.5 -31.5h-46z" />
    <glyph glyph-name="Adieresis" unicode="&#xc4;" horiz-adv-x="809" 
d="M501 233h-283q-47 -106 -47 -147q0 -30 22.5 -38t67.5 -8v-40h-274v40q24 3 41.5 8t31 14t23.5 23.5t19 35.5l263 659h74l239 -584q21 -51 35.5 -80t31 -44.5t38 -21.5t55.5 -9v-41h-378v41q48 2 69 10t21 32q0 14 -7 36t-19 54zM241 293h238l-115 303h-4zM235 903
q0 25 17 41t43 16q27 0 44.5 -16t17.5 -41q0 -26 -17.5 -42.5t-44.5 -16.5q-26 0 -43 16.5t-17 42.5zM452 903q0 25 17.5 41t44.5 16q25 0 42.5 -16t17.5 -41q0 -26 -17.5 -42.5t-42.5 -16.5q-27 0 -44.5 16.5t-17.5 42.5z" />
    <glyph glyph-name="Aring" unicode="&#xc5;" horiz-adv-x="809" 
d="M501 233h-283q-47 -106 -47 -147q0 -30 22.5 -38t67.5 -8v-40h-274v40q24 3 41.5 8t31 14t23.5 23.5t19 35.5l263 659h74l239 -584q21 -51 35.5 -80t31 -44.5t38 -21.5t55.5 -9v-41h-378v41q48 2 69 10t21 32q0 14 -7 36t-19 54zM241 293h238l-115 303h-4zM337 895
q0 28 19.5 46.5t48.5 18.5t48.5 -18.5t19.5 -46.5t-19.5 -46.5t-48.5 -18.5t-48.5 18.5t-19.5 46.5zM379 895q0 -11 7.5 -17.5t18.5 -6.5t18 6.5t7 17.5q0 10 -7 16.5t-18 6.5t-18.5 -6.5t-7.5 -16.5z" />
    <glyph glyph-name="AE" unicode="&#xc6;" horiz-adv-x="1136" 
d="M406 41q33 1 54 6t32 17t15 34t4 57v119h-248q-33 -60 -51.5 -94t-27 -52.5t-10 -27t-1.5 -17.5q0 -16 7 -24t18 -11.5t24.5 -4.5t27.5 -2v-41h-272v41q24 3 42 8t32 14t26.5 23.5t24.5 35.5q10 17 19.5 34.5t23.5 42.5t34 62t50.5 93t73.5 134t102 186q8 16 8 25
q0 14 -19.5 18.5t-63.5 4.5v48h723v-196h-42q-6 43 -19 70.5t-36 43.5t-59 22.5t-88 6.5h-134q-18 0 -18 -17v-274q64 0 103 4t61 17t30.5 37t13.5 64h37v-293h-37q-6 37 -15 60.5t-30 37t-59.5 18.5t-103.5 5v-209q0 -33 8.5 -54.5t29 -35t54 -19t83.5 -5.5q54 0 92 8.5
t63.5 28.5t41.5 53.5t26 83.5h44l-15 -227h-679v41zM511 334v387l-214 -387h214z" />
    <glyph glyph-name="Ccedilla" unicode="&#xc7;" horiz-adv-x="823" 
d="M707 770h49l-20 -253h-40q-21 92 -81.5 145t-146.5 53q-59 0 -105 -23.5t-77.5 -67t-48 -106t-16.5 -140.5q0 -155 63.5 -238.5t187.5 -83.5q100 0 165.5 54t93.5 161h44v-271h-47l-14 79q-104 -84 -250 -89l-22 -52q63 0 99 -25t36 -68q0 -47 -39.5 -76t-102.5 -29
q-57 0 -94 24t-37 62q0 20 9.5 30.5t26.5 10.5q14 0 23 -8t18 -29q10 -24 19.5 -33t26.5 -9q20 0 32 12.5t12 32.5q0 54 -76 54q-8 0 -20 -0.5t-19 -1.5l-2 3l46 104q-81 7 -146.5 36.5t-111 78.5t-70.5 116t-25 149q0 91 30 166t84.5 129t130 83.5t167.5 29.5q61 0 114 -17
t115 -55z" />
    <glyph glyph-name="Egrave" unicode="&#xc8;" horiz-adv-x="764" 
d="M287 426q64 0 103 4t60.5 16.5t30.5 36.5t14 65h37v-293h-37q-6 40 -16 64t-32 36.5t-59.5 16t-100.5 3.5v-206q0 -32 8.5 -54t28.5 -35.5t53 -19t81 -5.5q57 0 96.5 8t65.5 28t42 53.5t27 84.5h40l-16 -229h-678v40q33 1 54 6t32 17t15 34t4 57v462q0 35 -3.5 56.5
t-13.5 34t-28.5 17t-48.5 6.5v40h632l7 -196h-43q-6 42 -19 69.5t-36 44t-59.5 23t-89.5 6.5h-113q-26 0 -32 -6.5t-6 -30.5v-254zM422 830l-116 28q-52 13 -70 27.5t-18 37.5q0 17 14.5 27t42.5 10q26 0 50 -9t44 -24l126 -97h-73z" />
    <glyph glyph-name="Eacute" unicode="&#xc9;" horiz-adv-x="764" 
d="M287 426q64 0 103 4t60.5 16.5t30.5 36.5t14 65h37v-293h-37q-6 40 -16 64t-32 36.5t-59.5 16t-100.5 3.5v-206q0 -32 8.5 -54t28.5 -35.5t53 -19t81 -5.5q57 0 96.5 8t65.5 28t42 53.5t27 84.5h40l-16 -229h-678v40q33 1 54 6t32 17t15 34t4 57v462q0 35 -3.5 56.5
t-13.5 34t-28.5 17t-48.5 6.5v40h632l7 -196h-43q-6 42 -19 69.5t-36 44t-59.5 23t-89.5 6.5h-113q-26 0 -32 -6.5t-6 -30.5v-254zM318 830l126 97q20 15 44 24t50 9q28 0 42.5 -10t14.5 -27q0 -23 -18 -37.5t-70 -27.5l-116 -28h-73z" />
    <glyph glyph-name="Ecircumflex" unicode="&#xca;" horiz-adv-x="764" 
d="M287 426q64 0 103 4t60.5 16.5t30.5 36.5t14 65h37v-293h-37q-6 40 -16 64t-32 36.5t-59.5 16t-100.5 3.5v-206q0 -32 8.5 -54t28.5 -35.5t53 -19t81 -5.5q57 0 96.5 8t65.5 28t42 53.5t27 84.5h40l-16 -229h-678v40q33 1 54 6t32 17t15 34t4 57v462q0 35 -3.5 56.5
t-13.5 34t-28.5 17t-48.5 6.5v40h632l7 -196h-43q-6 42 -19 69.5t-36 44t-59.5 23t-89.5 6.5h-113q-26 0 -32 -6.5t-6 -30.5v-254zM460 960l124 -130h-67l-115 49l-115 -49h-67l124 130h116z" />
    <glyph glyph-name="Edieresis" unicode="&#xcb;" horiz-adv-x="764" 
d="M287 426q64 0 103 4t60.5 16.5t30.5 36.5t14 65h37v-293h-37q-6 40 -16 64t-32 36.5t-59.5 16t-100.5 3.5v-206q0 -32 8.5 -54t28.5 -35.5t53 -19t81 -5.5q57 0 96.5 8t65.5 28t42 53.5t27 84.5h40l-16 -229h-678v40q33 1 54 6t32 17t15 34t4 57v462q0 35 -3.5 56.5
t-13.5 34t-28.5 17t-48.5 6.5v40h632l7 -196h-43q-6 42 -19 69.5t-36 44t-59.5 23t-89.5 6.5h-113q-26 0 -32 -6.5t-6 -30.5v-254zM219 903q0 25 17 41t43 16q27 0 44.5 -16t17.5 -41q0 -26 -17.5 -42.5t-44.5 -16.5q-26 0 -43 16.5t-17 42.5zM436 903q0 25 17.5 41t44.5 16
q25 0 42.5 -16t17.5 -41q0 -26 -17.5 -42.5t-42.5 -16.5q-27 0 -44.5 16.5t-17.5 42.5z" />
    <glyph glyph-name="Igrave" unicode="&#xcc;" horiz-adv-x="429" 
d="M393 0h-357v40q34 1 54.5 6.5t31.5 20.5t15 42.5t4 74.5v402q0 42 -3.5 69.5t-13.5 43.5t-28.5 22.5t-49.5 8.5v40h337v-40q-31 -2 -49.5 -8.5t-28.5 -22.5t-13.5 -43.5t-3.5 -69.5v-402q0 -47 3.5 -74.5t15 -42.5t32 -20.5t54.5 -6.5v-40zM273 830l-116 28
q-52 13 -70 27.5t-18 37.5q0 17 14.5 27t42.5 10q26 0 50 -9t44 -24l126 -97h-73z" />
    <glyph glyph-name="Iacute" unicode="&#xcd;" horiz-adv-x="429" 
d="M393 0h-357v40q34 1 54.5 6.5t31.5 20.5t15 42.5t4 74.5v402q0 42 -3.5 69.5t-13.5 43.5t-28.5 22.5t-49.5 8.5v40h337v-40q-31 -2 -49.5 -8.5t-28.5 -22.5t-13.5 -43.5t-3.5 -69.5v-402q0 -47 3.5 -74.5t15 -42.5t32 -20.5t54.5 -6.5v-40zM121 830l126 97q20 15 44 24
t50 9q28 0 42.5 -10t14.5 -27q0 -23 -18 -37.5t-70 -27.5l-116 -28h-73z" />
    <glyph glyph-name="Icircumflex" unicode="&#xce;" horiz-adv-x="429" 
d="M393 0h-357v40q34 1 54.5 6.5t31.5 20.5t15 42.5t4 74.5v402q0 42 -3.5 69.5t-13.5 43.5t-28.5 22.5t-49.5 8.5v40h337v-40q-31 -2 -49.5 -8.5t-28.5 -22.5t-13.5 -43.5t-3.5 -69.5v-402q0 -47 3.5 -74.5t15 -42.5t32 -20.5t54.5 -6.5v-40zM272 960l124 -130h-67l-115 49
l-115 -49h-67l124 130h116z" />
    <glyph glyph-name="Idieresis" unicode="&#xcf;" horiz-adv-x="429" 
d="M393 0h-357v40q34 1 54.5 6.5t31.5 20.5t15 42.5t4 74.5v402q0 42 -3.5 69.5t-13.5 43.5t-28.5 22.5t-49.5 8.5v40h337v-40q-31 -2 -49.5 -8.5t-28.5 -22.5t-13.5 -43.5t-3.5 -69.5v-402q0 -47 3.5 -74.5t15 -42.5t32 -20.5t54.5 -6.5v-40zM45 903q0 25 17 41t43 16
q27 0 44.5 -16t17.5 -41q0 -26 -17.5 -42.5t-44.5 -16.5q-26 0 -43 16.5t-17 42.5zM262 903q0 25 17.5 41t44.5 16q25 0 42.5 -16t17.5 -41q0 -26 -17.5 -42.5t-42.5 -16.5q-27 0 -44.5 16.5t-17.5 42.5z" />
    <glyph glyph-name="Eth" unicode="&#xd0;" horiz-adv-x="920" 
d="M36 0v40q33 1 53.5 5.5t32 17t15.5 34t4 57.5v222h-87v60h87v180q0 35 -3 56.5t-13 34t-27.5 17t-45.5 6.5v40h380q96 0 177 -30t140 -83t92 -126t33 -159q0 -82 -31 -150.5t-86.5 -117.5t-133 -76.5t-170.5 -27.5h-417zM305 709q-17 0 -17 -17v-256h133v-60h-133v-201
q0 -58 36 -86t111 -28q131 0 201.5 79t70.5 230q0 80 -19 143t-55 106.5t-87.5 66.5t-115.5 23h-125z" />
    <glyph glyph-name="Ntilde" unicode="&#xd1;" horiz-adv-x="940" 
d="M670 -10l-443 631h-4v-430q0 -50 3.5 -79t15 -45t32 -21t53.5 -6v-40h-297v40q37 1 59.5 6.5t35 20.5t16.5 42.5t4 74.5v402q0 42 -4 69.5t-15 43.5t-31.5 22.5t-54.5 8.5v40h279l403 -578h4v387q0 49 -3.5 78.5t-15 45.5t-32 21t-53.5 6v40h297v-40q-37 -1 -59.5 -6.5
t-35 -20.5t-16.5 -43t-4 -74v-596h-134zM307 828q10 59 43 96.5t76 37.5q7 0 14.5 -1t17.5 -4t23 -7.5t32 -11.5q31 -12 48 -17t31 -5q19 0 30 9.5t19 32.5h45q-4 -26 -16 -54t-28 -48q-30 -36 -73 -36q-18 0 -37 5.5t-48 19.5q-23 11 -46.5 17t-40.5 6t-26.5 -8.5
t-17.5 -31.5h-46z" />
    <glyph glyph-name="Ograve" unicode="&#xd2;" horiz-adv-x="944" 
d="M472 780q90 0 168 -31t135.5 -85t90.5 -127t33 -158q0 -81 -33.5 -152t-91 -123.5t-135.5 -83t-167 -30.5t-167 30.5t-136 83t-91 123.5t-33 152q0 85 33 158t90.5 127t135.5 85t168 31zM472 55q58 0 105 22.5t80 64t50.5 101t17.5 133.5q0 78 -17.5 140.5t-50.5 107
t-80 68t-105 23.5q-59 0 -105.5 -23.5t-79.5 -68t-50.5 -107t-17.5 -140.5q0 -74 17.5 -133.5t50.5 -101t79.5 -64t105.5 -22.5zM528 830l-116 28q-52 13 -70 27.5t-18 37.5q0 17 14.5 27t42.5 10q26 0 50 -9t44 -24l126 -97h-73z" />
    <glyph glyph-name="Oacute" unicode="&#xd3;" horiz-adv-x="944" 
d="M472 780q90 0 168 -31t135.5 -85t90.5 -127t33 -158q0 -81 -33.5 -152t-91 -123.5t-135.5 -83t-167 -30.5t-167 30.5t-136 83t-91 123.5t-33 152q0 85 33 158t90.5 127t135.5 85t168 31zM472 55q58 0 105 22.5t80 64t50.5 101t17.5 133.5q0 78 -17.5 140.5t-50.5 107
t-80 68t-105 23.5q-59 0 -105.5 -23.5t-79.5 -68t-50.5 -107t-17.5 -140.5q0 -74 17.5 -133.5t50.5 -101t79.5 -64t105.5 -22.5zM346 830l126 97q20 15 44 24t50 9q28 0 42.5 -10t14.5 -27q0 -23 -18 -37.5t-70 -27.5l-116 -28h-73z" />
    <glyph glyph-name="Ocircumflex" unicode="&#xd4;" horiz-adv-x="944" 
d="M472 780q90 0 168 -31t135.5 -85t90.5 -127t33 -158q0 -81 -33.5 -152t-91 -123.5t-135.5 -83t-167 -30.5t-167 30.5t-136 83t-91 123.5t-33 152q0 85 33 158t90.5 127t135.5 85t168 31zM472 55q58 0 105 22.5t80 64t50.5 101t17.5 133.5q0 78 -17.5 140.5t-50.5 107
t-80 68t-105 23.5q-59 0 -105.5 -23.5t-79.5 -68t-50.5 -107t-17.5 -140.5q0 -74 17.5 -133.5t50.5 -101t79.5 -64t105.5 -22.5zM529 960l124 -130h-67l-115 49l-115 -49h-67l124 130h116z" />
    <glyph glyph-name="Otilde" unicode="&#xd5;" horiz-adv-x="944" 
d="M472 780q90 0 168 -31t135.5 -85t90.5 -127t33 -158q0 -81 -33.5 -152t-91 -123.5t-135.5 -83t-167 -30.5t-167 30.5t-136 83t-91 123.5t-33 152q0 85 33 158t90.5 127t135.5 85t168 31zM472 55q58 0 105 22.5t80 64t50.5 101t17.5 133.5q0 78 -17.5 140.5t-50.5 107
t-80 68t-105 23.5q-59 0 -105.5 -23.5t-79.5 -68t-50.5 -107t-17.5 -140.5q0 -74 17.5 -133.5t50.5 -101t79.5 -64t105.5 -22.5zM280 828q10 59 43 96.5t76 37.5q7 0 14.5 -1t17.5 -4t23 -7.5t32 -11.5q31 -12 48 -17t31 -5q19 0 30 9.5t19 32.5h45q-4 -26 -16 -54t-28 -48
q-30 -36 -73 -36q-18 0 -37 5.5t-48 19.5q-23 11 -46.5 17t-40.5 6t-26.5 -8.5t-17.5 -31.5h-46z" />
    <glyph glyph-name="Odieresis" unicode="&#xd6;" horiz-adv-x="944" 
d="M472 780q90 0 168 -31t135.5 -85t90.5 -127t33 -158q0 -81 -33.5 -152t-91 -123.5t-135.5 -83t-167 -30.5t-167 30.5t-136 83t-91 123.5t-33 152q0 85 33 158t90.5 127t135.5 85t168 31zM472 55q58 0 105 22.5t80 64t50.5 101t17.5 133.5q0 78 -17.5 140.5t-50.5 107
t-80 68t-105 23.5q-59 0 -105.5 -23.5t-79.5 -68t-50.5 -107t-17.5 -140.5q0 -74 17.5 -133.5t50.5 -101t79.5 -64t105.5 -22.5zM297 903q0 25 17 41t43 16q27 0 44.5 -16t17.5 -41q0 -26 -17.5 -42.5t-44.5 -16.5q-26 0 -43 16.5t-17 42.5zM514 903q0 25 17.5 41t44.5 16
q25 0 42.5 -16t17.5 -41q0 -26 -17.5 -42.5t-42.5 -16.5q-27 0 -44.5 16.5t-17.5 42.5z" />
    <glyph glyph-name="multiply" unicode="&#xd7;" horiz-adv-x="524" 
d="M423 121l-162 162l-164 -164l-46 46l164 164l-162 162l48 48l162 -162l164 164l46 -46l-164 -164l162 -162z" />
    <glyph glyph-name="Oslash" unicode="&#xd8;" horiz-adv-x="943" 
d="M472 780q66 0 125 -17t110 -47l95 114h89l-128 -154q63 -55 99.5 -131t36.5 -166q0 -81 -33.5 -152t-91 -123.5t-135.5 -83t-167 -30.5q-64 0 -121.5 15.5t-107.5 43.5l-108 -130h-88l140 169q-66 54 -104 128.5t-38 162.5q0 85 33 158t90.5 127t135.5 85t168 31z
M219 376q0 -117 43 -197l382 460q-32 37 -75.5 56.5t-96.5 19.5q-59 0 -105.5 -23.5t-79.5 -68t-50.5 -107t-17.5 -140.5zM472 55q58 0 105 22.5t80 64t50.5 101t17.5 133.5q0 60 -11 111t-31 93l-379 -458q32 -32 74 -49.5t94 -17.5z" />
    <glyph glyph-name="Ugrave" unicode="&#xd9;" horiz-adv-x="880" 
d="M757 310q0 -85 -18.5 -145.5t-57.5 -99.5t-100.5 -57t-147.5 -18q-161 0 -235.5 67.5t-74.5 215.5v274q0 39 -1 65.5t-3 44.5t-5.5 29.5t-8.5 19.5q-9 14 -26 19t-52 5v40h359v-40q-42 0 -62 -4.5t-31 -17.5q-7 -8 -11.5 -19.5t-7 -30t-3.5 -45.5t-1 -66v-262
q0 -114 48.5 -168.5t149.5 -54.5q206 0 206 229v231q0 42 -1.5 72t-5 51t-9 35t-13.5 23q-14 14 -36 20.5t-61 6.5v40h324v-40q-37 0 -57 -5.5t-31 -19.5q-8 -9 -13 -23.5t-8 -36t-4.5 -51.5t-1.5 -72v-212zM526 830l-116 28q-52 13 -70 27.5t-18 37.5q0 17 14.5 27t42.5 10
q26 0 50 -9t44 -24l126 -97h-73z" />
    <glyph glyph-name="Uacute" unicode="&#xda;" horiz-adv-x="880" 
d="M757 310q0 -85 -18.5 -145.5t-57.5 -99.5t-100.5 -57t-147.5 -18q-161 0 -235.5 67.5t-74.5 215.5v274q0 39 -1 65.5t-3 44.5t-5.5 29.5t-8.5 19.5q-9 14 -26 19t-52 5v40h359v-40q-42 0 -62 -4.5t-31 -17.5q-7 -8 -11.5 -19.5t-7 -30t-3.5 -45.5t-1 -66v-262
q0 -114 48.5 -168.5t149.5 -54.5q206 0 206 229v231q0 42 -1.5 72t-5 51t-9 35t-13.5 23q-14 14 -36 20.5t-61 6.5v40h324v-40q-37 0 -57 -5.5t-31 -19.5q-8 -9 -13 -23.5t-8 -36t-4.5 -51.5t-1.5 -72v-212zM334 830l126 97q20 15 44 24t50 9q28 0 42.5 -10t14.5 -27
q0 -23 -18 -37.5t-70 -27.5l-116 -28h-73z" />
    <glyph glyph-name="Ucircumflex" unicode="&#xdb;" horiz-adv-x="880" 
d="M757 310q0 -85 -18.5 -145.5t-57.5 -99.5t-100.5 -57t-147.5 -18q-161 0 -235.5 67.5t-74.5 215.5v274q0 39 -1 65.5t-3 44.5t-5.5 29.5t-8.5 19.5q-9 14 -26 19t-52 5v40h359v-40q-42 0 -62 -4.5t-31 -17.5q-7 -8 -11.5 -19.5t-7 -30t-3.5 -45.5t-1 -66v-262
q0 -114 48.5 -168.5t149.5 -54.5q206 0 206 229v231q0 42 -1.5 72t-5 51t-9 35t-13.5 23q-14 14 -36 20.5t-61 6.5v40h324v-40q-37 0 -57 -5.5t-31 -19.5q-8 -9 -13 -23.5t-8 -36t-4.5 -51.5t-1.5 -72v-212zM525 960l124 -130h-67l-115 49l-115 -49h-67l124 130h116z" />
    <glyph glyph-name="Udieresis" unicode="&#xdc;" horiz-adv-x="880" 
d="M757 310q0 -85 -18.5 -145.5t-57.5 -99.5t-100.5 -57t-147.5 -18q-161 0 -235.5 67.5t-74.5 215.5v274q0 39 -1 65.5t-3 44.5t-5.5 29.5t-8.5 19.5q-9 14 -26 19t-52 5v40h359v-40q-42 0 -62 -4.5t-31 -17.5q-7 -8 -11.5 -19.5t-7 -30t-3.5 -45.5t-1 -66v-262
q0 -114 48.5 -168.5t149.5 -54.5q206 0 206 229v231q0 42 -1.5 72t-5 51t-9 35t-13.5 23q-14 14 -36 20.5t-61 6.5v40h324v-40q-37 0 -57 -5.5t-31 -19.5q-8 -9 -13 -23.5t-8 -36t-4.5 -51.5t-1.5 -72v-212zM301 903q0 25 17 41t43 16q27 0 44.5 -16t17.5 -41
q0 -26 -17.5 -42.5t-44.5 -16.5q-26 0 -43 16.5t-17 42.5zM518 903q0 25 17.5 41t44.5 16q25 0 42.5 -16t17.5 -41q0 -26 -17.5 -42.5t-42.5 -16.5q-27 0 -44.5 16.5t-17.5 42.5z" />
    <glyph glyph-name="Yacute" unicode="&#xdd;" horiz-adv-x="760" 
d="M101 644q-15 26 -27.5 43t-25.5 26.5t-28 13t-34 3.5v40h336v-40q-42 0 -59 -8t-17 -24q0 -10 6 -24t19 -38l143 -273h4l126 210q33 56 46 83.5t13 43.5q0 17 -15.5 23.5t-57.5 6.5v40h251v-40q-22 0 -40 -7t-37.5 -27.5t-44 -57t-58.5 -95.5l-146 -250v-102
q0 -50 4.5 -80t16 -45.5t31.5 -20.5t52 -5v-40h-356v40q31 0 51.5 5t32.5 20t16.5 43.5t4.5 75.5v92zM252 830l126 97q20 15 44 24t50 9q28 0 42.5 -10t14.5 -27q0 -23 -18 -37.5t-70 -27.5l-116 -28h-73z" />
    <glyph glyph-name="Thorn" unicode="&#xde;" horiz-adv-x="734" 
d="M294 601h105q73 0 130.5 -15.5t97 -43t60 -66.5t20.5 -85q0 -55 -18 -97t-57 -70.5t-101.5 -43t-151.5 -14.5h-85v-19q0 -34 3 -54.5t16.5 -32t40.5 -15.5t75 -4v-41h-397v41q37 1 59.5 5.5t35 16t16.5 33t4 56.5v463q0 35 -4 57t-16.5 34t-35 17t-59.5 6v41h397v-38
q-48 0 -75 -4.5t-40.5 -17t-16.5 -34.5t-3 -58v-17zM294 226h65q91 0 136 38.5t45 126.5q0 75 -37.5 114t-103.5 39h-87q-18 0 -18 -17v-301z" />
    <glyph glyph-name="germandbls" unicode="&#xdf;" horiz-adv-x="711" 
d="M358 830q58 0 105 -14t80.5 -39.5t52 -61.5t18.5 -79q0 -68 -39.5 -111.5t-112.5 -57.5v-5q45 0 83.5 -18.5t67 -51t44.5 -76t16 -93.5t-17 -93t-47 -74t-71 -48.5t-89 -17.5q-57 0 -92.5 24t-35.5 62q0 21 12.5 34t34.5 13q21 0 31.5 -12t17.5 -26.5t15 -26.5t23 -12
t27 12.5t21 34.5t14 52t5 66q0 106 -47 163t-133 57v61q63 0 92 34t29 107q0 137 -107 137q-59 0 -84.5 -41.5t-25.5 -136.5v-428q0 -37 2 -61t7.5 -37.5t14.5 -19t24 -5.5v-41h-278v41q30 0 47.5 4t27.5 16t13 34.5t3 60.5v430q0 118 65 181t186 63z" />
    <glyph glyph-name="agrave" unicode="&#xe0;" horiz-adv-x="574" 
d="M344 285q-84 -38 -126.5 -70.5t-42.5 -67.5q0 -29 16 -46t40 -17t45 8.5t36 22.5t23.5 33.5t8.5 41.5v95zM344 338v42q0 58 -20.5 84.5t-63.5 26.5q-29 0 -44 -15.5t-28 -51.5q-9 -25 -25.5 -39t-45.5 -14q-28 0 -43 17t-15 48q0 48 52.5 76t158.5 28q112 0 160 -40.5
t48 -135.5v-219q0 -85 34 -85q19 0 35 13l15 -29q-14 -25 -43.5 -39.5t-66.5 -14.5q-46 0 -70 28t-24 79h-5q-29 -52 -75 -79t-105 -27q-63 0 -101 35.5t-38 92.5q0 44 39 82.5t130 75.5zM328 651l-134 60q-32 14 -50.5 27t-18.5 30q0 21 15 33t40 12q20 0 40.5 -10
t44.5 -33l127 -119h-64z" />
    <glyph glyph-name="aacute" unicode="&#xe1;" horiz-adv-x="574" 
d="M344 285q-84 -38 -126.5 -70.5t-42.5 -67.5q0 -29 16 -46t40 -17t45 8.5t36 22.5t23.5 33.5t8.5 41.5v95zM344 338v42q0 58 -20.5 84.5t-63.5 26.5q-29 0 -44 -15.5t-28 -51.5q-9 -25 -25.5 -39t-45.5 -14q-28 0 -43 17t-15 48q0 48 52.5 76t158.5 28q112 0 160 -40.5
t48 -135.5v-219q0 -85 34 -85q19 0 35 13l15 -29q-14 -25 -43.5 -39.5t-66.5 -14.5q-46 0 -70 28t-24 79h-5q-29 -52 -75 -79t-105 -27q-63 0 -101 35.5t-38 92.5q0 44 39 82.5t130 75.5zM152 651l127 119q24 23 44.5 33t40.5 10q25 0 40 -12t15 -33q0 -17 -18.5 -30
t-50.5 -27l-139 -60h-59z" />
    <glyph glyph-name="acircumflex" unicode="&#xe2;" horiz-adv-x="574" 
d="M344 285q-84 -38 -126.5 -70.5t-42.5 -67.5q0 -29 16 -46t40 -17t45 8.5t36 22.5t23.5 33.5t8.5 41.5v95zM344 338v42q0 58 -20.5 84.5t-63.5 26.5q-29 0 -44 -15.5t-28 -51.5q-9 -25 -25.5 -39t-45.5 -14q-28 0 -43 17t-15 48q0 48 52.5 76t158.5 28q112 0 160 -40.5
t48 -135.5v-219q0 -85 34 -85q19 0 35 13l15 -29q-14 -25 -43.5 -39.5t-66.5 -14.5q-46 0 -70 28t-24 79h-5q-29 -52 -75 -79t-105 -27q-63 0 -101 35.5t-38 92.5q0 44 39 82.5t130 75.5zM325 800l120 -149h-52l-120 68l-120 -68h-52l120 149h104z" />
    <glyph glyph-name="atilde" unicode="&#xe3;" horiz-adv-x="574" 
d="M344 285q-84 -38 -126.5 -70.5t-42.5 -67.5q0 -29 16 -46t40 -17t45 8.5t36 22.5t23.5 33.5t8.5 41.5v95zM344 338v42q0 58 -20.5 84.5t-63.5 26.5q-29 0 -44 -15.5t-28 -51.5q-9 -25 -25.5 -39t-45.5 -14q-28 0 -43 17t-15 48q0 48 52.5 76t158.5 28q112 0 160 -40.5
t48 -135.5v-219q0 -85 34 -85q19 0 35 13l15 -29q-14 -25 -43.5 -39.5t-66.5 -14.5q-46 0 -70 28t-24 79h-5q-29 -52 -75 -79t-105 -27q-63 0 -101 35.5t-38 92.5q0 44 39 82.5t130 75.5zM88 660q10 59 43 96.5t76 37.5q7 0 14.5 -1t17.5 -4t23 -7.5t32 -11.5q31 -12 48 -17
t31 -5q19 0 30 9.5t19 32.5h45q-4 -26 -16 -54t-28 -48q-30 -36 -73 -36q-18 0 -37 5.5t-48 19.5q-23 11 -46.5 17t-40.5 6t-26.5 -8.5t-17.5 -31.5h-46z" />
    <glyph glyph-name="adieresis" unicode="&#xe4;" horiz-adv-x="574" 
d="M344 285q-84 -38 -126.5 -70.5t-42.5 -67.5q0 -29 16 -46t40 -17t45 8.5t36 22.5t23.5 33.5t8.5 41.5v95zM344 338v42q0 58 -20.5 84.5t-63.5 26.5q-29 0 -44 -15.5t-28 -51.5q-9 -25 -25.5 -39t-45.5 -14q-28 0 -43 17t-15 48q0 48 52.5 76t158.5 28q112 0 160 -40.5
t48 -135.5v-219q0 -85 34 -85q19 0 35 13l15 -29q-14 -25 -43.5 -39.5t-66.5 -14.5q-46 0 -70 28t-24 79h-5q-29 -52 -75 -79t-105 -27q-63 0 -101 35.5t-38 92.5q0 44 39 82.5t130 75.5zM110 740q0 28 18.5 46.5t45.5 18.5q28 0 46.5 -18.5t18.5 -46.5q0 -27 -18.5 -45.5
t-46.5 -18.5q-27 0 -45.5 18.5t-18.5 45.5zM306 740q0 28 18.5 46.5t45.5 18.5q28 0 46.5 -18.5t18.5 -46.5q0 -27 -18.5 -45.5t-46.5 -18.5q-27 0 -45.5 18.5t-18.5 45.5z" />
    <glyph glyph-name="aring" unicode="&#xe5;" horiz-adv-x="574" 
d="M344 285q-84 -38 -126.5 -70.5t-42.5 -67.5q0 -29 16 -46t40 -17t45 8.5t36 22.5t23.5 33.5t8.5 41.5v95zM344 338v42q0 58 -20.5 84.5t-63.5 26.5q-29 0 -44 -15.5t-28 -51.5q-9 -25 -25.5 -39t-45.5 -14q-28 0 -43 17t-15 48q0 48 52.5 76t158.5 28q112 0 160 -40.5
t48 -135.5v-219q0 -85 34 -85q19 0 35 13l15 -29q-14 -25 -43.5 -39.5t-66.5 -14.5q-46 0 -70 28t-24 79h-5q-29 -52 -75 -79t-105 -27q-63 0 -101 35.5t-38 92.5q0 44 39 82.5t130 75.5zM179 742q0 38 25.5 63t64.5 25q40 0 66 -25t26 -63q0 -37 -26 -61.5t-66 -24.5
q-39 0 -64.5 24.5t-25.5 61.5zM228 742q0 -17 12 -28t29 -11t28 11t11 28q0 16 -11 26.5t-28 10.5t-29 -10.5t-12 -26.5z" />
    <glyph glyph-name="ae" unicode="&#xe6;" horiz-adv-x="889" 
d="M845 93q-51 -54 -105.5 -78.5t-125.5 -24.5q-170 0 -243 127q-28 -60 -79 -93t-117 -33t-103.5 32.5t-37.5 89.5q0 25 8.5 46.5t28 41t51 38t76.5 37.5l146 62v42q0 57 -20 84t-62 27q-14 0 -24 -2.5t-18.5 -10t-15.5 -20t-15 -31.5q-12 -30 -28 -43t-41 -13
q-29 0 -45 16.5t-16 45.5q0 53 51.5 80t151.5 27q138 0 186 -58q32 28 79.5 43t102.5 15q107 0 165 -58t58 -165q0 -12 -4.5 -14.5t-27.5 -2.5h-329q-4 -9 -4 -40q0 -100 41.5 -152.5t120.5 -52.5q43 0 81 16.5t86 56.5zM344 286q-47 -23 -79 -41.5t-52 -35.5t-29 -33
t-9 -33q0 -27 18 -43t48 -16q22 0 40.5 8.5t32.5 24t22 36t8 44.5v89zM652 356q21 0 33 1t18.5 4t8.5 8.5t2 15.5q0 44 -25 70.5t-66 26.5q-44 0 -77 -33.5t-47 -92.5h153z" />
    <glyph glyph-name="ccedilla" unicode="&#xe7;" horiz-adv-x="564" 
d="M528 83q-37 -42 -92 -64t-118 -24l-24 -57q63 0 99 -25t36 -68q0 -47 -39.5 -76t-102.5 -29q-57 0 -94 24t-37 62q0 20 9.5 30.5t26.5 10.5q14 0 23 -8t18 -29q10 -24 19.5 -33t26.5 -9q20 0 32 12.5t12 32.5q0 54 -76 54q-8 0 -20 -0.5t-19 -1.5l-2 3l49 112
q-49 8 -89 30t-68 56.5t-43.5 79t-15.5 97.5q0 62 21 113t59 87.5t91 56.5t117 20q45 0 83.5 -9t66 -25t43.5 -37.5t16 -46.5q0 -29 -16.5 -46t-44.5 -17q-23 0 -40.5 12t-34.5 39q-15 24 -25.5 38t-19.5 21.5t-18 10t-22 2.5q-58 0 -90 -54t-32 -151q0 -104 38.5 -160
t110.5 -56q41 0 82 15.5t78 44.5z" />
    <glyph glyph-name="egrave" unicode="&#xe8;" 
d="M540 93q-91 -103 -227 -103q-62 0 -112.5 19.5t-86.5 55t-56 84.5t-20 109q0 62 21 113.5t59.5 89t91 58.5t115.5 21q106 0 165 -57t59 -160q0 -16 -5 -19.5t-28 -3.5h-322q-4 -9 -4 -33q0 -98 42.5 -155t115.5 -57q42 0 83.5 19t80.5 54zM346 356q40 0 51.5 4.5
t11.5 21.5q0 44 -25 72t-63 28q-43 0 -76.5 -35.5t-43.5 -90.5h145zM324 651l-134 60q-32 14 -50.5 27t-18.5 30q0 21 15 33t40 12q20 0 40.5 -10t44.5 -33l127 -119h-64z" />
    <glyph glyph-name="eacute" unicode="&#xe9;" 
d="M540 93q-91 -103 -227 -103q-62 0 -112.5 19.5t-86.5 55t-56 84.5t-20 109q0 62 21 113.5t59.5 89t91 58.5t115.5 21q106 0 165 -57t59 -160q0 -16 -5 -19.5t-28 -3.5h-322q-4 -9 -4 -33q0 -98 42.5 -155t115.5 -57q42 0 83.5 19t80.5 54zM346 356q40 0 51.5 4.5
t11.5 21.5q0 44 -25 72t-63 28q-43 0 -76.5 -35.5t-43.5 -90.5h145zM232 651l127 119q24 23 44.5 33t40.5 10q25 0 40 -12t15 -33q0 -17 -18.5 -30t-50.5 -27l-139 -60h-59z" />
    <glyph glyph-name="ecircumflex" unicode="&#xea;" 
d="M540 93q-91 -103 -227 -103q-62 0 -112.5 19.5t-86.5 55t-56 84.5t-20 109q0 62 21 113.5t59.5 89t91 58.5t115.5 21q106 0 165 -57t59 -160q0 -16 -5 -19.5t-28 -3.5h-322q-4 -9 -4 -33q0 -98 42.5 -155t115.5 -57q42 0 83.5 19t80.5 54zM346 356q40 0 51.5 4.5
t11.5 21.5q0 44 -25 72t-63 28q-43 0 -76.5 -35.5t-43.5 -90.5h145zM367 800l120 -149h-52l-120 68l-120 -68h-52l120 149h104z" />
    <glyph glyph-name="edieresis" unicode="&#xeb;" 
d="M540 93q-91 -103 -227 -103q-62 0 -112.5 19.5t-86.5 55t-56 84.5t-20 109q0 62 21 113.5t59.5 89t91 58.5t115.5 21q106 0 165 -57t59 -160q0 -16 -5 -19.5t-28 -3.5h-322q-4 -9 -4 -33q0 -98 42.5 -155t115.5 -57q42 0 83.5 19t80.5 54zM346 356q40 0 51.5 4.5
t11.5 21.5q0 44 -25 72t-63 28q-43 0 -76.5 -35.5t-43.5 -90.5h145zM167 740q0 28 18.5 46.5t45.5 18.5q28 0 46.5 -18.5t18.5 -46.5q0 -27 -18.5 -45.5t-46.5 -18.5q-27 0 -45.5 18.5t-18.5 45.5zM363 740q0 28 18.5 46.5t45.5 18.5q28 0 46.5 -18.5t18.5 -46.5
q0 -27 -18.5 -45.5t-46.5 -18.5q-27 0 -45.5 18.5t-18.5 45.5z" />
    <glyph glyph-name="igrave" unicode="&#xec;" horiz-adv-x="361" 
d="M257 164q0 -40 3 -64t12 -37t26 -17.5t46 -5.5v-40h-315v40q28 1 45.5 6.5t27 18t13 35t3.5 57.5v123q0 58 -2 95.5t-5 51.5q-5 25 -22.5 33t-63.5 8v34l232 38v-376zM216 651l-134 60q-32 14 -50.5 27t-18.5 30q0 21 15 33t40 12q20 0 40.5 -10t44.5 -33l127 -119h-64z
" />
    <glyph glyph-name="iacute" unicode="&#xed;" horiz-adv-x="361" 
d="M257 164q0 -40 3 -64t12 -37t26 -17.5t46 -5.5v-40h-315v40q28 1 45.5 6.5t27 18t13 35t3.5 57.5v123q0 58 -2 95.5t-5 51.5q-5 25 -22.5 33t-63.5 8v34l232 38v-376zM87 651l127 119q24 23 44.5 33t40.5 10q25 0 40 -12t15 -33q0 -17 -18.5 -30t-50.5 -27l-139 -60h-59z
" />
    <glyph glyph-name="icircumflex" unicode="&#xee;" horiz-adv-x="361" 
d="M257 164q0 -40 3 -64t12 -37t26 -17.5t46 -5.5v-40h-315v40q28 1 45.5 6.5t27 18t13 35t3.5 57.5v123q0 58 -2 95.5t-5 51.5q-5 25 -22.5 33t-63.5 8v34l232 38v-376zM239 800l120 -149h-52l-120 68l-120 -68h-52l120 149h104z" />
    <glyph glyph-name="idieresis" unicode="&#xef;" horiz-adv-x="361" 
d="M257 164q0 -40 3 -64t12 -37t26 -17.5t46 -5.5v-40h-315v40q28 1 45.5 6.5t27 18t13 35t3.5 57.5v123q0 58 -2 95.5t-5 51.5q-5 25 -22.5 33t-63.5 8v34l232 38v-376zM38 740q0 28 18.5 46.5t45.5 18.5q28 0 46.5 -18.5t18.5 -46.5q0 -27 -18.5 -45.5t-46.5 -18.5
q-27 0 -45.5 18.5t-18.5 45.5zM234 740q0 28 18.5 46.5t45.5 18.5q28 0 46.5 -18.5t18.5 -46.5q0 -27 -18.5 -45.5t-46.5 -18.5q-27 0 -45.5 18.5t-18.5 45.5z" />
    <glyph glyph-name="eth" unicode="&#xf0;" horiz-adv-x="661" 
d="M200 244q0 -95 33.5 -147t87.5 -52q61 0 97.5 53t36.5 146q0 98 -36 154t-97 56q-55 0 -88.5 -55t-33.5 -155zM184 780q49 -14 97 -30.5t85 -37.5l136 75l30 -43l-116 -64q101 -62 152 -160t51 -212q0 -70 -22.5 -128.5t-62.5 -100.5t-95 -65.5t-119 -23.5
q-59 0 -110.5 19t-89.5 53t-59.5 80.5t-21.5 101.5q0 56 20.5 105t57 85.5t86 57.5t108.5 21q57 0 98 -25.5t63 -75.5l3 2q-21 77 -52.5 132.5t-77.5 95.5l-140 -76l-24 43l124 66q-23 18 -55 30.5t-86 30.5z" />
    <glyph glyph-name="ntilde" unicode="&#xf1;" horiz-adv-x="727" 
d="M257 163q0 -41 2.5 -64.5t11 -36t26 -16.5t47.5 -6v-40h-315v40q29 2 46.5 6t27 16t12.5 34t3 60v125q0 59 -2 95.5t-5 49.5t-8 21.5t-15 13t-25 6t-38 1.5v34l193 38l13 -88h4q33 42 78 65t99 23q64 0 103.5 -17.5t70.5 -58.5q17 -23 30 -59.5t13 -100.5v-141
q0 -41 2.5 -64.5t11 -36t25.5 -16.5t46 -6v-40h-313v40q30 1 47.5 5.5t26.5 16.5t12 34.5t3 59.5v136q0 51 -6 86t-19.5 56.5t-35.5 31t-55 9.5q-32 0 -55 -18t-40 -50q-9 -18 -15.5 -46.5t-6.5 -59.5v-138zM174 660q10 59 43 96.5t76 37.5q7 0 14.5 -1t17.5 -4t23 -7.5
t32 -11.5q31 -12 48 -17t31 -5q19 0 30 9.5t19 32.5h45q-4 -26 -16 -54t-28 -48q-30 -36 -73 -36q-18 0 -37 5.5t-48 19.5q-23 11 -46.5 17t-40.5 6t-26.5 -8.5t-17.5 -31.5h-46z" />
    <glyph glyph-name="ograve" unicode="&#xf2;" horiz-adv-x="660" 
d="M328 540q60 0 113.5 -20.5t94 -56.5t64 -85.5t23.5 -108.5q0 -61 -23.5 -112t-64 -88t-94 -58t-113.5 -21q-59 0 -112 20.5t-93 57.5t-63 88.5t-23 112.5q0 59 23 109t63 86t93 56t112 20zM328 482q-30 0 -55 -15.5t-42.5 -43.5t-27 -67.5t-9.5 -87.5q0 -50 9.5 -90
t27 -68t42 -43.5t55.5 -15.5t56.5 15.5t43.5 44t28 68.5t10 89q0 48 -10 87t-28 67.5t-43.5 44t-56.5 15.5zM405 651l-134 60q-32 14 -50.5 27t-18.5 30q0 21 15 33t40 12q20 0 40.5 -10t44.5 -33l127 -119h-64z" />
    <glyph glyph-name="oacute" unicode="&#xf3;" horiz-adv-x="660" 
d="M328 540q60 0 113.5 -20.5t94 -56.5t64 -85.5t23.5 -108.5q0 -61 -23.5 -112t-64 -88t-94 -58t-113.5 -21q-59 0 -112 20.5t-93 57.5t-63 88.5t-23 112.5q0 59 23 109t63 86t93 56t112 20zM328 482q-30 0 -55 -15.5t-42.5 -43.5t-27 -67.5t-9.5 -87.5q0 -50 9.5 -90
t27 -68t42 -43.5t55.5 -15.5t56.5 15.5t43.5 44t28 68.5t10 89q0 48 -10 87t-28 67.5t-43.5 44t-56.5 15.5zM229 651l127 119q24 23 44.5 33t40.5 10q25 0 40 -12t15 -33q0 -17 -18.5 -30t-50.5 -27l-139 -60h-59z" />
    <glyph glyph-name="ocircumflex" unicode="&#xf4;" horiz-adv-x="660" 
d="M328 540q60 0 113.5 -20.5t94 -56.5t64 -85.5t23.5 -108.5q0 -61 -23.5 -112t-64 -88t-94 -58t-113.5 -21q-59 0 -112 20.5t-93 57.5t-63 88.5t-23 112.5q0 59 23 109t63 86t93 56t112 20zM328 482q-30 0 -55 -15.5t-42.5 -43.5t-27 -67.5t-9.5 -87.5q0 -50 9.5 -90
t27 -68t42 -43.5t55.5 -15.5t56.5 15.5t43.5 44t28 68.5t10 89q0 48 -10 87t-28 67.5t-43.5 44t-56.5 15.5zM380 800l120 -149h-52l-120 68l-120 -68h-52l120 149h104z" />
    <glyph glyph-name="otilde" unicode="&#xf5;" horiz-adv-x="660" 
d="M328 540q60 0 113.5 -20.5t94 -56.5t64 -85.5t23.5 -108.5q0 -61 -23.5 -112t-64 -88t-94 -58t-113.5 -21q-59 0 -112 20.5t-93 57.5t-63 88.5t-23 112.5q0 59 23 109t63 86t93 56t112 20zM328 482q-30 0 -55 -15.5t-42.5 -43.5t-27 -67.5t-9.5 -87.5q0 -50 9.5 -90
t27 -68t42 -43.5t55.5 -15.5t56.5 15.5t43.5 44t28 68.5t10 89q0 48 -10 87t-28 67.5t-43.5 44t-56.5 15.5zM131 660q10 59 43 96.5t76 37.5q7 0 14.5 -1t17.5 -4t23 -7.5t32 -11.5q31 -12 48 -17t31 -5q19 0 30 9.5t19 32.5h45q-4 -26 -16 -54t-28 -48q-30 -36 -73 -36
q-18 0 -37 5.5t-48 19.5q-23 11 -46.5 17t-40.5 6t-26.5 -8.5t-17.5 -31.5h-46z" />
    <glyph glyph-name="odieresis" unicode="&#xf6;" horiz-adv-x="660" 
d="M328 540q60 0 113.5 -20.5t94 -56.5t64 -85.5t23.5 -108.5q0 -61 -23.5 -112t-64 -88t-94 -58t-113.5 -21q-59 0 -112 20.5t-93 57.5t-63 88.5t-23 112.5q0 59 23 109t63 86t93 56t112 20zM328 482q-30 0 -55 -15.5t-42.5 -43.5t-27 -67.5t-9.5 -87.5q0 -50 9.5 -90
t27 -68t42 -43.5t55.5 -15.5t56.5 15.5t43.5 44t28 68.5t10 89q0 48 -10 87t-28 67.5t-43.5 44t-56.5 15.5zM179 740q0 28 18.5 46.5t45.5 18.5q28 0 46.5 -18.5t18.5 -46.5q0 -27 -18.5 -45.5t-46.5 -18.5q-27 0 -45.5 18.5t-18.5 45.5zM375 740q0 28 18.5 46.5t45.5 18.5
q28 0 46.5 -18.5t18.5 -46.5q0 -27 -18.5 -45.5t-46.5 -18.5q-27 0 -45.5 18.5t-18.5 45.5z" />
    <glyph glyph-name="divide" unicode="&#xf7;" 
d="M539 306h-492v64h492v-64zM220 521q0 32 21.5 54.5t53.5 22.5q33 0 55 -22.5t22 -54.5q0 -31 -22 -52.5t-55 -21.5q-32 0 -53.5 21.5t-21.5 52.5zM220 151q0 32 21.5 54.5t53.5 22.5q33 0 55 -22.5t22 -54.5q0 -31 -22 -52.5t-55 -21.5q-32 0 -53.5 21.5t-21.5 52.5z" />
    <glyph glyph-name="oslash" unicode="&#xf8;" horiz-adv-x="658" 
d="M327 540q44 0 84 -11.5t75 -31.5l79 95h81l-109 -131q39 -36 62 -85t23 -107q0 -61 -23.5 -112t-64 -88t-94 -58t-113.5 -21q-42 0 -79.5 10t-70.5 28l-74 -89h-80l104 125q-42 38 -66.5 90t-24.5 115q0 59 23 109t63 86t93 56t112 20zM327 482q-30 0 -55 -15.5
t-42.5 -43.5t-27 -67.5t-9.5 -87.5q0 -60 14 -107l219 263q-18 28 -43 43t-56 15zM465 268q0 51 -12 92l-217 -261q36 -48 91 -48q31 0 56.5 15.5t43.5 44t28 68.5t10 89z" />
    <glyph glyph-name="ugrave" unicode="&#xf9;" horiz-adv-x="709" 
d="M465 366q0 40 -2 63.5t-11 36t-26.5 17t-47.5 7.5v40h226v-303q0 -61 1.5 -95.5t5.5 -51.5q3 -13 7 -20.5t13 -12t24.5 -6t40.5 -1.5v-39l-199 -12l-11 89h-4q-26 -42 -73 -65t-105 -23q-107 0 -163 76q-43 58 -43 165v135q0 41 -2 64.5t-10.5 35.5t-25.5 16.5t-47 7.5
v40h224v-283q0 -101 25 -146.5t80 -45.5q59 0 91 54q32 52 32 153v104zM375 651l-134 60q-32 14 -50.5 27t-18.5 30q0 21 15 33t40 12q20 0 40.5 -10t44.5 -33l127 -119h-64z" />
    <glyph glyph-name="uacute" unicode="&#xfa;" horiz-adv-x="709" 
d="M465 366q0 40 -2 63.5t-11 36t-26.5 17t-47.5 7.5v40h226v-303q0 -61 1.5 -95.5t5.5 -51.5q3 -13 7 -20.5t13 -12t24.5 -6t40.5 -1.5v-39l-199 -12l-11 89h-4q-26 -42 -73 -65t-105 -23q-107 0 -163 76q-43 58 -43 165v135q0 41 -2 64.5t-10.5 35.5t-25.5 16.5t-47 7.5
v40h224v-283q0 -101 25 -146.5t80 -45.5q59 0 91 54q32 52 32 153v104zM219 651l127 119q24 23 44.5 33t40.5 10q25 0 40 -12t15 -33q0 -17 -18.5 -30t-50.5 -27l-139 -60h-59z" />
    <glyph glyph-name="ucircumflex" unicode="&#xfb;" horiz-adv-x="709" 
d="M465 366q0 40 -2 63.5t-11 36t-26.5 17t-47.5 7.5v40h226v-303q0 -61 1.5 -95.5t5.5 -51.5q3 -13 7 -20.5t13 -12t24.5 -6t40.5 -1.5v-39l-199 -12l-11 89h-4q-26 -42 -73 -65t-105 -23q-107 0 -163 76q-43 58 -43 165v135q0 41 -2 64.5t-10.5 35.5t-25.5 16.5t-47 7.5
v40h224v-283q0 -101 25 -146.5t80 -45.5q59 0 91 54q32 52 32 153v104zM371 800l120 -149h-52l-120 68l-120 -68h-52l120 149h104z" />
    <glyph glyph-name="udieresis" unicode="&#xfc;" horiz-adv-x="709" 
d="M465 366q0 40 -2 63.5t-11 36t-26.5 17t-47.5 7.5v40h226v-303q0 -61 1.5 -95.5t5.5 -51.5q3 -13 7 -20.5t13 -12t24.5 -6t40.5 -1.5v-39l-199 -12l-11 89h-4q-26 -42 -73 -65t-105 -23q-107 0 -163 76q-43 58 -43 165v135q0 41 -2 64.5t-10.5 35.5t-25.5 16.5t-47 7.5
v40h224v-283q0 -101 25 -146.5t80 -45.5q59 0 91 54q32 52 32 153v104zM170 740q0 28 18.5 46.5t45.5 18.5q28 0 46.5 -18.5t18.5 -46.5q0 -27 -18.5 -45.5t-46.5 -18.5q-27 0 -45.5 18.5t-18.5 45.5zM366 740q0 28 18.5 46.5t45.5 18.5q28 0 46.5 -18.5t18.5 -46.5
q0 -27 -18.5 -45.5t-46.5 -18.5q-27 0 -45.5 18.5t-18.5 45.5z" />
    <glyph glyph-name="yacute" unicode="&#xfd;" horiz-adv-x="646" 
d="M287 -157q-11 -22 -27.5 -41t-37 -32.5t-42.5 -21.5t-44 -8q-33 0 -53 16t-20 43q0 25 17.5 39t56.5 17q89 7 115 56l27 52l-177 438q-12 29 -20.5 46t-18.5 26.5t-23 12.5t-32 4v40h303v-40q-39 0 -54.5 -7.5t-15.5 -27.5q0 -8 2.5 -18.5t6.5 -21.5l102 -292h4l86 195
q13 31 22 51.5t13.5 35t6.5 23.5t2 18q0 26 -14.5 35t-58.5 9v40h241v-40q-20 0 -34 -5.5t-28.5 -22.5t-32 -50.5t-43.5 -88.5zM270 651l127 119q24 23 44.5 33t40.5 10q25 0 40 -12t15 -33q0 -17 -18.5 -30t-50.5 -27l-139 -60h-59z" />
    <glyph glyph-name="thorn" unicode="&#xfe;" horiz-adv-x="674" 
d="M85 594q0 48 -3 81t-10 48q-3 7 -8 11.5t-14 8t-23.5 6.5t-37.5 6v35l234 40v-371h4q54 81 158 81q53 0 99 -21t79.5 -57.5t53 -86t19.5 -107.5q0 -59 -20.5 -110t-56 -88.5t-84 -59t-104.5 -21.5q-47 0 -81.5 16t-62.5 51v-146q0 -40 4 -64t17 -37t36.5 -18t62.5 -6v-35
h-360v35q31 1 50.5 6t30 17.5t14 35.5t3.5 59v691zM225 209q0 -36 9.5 -66t27 -51t42 -33t53.5 -12q63 0 95.5 55t32.5 161q0 214 -130 214q-37 0 -62 -17.5t-45 -56.5q-12 -26 -17.5 -50.5t-5.5 -54.5v-89z" />
    <glyph glyph-name="ydieresis" unicode="&#xff;" horiz-adv-x="646" 
d="M287 -157q-11 -22 -27.5 -41t-37 -32.5t-42.5 -21.5t-44 -8q-33 0 -53 16t-20 43q0 25 17.5 39t56.5 17q89 7 115 56l27 52l-177 438q-12 29 -20.5 46t-18.5 26.5t-23 12.5t-32 4v40h303v-40q-39 0 -54.5 -7.5t-15.5 -27.5q0 -8 2.5 -18.5t6.5 -21.5l102 -292h4l86 195
q13 31 22 51.5t13.5 35t6.5 23.5t2 18q0 26 -14.5 35t-58.5 9v40h241v-40q-20 0 -34 -5.5t-28.5 -22.5t-32 -50.5t-43.5 -88.5zM220 740q0 28 18.5 46.5t45.5 18.5q28 0 46.5 -18.5t18.5 -46.5q0 -27 -18.5 -45.5t-46.5 -18.5q-27 0 -45.5 18.5t-18.5 45.5zM416 740
q0 28 18.5 46.5t45.5 18.5q28 0 46.5 -18.5t18.5 -46.5q0 -27 -18.5 -45.5t-46.5 -18.5q-27 0 -45.5 18.5t-18.5 45.5z" />
    <glyph glyph-name="Amacron" unicode="&#x100;" horiz-adv-x="809" 
d="M501 233h-283q-47 -106 -47 -147q0 -30 22.5 -38t67.5 -8v-40h-274v40q24 3 41.5 8t31 14t23.5 23.5t19 35.5l263 659h74l239 -584q21 -51 35.5 -80t31 -44.5t38 -21.5t55.5 -9v-41h-378v41q48 2 69 10t21 32q0 14 -7 36t-19 54zM241 293h238l-115 303h-4zM256 865v65
h284v-65h-284z" />
    <glyph glyph-name="amacron" unicode="&#x101;" horiz-adv-x="574" 
d="M344 285q-84 -38 -126.5 -70.5t-42.5 -67.5q0 -29 16 -46t40 -17t45 8.5t36 22.5t23.5 33.5t8.5 41.5v95zM344 338v42q0 58 -20.5 84.5t-63.5 26.5q-29 0 -44 -15.5t-28 -51.5q-9 -25 -25.5 -39t-45.5 -14q-28 0 -43 17t-15 48q0 48 52.5 76t158.5 28q112 0 160 -40.5
t48 -135.5v-219q0 -85 34 -85q19 0 35 13l15 -29q-14 -25 -43.5 -39.5t-66.5 -14.5q-46 0 -70 28t-24 79h-5q-29 -52 -75 -79t-105 -27q-63 0 -101 35.5t-38 92.5q0 44 39 82.5t130 75.5zM123 692v65h284v-65h-284z" />
    <glyph glyph-name="Abreve" unicode="&#x102;" horiz-adv-x="809" 
d="M501 233h-283q-47 -106 -47 -147q0 -30 22.5 -38t67.5 -8v-40h-274v40q24 3 41.5 8t31 14t23.5 23.5t19 35.5l263 659h74l239 -584q21 -51 35.5 -80t31 -44.5t38 -21.5t55.5 -9v-41h-378v41q48 2 69 10t21 32q0 14 -7 36t-19 54zM241 293h238l-115 303h-4zM548 960
q-2 -29 -14 -52.5t-32 -41t-46.5 -27t-57.5 -9.5q-32 0 -58.5 10t-46.5 27t-32 41t-13 52h43q9 -19 38 -30t68 -11t68.5 11t38.5 30h44z" />
    <glyph glyph-name="abreve" unicode="&#x103;" horiz-adv-x="574" 
d="M344 285q-84 -38 -126.5 -70.5t-42.5 -67.5q0 -29 16 -46t40 -17t45 8.5t36 22.5t23.5 33.5t8.5 41.5v95zM344 338v42q0 58 -20.5 84.5t-63.5 26.5q-29 0 -44 -15.5t-28 -51.5q-9 -25 -25.5 -39t-45.5 -14q-28 0 -43 17t-15 48q0 48 52.5 76t158.5 28q112 0 160 -40.5
t48 -135.5v-219q0 -85 34 -85q19 0 35 13l15 -29q-14 -25 -43.5 -39.5t-66.5 -14.5q-46 0 -70 28t-24 79h-5q-29 -52 -75 -79t-105 -27q-63 0 -101 35.5t-38 92.5q0 44 39 82.5t130 75.5zM420 786q-2 -31 -14 -56.5t-32 -44t-46.5 -29t-57.5 -10.5q-32 0 -58.5 10.5
t-46.5 29t-32 44.5t-13 56h43q9 -23 38 -37t68 -14t68.5 14t38.5 37h44z" />
    <glyph glyph-name="Aogonek" unicode="&#x104;" horiz-adv-x="809" 
d="M733 -152q-32 -42 -75 -64.5t-91 -22.5q-110 0 -110 88q0 45 39.5 83.5t112.5 67.5h-149v41q48 2 69 10t21 32q0 14 -7 36t-19 54l-23 60h-283q-47 -106 -47 -147q0 -30 22.5 -38t67.5 -8v-40h-274v40q24 3 41.5 8t31 14t23.5 23.5t19 35.5l263 659h74l239 -584
q21 -51 35.5 -80t31 -44.5t38 -21.5t55.5 -9v-41h-154q-55 -24 -89.5 -58.5t-34.5 -65.5q0 -20 13.5 -32.5t35.5 -12.5t45.5 14t43.5 39zM241 293h238l-115 303h-4z" />
    <glyph glyph-name="aogonek" unicode="&#x105;" horiz-adv-x="574" 
d="M534 -152q-32 -42 -75 -64.5t-91 -22.5q-110 0 -110 88q0 45 38.5 83t110.5 67q-49 23 -49 98h-5q-29 -52 -75 -79t-105 -27q-63 0 -101 35.5t-38 92.5q0 43 39.5 81t129.5 77l141 61v42q0 58 -20.5 84.5t-63.5 26.5q-29 0 -44 -15.5t-28 -51.5q-9 -25 -25.5 -39
t-45.5 -14q-28 0 -43 17t-15 48q0 48 52.5 76t158.5 28q112 0 160 -40.5t48 -135.5v-219q0 -85 34 -85q19 0 35 13l15 -29q-13 -23 -39 -37t-58 -16q-47 -24 -75.5 -55.5t-28.5 -59.5q0 -20 13.5 -32.5t35.5 -12.5t45.5 14t43.5 39zM344 285q-84 -38 -126.5 -70.5
t-42.5 -67.5q0 -29 16 -46t40 -17t45 8.5t36 22.5t23.5 33.5t8.5 41.5v95z" />
    <glyph glyph-name="Cacute" unicode="&#x106;" horiz-adv-x="823" 
d="M707 770h49l-20 -253h-40q-21 92 -81.5 145t-146.5 53q-59 0 -105 -23.5t-77.5 -67t-48 -106t-16.5 -140.5q0 -155 63.5 -238.5t187.5 -83.5q100 0 165.5 54t93.5 161h44v-271h-47l-14 79q-110 -89 -267 -89q-91 0 -165 27t-126 76.5t-80.5 120.5t-28.5 158q0 91 30 166
t84.5 129t130 83.5t167.5 29.5q61 0 114 -17t115 -55zM319 830l126 97q20 15 44 24t50 9q28 0 42.5 -10t14.5 -27q0 -23 -18 -37.5t-70 -27.5l-116 -28h-73z" />
    <glyph glyph-name="cacute" unicode="&#x107;" horiz-adv-x="564" 
d="M528 83q-38 -42 -94.5 -65t-122.5 -23q-61 0 -111 19.5t-86 54.5t-55.5 84.5t-19.5 109.5q0 62 21 113t59 87.5t91 56.5t117 20q45 0 83.5 -9t66 -25t43.5 -37.5t16 -46.5q0 -29 -16.5 -46t-44.5 -17q-23 0 -40.5 12t-34.5 39q-15 24 -25.5 38t-19.5 21.5t-18 10t-22 2.5
q-58 0 -90 -54t-32 -151q0 -104 38.5 -160t110.5 -56q41 0 82 15.5t78 44.5zM247 651l127 119q24 23 44.5 33t40.5 10q25 0 40 -12t15 -33q0 -17 -18.5 -30t-50.5 -27l-139 -60h-59z" />
    <glyph glyph-name="Ccircumflex" unicode="&#x108;" horiz-adv-x="823" 
d="M707 770h49l-20 -253h-40q-21 92 -81.5 145t-146.5 53q-59 0 -105 -23.5t-77.5 -67t-48 -106t-16.5 -140.5q0 -155 63.5 -238.5t187.5 -83.5q100 0 165.5 54t93.5 161h44v-271h-47l-14 79q-110 -89 -267 -89q-91 0 -165 27t-126 76.5t-80.5 120.5t-28.5 158q0 91 30 166
t84.5 129t130 83.5t167.5 29.5q61 0 114 -17t115 -55zM514 960l124 -130h-67l-115 49l-115 -49h-67l124 130h116z" />
    <glyph glyph-name="ccircumflex" unicode="&#x109;" horiz-adv-x="564" 
d="M528 83q-38 -42 -94.5 -65t-122.5 -23q-61 0 -111 19.5t-86 54.5t-55.5 84.5t-19.5 109.5q0 62 21 113t59 87.5t91 56.5t117 20q45 0 83.5 -9t66 -25t43.5 -37.5t16 -46.5q0 -29 -16.5 -46t-44.5 -17q-23 0 -40.5 12t-34.5 39q-15 24 -25.5 38t-19.5 21.5t-18 10t-22 2.5
q-58 0 -90 -54t-32 -151q0 -104 38.5 -160t110.5 -56q41 0 82 15.5t78 44.5zM361 800l120 -149h-52l-120 68l-120 -68h-52l120 149h104z" />
    <glyph glyph-name="Cdotaccent" unicode="&#x10a;" horiz-adv-x="823" 
d="M707 770h49l-20 -253h-40q-21 92 -81.5 145t-146.5 53q-59 0 -105 -23.5t-77.5 -67t-48 -106t-16.5 -140.5q0 -155 63.5 -238.5t187.5 -83.5q100 0 165.5 54t93.5 161h44v-271h-47l-14 79q-110 -89 -267 -89q-91 0 -165 27t-126 76.5t-80.5 120.5t-28.5 158q0 91 30 166
t84.5 129t130 83.5t167.5 29.5q61 0 114 -17t115 -55zM392 893q0 28 20 47t46 19q29 0 49.5 -19t20.5 -47q0 -26 -20.5 -44.5t-49.5 -18.5q-26 0 -46 18.5t-20 44.5z" />
    <glyph glyph-name="cdotaccent" unicode="&#x10b;" horiz-adv-x="564" 
d="M528 83q-38 -42 -94.5 -65t-122.5 -23q-61 0 -111 19.5t-86 54.5t-55.5 84.5t-19.5 109.5q0 62 21 113t59 87.5t91 56.5t117 20q45 0 83.5 -9t66 -25t43.5 -37.5t16 -46.5q0 -29 -16.5 -46t-44.5 -17q-23 0 -40.5 12t-34.5 39q-15 24 -25.5 38t-19.5 21.5t-18 10t-22 2.5
q-58 0 -90 -54t-32 -151q0 -104 38.5 -160t110.5 -56q41 0 82 15.5t78 44.5zM243 752q0 33 22.5 55.5t54.5 22.5q33 0 55.5 -22.5t22.5 -55.5q0 -32 -22.5 -54.5t-55.5 -22.5q-32 0 -54.5 22.5t-22.5 54.5z" />
    <glyph glyph-name="Ccaron" unicode="&#x10c;" horiz-adv-x="823" 
d="M707 770h49l-20 -253h-40q-21 92 -81.5 145t-146.5 53q-59 0 -105 -23.5t-77.5 -67t-48 -106t-16.5 -140.5q0 -155 63.5 -238.5t187.5 -83.5q100 0 165.5 54t93.5 161h44v-271h-47l-14 79q-110 -89 -267 -89q-91 0 -165 27t-126 76.5t-80.5 120.5t-28.5 158q0 91 30 166
t84.5 129t130 83.5t167.5 29.5q61 0 114 -17t115 -55zM400 830l-124 130h67l115 -49l115 49h67l-124 -130h-116z" />
    <glyph glyph-name="ccaron" unicode="&#x10d;" horiz-adv-x="564" 
d="M528 83q-38 -42 -94.5 -65t-122.5 -23q-61 0 -111 19.5t-86 54.5t-55.5 84.5t-19.5 109.5q0 62 21 113t59 87.5t91 56.5t117 20q45 0 83.5 -9t66 -25t43.5 -37.5t16 -46.5q0 -29 -16.5 -46t-44.5 -17q-23 0 -40.5 12t-34.5 39q-15 24 -25.5 38t-19.5 21.5t-18 10t-22 2.5
q-58 0 -90 -54t-32 -151q0 -104 38.5 -160t110.5 -56q41 0 82 15.5t78 44.5zM277 651l-120 149h52l120 -68l120 68h52l-120 -149h-104z" />
    <glyph glyph-name="Dcaron" unicode="&#x10e;" horiz-adv-x="919" 
d="M35 0v40q33 1 53.5 5.5t32 17t15.5 34t4 57.5v462q0 35 -3 56.5t-13 34t-27.5 17t-45.5 6.5v40h380q96 0 177 -30t140 -83t92 -126t33 -159q0 -82 -31 -150.5t-86.5 -117.5t-133 -76.5t-170.5 -27.5h-417zM304 709q-17 0 -17 -17v-517q0 -58 36 -86t111 -28
q131 0 201.5 79t70.5 230q0 80 -19 143t-55 106.5t-87.5 66.5t-115.5 23h-125zM395 830l-124 130h67l115 -49l115 49h67l-124 -130h-116z" />
    <glyph glyph-name="dcaron" unicode="&#x10f;" horiz-adv-x="694" 
d="M481 64h-4q-69 -74 -179 -74q-57 0 -104.5 20t-82 56t-53.5 85.5t-19 109.5t19.5 111t53 88.5t80 58.5t100.5 21q50 0 88.5 -15t67.5 -51h4v85q0 59 -1.5 101.5t-4.5 55.5q-5 21 -30.5 30.5t-78.5 9.5v34l253 40v-572q0 -75 1.5 -115.5t5.5 -61.5q2 -13 6 -21t12 -12.5
t21.5 -6t34.5 -1.5v-39l-190 -11v74zM450 287q0 38 -8 70.5t-24 57.5q-18 29 -46 44t-60 15q-59 0 -90 -54t-31 -157q0 -104 31 -160t89 -56q33 0 63 17t49 46q14 22 20.5 54.5t6.5 83.5v39zM690 590q58 41 58 88q-10 -8 -27 -8q-19 0 -32.5 13.5t-13.5 36.5t20 41.5
t52 18.5t49 -20.5t17 -58.5q0 -40 -21.5 -74t-73.5 -68z" />
    <glyph glyph-name="Dcroat" unicode="&#x110;" horiz-adv-x="920" 
d="M36 0v40q33 1 53.5 5.5t32 17t15.5 34t4 57.5v216h-87v60h87v186q0 35 -3 56.5t-13 34t-27.5 17t-45.5 6.5v40h380q96 0 177 -30t140 -83t92 -126t33 -159q0 -82 -31 -150.5t-86.5 -117.5t-133 -76.5t-170.5 -27.5h-417zM305 709q-17 0 -17 -17v-262h133v-60h-133v-195
q0 -58 36 -86t111 -28q131 0 201.5 79t70.5 230q0 80 -19 143t-55 106.5t-87.5 66.5t-115.5 23h-125z" />
    <glyph glyph-name="dcroat" unicode="&#x111;" horiz-adv-x="694" 
d="M481 64h-4q-69 -74 -179 -74q-57 0 -104.5 20t-82 56t-53.5 85.5t-19 109.5t19.5 111t53 88.5t80 58.5t100.5 21q50 0 88.5 -15t67.5 -51h4v127h-85v50h84q-1 24 -2 40.5t-3 24.5q-5 21 -30.5 30.5t-78.5 9.5v34l253 40v-179h70v-50h-70v-343q0 -75 1.5 -115.5t5.5 -61.5
q2 -13 6 -21t12 -12.5t21.5 -6t34.5 -1.5v-39l-190 -11v74zM450 287q0 38 -8 70.5t-24 57.5q-18 29 -46 44t-60 15q-59 0 -90 -54t-31 -157q0 -104 31 -160t89 -56q33 0 63 17t49 46q14 22 20.5 54.5t6.5 83.5v39z" />
    <glyph glyph-name="Emacron" unicode="&#x112;" horiz-adv-x="764" 
d="M287 426q64 0 103 4t60.5 16.5t30.5 36.5t14 65h37v-293h-37q-6 40 -16 64t-32 36.5t-59.5 16t-100.5 3.5v-206q0 -32 8.5 -54t28.5 -35.5t53 -19t81 -5.5q57 0 96.5 8t65.5 28t42 53.5t27 84.5h40l-16 -229h-678v40q33 1 54 6t32 17t15 34t4 57v462q0 35 -3.5 56.5
t-13.5 34t-28.5 17t-48.5 6.5v40h632l7 -196h-43q-6 42 -19 69.5t-36 44t-59.5 23t-89.5 6.5h-113q-26 0 -32 -6.5t-6 -30.5v-254zM261 865v65h284v-65h-284z" />
    <glyph glyph-name="emacron" unicode="&#x113;" 
d="M540 93q-91 -103 -227 -103q-62 0 -112.5 19.5t-86.5 55t-56 84.5t-20 109q0 62 21 113.5t59.5 89t91 58.5t115.5 21q106 0 165 -57t59 -160q0 -16 -5 -19.5t-28 -3.5h-322q-4 -9 -4 -33q0 -98 42.5 -155t115.5 -57q42 0 83.5 19t80.5 54zM346 356q40 0 51.5 4.5
t11.5 21.5q0 44 -25 72t-63 28q-43 0 -76.5 -35.5t-43.5 -90.5h145zM176 692v65h284v-65h-284z" />
    <glyph glyph-name="Ebreve" unicode="&#x114;" horiz-adv-x="764" 
d="M287 426q64 0 103 4t60.5 16.5t30.5 36.5t14 65h37v-293h-37q-6 40 -16 64t-32 36.5t-59.5 16t-100.5 3.5v-206q0 -32 8.5 -54t28.5 -35.5t53 -19t81 -5.5q57 0 96.5 8t65.5 28t42 53.5t27 84.5h40l-16 -229h-678v40q33 1 54 6t32 17t15 34t4 57v462q0 35 -3.5 56.5
t-13.5 34t-28.5 17t-48.5 6.5v40h632l7 -196h-43q-6 42 -19 69.5t-36 44t-59.5 23t-89.5 6.5h-113q-26 0 -32 -6.5t-6 -30.5v-254zM553 960q-2 -29 -14 -52.5t-32 -41t-46.5 -27t-57.5 -9.5q-32 0 -58.5 10t-46.5 27t-32 41t-13 52h43q9 -19 38 -30t68 -11t68.5 11t38.5 30
h44z" />
    <glyph glyph-name="ebreve" unicode="&#x115;" 
d="M540 93q-91 -103 -227 -103q-62 0 -112.5 19.5t-86.5 55t-56 84.5t-20 109q0 62 21 113.5t59.5 89t91 58.5t115.5 21q106 0 165 -57t59 -160q0 -16 -5 -19.5t-28 -3.5h-322q-4 -9 -4 -33q0 -98 42.5 -155t115.5 -57q42 0 83.5 19t80.5 54zM346 356q40 0 51.5 4.5
t11.5 21.5q0 44 -25 72t-63 28q-43 0 -76.5 -35.5t-43.5 -90.5h145zM464 786q-2 -31 -14 -56.5t-32 -44t-46.5 -29t-57.5 -10.5q-32 0 -58.5 10.5t-46.5 29t-32 44.5t-13 56h43q9 -23 38 -37t68 -14t68.5 14t38.5 37h44z" />
    <glyph glyph-name="Edotaccent" unicode="&#x116;" horiz-adv-x="764" 
d="M287 426q64 0 103 4t60.5 16.5t30.5 36.5t14 65h37v-293h-37q-6 40 -16 64t-32 36.5t-59.5 16t-100.5 3.5v-206q0 -32 8.5 -54t28.5 -35.5t53 -19t81 -5.5q57 0 96.5 8t65.5 28t42 53.5t27 84.5h40l-16 -229h-678v40q33 1 54 6t32 17t15 34t4 57v462q0 35 -3.5 56.5
t-13.5 34t-28.5 17t-48.5 6.5v40h632l7 -196h-43q-6 42 -19 69.5t-36 44t-59.5 23t-89.5 6.5h-113q-26 0 -32 -6.5t-6 -30.5v-254zM314 893q0 28 20 47t46 19q29 0 49.5 -19t20.5 -47q0 -26 -20.5 -44.5t-49.5 -18.5q-26 0 -46 18.5t-20 44.5z" />
    <glyph glyph-name="edotaccent" unicode="&#x117;" 
d="M540 93q-91 -103 -227 -103q-62 0 -112.5 19.5t-86.5 55t-56 84.5t-20 109q0 62 21 113.5t59.5 89t91 58.5t115.5 21q106 0 165 -57t59 -160q0 -16 -5 -19.5t-28 -3.5h-322q-4 -9 -4 -33q0 -98 42.5 -155t115.5 -57q42 0 83.5 19t80.5 54zM346 356q40 0 51.5 4.5
t11.5 21.5q0 44 -25 72t-63 28q-43 0 -76.5 -35.5t-43.5 -90.5h145zM247 752q0 33 22.5 55.5t54.5 22.5q33 0 55.5 -22.5t22.5 -55.5q0 -32 -22.5 -54.5t-55.5 -22.5q-32 0 -54.5 22.5t-22.5 54.5z" />
    <glyph glyph-name="Eogonek" unicode="&#x118;" horiz-adv-x="764" 
d="M511 -152q-32 -42 -75 -64.5t-91 -22.5q-110 0 -110 88q0 45 39.5 83.5t112.5 67.5h-352v40q33 1 54 6t32 17t15 34t4 57v462q0 35 -3.5 56.5t-13.5 34t-28.5 17t-48.5 6.5v40h632l7 -196h-43q-6 42 -19 69.5t-36 44t-59.5 23t-89.5 6.5h-113q-26 0 -32 -6.5t-6 -30.5
v-254q64 0 103 4t60.5 16.5t30.5 36.5t14 65h37v-293h-37q-6 40 -16 64t-32 36.5t-59.5 16t-100.5 3.5v-206q0 -32 8.5 -54t28.5 -35.5t53 -19t81 -5.5q57 0 96.5 8t65.5 28t42 53.5t27 84.5h40l-16 -229h-251q-55 -24 -89.5 -58.5t-34.5 -65.5q0 -20 13.5 -32.5t35.5 -12.5
t45.5 14t43.5 39z" />
    <glyph glyph-name="eogonek" unicode="&#x119;" 
d="M404 -152q-32 -42 -75 -64.5t-91 -22.5q-110 0 -110 88q0 42 35 79t100 66q-51 7 -92.5 29t-71 56.5t-45.5 79.5t-16 99q0 62 21 113.5t59.5 89t91 58.5t115.5 21q106 0 165 -57t59 -160q0 -16 -5 -19.5t-28 -3.5h-322q-4 -9 -4 -33q0 -98 42.5 -155t115.5 -57
q42 0 83.5 19t80.5 54l28 -35q-84 -95 -205 -102q-47 -24 -75.5 -55.5t-28.5 -59.5q0 -20 13.5 -32.5t35.5 -12.5t45.5 14t43.5 39zM346 356q40 0 51.5 4.5t11.5 21.5q0 44 -25 72t-63 28q-43 0 -76.5 -35.5t-43.5 -90.5h145z" />
    <glyph glyph-name="Ecaron" unicode="&#x11a;" horiz-adv-x="764" 
d="M287 426q64 0 103 4t60.5 16.5t30.5 36.5t14 65h37v-293h-37q-6 40 -16 64t-32 36.5t-59.5 16t-100.5 3.5v-206q0 -32 8.5 -54t28.5 -35.5t53 -19t81 -5.5q57 0 96.5 8t65.5 28t42 53.5t27 84.5h40l-16 -229h-678v40q33 1 54 6t32 17t15 34t4 57v462q0 35 -3.5 56.5
t-13.5 34t-28.5 17t-48.5 6.5v40h632l7 -196h-43q-6 42 -19 69.5t-36 44t-59.5 23t-89.5 6.5h-113q-26 0 -32 -6.5t-6 -30.5v-254zM344 830l-124 130h67l115 -49l115 49h67l-124 -130h-116z" />
    <glyph glyph-name="ecaron" unicode="&#x11b;" 
d="M540 93q-91 -103 -227 -103q-62 0 -112.5 19.5t-86.5 55t-56 84.5t-20 109q0 62 21 113.5t59.5 89t91 58.5t115.5 21q106 0 165 -57t59 -160q0 -16 -5 -19.5t-28 -3.5h-322q-4 -9 -4 -33q0 -98 42.5 -155t115.5 -57q42 0 83.5 19t80.5 54zM346 356q40 0 51.5 4.5
t11.5 21.5q0 44 -25 72t-63 28q-43 0 -76.5 -35.5t-43.5 -90.5h145zM271 651l-120 149h52l120 -68l120 68h52l-120 -149h-104z" />
    <glyph glyph-name="Gcircumflex" unicode="&#x11c;" horiz-adv-x="876" 
d="M438 -10q-90 0 -162.5 26.5t-123 76t-78 120t-27.5 158.5q0 91 29.5 166.5t82.5 129.5t127 83.5t164 29.5q62 0 118 -17t121 -55l19 62h36v-253h-50q-20 94 -80.5 146t-151.5 52q-115 0 -178.5 -88.5t-63.5 -247.5q0 -156 62 -239t180 -83q85 0 132.5 43.5t47.5 120.5
q0 46 -24 67.5t-81 26.5v40h324v-40q-49 0 -68 -21.5t-19 -77.5v-133q-22 0 -37 -1.5t-29.5 -6t-32.5 -14.5t-45 -26q-77 -45 -192 -45zM513 960l124 -130h-67l-115 49l-115 -49h-67l124 130h116z" />
    <glyph glyph-name="gcircumflex" unicode="&#x11d;" horiz-adv-x="610" 
d="M228 108q27 -2 47.5 -4t39 -4.5l37 -5t39.5 -5.5q78 -11 122.5 -58.5t44.5 -117.5q0 -85 -70 -129t-206 -44q-125 0 -192.5 36.5t-67.5 103.5q0 52 27 78.5t68 26.5q26 0 50.5 -10.5t41.5 -30.5q-26 -5 -42.5 -23.5t-16.5 -43.5q0 -40 35.5 -61.5t104.5 -21.5
q150 0 150 95q0 34 -22.5 58.5t-64.5 29.5l-175 24q-111 15 -111 99q0 41 26.5 67t75.5 36v4q-23 9 -41.5 25t-32.5 37t-21.5 45.5t-7.5 50.5q0 37 15.5 69.5t43 55.5t65 36.5t81.5 13.5q43 0 84 -13t70 -36q23 14 40 23.5t31.5 15t26.5 8t24 2.5q38 0 61.5 -17t23.5 -45
q0 -21 -13 -34.5t-34 -13.5q-15 0 -24 6.5t-17.5 15t-17.5 15t-24 6.5q-21 0 -40 -27q10 -17 14 -36.5t4 -45.5q0 -38 -12 -70t-37.5 -56.5t-65.5 -41.5t-97 -23q-48 -5 -66.5 -13t-18.5 -24q0 -24 45 -28zM276 230q32 0 50 34t18 95q0 62 -18 95.5t-51 33.5q-34 0 -54 -34
t-20 -93q0 -60 20.5 -95.5t54.5 -35.5zM345 800l120 -149h-52l-120 68l-120 -68h-52l120 149h104z" />
    <glyph glyph-name="Gbreve" unicode="&#x11e;" horiz-adv-x="876" 
d="M438 -10q-90 0 -162.5 26.5t-123 76t-78 120t-27.5 158.5q0 91 29.5 166.5t82.5 129.5t127 83.5t164 29.5q62 0 118 -17t121 -55l19 62h36v-253h-50q-20 94 -80.5 146t-151.5 52q-115 0 -178.5 -88.5t-63.5 -247.5q0 -156 62 -239t180 -83q85 0 132.5 43.5t47.5 120.5
q0 46 -24 67.5t-81 26.5v40h324v-40q-49 0 -68 -21.5t-19 -77.5v-133q-22 0 -37 -1.5t-29.5 -6t-32.5 -14.5t-45 -26q-77 -45 -192 -45zM605 960q-2 -29 -14 -52.5t-32 -41t-46.5 -27t-57.5 -9.5q-32 0 -58.5 10t-46.5 27t-32 41t-13 52h43q9 -19 38 -30t68 -11t68.5 11
t38.5 30h44z" />
    <glyph glyph-name="gbreve" unicode="&#x11f;" horiz-adv-x="610" 
d="M228 108q27 -2 47.5 -4t39 -4.5l37 -5t39.5 -5.5q78 -11 122.5 -58.5t44.5 -117.5q0 -85 -70 -129t-206 -44q-125 0 -192.5 36.5t-67.5 103.5q0 52 27 78.5t68 26.5q26 0 50.5 -10.5t41.5 -30.5q-26 -5 -42.5 -23.5t-16.5 -43.5q0 -40 35.5 -61.5t104.5 -21.5
q150 0 150 95q0 34 -22.5 58.5t-64.5 29.5l-175 24q-111 15 -111 99q0 41 26.5 67t75.5 36v4q-23 9 -41.5 25t-32.5 37t-21.5 45.5t-7.5 50.5q0 37 15.5 69.5t43 55.5t65 36.5t81.5 13.5q43 0 84 -13t70 -36q23 14 40 23.5t31.5 15t26.5 8t24 2.5q38 0 61.5 -17t23.5 -45
q0 -21 -13 -34.5t-34 -13.5q-15 0 -24 6.5t-17.5 15t-17.5 15t-24 6.5q-21 0 -40 -27q10 -17 14 -36.5t4 -45.5q0 -38 -12 -70t-37.5 -56.5t-65.5 -41.5t-97 -23q-48 -5 -66.5 -13t-18.5 -24q0 -24 45 -28zM276 230q32 0 50 34t18 95q0 62 -18 95.5t-51 33.5q-34 0 -54 -34
t-20 -93q0 -60 20.5 -95.5t54.5 -35.5zM434 786q-2 -31 -14 -56.5t-32 -44t-46.5 -29t-57.5 -10.5q-32 0 -58.5 10.5t-46.5 29t-32 44.5t-13 56h43q9 -23 38 -37t68 -14t68.5 14t38.5 37h44z" />
    <glyph glyph-name="Gdotaccent" unicode="&#x120;" horiz-adv-x="876" 
d="M438 -10q-90 0 -162.5 26.5t-123 76t-78 120t-27.5 158.5q0 91 29.5 166.5t82.5 129.5t127 83.5t164 29.5q62 0 118 -17t121 -55l19 62h36v-253h-50q-20 94 -80.5 146t-151.5 52q-115 0 -178.5 -88.5t-63.5 -247.5q0 -156 62 -239t180 -83q85 0 132.5 43.5t47.5 120.5
q0 46 -24 67.5t-81 26.5v40h324v-40q-49 0 -68 -21.5t-19 -77.5v-133q-22 0 -37 -1.5t-29.5 -6t-32.5 -14.5t-45 -26q-77 -45 -192 -45zM374 893q0 28 20 47t46 19q29 0 49.5 -19t20.5 -47q0 -26 -20.5 -44.5t-49.5 -18.5q-26 0 -46 18.5t-20 44.5z" />
    <glyph glyph-name="gdotaccent" unicode="&#x121;" horiz-adv-x="610" 
d="M228 108q27 -2 47.5 -4t39 -4.5l37 -5t39.5 -5.5q78 -11 122.5 -58.5t44.5 -117.5q0 -85 -70 -129t-206 -44q-125 0 -192.5 36.5t-67.5 103.5q0 52 27 78.5t68 26.5q26 0 50.5 -10.5t41.5 -30.5q-26 -5 -42.5 -23.5t-16.5 -43.5q0 -40 35.5 -61.5t104.5 -21.5
q150 0 150 95q0 34 -22.5 58.5t-64.5 29.5l-175 24q-111 15 -111 99q0 41 26.5 67t75.5 36v4q-23 9 -41.5 25t-32.5 37t-21.5 45.5t-7.5 50.5q0 37 15.5 69.5t43 55.5t65 36.5t81.5 13.5q43 0 84 -13t70 -36q23 14 40 23.5t31.5 15t26.5 8t24 2.5q38 0 61.5 -17t23.5 -45
q0 -21 -13 -34.5t-34 -13.5q-15 0 -24 6.5t-17.5 15t-17.5 15t-24 6.5q-21 0 -40 -27q10 -17 14 -36.5t4 -45.5q0 -38 -12 -70t-37.5 -56.5t-65.5 -41.5t-97 -23q-48 -5 -66.5 -13t-18.5 -24q0 -24 45 -28zM276 230q32 0 50 34t18 95q0 62 -18 95.5t-51 33.5q-34 0 -54 -34
t-20 -93q0 -60 20.5 -95.5t54.5 -35.5zM222 752q0 33 22.5 55.5t54.5 22.5q33 0 55.5 -22.5t22.5 -55.5q0 -32 -22.5 -54.5t-55.5 -22.5q-32 0 -54.5 22.5t-22.5 54.5z" />
    <glyph glyph-name="Gcommaaccent" unicode="&#x122;" horiz-adv-x="876" 
d="M438 -10q-90 0 -162.5 26.5t-123 76t-78 120t-27.5 158.5q0 91 29.5 166.5t82.5 129.5t127 83.5t164 29.5q62 0 118 -17t121 -55l19 62h36v-253h-50q-20 94 -80.5 146t-151.5 52q-115 0 -178.5 -88.5t-63.5 -247.5q0 -156 62 -239t180 -83q85 0 132.5 43.5t47.5 120.5
q0 46 -24 67.5t-81 26.5v40h324v-40q-49 0 -68 -21.5t-19 -77.5v-133q-22 0 -37 -1.5t-29.5 -6t-32.5 -14.5t-45 -26q-77 -45 -192 -45zM387 -219q58 32 58 72q-10 -8 -27 -8q-19 0 -32.5 13.5t-13.5 36.5t20 41.5t52 18.5t49 -20.5t17 -58.5q0 -34 -21.5 -65.5t-73.5 -60.5
z" />
    <glyph glyph-name="gcommaaccent" unicode="&#x123;" horiz-adv-x="610" 
d="M355 825q-58 -32 -58 -72q10 8 27 8q19 0 32.5 -13.5t13.5 -36.5t-20 -41.5t-52 -18.5t-49 20.5t-17 58.5q0 34 21.5 65.5t73.5 60.5zM228 108q27 -2 47.5 -4t39 -4.5l37 -5t39.5 -5.5q78 -11 122.5 -58.5t44.5 -117.5q0 -85 -70 -129t-206 -44q-125 0 -192.5 36.5
t-67.5 103.5q0 52 27 78.5t68 26.5q26 0 50.5 -10.5t41.5 -30.5q-26 -5 -42.5 -23.5t-16.5 -43.5q0 -40 35.5 -61.5t104.5 -21.5q150 0 150 95q0 34 -22.5 58.5t-64.5 29.5l-175 24q-111 15 -111 99q0 41 26.5 67t75.5 36v4q-23 9 -41.5 25t-32.5 37t-21.5 45.5t-7.5 50.5
q0 37 15.5 69.5t43 55.5t65 36.5t81.5 13.5q43 0 84 -13t70 -36q23 14 40 23.5t31.5 15t26.5 8t24 2.5q38 0 61.5 -17t23.5 -45q0 -21 -13 -34.5t-34 -13.5q-15 0 -24 6.5t-17.5 15t-17.5 15t-24 6.5q-21 0 -40 -27q10 -17 14 -36.5t4 -45.5q0 -38 -12 -70t-37.5 -56.5
t-65.5 -41.5t-97 -23q-48 -5 -66.5 -13t-18.5 -24q0 -24 45 -28zM276 230q32 0 50 34t18 95q0 62 -18 95.5t-51 33.5q-34 0 -54 -34t-20 -93q0 -60 20.5 -95.5t54.5 -35.5z" />
    <glyph glyph-name="Hcircumflex" unicode="&#x124;" horiz-adv-x="945" 
d="M805 161q0 -38 3.5 -61.5t15 -36t32 -17.5t54.5 -6v-40h-367v40q37 1 59.5 6t35 17t16.5 34t4 57v209h-371v-202q0 -38 4 -61.5t16 -36t34.5 -17.5t59.5 -6v-40h-366v40q34 1 54.5 6t31.5 17t15 34t4 57v462q0 35 -3.5 56.5t-13.5 34t-28.5 17t-48.5 6.5v40h345v-40
q-34 -1 -54.5 -6t-31.5 -18t-14.5 -36t-3.5 -61v-184h371v191q0 35 -4 56.5t-15 34t-31.5 17t-54.5 6.5v40h346v-40q-30 -1 -48.5 -6t-28.5 -18t-13.5 -36t-3.5 -61v-448zM529 960l124 -130h-67l-115 49l-115 -49h-67l124 130h116z" />
    <glyph glyph-name="hcircumflex" unicode="&#x125;" horiz-adv-x="714" 
d="M244 164q0 -41 2.5 -64.5t11 -36.5t26 -17t47.5 -6v-40h-315v40q30 2 48 6t27 16t11.5 34.5t2.5 60.5v411q0 60 -1.5 94.5t-5.5 52.5q-3 13 -7 20.5t-12.5 12t-23 6t-36.5 1.5v37l223 38v-369h4q31 41 69.5 60t92.5 19q98 0 152 -60q26 -30 41 -72.5t15 -88.5v-155
q0 -42 2 -65.5t10.5 -36t25.5 -16.5t47 -6v-40h-313v40q30 1 47.5 5.5t27 16.5t12 34.5t2.5 60.5v123q0 106 -23 150t-79 44q-60 0 -95 -44q-17 -23 -26.5 -57t-9.5 -76v-133zM513 800l120 -149h-52l-120 68l-120 -68h-52l120 149h104z" />
    <glyph glyph-name="Hbar" unicode="&#x126;" horiz-adv-x="949" 
d="M807 601h75v-60h-75v-380q0 -38 3.5 -61.5t15 -36t32 -17.5t54.5 -6v-40h-367v40q37 1 59.5 6t35 17t16.5 34t4 57v209h-371v-202q0 -38 4 -61.5t16 -36t34.5 -17.5t59.5 -6v-40h-366v40q34 1 54.5 6t31.5 17t15 34t4 57v387h-72v60h72v15q0 35 -3.5 56.5t-13.5 34
t-28.5 17t-48.5 6.5v40h345v-40q-34 -1 -54.5 -6t-31.5 -18t-14.5 -36t-3.5 -61v-8h371v15q0 35 -4 56.5t-15 34t-31.5 17t-54.5 6.5v40h346v-40q-30 -1 -48.5 -6t-28.5 -18t-13.5 -36t-3.5 -61v-8zM660 425v116h-371v-116h371z" />
    <glyph glyph-name="hbar" unicode="&#x127;" horiz-adv-x="714" 
d="M244 164q0 -41 2.5 -64.5t11 -36.5t26 -17t47.5 -6v-40h-315v40q30 2 48 6t27 16t11.5 34.5t2.5 60.5v444h-85v50h84q-1 43 -6 64q-3 13 -7 20.5t-12.5 12t-23 6t-36.5 1.5v37l223 38v-179h71v-50h-71v-140h4q31 41 69.5 60t92.5 19q98 0 152 -60q26 -30 41 -72.5
t15 -88.5v-155q0 -42 2 -65.5t10.5 -36t25.5 -16.5t47 -6v-40h-313v40q30 1 47.5 5.5t27 16.5t12 34.5t2.5 60.5v123q0 106 -23 150t-79 44q-60 0 -95 -44q-17 -23 -26.5 -57t-9.5 -76v-133z" />
    <glyph glyph-name="Itilde" unicode="&#x128;" horiz-adv-x="429" 
d="M393 0h-357v40q34 1 54.5 6.5t31.5 20.5t15 42.5t4 74.5v402q0 42 -3.5 69.5t-13.5 43.5t-28.5 22.5t-49.5 8.5v40h337v-40q-31 -2 -49.5 -8.5t-28.5 -22.5t-13.5 -43.5t-3.5 -69.5v-402q0 -47 3.5 -74.5t15 -42.5t32 -20.5t54.5 -6.5v-40zM27 828q10 59 43 96.5t76 37.5
q7 0 14.5 -1t17.5 -4t23 -7.5t32 -11.5q31 -12 48 -17t31 -5q19 0 30 9.5t19 32.5h45q-4 -26 -16 -54t-28 -48q-30 -36 -73 -36q-18 0 -37 5.5t-48 19.5q-23 11 -46.5 17t-40.5 6t-26.5 -8.5t-17.5 -31.5h-46z" />
    <glyph glyph-name="itilde" unicode="&#x129;" horiz-adv-x="361" 
d="M257 164q0 -40 3 -64t12 -37t26 -17.5t46 -5.5v-40h-315v40q28 1 45.5 6.5t27 18t13 35t3.5 57.5v123q0 58 -2 95.5t-5 51.5q-5 25 -22.5 33t-63.5 8v34l232 38v-376zM-10 660q10 59 43 96.5t76 37.5q7 0 14.5 -1t17.5 -4t23 -7.5t32 -11.5q31 -12 48 -17t31 -5
q19 0 30 9.5t19 32.5h45q-4 -26 -16 -54t-28 -48q-30 -36 -73 -36q-18 0 -37 5.5t-48 19.5q-23 11 -46.5 17t-40.5 6t-26.5 -8.5t-17.5 -31.5h-46z" />
    <glyph glyph-name="Imacron" unicode="&#x12a;" horiz-adv-x="429" 
d="M393 0h-357v40q34 1 54.5 6.5t31.5 20.5t15 42.5t4 74.5v402q0 42 -3.5 69.5t-13.5 43.5t-28.5 22.5t-49.5 8.5v40h337v-40q-31 -2 -49.5 -8.5t-28.5 -22.5t-13.5 -43.5t-3.5 -69.5v-402q0 -47 3.5 -74.5t15 -42.5t32 -20.5t54.5 -6.5v-40zM73 865v65h284v-65h-284z" />
    <glyph glyph-name="imacron" unicode="&#x12b;" horiz-adv-x="361" 
d="M257 164q0 -40 3 -64t12 -37t26 -17.5t46 -5.5v-40h-315v40q28 1 45.5 6.5t27 18t13 35t3.5 57.5v123q0 58 -2 95.5t-5 51.5q-5 25 -22.5 33t-63.5 8v34l232 38v-376zM45 692v65h284v-65h-284z" />
    <glyph glyph-name="Ibreve" unicode="&#x12c;" horiz-adv-x="429" 
d="M393 0h-357v40q34 1 54.5 6.5t31.5 20.5t15 42.5t4 74.5v402q0 42 -3.5 69.5t-13.5 43.5t-28.5 22.5t-49.5 8.5v40h337v-40q-31 -2 -49.5 -8.5t-28.5 -22.5t-13.5 -43.5t-3.5 -69.5v-402q0 -47 3.5 -74.5t15 -42.5t32 -20.5t54.5 -6.5v-40zM364 960q-2 -29 -14 -52.5
t-32 -41t-46.5 -27t-57.5 -9.5q-32 0 -58.5 10t-46.5 27t-32 41t-13 52h43q9 -19 38 -30t68 -11t68.5 11t38.5 30h44z" />
    <glyph glyph-name="ibreve" unicode="&#x12d;" horiz-adv-x="361" 
d="M257 164q0 -40 3 -64t12 -37t26 -17.5t46 -5.5v-40h-315v40q28 1 45.5 6.5t27 18t13 35t3.5 57.5v123q0 58 -2 95.5t-5 51.5q-5 25 -22.5 33t-63.5 8v34l232 38v-376zM337 786q-2 -31 -14 -56.5t-32 -44t-46.5 -29t-57.5 -10.5q-32 0 -58.5 10.5t-46.5 29t-32 44.5
t-13 56h43q9 -23 38 -37t68 -14t68.5 14t38.5 37h44z" />
    <glyph glyph-name="Iogonek" unicode="&#x12e;" horiz-adv-x="429" 
d="M307 -152q-32 -42 -75 -64.5t-91 -22.5q-110 0 -110 88q0 45 39.5 83.5t112.5 67.5h-147v40q34 1 54.5 6.5t31.5 20.5t15 42.5t4 74.5v402q0 42 -3.5 69.5t-13.5 43.5t-28.5 22.5t-49.5 8.5v40h337v-40q-31 -2 -49.5 -8.5t-28.5 -22.5t-13.5 -43.5t-3.5 -69.5v-402
q0 -47 3.5 -74.5t15 -42.5t32 -20.5t54.5 -6.5v-40h-135q-55 -24 -89.5 -58.5t-34.5 -65.5q0 -20 13.5 -32.5t35.5 -12.5t45.5 14t43.5 39z" />
    <glyph glyph-name="iogonek" unicode="&#x12f;" horiz-adv-x="361" 
d="M278 -152q-32 -42 -75 -64.5t-91 -22.5q-110 0 -110 88q0 45 39.5 83.5t112.5 67.5h-125v40q28 1 45.5 6.5t27 18t13 35t3.5 57.5v123q0 58 -2 95.5t-5 51.5q-5 25 -22.5 33t-63.5 8v34l232 38v-376q0 -40 3 -64t12 -37t26 -17.5t46 -5.5v-40h-115q-55 -24 -89.5 -58.5
t-34.5 -65.5q0 -20 13.5 -32.5t35.5 -12.5t45.5 14t43.5 39zM110 752q0 33 22.5 55.5t54.5 22.5q33 0 55.5 -22.5t22.5 -55.5q0 -32 -22.5 -54.5t-55.5 -22.5q-32 0 -54.5 22.5t-22.5 54.5z" />
    <glyph glyph-name="Idotaccent" unicode="&#x130;" horiz-adv-x="429" 
d="M393 0h-357v40q34 1 54.5 6.5t31.5 20.5t15 42.5t4 74.5v402q0 42 -3.5 69.5t-13.5 43.5t-28.5 22.5t-49.5 8.5v40h337v-40q-31 -2 -49.5 -8.5t-28.5 -22.5t-13.5 -43.5t-3.5 -69.5v-402q0 -47 3.5 -74.5t15 -42.5t32 -20.5t54.5 -6.5v-40zM147 893q0 28 20 47t46 19
q29 0 49.5 -19t20.5 -47q0 -26 -20.5 -44.5t-49.5 -18.5q-26 0 -46 18.5t-20 44.5z" />
    <glyph glyph-name="dotlessi" unicode="&#x131;" horiz-adv-x="361" 
d="M257 164q0 -40 3 -64t12 -37t26 -17.5t46 -5.5v-40h-315v40q28 1 45.5 6.5t27 18t13 35t3.5 57.5v123q0 58 -2 95.5t-5 51.5q-5 25 -22.5 33t-63.5 8v34l232 38v-376z" />
    <glyph glyph-name="IJ" unicode="&#x132;" horiz-adv-x="836" 
d="M393 0h-357v40q34 1 54.5 6.5t31.5 20.5t15 42.5t4 74.5v402q0 42 -3.5 69.5t-13.5 43.5t-28.5 22.5t-49.5 8.5v40h337v-40q-31 -2 -49.5 -8.5t-28.5 -22.5t-13.5 -43.5t-3.5 -69.5v-402q0 -47 3.5 -74.5t15 -42.5t32 -20.5t54.5 -6.5v-40zM559 616q0 35 -3.5 56.5
t-13.5 34t-28.5 17t-49.5 6.5v40h337v-40q-31 -1 -50 -6t-29 -18t-13 -36t-3 -61v-611q0 -126 -64 -192t-191 -66q-91 0 -140.5 31t-49.5 79q0 29 18.5 44.5t45.5 15.5q23 0 36.5 -12t33.5 -45t36 -44t39 -11q43 0 66 47t23 132v639z" />
    <glyph glyph-name="ij" unicode="&#x133;" horiz-adv-x="692" 
d="M257 164q0 -40 3 -64t12 -37t26 -17.5t46 -5.5v-40h-315v40q28 1 45.5 6.5t27 18t13 35t3.5 57.5v123q0 58 -2 95.5t-5 51.5q-5 25 -22.5 33t-63.5 8v34l232 38v-376zM110 752q0 33 22.5 55.5t54.5 22.5q33 0 55.5 -22.5t22.5 -55.5q0 -32 -22.5 -54.5t-55.5 -22.5
q-32 0 -54.5 22.5t-22.5 54.5zM607 -2q0 -125 -60.5 -191.5t-174.5 -66.5q-77 0 -120.5 28.5t-43.5 70.5q0 25 16.5 38.5t37.5 13.5q28 0 42 -15.5t25 -33.5t24.5 -33.5t40.5 -15.5q37 0 55.5 29t18.5 100v368q0 55 -2.5 90t-5.5 48q-5 23 -22 31.5t-63 8.5v34l232 38v-542z
M460 752q0 33 22.5 55.5t54.5 22.5q33 0 55.5 -22.5t22.5 -55.5q0 -32 -22.5 -54.5t-55.5 -22.5q-32 0 -54.5 22.5t-22.5 54.5z" />
    <glyph glyph-name="Jcircumflex" unicode="&#x134;" horiz-adv-x="407" 
d="M130 616q0 35 -3.5 56.5t-13.5 34t-28.5 17t-49.5 6.5v40h337v-40q-31 -1 -50 -6t-29 -18t-13 -36t-3 -61v-611q0 -126 -64 -192t-191 -66q-91 0 -140.5 31t-49.5 79q0 29 18.5 44.5t45.5 15.5q23 0 36.5 -12t33.5 -45t36 -44t39 -11q43 0 66 47t23 132v639zM261 960
l124 -130h-67l-115 49l-115 -49h-67l124 130h116z" />
    <glyph glyph-name="jcircumflex" unicode="&#x135;" horiz-adv-x="331" 
d="M246 -2q0 -125 -60.5 -191.5t-174.5 -66.5q-77 0 -120.5 28.5t-43.5 70.5q0 25 16.5 38.5t37.5 13.5q28 0 42 -15.5t25 -33.5t24.5 -33.5t40.5 -15.5q37 0 55.5 29t18.5 100v368q0 55 -2.5 90t-5.5 48q-5 23 -22 31.5t-63 8.5v34l232 38v-542zM224 800l120 -149h-52
l-120 68l-120 -68h-52l120 149h104z" />
    <glyph glyph-name="Kcommaaccent" unicode="&#x136;" horiz-adv-x="822" 
d="M287 161q0 -38 3.5 -61t13.5 -36t28.5 -18t49.5 -6v-40h-347v40q33 1 54 6t32 17t15 34t4 57v462q0 34 -3.5 56t-13.5 34t-28.5 17t-48.5 7v40h345v-40q-34 -1 -54.5 -6t-31.5 -18t-14.5 -36t-3.5 -61v-222l259 278q23 25 23 42q0 11 -14.5 17t-53.5 6v40h273v-39
q-22 -1 -38.5 -4t-33 -13t-37 -28.5t-50.5 -49.5l-178 -186l294 -358q21 -26 46.5 -38t65.5 -14v-40h-370v40q41 1 59 7t18 20q0 5 -1.5 9.5t-5 11t-10.5 16t-19 23.5l-177 218l-50 -52v-132zM378 -219q58 32 58 72q-10 -8 -27 -8q-19 0 -32.5 13.5t-13.5 36.5t20 41.5
t52 18.5t49 -20.5t17 -58.5q0 -34 -21.5 -65.5t-73.5 -60.5z" />
    <glyph glyph-name="kcommaaccent" unicode="&#x137;" horiz-adv-x="664" 
d="M358 40q32 0 45 2.5t13 10.5q0 6 -13.5 29.5t-34.5 54.5l-76 114l-50 -48v-39q0 -39 3 -63t10.5 -37.5t21 -18.5t34.5 -5v-40h-295v40q28 1 45 6t27 17.5t13.5 35t3.5 58.5v424q0 61 -2 96t-10.5 52.5t-26 21.5t-47.5 4v37l223 38v-556l96 91q52 49 74 73.5t22 35.5
q0 9 -18.5 12.5t-68.5 3.5v40h273v-40q-38 0 -67 -13t-63 -45l-97 -91l173 -245q23 -32 45 -44t58 -12v-40h-311v40zM286 -219q58 32 58 72q-10 -8 -27 -8q-19 0 -32.5 13.5t-13.5 36.5t20 41.5t52 18.5t49 -20.5t17 -58.5q0 -34 -21.5 -65.5t-73.5 -60.5z" />
    <glyph glyph-name="kgreenlandic" unicode="&#x138;" horiz-adv-x="675" 
d="M369 40q28 0 39.5 4.5t11.5 15.5q0 12 -17 38l-100 153l-50 -48v-39q0 -39 3 -63t10.5 -37.5t21 -18.5t34.5 -5v-40h-295v40q27 0 44.5 5t27 18t13.5 35.5t4 58.5v134q0 63 -2.5 98.5t-11 52t-25.5 20t-47 3.5v37l223 38v-266l96 91q30 28 48.5 47t29 31t14.5 19t4 12
q0 8 -16.5 12t-70.5 4v40h273v-40q-38 0 -66.5 -13t-63.5 -45l-97 -91l173 -245q25 -35 47.5 -45.5t55.5 -10.5v-40h-311v40z" />
    <glyph glyph-name="Lacute" unicode="&#x139;" horiz-adv-x="755" 
d="M724 0h-689v40q33 1 54 6t32 17t15 34t4 57v462q0 35 -3.5 56.5t-13.5 34t-28.5 17t-48.5 6.5v40h345v-40q-34 -1 -54.5 -6t-31.5 -18t-14.5 -36t-3.5 -61v-419q0 -42 8.5 -68.5t29.5 -41t56 -20t87 -5.5q58 0 97 7t65.5 26.5t42.5 52.5t27 86h40zM120 830l126 97
q20 15 44 24t50 9q28 0 42.5 -10t14.5 -27q0 -23 -18 -37.5t-70 -27.5l-116 -28h-73z" />
    <glyph glyph-name="lacute" unicode="&#x13a;" horiz-adv-x="355" 
d="M77 830l126 97q20 15 44 24t50 9q28 0 42.5 -10t14.5 -27q0 -23 -18 -37.5t-70 -27.5l-116 -28h-73zM247 164q0 -40 3 -64t12 -37t26 -17.5t46 -5.5v-40h-315v40q28 1 45.5 6.5t27 18t13 35t3.5 57.5v413q0 58 -2 95.5t-5 51.5q-5 25 -22.5 33t-63.5 8v34l232 38v-666z
" />
    <glyph glyph-name="Lcommaaccent" unicode="&#x13b;" horiz-adv-x="755" 
d="M724 0h-689v40q33 1 54 6t32 17t15 34t4 57v462q0 35 -3.5 56.5t-13.5 34t-28.5 17t-48.5 6.5v40h345v-40q-34 -1 -54.5 -6t-31.5 -18t-14.5 -36t-3.5 -61v-419q0 -42 8.5 -68.5t29.5 -41t56 -20t87 -5.5q58 0 97 7t65.5 26.5t42.5 52.5t27 86h40zM350 -219q58 32 58 72
q-10 -8 -27 -8q-19 0 -32.5 13.5t-13.5 36.5t20 41.5t52 18.5t49 -20.5t17 -58.5q0 -34 -21.5 -65.5t-73.5 -60.5z" />
    <glyph glyph-name="lcommaaccent" unicode="&#x13c;" horiz-adv-x="355" 
d="M247 164q0 -40 3 -64t12 -37t26 -17.5t46 -5.5v-40h-315v40q28 1 45.5 6.5t27 18t13 35t3.5 57.5v413q0 58 -2 95.5t-5 51.5q-5 25 -22.5 33t-63.5 8v34l232 38v-666zM131 -219q58 32 58 72q-10 -8 -27 -8q-19 0 -32.5 13.5t-13.5 36.5t20 41.5t52 18.5t49 -20.5
t17 -58.5q0 -34 -21.5 -65.5t-73.5 -60.5z" />
    <glyph glyph-name="Lcaron" unicode="&#x13d;" horiz-adv-x="755" 
d="M724 0h-689v40q33 1 54 6t32 17t15 34t4 57v462q0 35 -3.5 56.5t-13.5 34t-28.5 17t-48.5 6.5v40h345v-40q-34 -1 -54.5 -6t-31.5 -18t-14.5 -36t-3.5 -61v-419q0 -42 8.5 -68.5t29.5 -41t56 -20t87 -5.5q58 0 97 7t65.5 26.5t42.5 52.5t27 86h40zM168 830l-124 130h67
l115 -49l115 49h67l-124 -130h-116z" />
    <glyph glyph-name="lcaron" unicode="&#x13e;" horiz-adv-x="355" 
d="M247 164q0 -40 3 -64t12 -37t26 -17.5t46 -5.5v-40h-315v40q28 1 45.5 6.5t27 18t13 35t3.5 57.5v413q0 58 -2 95.5t-5 51.5q-5 25 -22.5 33t-63.5 8v34l232 38v-666zM356 590q58 41 58 88q-10 -8 -27 -8q-19 0 -32.5 13.5t-13.5 36.5t20 41.5t52 18.5t49 -20.5t17 -58.5
q0 -40 -21.5 -74t-73.5 -68z" />
    <glyph glyph-name="Ldot" unicode="&#x13f;" horiz-adv-x="755" 
d="M724 0h-689v40q33 1 54 6t32 17t15 34t4 57v462q0 35 -3.5 56.5t-13.5 34t-28.5 17t-48.5 6.5v40h345v-40q-34 -1 -54.5 -6t-31.5 -18t-14.5 -36t-3.5 -61v-419q0 -42 8.5 -68.5t29.5 -41t56 -20t87 -5.5q58 0 97 7t65.5 26.5t42.5 52.5t27 86h40zM415 401
q0 32 21.5 54.5t53.5 22.5q33 0 55 -22.5t22 -54.5q0 -31 -22 -52.5t-55 -21.5q-32 0 -53.5 21.5t-21.5 52.5z" />
    <glyph glyph-name="ldot" unicode="&#x140;" horiz-adv-x="439" 
d="M247 164q0 -40 3 -64t12 -37t26 -17.5t46 -5.5v-40h-315v40q28 1 45.5 6.5t27 18t13 35t3.5 57.5v413q0 58 -2 95.5t-5 51.5q-5 25 -22.5 33t-63.5 8v34l232 38v-666zM322 416q0 32 21.5 54.5t53.5 22.5q33 0 55 -22.5t22 -54.5q0 -31 -22 -52.5t-55 -21.5
q-32 0 -53.5 21.5t-21.5 52.5z" />
    <glyph glyph-name="Lslash" unicode="&#x141;" horiz-adv-x="757" 
d="M726 0h-689v40q33 1 54 6t32 17t15 34t4 57v151l-75 -45v74l75 45v237q0 35 -3.5 56.5t-13.5 34t-28.5 17t-48.5 6.5v40h345v-40q-34 -1 -54.5 -6t-31.5 -18t-14.5 -36t-3.5 -61v-143l118 71v-74l-118 -71v-202q0 -42 8.5 -68.5t29.5 -41t56 -20t87 -5.5q58 0 97 7
t65.5 26.5t42.5 52.5t27 86h40z" />
    <glyph glyph-name="lslash" unicode="&#x142;" horiz-adv-x="357" 
d="M248 471l73 43v-65l-73 -43v-242q0 -40 3 -64t12 -37t26 -17.5t46 -5.5v-40h-315v40q28 1 45.5 6.5t27 18t13 35t3.5 57.5v167l-72 -42v65l72 42v181q0 58 -2 95.5t-5 51.5q-5 25 -22.5 33t-63.5 8v34l232 38v-359z" />
    <glyph glyph-name="Nacute" unicode="&#x143;" horiz-adv-x="940" 
d="M670 -10l-443 631h-4v-430q0 -50 3.5 -79t15 -45t32 -21t53.5 -6v-40h-297v40q37 1 59.5 6.5t35 20.5t16.5 42.5t4 74.5v402q0 42 -4 69.5t-15 43.5t-31.5 22.5t-54.5 8.5v40h279l403 -578h4v387q0 49 -3.5 78.5t-15 45.5t-32 21t-53.5 6v40h297v-40q-37 -1 -59.5 -6.5
t-35 -20.5t-16.5 -43t-4 -74v-596h-134zM371 830l126 97q20 15 44 24t50 9q28 0 42.5 -10t14.5 -27q0 -23 -18 -37.5t-70 -27.5l-116 -28h-73z" />
    <glyph glyph-name="nacute" unicode="&#x144;" horiz-adv-x="727" 
d="M257 163q0 -41 2.5 -64.5t11 -36t26 -16.5t47.5 -6v-40h-315v40q29 2 46.5 6t27 16t12.5 34t3 60v125q0 59 -2 95.5t-5 49.5t-8 21.5t-15 13t-25 6t-38 1.5v34l193 38l13 -88h4q33 42 78 65t99 23q64 0 103.5 -17.5t70.5 -58.5q17 -23 30 -59.5t13 -100.5v-141
q0 -41 2.5 -64.5t11 -36t25.5 -16.5t46 -6v-40h-313v40q30 1 47.5 5.5t26.5 16.5t12 34.5t3 59.5v136q0 51 -6 86t-19.5 56.5t-35.5 31t-55 9.5q-32 0 -55 -18t-40 -50q-9 -18 -15.5 -46.5t-6.5 -59.5v-138zM271 651l127 119q24 23 44.5 33t40.5 10q25 0 40 -12t15 -33
q0 -17 -18.5 -30t-50.5 -27l-139 -60h-59z" />
    <glyph glyph-name="Ncommaaccent" unicode="&#x145;" horiz-adv-x="940" 
d="M670 -10l-443 631h-4v-430q0 -50 3.5 -79t15 -45t32 -21t53.5 -6v-40h-297v40q37 1 59.5 6.5t35 20.5t16.5 42.5t4 74.5v402q0 42 -4 69.5t-15 43.5t-31.5 22.5t-54.5 8.5v40h279l403 -578h4v387q0 49 -3.5 78.5t-15 45.5t-32 21t-53.5 6v40h297v-40q-37 -1 -59.5 -6.5
t-35 -20.5t-16.5 -43t-4 -74v-596h-134zM432 -219q58 32 58 72q-10 -8 -27 -8q-19 0 -32.5 13.5t-13.5 36.5t20 41.5t52 18.5t49 -20.5t17 -58.5q0 -34 -21.5 -65.5t-73.5 -60.5z" />
    <glyph glyph-name="ncommaaccent" unicode="&#x146;" horiz-adv-x="727" 
d="M257 163q0 -41 2.5 -64.5t11 -36t26 -16.5t47.5 -6v-40h-315v40q29 2 46.5 6t27 16t12.5 34t3 60v125q0 59 -2 95.5t-5 49.5t-8 21.5t-15 13t-25 6t-38 1.5v34l193 38l13 -88h4q33 42 78 65t99 23q64 0 103.5 -17.5t70.5 -58.5q17 -23 30 -59.5t13 -100.5v-141
q0 -41 2.5 -64.5t11 -36t25.5 -16.5t46 -6v-40h-313v40q30 1 47.5 5.5t26.5 16.5t12 34.5t3 59.5v136q0 51 -6 86t-19.5 56.5t-35.5 31t-55 9.5q-32 0 -55 -18t-40 -50q-9 -18 -15.5 -46.5t-6.5 -59.5v-138zM312 -219q58 32 58 72q-10 -8 -27 -8q-19 0 -32.5 13.5
t-13.5 36.5t20 41.5t52 18.5t49 -20.5t17 -58.5q0 -34 -21.5 -65.5t-73.5 -60.5z" />
    <glyph glyph-name="Ncaron" unicode="&#x147;" horiz-adv-x="940" 
d="M670 -10l-443 631h-4v-430q0 -50 3.5 -79t15 -45t32 -21t53.5 -6v-40h-297v40q37 1 59.5 6.5t35 20.5t16.5 42.5t4 74.5v402q0 42 -4 69.5t-15 43.5t-31.5 22.5t-54.5 8.5v40h279l403 -578h4v387q0 49 -3.5 78.5t-15 45.5t-32 21t-53.5 6v40h297v-40q-37 -1 -59.5 -6.5
t-35 -20.5t-16.5 -43t-4 -74v-596h-134zM412 830l-124 130h67l115 -49l115 49h67l-124 -130h-116z" />
    <glyph glyph-name="ncaron" unicode="&#x148;" horiz-adv-x="727" 
d="M257 163q0 -41 2.5 -64.5t11 -36t26 -16.5t47.5 -6v-40h-315v40q29 2 46.5 6t27 16t12.5 34t3 60v125q0 59 -2 95.5t-5 49.5t-8 21.5t-15 13t-25 6t-38 1.5v34l193 38l13 -88h4q33 42 78 65t99 23q64 0 103.5 -17.5t70.5 -58.5q17 -23 30 -59.5t13 -100.5v-141
q0 -41 2.5 -64.5t11 -36t25.5 -16.5t46 -6v-40h-313v40q30 1 47.5 5.5t26.5 16.5t12 34.5t3 59.5v136q0 51 -6 86t-19.5 56.5t-35.5 31t-55 9.5q-32 0 -55 -18t-40 -50q-9 -18 -15.5 -46.5t-6.5 -59.5v-138zM319 651l-120 149h52l120 -68l120 68h52l-120 -149h-104z" />
    <glyph glyph-name="napostrophe" unicode="&#x149;" horiz-adv-x="797" 
d="M327 163q0 -41 2.5 -64.5t11 -36t26 -16.5t47.5 -6v-40h-315v40q29 2 46.5 6t27 16t12.5 34t3 60v125q0 59 -2 95.5t-5 49.5t-8 21.5t-15 13t-25 6t-38 1.5v34l193 38l13 -88h4q33 42 78 65t99 23q64 0 103.5 -17.5t70.5 -58.5q17 -23 30 -59.5t13 -100.5v-141
q0 -41 2.5 -64.5t11 -36t25.5 -16.5t46 -6v-40h-313v40q30 1 47.5 5.5t26.5 16.5t12 34.5t3 59.5v136q0 51 -6 86t-19.5 56.5t-35.5 31t-55 9.5q-32 0 -55 -18t-40 -50q-9 -18 -15.5 -46.5t-6.5 -59.5v-138zM55 596q-3 20 -8.5 42t-10.5 45q-7 27 -12 50.5t-5 37.5
q0 26 16 42.5t40 16.5t40 -17t16 -43q0 -14 -5 -37t-12 -50q-5 -22 -10 -44.5t-8 -42.5h-41z" />
    <glyph glyph-name="Eng" unicode="&#x14a;" horiz-adv-x="940" 
d="M804 -10q0 -122 -59 -186t-167 -64q-73 0 -117.5 29.5t-44.5 77.5q0 26 13.5 39.5t37.5 13.5q19 0 30 -10t27 -37q20 -33 34.5 -44t37.5 -11q57 0 90.5 36t38.5 102l-498 695h-4v-440q0 -50 3.5 -79t15 -45t32 -21t53.5 -6v-40h-297v40q37 1 59.5 6.5t35 20.5t16.5 42.5
t4 74.5v402q0 42 -4 69.5t-15 43.5t-31.5 22.5t-54.5 8.5v40h279l403 -578h4v387q0 49 -3.5 78.5t-15 45.5t-32 21t-53.5 6v40h297v-40q-37 -1 -59.5 -6t-35 -20t-16.5 -42.5t-4 -73.5v-598z" />
    <glyph glyph-name="eng" unicode="&#x14b;" horiz-adv-x="700" 
d="M257 163q0 -41 2.5 -64.5t11 -36t26 -16.5t47.5 -6v-40h-315v40q29 2 46.5 6t27 16t12.5 34t3 60v125q0 59 -2 95.5t-5 49.5t-8 21.5t-15 13t-25 6t-38 1.5v34l193 38l13 -88h4q33 42 78 65t99 23q64 0 103.5 -17.5t70.5 -58.5q17 -23 30 -59.5t13 -100.5v-306
q0 -125 -60.5 -191.5t-174.5 -66.5q-77 0 -120.5 28.5t-43.5 70.5q0 25 16.5 38.5t37.5 13.5q28 0 42 -15.5t25 -33.5t24.5 -33.5t40.5 -15.5q37 0 55.5 29t18.5 100v370q0 51 -6 86t-19.5 56.5t-35.5 31t-55 9.5q-32 0 -55 -18t-40 -50q-9 -18 -15.5 -46.5t-6.5 -59.5v-138
z" />
    <glyph glyph-name="Omacron" unicode="&#x14c;" horiz-adv-x="944" 
d="M472 780q90 0 168 -31t135.5 -85t90.5 -127t33 -158q0 -81 -33.5 -152t-91 -123.5t-135.5 -83t-167 -30.5t-167 30.5t-136 83t-91 123.5t-33 152q0 85 33 158t90.5 127t135.5 85t168 31zM472 55q58 0 105 22.5t80 64t50.5 101t17.5 133.5q0 78 -17.5 140.5t-50.5 107
t-80 68t-105 23.5q-59 0 -105.5 -23.5t-79.5 -68t-50.5 -107t-17.5 -140.5q0 -74 17.5 -133.5t50.5 -101t79.5 -64t105.5 -22.5zM329 865v65h284v-65h-284z" />
    <glyph glyph-name="omacron" unicode="&#x14d;" horiz-adv-x="660" 
d="M328 540q60 0 113.5 -20.5t94 -56.5t64 -85.5t23.5 -108.5q0 -61 -23.5 -112t-64 -88t-94 -58t-113.5 -21q-59 0 -112 20.5t-93 57.5t-63 88.5t-23 112.5q0 59 23 109t63 86t93 56t112 20zM328 482q-30 0 -55 -15.5t-42.5 -43.5t-27 -67.5t-9.5 -87.5q0 -50 9.5 -90
t27 -68t42 -43.5t55.5 -15.5t56.5 15.5t43.5 44t28 68.5t10 89q0 48 -10 87t-28 67.5t-43.5 44t-56.5 15.5zM186 692v65h284v-65h-284z" />
    <glyph glyph-name="Obreve" unicode="&#x14e;" horiz-adv-x="944" 
d="M472 780q90 0 168 -31t135.5 -85t90.5 -127t33 -158q0 -81 -33.5 -152t-91 -123.5t-135.5 -83t-167 -30.5t-167 30.5t-136 83t-91 123.5t-33 152q0 85 33 158t90.5 127t135.5 85t168 31zM472 55q58 0 105 22.5t80 64t50.5 101t17.5 133.5q0 78 -17.5 140.5t-50.5 107
t-80 68t-105 23.5q-59 0 -105.5 -23.5t-79.5 -68t-50.5 -107t-17.5 -140.5q0 -74 17.5 -133.5t50.5 -101t79.5 -64t105.5 -22.5zM624 960q-2 -29 -14 -52.5t-32 -41t-46.5 -27t-57.5 -9.5q-32 0 -58.5 10t-46.5 27t-32 41t-13 52h43q9 -19 38 -30t68 -11t68.5 11t38.5 30h44
z" />
    <glyph glyph-name="obreve" unicode="&#x14f;" horiz-adv-x="660" 
d="M328 540q60 0 113.5 -20.5t94 -56.5t64 -85.5t23.5 -108.5q0 -61 -23.5 -112t-64 -88t-94 -58t-113.5 -21q-59 0 -112 20.5t-93 57.5t-63 88.5t-23 112.5q0 59 23 109t63 86t93 56t112 20zM328 482q-30 0 -55 -15.5t-42.5 -43.5t-27 -67.5t-9.5 -87.5q0 -50 9.5 -90
t27 -68t42 -43.5t55.5 -15.5t56.5 15.5t43.5 44t28 68.5t10 89q0 48 -10 87t-28 67.5t-43.5 44t-56.5 15.5zM478 786q-2 -31 -14 -56.5t-32 -44t-46.5 -29t-57.5 -10.5q-32 0 -58.5 10.5t-46.5 29t-32 44.5t-13 56h43q9 -23 38 -37t68 -14t68.5 14t38.5 37h44z" />
    <glyph glyph-name="Ohungarumlaut" unicode="&#x150;" horiz-adv-x="944" 
d="M472 780q90 0 168 -31t135.5 -85t90.5 -127t33 -158q0 -81 -33.5 -152t-91 -123.5t-135.5 -83t-167 -30.5t-167 30.5t-136 83t-91 123.5t-33 152q0 85 33 158t90.5 127t135.5 85t168 31zM472 55q58 0 105 22.5t80 64t50.5 101t17.5 133.5q0 78 -17.5 140.5t-50.5 107
t-80 68t-105 23.5q-59 0 -105.5 -23.5t-79.5 -68t-50.5 -107t-17.5 -140.5q0 -74 17.5 -133.5t50.5 -101t79.5 -64t105.5 -22.5zM271 830l106 97q18 17 43 25t51 8q28 0 42.5 -10t14.5 -27q0 -23 -18.5 -36.5t-69.5 -28.5l-96 -28h-73zM495 830l106 97q18 17 43 25t51 8
q28 0 42.5 -10t14.5 -27q0 -23 -18.5 -36.5t-69.5 -28.5l-96 -28h-73z" />
    <glyph glyph-name="ohungarumlaut" unicode="&#x151;" horiz-adv-x="660" 
d="M328 540q60 0 113.5 -20.5t94 -56.5t64 -85.5t23.5 -108.5q0 -61 -23.5 -112t-64 -88t-94 -58t-113.5 -21q-59 0 -112 20.5t-93 57.5t-63 88.5t-23 112.5q0 59 23 109t63 86t93 56t112 20zM328 482q-30 0 -55 -15.5t-42.5 -43.5t-27 -67.5t-9.5 -87.5q0 -50 9.5 -90
t27 -68t42 -43.5t55.5 -15.5t56.5 15.5t43.5 44t28 68.5t10 89q0 48 -10 87t-28 67.5t-43.5 44t-56.5 15.5zM156 651l127 119q24 23 44.5 33t40.5 10q25 0 40 -12t15 -33q0 -17 -18.5 -30t-50.5 -27l-139 -60h-59zM393 651l127 119q24 23 44.5 33t40.5 10q25 0 40 -12
t15 -33q0 -17 -18.5 -30t-50.5 -27l-139 -60h-59z" />
    <glyph glyph-name="OE" unicode="&#x152;" horiz-adv-x="1181" 
d="M1096 770l9 -196h-42q-6 40 -19.5 67t-37.5 44t-60.5 24.5t-90.5 7.5h-133q-18 0 -18 -17v-277q58 0 95.5 5t60 19t33.5 38t15 63h41v-293h-41q-6 38 -17 62.5t-33 39t-59 20.5t-95 6v-214q0 -33 8.5 -54.5t29 -35t53.5 -19t83 -5.5q60 0 100 9.5t66 30t41 53.5t26 81h40
l-21 -229h-652q-91 0 -170 29.5t-137.5 81t-92 120.5t-33.5 148q0 82 33.5 153.5t92.5 124.5t139 83t172 30h614zM482 705q-62 0 -110.5 -22.5t-82.5 -65t-52 -103.5t-18 -138q0 -72 18 -129.5t52 -98t82.5 -62t110.5 -21.5q42 0 58.5 19t16.5 68v466q0 50 -17 68.5
t-58 18.5z" />
    <glyph glyph-name="oe" unicode="&#x153;" horiz-adv-x="1053" 
d="M1008 93q-91 -103 -227 -103q-73 0 -130.5 27t-93.5 75q-41 -48 -100.5 -75t-128.5 -27q-59 0 -112 20.5t-93 57.5t-63 88.5t-23 112.5q0 59 23 109t63 86t93 56t112 20q71 0 132 -28t103 -78q38 50 97 78t133 28q106 0 165 -57t59 -160q0 -16 -5 -19.5t-28 -3.5h-322
q-4 -9 -4 -33q0 -98 42.5 -155t115.5 -57q42 0 83.5 19t80.5 54zM328 482q-30 0 -55 -15.5t-42.5 -43.5t-27 -67.5t-9.5 -87.5q0 -50 9.5 -90t27 -68t42 -43.5t55.5 -15.5t56.5 15.5t43.5 44t28 68.5t10 89q0 48 -10 87t-28 67.5t-43.5 44t-56.5 15.5zM814 356
q40 0 51.5 4.5t11.5 21.5q0 44 -25 72t-63 28q-43 0 -76.5 -35.5t-43.5 -90.5h145z" />
    <glyph glyph-name="Racute" unicode="&#x154;" horiz-adv-x="815" 
d="M695 577q0 -83 -48 -139t-153 -75l232 -266q24 -28 57 -42.5t67 -14.5v-40h-237l-248 304q-25 30 -43.5 40.5t-34.5 10.5v-196q0 -37 5 -60.5t20 -36.5t43.5 -17.5t76.5 -4.5v-40h-397v40q33 0 53.5 4.5t32 17t15.5 35t4 57.5v462q0 35 -3 56.5t-13 34t-28.5 17
t-49.5 6.5v40h346q145 0 224 -51t79 -142zM287 415h65q94 0 140.5 36.5t46.5 120.5q0 64 -39 103t-108 39h-87q-18 0 -18 -17v-282zM292 830l126 97q20 15 44 24t50 9q28 0 42.5 -10t14.5 -27q0 -23 -18 -37.5t-70 -27.5l-116 -28h-73z" />
    <glyph glyph-name="racute" unicode="&#x155;" horiz-adv-x="498" 
d="M258 155q0 -39 3.5 -61.5t14.5 -34.5t32 -15.5t56 -3.5v-40h-334v40q30 2 48 6t27 16t11.5 34.5t2.5 60.5v122q0 62 -3 99t-13 57t-28.5 26.5t-48.5 6.5v35l200 37l16 -115h4q27 53 71 84t93 31q38 0 62 -19t24 -48q0 -32 -18.5 -54t-50.5 -22q-15 0 -27 6t-21.5 13.5
t-19 14t-19.5 6.5q-19 0 -36 -25t-28 -67q-8 -30 -13 -67.5t-5 -74.5v-48zM189 651l127 119q24 23 44.5 33t40.5 10q25 0 40 -12t15 -33q0 -17 -18.5 -30t-50.5 -27l-139 -60h-59z" />
    <glyph glyph-name="Rcommaaccent" unicode="&#x156;" horiz-adv-x="815" 
d="M695 577q0 -83 -48 -139t-153 -75l232 -266q24 -28 57 -42.5t67 -14.5v-40h-237l-248 304q-25 30 -43.5 40.5t-34.5 10.5v-196q0 -37 5 -60.5t20 -36.5t43.5 -17.5t76.5 -4.5v-40h-397v40q33 0 53.5 4.5t32 17t15.5 35t4 57.5v462q0 35 -3 56.5t-13 34t-28.5 17
t-49.5 6.5v40h346q145 0 224 -51t79 -142zM287 415h65q94 0 140.5 36.5t46.5 120.5q0 64 -39 103t-108 39h-87q-18 0 -18 -17v-282zM378 -219q58 32 58 72q-10 -8 -27 -8q-19 0 -32.5 13.5t-13.5 36.5t20 41.5t52 18.5t49 -20.5t17 -58.5q0 -34 -21.5 -65.5t-73.5 -60.5z
" />
    <glyph glyph-name="rcommaaccent" unicode="&#x157;" horiz-adv-x="498" 
d="M258 155q0 -39 3.5 -61.5t14.5 -34.5t32 -15.5t56 -3.5v-40h-334v40q30 2 48 6t27 16t11.5 34.5t2.5 60.5v122q0 62 -3 99t-13 57t-28.5 26.5t-48.5 6.5v35l200 37l16 -115h4q27 53 71 84t93 31q38 0 62 -19t24 -48q0 -32 -18.5 -54t-50.5 -22q-15 0 -27 6t-21.5 13.5
t-19 14t-19.5 6.5q-19 0 -36 -25t-28 -67q-8 -30 -13 -67.5t-5 -74.5v-48zM130 -219q58 32 58 72q-10 -8 -27 -8q-19 0 -32.5 13.5t-13.5 36.5t20 41.5t52 18.5t49 -20.5t17 -58.5q0 -34 -21.5 -65.5t-73.5 -60.5z" />
    <glyph glyph-name="Rcaron" unicode="&#x158;" horiz-adv-x="815" 
d="M695 577q0 -83 -48 -139t-153 -75l232 -266q24 -28 57 -42.5t67 -14.5v-40h-237l-248 304q-25 30 -43.5 40.5t-34.5 10.5v-196q0 -37 5 -60.5t20 -36.5t43.5 -17.5t76.5 -4.5v-40h-397v40q33 0 53.5 4.5t32 17t15.5 35t4 57.5v462q0 35 -3 56.5t-13 34t-28.5 17
t-49.5 6.5v40h346q145 0 224 -51t79 -142zM287 415h65q94 0 140.5 36.5t46.5 120.5q0 64 -39 103t-108 39h-87q-18 0 -18 -17v-282zM317 830l-124 130h67l115 -49l115 49h67l-124 -130h-116z" />
    <glyph glyph-name="rcaron" unicode="&#x159;" horiz-adv-x="498" 
d="M258 155q0 -39 3.5 -61.5t14.5 -34.5t32 -15.5t56 -3.5v-40h-334v40q30 2 48 6t27 16t11.5 34.5t2.5 60.5v122q0 62 -3 99t-13 57t-28.5 26.5t-48.5 6.5v35l200 37l16 -115h4q27 53 71 84t93 31q38 0 62 -19t24 -48q0 -32 -18.5 -54t-50.5 -22q-15 0 -27 6t-21.5 13.5
t-19 14t-19.5 6.5q-19 0 -36 -25t-28 -67q-8 -30 -13 -67.5t-5 -74.5v-48zM236 651l-120 149h52l120 -68l120 68h52l-120 -149h-104z" />
    <glyph glyph-name="Sacute" unicode="&#x15a;" horiz-adv-x="663" 
d="M54 255h39q14 -95 76 -149.5t153 -54.5q37 0 68 9t53 25.5t34 39t12 50.5q0 24 -7.5 41.5t-28.5 34t-57.5 33.5t-94.5 39q-117 45 -173 104.5t-56 140.5q0 47 18 86t50.5 67t78 43.5t100.5 15.5q51 0 96 -16t89 -48l18 50h24l11 -216h-39q-24 82 -75 125.5t-118 43.5
q-62 0 -100.5 -30.5t-38.5 -78.5q0 -21 7 -37.5t26 -31.5t52 -30.5t85 -34.5q70 -27 119.5 -54.5t81 -59t46.5 -66.5t15 -77q0 -51 -22 -93t-61.5 -72t-94 -47t-120.5 -17q-60 0 -108 16.5t-99 53.5l-20 -60h-24zM213 830l126 97q20 15 44 24t50 9q28 0 42.5 -10t14.5 -27
q0 -23 -18 -37.5t-70 -27.5l-116 -28h-73z" />
    <glyph glyph-name="sacute" unicode="&#x15b;" horiz-adv-x="466" 
d="M85 0h-31v182h42q17 -72 49 -105t83 -33q37 0 57.5 15.5t20.5 42.5q0 28 -25 54.5t-81 56.5q-76 41 -109 81.5t-33 91.5q0 33 12.5 61.5t34 49.5t51.5 32.5t65 11.5q31 0 61.5 -9t53.5 -25l18 24h26v-151h-39q-23 57 -47.5 82t-59.5 25q-28 0 -44.5 -15t-16.5 -40
q0 -28 24.5 -53t81.5 -55q40 -22 69 -43t47 -42.5t26.5 -45t8.5 -50.5q0 -35 -13 -63t-37 -48t-57.5 -31t-74.5 -11q-43 0 -80 11.5t-61 33.5zM138 651l127 119q24 23 44.5 33t40.5 10q25 0 40 -12t15 -33q0 -17 -18.5 -30t-50.5 -27l-139 -60h-59z" />
    <glyph glyph-name="Scircumflex" unicode="&#x15c;" horiz-adv-x="663" 
d="M54 255h39q14 -95 76 -149.5t153 -54.5q37 0 68 9t53 25.5t34 39t12 50.5q0 24 -7.5 41.5t-28.5 34t-57.5 33.5t-94.5 39q-117 45 -173 104.5t-56 140.5q0 47 18 86t50.5 67t78 43.5t100.5 15.5q51 0 96 -16t89 -48l18 50h24l11 -216h-39q-24 82 -75 125.5t-118 43.5
q-62 0 -100.5 -30.5t-38.5 -78.5q0 -21 7 -37.5t26 -31.5t52 -30.5t85 -34.5q70 -27 119.5 -54.5t81 -59t46.5 -66.5t15 -77q0 -51 -22 -93t-61.5 -72t-94 -47t-120.5 -17q-60 0 -108 16.5t-99 53.5l-20 -60h-24zM377 960l124 -130h-67l-115 49l-115 -49h-67l124 130h116z
" />
    <glyph glyph-name="scircumflex" unicode="&#x15d;" horiz-adv-x="466" 
d="M85 0h-31v182h42q17 -72 49 -105t83 -33q37 0 57.5 15.5t20.5 42.5q0 28 -25 54.5t-81 56.5q-76 41 -109 81.5t-33 91.5q0 33 12.5 61.5t34 49.5t51.5 32.5t65 11.5q31 0 61.5 -9t53.5 -25l18 24h26v-151h-39q-23 57 -47.5 82t-59.5 25q-28 0 -44.5 -15t-16.5 -40
q0 -28 24.5 -53t81.5 -55q40 -22 69 -43t47 -42.5t26.5 -45t8.5 -50.5q0 -35 -13 -63t-37 -48t-57.5 -31t-74.5 -11q-43 0 -80 11.5t-61 33.5zM294 800l120 -149h-52l-120 68l-120 -68h-52l120 149h104z" />
    <glyph glyph-name="uni015E" unicode="&#x15e;" horiz-adv-x="663" 
d="M54 255h39q14 -95 76 -149.5t153 -54.5q37 0 68 9t53 25.5t34 39t12 50.5q0 24 -7.5 41.5t-28.5 34t-57.5 33.5t-94.5 39q-117 45 -173 104.5t-56 140.5q0 47 18 86t50.5 67t78 43.5t100.5 15.5q51 0 96 -16t89 -48l18 50h24l11 -216h-39q-24 82 -75 125.5t-118 43.5
q-62 0 -100.5 -30.5t-38.5 -78.5q0 -21 7 -37.5t26 -31.5t52 -30.5t85 -34.5q70 -27 119.5 -54.5t81 -59t46.5 -66.5t15 -77q0 -48 -20 -88.5t-56 -70.5t-86 -48t-111 -21l-22 -53q63 0 99 -25t36 -68q0 -47 -39.5 -76t-102.5 -29q-57 0 -94 24t-37 62q0 20 9.5 30.5
t26.5 10.5q14 0 23 -8t18 -29q10 -24 19.5 -33t26.5 -9q20 0 32 12.5t12 32.5q0 54 -76 54q-8 0 -20 -0.5t-19 -1.5l-2 3l46 104q-46 5 -86 21t-82 47l-20 -60h-24z" />
    <glyph glyph-name="uni015F" unicode="&#x15f;" horiz-adv-x="466" 
d="M85 0h-31v182h42q17 -72 49 -105t83 -33q37 0 57.5 15.5t20.5 42.5q0 28 -25 54.5t-81 56.5q-76 41 -109 81.5t-33 91.5q0 33 12.5 61.5t34 49.5t51.5 32.5t65 11.5q31 0 61.5 -9t53.5 -25l18 24h26v-151h-39q-23 57 -47.5 82t-59.5 25q-28 0 -44.5 -15t-16.5 -40
q0 -28 24.5 -53t81.5 -55q40 -22 69 -43t47 -42.5t26.5 -45t8.5 -50.5q0 -67 -46 -108t-124 -44l-22 -53q63 0 99 -25t36 -68q0 -47 -39.5 -76t-102.5 -29q-57 0 -94 24t-37 62q0 20 9.5 30.5t26.5 10.5q14 0 23 -8t18 -29q10 -24 19.5 -33t26.5 -9q20 0 32 12.5t12 32.5
q0 54 -76 54q-8 0 -20 -0.5t-19 -1.5l-2 3l47 107q-56 9 -90 40z" />
    <glyph glyph-name="Scaron" unicode="&#x160;" horiz-adv-x="663" 
d="M54 255h39q14 -95 76 -149.5t153 -54.5q37 0 68 9t53 25.5t34 39t12 50.5q0 24 -7.5 41.5t-28.5 34t-57.5 33.5t-94.5 39q-117 45 -173 104.5t-56 140.5q0 47 18 86t50.5 67t78 43.5t100.5 15.5q51 0 96 -16t89 -48l18 50h24l11 -216h-39q-24 82 -75 125.5t-118 43.5
q-62 0 -100.5 -30.5t-38.5 -78.5q0 -21 7 -37.5t26 -31.5t52 -30.5t85 -34.5q70 -27 119.5 -54.5t81 -59t46.5 -66.5t15 -77q0 -51 -22 -93t-61.5 -72t-94 -47t-120.5 -17q-60 0 -108 16.5t-99 53.5l-20 -60h-24zM261 830l-124 130h67l115 -49l115 49h67l-124 -130h-116z
" />
    <glyph glyph-name="scaron" unicode="&#x161;" horiz-adv-x="466" 
d="M85 0h-31v182h42q17 -72 49 -105t83 -33q37 0 57.5 15.5t20.5 42.5q0 28 -25 54.5t-81 56.5q-76 41 -109 81.5t-33 91.5q0 33 12.5 61.5t34 49.5t51.5 32.5t65 11.5q31 0 61.5 -9t53.5 -25l18 24h26v-151h-39q-23 57 -47.5 82t-59.5 25q-28 0 -44.5 -15t-16.5 -40
q0 -28 24.5 -53t81.5 -55q40 -22 69 -43t47 -42.5t26.5 -45t8.5 -50.5q0 -35 -13 -63t-37 -48t-57.5 -31t-74.5 -11q-43 0 -80 11.5t-61 33.5zM190 651l-120 149h52l120 -68l120 68h52l-120 -149h-104z" />
    <glyph glyph-name="uni0162" unicode="&#x162;" horiz-adv-x="827" 
d="M815 550h-43q-3 49 -14.5 81.5t-32.5 52t-51 27t-70 7.5q-39 0 -62.5 -1.5t-36 -5t-16.5 -9.5t-4 -15v-524q0 -32 4.5 -55t18.5 -37.5t41 -22t71 -8.5v-40h-181l-27 -62q63 0 99 -25t36 -68q0 -47 -39.5 -76t-102.5 -29q-57 0 -94 24t-37 62q0 20 9.5 30.5t26.5 10.5
q14 0 23 -8t18 -29q10 -24 19.5 -33t26.5 -9q20 0 32 12.5t12 32.5q0 54 -76 54q-8 0 -20 -0.5t-19 -1.5l-2 3l49 112h-172v40q45 1 72 8.5t41.5 22t19 37.5t4.5 55v524q0 9 -3.5 15t-14.5 9.5t-31.5 5t-53.5 1.5q-36 0 -69 -3.5t-58 -20t-40.5 -50t-16.5 -94.5h-39l10 220
h783z" />
    <glyph glyph-name="uni0163" unicode="&#x163;" horiz-adv-x="382" 
d="M25 475v45q60 17 100.5 51.5t60.5 79.5h51v-121h115v-55h-115v-307q0 -62 13.5 -88t45.5 -26q39 0 59 36l21 -29q-28 -71 -132 -71l-22 -52q63 0 99 -25t36 -68q0 -47 -39.5 -76t-102.5 -29q-57 0 -94 24t-37 62q0 20 9.5 30.5t26.5 10.5q14 0 23 -8t18 -29
q10 -24 19.5 -33t26.5 -9q20 0 32 12.5t12 32.5q0 54 -76 54q-8 0 -20 -0.5t-19 -1.5l-2 3l48 110q-41 12 -62.5 41t-21.5 73v363h-73z" />
    <glyph glyph-name="Tcaron" unicode="&#x164;" horiz-adv-x="827" 
d="M815 550h-43q-3 49 -14.5 81.5t-32.5 52t-51 27t-70 7.5q-39 0 -62.5 -1.5t-36 -5t-16.5 -9.5t-4 -15v-524q0 -32 4.5 -55t18.5 -37.5t41 -22t71 -8.5v-40h-419v40q45 1 72 8.5t41.5 22t19 37.5t4.5 55v524q0 9 -3.5 15t-14.5 9.5t-31.5 5t-53.5 1.5q-36 0 -69 -3.5
t-58 -20t-40.5 -50t-16.5 -94.5h-39l10 220h783zM354 830l-124 130h67l115 -49l115 49h67l-124 -130h-116z" />
    <glyph glyph-name="tcaron" unicode="&#x165;" horiz-adv-x="382" 
d="M25 475v45q60 17 100.5 51.5t60.5 79.5h51v-121h115v-55h-115v-307q0 -62 13.5 -88t45.5 -26q39 0 59 36l21 -29q-28 -71 -132 -71q-69 0 -107.5 32t-38.5 90v363h-73zM327 590q58 41 58 88q-10 -8 -27 -8q-19 0 -32.5 13.5t-13.5 36.5t20 41.5t52 18.5t49 -20.5
t17 -58.5q0 -40 -21.5 -74t-73.5 -68z" />
    <glyph glyph-name="Tbar" unicode="&#x166;" horiz-adv-x="827" 
d="M815 550h-43q-3 49 -14.5 81.5t-32.5 52t-51 27t-70 7.5q-39 0 -62.5 -1.5t-36 -5t-16.5 -9.5t-4 -15v-220h203v-60h-203v-244q0 -32 4.5 -55t18.5 -37.5t41 -22t71 -8.5v-40h-419v40q45 1 72 8.5t41.5 22t19 37.5t4.5 55v244h-203v60h203v220q0 9 -3.5 15t-14.5 9.5
t-31.5 5t-53.5 1.5q-36 0 -69 -3.5t-58 -20t-40.5 -50t-16.5 -94.5h-39l10 220h783z" />
    <glyph glyph-name="tbar" unicode="&#x167;" horiz-adv-x="385" 
d="M28 475v45q60 17 100.5 51.5t60.5 79.5h51v-121h115v-55h-115v-94h102v-50h-102v-163q0 -62 13.5 -88t45.5 -26q39 0 59 36l21 -29q-28 -71 -132 -71q-69 0 -107.5 32t-38.5 90v219h-52v50h52v94h-73z" />
    <glyph glyph-name="Utilde" unicode="&#x168;" horiz-adv-x="880" 
d="M757 310q0 -85 -18.5 -145.5t-57.5 -99.5t-100.5 -57t-147.5 -18q-161 0 -235.5 67.5t-74.5 215.5v274q0 39 -1 65.5t-3 44.5t-5.5 29.5t-8.5 19.5q-9 14 -26 19t-52 5v40h359v-40q-42 0 -62 -4.5t-31 -17.5q-7 -8 -11.5 -19.5t-7 -30t-3.5 -45.5t-1 -66v-262
q0 -114 48.5 -168.5t149.5 -54.5q206 0 206 229v231q0 42 -1.5 72t-5 51t-9 35t-13.5 23q-14 14 -36 20.5t-61 6.5v40h324v-40q-37 0 -57 -5.5t-31 -19.5q-8 -9 -13 -23.5t-8 -36t-4.5 -51.5t-1.5 -72v-212zM290 828q10 59 43 96.5t76 37.5q7 0 14.5 -1t17.5 -4t23 -7.5
t32 -11.5q31 -12 48 -17t31 -5q19 0 30 9.5t19 32.5h45q-4 -26 -16 -54t-28 -48q-30 -36 -73 -36q-18 0 -37 5.5t-48 19.5q-23 11 -46.5 17t-40.5 6t-26.5 -8.5t-17.5 -31.5h-46z" />
    <glyph glyph-name="utilde" unicode="&#x169;" horiz-adv-x="709" 
d="M465 366q0 40 -2 63.5t-11 36t-26.5 17t-47.5 7.5v40h226v-303q0 -61 1.5 -95.5t5.5 -51.5q3 -13 7 -20.5t13 -12t24.5 -6t40.5 -1.5v-39l-199 -12l-11 89h-4q-26 -42 -73 -65t-105 -23q-107 0 -163 76q-43 58 -43 165v135q0 41 -2 64.5t-10.5 35.5t-25.5 16.5t-47 7.5
v40h224v-283q0 -101 25 -146.5t80 -45.5q59 0 91 54q32 52 32 153v104zM122 660q10 59 43 96.5t76 37.5q7 0 14.5 -1t17.5 -4t23 -7.5t32 -11.5q31 -12 48 -17t31 -5q19 0 30 9.5t19 32.5h45q-4 -26 -16 -54t-28 -48q-30 -36 -73 -36q-18 0 -37 5.5t-48 19.5
q-23 11 -46.5 17t-40.5 6t-26.5 -8.5t-17.5 -31.5h-46z" />
    <glyph glyph-name="Umacron" unicode="&#x16a;" horiz-adv-x="880" 
d="M757 310q0 -85 -18.5 -145.5t-57.5 -99.5t-100.5 -57t-147.5 -18q-161 0 -235.5 67.5t-74.5 215.5v274q0 39 -1 65.5t-3 44.5t-5.5 29.5t-8.5 19.5q-9 14 -26 19t-52 5v40h359v-40q-42 0 -62 -4.5t-31 -17.5q-7 -8 -11.5 -19.5t-7 -30t-3.5 -45.5t-1 -66v-262
q0 -114 48.5 -168.5t149.5 -54.5q206 0 206 229v231q0 42 -1.5 72t-5 51t-9 35t-13.5 23q-14 14 -36 20.5t-61 6.5v40h324v-40q-37 0 -57 -5.5t-31 -19.5q-8 -9 -13 -23.5t-8 -36t-4.5 -51.5t-1.5 -72v-212zM328 865v65h284v-65h-284z" />
    <glyph glyph-name="umacron" unicode="&#x16b;" horiz-adv-x="709" 
d="M465 366q0 40 -2 63.5t-11 36t-26.5 17t-47.5 7.5v40h226v-303q0 -61 1.5 -95.5t5.5 -51.5q3 -13 7 -20.5t13 -12t24.5 -6t40.5 -1.5v-39l-199 -12l-11 89h-4q-26 -42 -73 -65t-105 -23q-107 0 -163 76q-43 58 -43 165v135q0 41 -2 64.5t-10.5 35.5t-25.5 16.5t-47 7.5
v40h224v-283q0 -101 25 -146.5t80 -45.5q59 0 91 54q32 52 32 153v104zM177 692v65h284v-65h-284z" />
    <glyph glyph-name="Ubreve" unicode="&#x16c;" horiz-adv-x="880" 
d="M757 310q0 -85 -18.5 -145.5t-57.5 -99.5t-100.5 -57t-147.5 -18q-161 0 -235.5 67.5t-74.5 215.5v274q0 39 -1 65.5t-3 44.5t-5.5 29.5t-8.5 19.5q-9 14 -26 19t-52 5v40h359v-40q-42 0 -62 -4.5t-31 -17.5q-7 -8 -11.5 -19.5t-7 -30t-3.5 -45.5t-1 -66v-262
q0 -114 48.5 -168.5t149.5 -54.5q206 0 206 229v231q0 42 -1.5 72t-5 51t-9 35t-13.5 23q-14 14 -36 20.5t-61 6.5v40h324v-40q-37 0 -57 -5.5t-31 -19.5q-8 -9 -13 -23.5t-8 -36t-4.5 -51.5t-1.5 -72v-212zM618 960q-2 -29 -14 -52.5t-32 -41t-46.5 -27t-57.5 -9.5
q-32 0 -58.5 10t-46.5 27t-32 41t-13 52h43q9 -19 38 -30t68 -11t68.5 11t38.5 30h44z" />
    <glyph glyph-name="ubreve" unicode="&#x16d;" horiz-adv-x="709" 
d="M465 366q0 40 -2 63.5t-11 36t-26.5 17t-47.5 7.5v40h226v-303q0 -61 1.5 -95.5t5.5 -51.5q3 -13 7 -20.5t13 -12t24.5 -6t40.5 -1.5v-39l-199 -12l-11 89h-4q-26 -42 -73 -65t-105 -23q-107 0 -163 76q-43 58 -43 165v135q0 41 -2 64.5t-10.5 35.5t-25.5 16.5t-47 7.5
v40h224v-283q0 -101 25 -146.5t80 -45.5q59 0 91 54q32 52 32 153v104zM469 786q-2 -31 -14 -56.5t-32 -44t-46.5 -29t-57.5 -10.5q-32 0 -58.5 10.5t-46.5 29t-32 44.5t-13 56h43q9 -23 38 -37t68 -14t68.5 14t38.5 37h44z" />
    <glyph glyph-name="Uring" unicode="&#x16e;" horiz-adv-x="880" 
d="M757 310q0 -85 -18.5 -145.5t-57.5 -99.5t-100.5 -57t-147.5 -18q-161 0 -235.5 67.5t-74.5 215.5v274q0 39 -1 65.5t-3 44.5t-5.5 29.5t-8.5 19.5q-9 14 -26 19t-52 5v40h359v-40q-42 0 -62 -4.5t-31 -17.5q-7 -8 -11.5 -19.5t-7 -30t-3.5 -45.5t-1 -66v-262
q0 -114 48.5 -168.5t149.5 -54.5q206 0 206 229v231q0 42 -1.5 72t-5 51t-9 35t-13.5 23q-14 14 -36 20.5t-61 6.5v40h324v-40q-37 0 -57 -5.5t-31 -19.5q-8 -9 -13 -23.5t-8 -36t-4.5 -51.5t-1.5 -72v-212zM402 895q0 28 19.5 46.5t48.5 18.5t48.5 -18.5t19.5 -46.5
t-19.5 -46.5t-48.5 -18.5t-48.5 18.5t-19.5 46.5zM444 895q0 -11 7.5 -17.5t18.5 -6.5t18 6.5t7 17.5q0 10 -7 16.5t-18 6.5t-18.5 -6.5t-7.5 -16.5z" />
    <glyph glyph-name="uring" unicode="&#x16f;" horiz-adv-x="709" 
d="M465 366q0 40 -2 63.5t-11 36t-26.5 17t-47.5 7.5v40h226v-303q0 -61 1.5 -95.5t5.5 -51.5q3 -13 7 -20.5t13 -12t24.5 -6t40.5 -1.5v-39l-199 -12l-11 89h-4q-26 -42 -73 -65t-105 -23q-107 0 -163 76q-43 58 -43 165v135q0 41 -2 64.5t-10.5 35.5t-25.5 16.5t-47 7.5
v40h224v-283q0 -101 25 -146.5t80 -45.5q59 0 91 54q32 52 32 153v104zM238 742q0 38 25.5 63t64.5 25q40 0 66 -25t26 -63q0 -37 -26 -61.5t-66 -24.5q-39 0 -64.5 24.5t-25.5 61.5zM287 742q0 -17 12 -28t29 -11t28 11t11 28q0 16 -11 26.5t-28 10.5t-29 -10.5t-12 -26.5z
" />
    <glyph glyph-name="Uhungarumlaut" unicode="&#x170;" horiz-adv-x="880" 
d="M757 310q0 -85 -18.5 -145.5t-57.5 -99.5t-100.5 -57t-147.5 -18q-161 0 -235.5 67.5t-74.5 215.5v274q0 39 -1 65.5t-3 44.5t-5.5 29.5t-8.5 19.5q-9 14 -26 19t-52 5v40h359v-40q-42 0 -62 -4.5t-31 -17.5q-7 -8 -11.5 -19.5t-7 -30t-3.5 -45.5t-1 -66v-262
q0 -114 48.5 -168.5t149.5 -54.5q206 0 206 229v231q0 42 -1.5 72t-5 51t-9 35t-13.5 23q-14 14 -36 20.5t-61 6.5v40h324v-40q-37 0 -57 -5.5t-31 -19.5q-8 -9 -13 -23.5t-8 -36t-4.5 -51.5t-1.5 -72v-212zM285 830l106 97q18 17 43 25t51 8q28 0 42.5 -10t14.5 -27
q0 -23 -18.5 -36.5t-69.5 -28.5l-96 -28h-73zM509 830l106 97q18 17 43 25t51 8q28 0 42.5 -10t14.5 -27q0 -23 -18.5 -36.5t-69.5 -28.5l-96 -28h-73z" />
    <glyph glyph-name="uhungarumlaut" unicode="&#x171;" horiz-adv-x="709" 
d="M465 366q0 40 -2 63.5t-11 36t-26.5 17t-47.5 7.5v40h226v-303q0 -61 1.5 -95.5t5.5 -51.5q3 -13 7 -20.5t13 -12t24.5 -6t40.5 -1.5v-39l-199 -12l-11 89h-4q-26 -42 -73 -65t-105 -23q-107 0 -163 76q-43 58 -43 165v135q0 41 -2 64.5t-10.5 35.5t-25.5 16.5t-47 7.5
v40h224v-283q0 -101 25 -146.5t80 -45.5q59 0 91 54q32 52 32 153v104zM132 651l127 119q24 23 44.5 33t40.5 10q25 0 40 -12t15 -33q0 -17 -18.5 -30t-50.5 -27l-139 -60h-59zM369 651l127 119q24 23 44.5 33t40.5 10q25 0 40 -12t15 -33q0 -17 -18.5 -30t-50.5 -27
l-139 -60h-59z" />
    <glyph glyph-name="Uogonek" unicode="&#x172;" horiz-adv-x="880" 
d="M576 -152q-32 -42 -75 -64.5t-91 -22.5q-110 0 -110 88q0 41 33 77t95 64q-159 1 -232 68.5t-73 214.5v274q0 39 -1 65.5t-3 44.5t-5.5 29.5t-8.5 19.5q-9 14 -26 19t-52 5v40h359v-40q-42 0 -62 -4.5t-31 -17.5q-7 -8 -11.5 -19.5t-7 -30t-3.5 -45.5t-1 -66v-262
q0 -114 48.5 -168.5t149.5 -54.5q206 0 206 229v231q0 42 -1.5 72t-5 51t-9 35t-13.5 23q-14 14 -36 20.5t-61 6.5v40h324v-40q-37 0 -57 -5.5t-31 -19.5q-8 -9 -13 -23.5t-8 -36t-4.5 -51.5t-1.5 -72v-212q0 -148 -57 -223.5t-184 -91.5q-51 -24 -82 -57t-31 -62
q0 -20 13.5 -32.5t35.5 -12.5t45.5 14t43.5 39z" />
    <glyph glyph-name="uogonek" unicode="&#x173;" horiz-adv-x="709" 
d="M641 -152q-32 -42 -75 -64.5t-91 -22.5q-110 0 -110 88q0 42 34 78.5t97 64.5l-10 86h-4q-26 -42 -73 -65t-105 -23q-107 0 -163 76q-43 58 -43 165v135q0 41 -2 64.5t-10.5 35.5t-25.5 16.5t-47 7.5v40h224v-283q0 -101 25 -146.5t80 -45.5q59 0 91 54q32 52 32 153v104
q0 40 -2 63.5t-11 36t-26.5 17t-47.5 7.5v40h226v-303q0 -61 1.5 -95.5t5.5 -51.5q3 -13 7 -20.5t13 -12t24.5 -6t40.5 -1.5v-39l-117 -7q-50 -24 -80.5 -56.5t-30.5 -61.5q0 -20 13.5 -32.5t35.5 -12.5t45.5 14t43.5 39z" />
    <glyph glyph-name="Wcircumflex" unicode="&#x174;" horiz-adv-x="1227" 
d="M887 194l135 386q24 67 24 100q0 31 -21.5 40.5t-66.5 9.5v40h284v-40q-38 0 -68.5 -18.5t-46.5 -62.5l-241 -659h-89l-174 528l-198 -528h-83l-212 584q-19 51 -35 82t-34 47t-39 21t-50 5v41h378v-41q-51 0 -70 -9.5t-19 -31.5q0 -8 1 -15.5t4 -17t7.5 -23.5t12.5 -35
l140 -403l162 442q-10 27 -20 44t-23.5 27t-30.5 14.5t-41 7.5v41h353v-41q-42 0 -62 -10.5t-20 -40.5q0 -15 4.5 -35t12.5 -46zM706 960l124 -130h-67l-115 49l-115 -49h-67l124 130h116z" />
    <glyph glyph-name="wcircumflex" unicode="&#x175;" horiz-adv-x="891" 
d="M313 -10h-75l-137 411q-16 48 -37 67.5t-56 21.5v40h286v-40q-36 -1 -50 -10.5t-14 -32.5q0 -11 3 -24t8 -30l63 -234h4l140 371h82l105 -371h5l80 207q10 25 14 43.5t4 32.5q0 26 -17 37t-46 11v40h215v-40q-18 0 -30 -4t-24 -19t-26 -46t-35 -85l-138 -346h-79
l-106 355h-4zM520 800l120 -149h-52l-120 68l-120 -68h-52l120 149h104z" />
    <glyph glyph-name="Ycircumflex" unicode="&#x176;" horiz-adv-x="760" 
d="M101 644q-15 26 -27.5 43t-25.5 26.5t-28 13t-34 3.5v40h336v-40q-42 0 -59 -8t-17 -24q0 -10 6 -24t19 -38l143 -273h4l126 210q33 56 46 83.5t13 43.5q0 17 -15.5 23.5t-57.5 6.5v40h251v-40q-22 0 -40 -7t-37.5 -27.5t-44 -57t-58.5 -95.5l-146 -250v-102
q0 -50 4.5 -80t16 -45.5t31.5 -20.5t52 -5v-40h-356v40q31 0 51.5 5t32.5 20t16.5 43.5t4.5 75.5v92zM475 960l124 -130h-67l-115 49l-115 -49h-67l124 130h116z" />
    <glyph glyph-name="ycircumflex" unicode="&#x177;" horiz-adv-x="646" 
d="M287 -157q-11 -22 -27.5 -41t-37 -32.5t-42.5 -21.5t-44 -8q-33 0 -53 16t-20 43q0 25 17.5 39t56.5 17q89 7 115 56l27 52l-177 438q-12 29 -20.5 46t-18.5 26.5t-23 12.5t-32 4v40h303v-40q-39 0 -54.5 -7.5t-15.5 -27.5q0 -8 2.5 -18.5t6.5 -21.5l102 -292h4l86 195
q13 31 22 51.5t13.5 35t6.5 23.5t2 18q0 26 -14.5 35t-58.5 9v40h241v-40q-20 0 -34 -5.5t-28.5 -22.5t-32 -50.5t-43.5 -88.5zM421 800l120 -149h-52l-120 68l-120 -68h-52l120 149h104z" />
    <glyph glyph-name="Ydieresis" unicode="&#x178;" horiz-adv-x="760" 
d="M101 644q-15 26 -27.5 43t-25.5 26.5t-28 13t-34 3.5v40h336v-40q-42 0 -59 -8t-17 -24q0 -10 6 -24t19 -38l143 -273h4l126 210q33 56 46 83.5t13 43.5q0 17 -15.5 23.5t-57.5 6.5v40h251v-40q-22 0 -40 -7t-37.5 -27.5t-44 -57t-58.5 -95.5l-146 -250v-102
q0 -50 4.5 -80t16 -45.5t31.5 -20.5t52 -5v-40h-356v40q31 0 51.5 5t32.5 20t16.5 43.5t4.5 75.5v92zM251 903q0 25 17 41t43 16q27 0 44.5 -16t17.5 -41q0 -26 -17.5 -42.5t-44.5 -16.5q-26 0 -43 16.5t-17 42.5zM468 903q0 25 17.5 41t44.5 16q25 0 42.5 -16t17.5 -41
q0 -26 -17.5 -42.5t-42.5 -16.5q-27 0 -44.5 16.5t-17.5 42.5z" />
    <glyph glyph-name="Zacute" unicode="&#x179;" horiz-adv-x="797" 
d="M747 0h-732v23l503 695h-253q-74 0 -111.5 -37t-51.5 -115h-39l16 204h648v-23l-498 -691h286q54 0 88.5 9t56 32t33.5 61t21 97h46zM440 830l-116 28q-52 13 -70 27.5t-18 37.5q0 17 14.5 27t42.5 10q26 0 50 -9t44 -24l126 -97h-73z" />
    <glyph glyph-name="zacute" unicode="&#x17a;" horiz-adv-x="568" 
d="M520 0h-494v23l313 454h-92q-43 0 -70 -3.5t-43.5 -15t-25 -31.5t-14.5 -53h-39l12 156h451v-23l-308 -453h88q52 0 86 4.5t55 17t33 35t21 59.5h39zM216 651l127 119q24 23 44.5 33t40.5 10q25 0 40 -12t15 -33q0 -17 -18.5 -30t-50.5 -27l-139 -60h-59z" />
    <glyph glyph-name="Zdotaccent" unicode="&#x17b;" horiz-adv-x="797" 
d="M747 0h-732v23l503 695h-253q-74 0 -111.5 -37t-51.5 -115h-39l16 204h648v-23l-498 -691h286q54 0 88.5 9t56 32t33.5 61t21 97h46zM326 893q0 28 20 47t46 19q29 0 49.5 -19t20.5 -47q0 -26 -20.5 -44.5t-49.5 -18.5q-26 0 -46 18.5t-20 44.5z" />
    <glyph glyph-name="zdotaccent" unicode="&#x17c;" horiz-adv-x="568" 
d="M520 0h-494v23l313 454h-92q-43 0 -70 -3.5t-43.5 -15t-25 -31.5t-14.5 -53h-39l12 156h451v-23l-308 -453h88q52 0 86 4.5t55 17t33 35t21 59.5h39zM250 752q0 33 22.5 55.5t54.5 22.5q33 0 55.5 -22.5t22.5 -55.5q0 -32 -22.5 -54.5t-55.5 -22.5q-32 0 -54.5 22.5
t-22.5 54.5z" />
    <glyph glyph-name="Zcaron" unicode="&#x17d;" horiz-adv-x="797" 
d="M747 0h-732v23l503 695h-253q-74 0 -111.5 -37t-51.5 -115h-39l16 204h648v-23l-498 -691h286q54 0 88.5 9t56 32t33.5 61t21 97h46zM338 830l-124 130h67l115 -49l115 49h67l-124 -130h-116z" />
    <glyph glyph-name="zcaron" unicode="&#x17e;" horiz-adv-x="568" 
d="M520 0h-494v23l313 454h-92q-43 0 -70 -3.5t-43.5 -15t-25 -31.5t-14.5 -53h-39l12 156h451v-23l-308 -453h88q52 0 86 4.5t55 17t33 35t21 59.5h39zM264 651l-120 149h52l120 -68l120 68h52l-120 -149h-104z" />
    <glyph glyph-name="Schwa" unicode="&#x18f;" horiz-adv-x="853" 
d="M60 637q66 76 146 110t177 34q95 0 173 -28t134 -79t86.5 -122.5t30.5 -157.5q0 -89 -32.5 -163t-91 -127.5t-140 -83.5t-178.5 -30q-77 0 -137.5 20.5t-102.5 59t-64 94t-22 125.5q0 20 8 24.5t39 4.5h542q5 12 5.5 28.5t0.5 35.5q0 76 -19 137.5t-54.5 105t-86 66.5
t-113.5 23q-39 0 -71.5 -6t-62.5 -19.5t-59.5 -36.5t-60.5 -56zM278 245q-31 0 -49 -1.5t-27 -6t-11.5 -12.5t-2.5 -21q0 -66 54 -106t148 -40q91 0 149.5 46.5t78.5 140.5h-340z" />
    <glyph glyph-name="florin" unicode="&#x192;" horiz-adv-x="723" 
d="M55 -201q22 0 40 15t33 48.5t28 87.5t26 132l55 343h-110l15 55h105l9 45q12 59 38 106.5t63 80.5t84.5 50.5t102.5 17.5q36 0 65.5 -7.5t51.5 -20.5t34 -31t12 -40q0 -46 -50 -46q-17 0 -28 6t-26 23q-17 18 -28.5 29.5t-20.5 18t-17 8.5t-18 2q-47 0 -76.5 -47
t-48.5 -152l-8 -43h130l-14 -55h-122l-35 -199q-12 -68 -22 -117.5t-20 -87t-21 -66t-24 -54.5q-42 -83 -95 -122t-123 -39q-34 0 -64 8t-52.5 22.5t-36 33.5t-13.5 40q0 23 14 37.5t37 14.5q17 0 31.5 -10t32.5 -34q14 -19 22.5 -29.5t15 -16t13 -6.5t15.5 -1z" />
    <glyph glyph-name="uni01C4" unicode="&#x1c4;" horiz-adv-x="1716" 
d="M35 0v40q33 1 53.5 5.5t32 17t15.5 34t4 57.5v462q0 35 -3 56.5t-13 34t-27.5 17t-45.5 6.5v40h380q96 0 177 -30t140 -83t92 -126t33 -159q0 -82 -31 -150.5t-86.5 -117.5t-133 -76.5t-170.5 -27.5h-417zM304 709q-17 0 -17 -17v-517q0 -58 36 -86t111 -28
q131 0 201.5 79t70.5 230q0 80 -19 143t-55 106.5t-87.5 66.5t-115.5 23h-125zM1666 0h-732v23l503 695h-253q-74 0 -111.5 -37t-51.5 -115h-39l16 204h648v-23l-498 -691h286q54 0 88.5 9t56 32t33.5 61t21 97h46zM1257 830l-124 130h67l115 -49l115 49h67l-124 -130h-116z
" />
    <glyph glyph-name="uni01C5" unicode="&#x1c5;" horiz-adv-x="1487" 
d="M35 0v40q33 1 53.5 5.5t32 17t15.5 34t4 57.5v462q0 35 -3 56.5t-13 34t-27.5 17t-45.5 6.5v40h380q96 0 177 -30t140 -83t92 -126t33 -159q0 -82 -31 -150.5t-86.5 -117.5t-133 -76.5t-170.5 -27.5h-417zM304 709q-17 0 -17 -17v-517q0 -58 36 -86t111 -28
q131 0 201.5 79t70.5 230q0 80 -19 143t-55 106.5t-87.5 66.5t-115.5 23h-125zM1439 0h-494v23l313 454h-92q-43 0 -70 -3.5t-43.5 -15t-25 -31.5t-14.5 -53h-39l12 156h451v-23l-308 -453h88q52 0 86 4.5t55 17t33 35t21 59.5h39zM1183 651l-120 149h52l120 -68l120 68h52
l-120 -149h-104z" />
    <glyph glyph-name="uni01C6" unicode="&#x1c6;" horiz-adv-x="1262" 
d="M481 64h-4q-69 -74 -179 -74q-57 0 -104.5 20t-82 56t-53.5 85.5t-19 109.5t19.5 111t53 88.5t80 58.5t100.5 21q50 0 88.5 -15t67.5 -51h4v85q0 59 -1.5 101.5t-4.5 55.5q-5 21 -30.5 30.5t-78.5 9.5v34l253 40v-572q0 -75 1.5 -115.5t5.5 -61.5q2 -13 6 -21t12 -12.5
t21.5 -6t34.5 -1.5v-39l-190 -11v74zM450 287q0 38 -8 70.5t-24 57.5q-18 29 -46 44t-60 15q-59 0 -90 -54t-31 -157q0 -104 31 -160t89 -56q33 0 63 17t49 46q14 22 20.5 54.5t6.5 83.5v39zM1214 0h-494v23l313 454h-92q-43 0 -70 -3.5t-43.5 -15t-25 -31.5t-14.5 -53h-39
l12 156h451v-23l-308 -453h88q52 0 86 4.5t55 17t33 35t21 59.5h39zM958 651l-120 149h52l120 -68l120 68h52l-120 -149h-104z" />
    <glyph glyph-name="uni01C7" unicode="&#x1c7;" horiz-adv-x="1155" 
d="M724 0h-689v40q33 1 54 6t32 17t15 34t4 57v462q0 35 -3.5 56.5t-13.5 34t-28.5 17t-48.5 6.5v40h345v-40q-34 -1 -54.5 -6t-31.5 -18t-14.5 -36t-3.5 -61v-419q0 -42 8.5 -68.5t29.5 -41t56 -20t87 -5.5q58 0 97 7t65.5 26.5t42.5 52.5t27 86h40zM878 616
q0 35 -3.5 56.5t-13.5 34t-28.5 17t-49.5 6.5v40h337v-40q-31 -1 -50 -6t-29 -18t-13 -36t-3 -61v-611q0 -126 -64 -192t-191 -66q-91 0 -140.5 31t-49.5 79q0 29 18.5 44.5t45.5 15.5q23 0 36.5 -12t33.5 -45t36 -44t39 -11q43 0 66 47t23 132v639z" />
    <glyph glyph-name="uni01C8" unicode="&#x1c8;" horiz-adv-x="1080" 
d="M724 0h-689v40q33 1 54 6t32 17t15 34t4 57v462q0 35 -3.5 56.5t-13.5 34t-28.5 17t-48.5 6.5v40h345v-40q-34 -1 -54.5 -6t-31.5 -18t-14.5 -36t-3.5 -61v-419q0 -42 8.5 -68.5t29.5 -41t56 -20t87 -5.5q58 0 97 7t65.5 26.5t42.5 52.5t27 86h40zM995 -2
q0 -125 -60.5 -191.5t-174.5 -66.5q-77 0 -120.5 28.5t-43.5 70.5q0 25 16.5 38.5t37.5 13.5q28 0 42 -15.5t25 -33.5t24.5 -33.5t40.5 -15.5q37 0 55.5 29t18.5 100v368q0 55 -2.5 90t-5.5 48q-5 23 -22 31.5t-63 8.5v34l232 38v-542zM848 752q0 33 22.5 55.5t54.5 22.5
q33 0 55.5 -22.5t22.5 -55.5q0 -32 -22.5 -54.5t-55.5 -22.5q-32 0 -54.5 22.5t-22.5 54.5z" />
    <glyph glyph-name="uni01C9" unicode="&#x1c9;" horiz-adv-x="686" 
d="M247 164q0 -40 3 -64t12 -37t26 -17.5t46 -5.5v-40h-315v40q28 1 45.5 6.5t27 18t13 35t3.5 57.5v413q0 58 -2 95.5t-5 51.5q-5 25 -22.5 33t-63.5 8v34l232 38v-666zM601 -2q0 -125 -60.5 -191.5t-174.5 -66.5q-77 0 -120.5 28.5t-43.5 70.5q0 25 16.5 38.5t37.5 13.5
q28 0 42 -15.5t25 -33.5t24.5 -33.5t40.5 -15.5q37 0 55.5 29t18.5 100v368q0 55 -2.5 90t-5.5 48q-5 23 -22 31.5t-63 8.5v34l232 38v-542zM454 752q0 33 22.5 55.5t54.5 22.5q33 0 55.5 -22.5t22.5 -55.5q0 -32 -22.5 -54.5t-55.5 -22.5q-32 0 -54.5 22.5t-22.5 54.5z" />
    <glyph glyph-name="uni01CA" unicode="&#x1ca;" horiz-adv-x="1347" 
d="M670 -10l-443 631h-4v-430q0 -50 3.5 -79t15 -45t32 -21t53.5 -6v-40h-297v40q37 1 59.5 6.5t35 20.5t16.5 42.5t4 74.5v402q0 42 -4 69.5t-15 43.5t-31.5 22.5t-54.5 8.5v40h279l403 -578h4v387q0 49 -3.5 78.5t-15 45.5t-32 21t-53.5 6v40h297v-40q-37 -1 -59.5 -6.5
t-35 -20.5t-16.5 -43t-4 -74v-596h-134zM1070 616q0 35 -3.5 56.5t-13.5 34t-28.5 17t-49.5 6.5v40h337v-40q-31 -1 -50 -6t-29 -18t-13 -36t-3 -61v-611q0 -126 -64 -192t-191 -66q-91 0 -140.5 31t-49.5 79q0 29 18.5 44.5t45.5 15.5q23 0 36.5 -12t33.5 -45t36 -44
t39 -11q43 0 66 47t23 132v639z" />
    <glyph glyph-name="uni01CB" unicode="&#x1cb;" horiz-adv-x="1256" 
d="M670 -10l-443 631h-4v-430q0 -50 3.5 -79t15 -45t32 -21t53.5 -6v-40h-297v40q37 1 59.5 6.5t35 20.5t16.5 42.5t4 74.5v402q0 42 -4 69.5t-15 43.5t-31.5 22.5t-54.5 8.5v40h279l403 -578h4v387q0 49 -3.5 78.5t-15 45.5t-32 21t-53.5 6v40h297v-40q-37 -1 -59.5 -6.5
t-35 -20.5t-16.5 -43t-4 -74v-596h-134zM1171 -2q0 -125 -60.5 -191.5t-174.5 -66.5q-77 0 -120.5 28.5t-43.5 70.5q0 25 16.5 38.5t37.5 13.5q28 0 42 -15.5t25 -33.5t24.5 -33.5t40.5 -15.5q37 0 55.5 29t18.5 100v368q0 55 -2.5 90t-5.5 48q-5 23 -22 31.5t-63 8.5v34
l232 38v-542zM1024 752q0 33 22.5 55.5t54.5 22.5q33 0 55.5 -22.5t22.5 -55.5q0 -32 -22.5 -54.5t-55.5 -22.5q-32 0 -54.5 22.5t-22.5 54.5z" />
    <glyph glyph-name="uni01CC" unicode="&#x1cc;" horiz-adv-x="1058" 
d="M257 163q0 -41 2.5 -64.5t11 -36t26 -16.5t47.5 -6v-40h-315v40q29 2 46.5 6t27 16t12.5 34t3 60v125q0 59 -2 95.5t-5 49.5t-8 21.5t-15 13t-25 6t-38 1.5v34l193 38l13 -88h4q33 42 78 65t99 23q64 0 103.5 -17.5t70.5 -58.5q17 -23 30 -59.5t13 -100.5v-141
q0 -41 2.5 -64.5t11 -36t25.5 -16.5t46 -6v-40h-313v40q30 1 47.5 5.5t26.5 16.5t12 34.5t3 59.5v136q0 51 -6 86t-19.5 56.5t-35.5 31t-55 9.5q-32 0 -55 -18t-40 -50q-9 -18 -15.5 -46.5t-6.5 -59.5v-138zM973 -2q0 -125 -60.5 -191.5t-174.5 -66.5q-77 0 -120.5 28.5
t-43.5 70.5q0 25 16.5 38.5t37.5 13.5q28 0 42 -15.5t25 -33.5t24.5 -33.5t40.5 -15.5q37 0 55.5 29t18.5 100v368q0 55 -2.5 90t-5.5 48q-5 23 -22 31.5t-63 8.5v34l232 38v-542zM826 752q0 33 22.5 55.5t54.5 22.5q33 0 55.5 -22.5t22.5 -55.5q0 -32 -22.5 -54.5
t-55.5 -22.5q-32 0 -54.5 22.5t-22.5 54.5z" />
    <glyph glyph-name="Oogonek" unicode="&#x1ea;" horiz-adv-x="943" 
d="M590 -152q-32 -42 -75 -64.5t-91 -22.5q-110 0 -110 88q0 42 33.5 78t96.5 64q-84 4 -157 36t-127 84t-84.5 121t-30.5 147q0 85 33 158t90.5 127t135.5 85t168 31t168 -31t135.5 -85t90.5 -127t33 -158q0 -75 -28.5 -141.5t-78.5 -117.5t-118.5 -84.5t-147.5 -42.5
q-49 -24 -79 -56t-30 -61q0 -20 13.5 -32.5t35.5 -12.5t45.5 14t43.5 39zM472 55q58 0 105 22.5t80 64t50.5 101t17.5 133.5q0 78 -17.5 140.5t-50.5 107t-80 68t-105 23.5q-59 0 -105.5 -23.5t-79.5 -68t-50.5 -107t-17.5 -140.5q0 -74 17.5 -133.5t50.5 -101t79.5 -64
t105.5 -22.5z" />
    <glyph glyph-name="oogonek" unicode="&#x1eb;" horiz-adv-x="660" 
d="M430 -152q-32 -42 -75 -64.5t-91 -22.5q-110 0 -110 88q0 42 34.5 78.5t99.5 65.5q-53 6 -98.5 29t-79.5 59.5t-53.5 84t-19.5 103.5q0 59 23 109t63 86t93 56t112 20q60 0 113.5 -20.5t94 -56.5t64 -85.5t23.5 -108.5q0 -56 -20.5 -104t-55.5 -84.5t-82 -59.5t-101 -29
q-48 -24 -77.5 -55.5t-29.5 -60.5q0 -20 13.5 -32.5t35.5 -12.5t45.5 14t43.5 39zM328 482q-30 0 -55 -15.5t-42.5 -43.5t-27 -67.5t-9.5 -87.5q0 -50 9.5 -90t27 -68t42 -43.5t55.5 -15.5t56.5 15.5t43.5 44t28 68.5t10 89q0 48 -10 87t-28 67.5t-43.5 44t-56.5 15.5z" />
    <glyph glyph-name="uni01F1" unicode="&#x1f1;" horiz-adv-x="1706" 
d="M35 0v40q33 1 53.5 5.5t32 17t15.5 34t4 57.5v462q0 35 -3 56.5t-13 34t-27.5 17t-45.5 6.5v40h380q96 0 177 -30t140 -83t92 -126t33 -159q0 -82 -31 -150.5t-86.5 -117.5t-133 -76.5t-170.5 -27.5h-417zM304 709q-17 0 -17 -17v-517q0 -58 36 -86t111 -28
q131 0 201.5 79t70.5 230q0 80 -19 143t-55 106.5t-87.5 66.5t-115.5 23h-125zM1656 0h-732v23l503 695h-253q-74 0 -111.5 -37t-51.5 -115h-39l16 204h648v-23l-498 -691h286q54 0 88.5 9t56 32t33.5 61t21 97h46z" />
    <glyph glyph-name="uni01F2" unicode="&#x1f2;" horiz-adv-x="1482" 
d="M35 0v40q33 1 53.5 5.5t32 17t15.5 34t4 57.5v462q0 35 -3 56.5t-13 34t-27.5 17t-45.5 6.5v40h380q96 0 177 -30t140 -83t92 -126t33 -159q0 -82 -31 -150.5t-86.5 -117.5t-133 -76.5t-170.5 -27.5h-417zM304 709q-17 0 -17 -17v-517q0 -58 36 -86t111 -28
q131 0 201.5 79t70.5 230q0 80 -19 143t-55 106.5t-87.5 66.5t-115.5 23h-125zM1434 0h-494v23l313 454h-92q-43 0 -70 -3.5t-43.5 -15t-25 -31.5t-14.5 -53h-39l12 156h451v-23l-308 -453h88q52 0 86 4.5t55 17t33 35t21 59.5h39z" />
    <glyph glyph-name="uni01F3" unicode="&#x1f3;" horiz-adv-x="1262" 
d="M481 64h-4q-69 -74 -179 -74q-57 0 -104.5 20t-82 56t-53.5 85.5t-19 109.5t19.5 111t53 88.5t80 58.5t100.5 21q50 0 88.5 -15t67.5 -51h4v85q0 59 -1.5 101.5t-4.5 55.5q-5 21 -30.5 30.5t-78.5 9.5v34l253 40v-572q0 -75 1.5 -115.5t5.5 -61.5q2 -13 6 -21t12 -12.5
t21.5 -6t34.5 -1.5v-39l-190 -11v74zM450 287q0 38 -8 70.5t-24 57.5q-18 29 -46 44t-60 15q-59 0 -90 -54t-31 -157q0 -104 31 -160t89 -56q33 0 63 17t49 46q14 22 20.5 54.5t6.5 83.5v39zM1214 0h-494v23l313 454h-92q-43 0 -70 -3.5t-43.5 -15t-25 -31.5t-14.5 -53h-39
l12 156h451v-23l-308 -453h88q52 0 86 4.5t55 17t33 35t21 59.5h39z" />
    <glyph glyph-name="Aringacute" unicode="&#x1fa;" horiz-adv-x="789" 
d="M500 279h-274q-33 -71 -50 -121.5t-17 -70.5q0 -28 20 -38.5t62 -10.5v-38h-255v38q24 3 41.5 8t30.5 14t23 23.5t20 35.5l273 601h45l268 -580q26 -57 56 -79t74 -22v-39h-343v39q53 0 76.5 10t23.5 37q0 15 -5 31.5t-21 53.5zM250 329h227l-109 245zM326 878
q0 36 24 59t59 23q25 0 48 -13q13 13 24.5 18t24.5 5q14 0 22 -7t8 -19q0 -14 -12 -26.5t-33 -23.5q2 -10 2 -16q0 -33 -23.5 -56t-60.5 -23q-31 0 -53 17l-34 -15h-56l62 56q-2 5 -2 10v11zM365 878q0 -18 12 -29.5t32 -11.5t32.5 11.5t12.5 29.5q0 19 -12.5 30.5
t-32.5 11.5t-32 -11.5t-12 -30.5z" />
    <glyph glyph-name="aringacute" unicode="&#x1fb;" horiz-adv-x="574" 
d="M155 738q0 36 24 59t59 23q25 0 45 -12q14 18 26 25t26 7q18 0 29 -9.5t11 -26.5q0 -14 -14.5 -27t-39.5 -24q1 -5 1 -15q0 -33 -23.5 -56t-60.5 -23q-30 0 -52 17l-30 -15h-66l67 56q-2 5 -2 10.5v10.5zM202 738q0 -14 10 -23.5t26 -9.5q17 0 26.5 9.5t9.5 23.5
q0 15 -9.5 24.5t-26.5 9.5q-16 0 -26 -9.5t-10 -24.5zM344 285q-84 -38 -126.5 -70.5t-42.5 -67.5q0 -29 16 -46t40 -17t45 8.5t36 22.5t23.5 33.5t8.5 41.5v95zM344 338v42q0 58 -20.5 84.5t-63.5 26.5q-29 0 -44 -15.5t-28 -51.5q-9 -25 -25.5 -39t-45.5 -14q-28 0 -43 17
t-15 48q0 48 52.5 76t158.5 28q112 0 160 -40.5t48 -135.5v-219q0 -85 34 -85q19 0 35 13l15 -29q-14 -25 -43.5 -39.5t-66.5 -14.5q-46 0 -70 28t-24 79h-5q-29 -52 -75 -79t-105 -27q-63 0 -101 35.5t-38 92.5q0 44 39 82.5t130 75.5z" />
    <glyph glyph-name="AEacute" unicode="&#x1fc;" horiz-adv-x="1136" 
d="M406 41q33 1 54 6t32 17t15 34t4 57v119h-248q-33 -60 -51.5 -94t-27 -52.5t-10 -27t-1.5 -17.5q0 -16 7 -24t18 -11.5t24.5 -4.5t27.5 -2v-41h-272v41q24 3 42 8t32 14t26.5 23.5t24.5 35.5q10 17 19.5 34.5t23.5 42.5t34 62t50.5 93t73.5 134t102 186q8 16 8 25
q0 14 -19.5 18.5t-63.5 4.5v48h723v-196h-42q-6 43 -19 70.5t-36 43.5t-59 22.5t-88 6.5h-134q-18 0 -18 -17v-274q64 0 103 4t61 17t30.5 37t13.5 64h37v-293h-37q-6 37 -15 60.5t-30 37t-59.5 18.5t-103.5 5v-209q0 -33 8.5 -54.5t29 -35t54 -19t83.5 -5.5q54 0 92 8.5
t63.5 28.5t41.5 53.5t26 83.5h44l-15 -227h-679v41zM511 334v387l-214 -387h214zM539 830l126 97q20 15 44 24t50 9q28 0 42.5 -10t14.5 -27q0 -23 -18 -37.5t-70 -27.5l-116 -28h-73z" />
    <glyph glyph-name="aeacute" unicode="&#x1fd;" horiz-adv-x="889" 
d="M845 93q-51 -54 -105.5 -78.5t-125.5 -24.5q-170 0 -243 127q-28 -60 -79 -93t-117 -33t-103.5 32.5t-37.5 89.5q0 25 8.5 46.5t28 41t51 38t76.5 37.5l146 62v42q0 57 -20 84t-62 27q-14 0 -24 -2.5t-18.5 -10t-15.5 -20t-15 -31.5q-12 -30 -28 -43t-41 -13
q-29 0 -45 16.5t-16 45.5q0 53 51.5 80t151.5 27q138 0 186 -58q32 28 79.5 43t102.5 15q107 0 165 -58t58 -165q0 -12 -4.5 -14.5t-27.5 -2.5h-329q-4 -9 -4 -40q0 -100 41.5 -152.5t120.5 -52.5q43 0 81 16.5t86 56.5zM344 286q-47 -23 -79 -41.5t-52 -35.5t-29 -33
t-9 -33q0 -27 18 -43t48 -16q22 0 40.5 8.5t32.5 24t22 36t8 44.5v89zM652 356q21 0 33 1t18.5 4t8.5 8.5t2 15.5q0 44 -25 70.5t-66 26.5q-44 0 -77 -33.5t-47 -92.5h153zM335 651l127 119q24 23 44.5 33t40.5 10q25 0 40 -12t15 -33q0 -17 -18.5 -30t-50.5 -27l-139 -60
h-59z" />
    <glyph glyph-name="Oslashacute" unicode="&#x1fe;" horiz-adv-x="943" 
d="M472 780q66 0 125 -17t110 -47l95 114h89l-128 -154q63 -55 99.5 -131t36.5 -166q0 -81 -33.5 -152t-91 -123.5t-135.5 -83t-167 -30.5q-64 0 -121.5 15.5t-107.5 43.5l-108 -130h-88l140 169q-66 54 -104 128.5t-38 162.5q0 85 33 158t90.5 127t135.5 85t168 31z
M219 376q0 -117 43 -197l382 460q-32 37 -75.5 56.5t-96.5 19.5q-59 0 -105.5 -23.5t-79.5 -68t-50.5 -107t-17.5 -140.5zM472 55q58 0 105 22.5t80 64t50.5 101t17.5 133.5q0 60 -11 111t-31 93l-379 -458q32 -32 74 -49.5t94 -17.5zM383 830l126 97q20 15 44 24t50 9
q28 0 42.5 -10t14.5 -27q0 -23 -18 -37.5t-70 -27.5l-116 -28h-73z" />
    <glyph glyph-name="oslashacute" unicode="&#x1ff;" horiz-adv-x="658" 
d="M327 540q44 0 84 -11t75 -31l78 94h82l-109 -131q39 -36 62 -85t23 -107q0 -61 -23.5 -112t-64 -88t-94 -58t-113.5 -21q-42 0 -79.5 10t-70.5 28l-74 -89h-81l104 126q-42 37 -66 89t-24 115q0 59 23 109t63 86t93 56t112 20zM327 482q-30 0 -55 -15.5t-42.5 -43.5
t-27 -67.5t-9.5 -87.5q0 -59 14 -106l218 263q-18 27 -43 42t-55 15zM465 268q0 51 -12 92l-217 -261q36 -48 91 -48q31 0 56.5 15.5t43.5 44t28 68.5t10 89zM266 651l127 119q24 23 44.5 33t40.5 10q25 0 40 -12t15 -33q0 -17 -18.5 -30t-50.5 -27l-139 -60h-59z" />
    <glyph glyph-name="uni0218" unicode="&#x218;" horiz-adv-x="663" 
d="M54 255h39q14 -95 76 -149.5t153 -54.5q37 0 68 9t53 25.5t34 39t12 50.5q0 24 -7.5 41.5t-28.5 34t-57.5 33.5t-94.5 39q-117 45 -173 104.5t-56 140.5q0 47 18 86t50.5 67t78 43.5t100.5 15.5q51 0 96 -16t89 -48l18 50h24l11 -216h-39q-24 82 -75 125.5t-118 43.5
q-62 0 -100.5 -30.5t-38.5 -78.5q0 -21 7 -37.5t26 -31.5t52 -30.5t85 -34.5q70 -27 119.5 -54.5t81 -59t46.5 -66.5t15 -77q0 -51 -22 -93t-61.5 -72t-94 -47t-120.5 -17q-60 0 -108 16.5t-99 53.5l-20 -60h-24zM262 -219q58 32 58 72q-10 -8 -27 -8q-19 0 -32.5 13.5
t-13.5 36.5t20 41.5t52 18.5t49 -20.5t17 -58.5q0 -34 -21.5 -65.5t-73.5 -60.5z" />
    <glyph glyph-name="uni0219" unicode="&#x219;" horiz-adv-x="466" 
d="M85 0h-31v182h42q17 -72 49 -105t83 -33q37 0 57.5 15.5t20.5 42.5q0 28 -25 54.5t-81 56.5q-76 41 -109 81.5t-33 91.5q0 33 12.5 61.5t34 49.5t51.5 32.5t65 11.5q31 0 61.5 -9t53.5 -25l18 24h26v-151h-39q-23 57 -47.5 82t-59.5 25q-28 0 -44.5 -15t-16.5 -40
q0 -28 24.5 -53t81.5 -55q40 -22 69 -43t47 -42.5t26.5 -45t8.5 -50.5q0 -35 -13 -63t-37 -48t-57.5 -31t-74.5 -11q-43 0 -80 11.5t-61 33.5zM181 -218q58 32 58 72q-10 -8 -27 -8q-19 0 -32.5 13.5t-13.5 36.5t20 41.5t52 18.5t49 -20.5t17 -58.5q0 -34 -21.5 -65.5
t-73.5 -60.5z" />
    <glyph glyph-name="uni021A" unicode="&#x21a;" horiz-adv-x="827" 
d="M815 550h-43q-3 49 -14.5 81.5t-32.5 52t-51 27t-70 7.5q-39 0 -62.5 -1.5t-36 -5t-16.5 -9.5t-4 -15v-524q0 -32 4.5 -55t18.5 -37.5t41 -22t71 -8.5v-40h-419v40q45 1 72 8.5t41.5 22t19 37.5t4.5 55v524q0 9 -3.5 15t-14.5 9.5t-31.5 5t-53.5 1.5q-36 0 -69 -3.5
t-58 -20t-40.5 -50t-16.5 -94.5h-39l10 220h783zM353 -219q58 32 58 72q-10 -8 -27 -8q-19 0 -32.5 13.5t-13.5 36.5t20 41.5t52 18.5t49 -20.5t17 -58.5q0 -34 -21.5 -65.5t-73.5 -60.5z" />
    <glyph glyph-name="uni021B" unicode="&#x21b;" horiz-adv-x="382" 
d="M25 475v45q60 17 100.5 51.5t60.5 79.5h51v-121h115v-55h-115v-307q0 -62 13.5 -88t45.5 -26q39 0 59 36l21 -29q-28 -71 -132 -71q-69 0 -107.5 32t-38.5 90v363h-73zM142 -219q58 32 58 72q-10 -8 -27 -8q-19 0 -32.5 13.5t-13.5 36.5t20 41.5t52 18.5t49 -20.5
t17 -58.5q0 -34 -21.5 -65.5t-73.5 -60.5z" />
    <glyph glyph-name="dotlessj" unicode="&#x237;" horiz-adv-x="331" 
d="M246 -2q0 -125 -60.5 -191.5t-174.5 -66.5q-77 0 -120.5 28.5t-43.5 70.5q0 25 16.5 38.5t37.5 13.5q28 0 42 -15.5t25 -33.5t24.5 -33.5t40.5 -15.5q37 0 55.5 29t18.5 100v368q0 55 -2.5 90t-5.5 48q-5 23 -22 31.5t-63 8.5v34l232 38v-542z" />
    <glyph glyph-name="schwa" unicode="&#x259;" horiz-adv-x="586" 
d="M46 437q47 53 102.5 78t124.5 25q61 0 112 -19.5t87 -55t56 -84.5t20 -109q0 -62 -21 -113.5t-59.5 -89t-91 -58.5t-115.5 -21q-106 0 -165 62.5t-59 174.5q0 16 5 19.5t28 3.5h322q4 9 4 33q0 89 -42.5 140.5t-115.5 51.5q-42 0 -83.5 -19t-80.5 -54zM240 194
q-20 0 -32.5 -1t-19.5 -3.5t-9 -7.5t-2 -14q0 -53 23 -86.5t65 -33.5q25 0 46.5 11t37.5 30.5t25.5 46t10.5 58.5h-145z" />
    <glyph glyph-name="apostrophe" unicode="&#x2bc;" horiz-adv-x="204" 
d="M82 596q-3 20 -8.5 42t-10.5 45q-7 27 -12 50.5t-5 37.5q0 26 16 42.5t40 16.5t40 -17t16 -43q0 -14 -5 -37t-12 -50q-5 -22 -10 -44.5t-8 -42.5h-41z" />
    <glyph glyph-name="circumflex" unicode="&#x2c6;" horiz-adv-x="386" 
d="M245 800l120 -149h-52l-120 68l-120 -68h-52l120 149h104z" />
    <glyph glyph-name="caron" unicode="&#x2c7;" horiz-adv-x="386" 
d="M141 651l-120 149h52l120 -68l120 68h52l-120 -149h-104z" />
    <glyph glyph-name="breve" unicode="&#x2d8;" horiz-adv-x="332" 
d="M316 786q-2 -31 -14 -56.5t-32 -44t-46.5 -29t-57.5 -10.5q-32 0 -58.5 10.5t-46.5 29t-32 44.5t-13 56h43q9 -23 38 -37t68 -14t68.5 14t38.5 37h44z" />
    <glyph glyph-name="dotaccent" unicode="&#x2d9;" horiz-adv-x="195" 
d="M20 752q0 33 22.5 55.5t54.5 22.5q33 0 55.5 -22.5t22.5 -55.5q0 -32 -22.5 -54.5t-55.5 -22.5q-32 0 -54.5 22.5t-22.5 54.5z" />
    <glyph glyph-name="ring" unicode="&#x2da;" horiz-adv-x="224" 
d="M21 742q0 38 25.5 63t64.5 25q40 0 66 -25t26 -63q0 -37 -26 -61.5t-66 -24.5q-39 0 -64.5 24.5t-25.5 61.5zM70 742q0 -17 12 -28t29 -11t28 11t11 28q0 16 -11 26.5t-28 10.5t-29 -10.5t-12 -26.5z" />
    <glyph glyph-name="ogonek" unicode="&#x2db;" horiz-adv-x="278" 
d="M266 -152q-32 -42 -75 -64.5t-91 -22.5q-110 0 -110 88q0 47 43 87t122 69h62v-5q-55 -24 -89.5 -58.5t-34.5 -65.5q0 -20 13.5 -32.5t35.5 -12.5t45.5 14t43.5 39z" />
    <glyph glyph-name="tilde" unicode="&#x2dc;" horiz-adv-x="401" 
d="M11 660q10 59 43 96.5t76 37.5q7 0 14.5 -1t17.5 -4t23 -7.5t32 -11.5q31 -12 48 -17t31 -5q19 0 30 9.5t19 32.5h45q-4 -26 -16 -54t-28 -48q-30 -36 -73 -36q-18 0 -37 5.5t-48 19.5q-23 11 -46.5 17t-40.5 6t-26.5 -8.5t-17.5 -31.5h-46z" />
    <glyph glyph-name="hungarumlaut" unicode="&#x2dd;" horiz-adv-x="536" 
d="M16 651l127 119q24 23 44.5 33t40.5 10q25 0 40 -12t15 -33q0 -17 -18.5 -30t-50.5 -27l-139 -60h-59zM253 651l127 119q24 23 44.5 33t40.5 10q25 0 40 -12t15 -33q0 -17 -18.5 -30t-50.5 -27l-139 -60h-59z" />
    <glyph glyph-name="uni03BC" unicode="&#x3bc;" horiz-adv-x="720" 
d="M188 91q9 -30 20 -71t20.5 -81.5t16 -75t6.5 -52.5q0 -33 -18.5 -52t-50.5 -19q-33 0 -55 23.5t-22 58.5v543q0 41 -2 64.5t-10 36t-25.5 17t-47.5 7.5v40h224v-273q0 -107 24.5 -154.5t78.5 -47.5q36 0 60 16t43 57q10 25 16.5 64t6.5 80v93q0 40 -2 63.5t-11 36.5
t-26.5 17.5t-47.5 7.5v40h225v-307q0 -57 1.5 -91t5.5 -52q2 -12 6.5 -20t14 -12.5t25 -6t39.5 -1.5v-39l-199 -12l-11 89h-4q-22 -48 -57 -68t-89 -20q-47 0 -86 24.5t-65 77.5z" />
    <glyph glyph-name="Ddotbelow" unicode="&#x1e0c;" horiz-adv-x="919" 
d="M35 0v40q33 1 53.5 5.5t32 17t15.5 34t4 57.5v462q0 35 -3 56.5t-13 34t-27.5 17t-45.5 6.5v40h380q96 0 177 -30t140 -83t92 -126t33 -159q0 -82 -31 -150.5t-86.5 -117.5t-133 -76.5t-170.5 -27.5h-417zM304 709q-17 0 -17 -17v-517q0 -58 36 -86t111 -28
q131 0 201.5 79t70.5 230q0 80 -19 143t-55 106.5t-87.5 66.5t-115.5 23h-125zM371 -165q0 33 22.5 55.5t54.5 22.5q33 0 55.5 -22.5t22.5 -55.5q0 -32 -22.5 -54.5t-55.5 -22.5q-32 0 -54.5 22.5t-22.5 54.5z" />
    <glyph glyph-name="ddotbelow" unicode="&#x1e0d;" horiz-adv-x="694" 
d="M481 64h-4q-69 -74 -179 -74q-57 0 -104.5 20t-82 56t-53.5 85.5t-19 109.5t19.5 111t53 88.5t80 58.5t100.5 21q50 0 88.5 -15t67.5 -51h4v85q0 59 -1.5 101.5t-4.5 55.5q-5 21 -30.5 30.5t-78.5 9.5v34l253 40v-572q0 -75 1.5 -115.5t5.5 -61.5q2 -13 6 -21t12 -12.5
t21.5 -6t34.5 -1.5v-39l-190 -11v74zM450 287q0 38 -8 70.5t-24 57.5q-18 29 -46 44t-60 15q-59 0 -90 -54t-31 -157q0 -104 31 -160t89 -56q33 0 63 17t49 46q14 22 20.5 54.5t6.5 83.5v39zM272 -165q0 33 22.5 55.5t54.5 22.5q33 0 55.5 -22.5t22.5 -55.5
q0 -32 -22.5 -54.5t-55.5 -22.5q-32 0 -54.5 22.5t-22.5 54.5z" />
    <glyph glyph-name="Hdotbelow" unicode="&#x1e24;" horiz-adv-x="945" 
d="M805 161q0 -38 3.5 -61.5t15 -36t32 -17.5t54.5 -6v-40h-367v40q37 1 59.5 6t35 17t16.5 34t4 57v209h-371v-202q0 -38 4 -61.5t16 -36t34.5 -17.5t59.5 -6v-40h-366v40q34 1 54.5 6t31.5 17t15 34t4 57v462q0 35 -3.5 56.5t-13.5 34t-28.5 17t-48.5 6.5v40h345v-40
q-34 -1 -54.5 -6t-31.5 -18t-14.5 -36t-3.5 -61v-184h371v191q0 35 -4 56.5t-15 34t-31.5 17t-54.5 6.5v40h346v-40q-30 -1 -48.5 -6t-28.5 -18t-13.5 -36t-3.5 -61v-448zM420 -165q0 33 22.5 55.5t54.5 22.5q33 0 55.5 -22.5t22.5 -55.5q0 -32 -22.5 -54.5t-55.5 -22.5
q-32 0 -54.5 22.5t-22.5 54.5z" />
    <glyph glyph-name="hdotbelow" unicode="&#x1e25;" horiz-adv-x="714" 
d="M244 164q0 -41 2.5 -64.5t11 -36.5t26 -17t47.5 -6v-40h-315v40q30 2 48 6t27 16t11.5 34.5t2.5 60.5v411q0 60 -1.5 94.5t-5.5 52.5q-3 13 -7 20.5t-12.5 12t-23 6t-36.5 1.5v37l223 38v-369h4q31 41 69.5 60t92.5 19q98 0 152 -60q26 -30 41 -72.5t15 -88.5v-155
q0 -42 2 -65.5t10.5 -36t25.5 -16.5t47 -6v-40h-313v40q30 1 47.5 5.5t27 16.5t12 34.5t2.5 60.5v123q0 106 -23 150t-79 44q-60 0 -95 -44q-17 -23 -26.5 -57t-9.5 -76v-133zM281 -165q0 33 22.5 55.5t54.5 22.5q33 0 55.5 -22.5t22.5 -55.5q0 -32 -22.5 -54.5t-55.5 -22.5
q-32 0 -54.5 22.5t-22.5 54.5z" />
    <glyph glyph-name="Ndotaccent" unicode="&#x1e44;" horiz-adv-x="940" 
d="M670 -10l-443 631h-4v-430q0 -50 3.5 -79t15 -45t32 -21t53.5 -6v-40h-297v40q37 1 59.5 6.5t35 20.5t16.5 42.5t4 74.5v402q0 42 -4 69.5t-15 43.5t-31.5 22.5t-54.5 8.5v40h279l403 -578h4v387q0 49 -3.5 78.5t-15 45.5t-32 21t-53.5 6v40h297v-40q-37 -1 -59.5 -6.5
t-35 -20.5t-16.5 -43t-4 -74v-596h-134zM422 893q0 28 20 47t46 19q29 0 49.5 -19t20.5 -47q0 -26 -20.5 -44.5t-49.5 -18.5q-26 0 -46 18.5t-20 44.5z" />
    <glyph glyph-name="ndotaccent" unicode="&#x1e45;" horiz-adv-x="727" 
d="M257 163q0 -41 2.5 -64.5t11 -36t26 -16.5t47.5 -6v-40h-315v40q29 2 46.5 6t27 16t12.5 34t3 60v125q0 59 -2 95.5t-5 49.5t-8 21.5t-15 13t-25 6t-38 1.5v34l193 38l13 -88h4q33 42 78 65t99 23q64 0 103.5 -17.5t70.5 -58.5q17 -23 30 -59.5t13 -100.5v-141
q0 -41 2.5 -64.5t11 -36t25.5 -16.5t46 -6v-40h-313v40q30 1 47.5 5.5t26.5 16.5t12 34.5t3 59.5v136q0 51 -6 86t-19.5 56.5t-35.5 31t-55 9.5q-32 0 -55 -18t-40 -50q-9 -18 -15.5 -46.5t-6.5 -59.5v-138zM305 752q0 33 22.5 55.5t54.5 22.5q33 0 55.5 -22.5t22.5 -55.5
q0 -32 -22.5 -54.5t-55.5 -22.5q-32 0 -54.5 22.5t-22.5 54.5z" />
    <glyph glyph-name="Rdotbelow" unicode="&#x1e5a;" horiz-adv-x="815" 
d="M695 577q0 -83 -48 -139t-153 -75l232 -266q24 -28 57 -42.5t67 -14.5v-40h-237l-248 304q-25 30 -43.5 40.5t-34.5 10.5v-196q0 -37 5 -60.5t20 -36.5t43.5 -17.5t76.5 -4.5v-40h-397v40q33 0 53.5 4.5t32 17t15.5 35t4 57.5v462q0 35 -3 56.5t-13 34t-28.5 17
t-49.5 6.5v40h346q145 0 224 -51t79 -142zM287 415h65q94 0 140.5 36.5t46.5 120.5q0 64 -39 103t-108 39h-87q-18 0 -18 -17v-282zM360 -165q0 33 22.5 55.5t54.5 22.5q33 0 55.5 -22.5t22.5 -55.5q0 -32 -22.5 -54.5t-55.5 -22.5q-32 0 -54.5 22.5t-22.5 54.5z" />
    <glyph glyph-name="rdotbelow" unicode="&#x1e5b;" horiz-adv-x="498" 
d="M258 155q0 -39 3.5 -61.5t14.5 -34.5t32 -15.5t56 -3.5v-40h-334v40q30 2 48 6t27 16t11.5 34.5t2.5 60.5v122q0 62 -3 99t-13 57t-28.5 26.5t-48.5 6.5v35l200 37l16 -115h4q27 53 71 84t93 31q38 0 62 -19t24 -48q0 -32 -18.5 -54t-50.5 -22q-15 0 -27 6t-21.5 13.5
t-19 14t-19.5 6.5q-19 0 -36 -25t-28 -67q-8 -30 -13 -67.5t-5 -74.5v-48zM112 -165q0 33 22.5 55.5t54.5 22.5q33 0 55.5 -22.5t22.5 -55.5q0 -32 -22.5 -54.5t-55.5 -22.5q-32 0 -54.5 22.5t-22.5 54.5z" />
    <glyph glyph-name="Sdotbelow" unicode="&#x1e62;" horiz-adv-x="663" 
d="M54 255h39q14 -95 76 -149.5t153 -54.5q37 0 68 9t53 25.5t34 39t12 50.5q0 24 -7.5 41.5t-28.5 34t-57.5 33.5t-94.5 39q-117 45 -173 104.5t-56 140.5q0 47 18 86t50.5 67t78 43.5t100.5 15.5q51 0 96 -16t89 -48l18 50h24l11 -216h-39q-24 82 -75 125.5t-118 43.5
q-62 0 -100.5 -30.5t-38.5 -78.5q0 -21 7 -37.5t26 -31.5t52 -30.5t85 -34.5q70 -27 119.5 -54.5t81 -59t46.5 -66.5t15 -77q0 -51 -22 -93t-61.5 -72t-94 -47t-120.5 -17q-60 0 -108 16.5t-99 53.5l-20 -60h-24zM244 -165q0 33 22.5 55.5t54.5 22.5q33 0 55.5 -22.5
t22.5 -55.5q0 -32 -22.5 -54.5t-55.5 -22.5q-32 0 -54.5 22.5t-22.5 54.5z" />
    <glyph glyph-name="sdotbelow" unicode="&#x1e63;" horiz-adv-x="466" 
d="M85 0h-31v182h42q17 -72 49 -105t83 -33q37 0 57.5 15.5t20.5 42.5q0 28 -25 54.5t-81 56.5q-76 41 -109 81.5t-33 91.5q0 33 12.5 61.5t34 49.5t51.5 32.5t65 11.5q31 0 61.5 -9t53.5 -25l18 24h26v-151h-39q-23 57 -47.5 82t-59.5 25q-28 0 -44.5 -15t-16.5 -40
q0 -28 24.5 -53t81.5 -55q40 -22 69 -43t47 -42.5t26.5 -45t8.5 -50.5q0 -35 -13 -63t-37 -48t-57.5 -31t-74.5 -11q-43 0 -80 11.5t-61 33.5zM162 -164q0 33 22.5 55.5t54.5 22.5q33 0 55.5 -22.5t22.5 -55.5q0 -32 -22.5 -54.5t-55.5 -22.5q-32 0 -54.5 22.5t-22.5 54.5z
" />
    <glyph glyph-name="Tdotbelow" unicode="&#x1e6c;" horiz-adv-x="827" 
d="M815 550h-43q-3 49 -14.5 81.5t-32.5 52t-51 27t-70 7.5q-39 0 -62.5 -1.5t-36 -5t-16.5 -9.5t-4 -15v-524q0 -32 4.5 -55t18.5 -37.5t41 -22t71 -8.5v-40h-419v40q45 1 72 8.5t41.5 22t19 37.5t4.5 55v524q0 9 -3.5 15t-14.5 9.5t-31.5 5t-53.5 1.5q-36 0 -69 -3.5
t-58 -20t-40.5 -50t-16.5 -94.5h-39l10 220h783zM335 -165q0 33 22.5 55.5t54.5 22.5q33 0 55.5 -22.5t22.5 -55.5q0 -32 -22.5 -54.5t-55.5 -22.5q-32 0 -54.5 22.5t-22.5 54.5z" />
    <glyph glyph-name="tdotbelow" unicode="&#x1e6d;" horiz-adv-x="382" 
d="M25 475v45q60 17 100.5 51.5t60.5 79.5h51v-121h115v-55h-115v-307q0 -62 13.5 -88t45.5 -26q39 0 59 36l21 -29q-28 -71 -132 -71q-69 0 -107.5 32t-38.5 90v363h-73zM133 -165q0 33 22.5 55.5t54.5 22.5q33 0 55.5 -22.5t22.5 -55.5q0 -32 -22.5 -54.5t-55.5 -22.5
q-32 0 -54.5 22.5t-22.5 54.5z" />
    <glyph glyph-name="Wgrave" unicode="&#x1e80;" horiz-adv-x="1227" 
d="M887 194l135 386q24 67 24 100q0 31 -21.5 40.5t-66.5 9.5v40h284v-40q-38 0 -68.5 -18.5t-46.5 -62.5l-241 -659h-89l-174 528l-198 -528h-83l-212 584q-19 51 -35 82t-34 47t-39 21t-50 5v41h378v-41q-51 0 -70 -9.5t-19 -31.5q0 -8 1 -15.5t4 -17t7.5 -23.5t12.5 -35
l140 -403l162 442q-10 27 -20 44t-23.5 27t-30.5 14.5t-41 7.5v41h353v-41q-42 0 -62 -10.5t-20 -40.5q0 -15 4.5 -35t12.5 -46zM673 830l-116 28q-52 13 -70 27.5t-18 37.5q0 17 14.5 27t42.5 10q26 0 50 -9t44 -24l126 -97h-73z" />
    <glyph glyph-name="wgrave" unicode="&#x1e81;" horiz-adv-x="891" 
d="M313 -10h-75l-137 411q-16 48 -37 67.5t-56 21.5v40h286v-40q-36 -1 -50 -10.5t-14 -32.5q0 -11 3 -24t8 -30l63 -234h4l140 371h82l105 -371h5l80 207q10 25 14 43.5t4 32.5q0 26 -17 37t-46 11v40h215v-40q-18 0 -30 -4t-24 -19t-26 -46t-35 -85l-138 -346h-79
l-106 355h-4zM524 651l-134 60q-32 14 -50.5 27t-18.5 30q0 21 15 33t40 12q20 0 40.5 -10t44.5 -33l127 -119h-64z" />
    <glyph glyph-name="Wacute" unicode="&#x1e82;" horiz-adv-x="1227" 
d="M887 194l135 386q24 67 24 100q0 31 -21.5 40.5t-66.5 9.5v40h284v-40q-38 0 -68.5 -18.5t-46.5 -62.5l-241 -659h-89l-174 528l-198 -528h-83l-212 584q-19 51 -35 82t-34 47t-39 21t-50 5v41h378v-41q-51 0 -70 -9.5t-19 -31.5q0 -8 1 -15.5t4 -17t7.5 -23.5t12.5 -35
l140 -403l162 442q-10 27 -20 44t-23.5 27t-30.5 14.5t-41 7.5v41h353v-41q-42 0 -62 -10.5t-20 -40.5q0 -15 4.5 -35t12.5 -46zM514 830l126 97q20 15 44 24t50 9q28 0 42.5 -10t14.5 -27q0 -23 -18 -37.5t-70 -27.5l-116 -28h-73z" />
    <glyph glyph-name="wacute" unicode="&#x1e83;" horiz-adv-x="891" 
d="M313 -10h-75l-137 411q-16 48 -37 67.5t-56 21.5v40h286v-40q-36 -1 -50 -10.5t-14 -32.5q0 -11 3 -24t8 -30l63 -234h4l140 371h82l105 -371h5l80 207q10 25 14 43.5t4 32.5q0 26 -17 37t-46 11v40h215v-40q-18 0 -30 -4t-24 -19t-26 -46t-35 -85l-138 -346h-79
l-106 355h-4zM369 651l127 119q24 23 44.5 33t40.5 10q25 0 40 -12t15 -33q0 -17 -18.5 -30t-50.5 -27l-139 -60h-59z" />
    <glyph glyph-name="Wdieresis" unicode="&#x1e84;" horiz-adv-x="1227" 
d="M887 194l135 386q24 67 24 100q0 31 -21.5 40.5t-66.5 9.5v40h284v-40q-38 0 -68.5 -18.5t-46.5 -62.5l-241 -659h-89l-174 528l-198 -528h-83l-212 584q-19 51 -35 82t-34 47t-39 21t-50 5v41h378v-41q-51 0 -70 -9.5t-19 -31.5q0 -8 1 -15.5t4 -17t7.5 -23.5t12.5 -35
l140 -403l162 442q-10 27 -20 44t-23.5 27t-30.5 14.5t-41 7.5v41h353v-41q-42 0 -62 -10.5t-20 -40.5q0 -15 4.5 -35t12.5 -46zM480 903q0 25 17 41t43 16q27 0 44.5 -16t17.5 -41q0 -26 -17.5 -42.5t-44.5 -16.5q-26 0 -43 16.5t-17 42.5zM697 903q0 25 17.5 41t44.5 16
q25 0 42.5 -16t17.5 -41q0 -26 -17.5 -42.5t-42.5 -16.5q-27 0 -44.5 16.5t-17.5 42.5z" />
    <glyph glyph-name="wdieresis" unicode="&#x1e85;" horiz-adv-x="891" 
d="M313 -10h-75l-137 411q-16 48 -37 67.5t-56 21.5v40h286v-40q-36 -1 -50 -10.5t-14 -32.5q0 -11 3 -24t8 -30l63 -234h4l140 371h82l105 -371h5l80 207q10 25 14 43.5t4 32.5q0 26 -17 37t-46 11v40h215v-40q-18 0 -30 -4t-24 -19t-26 -46t-35 -85l-138 -346h-79
l-106 355h-4zM319 740q0 28 18.5 46.5t45.5 18.5q28 0 46.5 -18.5t18.5 -46.5q0 -27 -18.5 -45.5t-46.5 -18.5q-27 0 -45.5 18.5t-18.5 45.5zM515 740q0 28 18.5 46.5t45.5 18.5q28 0 46.5 -18.5t18.5 -46.5q0 -27 -18.5 -45.5t-46.5 -18.5q-27 0 -45.5 18.5t-18.5 45.5z
" />
    <glyph glyph-name="Zdotbelow" unicode="&#x1e92;" horiz-adv-x="797" 
d="M747 0h-732v23l503 695h-253q-74 0 -111.5 -37t-51.5 -115h-39l16 204h648v-23l-498 -691h286q54 0 88.5 9t56 32t33.5 61t21 97h46zM318 -165q0 33 22.5 55.5t54.5 22.5q33 0 55.5 -22.5t22.5 -55.5q0 -32 -22.5 -54.5t-55.5 -22.5q-32 0 -54.5 22.5t-22.5 54.5z" />
    <glyph glyph-name="zdotbelow" unicode="&#x1e93;" horiz-adv-x="568" 
d="M520 0h-494v23l313 454h-92q-43 0 -70 -3.5t-43.5 -15t-25 -31.5t-14.5 -53h-39l12 156h451v-23l-308 -453h88q52 0 86 4.5t55 17t33 35t21 59.5h39zM226 -165q0 33 22.5 55.5t54.5 22.5q33 0 55.5 -22.5t22.5 -55.5q0 -32 -22.5 -54.5t-55.5 -22.5q-32 0 -54.5 22.5
t-22.5 54.5z" />
    <glyph glyph-name="Edotbelow" unicode="&#x1eb8;" horiz-adv-x="764" 
d="M287 426q64 0 103 4t60.5 16.5t30.5 36.5t14 65h37v-293h-37q-6 40 -16 64t-32 36.5t-59.5 16t-100.5 3.5v-206q0 -32 8.5 -54t28.5 -35.5t53 -19t81 -5.5q57 0 96.5 8t65.5 28t42 53.5t27 84.5h40l-16 -229h-678v40q33 1 54 6t32 17t15 34t4 57v462q0 35 -3.5 56.5
t-13.5 34t-28.5 17t-48.5 6.5v40h632l7 -196h-43q-6 42 -19 69.5t-36 44t-59.5 23t-89.5 6.5h-113q-26 0 -32 -6.5t-6 -30.5v-254zM325 -165q0 33 22.5 55.5t54.5 22.5q33 0 55.5 -22.5t22.5 -55.5q0 -32 -22.5 -54.5t-55.5 -22.5q-32 0 -54.5 22.5t-22.5 54.5z" />
    <glyph glyph-name="edotbelow" unicode="&#x1eb9;" 
d="M540 93q-91 -103 -227 -103q-62 0 -112.5 19.5t-86.5 55t-56 84.5t-20 109q0 62 21 113.5t59.5 89t91 58.5t115.5 21q106 0 165 -57t59 -160q0 -16 -5 -19.5t-28 -3.5h-322q-4 -9 -4 -33q0 -98 42.5 -155t115.5 -57q42 0 83.5 19t80.5 54zM346 356q40 0 51.5 4.5
t11.5 21.5q0 44 -25 72t-63 28q-43 0 -76.5 -35.5t-43.5 -90.5h145zM235 -165q0 33 22.5 55.5t54.5 22.5q33 0 55.5 -22.5t22.5 -55.5q0 -32 -22.5 -54.5t-55.5 -22.5q-32 0 -54.5 22.5t-22.5 54.5z" />
    <glyph glyph-name="Etilde" unicode="&#x1ebc;" horiz-adv-x="764" 
d="M287 426q64 0 103 4t60.5 16.5t30.5 36.5t14 65h37v-293h-37q-6 40 -16 64t-32 36.5t-59.5 16t-100.5 3.5v-206q0 -32 8.5 -54t28.5 -35.5t53 -19t81 -5.5q57 0 96.5 8t65.5 28t42 53.5t27 84.5h40l-16 -229h-678v40q33 1 54 6t32 17t15 34t4 57v462q0 35 -3.5 56.5
t-13.5 34t-28.5 17t-48.5 6.5v40h632l7 -196h-43q-6 42 -19 69.5t-36 44t-59.5 23t-89.5 6.5h-113q-26 0 -32 -6.5t-6 -30.5v-254zM213 828q10 59 43 96.5t76 37.5q7 0 14.5 -1t17.5 -4t23 -7.5t32 -11.5q31 -12 48 -17t31 -5q19 0 30 9.5t19 32.5h45q-4 -26 -16 -54
t-28 -48q-30 -36 -73 -36q-18 0 -37 5.5t-48 19.5q-23 11 -46.5 17t-40.5 6t-26.5 -8.5t-17.5 -31.5h-46z" />
    <glyph glyph-name="etilde" unicode="&#x1ebd;" 
d="M540 93q-91 -103 -227 -103q-62 0 -112.5 19.5t-86.5 55t-56 84.5t-20 109q0 62 21 113.5t59.5 89t91 58.5t115.5 21q106 0 165 -57t59 -160q0 -16 -5 -19.5t-28 -3.5h-322q-4 -9 -4 -33q0 -98 42.5 -155t115.5 -57q42 0 83.5 19t80.5 54zM346 356q40 0 51.5 4.5
t11.5 21.5q0 44 -25 72t-63 28q-43 0 -76.5 -35.5t-43.5 -90.5h145zM127 660q10 59 43 96.5t76 37.5q7 0 14.5 -1t17.5 -4t23 -7.5t32 -11.5q31 -12 48 -17t31 -5q19 0 30 9.5t19 32.5h45q-4 -26 -16 -54t-28 -48q-30 -36 -73 -36q-18 0 -37 5.5t-48 19.5q-23 11 -46.5 17
t-40.5 6t-26.5 -8.5t-17.5 -31.5h-46z" />
    <glyph glyph-name="Idotbelow" unicode="&#x1eca;" horiz-adv-x="429" 
d="M393 0h-357v40q34 1 54.5 6.5t31.5 20.5t15 42.5t4 74.5v402q0 42 -3.5 69.5t-13.5 43.5t-28.5 22.5t-49.5 8.5v40h337v-40q-31 -2 -49.5 -8.5t-28.5 -22.5t-13.5 -43.5t-3.5 -69.5v-402q0 -47 3.5 -74.5t15 -42.5t32 -20.5t54.5 -6.5v-40zM136 -165q0 33 22.5 55.5
t54.5 22.5q33 0 55.5 -22.5t22.5 -55.5q0 -32 -22.5 -54.5t-55.5 -22.5q-32 0 -54.5 22.5t-22.5 54.5z" />
    <glyph glyph-name="idotbelow" unicode="&#x1ecb;" horiz-adv-x="361" 
d="M257 164q0 -40 3 -64t12 -37t26 -17.5t46 -5.5v-40h-315v40q28 1 45.5 6.5t27 18t13 35t3.5 57.5v123q0 58 -2 95.5t-5 51.5q-5 25 -22.5 33t-63.5 8v34l232 38v-376zM110 752q0 33 22.5 55.5t54.5 22.5q33 0 55.5 -22.5t22.5 -55.5q0 -32 -22.5 -54.5t-55.5 -22.5
q-32 0 -54.5 22.5t-22.5 54.5zM110 -165q0 33 22.5 55.5t54.5 22.5q33 0 55.5 -22.5t22.5 -55.5q0 -32 -22.5 -54.5t-55.5 -22.5q-32 0 -54.5 22.5t-22.5 54.5z" />
    <glyph glyph-name="Odotbelow" unicode="&#x1ecc;" horiz-adv-x="944" 
d="M472 780q90 0 168 -31t135.5 -85t90.5 -127t33 -158q0 -81 -33.5 -152t-91 -123.5t-135.5 -83t-167 -30.5t-167 30.5t-136 83t-91 123.5t-33 152q0 85 33 158t90.5 127t135.5 85t168 31zM472 55q58 0 105 22.5t80 64t50.5 101t17.5 133.5q0 78 -17.5 140.5t-50.5 107
t-80 68t-105 23.5q-59 0 -105.5 -23.5t-79.5 -68t-50.5 -107t-17.5 -140.5q0 -74 17.5 -133.5t50.5 -101t79.5 -64t105.5 -22.5zM405 -165q0 33 22.5 55.5t54.5 22.5q33 0 55.5 -22.5t22.5 -55.5q0 -32 -22.5 -54.5t-55.5 -22.5q-32 0 -54.5 22.5t-22.5 54.5z" />
    <glyph glyph-name="odotbelow" unicode="&#x1ecd;" horiz-adv-x="660" 
d="M328 540q60 0 113.5 -20.5t94 -56.5t64 -85.5t23.5 -108.5q0 -61 -23.5 -112t-64 -88t-94 -58t-113.5 -21q-59 0 -112 20.5t-93 57.5t-63 88.5t-23 112.5q0 59 23 109t63 86t93 56t112 20zM328 482q-30 0 -55 -15.5t-42.5 -43.5t-27 -67.5t-9.5 -87.5q0 -50 9.5 -90
t27 -68t42 -43.5t55.5 -15.5t56.5 15.5t43.5 44t28 68.5t10 89q0 48 -10 87t-28 67.5t-43.5 44t-56.5 15.5zM251 -165q0 33 22.5 55.5t54.5 22.5q33 0 55.5 -22.5t22.5 -55.5q0 -32 -22.5 -54.5t-55.5 -22.5q-32 0 -54.5 22.5t-22.5 54.5z" />
    <glyph glyph-name="Udotbelow" unicode="&#x1ee4;" horiz-adv-x="880" 
d="M757 310q0 -85 -18.5 -145.5t-57.5 -99.5t-100.5 -57t-147.5 -18q-161 0 -235.5 67.5t-74.5 215.5v274q0 39 -1 65.5t-3 44.5t-5.5 29.5t-8.5 19.5q-9 14 -26 19t-52 5v40h359v-40q-42 0 -62 -4.5t-31 -17.5q-7 -8 -11.5 -19.5t-7 -30t-3.5 -45.5t-1 -66v-262
q0 -114 48.5 -168.5t149.5 -54.5q206 0 206 229v231q0 42 -1.5 72t-5 51t-9 35t-13.5 23q-14 14 -36 20.5t-61 6.5v40h324v-40q-37 0 -57 -5.5t-31 -19.5q-8 -9 -13 -23.5t-8 -36t-4.5 -51.5t-1.5 -72v-212zM395 -165q0 33 22.5 55.5t54.5 22.5q33 0 55.5 -22.5t22.5 -55.5
q0 -32 -22.5 -54.5t-55.5 -22.5q-32 0 -54.5 22.5t-22.5 54.5z" />
    <glyph glyph-name="udotbelow" unicode="&#x1ee5;" horiz-adv-x="709" 
d="M465 366q0 40 -2 63.5t-11 36t-26.5 17t-47.5 7.5v40h226v-303q0 -61 1.5 -95.5t5.5 -51.5q3 -13 7 -20.5t13 -12t24.5 -6t40.5 -1.5v-39l-199 -12l-11 89h-4q-26 -42 -73 -65t-105 -23q-107 0 -163 76q-43 58 -43 165v135q0 41 -2 64.5t-10.5 35.5t-25.5 16.5t-47 7.5
v40h224v-283q0 -101 25 -146.5t80 -45.5q59 0 91 54q32 52 32 153v104zM249 -165q0 33 22.5 55.5t54.5 22.5q33 0 55.5 -22.5t22.5 -55.5q0 -32 -22.5 -54.5t-55.5 -22.5q-32 0 -54.5 22.5t-22.5 54.5z" />
    <glyph glyph-name="Ygrave" unicode="&#x1ef2;" horiz-adv-x="760" 
d="M101 644q-15 26 -27.5 43t-25.5 26.5t-28 13t-34 3.5v40h336v-40q-42 0 -59 -8t-17 -24q0 -10 6 -24t19 -38l143 -273h4l126 210q33 56 46 83.5t13 43.5q0 17 -15.5 23.5t-57.5 6.5v40h251v-40q-22 0 -40 -7t-37.5 -27.5t-44 -57t-58.5 -95.5l-146 -250v-102
q0 -50 4.5 -80t16 -45.5t31.5 -20.5t52 -5v-40h-356v40q31 0 51.5 5t32.5 20t16.5 43.5t4.5 75.5v92zM436 830l-116 28q-52 13 -70 27.5t-18 37.5q0 17 14.5 27t42.5 10q26 0 50 -9t44 -24l126 -97h-73z" />
    <glyph glyph-name="ygrave" unicode="&#x1ef3;" horiz-adv-x="646" 
d="M287 -157q-11 -22 -27.5 -41t-37 -32.5t-42.5 -21.5t-44 -8q-33 0 -53 16t-20 43q0 25 17.5 39t56.5 17q89 7 115 56l27 52l-177 438q-12 29 -20.5 46t-18.5 26.5t-23 12.5t-32 4v40h303v-40q-39 0 -54.5 -7.5t-15.5 -27.5q0 -8 2.5 -18.5t6.5 -21.5l102 -292h4l86 195
q13 31 22 51.5t13.5 35t6.5 23.5t2 18q0 26 -14.5 35t-58.5 9v40h241v-40q-20 0 -34 -5.5t-28.5 -22.5t-32 -50.5t-43.5 -88.5zM426 651l-134 60q-32 14 -50.5 27t-18.5 30q0 21 15 33t40 12q20 0 40.5 -10t44.5 -33l127 -119h-64z" />
    <glyph glyph-name="Ytilde" unicode="&#x1ef8;" horiz-adv-x="760" 
d="M101 644q-15 26 -27.5 43t-25.5 26.5t-28 13t-34 3.5v40h336v-40q-42 0 -59 -8t-17 -24q0 -10 6 -24t19 -38l143 -273h4l126 210q33 56 46 83.5t13 43.5q0 17 -15.5 23.5t-57.5 6.5v40h251v-40q-22 0 -40 -7t-37.5 -27.5t-44 -57t-58.5 -95.5l-146 -250v-102
q0 -50 4.5 -80t16 -45.5t31.5 -20.5t52 -5v-40h-356v40q31 0 51.5 5t32.5 20t16.5 43.5t4.5 75.5v92zM237 828q10 59 43 96.5t76 37.5q7 0 14.5 -1t17.5 -4t23 -7.5t32 -11.5q31 -12 48 -17t31 -5q19 0 30 9.5t19 32.5h45q-4 -26 -16 -54t-28 -48q-30 -36 -73 -36
q-18 0 -37 5.5t-48 19.5q-23 11 -46.5 17t-40.5 6t-26.5 -8.5t-17.5 -31.5h-46z" />
    <glyph glyph-name="ytilde" unicode="&#x1ef9;" horiz-adv-x="646" 
d="M287 -157q-11 -22 -27.5 -41t-37 -32.5t-42.5 -21.5t-44 -8q-33 0 -53 16t-20 43q0 25 17.5 39t56.5 17q89 7 115 56l27 52l-177 438q-12 29 -20.5 46t-18.5 26.5t-23 12.5t-32 4v40h303v-40q-39 0 -54.5 -7.5t-15.5 -27.5q0 -8 2.5 -18.5t6.5 -21.5l102 -292h4l86 195
q13 31 22 51.5t13.5 35t6.5 23.5t2 18q0 26 -14.5 35t-58.5 9v40h241v-40q-20 0 -34 -5.5t-28.5 -22.5t-32 -50.5t-43.5 -88.5zM173 660q10 59 43 96.5t76 37.5q7 0 14.5 -1t17.5 -4t23 -7.5t32 -11.5q31 -12 48 -17t31 -5q19 0 30 9.5t19 32.5h45q-4 -26 -16 -54t-28 -48
q-30 -36 -73 -36q-18 0 -37 5.5t-48 19.5q-23 11 -46.5 17t-40.5 6t-26.5 -8.5t-17.5 -31.5h-46z" />
    <glyph glyph-name="endash" unicode="&#x2013;" horiz-adv-x="730" 
d="M66 243v93h598v-93h-598z" />
    <glyph glyph-name="emdash" unicode="&#x2014;" horiz-adv-x="1138" 
d="M66 243v93h1006v-93h-1006z" />
    <glyph glyph-name="quoteleft" unicode="&#x2018;" horiz-adv-x="247" 
d="M195 788q-36 -28 -55.5 -56.5t-19.5 -53.5q4 2 10.5 2.5t11.5 0.5q23 0 38.5 -18.5t15.5 -45.5q0 -33 -22 -55t-55 -22q-35 0 -55 25.5t-20 68.5q0 51 31 101t91 95z" />
    <glyph glyph-name="quoteright" unicode="&#x2019;" horiz-adv-x="242" 
d="M55 582q36 28 55.5 56.5t19.5 53.5q-4 -2 -10.5 -2.5t-11.5 -0.5q-23 0 -38.5 18.5t-15.5 45.5q0 33 22 55t55 22q35 0 55 -25.5t20 -68.5q0 -51 -31 -101t-91 -95z" />
    <glyph glyph-name="quotesinglbase" unicode="&#x201a;" horiz-adv-x="261" 
d="M56 -142q36 28 55.5 56.5t19.5 53.5q-4 -2 -10.5 -2.5t-11.5 -0.5q-23 0 -38.5 18.5t-15.5 45.5q0 33 22 55t55 22q35 0 55 -25.5t20 -68.5q0 -104 -122 -196z" />
    <glyph glyph-name="quotedblleft" unicode="&#x201c;" horiz-adv-x="453" 
d="M401 788q-36 -28 -55.5 -56.5t-19.5 -53.5q4 2 10.5 2.5t11.5 0.5q23 0 38.5 -18.5t15.5 -45.5q0 -33 -22 -55t-55 -22q-35 0 -55 25.5t-20 68.5q0 51 31 101t91 95zM195 788q-36 -28 -55.5 -56.5t-19.5 -53.5q4 2 10.5 2.5t11.5 0.5q23 0 38.5 -18.5t15.5 -45.5
q0 -33 -22 -55t-55 -22q-35 0 -55 25.5t-20 68.5q0 51 31 101t91 95z" />
    <glyph glyph-name="quotedblright" unicode="&#x201d;" horiz-adv-x="448" 
d="M55 582q36 28 55.5 56.5t19.5 53.5q-4 -2 -10.5 -2.5t-11.5 -0.5q-23 0 -38.5 18.5t-15.5 45.5q0 33 22 55t55 22q35 0 55 -25.5t20 -68.5q0 -51 -31 -101t-91 -95zM261 582q36 28 55.5 56.5t19.5 53.5q-4 -2 -10.5 -2.5t-11.5 -0.5q-23 0 -38.5 18.5t-15.5 45.5
q0 33 22 55t55 22q35 0 55 -25.5t20 -68.5q0 -51 -31 -101t-91 -95z" />
    <glyph glyph-name="quotedblbase" unicode="&#x201e;" horiz-adv-x="467" 
d="M56 -142q36 28 55.5 56.5t19.5 53.5q-4 -2 -10.5 -2.5t-11.5 -0.5q-23 0 -38.5 18.5t-15.5 45.5q0 33 22 55t55 22q35 0 55 -25.5t20 -68.5q0 -104 -122 -196zM262 -142q36 28 55.5 56.5t19.5 53.5q-4 -2 -10.5 -2.5t-11.5 -0.5q-23 0 -38.5 18.5t-15.5 45.5q0 33 22 55
t55 22q35 0 55 -25.5t20 -68.5q0 -104 -122 -196z" />
    <glyph glyph-name="dagger" unicode="&#x2020;" horiz-adv-x="580" 
d="M92 424q-28 0 -46.5 19t-18.5 48t18.5 48t46.5 19q18 0 33.5 -5.5t34 -13t43.5 -14.5t61 -10q-1 43 -8 71.5t-14.5 50t-14 38.5t-6.5 38q0 29 20 48t50 19t50 -19t20 -48q0 -20 -6 -37.5t-14 -38.5t-15 -50t-9 -72q36 3 60 10.5t43 14.5t34.5 12.5t33.5 5.5
q28 0 46.5 -19t18.5 -48t-18.5 -48t-46.5 -19q-18 0 -34 5.5t-34.5 12.5t-43 14t-59.5 10q0 -37 4 -65.5t12.5 -52.5t21.5 -45t30 -42q-14 -41 -26 -103.5t-21.5 -134.5t-15 -146t-5.5 -137h-52q0 63 -5.5 137t-15 146t-22 134.5t-25.5 103.5q17 21 30 42t21 45t12.5 52.5
t4.5 65.5q-36 -3 -61 -10t-43.5 -14t-34.5 -12.5t-34 -5.5z" />
    <glyph glyph-name="daggerdbl" unicode="&#x2021;" horiz-adv-x="596" 
d="M393 261q-17 -21 -30 -42t-21.5 -45t-12.5 -53t-4 -65q32 3 54 10.5t39.5 15l31.5 13.5t31 6q32 0 53.5 -20.5t21.5 -51.5t-21.5 -51.5t-53.5 -20.5q-17 0 -31 6t-31 13.5t-39.5 15t-54.5 11.5q2 -42 10 -70t16.5 -48.5t15.5 -37t7 -35.5q0 -31 -21.5 -51.5t-53.5 -20.5
t-53.5 20.5t-21.5 51.5q0 19 7 36t15.5 37.5t16 48t9.5 69.5q-33 -3 -55.5 -11t-39.5 -15.5t-31.5 -13.5t-30.5 -6q-32 0 -53.5 20.5t-21.5 51.5t21.5 51.5t53.5 20.5q16 0 31 -6t32 -13.5t39.5 -15t55.5 -10.5q0 36 -4.5 64.5t-12.5 52.5t-21 45.5t-30 42.5q18 21 31 41.5
t21.5 44.5t13 52.5t4.5 64.5q-33 -3 -56 -10.5t-40.5 -15t-32.5 -13.5t-31 -6q-32 0 -53.5 20.5t-21.5 51.5t21.5 51.5t53.5 20.5q16 0 30.5 -6t32 -13.5t40.5 -15.5t56 -11q-2 42 -10 69.5t-17 48t-16 37t-7 36.5q0 31 21.5 51.5t53.5 20.5t53.5 -20.5t21.5 -51.5
q0 -19 -7 -35.5t-16 -37t-17.5 -48.5t-10.5 -70q33 4 55.5 11.5t39.5 15t31.5 13.5t31.5 6q32 0 53.5 -20.5t21.5 -51.5t-21.5 -51.5t-53.5 -20.5q-17 0 -31.5 6t-32 13.5t-40 15t-54.5 10.5q0 -36 4.5 -64.5t13 -52.5t21.5 -44.5t31 -41.5z" />
    <glyph glyph-name="bullet" unicode="&#x2022;" horiz-adv-x="466" 
d="M230 211q-32 0 -60.5 12.5t-50.5 34.5t-35 50.5t-13 60.5t13 60.5t35.5 50t52.5 34t63 12.5q32 0 61 -12.5t51 -34t35 -50t13 -60.5t-13 -60.5t-35.5 -50.5t-52.5 -34.5t-64 -12.5z" />
    <glyph glyph-name="ellipsis" unicode="&#x2026;" horiz-adv-x="754" 
d="M54 64q0 32 21.5 54.5t53.5 22.5q33 0 55 -22.5t22 -54.5q0 -31 -22 -52.5t-55 -21.5q-32 0 -53.5 21.5t-21.5 52.5zM301 64q0 32 21.5 54.5t53.5 22.5q33 0 55 -22.5t22 -54.5q0 -31 -22 -52.5t-55 -21.5q-32 0 -53.5 21.5t-21.5 52.5zM548 64q0 32 21.5 54.5t53.5 22.5
q33 0 55 -22.5t22 -54.5q0 -31 -22 -52.5t-55 -21.5q-32 0 -53.5 21.5t-21.5 52.5z" />
    </font>
</defs>
</svg>
