<?xml version="1.0" standalone="no"?>
<!DOCTYPE svg PUBLIC "-//W3C//DTD SVG 1.1//EN" "http://www.w3.org/Graphics/SVG/1.1/DTD/svg11.dtd" >
<svg xmlns="http://www.w3.org/2000/svg" xmlns:xlink="http://www.w3.org/1999/xlink" version="1.1">
<metadata>
Created by FontForge 20170731 at Fri Nov 30 22:52:27 2012
 By Aleksey,,,
Copyright (c) 2012, Pablo Impallari (www.impallari.com|impallari@gmail.com), Copyright (c) 2012, Rodrigo Fuenzalida (www.rfuenzalida.com|hello@rfuenzalida.com), with Reserved Font Name Libre Baskerville.
</metadata>
<defs>
<font id="LibreBaskerville-Italic" horiz-adv-x="763" >
  <font-face 
    font-family="Libre Baskerville"
    font-weight="400"
    font-style="italic"
    font-stretch="normal"
    units-per-em="1000"
    panose-1="2 0 0 0 0 0 0 0 0 0"
    ascent="800"
    descent="-200"
    x-height="540"
    cap-height="770"
    bbox="-301 -260 1532 970"
    underline-thickness="50"
    underline-position="-150"
    slope="-14.8"
    unicode-range="U+0020-FB06"
  />
<missing-glyph horiz-adv-x="756" 
d="M130 970h496v-1230h-496v1230zM240 -199h275v1110h-275v-1110z" />
    <glyph glyph-name="f_f" unicode="ff" horiz-adv-x="633" 
d="M152 73q-23 -90 -47 -153.5t-53 -103t-63.5 -58t-76.5 -18.5q-49 0 -77.5 21t-28.5 56q0 24 13 38.5t36 14.5q21 0 29 -11t13.5 -24t12.5 -24t25 -11q24 0 43 22.5t30 64.5l145 563h-96l13 46h95q22 80 46 134.5t52.5 87.5t64 47.5t82.5 14.5q43 0 78 -8.5t58 -24.5
q31 43 66.5 63t80.5 20q27 0 51 -6.5t41.5 -18.5t27.5 -28t10 -34q0 -24 -14 -39t-37 -15q-26 0 -35.5 15t-14.5 33t-12 33t-27 15q-42 0 -78.5 -74t-65.5 -215h121l-14 -46h-118l-93 -377q-23 -91 -46.5 -154.5t-51.5 -103t-61 -57.5t-74 -18q-46 0 -72.5 18t-26.5 50
q0 21 12 34t32 13q16 0 25 -8.5t15.5 -19t14.5 -19t23 -8.5q43 0 66 87l144 563h-189zM447 496q12 50 29 101t34 89q-15 23 -40.5 36t-55.5 13q-27 0 -48.5 -12t-39.5 -39.5t-34.5 -73.5t-34.5 -114h190z" />
    <glyph glyph-name="f_i" unicode="fi" horiz-adv-x="614" 
d="M152 73q-26 -102 -52 -166.5t-56 -101.5t-64.5 -51t-77.5 -14q-42 0 -69 22t-27 54q0 25 13 39.5t36 14.5q21 0 29 -11t13.5 -24t12.5 -24t27 -11q23 0 42 24t29 63l145 563h-96l13 46h95q22 90 48 153t56 103.5t64 59t73 18.5q59 0 97 -24.5t38 -61.5q0 -23 -12.5 -39
t-35.5 -16q-19 0 -29.5 7t-16 18t-8 23t-6.5 23t-12 18t-24 7q-20 0 -39.5 -21.5t-37.5 -60t-34 -91.5t-29 -116h88q59 0 92.5 5t56.5 5q15 0 23 -5t8 -22q0 -13 -5 -35t-16 -57l-67 -219q-2 -5 -4.5 -15t-5 -21t-4.5 -22t-2 -18q0 -10 5 -17.5t17 -7.5q15 0 30.5 12.5
t29.5 29.5t25 34.5t16 27.5l31 -17q-10 -24 -28 -53t-42 -53.5t-53.5 -41t-61.5 -16.5q-31 0 -46.5 17.5t-15.5 57.5q0 26 7 58t21 79l38 128q8 26 12 45t4 33q0 28 -20.5 35t-66.5 7h-77z" />
    <glyph glyph-name="f_l" unicode="fl" horiz-adv-x="617" 
d="M484 679q5 20 5 33q0 29 -15 46t-41 17q-52 0 -97 -71.5t-79 -207.5h108l-14 -46h-105l-94 -377q-23 -90 -47 -153.5t-53 -103t-63.5 -58t-76.5 -18.5q-49 0 -77.5 21t-28.5 56q0 24 13 38.5t36 14.5q21 0 29 -11t13.5 -24t12.5 -24t25 -11q24 0 43 22.5t30 64.5l145 563
h-96l13 46h95q23 85 50 146.5t59.5 101t71.5 58t86 18.5q49 0 81 -16l104 25l-179 -657q-16 -57 -16 -79q0 -26 21 -26q11 0 26 9.5t31.5 25.5t32 36.5t27.5 42.5l30 -17q-18 -38 -42 -69.5t-51 -55t-55 -36.5t-54 -13q-61 0 -61 66q0 20 6 56t21 90z" />
    <glyph glyph-name="f_f_i" unicode="ffi" horiz-adv-x="893" 
d="M528 450l-93 -377q-23 -91 -46.5 -154.5t-51.5 -103t-61 -57.5t-74 -18q-46 0 -72.5 18t-26.5 50q0 21 12 34t32 13q16 0 25 -8.5t15.5 -19t14.5 -19t23 -8.5q43 0 66 87l144 563h-189l-94 -377q-23 -90 -47 -153.5t-53 -103t-63.5 -58t-76.5 -18.5q-49 0 -77.5 21
t-28.5 56q0 24 13 38.5t36 14.5q21 0 29 -11t13.5 -24t12.5 -24t25 -11q24 0 43 22.5t30 64.5l145 563h-96l13 46h95q22 80 46 134.5t52.5 87.5t64 47.5t82.5 14.5q43 0 78 -8.5t58 -24.5q31 43 66.5 63t80.5 20q27 0 51 -6.5t41.5 -18.5t27.5 -28t10 -34q0 -24 -14 -39
t-37 -15q-26 0 -35.5 15t-14.5 33t-12 33t-27 15q-42 0 -78.5 -74t-65.5 -215h66q68 0 106 5t62 5q15 0 23 -5t8 -22q0 -13 -5 -35t-16 -57l-67 -219q-2 -5 -4.5 -15t-5 -21t-4.5 -22t-2 -18q0 -10 5 -17.5t17 -7.5q15 0 30.5 12.5t29.5 29.5t25 34.5t16 27.5l31 -17
q-10 -24 -28 -53t-42 -53.5t-53.5 -41t-61.5 -16.5q-31 0 -46.5 17.5t-15.5 57.5q0 26 7 58t21 79l38 128q8 26 12 45t4 33q0 28 -20.5 35t-66.5 7h-74zM447 496q12 50 29 101t34 89q-15 23 -40.5 36t-55.5 13q-27 0 -48.5 -12t-39.5 -39.5t-34.5 -73.5t-34.5 -114h190z" />
    <glyph glyph-name="f_f_l" unicode="ffl" horiz-adv-x="899" 
d="M766 679q5 20 5 33q0 29 -15 46t-41 17q-52 0 -97 -71.5t-79 -207.5h108l-14 -46h-105l-94 -377q-23 -90 -47 -153.5t-53 -103t-63.5 -58t-76.5 -18.5q-45 0 -70.5 18t-25.5 49q0 24 13 38.5t36 14.5q18 0 25.5 -9.5t12 -20.5t10.5 -20.5t22 -9.5q24 0 43 22.5t30 64.5
l145 563h-189l-94 -377q-23 -90 -47 -153.5t-53 -103t-63.5 -58t-76.5 -18.5q-49 0 -77.5 21t-28.5 56q0 24 13 38.5t36 14.5q21 0 29 -11t13.5 -24t12.5 -24t25 -11q24 0 43 22.5t30 64.5l145 563h-96l13 46h95q22 80 46 134.5t52.5 87.5t64 47.5t82.5 14.5q42 0 80.5 -9.5
t64.5 -29.5q33 41 72 60t87 19q49 0 81 -16l104 25l-179 -657q-16 -57 -16 -79q0 -26 21 -26q11 0 26 9.5t31.5 25.5t32 36.5t27.5 42.5l30 -17q-18 -38 -42 -69.5t-51 -55t-55 -36.5t-54 -13q-61 0 -61 66q0 20 6 56t21 90zM447 496q30 111 67 182q-15 28 -43.5 42.5
t-56.5 14.5q-27 0 -48.5 -12t-39.5 -39.5t-34.5 -73.5t-34.5 -114h190z" />
    <glyph glyph-name="f_b" unicode="fb" horiz-adv-x="829" 
d="M499 444l3 -2q29 46 72.5 71.5t92.5 25.5q61 0 94 -38t33 -104q0 -47 -14 -96t-38.5 -94t-57.5 -84.5t-70.5 -69t-79 -46.5t-81.5 -17q-57 0 -93.5 34.5t-36.5 89.5q0 26 11 73.5t32 113.5l118 378q4 14 4.5 21t0.5 12q0 29 -15 46t-41 17q-52 0 -97 -71.5t-79 -207.5
h108l-14 -46h-105l-94 -377q-23 -90 -47 -153.5t-53 -103t-63.5 -58t-76.5 -18.5q-49 0 -77.5 21t-28.5 56q0 24 13 38.5t36 14.5q21 0 29 -11t13.5 -24t12.5 -24t25 -11q24 0 43 22.5t30 64.5l145 563h-96l13 46h95q23 85 50 146.5t59.5 101t71.5 58t86 18.5q49 0 81 -16
l113 25zM469 41q23 0 49 16.5t51 44.5t48 65t40 77.5t27.5 82t10.5 78.5q0 35 -16 58t-39 23q-22 0 -47.5 -16.5t-50 -45t-47 -65t-40 -77t-27.5 -81.5t-10 -78q0 -82 51 -82z" />
    <glyph glyph-name="f_f_b" unicode="ffb" horiz-adv-x="1111" 
d="M781 444l3 -2q29 46 72.5 71.5t92.5 25.5q61 0 94 -38t33 -104q0 -47 -14 -96t-38.5 -94t-57.5 -84.5t-70.5 -69t-79 -46.5t-81.5 -17q-57 0 -93.5 34.5t-36.5 89.5q0 26 11 73.5t32 113.5l119 380q2 8 3 16t1 15q0 29 -15 46t-41 17q-52 0 -97 -71.5t-79 -207.5h108
l-14 -46h-105l-94 -377q-23 -90 -47 -153.5t-53 -103t-63.5 -58t-76.5 -18.5q-45 0 -70.5 18t-25.5 49q0 24 13 38.5t36 14.5q18 0 25.5 -9.5t12 -20.5t10.5 -20.5t22 -9.5q24 0 43 22.5t30 64.5l145 563h-189l-94 -377q-23 -90 -47 -153.5t-53 -103t-63.5 -58t-76.5 -18.5
q-49 0 -77.5 21t-28.5 56q0 24 13 38.5t36 14.5q21 0 29 -11t13.5 -24t12.5 -24t25 -11q24 0 43 22.5t30 64.5l145 563h-96l13 46h95q22 80 46 134.5t52.5 87.5t64 47.5t82.5 14.5q42 0 80.5 -9.5t64.5 -29.5q33 41 72 60t87 19q49 0 81 -16l113 25zM751 41q23 0 49 16.5
t51 44.5t48 65t40 77.5t27.5 82t10.5 78.5q0 35 -16 58t-39 23t-48 -16.5t-49.5 -45t-47 -65t-40 -77t-27.5 -81.5t-10 -78q0 -82 51 -82zM447 496q30 111 67 182q-15 28 -43.5 42.5t-56.5 14.5q-27 0 -48.5 -12t-39.5 -39.5t-34.5 -73.5t-34.5 -114h190z" />
    <glyph glyph-name="f_h" unicode="fh" horiz-adv-x="867" 
d="M649 311q17 51 24.5 81t7.5 53t-7.5 32.5t-25.5 9.5q-31 0 -61 -24t-60.5 -75t-63.5 -130t-70 -189l-23 -69h-84l199 682q4 15 4 30q0 29 -15 46t-41 17q-52 0 -97 -71.5t-79 -207.5h108l-14 -46h-105l-94 -377q-23 -90 -47 -153.5t-53 -103t-63.5 -58t-76.5 -18.5
q-49 0 -77.5 21t-28.5 56q0 24 13 38.5t36 14.5q21 0 29 -11t13.5 -24t12.5 -24t25 -11q24 0 43 22.5t30 64.5l145 563h-96l13 46h95q23 85 50 146.5t59.5 101t71.5 58t86 18.5q49 0 81 -16l108 26l-114 -386l3 -2q32 47 74 72.5t88 25.5q48 0 73 -28t25 -81q0 -33 -10 -77
t-31 -101q-20 -54 -31 -85t-16 -47.5t-6.5 -22.5t-1.5 -10q0 -23 19 -23q20 0 49.5 23.5t59.5 65.5l28 -21q-16 -29 -39.5 -55t-51 -45.5t-56 -31t-53.5 -11.5q-27 0 -39 15t-12 48q0 17 3 36t10.5 47.5t21 70t35.5 104.5z" />
    <glyph glyph-name="f_f_h" unicode="ffh" horiz-adv-x="1149" 
d="M931 311q17 51 24.5 81t7.5 53t-7.5 32.5t-25.5 9.5q-31 0 -61 -24t-60.5 -75t-63.5 -130t-70 -189l-23 -69h-84l199 682q4 15 4 30q0 29 -15 46t-41 17q-52 0 -97 -71.5t-79 -207.5h108l-14 -46h-105l-94 -377q-23 -90 -47 -153.5t-53 -103t-63.5 -58t-76.5 -18.5
q-45 0 -70.5 18t-25.5 49q0 24 13 38.5t36 14.5q18 0 25.5 -9.5t12 -20.5t10.5 -20.5t22 -9.5q24 0 43 22.5t30 64.5l145 563h-189l-94 -377q-23 -90 -47 -153.5t-53 -103t-63.5 -58t-76.5 -18.5q-49 0 -77.5 21t-28.5 56q0 24 13 38.5t36 14.5q21 0 29 -11t13.5 -24
t12.5 -24t25 -11q24 0 43 22.5t30 64.5l145 563h-96l13 46h95q22 80 46 134.5t52.5 87.5t64 47.5t82.5 14.5q42 0 80.5 -9.5t64.5 -29.5q33 41 72 60t87 19q49 0 81 -16l108 26l-114 -386l3 -2q32 47 74 72.5t88 25.5q48 0 73 -28t25 -81q0 -33 -10 -77t-31 -101
q-20 -54 -31 -85t-16 -47.5t-6.5 -22.5t-1.5 -10q0 -23 19 -23q20 0 49.5 23.5t59.5 65.5l28 -21q-16 -29 -39.5 -55t-51 -45.5t-56 -31t-53.5 -11.5q-27 0 -39 15t-12 48q0 17 3 36t10.5 47.5t21 70t35.5 104.5zM447 496q30 111 67 182q-15 28 -43.5 42.5t-56.5 14.5
q-27 0 -48.5 -12t-39.5 -39.5t-34.5 -73.5t-34.5 -114h190z" />
    <glyph glyph-name="f_k" unicode="fk" horiz-adv-x="817" 
d="M661 80q29 0 82 75l26 -14q-72 -151 -149 -151q-24 0 -39.5 16.5t-34.5 61.5l-67 160l-22 -10l-63 -218h-91l183 689q3 12 3 23q0 29 -15 46t-41 17q-52 0 -97 -71.5t-79 -207.5h108l-14 -46h-105l-94 -377q-23 -90 -47 -153.5t-53 -103t-63.5 -58t-76.5 -18.5
q-49 0 -77.5 21t-28.5 56q0 24 13 38.5t36 14.5q21 0 29 -11t13.5 -24t12.5 -24t25 -11q24 0 43 22.5t30 64.5l145 563h-96l13 46h95q23 85 50 146.5t59.5 101t71.5 58t86 18.5q49 0 81 -16l105 26l-104 -385l4 -1q58 97 147 97q47 0 74 -22.5t27 -60.5q0 -47 -46.5 -94
t-129.5 -85l-26 -12l51 -132q20 -55 46 -55zM466 268q43 15 80 35t63.5 42t41.5 44.5t15 42.5q0 41 -41 41q-21 0 -44 -16.5t-45 -44.5t-40.5 -65.5t-29.5 -78.5z" />
    <glyph glyph-name="f_f_k" unicode="ffk" horiz-adv-x="1099" 
d="M943 80q29 0 82 75l26 -14q-72 -151 -149 -151q-24 0 -39.5 16.5t-34.5 61.5l-67 160l-22 -10l-63 -218h-91l183 689q3 12 3 23q0 29 -15 46t-41 17q-52 0 -97 -71.5t-79 -207.5h108l-14 -46h-105l-94 -377q-23 -90 -47 -153.5t-53 -103t-63.5 -58t-76.5 -18.5
q-45 0 -70.5 18t-25.5 49q0 24 13 38.5t36 14.5q18 0 25.5 -9.5t12 -20.5t10.5 -20.5t22 -9.5q24 0 43 22.5t30 64.5l145 563h-189l-94 -377q-23 -90 -47 -153.5t-53 -103t-63.5 -58t-76.5 -18.5q-49 0 -77.5 21t-28.5 56q0 24 13 38.5t36 14.5q21 0 29 -11t13.5 -24
t12.5 -24t25 -11q24 0 43 22.5t30 64.5l145 563h-96l13 46h95q22 80 46 134.5t52.5 87.5t64 47.5t82.5 14.5q42 0 80.5 -9.5t64.5 -29.5q33 41 72 60t87 19q49 0 81 -16l105 26l-104 -385l4 -1q58 97 147 97q47 0 74 -22.5t27 -60.5q0 -47 -46.5 -94t-129.5 -85l-26 -12
l51 -132q20 -55 46 -55zM447 496q30 111 67 182q-15 28 -43.5 42.5t-56.5 14.5q-27 0 -48.5 -12t-39.5 -39.5t-34.5 -73.5t-34.5 -114h190zM748 268q43 15 80 35t63.5 42t41.5 44.5t15 42.5q0 41 -41 41q-21 0 -44 -16.5t-45 -44.5t-40.5 -65.5t-29.5 -78.5z" />
    <glyph glyph-name="f_j" unicode="fj" horiz-adv-x="568" 
d="M152 73q-26 -102 -52 -166.5t-56 -101.5t-64.5 -51t-77.5 -14q-42 0 -69 22t-27 54q0 25 13 39.5t36 14.5q21 0 29 -11t13.5 -24t12.5 -24t27 -11q23 0 42 24t29 63l145 563h-96l13 46h95q22 90 48 153t56 103.5t64 59t73 18.5q59 0 97 -24.5t38 -61.5q0 -23 -12.5 -39
t-35.5 -16q-19 0 -29.5 7t-16 18t-8 23t-6.5 23t-12 18t-24 7q-20 0 -39.5 -21.5t-37.5 -60t-34 -91.5t-29 -116h88q57 0 89.5 5t54.5 5q15 0 23 -5t8 -22q0 -13 -3.5 -34.5t-12.5 -57.5l-107 -421q-11 -43 -32.5 -83.5t-49.5 -72t-61 -51t-67 -19.5q-37 0 -61.5 22
t-24.5 54q0 27 13 43t36 16q18 0 27 -11.5t15 -26t12 -26t18 -11.5q20 0 35 22.5t26 64.5l111 443q7 26 11.5 45t4.5 33q0 25 -16.5 33.5t-53.5 8.5h-94z" />
    <glyph glyph-name="f_f_j" unicode="ffj" horiz-adv-x="858" 
d="M687 -34q-11 -43 -32.5 -83.5t-49.5 -72t-61 -51t-67 -19.5q-37 0 -61.5 22t-24.5 54q0 27 13 43t36 16q18 0 27 -11.5t15 -26t12 -26t18 -11.5q20 0 35.5 24t25.5 63l111 443q7 26 11.5 45t4.5 33q0 26 -19.5 34t-61.5 8h-91l-93 -377q-23 -91 -46.5 -154.5t-51.5 -103
t-61 -57.5t-74 -18q-46 0 -72.5 18t-26.5 50q0 21 12 34t32 13q16 0 25 -8.5t15.5 -19t14.5 -19t23 -8.5q43 0 66 87l144 563h-189l-94 -377q-23 -90 -47 -153.5t-53 -103t-63.5 -58t-76.5 -18.5q-49 0 -77.5 21t-28.5 56q0 24 13 38.5t36 14.5q21 0 29 -11t13.5 -24
t12.5 -24t25 -11q24 0 43 22.5t30 64.5l145 563h-96l13 46h95q22 80 46 134.5t52.5 87.5t64 47.5t82.5 14.5q43 0 78 -8.5t58 -24.5q31 43 66.5 63t80.5 20q27 0 51 -6.5t41.5 -18.5t27.5 -28t10 -34q0 -24 -14 -39t-37 -15q-26 0 -35.5 15t-14.5 33t-12 33t-27 15
q-42 0 -78.5 -74t-65.5 -215h77q66 0 103 5t60 5q15 0 23 -5t8 -22q0 -13 -3.5 -34.5t-12.5 -57.5zM447 496q12 50 29 101t34 89q-15 23 -40.5 36t-55.5 13q-27 0 -48.5 -12t-39.5 -39.5t-34.5 -73.5t-34.5 -114h190z" />
    <glyph glyph-name="f_t" unicode="ft" horiz-adv-x="641" 
d="M152 73q-26 -102 -52 -166.5t-56 -101.5t-64.5 -51t-77.5 -14q-42 0 -69 22t-27 54q0 25 13 39.5t36 14.5q21 0 29 -11t13.5 -24t12.5 -24t27 -11q23 0 42 24t29 63l145 563h-96l13 46h95q22 90 48 153t56 103.5t64 59t73 18.5q59 0 97 -24.5t38 -61.5q0 -23 -12.5 -39
t-35.5 -16q-19 0 -29.5 7t-16 18t-8 23t-6.5 23t-12 18t-24 7q-20 0 -39.5 -21.5t-37.5 -60t-34 -91.5t-29 -116h178l26 86h92l-26 -86h109l-14 -46h-109l-84 -278q-17 -54 -18 -82q0 -9 4.5 -16t15.5 -7q18 0 38 13.5t38.5 32t33 38t21.5 30.5l29 -17q-17 -34 -43 -65.5
t-55 -55.5t-58.5 -38.5t-53.5 -14.5q-35 0 -50.5 15t-15.5 50q0 20 7 54t24 93l75 248h-175z" />
    <glyph glyph-name="f_f_t" unicode="fft" horiz-adv-x="933" 
d="M805 450l-84 -278q-17 -54 -18 -82q0 -9 4.5 -16t15.5 -7q18 0 38 13.5t38.5 32t33 38t21.5 30.5l29 -17q-17 -34 -43 -65.5t-55 -55.5t-58.5 -38.5t-53.5 -14.5q-35 0 -50.5 15t-15.5 50q0 20 7 54t24 93l75 248h-185l-93 -377q-23 -91 -46.5 -154.5t-51.5 -103
t-61 -57.5t-74 -18q-46 0 -72.5 18t-26.5 50q0 21 12 34t32 13q16 0 25 -8.5t15.5 -19t14.5 -19t23 -8.5q43 0 66 87l144 563h-189l-94 -377q-23 -90 -47 -153.5t-53 -103t-63.5 -58t-76.5 -18.5q-49 0 -77.5 21t-28.5 56q0 24 13 38.5t36 14.5q21 0 29 -11t13.5 -24
t12.5 -24t25 -11q24 0 43 22.5t30 64.5l145 563h-96l13 46h95q22 80 46 134.5t52.5 87.5t64 47.5t82.5 14.5q43 0 78 -8.5t58 -24.5q31 43 66.5 63t80.5 20q27 0 51 -6.5t41.5 -18.5t27.5 -28t10 -34q0 -24 -14 -39t-37 -15q-26 0 -35.5 15t-14.5 33t-12 33t-27 15
q-42 0 -78.5 -74t-65.5 -215h188l26 86h92l-26 -86h109l-14 -46h-109zM447 496q12 50 29 101t34 89q-15 23 -40.5 36t-55.5 13q-27 0 -48.5 -12t-39.5 -39.5t-34.5 -73.5t-34.5 -114h190z" />
    <glyph glyph-name=".notdef" horiz-adv-x="756" 
d="M130 970h496v-1230h-496v1230zM240 -199h275v1110h-275v-1110z" />
    <glyph glyph-name=".null" horiz-adv-x="0" 
 />
    <glyph glyph-name="nonmarkingreturn" horiz-adv-x="313" 
 />
    <glyph glyph-name="space" unicode=" " horiz-adv-x="275" 
 />
    <glyph glyph-name="exclam" unicode="!" horiz-adv-x="317" 
d="M129 207l48 455q7 64 23.5 91t51.5 27q28 0 41.5 -17.5t13.5 -57.5q0 -19 -3.5 -37.5t-11 -42t-19.5 -55t-30 -76.5q-14 -35 -26.5 -74t-23 -77t-18 -73.5t-11.5 -62.5h-35zM119 -10q-25 0 -43.5 17t-18.5 44t18 46t45 19t45 -19t18 -45t-19 -44t-45 -18z" />
    <glyph glyph-name="quotedbl" unicode="&#x22;" horiz-adv-x="359" 
d="M154 564q8 60 11 109t9.5 84t20.5 54t44 19q17 0 26.5 -9.5t9.5 -25.5q0 -6 -9 -29t-22.5 -56t-30 -71.5t-30.5 -74.5h-29zM306 564q8 60 11 109t9.5 84t20.5 54t44 19q17 0 26.5 -9.5t9.5 -25.5q0 -6 -9 -29t-22.5 -56t-30 -71.5t-30.5 -74.5h-29z" />
    <glyph glyph-name="numbersign" unicode="#" horiz-adv-x="670" 
d="M612 255h-139l-37 -255h-59l35 255h-151l-38 -255h-60l38 255h-140l8 50h142l24 170h-143l8 50h144l35 245h60l-35 -245h151l34 245h60l-34 -245h134l-8 -50h-135l-23 -170h137zM295 475l-24 -170h151l23 170h-150z" />
    <glyph glyph-name="dollar" unicode="$" horiz-adv-x="584" 
d="M175 -3q-33 8 -61 24t-48.5 37.5t-32 48t-11.5 55.5q0 23 8 44t21.5 37.5t31 26t36.5 9.5q30 0 49 -24q-28 -11 -44.5 -38.5t-16.5 -62.5q0 -40 21.5 -67t59.5 -38l79 325q-26 19 -50.5 40t-43 45t-30 52t-11.5 63q0 42 18 79t49 65t73.5 44t92.5 18l21 85h57l-22 -89
q63 -11 101.5 -47t38.5 -88q0 -44 -26.5 -70.5t-68.5 -26.5q-17 0 -26 5t-15 16q23 7 39 31t16 54q0 62 -71 76l-64 -265q28 -20 56 -42t50.5 -49t37 -60.5t14.5 -76.5q0 -50 -21.5 -94t-58 -77t-85 -52.5t-103.5 -19.5h-4l-33 -136h-57zM414 185q0 48 -29 84t-70 68
l-71 -294q36 1 67.5 12.5t54 30t35.5 44t13 55.5zM230 613q0 -36 19 -63t48 -52l55 229q-55 -5 -88.5 -35.5t-33.5 -78.5z" />
    <glyph glyph-name="percent" unicode="%" horiz-adv-x="683" 
d="M80 0h-67l623 770h58zM207 465q-38 0 -62 29.5t-24 77.5q0 39 13.5 76.5t36 67t50.5 47.5t57 18q39 0 63 -28t24 -74q0 -38 -14 -76.5t-36.5 -69t-51 -49.5t-56.5 -19zM274 755q-17 0 -35 -19t-32 -49t-23 -67t-9 -74q0 -55 38 -55q17 0 34.5 19t31.5 49.5t22.5 68
t8.5 75.5q0 52 -36 52zM449 -10q-38 0 -62 29.5t-24 77.5q0 39 13.5 76.5t36 67t50.5 47.5t57 18q39 0 63 -28t24 -74q0 -38 -14 -76.5t-36.5 -69t-51 -49.5t-56.5 -19zM516 280q-17 0 -35 -19t-32 -49t-23 -67t-9 -74q0 -55 38 -55q17 0 34.5 19t31.5 49.5t22.5 68
t8.5 75.5q0 52 -36 52z" />
    <glyph glyph-name="ampersand" unicode="&#x26;" horiz-adv-x="898" 
d="M388 780q61 0 98.5 -31t37.5 -82q0 -24 -9 -40.5t-24 -19.5q-17 38 -47 59.5t-68 21.5q-46 0 -75.5 -30.5t-29.5 -78.5q0 -51 34 -62q24 -8 40 -14.5t25 -14t12.5 -16t3.5 -20.5q0 -22 -12.5 -34t-35.5 -12q-21 0 -34 9t-24 19.5t-23 19.5t-30 9q-35 0 -58 -34.5
t-23 -86.5t22.5 -97t62 -78.5t92.5 -52.5t114 -19q56 0 106.5 18t88.5 49t60 72t22 87q0 31 -11 58.5t-29.5 47.5t-44 31.5t-55.5 11.5q-49 0 -79 -24.5t-30 -65.5q0 -30 15.5 -50.5t38.5 -20.5t23 24q0 7 -1 15.5t-1 15.5q0 17 11 28.5t28 11.5q21 0 36 -18t15 -44
q0 -18 -8 -33.5t-22 -27t-33 -18.5t-40 -7q-24 0 -44.5 9.5t-35 26.5t-23 40.5t-8.5 51.5q0 36 14.5 66t40 51.5t61 33.5t78.5 12h105q60 0 96 25t36 67q0 26 -16 45.5t-36 19.5q-17 0 -21 -11t-7 -23.5t-10.5 -23.5t-32.5 -11q-24 0 -37.5 13.5t-13.5 37.5q0 33 25 52.5
t68 19.5q31 0 57.5 -11t45.5 -30t30 -45.5t11 -57.5q0 -35 -14.5 -64.5t-40 -51.5t-61 -34.5t-77.5 -13.5l-2 -4q26 -16 42.5 -57t16.5 -92q0 -64 -28.5 -120t-77.5 -97.5t-116 -65.5t-143 -24q-75 0 -139 23t-111 63t-73.5 94.5t-26.5 118.5q0 88 45.5 149.5t123.5 81.5
q-8 17 -12.5 43.5t-4.5 50.5q0 37 13 67.5t36.5 52.5t56 34t71.5 12z" />
    <glyph glyph-name="quotesingle" unicode="'" horiz-adv-x="207" 
d="M154 564q8 60 11 109t9.5 84t20.5 54t44 19q17 0 26.5 -9.5t9.5 -25.5q0 -6 -9 -29t-22.5 -56t-30 -71.5t-30.5 -74.5h-29z" />
    <glyph glyph-name="parenleft" unicode="(" horiz-adv-x="337" 
d="M443 803q-84 -85 -144.5 -165.5t-100 -164t-58 -175t-18.5 -197.5q0 -76 18.5 -141t57.5 -126l-38 -28q-128 167 -128 361q0 176 99.5 345.5t287.5 318.5z" />
    <glyph glyph-name="parenright" unicode=")" horiz-adv-x="335" 
d="M192 831q60 -81 89 -168.5t29 -180.5q0 -89 -27 -178t-78.5 -175t-126 -167.5t-170.5 -155.5l-23 28q70 60 132 139.5t108 171t72.5 191.5t26.5 201q0 65 -17.5 127t-53.5 139z" />
    <glyph glyph-name="asterisk" unicode="*" horiz-adv-x="532" 
d="M332 536q-6 -19 -10 -34t-5.5 -28t-2.5 -26t-1 -27q-2 -61 -45 -61q-24 0 -35 15t-11 33q0 13 6 21.5t23 25.5q7 7 13 14t11.5 17t12 24t15.5 36q-41 -7 -64.5 -16.5t-38 -18t-23 -14.5t-20.5 -6q-19 0 -32 14.5t-13 32.5q0 17 13 31t36 14q17 0 36 -6.5t45 -6.5
q23 0 56 6q-29 33 -52 48.5t-39.5 24.5t-25.5 17.5t-9 26.5q0 26 15 36.5t32 10.5q19 0 28.5 -11.5t17.5 -31.5t20 -46t37 -56q12 35 14.5 62t2.5 56q0 27 12.5 42t32.5 15q21 0 34 -14.5t13 -30.5q0 -13 -8.5 -26t-21 -29t-26.5 -36.5t-25 -49.5q36 7 59 16.5t38.5 18.5
t26.5 15t22 6q17 0 30.5 -14.5t13.5 -32.5q0 -14 -11 -29t-35 -15q-16 0 -32 5.5t-43 5.5q-12 0 -28.5 -1.5t-34.5 -4.5q23 -27 46 -42t41 -25.5t29.5 -21.5t11.5 -30q0 -23 -14 -34t-32 -11q-14 0 -22.5 5.5t-14.5 14t-9 18.5t-5 18q-4 16 -19.5 43t-35.5 47z" />
    <glyph glyph-name="plus" unicode="+" horiz-adv-x="578" 
d="M263 104v209h-208v50h208v209h52v-209h208v-50h-208v-209h-52z" />
    <glyph glyph-name="comma" unicode="," horiz-adv-x="265" 
d="M71 3q-12 -3 -21 -3q-26 0 -38.5 16t-12.5 42q0 30 20 51t49 21q31 0 51 -21t20 -50q0 -56 -40 -118t-115 -116l-23 32q54 38 82 77.5t28 68.5z" />
    <glyph glyph-name="hyphen" unicode="-" horiz-adv-x="465" 
d="M60 248l23 83h309l-23 -83h-309z" />
    <glyph glyph-name="period" unicode="." horiz-adv-x="262" 
d="M68 -10q-28 0 -48.5 19t-20.5 49t20 51t49 21q31 0 51 -21t20 -50t-21 -49t-50 -20z" />
    <glyph glyph-name="slash" unicode="/" horiz-adv-x="390" 
d="M40 0h-69l424 770h62z" />
    <glyph glyph-name="zero" unicode="0" horiz-adv-x="656" 
d="M260 -10q-43 0 -78 19.5t-60 54.5t-39 84.5t-14 109.5q0 96 32 189.5t84.5 167.5t118 119.5t133.5 45.5q43 0 78.5 -18.5t60.5 -52t39 -80.5t14 -104q0 -63 -15 -127.5t-41.5 -124t-62.5 -111t-77 -90t-85 -60.5t-88 -22zM427 728q-29 0 -58.5 -23t-57 -62.5t-51.5 -93
t-41.5 -114.5t-28 -126.5t-10.5 -129.5q0 -65 24 -100.5t69 -35.5q29 0 58 23t56 63t51 93.5t41.5 115.5t27.5 128.5t10 131.5q0 63 -23 96.5t-67 33.5z" />
    <glyph glyph-name="one" unicode="1" horiz-adv-x="474" 
d="M297 268q-10 -40 -18.5 -76t-8.5 -65q0 -20 5 -36t17.5 -27.5t33 -17.5t51.5 -6l-11 -40h-370l11 40q35 0 61.5 6t46 22t33.5 43t24 68l102 411q1 5 1.5 9t0.5 7q0 13 -15 13q-17 0 -52.5 -8t-93.5 -8l6 42q43 0 80 11t70 30t62 43t56 51h37z" />
    <glyph glyph-name="two" unicode="2" horiz-adv-x="625" 
d="M165 98h204q24 0 42.5 3.5t34 12t28.5 23t27 36.5h37l-63 -173h-464l9 53q125 100 211.5 178.5t140 143t77 119t23.5 106.5q0 58 -30 93t-83 35q-29 0 -54.5 -11t-44.5 -29.5t-29.5 -43.5t-10.5 -53q0 -45 24.5 -70t69.5 -25q-9 -25 -32 -39t-54 -14q-49 0 -79 34t-30 89
q0 45 20.5 84t56 68t83 46t101.5 17q47 0 86 -13t66.5 -37t42.5 -58t15 -76q0 -51 -23.5 -104t-74.5 -112t-131.5 -127.5t-195.5 -150.5v-5z" />
    <glyph glyph-name="three" unicode="3" horiz-adv-x="617" 
d="M411 219q0 33 -8.5 61.5t-23.5 49.5t-35.5 33t-44.5 12q-17 0 -39.5 -4t-39.5 -4q-32 0 -32 20q0 17 20 24.5t49.5 13.5t64 15t64 29t49.5 55t20 94q0 57 -21.5 84t-68.5 27q-53 0 -86 -29t-33 -74q0 -31 16.5 -48t45.5 -17q-8 -17 -26.5 -27.5t-41.5 -10.5
q-38 0 -61.5 25.5t-23.5 67.5q0 35 16.5 65t45.5 52t69 34.5t87 12.5q88 0 140 -41.5t52 -112.5q0 -35 -14 -68.5t-38.5 -62t-57.5 -49t-71 -29.5v-6q69 -18 107 -64.5t38 -111.5q0 -51 -23.5 -95.5t-64 -77.5t-95 -52.5t-115.5 -19.5q-46 0 -84 11.5t-65.5 31.5t-42.5 48.5
t-15 63.5q0 28 10 53.5t26.5 44.5t39 30t47.5 11q26 0 45 -12t23 -32q-18 0 -34.5 -8.5t-29 -23t-20 -33.5t-7.5 -41q0 -44 30 -68t85 -24q39 0 70.5 12.5t54 36t35 56t12.5 72.5z" />
    <glyph glyph-name="four" unicode="4" horiz-adv-x="578" 
d="M424 346h123l-15 -61h-123l-69 -285h-104l72 285h-295l13 51l465 444h44zM325 346l72 262l-3 1l-277 -263h208z" />
    <glyph glyph-name="five" unicode="5" horiz-adv-x="610" 
d="M318 491q51 0 94 -16.5t74.5 -46.5t49 -71t17.5 -89q0 -57 -25 -108t-68 -88.5t-100.5 -59.5t-122.5 -22q-47 0 -85 11.5t-65 32t-41.5 50t-14.5 65.5q0 27 8.5 51.5t23 43t33.5 29.5t41 11q24 0 42.5 -12.5t22.5 -31.5q-32 0 -54 -27t-22 -68q0 -48 31.5 -75.5
t85.5 -27.5q42 0 77 18t60.5 49.5t40 75t14.5 95.5q0 79 -35.5 120t-104.5 41q-36 0 -60.5 -9t-42 -20.5t-29 -20.5t-20.5 -9q-6 0 -10.5 4.5t-4.5 12.5q0 7 2 13l125 368q24 -8 66.5 -13t96.5 -5q55 0 98 5t69 14l6 -1q-42 -119 -174 -119q-15 0 -32.5 1.5t-36 4t-36.5 5.5
t-34 7l-67 -197l4 -6q7 3 19 5.5t26 5t29.5 3.5t28.5 1z" />
    <glyph glyph-name="six" unicode="6" horiz-adv-x="635" 
d="M559 279q0 -58 -22.5 -110.5t-60.5 -92t-87.5 -63t-104.5 -23.5q-49 0 -88.5 19.5t-67 56t-42.5 88t-15 116.5q0 99 33 191t88.5 163t127 113.5t148.5 42.5q33 0 61.5 -8t49.5 -22.5t33 -34t12 -42.5q0 -26 -14.5 -41.5t-39.5 -15.5q-21 0 -35 13.5t-14 41.5q0 32 -11 48
t-42 16q-40 0 -79 -21t-73.5 -59t-62 -90t-43.5 -115l3 -2q65 40 137 40q47 0 85.5 -15t66 -42.5t42.5 -66t15 -85.5zM332 439q-36 0 -65.5 -17t-50.5 -48t-32.5 -75t-11.5 -97q0 -81 27 -124t79 -43q34 0 64 19t51.5 53t34 79.5t12.5 98.5q0 154 -108 154z" />
    <glyph glyph-name="seven" unicode="7" horiz-adv-x="524" 
d="M313 680q-36 0 -59 -2t-38.5 -9.5t-26.5 -21.5t-24 -39l-21 -39h-43l93 237h30q0 -2 -0.5 -3.5t-0.5 -4.5q0 -15 16.5 -21.5t56.5 -6.5h303l-3 -20q-30 -44 -65 -102t-78 -133.5t-95 -169.5t-116 -209q-24 -43 -42 -71.5t-33 -45t-28.5 -23t-28.5 -6.5q-21 0 -34.5 11
t-13.5 30q0 10 5.5 23t22 39t47 70.5t81.5 116.5l281 400h-186z" />
    <glyph glyph-name="eight" unicode="8" horiz-adv-x="639" 
d="M416 429q67 -42 97 -94t30 -113q0 -51 -20.5 -93.5t-57.5 -73t-88 -48t-111 -17.5q-105 0 -164 50.5t-59 141.5q0 162 210 222q-52 35 -79.5 79.5t-27.5 93.5q0 42 20 79t53.5 64.5t78 43.5t94.5 16q43 0 80.5 -12t65.5 -34t43.5 -51.5t15.5 -63.5q0 -33 -14 -64.5
t-38.5 -57t-57.5 -43.5t-71 -25zM290 383q-146 -66 -146 -208q0 -65 32.5 -98.5t95.5 -33.5q37 0 67.5 11t52.5 31t34.5 47t12.5 60q0 49 -24.5 86.5t-72.5 70.5zM378 450q60 32 92 72.5t32 92.5q0 49 -30.5 81t-87.5 32q-28 0 -52.5 -8.5t-42.5 -24t-28.5 -37t-10.5 -47.5
q0 -34 21.5 -70t65.5 -65z" />
    <glyph glyph-name="nine" unicode="9" horiz-adv-x="634" 
d="M113 501q0 56 22.5 106.5t60.5 89t87.5 61t104.5 22.5q49 0 88.5 -19.5t67 -56t42.5 -88.5t15 -116q0 -99 -33 -191t-88.5 -163t-127 -113.5t-148.5 -42.5q-33 0 -61.5 8t-49.5 22.5t-33 34t-12 42.5q0 26 14.5 41.5t39.5 15.5q21 0 35 -13.5t14 -41.5q0 -32 11 -48
t42 -16q40 0 79 22t73.5 61t61.5 93t44 119l-3 2q-65 -40 -137 -40q-47 0 -85.5 15t-66 42.5t-42.5 66t-15 85.5zM340 341q36 0 65.5 16.5t50.5 46t32.5 71.5t11.5 93q0 81 -27 124t-79 43q-35 0 -64.5 -18.5t-51 -51t-34 -76t-12.5 -94.5q0 -154 108 -154z" />
    <glyph glyph-name="colon" unicode=":" horiz-adv-x="304" 
d="M84 -10q-28 0 -48.5 19t-20.5 49t20 51t49 21q31 0 51 -21t20 -50t-21 -49t-50 -20zM166 300q-28 0 -48.5 19t-20.5 49t20 51t49 21q31 0 51 -21t20 -50t-21 -49t-50 -20z" />
    <glyph glyph-name="semicolon" unicode=";" horiz-adv-x="306" 
d="M166 300q-28 0 -48.5 19t-20.5 49t20 51t49 21q31 0 51 -21t20 -50t-21 -49t-50 -20zM87 3q-12 -3 -21 -3q-26 0 -38.5 16t-12.5 42q0 30 20 51t49 21q31 0 51 -21t20 -50q0 -56 -40 -118t-115 -116l-23 32q54 38 82 77.5t28 68.5z" />
    <glyph glyph-name="less" unicode="&#x3c;" horiz-adv-x="618" 
d="M514 126v-54l-458 232v64l458 232v-56l-413 -208z" />
    <glyph glyph-name="equal" unicode="=" horiz-adv-x="637" 
d="M524 252h-454l14 50h454zM574 422h-454l14 50h454z" />
    <glyph glyph-name="greater" unicode="&#x3e;" horiz-adv-x="621" 
d="M535 336l-413 208v56l458 -232v-64l-458 -232v54z" />
    <glyph glyph-name="question" unicode="?" horiz-adv-x="468" 
d="M195 -10q-26 0 -44 18t-18 44q0 27 18.5 45.5t44.5 18.5t44.5 -19t18.5 -45t-18.5 -44t-45.5 -18zM142 290q0 48 20.5 82.5t52 61.5t67.5 49.5t67.5 45.5t52 49t20.5 60q0 42 -30 68.5t-78 26.5q-42 0 -70.5 -20.5t-28.5 -52.5q0 -20 11 -26.5t24 -11t24 -11.5t11 -29
q0 -23 -14.5 -36t-40.5 -13q-41 0 -68.5 29t-27.5 72q0 30 14.5 57t39.5 47t59 31.5t72 11.5t69 -11.5t52.5 -32.5t33.5 -50.5t12 -65.5q0 -51 -21.5 -88.5t-53.5 -67t-70 -52.5t-70 -45t-53.5 -44.5t-21.5 -49.5q0 -40 46 -40t74 51l27 -16q-38 -78 -111 -78
q-44 0 -67 25.5t-23 73.5z" />
    <glyph glyph-name="at" unicode="@" horiz-adv-x="1030" 
d="M707 530h96l-67 -237q-11 -40 -18.5 -75.5t-7.5 -50.5q0 -19 12 -29.5t32 -10.5q33 0 65.5 25.5t58 67t41.5 94t16 106.5q0 68 -26.5 125.5t-73 99.5t-110.5 66t-140 24q-90 0 -168.5 -33.5t-136 -92t-90.5 -138.5t-33 -172q0 -86 29.5 -157t83 -121.5t128.5 -78.5
t166 -28q169 0 314 100l21 -31q-88 -61 -171 -89t-177 -28q-107 0 -196 32t-153 89.5t-100 137.5t-36 175q0 101 39.5 189t109 152.5t163 101.5t201.5 37q90 0 163.5 -26t126.5 -73t82 -113t29 -146q0 -69 -20.5 -131.5t-55.5 -110t-81 -75.5t-97 -28q-98 0 -107 114l-3 1
q-31 -52 -76.5 -83.5t-91.5 -31.5q-32 0 -59.5 13t-47.5 35.5t-31.5 54t-11.5 68.5q0 55 23 107.5t60.5 93.5t85 66t97.5 25q47 0 75 -23.5t42 -74.5l3 -1zM572 498q-33 0 -64.5 -23.5t-56.5 -61.5t-40 -86.5t-15 -99.5q0 -105 67 -105q32 0 65 24.5t59.5 63.5t43.5 87.5
t17 96.5q0 49 -20 76.5t-56 27.5z" />
    <glyph glyph-name="A" unicode="A" 
d="M551 166q-12 -53 -12 -77q0 -29 19 -39t74 -10l-10 -40h-296l10 40q29 0 48 4.5t31.5 18t21.5 38.5t18 66l27 123h-215l-63 -66q-41 -43 -64.5 -69.5t-35.5 -42.5t-15 -24t-3 -14q0 -19 16.5 -26.5t58.5 -7.5l-10 -40h-259l10 40q24 0 47.5 9.5t52 31.5t63 58.5
t80.5 91.5l461 549h84zM491 340l82 310h-4l-259 -310h181z" />
    <glyph glyph-name="B" unicode="B" horiz-adv-x="736" 
d="M231 207q-3 -9 -6.5 -23t-6.5 -28t-5.5 -28t-2.5 -23q0 -20 9 -32t22.5 -18t30 -8t32.5 -2q55 0 98.5 14.5t73.5 40.5t45.5 61.5t15.5 77.5q0 76 -49 111t-151 35h-57zM-18 40q30 0 51 4t36 16.5t26 36t22 62.5l118 441q11 44 11 69q0 34 -21 47.5t-71 13.5l11 40h268
q43 0 88 -7.5t81.5 -27t60 -53t23.5 -85.5q0 -49 -20 -82t-51 -54.5t-68.5 -33t-72.5 -16.5v-4q88 -18 134 -65.5t46 -120.5q0 -51 -24 -92t-66 -69.5t-100 -44t-127 -15.5h-366zM293 436h74q47 0 86.5 12t67.5 34t43.5 52.5t15.5 67.5q0 65 -36.5 94t-123.5 29
q-27 0 -43.5 -18.5t-27.5 -61.5z" />
    <glyph glyph-name="C" unicode="C" horiz-adv-x="728" 
d="M665 189q-35 -53 -68.5 -91t-69.5 -62t-76 -35t-86 -11q-68 0 -122 21.5t-91.5 62t-58 98t-20.5 129.5q0 95 35 181.5t93.5 152.5t135.5 105.5t161 39.5q48 0 91.5 -14.5t88.5 -45.5l37 50h37l-46 -251h-38q-8 109 -46.5 159t-115.5 50q-66 0 -123 -33t-99 -91t-66 -136
t-24 -168q0 -248 193 -248q72 0 130.5 39t111.5 122z" />
    <glyph glyph-name="D" unicode="D" horiz-adv-x="836" 
d="M165 770h271q69 0 134 -16.5t118 -60.5q57 -47 83 -111.5t26 -134.5q0 -45 -10.5 -90.5t-29 -88t-44 -80t-55.5 -67.5q-70 -69 -155 -95t-182 -26h-350l11 40q32 0 53.5 4t36 16.5t25 35.5t20.5 62l115 442q2 7 5.5 18t7.5 24t6.5 25t2.5 21q0 15 -8.5 23t-21 12.5
t-27 5.5t-26.5 1h-19zM237 231q-8 -30 -13 -49.5t-7.5 -32t-3.5 -19.5t-1 -12q0 -27 11.5 -41.5t27.5 -22t33 -9t28 -1.5q65 0 118 18t94 49.5t70.5 72.5t49 87t28.5 93.5t9 92.5q0 126 -67.5 194.5t-185.5 68.5q-29 0 -46.5 -8.5t-26.5 -42.5z" />
    <glyph glyph-name="E" unicode="E" horiz-adv-x="740" 
d="M-15 40q33 0 54.5 5t36 18.5t24.5 36t19 58.5l116 441q7 26 10.5 45t3.5 33q0 33 -23 43t-77 10l11 40h546v-202h-38q-13 48 -29 78.5t-36.5 48t-46 24.5t-56.5 7h-130l-78 -297h63q27 0 46 5t34.5 17.5t29 34.5t29.5 57h37l-60 -296h-40q3 30 3 52q0 45 -17 65.5
t-63 20.5h-75l-57 -215q-9 -33 -9 -56q0 -36 32 -53.5t110 -17.5q57 0 99.5 9t74 28.5t55 51.5t44.5 79h47l-78 -211h-623z" />
    <glyph glyph-name="F" unicode="F" horiz-adv-x="659" 
d="M-15 40q33 0 54.5 5t36 18.5t24.5 36t19 58.5l116 441q7 26 10.5 45t3.5 33q0 33 -23 43t-77 10l11 40h546v-202h-38q-13 48 -29 78.5t-36.5 48t-46 24.5t-56.5 7h-130l-78 -297h68q27 0 46 5t34.5 17.5t29 34.5t29.5 57h37l-70 -316h-40q3 36 3 62q0 50 -15 73t-55 23
h-80l-57 -215q-9 -33 -9 -56q0 -36 27 -53.5t95 -17.5l-11 -43h-350z" />
    <glyph glyph-name="G" unicode="G" horiz-adv-x="809" 
d="M387 44q42 0 77.5 11.5t62 34t41 55.5t14.5 77q0 40 -17.5 59t-67.5 19l9 39h274l-10 -39q-21 0 -35.5 -3t-25.5 -16.5t-21 -40.5t-22 -74q-8 -29 -15 -58.5t-8 -58.5q-23 -4 -48.5 -13.5t-58 -19.5t-74.5 -18t-97 -8q-68 0 -122 21.5t-91.5 62t-58 98t-20.5 129.5
q0 95 36.5 181.5t98 152.5t142 105.5t168.5 39.5q54 0 102.5 -14.5t97.5 -45.5l37 50h37l-36 -220h-38q-10 92 -55.5 135t-136.5 43q-70 0 -130.5 -33t-105.5 -91t-70.5 -136t-25.5 -168q0 -256 193 -256z" />
    <glyph glyph-name="H" unicode="H" horiz-adv-x="911" 
d="M715 168q-12 -44 -12 -70q0 -34 21.5 -46t69.5 -12l-12 -40h-319l11 40q30 0 51 4.5t36.5 17.5t26.5 36t21 60l55 209h-388l-52 -199q-12 -44 -12 -70q0 -34 21.5 -46t70.5 -12l-13 -40h-319l11 40q30 0 51 4.5t36.5 17.5t26.5 36t21 60l117 442q15 55 15 82
q0 31 -22.5 39.5t-76.5 8.5l11 40h325l-11 -40q-33 0 -55 -6.5t-38 -24.5t-28.5 -50t-25.5 -83l-39 -148h388l48 182q15 55 15 82q0 31 -22.5 39.5t-76.5 8.5l11 40h325l-11 -40q-33 0 -55 -6.5t-38 -24.5t-28.5 -50t-25.5 -83z" />
    <glyph glyph-name="I" unicode="I" horiz-adv-x="420" 
d="M224 168q-12 -44 -12 -70q0 -34 21.5 -46t69.5 -12l-12 -40h-319l11 40q30 0 51 4.5t36.5 17.5t26.5 36t21 60l117 442q15 55 15 82q0 31 -22.5 39.5t-76.5 8.5l11 40h325l-11 -40q-33 0 -55 -6.5t-38 -24.5t-28.5 -50t-25.5 -83z" />
    <glyph glyph-name="J" unicode="J" horiz-adv-x="543" 
d="M134 43q49 0 87 47t61 132l99 378q15 55 15 82q0 14 -5 23.5t-17 15t-33 7.5t-54 2l11 40h325l-11 -40q-30 0 -50.5 -6t-35 -24t-26.5 -50t-25 -84l-100 -380q-25 -95 -87.5 -145.5t-152.5 -50.5q-76 0 -117 34t-41 97q0 48 25 79t63 31q27 0 44.5 -16t17.5 -42
q0 -19 -8 -29.5t-18 -19t-18 -16.5t-8 -21q0 -20 16.5 -32t42.5 -12z" />
    <glyph glyph-name="K" unicode="K" horiz-adv-x="825" 
d="M291 427l207 148q63 45 92 76.5t29 50.5q0 28 -67 28l10 40h284l-10 -40q-16 0 -33 -7t-46.5 -26t-77.5 -54t-127 -90l-154 -108l196 -258q40 -53 64.5 -83t42 -44t32.5 -17t35 -3l-11 -40h-314l11 40q35 0 54.5 5.5t19.5 22.5q0 14 -14 39.5t-43 65.5l-158 212l-40 -28
l-50 -189q-12 -44 -12 -70q0 -34 23.5 -46t78.5 -12l-13 -40h-319l11 40q28 0 47 4.5t33.5 17.5t24.5 36t20 60l117 442q15 55 15 82q0 31 -22.5 39.5t-76.5 8.5l11 40h325l-11 -40q-33 0 -55 -6.5t-38 -24.5t-28.5 -50t-25.5 -83z" />
    <glyph glyph-name="L" unicode="L" horiz-adv-x="702" 
d="M-14 40q33 0 54.5 5t36 18.5t24.5 36t19 58.5l113 442q7 28 11 48t4 34q0 27 -17.5 37.5t-59.5 10.5h-22l11 40h325l-11 -40q-33 0 -55 -6.5t-38 -24.5t-28.5 -50t-25.5 -83l-104 -396q-9 -33 -9 -56q0 -36 24.5 -53.5t87.5 -17.5q60 0 103.5 10t76.5 32.5t57.5 58
t45.5 87.5h47l-88 -231h-593z" />
    <glyph glyph-name="M" unicode="M" horiz-adv-x="1020" 
d="M845 655l-410 -655h-43l-78 655h-4l-128 -487q-3 -12 -5 -23t-2 -21q0 -42 23.5 -62.5t62.5 -21.5l-12 -40h-276l11 40q47 0 84 33.5t51 84.5l117 442q15 55 15 82q0 31 -22.5 39.5t-76.5 8.5l11 40h240l71 -596h4l377 596h211l-11 -40q-29 0 -47 -6.5t-31.5 -24.5
t-24.5 -50t-24 -83l-105 -398q-12 -44 -12 -70q0 -34 23.5 -46t77.5 -12l-12 -40h-319l11 40q27 0 46 4.5t33.5 17.5t25 36t20.5 60l132 497h-4z" />
    <glyph glyph-name="N" unicode="N" horiz-adv-x="842" 
d="M580 0l-262 602h-4l-114 -434q-6 -24 -6 -43q0 -42 25 -63t70 -22l-12 -40h-286l11 40q47 0 84 33.5t51 84.5l118 444q4 15 4 31q0 48 -40.5 72t-106.5 25l12 40h235l250 -573h4l106 405q5 22 5 37q0 43 -24.5 66.5t-59.5 24.5l12 40h256l-11 -40q-19 0 -37 -9t-33 -24.5
t-26.5 -37.5t-18.5 -47l-162 -612h-40z" />
    <glyph glyph-name="O" unicode="O" horiz-adv-x="820" 
d="M505 780q64 0 115.5 -22t88 -62.5t56 -98t19.5 -128.5q0 -96 -34.5 -183t-93.5 -153t-136.5 -104.5t-163.5 -38.5q-64 0 -116 22.5t-89 63.5t-57 98.5t-20 128.5q0 96 35 182.5t94 152t137.5 104t164.5 38.5zM505 728q-65 0 -121.5 -33t-98.5 -91t-66 -136t-24 -168
q0 -128 44.5 -192t130.5 -64q63 0 116.5 34t93 94t61.5 143t22 181q0 120 -38.5 176t-119.5 56z" />
    <glyph glyph-name="P" unicode="P" horiz-adv-x="667" 
d="M233 207q-10 -35 -15.5 -62t-5.5 -40q0 -60 114 -60l-11 -45h-332l11 40q48 0 78 28.5t47 90.5l118 441q13 48 13 75q0 15 -5 25t-17 16.5t-32 9.5t-50 4l11 40h278q129 0 201 -45.5t72 -126.5q0 -52 -27 -96t-75 -76t-114.5 -50t-144.5 -18h-72zM288 409h49
q57 0 104.5 14.5t82 40.5t54 61.5t19.5 78.5q0 121 -160 121q-20 0 -33.5 -3.5t-23 -12.5t-16.5 -24.5t-13 -39.5z" />
    <glyph glyph-name="Q" unicode="Q" horiz-adv-x="834" 
d="M513 780q65 0 118 -22t90 -63t57 -98.5t20 -129.5q0 -68 -17.5 -131.5t-49.5 -119t-76 -100t-96 -72.5l-217 -118l2 -3q42 0 74.5 -14t62.5 -31.5t61.5 -31.5t71.5 -14q51 0 90 26t54 78l33 -15q-9 -41 -29.5 -74.5t-50.5 -57t-67 -36.5t-79 -13q-57 0 -100 20.5
t-78.5 45t-66.5 45t-62 20.5q-27 0 -43 -15t-29.5 -33.5t-29.5 -33.5t-43 -15q-24 0 -37.5 13.5t-13.5 36.5q0 25 20 43.5t73 41.5l192 81q-62 3 -112.5 26t-86 64t-55 98t-19.5 126q0 95 35.5 181.5t96 152t140 104t167.5 38.5zM513 728q-67 0 -125 -33t-101 -90.5
t-67.5 -135.5t-24.5 -168q0 -122 46 -185.5t134 -63.5q65 0 120 33.5t95.5 92.5t63.5 140t23 176q0 121 -39.5 177.5t-124.5 56.5z" />
    <glyph glyph-name="R" unicode="R" 
d="M233 207q-10 -35 -15.5 -62t-5.5 -40q0 -60 114 -60l-11 -45h-332l11 40q48 0 78 28.5t47 90.5l118 441q13 48 13 75q0 15 -5 25t-17 16.5t-32 9.5t-50 4l11 40h278q120 0 189 -45.5t69 -126.5q0 -41 -15.5 -75t-44.5 -61t-69.5 -46t-89.5 -29l74 -183q21 -51 37.5 -83
t34.5 -50t40.5 -24.5t55.5 -6.5l-11 -40h-190l-147 375h-88zM293 426h49q52 0 96.5 12t76 34.5t49.5 55.5t18 76q0 60 -37 90.5t-108 30.5q-20 0 -33.5 -3.5t-23 -12.5t-16.5 -24.5t-13 -39.5z" />
    <glyph glyph-name="S" unicode="S" horiz-adv-x="598" 
d="M558 755h30l-42 -197h-34q-3 91 -33 131t-94 40q-31 0 -57 -8.5t-44.5 -24.5t-29 -37.5t-10.5 -46.5q0 -36 20 -64t50.5 -52.5t66 -49.5t66 -55t50.5 -68t20 -89t-20 -95.5t-54.5 -77.5t-80.5 -52t-99 -19q-109 0 -191 86l-21 -76h-35l42 254h33q7 -103 51 -157t122 -54
q36 0 66 10.5t51.5 29t34 44t12.5 55.5q0 42 -21 74t-52 60t-68 54t-68 55.5t-52 65t-21 81.5q0 43 18.5 81t50.5 66t75 44.5t92 16.5q47 0 84 -16t72 -51z" />
    <glyph glyph-name="T" unicode="T" horiz-adv-x="780" 
d="M407 168q-6 -23 -11 -39.5t-5 -30.5q0 -32 26 -45t89 -13l-12 -40h-348l11 40q30 0 52 4t39.5 16t30 35.5t23.5 62.5l122 456q9 36 9 60q0 29 -13 41.5t-42 12.5q-88 0 -152.5 -45t-107.5 -126h-40l95 213h668l-20 -213h-38q0 96 -35.5 133.5t-105.5 37.5q-25 0 -42.5 -5
t-31 -18t-24 -36t-19.5 -59z" />
    <glyph glyph-name="U" unicode="U" horiz-adv-x="808" 
d="M200 599q5 20 9 41.5t4 35.5q0 30 -21 42t-73 12l13 40h319l-11 -40q-36 0 -58 -5.5t-37.5 -22.5t-27 -50t-25.5 -87l-65 -251q-7 -26 -10 -49.5t-3 -44.5q0 -80 41 -127t120 -47q49 0 87.5 18.5t68.5 51t52 77t39 97.5q15 48 29.5 107t26 114t18 98.5t6.5 60.5
q0 30 -27.5 44t-74.5 16l12 40h263l-12 -40q-24 0 -41 -4.5t-29 -19.5t-21 -42t-19 -72l-43 -200q-43 -199 -128 -300.5t-215 -101.5q-128 0 -190.5 59.5t-62.5 169.5q0 32 5 64.5t15 69.5z" />
    <glyph glyph-name="V" unicode="V" horiz-adv-x="752" 
d="M586 546q57 68 84.5 103.5t27.5 55.5q0 15 -17 20t-52 5l10 40h259l-10 -40q-24 0 -47.5 -9t-52 -31t-63.5 -59t-80 -92l-451 -549h-84l139 614q12 52 12 77q0 29 -19 39t-74 10l10 40h296l-10 -40q-29 0 -48 -4.5t-32 -18t-21.5 -38.5t-17.5 -66l-101 -461h4z" />
    <glyph glyph-name="W" unicode="W" horiz-adv-x="1064" 
d="M896 546q54 69 80 106.5t26 54.5q0 14 -15.5 18.5t-47.5 4.5l10 40h259l-10 -40q-24 0 -48.5 -8.5t-53 -30t-63.5 -58.5t-78 -94l-421 -549h-84l108 477l-366 -477h-84l139 614q12 52 12 77q0 29 -19 39t-74 10l10 40h276l-10 -40q-21 0 -35.5 -4.5t-26 -18.5t-20 -39
t-17.5 -65l-101 -451h4l339 435l4 17q12 52 12 77q0 29 -17 39t-66 10l10 40h286l-10 -40q-29 0 -48 -4.5t-32 -18t-21.5 -38.5t-17.5 -66l-101 -451h4z" />
    <glyph glyph-name="X" unicode="X" horiz-adv-x="781" 
d="M571 167q17 -38 32.5 -62.5t33 -38.5t38 -20t47.5 -6l-9 -40h-330l9 40q84 0 84 50q0 13 -5 31.5t-13 37.5l-81 179l-83 -92q-60 -66 -86.5 -107t-26.5 -63q0 -19 18.5 -27.5t59.5 -8.5l-9 -40h-289l10 40q28 3 45.5 6t32.5 12t31.5 25.5t41.5 45.5l231 266l-108 227
q-16 33 -30 54t-29.5 33t-34 16.5t-43.5 4.5l11 40h311l-11 -40q-67 0 -67 -50q0 -32 31 -101l49 -108l86 96q46 51 67 83t21 50q0 30 -58 30l12 40h258l-11 -40q-22 0 -41 -6t-39.5 -19.5t-44 -35.5t-53.5 -55l-175 -192z" />
    <glyph glyph-name="Y" unicode="Y" horiz-adv-x="689" 
d="M393 168q-12 -44 -12 -70q0 -34 23.5 -46t77.5 -12l-12 -40h-339l11 40q32 0 55 4.5t40 17.5t28.5 36t21.5 60l46 178l-120 288q-15 36 -27 57t-25 32t-29.5 14t-41.5 3l11 40h281l-11 -40q-38 0 -54.5 -7.5t-16.5 -27.5q0 -7 1.5 -16t6.5 -20l107 -258l139 203
q22 31 31.5 48t9.5 35q0 21 -19.5 32t-54.5 11l11 40h247l-11 -40q-20 0 -34 -3t-26 -12t-24 -25t-30 -41l-214 -301z" />
    <glyph glyph-name="Z" unicode="Z" horiz-adv-x="672" 
d="M158 50h125q95 0 166.5 38.5t115.5 132.5h43l-84 -221h-531v21l543 701h-101q-60 0 -100.5 -5.5t-71.5 -22t-56 -46t-54 -76.5h-43l101 198h485v-19z" />
    <glyph glyph-name="bracketleft" unicode="[" horiz-adv-x="369" 
d="M319 773l-237 -876h151l-13 -47h-240l262 970h241l-13 -47h-151z" />
    <glyph glyph-name="backslash" unicode="\" horiz-adv-x="463" 
d="M150 770h55l146 -770h-64z" />
    <glyph glyph-name="bracketright" unicode="]" horiz-adv-x="369" 
d="M61 -103l237 876h-151l13 47h241l-263 -970h-240l13 47h150z" />
    <glyph glyph-name="asciicircum" unicode="^" horiz-adv-x="481" 
d="M315 409l72 -179h-45l-88 118l-150 -118h-44l165 179h90z" />
    <glyph glyph-name="underscore" unicode="_" horiz-adv-x="731" 
d="M-45 -143l23 68h570l-23 -68h-570z" />
    <glyph glyph-name="grave" unicode="`" horiz-adv-x="275" 
d="M187 651l-119 65q-18 10 -28.5 20.5t-10.5 23.5q0 20 15.5 31.5t33.5 11.5q31 0 58 -33l98 -119h-47z" />
    <glyph glyph-name="a" unicode="a" horiz-adv-x="570" 
d="M332 488q-38 0 -78.5 -35t-73.5 -87.5t-54 -113t-21 -112.5q0 -36 15 -57.5t41 -21.5q23 0 48 18.5t48.5 49t44.5 69.5t37 80.5t25 81.5t9 72q0 26 -11 41t-30 15zM435 530h83l-57 -153q-14 -38 -27.5 -81t-24 -83t-16.5 -73t-6 -49q0 -29 19 -29q14 0 40.5 29t59.5 75
l26 -21q-42 -74 -90.5 -114.5t-93.5 -40.5q-23 0 -35.5 17.5t-12.5 57.5q0 9 0.5 21t2.5 32l-4 1q-15 -28 -35.5 -51.5t-44.5 -41t-50 -27t-51 -9.5q-51 0 -79.5 38.5t-28.5 106.5q0 69 29 141t75 130.5t102 96t110 37.5q33 0 54 -15.5t34 -50.5z" />
    <glyph glyph-name="b" unicode="b" horiz-adv-x="534" 
d="M204 444l3 -2q29 46 72.5 71.5t92.5 25.5q61 0 94 -38t33 -104q0 -47 -14 -96t-38.5 -94t-57.5 -84.5t-70.5 -69t-79 -46.5t-81.5 -17q-57 0 -93.5 34.5t-36.5 89.5q0 26 11 73.5t32 113.5l121 390q5 18 10 36.5t5 27.5q0 35 -77 35l9 30l192 9zM174 41q23 0 49 16.5
t51 44.5t48 65t40 77.5t27.5 82t10.5 78.5q0 35 -16 58t-39 23q-22 0 -47.5 -16.5t-50 -45t-47 -65t-40 -77t-27.5 -81.5t-10 -78q0 -82 51 -82z" />
    <glyph glyph-name="c" unicode="c" horiz-adv-x="441" 
d="M373 161q-42 -83 -97.5 -127t-118.5 -44q-65 0 -104 44.5t-39 118.5q0 44 13 90t35 89t52 81t64 66t70.5 44.5t71.5 16.5q48 0 79 -26t31 -65q0 -25 -14.5 -40.5t-37.5 -15.5t-37.5 14.5t-14.5 35.5q0 13 4 21t4 15q0 14 -24 14q-33 0 -67 -31t-61.5 -80t-45 -109.5
t-17.5 -120.5q0 -48 18.5 -75.5t51.5 -27.5q18 0 37.5 10t39.5 27.5t38.5 41.5t33.5 53z" />
    <glyph glyph-name="d" unicode="d" horiz-adv-x="598" 
d="M468 692q8 27 12 45t4 26q0 15 -20 21t-72 6l11 40h193l-111 -405q-21 -78 -35 -133t-22.5 -92.5t-11.5 -61.5t-3 -40q0 -23 7 -32t18 -9q22 0 47.5 37t45.5 97l38 -9q-34 -99 -74.5 -145.5t-91.5 -46.5q-36 0 -55.5 23t-19.5 66q0 11 2 23t5 23l-8 2q-38 -66 -92 -101.5
t-103 -35.5q-26 0 -48 11.5t-38 32t-25.5 49t-9.5 63.5q0 43 13.5 89.5t37 90t54.5 82.5t65.5 68.5t71 46.5t71.5 17q34 0 51.5 -13t34.5 -41zM331 487q-26 0 -52.5 -16.5t-51.5 -44t-46.5 -63.5t-37.5 -75t-25.5 -79t-9.5 -75q0 -36 18 -57.5t48 -21.5q23 0 47 18.5
t47 48.5t43.5 68.5t36 79t24.5 80t9 71.5q0 31 -12 48.5t-38 17.5z" />
    <glyph glyph-name="e" unicode="e" horiz-adv-x="456" 
d="M371 133q-87 -143 -214 -143q-69 0 -106 42.5t-37 120.5q0 69 28.5 138t74.5 124.5t103 90t114 34.5q48 0 78.5 -24.5t30.5 -62.5q0 -35 -26 -72t-70.5 -70t-104 -60t-126.5 -42q-2 -14 -3 -27.5t-1 -27.5q0 -109 77 -109q37 0 76.5 29t73.5 80zM314 493q-26 0 -54 -20
t-53.5 -53.5t-46.5 -76.5t-34 -89q48 13 89 34t70.5 47.5t46.5 56t17 59.5q0 42 -35 42z" />
    <glyph glyph-name="f" unicode="f" horiz-adv-x="334" 
d="M152 73q-26 -102 -52 -166.5t-56 -101.5t-64.5 -51t-77.5 -14q-42 0 -69 22t-27 54q0 25 13 39.5t36 14.5q21 0 29 -11t13.5 -24t12.5 -24t27 -11q23 0 42 24t29 63l145 563h-96l13 46h95q22 90 48 153t56 103.5t64 59t73 18.5q59 0 97 -24.5t38 -61.5q0 -23 -12.5 -39
t-35.5 -16q-19 0 -29.5 7t-16 18t-8 23t-6.5 23t-12 18t-24 7q-20 0 -39.5 -21.5t-37.5 -60t-34 -91.5t-29 -116h101l-14 -46h-98z" />
    <glyph glyph-name="g" unicode="g" horiz-adv-x="550" 
d="M435 -73q0 -43 -18.5 -77.5t-53 -59t-83.5 -37.5t-110 -13q-55 0 -100 10t-77.5 29t-50 44.5t-17.5 57.5q0 41 26.5 68t67.5 27q12 0 23 -3t28 -11q-56 -23 -56 -87q0 -42 42.5 -66t116.5 -24q40 0 74 9t58.5 23t38 31.5t13.5 34.5q0 28 -33.5 50.5t-94.5 33.5
q-109 19 -160 44t-51 70q0 29 25.5 49t91.5 40l2 4q-76 54 -76 139q0 46 19 87.5t51.5 73t76 49.5t91.5 18q74 0 124 -54q47 53 91 53q32 0 56 -19.5t24 -45.5q0 -20 -13.5 -33.5t-33.5 -13.5q-15 0 -23.5 6.5t-14.5 14.5t-13.5 14.5t-20.5 6.5q-7 0 -13 -2.5t-22 -13.5
q5 -14 7 -26.5t2 -31.5q0 -110 -61 -175.5t-168 -73.5q-48 -4 -68.5 -12t-20.5 -24q0 -21 22.5 -31.5t56.5 -17.5t73 -14t73 -20.5t56.5 -37t22.5 -63.5zM225 191q24 0 47 19t41.5 50.5t29.5 71.5t11 82q0 40 -18 63.5t-47 23.5q-23 0 -47 -20.5t-43.5 -52.5t-31.5 -72.5
t-12 -79.5q0 -38 19 -61.5t51 -23.5z" />
    <glyph glyph-name="h" unicode="h" horiz-adv-x="574" 
d="M356 311q17 51 24.5 81t7.5 53t-7.5 32.5t-25.5 9.5q-31 0 -61 -24t-60.5 -75t-63.5 -130t-70 -189l-23 -69h-84l198 678q7 25 11 44t4 30q0 20 -19 28t-70 10l7 40h204l-114 -386l3 -2q32 47 74 72.5t88 25.5q48 0 73 -28t25 -81q0 -33 -10 -77t-31 -101
q-20 -54 -31 -85t-16 -47.5t-6.5 -22.5t-1.5 -10q0 -23 19 -23q20 0 49.5 23.5t59.5 65.5l28 -21q-16 -29 -39.5 -55t-51 -45.5t-56 -31t-53.5 -11.5q-27 0 -39 15t-12 48q0 17 3 36t10.5 47.5t21 70t35.5 104.5z" />
    <glyph glyph-name="i" unicode="i" horiz-adv-x="344" 
d="M131 330q14 39 20 63t6 38t-4.5 18.5t-9.5 4.5q-11 0 -24 -10.5t-26 -24.5t-23 -28t-14 -22l-29 18q12 22 33.5 49t48.5 50t56 38.5t55 15.5q25 0 37.5 -14.5t12.5 -52.5q0 -29 -17.5 -78t-45.5 -126l-37 -101q-2 -5 -5.5 -15.5t-7 -22t-6 -22.5t-2.5 -18q0 -9 5 -16
t16 -7q15 0 31 12.5t31 29.5t27 34.5t18 27.5l30 -17q-12 -24 -32.5 -53t-46.5 -53.5t-57 -41t-64 -16.5q-29 0 -43.5 15t-14.5 50q0 29 9.5 62.5t27.5 84.5zM278 704q-25 0 -43.5 17t-18.5 44t18 46t44 19q28 0 46 -19t18 -45t-19 -44t-45 -18z" />
    <glyph glyph-name="j" unicode="j" horiz-adv-x="299" 
d="M237 704q-25 0 -43.5 17t-18.5 44t18 46t44 19q28 0 46 -19t18 -45t-19 -44t-45 -18zM122 331q10 39 15.5 64t5.5 39q0 20 -15 20q-11 0 -24 -10.5t-25.5 -24.5t-22.5 -28t-14 -22l-29 18q12 22 33.5 49t48.5 50t56 38.5t55 15.5q50 0 50 -56q0 -33 -13.5 -87t-34.5 -130
l-83 -301q-12 -43 -34.5 -83.5t-52 -72t-63.5 -51t-70 -19.5q-42 0 -69 22t-27 54q0 27 13 43t36 16q21 0 31 -11.5t16.5 -26t13.5 -26t21 -11.5q24 0 42.5 24t28.5 63z" />
    <glyph glyph-name="k" unicode="k" horiz-adv-x="513" 
d="M357 80q29 0 82 75l26 -14q-72 -151 -149 -151q-24 0 -39.5 17t-34.5 61l-67 160l-22 -10l-63 -218h-91l193 717q7 27 7 37q0 21 -19 28.5t-75 7.5l10 30l199 10l-104 -385l4 -1q58 97 147 97q47 0 74 -22.5t27 -60.5q0 -47 -46.5 -94t-129.5 -85l-26 -12l51 -132
q20 -55 46 -55zM162 268q43 15 80 35t63.5 42t41.5 44.5t15 42.5q0 41 -41 41q-21 0 -44 -16.5t-45 -44.5t-40.5 -65.5t-29.5 -78.5z" />
    <glyph glyph-name="l" unicode="l" horiz-adv-x="313" 
d="M183 691q5 18 10 36.5t5 27.5q0 35 -76 35l8 30l183 9l-179 -657q-8 -27 -12 -47.5t-4 -34.5q0 -9 5 -16t16 -7q16 0 34 13.5t34.5 32t29.5 38t19 30.5l30 -17q-15 -34 -39 -65.5t-51 -55.5t-54.5 -38.5t-50.5 -14.5q-35 0 -51.5 15t-16.5 50q0 20 6 54t21 93z" />
    <glyph glyph-name="m" unicode="m" horiz-adv-x="870" 
d="M663 333q13 37 20.5 59t11.5 34.5t5 19.5t1 13q0 29 -20 29q-27 0 -64 -36.5t-80 -105.5q-15 -24 -28 -48.5t-28 -61t-35 -92.5t-51 -144h-94l66 201q21 64 35 107.5t22 72.5t11.5 46t3.5 28q0 33 -25 33q-20 0 -48 -23t-57 -60t-55.5 -83.5t-44.5 -94.5l-84 -227h-88
l74 229q19 58 31 97.5t19 65t10 40.5t3 25q0 28 -17 28q-11 0 -25.5 -13t-29.5 -35.5t-29.5 -51.5t-25.5 -61l-30 15q35 103 78.5 152t99.5 49q32 0 45.5 -18t13.5 -60q0 -48 -17 -92l3 -3q93 173 197 173q39 0 61 -23.5t22 -65.5q0 -14 -3.5 -32t-13.5 -53l2 -3
q28 48 53.5 81.5t49.5 54.5t48.5 31t50.5 10q39 0 58.5 -21t19.5 -66q0 -14 -3 -30.5t-9 -39t-15.5 -52t-22.5 -69.5q-17 -51 -27 -81.5t-15 -48.5t-6.5 -27t-1.5 -18q0 -19 10 -19q15 0 45 28.5t78 88.5l26 -14q-17 -33 -43.5 -65.5t-55.5 -58t-57.5 -41.5t-49.5 -16
q-25 0 -39.5 21.5t-14.5 57.5q0 12 2.5 27t11 43t24 74t41.5 120z" />
    <glyph glyph-name="n" unicode="n" horiz-adv-x="627" 
d="M425 488q-24 0 -54.5 -24.5t-62 -65t-60.5 -92.5t-49 -106l-74 -200h-88l74 229q18 55 30 94t19.5 65.5t10.5 43t3 26.5q0 27 -17 27q-11 0 -26 -14t-30.5 -36.5t-29.5 -51.5t-24 -59l-30 15q35 103 78.5 152t99.5 49q32 0 45.5 -18t13.5 -61q0 -51 -17 -91l3 -3
q51 90 103.5 131.5t114.5 41.5q44 0 67 -21t23 -60q0 -13 -2.5 -29t-8.5 -38.5t-16.5 -53.5t-25.5 -76q-23 -68 -38 -114t-15 -65q0 -15 10 -15q14 0 41 23t73 74l26 -14q-16 -30 -41.5 -58.5t-53 -51.5t-54.5 -37t-47 -14q-25 0 -39.5 22t-14.5 58q0 14 2.5 28.5t10.5 41.5
t23.5 72.5t42.5 120.5q9 26 15 44t9.5 31.5t5 23.5t1.5 19q0 37 -27 37z" />
    <glyph glyph-name="o" unicode="o" horiz-adv-x="523" 
d="M187 -10q-34 0 -63.5 13.5t-51.5 39.5t-35 63.5t-13 84.5q0 65 24.5 128t64.5 112t91.5 79t106.5 30q36 0 66.5 -13.5t52 -39t34 -61t12.5 -78.5q0 -63 -25 -127t-65.5 -115t-92.5 -83.5t-106 -32.5zM193 40q34 0 67.5 35t60 88.5t43 116.5t16.5 120q0 53 -18.5 73
t-50.5 20q-22 0 -44.5 -15.5t-42.5 -42.5t-37.5 -62t-30.5 -74t-20 -79.5t-7 -77.5q0 -56 18 -79t46 -23z" />
    <glyph glyph-name="p" unicode="p" horiz-adv-x="563" 
d="M15 375q37 42 83 75.5t97 54.5l47 160h76l-35 -133q16 3 31.5 5t31.5 2q85 0 132 -46t47 -129q0 -66 -31.5 -124.5t-84 -104.5t-121 -76.5t-142.5 -40.5l-37 -139q-5 -15 -6.5 -25t-1.5 -18q0 -25 20.5 -35t72.5 -11l-6 -40h-283l6 40q42 0 61 10t27 36l181 618
q-38 -20 -73 -47.5t-65 -59.5zM320 490q-13 0 -25.5 -1.5t-24.5 -3.5l-113 -424q50 10 97.5 37t84.5 67t59.5 89.5t22.5 103.5q0 60 -27.5 96t-73.5 36z" />
    <glyph glyph-name="q" unicode="q" horiz-adv-x="535" 
d="M303 85l-3 2q-27 -48 -66.5 -72.5t-87.5 -24.5q-63 0 -97 42.5t-34 120.5q0 68 26 137t68 124.5t94 90.5t105 35q35 0 59.5 -16.5t46.5 -54.5l24 71h76l-184 -679q-7 -25 -7 -35q0 -18 16 -26.5t61 -9.5l-6 -40h-258l6 40q42 0 61 10t27 36zM313 488q-32 0 -66.5 -33
t-63 -83t-46.5 -110.5t-18 -115.5q0 -96 58 -96q33 0 67.5 30.5t62.5 78.5t46 106.5t18 113.5q0 109 -58 109z" />
    <glyph glyph-name="r" unicode="r" horiz-adv-x="463" 
d="M21 391q11 25 33.5 51.5t49 48t53.5 35.5t47 14q24 0 35 -18t11 -58q0 -16 -1.5 -31t-5.5 -35l3 -3q12 29 34 57t47.5 49.5t52 35t49.5 13.5q29 0 48.5 -18.5t19.5 -45.5q0 -26 -16.5 -43t-42.5 -17q-16 0 -25.5 6t-16.5 12.5t-13 12.5t-15 6q-19 0 -44 -25.5t-52 -69.5
t-53.5 -103t-48.5 -127l-45 -138h-93l65 207q19 60 31.5 99.5t19.5 66t9.5 41.5t2.5 26q0 22 -15 22q-10 0 -24.5 -8t-28.5 -20t-26.5 -27t-18.5 -29z" />
    <glyph glyph-name="s" unicode="s" horiz-adv-x="381" 
d="M77 387q0 33 12.5 61t34.5 48.5t52.5 32t66.5 11.5q48 0 80 -24t32 -62q0 -21 -11.5 -33t-31.5 -12q-23 0 -33 13.5t-17 30t-15 30.5t-27 14q-22 0 -37 -19t-15 -47q0 -33 19.5 -61.5t43.5 -59.5t43.5 -68t19.5 -87q0 -34 -14.5 -64t-39 -52.5t-56.5 -35.5t-66 -13
q-60 0 -95.5 26t-35.5 68q0 29 13.5 45.5t36.5 16.5q43 0 49 -59q3 -32 10.5 -42.5t30.5 -10.5q36 0 57 21.5t21 59.5q0 40 -20 71t-44 60.5t-44 62.5t-20 78z" />
    <glyph glyph-name="t" unicode="t" horiz-adv-x="365" 
d="M235 447l-83 -275q-17 -54 -18 -82q0 -9 4.5 -16t15.5 -7q18 0 38 13.5t38.5 32t33 38t21.5 30.5l29 -17q-17 -34 -43 -65.5t-55 -55.5t-58.5 -38.5t-53.5 -14.5q-35 0 -50.5 15t-15.5 50q0 20 7 54t24 93l74 245h-86l13 46h87l52 172h92l-52 -172h109l-14 -46h-109z" />
    <glyph glyph-name="u" unicode="u" horiz-adv-x="593" 
d="M169 62q16 0 42 22.5t55 60t56.5 85.5t46.5 100l74 200h93l-74 -229q-16 -50 -27 -85.5t-18 -60t-10 -40t-3 -24.5q0 -26 18 -26q10 0 24 9.5t28.5 26t28 37t23.5 43.5l30 -15q-13 -33 -34 -64.5t-45.5 -56.5t-51.5 -40t-53 -15q-31 0 -42 22t-11 63q0 17 1.5 36.5
t5.5 38.5l-3 3q-27 -48 -52.5 -79t-49.5 -50t-47 -26.5t-45 -7.5q-47 0 -65.5 26t-18.5 64q0 42 16 92.5t34 95.5t30.5 76t20 52t11 34t3.5 21q0 4 -1.5 7.5t-7.5 3.5q-13 0 -37.5 -23t-66.5 -74l-26 14q15 29 38 58t49 52t54 37t52 14q50 0 50 -58q0 -35 -19.5 -90.5
t-50.5 -132.5q-20 -49 -33 -88t-13 -71q0 -21 6 -29.5t15 -8.5z" />
    <glyph glyph-name="v" unicode="v" horiz-adv-x="578" 
d="M461 357q0 20 -3.5 36.5t-8 31.5t-8 29t-3.5 29q0 57 52 57q31 0 44.5 -22t13.5 -73q0 -53 -13 -107.5t-36 -105t-54 -94.5t-66 -77t-72.5 -52t-74.5 -19q-27 0 -50.5 10.5t-40.5 29.5t-26.5 45t-9.5 56q0 57 31 134t88 159l-2 3q-27 0 -45 8t-30.5 18t-22 18t-19.5 8
q-17 0 -17 -17q0 -9 5.5 -16t12 -14t12 -15.5t5.5 -20.5q0 -18 -14 -29.5t-36 -11.5q-26 0 -40 16t-14 45q0 25 10 47.5t27 39.5t39.5 27t47.5 10q20 0 34 -6.5t26 -15t23.5 -15t27.5 -6.5q19 0 34 15q21 19 28.5 23.5t19.5 4.5q20 0 20 -17q0 -4 -1 -7t-4.5 -9t-12 -16
t-23.5 -28q-23 -28 -42 -63t-33 -73t-22 -76.5t-8 -72.5q0 -54 18.5 -86.5t47.5 -32.5q28 0 60 30t60 74.5t46.5 96.5t18.5 97z" />
    <glyph glyph-name="w" unicode="w" horiz-adv-x="850" 
d="M407 97q-45 -52 -94 -79.5t-98 -27.5q-55 0 -86 35.5t-31 99.5q0 125 129 299l-2 3q-27 0 -45 8t-30.5 18t-22 18t-20.5 8q-16 0 -16 -17q0 -9 5.5 -16t12 -14t12 -15.5t5.5 -20.5q0 -18 -14 -29.5t-36 -11.5q-26 0 -40 16t-14 45q0 24 10 46.5t27 40t39.5 27.5t46.5 10
q21 0 35 -6.5t26 -15t23.5 -15t26.5 -6.5q8 0 14.5 3t15.5 12q11 11 22 19.5t25 8.5q21 0 21 -20q0 -3 -1 -6.5t-5.5 -9.5t-12.5 -15.5t-22 -25.5q-29 -34 -51.5 -72t-37.5 -76.5t-23 -76t-8 -70.5q0 -49 16 -76.5t45 -27.5q27 0 63 26.5t77 74.5q-2 21 -3.5 43t-1.5 40
q0 54 12.5 106.5t32.5 94t46 66.5t53 25q22 0 39.5 -19t17.5 -64q0 -54 -29 -125t-84 -149q9 -48 33.5 -78t53.5 -30q28 0 57 26t53 66.5t39.5 90t15.5 96.5q0 23 -3.5 40t-8 31.5t-8 28t-3.5 29.5q0 57 52 57q31 0 44.5 -23t13.5 -77q0 -80 -26 -160.5t-67.5 -145
t-93.5 -104.5t-104 -40q-42 0 -72 27t-46 80zM463 247q26 43 42.5 86t16.5 87q0 38 -15 38q-10 0 -19 -13t-15.5 -35t-10.5 -51.5t-4 -62.5q0 -14 1 -26t4 -23z" />
    <glyph glyph-name="x" unicode="x" horiz-adv-x="578" 
d="M314 233q-16 -68 -16 -112q0 -77 53 -77q33 0 69 28t83 89l30 -18q-18 -34 -42 -62t-51.5 -48.5t-56 -31.5t-55.5 -11q-46 0 -75.5 31.5t-35.5 87.5l-3 1q-15 -27 -35.5 -49t-43.5 -37.5t-48.5 -24.5t-49.5 -9q-39 0 -63.5 22t-24.5 57q0 28 16 45t43 17q25 0 34 -13
t13.5 -28.5t10 -28.5t22.5 -13q16 0 33 13t33.5 37.5t31.5 58.5t27 76l28 97q18 61 18 97q0 54 -33 54q-14 0 -33.5 -10t-40.5 -27t-41.5 -39t-36.5 -46l-30 18q13 30 38 59t54 52t58.5 37.5t53.5 14.5q38 0 63 -29.5t25 -74.5q29 47 70 75.5t79 28.5q35 0 59 -23t24 -56
q0 -24 -13.5 -39t-36.5 -15q-21 0 -29.5 11.5t-13 26t-10 26t-20.5 11.5q-16 0 -33 -14t-32.5 -39t-29 -59.5t-22.5 -75.5z" />
    <glyph glyph-name="y" unicode="y" horiz-adv-x="515" 
d="M161 292q-16 82 -32.5 113.5t-34.5 31.5q-19 0 -34.5 -28.5t-31.5 -90.5l-37 10q10 46 26.5 85t36 67.5t41.5 44t44 15.5q19 0 32.5 -14t27.5 -52q12 -32 26.5 -84.5t28.5 -120.5l34 -161h4q19 24 38.5 54.5t35.5 64t26 68t10 64.5q0 10 -1 25.5t-2.5 31.5t-2.5 30.5
t-1 23.5q0 36 18 53t38 17q26 0 38 -22t12 -51q0 -41 -22 -105t-58 -137.5t-83 -150t-97 -140.5q-76 -99 -140.5 -146.5t-120.5 -47.5q-42 0 -66.5 23t-24.5 56q0 25 14 40.5t37 15.5q20 0 29.5 -11.5t15.5 -26t12.5 -26t20.5 -11.5q19 0 48 21t58 52.5t54.5 68.5t36.5 69z
" />
    <glyph glyph-name="z" unicode="z" horiz-adv-x="519" 
d="M160 155l2 -3q22 0 45.5 -10.5t47.5 -23t48 -23t47 -10.5q29 0 50 18t39 66l34 -13q-10 -37 -28 -67.5t-41.5 -52.5t-51 -34t-56.5 -12q-35 0 -60.5 14t-46.5 31.5t-40.5 31.5t-41.5 14q-21 0 -28.5 -12.5t-12.5 -28t-12.5 -28t-29.5 -12.5q-33 0 -33 30q0 19 16 39
t50 53l276 267l-2 3q-20 0 -42.5 13t-46 29t-47 29t-44.5 13q-17 0 -26.5 -8.5t-9.5 -22.5t8 -21t17.5 -13.5t17.5 -15.5t8 -27q0 -46 -49 -46q-32 0 -49.5 20.5t-17.5 56.5q0 30 12 55.5t33.5 44.5t50.5 30t62 11q37 0 62 -12t43.5 -27t34.5 -27t34 -12q17 0 25.5 10.5
t15 23.5t14 23.5t24.5 10.5q29 0 29 -31q0 -8 -2 -15t-8.5 -17t-20 -23.5l-35.5 -35.5z" />
    <glyph glyph-name="braceleft" unicode="{" horiz-adv-x="336" 
d="M126 0q-5 -17 -7.5 -31.5t-2.5 -26.5q0 -26 14 -43t47 -27l-6 -22q-78 0 -112 17t-34 65q0 28 12 72l53 196q8 29 8 54q0 29 -13.5 51t-48.5 25l7 25q30 6 50 16t33.5 25.5t22.5 37t17 50.5l48 175q13 48 28.5 80.5t40 52.5t60 29t89.5 9l-6 -23q-50 -12 -76.5 -42.5
t-40.5 -84.5l-48 -179q-8 -31 -18.5 -56.5t-26 -45.5t-38.5 -33.5t-57 -20.5l-1 -5q39 -8 54.5 -26t15.5 -48q0 -27 -11 -68z" />
    <glyph glyph-name="bar" unicode="|" horiz-adv-x="350" 
d="M207 820v-1070h-80v1070h80z" />
    <glyph glyph-name="braceright" unicode="}" horiz-adv-x="336" 
d="M94 198q8 30 18.5 54t26 42t38 29.5t54.5 16.5l1 5q-39 8 -54 28.5t-15 50.5q0 17 3.5 36t9.5 41l48 179q9 33 9 57q0 54 -56 70l6 23q77 0 109 -19t32 -65q0 -18 -4 -39.5t-11 -47.5l-48 -175q-11 -39 -11 -62q0 -27 15 -43t51 -24l-7 -25q-26 -2 -46.5 -14.5
t-35.5 -30.5t-25.5 -40.5t-16.5 -44.5l-53 -196q-12 -45 -29 -75t-42 -47.5t-60.5 -24.5t-85.5 -7l6 22q53 14 79.5 44t40.5 84z" />
    <glyph glyph-name="asciitilde" unicode="~" horiz-adv-x="533" 
d="M70 249q8 50 37.5 82t66.5 32q20 0 45.5 -5t66.5 -19q36 -12 57 -17t37 -5q17 0 26.5 9.5t16.5 32.5h33q-2 -20 -10.5 -41.5t-21.5 -40.5q-30 -36 -65 -36q-18 0 -40.5 5.5t-65.5 19.5q-24 7 -41 12t-29 7t-20.5 3t-16.5 1q-16 0 -25.5 -9t-16.5 -31h-34z" />
    <glyph glyph-name="uni00A0" unicode="&#xa0;" horiz-adv-x="275" 
 />
    <glyph glyph-name="exclamdown" unicode="&#xa1;" horiz-adv-x="318" 
d="M226 563l-47 -455q-7 -64 -23.5 -91t-51.5 -27q-28 0 -41.5 17.5t-13.5 57.5q0 19 3 37.5t10.5 42t20 55t30.5 76.5q14 35 26.5 74t23 77t18 73.5t11.5 62.5h34zM237 780q25 0 43.5 -17t18.5 -44t-18 -46t-45 -19t-45 19t-18 45t19 44t45 18z" />
    <glyph glyph-name="cent" unicode="&#xa2;" horiz-adv-x="468" 
d="M381 161q-40 -80 -93 -123.5t-113 -46.5l-44 -138h-52l45 143q-48 13 -75 54t-27 103q0 61 24 124.5t62.5 117.5t87 92t98.5 49l54 162h52l-52 -159q39 -6 64.5 -30.5t25.5 -59.5q0 -25 -14.5 -40.5t-37.5 -15.5t-37.5 14.5t-14.5 35.5q0 13 4 21t4 15q0 14 -24 14
q-33 0 -67 -31t-61.5 -80t-45 -109.5t-17.5 -120.5q0 -48 18.5 -75.5t51.5 -27.5q18 0 37.5 10t39.5 27.5t38.5 41.5t33.5 53z" />
    <glyph glyph-name="sterling" unicode="&#xa3;" horiz-adv-x="682" 
d="M511 780q75 0 119.5 -28.5t44.5 -76.5q0 -42 -23.5 -68t-60.5 -26q-12 0 -24.5 3.5t-17.5 8.5q9 7 17 29.5t8 42.5q0 64 -81 64q-71 0 -108.5 -50.5t-37.5 -144.5v-103h217l-14 -50h-204q0 -36 -6 -73.5t-17.5 -73t-27.5 -67t-35 -56.5q18 -5 39.5 -9t43.5 -7t42.5 -4.5
t36.5 -1.5q51 0 90.5 16.5t76.5 52.5l9 -4q-44 -164 -192 -164q-20 0 -39.5 3.5t-41 11.5t-47 21t-58.5 33q-28 -31 -71.5 -50t-85.5 -19q-81 0 -81 68q0 23 9.5 42.5t26.5 34t40 22.5t50 8q53 0 103 -33q14 31 20 63t6 81q0 39 -1 62.5t-3 42.5h-139l14 50h120v39
q0 67 21 124t59 98.5t89.5 64.5t113.5 23zM181 83q-48 26 -80 26q-23 0 -38 -11t-15 -28q0 -25 40 -25q49 0 93 38z" />
    <glyph glyph-name="currency" unicode="&#xa4;" horiz-adv-x="697" 
d="M165 128q-23 28 -35 62t-12 73q0 78 47 136l-72 72l35 35l72 -72q28 23 62 35t73 12t72.5 -12t62.5 -35l72 72l35 -35l-72 -72q48 -59 48 -136q0 -39 -12 -73t-35 -62l71 -71l-35 -35l-71 71q-58 -47 -136 -47q-79 0 -136 48l-71 -71l-34 34zM168 263q0 -35 13 -65
t36 -53t53 -36t65 -13q34 0 65 13t53.5 36t36 53t13.5 65q0 34 -13.5 65t-36 53.5t-53.5 36t-65 13.5q-35 0 -65 -13.5t-53 -36t-36 -53.5t-13 -65z" />
    <glyph glyph-name="yen" unicode="&#xa5;" horiz-adv-x="765" 
d="M624 193h-176l-6 -25q-12 -44 -12 -70q0 -34 23.5 -46t77.5 -12l-12 -40h-339l11 40q32 0 55 4.5t40 17.5t28.5 36t21.5 60l9 35h-175l14 50h174l24 93h-171l14 50h136l-99 238q-15 36 -27 57t-25 32t-29.5 14t-41.5 3l11 40h281l-11 -40q-38 0 -54.5 -7.5t-16.5 -27.5
q0 -7 1.5 -16t6.5 -20l107 -258l139 203q22 31 31.5 48t9.5 35q0 21 -19.5 32t-54.5 11l11 40h247l-11 -40q-20 0 -34 -3t-26 -12t-24 -25t-30 -41l-187 -263h163l-14 -50h-179l-25 -93h177z" />
    <glyph glyph-name="brokenbar" unicode="&#xa6;" horiz-adv-x="338" 
d="M202 750v-385h-80v385h80zM202 205v-385h-80v385h80z" />
    <glyph glyph-name="section" unicode="&#xa7;" horiz-adv-x="621" 
d="M121 -47q0 -43 13 -61.5t35 -18.5q35 0 51.5 33t16.5 96q0 51 -16.5 119t-36 140.5t-35.5 142.5t-16 125q0 83 28.5 140.5t73.5 93t99.5 51.5t107.5 16q33 0 64 -9t54.5 -26t38 -41.5t14.5 -55.5q0 -32 -15.5 -51t-40.5 -19q-10 0 -19.5 2.5t-17.5 10t-13 20t-5 32.5
q0 8 1.5 18.5t1.5 20.5q0 24 -12.5 41t-47.5 17q-25 0 -44.5 -23t-19.5 -74q0 -58 19 -128t41.5 -144.5t41.5 -148.5t19 -140q0 -84 -31 -142.5t-78.5 -94.5t-104 -52t-107.5 -16q-36 0 -69 8t-58 24.5t-40 41t-15 57.5q0 32 17.5 51t47.5 19q29 0 43 -18t14 -57zM401 89
q0 54 -16 124t-35 143.5t-35 143t-16 121.5q0 25 1 45.5t5.5 38t13.5 33.5t25 33q-59 -28 -85 -72t-26 -110q0 -51 15 -121.5t33.5 -146.5t33.5 -150.5t15 -134.5q0 -56 -13.5 -92.5t-53.5 -65.5q73 18 105.5 73.5t32.5 137.5z" />
    <glyph glyph-name="dieresis" unicode="&#xa8;" horiz-adv-x="323" 
d="M19 709q6 25 27 41.5t46 16.5q21 0 33 -12t12 -31q0 -15 -6.5 -28.5t-17.5 -23t-24.5 -15.5t-27.5 -6q-20 0 -32 11.5t-12 30.5v7.5t2 8.5zM186 709q6 25 27 41.5t46 16.5q21 0 33 -12t12 -31q0 -15 -6.5 -28.5t-17.5 -23t-24.5 -15.5t-27.5 -6q-20 0 -32 11.5t-12 30.5
v7.5t2 8.5z" />
    <glyph glyph-name="copyright" unicode="&#xa9;" horiz-adv-x="918" 
d="M865 386q0 -83 -30.5 -155t-83.5 -125.5t-123.5 -84.5t-151.5 -31q-80 0 -150 31t-122.5 85t-82.5 126t-30 153t30 153t82 126t122 85t150 31q81 0 152 -31t124 -84t83.5 -125t30.5 -154zM817 386q0 72 -27 135.5t-73.5 110t-108.5 73.5t-133 27t-132 -27.5t-106.5 -75
t-71.5 -110.5t-26 -134q0 -72 26 -135t72 -110t107 -74.5t132 -27.5q70 0 132.5 27.5t108.5 74.5t73 110.5t27 135.5zM651 305q-14 -66 -56 -107t-117 -41q-50 0 -90 15.5t-68.5 44t-44 68.5t-15.5 90q0 52 16.5 95t46 74t70.5 48t91 17q33 0 62 -9.5t64 -31.5l10 35h21
l5 -131h-26q-12 45 -47 71t-84 26q-68 0 -105 -50t-37 -140q0 -88 37 -134.5t107 -46.5q98 0 127 107h33z" />
    <glyph glyph-name="ordfeminine" unicode="&#xaa;" horiz-adv-x="379" 
d="M293 749q-17 0 -35 -16.5t-33 -41t-24.5 -52.5t-9.5 -50q0 -20 7.5 -31t19.5 -11q16 0 33 18.5t31.5 45.5t23.5 56.5t9 50.5q0 17 -6 24t-16 7zM350 775h51l-28 -76q-7 -18 -13.5 -39t-12 -40t-8.5 -34.5t-3 -23.5q0 -5 2 -9.5t7 -4.5q8 0 20.5 14t29.5 37l13 -15
q-23 -36 -49.5 -56.5t-49.5 -20.5q-26 0 -26 31q0 5 0.5 12.5t1.5 15.5h-4q-14 -26 -39 -42.5t-51 -16.5q-27 0 -44.5 19t-17.5 55q0 33 15 68t39 64.5t53.5 48t58.5 18.5q32 0 44 -32z" />
    <glyph glyph-name="guillemotleft" unicode="&#xab;" horiz-adv-x="478" 
d="M29 262l213 159l14 -21l-136 -138l61 -138l-24 -20zM200 262l213 159l14 -21l-136 -138l61 -138l-24 -20z" />
    <glyph glyph-name="logicalnot" unicode="&#xac;" horiz-adv-x="676" 
d="M504 313h-408v50h458v-253h-50v203z" />
    <glyph glyph-name="uni00AD" unicode="&#xad;" horiz-adv-x="488" 
d="M81 248v83h309v-83h-309z" />
    <glyph glyph-name="registered" unicode="&#xae;" horiz-adv-x="918" 
d="M865 386q0 -83 -30.5 -155t-83.5 -125.5t-123.5 -84.5t-151.5 -31q-80 0 -150 31t-122.5 85t-82.5 126t-30 153t30 153t82 126t122 85t150 31q81 0 152 -31t124 -84t83.5 -125t30.5 -154zM817 386q0 72 -27 135.5t-73.5 110t-108.5 73.5t-133 27t-132 -27.5t-106.5 -75
t-71.5 -110.5t-26 -134q0 -72 26 -135t72 -110t107 -74.5t132 -27.5q70 0 132.5 27.5t108.5 74.5t73 110.5t27 135.5zM626 507q0 -45 -25.5 -75t-82.5 -39l124 -150q14 -17 29 -25.5t38 -12.5v-22h-108l-138 171q-7 9 -12.5 15t-12 9t-15 4t-20.5 1v-112q0 -20 2 -33
t9.5 -20.5t22 -10t38.5 -2.5v-22h-198v22q36 1 46 13t10 50v259q0 19 -2 31t-7 19t-15 9.5t-26 3.5v25h175q81 0 124.5 -28.5t43.5 -79.5zM403 416h40q51 0 75.5 20.5t24.5 67.5q0 45 -20 63t-65 18h-46q-9 0 -9 -9v-160z" />
    <glyph glyph-name="macron" unicode="&#xaf;" horiz-adv-x="310" 
d="M13 702l13 50h270l-13 -50h-270z" />
    <glyph glyph-name="degree" unicode="&#xb0;" horiz-adv-x="342" 
d="M139 660q0 25 9.5 46.5t26 38t38 26t46.5 9.5t46.5 -9.5t38 -26t26 -38t9.5 -46.5t-9.5 -46.5t-26 -38t-38 -26t-46.5 -9.5t-46.5 9.5t-38 26t-26 38t-9.5 46.5zM169 660q0 -37 26.5 -63.5t63.5 -26.5t63 26.5t26 63.5t-26 63t-63 26t-63.5 -26t-26.5 -63z" />
    <glyph glyph-name="plusminus" unicode="&#xb1;" horiz-adv-x="659" 
d="M299 234v209h-208v50h208v209h52v-209h208v-50h-208v-209h-52zM559 95h-468v50h468v-50z" />
    <glyph glyph-name="twosuperior" unicode="&#xb2;" horiz-adv-x="282" 
d="M163 507h72q20 0 31 6.5t22 23.5h19l-25 -69h-185l3 21q50 40 84.5 71.5t56 57.5t31 47.5t9.5 42.5t-12 33.5t-33 12.5q-23 0 -39.5 -14.5t-16.5 -34.5q0 -38 38 -38q-8 -22 -35 -22q-22 0 -35 13.5t-13 36.5q0 18 8.5 33.5t23.5 27t34.5 18.5t42.5 7q41 0 65 -20.5
t24 -53.5q0 -41 -39 -87t-131 -109v-4z" />
    <glyph glyph-name="threesuperior" unicode="&#xb3;" horiz-adv-x="287" 
d="M258 556q0 26 -12.5 44t-32.5 18q-7 0 -16 -1.5t-15 -1.5q-13 0 -13 8q0 13 16.5 16t37 8t37 17.5t16.5 45.5q0 45 -36 45q-21 0 -34.5 -10.5t-13.5 -26.5q0 -26 25 -26q-7 -15 -27 -15q-18 0 -28.5 10t-10.5 27q0 29 26 47.5t66 18.5q38 0 60 -16.5t22 -45.5
q0 -28 -21 -51.5t-52 -30.5v-4q28 -7 43 -25.5t15 -44.5q0 -20 -9.5 -38t-26.5 -31.5t-39.5 -21t-48.5 -7.5q-39 0 -63.5 17t-24.5 45q0 23 16 39.5t38 16.5q11 0 18.5 -5t9.5 -13q-15 0 -26 -12.5t-11 -29.5q0 -32 46 -32q31 0 50 18t19 48z" />
    <glyph glyph-name="acute" unicode="&#xb4;" horiz-adv-x="275" 
d="M20 651l130 119q36 33 67 33q17 0 27.5 -9t10.5 -26q0 -16 -13.5 -28.5t-37.5 -23.5l-137 -65h-47z" />
    <glyph glyph-name="mu" unicode="&#xb5;" horiz-adv-x="685" 
d="M143 268q12 37 20 63t12.5 44.5t6.5 31t2 21.5q0 21 -11 21q-24 0 -93 -84l-26 14q16 32 40 61t50.5 51.5t53.5 35.5t49 13q23 0 36.5 -14.5t13.5 -40.5q0 -12 -1.5 -23.5t-8.5 -34.5t-20 -62t-36 -106q-17 -49 -26 -89.5t-9 -65.5q0 -42 27 -42q19 0 44.5 21.5t52 58.5
t52 85.5t45.5 102.5l74 200h93l-74 -229q-17 -51 -28 -87t-17.5 -60t-9.5 -39t-3 -24q0 -26 17 -26q10 0 24.5 9.5t29 26t28 37t23.5 43.5l30 -15q-15 -37 -37 -69t-46.5 -56t-51 -37.5t-50.5 -13.5q-28 0 -40 21t-12 70q0 15 1.5 29t3.5 28l-3 3q-32 -73 -71 -112t-80 -39
q-47 0 -63 36l-3 -1l-34 -206q-7 -41 -22.5 -60t-44.5 -19q-45 0 -45 50q0 17 6 41t20.5 74.5t33 112.5t39 128t38.5 122z" />
    <glyph glyph-name="paragraph" unicode="&#xb6;" horiz-adv-x="548" 
d="M354 73q-26 -102 -52 -166.5t-56 -101.5t-64.5 -51t-77.5 -14q-42 0 -69 22t-27 54q0 25 13 39.5t36 14.5q21 0 29 -11t13.5 -24t12.5 -24t27 -11q23 0 41.5 24t29.5 63l116 449q-11 -2 -21.5 -3t-21.5 -1q-34 0 -66.5 10t-58 30.5t-41 52.5t-15.5 76q0 64 25 114
t69.5 84.5t106 52.5t133.5 18h166l-10 -38q-23 0 -38 -4t-27 -19.5t-22.5 -47.5t-24.5 -88z" />
    <glyph glyph-name="periodcentered" unicode="&#xb7;" horiz-adv-x="275" 
d="M61 274q0 28 19 47t46 19q28 0 47 -19t19 -47q0 -27 -19 -46t-47 -19q-27 0 -46 19t-19 46z" />
    <glyph glyph-name="cedilla" unicode="&#xb8;" horiz-adv-x="232" 
d="M136 -72q51 0 77.5 -16t26.5 -47q0 -26 -13 -48.5t-34.5 -39.5t-49 -27t-55.5 -10q-45 0 -72 18t-27 45q0 21 12 35t29 14q12 0 16.5 -11t8 -23.5t10.5 -23.5t25 -11q24 0 44.5 18t20.5 45q0 41 -67 41q-10 0 -20 -0.5t-15 -1.5l-1 3l85 124h53z" />
    <glyph glyph-name="onesuperior" unicode="&#xb9;" horiz-adv-x="273" 
d="M236 580q-4 -15 -7 -30t-3 -26q0 -16 9 -25.5t33 -9.5l-5 -21h-153l5 21q29 0 43.5 12t22.5 44l40 159q1 2 1 6q0 6 -6 6q-7 0 -21 -3.5t-37 -3.5l7 22q33 0 57 14.5t45 34.5h20z" />
    <glyph glyph-name="ordmasculine" unicode="&#xba;" horiz-adv-x="338" 
d="M224 507q-37 0 -64 26.5t-27 73.5q0 32 13 63t34.5 55.5t49 39.5t56.5 15q41 0 66.5 -25.5t25.5 -69.5q0 -31 -13 -63t-35 -57.5t-49.5 -41.5t-56.5 -16zM232 537q15 0 30 16.5t27 41.5t19 54.5t7 55.5q0 27 -9 37t-25 10q-15 0 -30 -16t-26 -40t-18 -53t-7 -56t9 -38.5
t23 -11.5z" />
    <glyph glyph-name="guillemotright" unicode="&#xbb;" horiz-adv-x="478" 
d="M209 104l-14 20l135 138l-62 138l26 21l127 -159zM38 104l-14 20l135 138l-62 138l26 21l127 -159z" />
    <glyph glyph-name="onequarter" unicode="&#xbc;" horiz-adv-x="634" 
d="M54 0h-67l623 770h58zM235 580q-4 -15 -7 -30t-3 -26q0 -16 9 -25.5t33 -9.5l-5 -21h-153l5 21q29 0 43.5 12t22.5 44l40 159q1 2 1 6q0 6 -6 6q-7 0 -21 -3.5t-37 -3.5l7 22q33 0 57 14.5t45 34.5h20zM498 138h49l-6 -24h-49l-33 -114h-42l29 114h-118l5 20l186 178h23z
M453 138l29 105l-3 1l-109 -106h83z" />
    <glyph glyph-name="onehalf" unicode="&#xbd;" horiz-adv-x="656" 
d="M55 0h-67l623 770h58zM236 580q-4 -15 -7 -30t-3 -26q0 -16 9 -25.5t33 -9.5l-5 -21h-153l5 21q29 0 43.5 12t22.5 44l40 159q1 2 1 6q0 6 -6 6q-7 0 -21 -3.5t-37 -3.5l7 22q33 0 57 14.5t45 34.5h20zM408 39h72q20 0 31 6.5t22 23.5h19l-25 -69h-185l3 21
q50 40 84.5 71.5t56 57.5t31 47.5t9.5 42.5t-12 33.5t-33 12.5q-23 0 -39.5 -14.5t-16.5 -34.5q0 -38 38 -38q-8 -22 -35 -22q-22 0 -35 13.5t-13 36.5q0 18 8.5 33.5t23.5 27t34.5 18.5t42.5 7q41 0 65 -20.5t24 -53.5q0 -20 -9.5 -41t-29.5 -45t-52.5 -51t-78.5 -59v-4z
" />
    <glyph glyph-name="threequarters" unicode="&#xbe;" horiz-adv-x="660" 
d="M80 0h-67l623 770h58zM524 138h49l-6 -24h-49l-33 -114h-42l29 114h-118l5 20l186 178h23zM479 138l29 105l-3 1l-109 -106h83zM266 556q0 26 -12.5 44t-32.5 18q-7 0 -16 -1.5t-15 -1.5q-13 0 -13 8q0 13 16.5 16t37 8t37 17.5t16.5 45.5q0 45 -36 45q-21 0 -34.5 -10.5
t-13.5 -26.5q0 -26 25 -26q-7 -15 -27 -15q-18 0 -28.5 10t-10.5 27q0 29 26 47.5t66 18.5q38 0 60 -16.5t22 -45.5q0 -28 -21 -51.5t-52 -30.5v-4q28 -7 43 -25.5t15 -44.5q0 -20 -9.5 -38t-26.5 -31.5t-39.5 -21t-48.5 -7.5q-39 0 -63.5 17t-24.5 45q0 23 16 39.5t38 16.5
q11 0 18.5 -5t9.5 -13q-15 0 -26 -12.5t-11 -29.5q0 -32 46 -32q31 0 50 18t19 48z" />
    <glyph glyph-name="questiondown" unicode="&#xbf;" horiz-adv-x="470" 
d="M312 781q26 0 44 -18t18 -44q0 -27 -18.5 -45.5t-44.5 -18.5t-44.5 19t-18.5 45t18.5 44t45.5 18zM365 481q0 -48 -20.5 -82.5t-52 -61.5t-67.5 -49.5t-67.5 -45.5t-52 -49t-20.5 -60q0 -42 30 -68.5t78 -26.5q42 0 70.5 20.5t28.5 52.5q0 20 -11 26.5t-24 11t-24 11.5
t-11 29q0 23 14.5 36t40.5 13q41 0 68.5 -29t27.5 -72q0 -30 -14.5 -57t-39.5 -47t-59 -31.5t-72 -11.5t-69 11.5t-52.5 32.5t-33.5 50.5t-12 65.5q0 51 21.5 88.5t53.5 67t70 52.5t70 45t53.5 44t21.5 50q0 40 -46 40t-74 -51l-27 16q38 78 111 78q44 0 67 -25.5t23 -73.5z
" />
    <glyph glyph-name="Agrave" unicode="&#xc0;" 
d="M551 166q-12 -53 -12 -77q0 -29 19 -39t74 -10l-10 -40h-296l10 40q29 0 48 4.5t31.5 18t21.5 38.5t18 66l27 123h-215l-63 -66q-41 -43 -64.5 -69.5t-35.5 -42.5t-15 -24t-3 -14q0 -19 16.5 -26.5t58.5 -7.5l-10 -40h-259l10 40q24 0 47.5 9.5t51.5 31.5t63 58.5
t81 91.5l461 549h84zM491 340l82 310h-4l-259 -310h181zM642 850l-113 28q-29 7 -46 17t-17 24q0 19 15.5 30t32.5 11q20 0 37.5 -8t40.5 -25l110 -77h-60z" />
    <glyph glyph-name="Aacute" unicode="&#xc1;" 
d="M551 166q-12 -53 -12 -77q0 -29 19 -39t74 -10l-10 -40h-296l10 40q29 0 48 4.5t31.5 18t21.5 38.5t18 66l27 123h-215l-63 -66q-41 -43 -64.5 -69.5t-35.5 -42.5t-15 -24t-3 -14q0 -19 16.5 -26.5t58.5 -7.5l-10 -40h-259l10 40q24 0 47.5 9.5t51.5 31.5t63 58.5
t81 91.5l461 549h84zM491 340l82 310h-4l-259 -310h181zM625 850l150 77q32 17 54 25t42 8q30 0 30 -25q0 -20 -23 -34t-66 -23l-127 -28h-60z" />
    <glyph glyph-name="Acircumflex" unicode="&#xc2;" 
d="M551 166q-12 -53 -12 -77q0 -29 19 -39t74 -10l-10 -40h-296l10 40q29 0 48 4.5t31.5 18t21.5 38.5t18 66l27 123h-215l-63 -66q-41 -43 -64.5 -69.5t-35.5 -42.5t-15 -24t-3 -14q0 -19 16.5 -26.5t58.5 -7.5l-10 -40h-259l10 40q24 0 47.5 9.5t51.5 31.5t63 58.5
t81 91.5l461 549h84zM491 340l82 310h-4l-259 -310h181zM757 960l80 -109h-45l-105 54l-133 -54h-45l138 109h110z" />
    <glyph glyph-name="Atilde" unicode="&#xc3;" 
d="M551 166q-12 -53 -12 -77q0 -29 19 -39t74 -10l-10 -40h-296l10 40q29 0 48 4.5t31.5 18t21.5 38.5t18 66l27 123h-215l-63 -66q-41 -43 -64.5 -69.5t-35.5 -42.5t-15 -24t-3 -14q0 -19 16.5 -26.5t58.5 -7.5l-10 -40h-259l10 40q24 0 47.5 9.5t51.5 31.5t63 58.5
t81 91.5l461 549h84zM491 340l82 310h-4l-259 -310h181zM513 846q8 51 37.5 82.5t67.5 31.5q22 0 43 -7t41 -16t38.5 -16t36.5 -7q17 0 27 9.5t17 32.5h33q-3 -23 -11 -44t-21 -37.5t-30 -26.5t-37 -10q-22 0 -44.5 7.5t-44 16.5t-41.5 16.5t-36 7.5q-17 0 -26 -9t-16 -31
h-34z" />
    <glyph glyph-name="Adieresis" unicode="&#xc4;" 
d="M551 166q-12 -53 -12 -77q0 -29 19 -39t74 -10l-10 -40h-296l10 40q29 0 48 4.5t31.5 18t21.5 38.5t18 66l27 123h-215l-63 -66q-41 -43 -64.5 -69.5t-35.5 -42.5t-15 -24t-3 -14q0 -19 16.5 -26.5t58.5 -7.5l-10 -40h-259l10 40q24 0 47.5 9.5t51.5 31.5t63 58.5
t81 91.5l461 549h84zM491 340l82 310h-4l-259 -310h181zM551 910q5 21 23.5 35.5t39.5 14.5q18 0 29 -10.5t11 -26.5q0 -13 -6 -24.5t-15.5 -20.5t-21.5 -14t-24 -5q-17 0 -27.5 10t-10.5 26q0 10 2 15zM733 910q5 21 23.5 35.5t40.5 14.5q17 0 28 -10.5t11 -26.5
q0 -13 -6 -24.5t-15.5 -20.5t-21 -14t-23.5 -5q-18 0 -28.5 10t-10.5 26q0 10 2 15z" />
    <glyph glyph-name="Aring" unicode="&#xc5;" 
d="M551 166q-12 -53 -12 -77q0 -29 19 -39t74 -10l-10 -40h-296l10 40q29 0 48 4.5t31.5 18t21.5 38.5t18 66l27 123h-215l-63 -66q-41 -43 -64.5 -69.5t-35.5 -42.5t-15 -24t-3 -14q0 -19 16.5 -26.5t58.5 -7.5l-10 -40h-259l10 40q24 0 47.5 9.5t51.5 31.5t63 58.5
t81 91.5l461 549h84zM491 340l82 310h-4l-259 -310h181zM616 878q0 16 7 30.5t19 26t27 18.5t32 7q23 0 36.5 -13t13.5 -36q0 -16 -7.5 -30.5t-19.5 -26t-27.5 -18t-31.5 -6.5q-23 0 -36 13t-13 35zM692 928q-17 0 -30.5 -13t-13.5 -30q0 -24 25 -24q17 0 31 12.5t14 29.5
q0 25 -26 25z" />
    <glyph glyph-name="AE" unicode="&#xc6;" horiz-adv-x="1071" 
d="M349 0l10 40q29 0 48 4.5t31.5 18t21.5 38.5t18 66l27 123h-215l-63 -66q-41 -43 -64.5 -69.5t-35.5 -42.5t-15 -24t-3 -14q0 -19 16.5 -26.5t58.5 -7.5l-10 -40h-259l10 40q24 0 47.5 9.5t51.5 31.5t63 58.5t81 91.5l374 446q16 19 16 29q0 13 -25 18.5t-83 5.5l11 40
h576v-202h-38q-13 48 -29 78.5t-36.5 48t-46 24.5t-56.5 7h-130l-68 -297h53q27 0 46 5t34.5 17.5t29 34.5t29.5 57h37l-60 -296h-40q3 30 3 52q0 45 -17 65.5t-63 20.5h-62l-49 -219q-12 -53 -12 -77q0 -12 6 -20.5t20.5 -14.5t38.5 -8.5t59 -2.5q57 0 99.5 9t74 28.5
t55 51.5t44.5 79h47l-78 -211h-579zM514 340l82 310h-4l-259 -310h181z" />
    <glyph glyph-name="Ccedilla" unicode="&#xc7;" horiz-adv-x="728" 
d="M665 189q-61 -94 -121 -140.5t-135 -55.5l-41 -65q51 0 77.5 -16t26.5 -47q0 -26 -13 -48.5t-34.5 -39.5t-49 -27t-55.5 -10q-45 0 -72 18t-27 45q0 21 12 35t29 14q12 0 16.5 -11t8 -23.5t10.5 -23.5t25 -11q24 0 44.5 18t20.5 45q0 41 -67 41q-10 0 -20 -0.5t-15 -1.5
l-1 3l70 102q-65 2 -117 24.5t-88.5 63t-56 97t-19.5 126.5q0 95 35 181.5t93.5 152.5t135.5 105.5t161 39.5q48 0 91.5 -14.5t88.5 -45.5l37 50h37l-46 -251h-38q-8 109 -46.5 159t-115.5 50q-66 0 -123 -33t-99 -91t-66 -136t-24 -168q0 -248 193 -248q72 0 130.5 39
t111.5 122l36 -24v0z" />
    <glyph glyph-name="Egrave" unicode="&#xc8;" horiz-adv-x="740" 
d="M-15 40q33 0 54.5 5t36 18.5t24.5 36t19 58.5l116 441q7 26 10.5 45t3.5 33q0 33 -23 43t-77 10l11 40h546v-202h-38q-13 48 -29 78.5t-36.5 48t-46 24.5t-56.5 7h-130l-78 -297h63q27 0 46 5t34.5 17.5t29 34.5t29.5 57h37l-60 -296h-40q3 30 3 52q0 45 -17 65.5
t-63 20.5h-75l-57 -215q-9 -33 -9 -56q0 -36 32 -53.5t110 -17.5q57 0 99.5 9t74 28.5t55 51.5t44.5 79h47l-78 -211h-623zM524 850l-113 28q-29 7 -46 17t-17 24q0 19 15.5 30t32.5 11q20 0 37.5 -8t40.5 -25l110 -77h-60z" />
    <glyph glyph-name="Eacute" unicode="&#xc9;" horiz-adv-x="740" 
d="M-15 40q33 0 54.5 5t36 18.5t24.5 36t19 58.5l116 441q7 26 10.5 45t3.5 33q0 33 -23 43t-77 10l11 40h546v-202h-38q-13 48 -29 78.5t-36.5 48t-46 24.5t-56.5 7h-130l-78 -297h63q27 0 46 5t34.5 17.5t29 34.5t29.5 57h37l-60 -296h-40q3 30 3 52q0 45 -17 65.5
t-63 20.5h-75l-57 -215q-9 -33 -9 -56q0 -36 32 -53.5t110 -17.5q57 0 99.5 9t74 28.5t55 51.5t44.5 79h47l-78 -211h-623zM378 850l150 77q32 17 54 25t42 8q30 0 30 -25q0 -20 -23 -34t-66 -23l-127 -28h-60z" />
    <glyph glyph-name="Ecircumflex" unicode="&#xca;" horiz-adv-x="740" 
d="M-15 40q33 0 54.5 5t36 18.5t24.5 36t19 58.5l116 441q7 26 10.5 45t3.5 33q0 33 -23 43t-77 10l11 40h546v-202h-38q-13 48 -29 78.5t-36.5 48t-46 24.5t-56.5 7h-130l-78 -297h63q27 0 46 5t34.5 17.5t29 34.5t29.5 57h37l-60 -296h-40q3 30 3 52q0 45 -17 65.5
t-63 20.5h-75l-57 -215q-9 -33 -9 -56q0 -36 32 -53.5t110 -17.5q57 0 99.5 9t74 28.5t55 51.5t44.5 79h47l-78 -211h-623zM562 960l80 -109h-45l-105 54l-133 -54h-45l138 109h110z" />
    <glyph glyph-name="Edieresis" unicode="&#xcb;" horiz-adv-x="740" 
d="M-15 40q33 0 54.5 5t36 18.5t24.5 36t19 58.5l116 441q7 26 10.5 45t3.5 33q0 33 -23 43t-77 10l11 40h546v-202h-38q-13 48 -29 78.5t-36.5 48t-46 24.5t-56.5 7h-130l-78 -297h63q27 0 46 5t34.5 17.5t29 34.5t29.5 57h37l-60 -296h-40q3 30 3 52q0 45 -17 65.5
t-63 20.5h-75l-57 -215q-9 -33 -9 -56q0 -36 32 -53.5t110 -17.5q57 0 99.5 9t74 28.5t55 51.5t44.5 79h47l-78 -211h-623zM352 910q5 21 23.5 35.5t39.5 14.5q18 0 29 -10.5t11 -26.5q0 -13 -6 -24.5t-15.5 -20.5t-21.5 -14t-24 -5q-17 0 -27.5 10t-10.5 26q0 10 2 15z
M534 910q5 21 23.5 35.5t40.5 14.5q17 0 28 -10.5t11 -26.5q0 -13 -6 -24.5t-15.5 -20.5t-21 -14t-23.5 -5q-18 0 -28.5 10t-10.5 26q0 10 2 15z" />
    <glyph glyph-name="Igrave" unicode="&#xcc;" horiz-adv-x="420" 
d="M224 168q-12 -44 -12 -70q0 -34 21.5 -46t69.5 -12l-12 -40h-319l11 40q30 0 51 4.5t36.5 17.5t26.5 36t21 60l117 442q15 55 15 82q0 31 -22.5 39.5t-76.5 8.5l11 40h325l-11 -40q-33 0 -55 -6.5t-38 -24.5t-28.5 -50t-25.5 -83zM382 850l-113 28q-29 7 -46 17t-17 24
q0 19 15.5 30t32.5 11q20 0 37.5 -8t40.5 -25l110 -77h-60z" />
    <glyph glyph-name="Iacute" unicode="&#xcd;" horiz-adv-x="420" 
d="M224 168q-12 -44 -12 -70q0 -34 21.5 -46t69.5 -12l-12 -40h-319l11 40q30 0 51 4.5t36.5 17.5t26.5 36t21 60l117 442q15 55 15 82q0 31 -22.5 39.5t-76.5 8.5l11 40h325l-11 -40q-33 0 -55 -6.5t-38 -24.5t-28.5 -50t-25.5 -83zM236 850l150 77q32 17 54 25t42 8
q30 0 30 -25q0 -20 -23 -34t-66 -23l-127 -28h-60z" />
    <glyph glyph-name="Icircumflex" unicode="&#xce;" horiz-adv-x="420" 
d="M224 168q-12 -44 -12 -70q0 -34 21.5 -46t69.5 -12l-12 -40h-319l11 40q30 0 51 4.5t36.5 17.5t26.5 36t21 60l117 442q15 55 15 82q0 31 -22.5 39.5t-76.5 8.5l11 40h325l-11 -40q-33 0 -55 -6.5t-38 -24.5t-28.5 -50t-25.5 -83zM428 960l80 -109h-45l-105 54l-133 -54
h-45l138 109h110z" />
    <glyph glyph-name="Idieresis" unicode="&#xcf;" horiz-adv-x="420" 
d="M224 168q-12 -44 -12 -70q0 -34 21.5 -46t69.5 -12l-12 -40h-319l11 40q30 0 51 4.5t36.5 17.5t26.5 36t21 60l117 442q15 55 15 82q0 31 -22.5 39.5t-76.5 8.5l11 40h325l-11 -40q-33 0 -55 -6.5t-38 -24.5t-28.5 -50t-25.5 -83zM226 910q5 21 23.5 35.5t39.5 14.5
q18 0 29 -10.5t11 -26.5q0 -13 -6 -24.5t-15.5 -20.5t-21.5 -14t-24 -5q-17 0 -27.5 10t-10.5 26q0 10 2 15zM408 910q5 21 23.5 35.5t40.5 14.5q17 0 28 -10.5t11 -26.5q0 -13 -6 -24.5t-15.5 -20.5t-21 -14t-23.5 -5q-18 0 -28.5 10t-10.5 26q0 10 2 15z" />
    <glyph glyph-name="Eth" unicode="&#xd0;" horiz-adv-x="839" 
d="M168 770h271q69 0 134 -16.5t118 -60.5q57 -47 83 -111.5t26 -134.5q0 -45 -10.5 -90.5t-29 -88t-44 -80t-55.5 -67.5q-70 -69 -155 -95t-182 -26h-350l11 40q32 0 53.5 4t36 16.5t25 35.5t20.5 62l54 208h-93l13 50h93l48 184q2 7 5.5 18t7.5 24t6.5 25t2.5 21
q0 15 -8.5 23t-21 12.5t-27 5.5t-26.5 1h-19zM290 416h114l-13 -50h-115l-36 -135q-8 -30 -13 -49.5t-7.5 -32t-3.5 -19.5t-1 -12q0 -27 11.5 -41.5t27.5 -22t33 -9t28 -1.5q65 0 118 18t94 49.5t70.5 72.5t49 87t28.5 93.5t9 92.5q0 126 -67.5 194.5t-185.5 68.5
q-29 0 -46.5 -8.5t-26.5 -42.5z" />
    <glyph glyph-name="Ntilde" unicode="&#xd1;" horiz-adv-x="842" 
d="M580 0l-262 602h-4l-114 -434q-6 -24 -6 -43q0 -42 25 -63t70 -22l-12 -40h-286l11 40q47 0 84 33.5t51 84.5l118 444q4 15 4 31q0 48 -40.5 72t-106.5 25l12 40h235l250 -573h4l106 405q5 22 5 37q0 43 -24.5 66.5t-59.5 24.5l12 40h256l-11 -40q-19 0 -37 -9t-33 -24.5
t-26.5 -37.5t-18.5 -47l-162 -612h-40zM386 846q8 51 37.5 82.5t67.5 31.5q22 0 43 -7t41 -16t38.5 -16t36.5 -7q17 0 27 9.5t17 32.5h33q-3 -23 -11 -44t-21 -37.5t-30 -26.5t-37 -10q-22 0 -44.5 7.5t-44 16.5t-41.5 16.5t-36 7.5q-17 0 -26 -9t-16 -31h-34z" />
    <glyph glyph-name="Ograve" unicode="&#xd2;" horiz-adv-x="820" 
d="M505 780q64 0 115.5 -22t88 -62.5t56 -98t19.5 -128.5q0 -96 -34.5 -183t-93.5 -153t-136.5 -104.5t-163.5 -38.5q-64 0 -116 22.5t-89 63.5t-57 98.5t-20 128.5q0 96 35 182.5t94 152t137.5 104t164.5 38.5zM505 728q-65 0 -121.5 -33t-98.5 -91t-66 -136t-24 -168
q0 -128 44.5 -192t130.5 -64q63 0 116.5 34t93 94t61.5 143t22 181q0 120 -38.5 176t-119.5 56zM565 850l-113 28q-29 7 -46 17t-17 24q0 19 15.5 30t32.5 11q20 0 37.5 -8t40.5 -25l110 -77h-60z" />
    <glyph glyph-name="Oacute" unicode="&#xd3;" horiz-adv-x="820" 
d="M505 780q64 0 115.5 -22t88 -62.5t56 -98t19.5 -128.5q0 -96 -34.5 -183t-93.5 -153t-136.5 -104.5t-163.5 -38.5q-64 0 -116 22.5t-89 63.5t-57 98.5t-20 128.5q0 96 35 182.5t94 152t137.5 104t164.5 38.5zM505 728q-65 0 -121.5 -33t-98.5 -91t-66 -136t-24 -168
q0 -128 44.5 -192t130.5 -64q63 0 116.5 34t93 94t61.5 143t22 181q0 120 -38.5 176t-119.5 56zM419 850l150 77q32 17 54 25t42 8q30 0 30 -25q0 -20 -23 -34t-66 -23l-127 -28h-60z" />
    <glyph glyph-name="Ocircumflex" unicode="&#xd4;" horiz-adv-x="820" 
d="M505 780q64 0 115.5 -22t88 -62.5t56 -98t19.5 -128.5q0 -96 -34.5 -183t-93.5 -153t-136.5 -104.5t-163.5 -38.5q-64 0 -116 22.5t-89 63.5t-57 98.5t-20 128.5q0 96 35 182.5t94 152t137.5 104t164.5 38.5zM505 728q-65 0 -121.5 -33t-98.5 -91t-66 -136t-24 -168
q0 -128 44.5 -192t130.5 -64q63 0 116.5 34t93 94t61.5 143t22 181q0 120 -38.5 176t-119.5 56zM619 960l80 -109h-45l-105 54l-133 -54h-45l138 109h110z" />
    <glyph glyph-name="Otilde" unicode="&#xd5;" horiz-adv-x="820" 
d="M505 780q64 0 115.5 -22t88 -62.5t56 -98t19.5 -128.5q0 -96 -34.5 -183t-93.5 -153t-136.5 -104.5t-163.5 -38.5q-64 0 -116 22.5t-89 63.5t-57 98.5t-20 128.5q0 96 35 182.5t94 152t137.5 104t164.5 38.5zM505 728q-65 0 -121.5 -33t-98.5 -91t-66 -136t-24 -168
q0 -128 44.5 -192t130.5 -64q63 0 116.5 34t93 94t61.5 143t22 181q0 120 -38.5 176t-119.5 56zM381 846q8 51 37.5 82.5t67.5 31.5q22 0 43 -7t41 -16t38.5 -16t36.5 -7q17 0 27 9.5t17 32.5h33q-3 -23 -11 -44t-21 -37.5t-30 -26.5t-37 -10q-22 0 -44.5 7.5t-44 16.5
t-41.5 16.5t-36 7.5q-17 0 -26 -9t-16 -31h-34z" />
    <glyph glyph-name="Odieresis" unicode="&#xd6;" horiz-adv-x="820" 
d="M505 780q64 0 115.5 -22t88 -62.5t56 -98t19.5 -128.5q0 -96 -34.5 -183t-93.5 -153t-136.5 -104.5t-163.5 -38.5q-64 0 -116 22.5t-89 63.5t-57 98.5t-20 128.5q0 96 35 182.5t94 152t137.5 104t164.5 38.5zM505 728q-65 0 -121.5 -33t-98.5 -91t-66 -136t-24 -168
q0 -128 44.5 -192t130.5 -64q63 0 116.5 34t93 94t61.5 143t22 181q0 120 -38.5 176t-119.5 56zM418 910q5 21 23.5 35.5t39.5 14.5q18 0 29 -10.5t11 -26.5q0 -13 -6 -24.5t-15.5 -20.5t-21.5 -14t-24 -5q-17 0 -27.5 10t-10.5 26q0 10 2 15zM600 910q5 21 23.5 35.5
t40.5 14.5q17 0 28 -10.5t11 -26.5q0 -13 -6 -24.5t-15.5 -20.5t-21 -14t-23.5 -5q-18 0 -28.5 10t-10.5 26q0 10 2 15z" />
    <glyph glyph-name="multiply" unicode="&#xd7;" horiz-adv-x="543" 
d="M82 184l155 155l-154 154l35 35l154 -154l155 155l37 -37l-155 -155l154 -154l-35 -35l-154 154l-155 -155z" />
    <glyph glyph-name="Oslash" unicode="&#xd8;" horiz-adv-x="820" 
d="M505 780q49 0 90.5 -13t75.5 -38l78 99h69l-107 -135q35 -41 54 -97.5t19 -126.5q0 -96 -34.5 -183t-93.5 -153t-136.5 -104.5t-163.5 -38.5q-96 0 -163 47l-78 -99h-68l106 135q-38 41 -58.5 99.5t-20.5 130.5q0 96 35 182.5t94 152t137.5 104t164.5 38.5zM505 728
q-65 0 -121.5 -33t-98.5 -91t-66 -136t-24 -168t22 -147l408 518q-39 57 -120 57zM663 496q0 68 -14 119l-405 -513q46 -58 126 -58q63 0 116.5 34t93 94t61.5 143t22 181z" />
    <glyph glyph-name="Ugrave" unicode="&#xd9;" horiz-adv-x="808" 
d="M200 599q5 20 9 41.5t4 35.5q0 30 -21 42t-73 12l13 40h319l-11 -40q-36 0 -58 -5.5t-37.5 -22.5t-27 -50t-25.5 -87l-65 -251q-7 -26 -10 -49.5t-3 -44.5q0 -80 41 -127t120 -47q49 0 87.5 18.5t68.5 51t52 77t39 97.5q15 48 29.5 107t26 114t18 98.5t6.5 60.5
q0 30 -27.5 44t-74.5 16l12 40h263l-12 -40q-24 0 -41 -4.5t-29 -19.5t-21 -42t-19 -72l-43 -200q-43 -199 -128 -300.5t-215 -101.5q-128 0 -190.5 59.5t-62.5 169.5q0 32 5 64.5t15 69.5zM574 850l-113 28q-29 7 -46 17t-17 24q0 19 15.5 30t32.5 11q20 0 37.5 -8
t40.5 -25l110 -77h-60z" />
    <glyph glyph-name="Uacute" unicode="&#xda;" horiz-adv-x="808" 
d="M200 599q5 20 9 41.5t4 35.5q0 30 -21 42t-73 12l13 40h319l-11 -40q-36 0 -58 -5.5t-37.5 -22.5t-27 -50t-25.5 -87l-65 -251q-7 -26 -10 -49.5t-3 -44.5q0 -80 41 -127t120 -47q49 0 87.5 18.5t68.5 51t52 77t39 97.5q15 48 29.5 107t26 114t18 98.5t6.5 60.5
q0 30 -27.5 44t-74.5 16l12 40h263l-12 -40q-24 0 -41 -4.5t-29 -19.5t-21 -42t-19 -72l-43 -200q-43 -199 -128 -300.5t-215 -101.5q-128 0 -190.5 59.5t-62.5 169.5q0 32 5 64.5t15 69.5zM428 850l150 77q32 17 54 25t42 8q30 0 30 -25q0 -20 -23 -34t-66 -23l-127 -28
h-60z" />
    <glyph glyph-name="Ucircumflex" unicode="&#xdb;" horiz-adv-x="808" 
d="M200 599q5 20 9 41.5t4 35.5q0 30 -21 42t-73 12l13 40h319l-11 -40q-36 0 -58 -5.5t-37.5 -22.5t-27 -50t-25.5 -87l-65 -251q-7 -26 -10 -49.5t-3 -44.5q0 -80 41 -127t120 -47q49 0 87.5 18.5t68.5 51t52 77t39 97.5q15 48 29.5 107t26 114t18 98.5t6.5 60.5
q0 30 -27.5 44t-74.5 16l12 40h263l-12 -40q-24 0 -41 -4.5t-29 -19.5t-21 -42t-19 -72l-43 -200q-43 -199 -128 -300.5t-215 -101.5q-128 0 -190.5 59.5t-62.5 169.5q0 32 5 64.5t15 69.5zM612 960l80 -109h-45l-105 54l-133 -54h-45l138 109h110z" />
    <glyph glyph-name="Udieresis" unicode="&#xdc;" horiz-adv-x="808" 
d="M200 599q5 20 9 41.5t4 35.5q0 30 -21 42t-73 12l13 40h319l-11 -40q-36 0 -58 -5.5t-37.5 -22.5t-27 -50t-25.5 -87l-65 -251q-7 -26 -10 -49.5t-3 -44.5q0 -80 41 -127t120 -47q49 0 87.5 18.5t68.5 51t52 77t39 97.5q15 48 29.5 107t26 114t18 98.5t6.5 60.5
q0 30 -27.5 44t-74.5 16l12 40h263l-12 -40q-24 0 -41 -4.5t-29 -19.5t-21 -42t-19 -72l-43 -200q-43 -199 -128 -300.5t-215 -101.5q-128 0 -190.5 59.5t-62.5 169.5q0 32 5 64.5t15 69.5zM402 910q5 21 23.5 35.5t39.5 14.5q18 0 29 -10.5t11 -26.5q0 -13 -6 -24.5
t-15.5 -20.5t-21.5 -14t-24 -5q-17 0 -27.5 10t-10.5 26q0 10 2 15zM584 910q5 21 23.5 35.5t40.5 14.5q17 0 28 -10.5t11 -26.5q0 -13 -6 -24.5t-15.5 -20.5t-21 -14t-23.5 -5q-18 0 -28.5 10t-10.5 26q0 10 2 15z" />
    <glyph glyph-name="Yacute" unicode="&#xdd;" horiz-adv-x="689" 
d="M393 168q-12 -44 -12 -70q0 -34 23.5 -46t77.5 -12l-12 -40h-339l11 40q32 0 55 4.5t40 17.5t28.5 36t21.5 60l46 178l-120 288q-15 36 -27 57t-25 32t-29.5 14t-41.5 3l11 40h281l-11 -40q-38 0 -54.5 -7.5t-16.5 -27.5q0 -7 1.5 -16t6.5 -20l107 -258l139 203
q22 31 31.5 48t9.5 35q0 21 -19.5 32t-54.5 11l11 40h247l-11 -40q-20 0 -34 -3t-26 -12t-24 -25t-30 -41l-214 -301zM365 850l150 77q32 17 54 25t42 8q30 0 30 -25q0 -20 -23 -34t-66 -23l-127 -28h-60z" />
    <glyph glyph-name="Thorn" unicode="&#xde;" horiz-adv-x="705" 
d="M338 596h109q241 0 241 -171q0 -57 -26 -103t-75 -78.5t-118 -50t-154 -17.5h-90l-5 -19q-6 -23 -8.5 -38t-2.5 -26q0 -32 25 -43.5t93 -11.5l-11 -38h-352l11 38q35 1 57.5 6t37.5 17t25 34t19 57l125 466q6 22 8.5 37.5t2.5 26.5q0 28 -19 38t-72 12l11 38h353l-11 -38
q-45 0 -72.5 -4t-45.5 -16.5t-29 -36t-22 -62.5zM239 226h71q57 0 103.5 15.5t79.5 44t50.5 69.5t17.5 91q0 56 -29 79.5t-98 23.5h-92q-16 0 -21 -17z" />
    <glyph glyph-name="germandbls" unicode="&#xdf;" horiz-adv-x="586" 
d="M150 586q29 116 93.5 180t155.5 64q78 0 123 -39t45 -108q0 -39 -14.5 -75t-40 -64.5t-61.5 -48.5t-78 -28l-2 -5q72 0 113.5 -46.5t41.5 -127.5q0 -58 -22.5 -112t-60 -95t-86.5 -66t-101 -25q-42 0 -66 17t-24 46q0 26 16 45.5t38 19.5q12 0 17.5 -6t7.5 -15t3 -20
t4 -20t9.5 -15t21.5 -6q28 0 53 19.5t44 52.5t30 77t11 93q0 82 -37.5 120t-118.5 38l13 51q72 0 115.5 36t65.5 110q2 17 5 30.5t3 27.5q0 48 -24.5 68.5t-75.5 20.5q-22 0 -39.5 -10.5t-31.5 -33t-26.5 -58t-24.5 -86.5l-125 -519q-22 -90 -46 -153t-53 -103t-63.5 -58.5
t-77.5 -18.5q-50 0 -78 20.5t-28 56.5q0 24 13 38.5t36 14.5q21 0 29 -11t13.5 -24t12.5 -24t25 -11q24 0 43 22.5t30 64.5z" />
    <glyph glyph-name="agrave" unicode="&#xe0;" horiz-adv-x="570" 
d="M332 488q-38 0 -78.5 -35t-73.5 -87.5t-54 -113t-21 -112.5q0 -36 15 -57.5t41 -21.5q23 0 48 18.5t48.5 49t44.5 69.5t37 80.5t25 81.5t9 72q0 26 -11 41t-30 15zM435 530h83l-57 -153q-14 -38 -27.5 -81t-24 -83t-16.5 -73t-6 -49q0 -29 19 -29q14 0 40.5 29t59.5 75
l26 -21q-42 -74 -90.5 -114.5t-93.5 -40.5q-23 0 -35.5 17.5t-12.5 57.5q0 9 0.5 21t2.5 32l-4 1q-15 -28 -35.5 -51.5t-44.5 -41t-50 -27t-51 -9.5q-51 0 -79.5 38.5t-28.5 106.5q0 69 29 141t75 130.5t102 96t110 37.5q33 0 54 -15.5t34 -50.5zM402 651l-119 65
q-18 10 -28.5 20.5t-10.5 23.5q0 20 15.5 31.5t33.5 11.5q31 0 58 -33l98 -119h-47z" />
    <glyph glyph-name="aacute" unicode="&#xe1;" horiz-adv-x="570" 
d="M332 488q-38 0 -78.5 -35t-73.5 -87.5t-54 -113t-21 -112.5q0 -36 15 -57.5t41 -21.5q23 0 48 18.5t48.5 49t44.5 69.5t37 80.5t25 81.5t9 72q0 26 -11 41t-30 15zM435 530h83l-57 -153q-14 -38 -27.5 -81t-24 -83t-16.5 -73t-6 -49q0 -29 19 -29q14 0 40.5 29t59.5 75
l26 -21q-42 -74 -90.5 -114.5t-93.5 -40.5q-23 0 -35.5 17.5t-12.5 57.5q0 9 0.5 21t2.5 32l-4 1q-15 -28 -35.5 -51.5t-44.5 -41t-50 -27t-51 -9.5q-51 0 -79.5 38.5t-28.5 106.5q0 69 29 141t75 130.5t102 96t110 37.5q33 0 54 -15.5t34 -50.5zM280 651l130 119
q36 33 67 33q17 0 27.5 -9t10.5 -26q0 -16 -13.5 -28.5t-37.5 -23.5l-137 -65h-47z" />
    <glyph glyph-name="acircumflex" unicode="&#xe2;" horiz-adv-x="570" 
d="M332 488q-38 0 -78.5 -35t-73.5 -87.5t-54 -113t-21 -112.5q0 -36 15 -57.5t41 -21.5q23 0 48 18.5t48.5 49t44.5 69.5t37 80.5t25 81.5t9 72q0 26 -11 41t-30 15zM435 530h83l-57 -153q-14 -38 -27.5 -81t-24 -83t-16.5 -73t-6 -49q0 -29 19 -29q14 0 40.5 29t59.5 75
l26 -21q-42 -74 -90.5 -114.5t-93.5 -40.5q-23 0 -35.5 17.5t-12.5 57.5q0 9 0.5 21t2.5 32l-4 1q-15 -28 -35.5 -51.5t-44.5 -41t-50 -27t-51 -9.5q-51 0 -79.5 38.5t-28.5 106.5q0 69 29 141t75 130.5t102 96t110 37.5q33 0 54 -15.5t34 -50.5zM432 780l84 -129h-45
l-101 68l-137 -68h-45l154 129h90z" />
    <glyph glyph-name="atilde" unicode="&#xe3;" horiz-adv-x="570" 
d="M332 488q-38 0 -78.5 -35t-73.5 -87.5t-54 -113t-21 -112.5q0 -36 15 -57.5t41 -21.5q23 0 48 18.5t48.5 49t44.5 69.5t37 80.5t25 81.5t9 72q0 26 -11 41t-30 15zM435 530h83l-57 -153q-14 -38 -27.5 -81t-24 -83t-16.5 -73t-6 -49q0 -29 19 -29q14 0 40.5 29t59.5 75
l26 -21q-42 -74 -90.5 -114.5t-93.5 -40.5q-23 0 -35.5 17.5t-12.5 57.5q0 9 0.5 21t2.5 32l-4 1q-15 -28 -35.5 -51.5t-44.5 -41t-50 -27t-51 -9.5q-51 0 -79.5 38.5t-28.5 106.5q0 69 29 141t75 130.5t102 96t110 37.5q33 0 54 -15.5t34 -50.5zM199 660q8 51 37.5 82.5
t67.5 31.5q15 0 36 -5.5t50 -18.5t44.5 -17.5t28.5 -4.5q17 0 27 9.5t17 32.5h33q-2 -20 -11 -43t-21 -39q-27 -36 -67 -36q-14 0 -31.5 5.5t-52.5 19.5q-34 13 -52 18t-30 5q-17 0 -26 -9t-16 -31h-34z" />
    <glyph glyph-name="adieresis" unicode="&#xe4;" horiz-adv-x="570" 
d="M332 488q-38 0 -78.5 -35t-73.5 -87.5t-54 -113t-21 -112.5q0 -36 15 -57.5t41 -21.5q23 0 48 18.5t48.5 49t44.5 69.5t37 80.5t25 81.5t9 72q0 26 -11 41t-30 15zM435 530h83l-57 -153q-14 -38 -27.5 -81t-24 -83t-16.5 -73t-6 -49q0 -29 19 -29q14 0 40.5 29t59.5 75
l26 -21q-42 -74 -90.5 -114.5t-93.5 -40.5q-23 0 -35.5 17.5t-12.5 57.5q0 9 0.5 21t2.5 32l-4 1q-15 -28 -35.5 -51.5t-44.5 -41t-50 -27t-51 -9.5q-51 0 -79.5 38.5t-28.5 106.5q0 69 29 141t75 130.5t102 96t110 37.5q33 0 54 -15.5t34 -50.5zM229 709q6 25 27 41.5
t46 16.5q21 0 33 -12t12 -31q0 -15 -6.5 -28.5t-17.5 -23t-24.5 -15.5t-27.5 -6q-20 0 -32 11.5t-12 30.5v7.5t2 8.5zM396 709q6 25 27 41.5t46 16.5q21 0 33 -12t12 -31q0 -15 -6.5 -28.5t-17.5 -23t-24.5 -15.5t-27.5 -6q-20 0 -32 11.5t-12 30.5v7.5t2 8.5z" />
    <glyph glyph-name="aring" unicode="&#xe5;" horiz-adv-x="570" 
d="M332 488q-38 0 -78.5 -35t-73.5 -87.5t-54 -113t-21 -112.5q0 -36 15 -57.5t41 -21.5q23 0 48 18.5t48.5 49t44.5 69.5t37 80.5t25 81.5t9 72q0 26 -11 41t-30 15zM435 530h83l-57 -153q-14 -38 -27.5 -81t-24 -83t-16.5 -73t-6 -49q0 -29 19 -29q14 0 40.5 29t59.5 75
l26 -21q-42 -74 -90.5 -114.5t-93.5 -40.5q-23 0 -35.5 17.5t-12.5 57.5q0 9 0.5 21t2.5 32l-4 1q-15 -28 -35.5 -51.5t-44.5 -41t-50 -27t-51 -9.5q-51 0 -79.5 38.5t-28.5 106.5q0 69 29 141t75 130.5t102 96t110 37.5q33 0 54 -15.5t34 -50.5zM280 718q0 21 9 41t24.5 36
t36 25.5t43.5 9.5q32 0 50 -17t18 -45q0 -23 -9.5 -43.5t-25.5 -35.5t-37 -24t-43 -9q-31 0 -48.5 17t-17.5 45zM383 788q-22 0 -41.5 -16.5t-19.5 -41.5q0 -15 10 -24.5t27 -9.5q22 0 40.5 17.5t18.5 42.5q0 14 -9.5 23t-25.5 9z" />
    <glyph glyph-name="ae" unicode="&#xe6;" horiz-adv-x="756" 
d="M671 133q-87 -143 -214 -143q-62 0 -98.5 35t-43.5 99q-17 -29 -41 -53.5t-50.5 -42.5t-54 -28t-52.5 -10q-50 0 -78.5 38.5t-28.5 106.5q0 69 29 141t75 130.5t102 96t110 37.5q33 0 54 -15.5t34 -50.5l28 76h83l-30 -74l3 -2q27 36 63.5 51t72.5 15q48 0 78.5 -24.5
t30.5 -62.5q0 -35 -26 -72t-70.5 -70t-104 -60t-126.5 -42q-2 -14 -3 -27.5t-1 -27.5q0 -109 77 -109q37 0 76.5 29t73.5 80zM329 488q-23 0 -48.5 -16t-50 -42.5t-47.5 -61t-40 -73t-27.5 -77.5t-10.5 -74q0 -39 14.5 -61t40.5 -22q24 0 49 16.5t48.5 44t44.5 64t37 77
t25 83t9 81.5q0 61 -44 61zM614 493q-26 0 -54 -20t-53.5 -53.5t-46.5 -76.5t-34 -89q48 13 89 34t70.5 47.5t46.5 56t17 59.5q0 42 -35 42z" />
    <glyph glyph-name="ccedilla" unicode="&#xe7;" horiz-adv-x="441" 
d="M373 161q-33 -66 -75.5 -108t-91.5 -56l-44 -69q51 0 77.5 -16t26.5 -47q0 -26 -13 -48.5t-34.5 -39.5t-49 -27t-55.5 -10q-45 0 -72 18t-27 45q0 21 12 35t29 14q12 0 16.5 -11t8 -23.5t10.5 -23.5t25 -11q24 0 44.5 18t20.5 45q0 41 -67 41q-10 0 -20 -0.5t-15 -1.5
l-1 3l70 102q-61 4 -97.5 47.5t-36.5 115.5q0 44 13 90t35 89t52 81t64 66t70.5 44.5t71.5 16.5q48 0 79 -26t31 -65q0 -25 -14.5 -40.5t-37.5 -15.5t-37.5 14.5t-14.5 35.5q0 13 4 21t4 15q0 14 -24 14q-33 0 -67 -31t-61.5 -80t-45 -109.5t-17.5 -120.5q0 -48 18.5 -75.5
t51.5 -27.5q18 0 37.5 10t39.5 27.5t38.5 41.5t33.5 53z" />
    <glyph glyph-name="egrave" unicode="&#xe8;" horiz-adv-x="456" 
d="M371 133q-87 -143 -214 -143q-69 0 -106 42.5t-37 120.5q0 69 28.5 138t74.5 124.5t103 90t114 34.5q48 0 78.5 -24.5t30.5 -62.5q0 -35 -26 -72t-70.5 -70t-104 -60t-126.5 -42q-2 -14 -3 -27.5t-1 -27.5q0 -109 77 -109q37 0 76.5 29t73.5 80zM314 493q-26 0 -54 -20
t-53.5 -53.5t-46.5 -76.5t-34 -89q48 13 89 34t70.5 47.5t46.5 56t17 59.5q0 42 -35 42zM392 651l-119 65q-18 10 -28.5 20.5t-10.5 23.5q0 20 15.5 31.5t33.5 11.5q31 0 58 -33l98 -119h-47z" />
    <glyph glyph-name="eacute" unicode="&#xe9;" horiz-adv-x="456" 
d="M371 133q-87 -143 -214 -143q-69 0 -106 42.5t-37 120.5q0 69 28.5 138t74.5 124.5t103 90t114 34.5q48 0 78.5 -24.5t30.5 -62.5q0 -35 -26 -72t-70.5 -70t-104 -60t-126.5 -42q-2 -14 -3 -27.5t-1 -27.5q0 -109 77 -109q37 0 76.5 29t73.5 80zM314 493q-26 0 -54 -20
t-53.5 -53.5t-46.5 -76.5t-34 -89q48 13 89 34t70.5 47.5t46.5 56t17 59.5q0 42 -35 42zM270 651l130 119q36 33 67 33q17 0 27.5 -9t10.5 -26q0 -16 -13.5 -28.5t-37.5 -23.5l-137 -65h-47z" />
    <glyph glyph-name="ecircumflex" unicode="&#xea;" horiz-adv-x="456" 
d="M371 133q-87 -143 -214 -143q-69 0 -106 42.5t-37 120.5q0 69 28.5 138t74.5 124.5t103 90t114 34.5q48 0 78.5 -24.5t30.5 -62.5q0 -35 -26 -72t-70.5 -70t-104 -60t-126.5 -42q-2 -14 -3 -27.5t-1 -27.5q0 -109 77 -109q37 0 76.5 29t73.5 80zM314 493q-26 0 -54 -20
t-53.5 -53.5t-46.5 -76.5t-34 -89q48 13 89 34t70.5 47.5t46.5 56t17 59.5q0 42 -35 42zM422 780l84 -129h-45l-101 68l-137 -68h-45l154 129h90z" />
    <glyph glyph-name="edieresis" unicode="&#xeb;" horiz-adv-x="456" 
d="M371 133q-87 -143 -214 -143q-69 0 -106 42.5t-37 120.5q0 69 28.5 138t74.5 124.5t103 90t114 34.5q48 0 78.5 -24.5t30.5 -62.5q0 -35 -26 -72t-70.5 -70t-104 -60t-126.5 -42q-2 -14 -3 -27.5t-1 -27.5q0 -109 77 -109q37 0 76.5 29t73.5 80zM314 493q-26 0 -54 -20
t-53.5 -53.5t-46.5 -76.5t-34 -89q48 13 89 34t70.5 47.5t46.5 56t17 59.5q0 42 -35 42zM219 709q6 25 27 41.5t46 16.5q21 0 33 -12t12 -31q0 -15 -6.5 -28.5t-17.5 -23t-24.5 -15.5t-27.5 -6q-20 0 -32 11.5t-12 30.5v7.5t2 8.5zM386 709q6 25 27 41.5t46 16.5
q21 0 33 -12t12 -31q0 -15 -6.5 -28.5t-17.5 -23t-24.5 -15.5t-27.5 -6q-20 0 -32 11.5t-12 30.5v7.5t2 8.5z" />
    <glyph glyph-name="igrave" unicode="&#xec;" horiz-adv-x="344" 
d="M131 330q14 39 20 63t6 38t-4.5 18.5t-9.5 4.5q-11 0 -24 -10.5t-26 -24.5t-23 -28t-14 -22l-29 18q12 22 33.5 49t48.5 50t56 38.5t55 15.5q25 0 37.5 -14.5t12.5 -52.5q0 -29 -17 -77.5t-46 -126.5l-37 -101q-2 -5 -5.5 -15.5t-7 -22t-6 -22.5t-2.5 -18q0 -9 5 -16
t16 -7q15 0 31 12.5t31 29.5t27 34.5t18 27.5l30 -17q-12 -24 -32.5 -53t-46.5 -53.5t-57 -41t-64 -16.5q-29 0 -43.5 15t-14.5 50q0 29 9.5 62.5t27.5 84.5zM296 651l-119 65q-18 10 -28.5 20.5t-10.5 23.5q0 20 15.5 31.5t33.5 11.5q31 0 58 -33l98 -119h-47z" />
    <glyph glyph-name="iacute" unicode="&#xed;" horiz-adv-x="344" 
d="M131 330q14 39 20 63t6 38t-4.5 18.5t-9.5 4.5q-11 0 -24 -10.5t-26 -24.5t-23 -28t-14 -22l-29 18q12 22 33.5 49t48.5 50t56 38.5t55 15.5q25 0 37.5 -14.5t12.5 -52.5q0 -29 -17 -77.5t-46 -126.5l-37 -101q-2 -5 -5.5 -15.5t-7 -22t-6 -22.5t-2.5 -18q0 -9 5 -16
t16 -7q15 0 31 12.5t31 29.5t27 34.5t18 27.5l30 -17q-12 -24 -32.5 -53t-46.5 -53.5t-57 -41t-64 -16.5q-29 0 -43.5 15t-14.5 50q0 29 9.5 62.5t27.5 84.5zM174 651l130 119q36 33 67 33q17 0 27.5 -9t10.5 -26q0 -16 -13.5 -28.5t-37.5 -23.5l-137 -65h-47z" />
    <glyph glyph-name="icircumflex" unicode="&#xee;" horiz-adv-x="344" 
d="M131 330q14 39 20 63t6 38t-4.5 18.5t-9.5 4.5q-11 0 -24 -10.5t-26 -24.5t-23 -28t-14 -22l-29 18q12 22 33.5 49t48.5 50t56 38.5t55 15.5q25 0 37.5 -14.5t12.5 -52.5q0 -29 -17 -77.5t-46 -126.5l-37 -101q-2 -5 -5.5 -15.5t-7 -22t-6 -22.5t-2.5 -18q0 -9 5 -16
t16 -7q15 0 31 12.5t31 29.5t27 34.5t18 27.5l30 -17q-12 -24 -32.5 -53t-46.5 -53.5t-57 -41t-64 -16.5q-29 0 -43.5 15t-14.5 50q0 29 9.5 62.5t27.5 84.5zM326 780l84 -129h-45l-101 68l-137 -68h-45l154 129h90z" />
    <glyph glyph-name="idieresis" unicode="&#xef;" horiz-adv-x="344" 
d="M131 330q14 39 20 63t6 38t-4.5 18.5t-9.5 4.5q-11 0 -24 -10.5t-26 -24.5t-23 -28t-14 -22l-29 18q12 22 33.5 49t48.5 50t56 38.5t55 15.5q25 0 37.5 -14.5t12.5 -52.5q0 -29 -17 -77.5t-46 -126.5l-37 -101q-2 -5 -5.5 -15.5t-7 -22t-6 -22.5t-2.5 -18q0 -9 5 -16
t16 -7q15 0 31 12.5t31 29.5t27 34.5t18 27.5l30 -17q-12 -24 -32.5 -53t-46.5 -53.5t-57 -41t-64 -16.5q-29 0 -43.5 15t-14.5 50q0 29 9.5 62.5t27.5 84.5zM123 709q6 25 27 41.5t46 16.5q21 0 33 -12t12 -31q0 -15 -6.5 -28.5t-17.5 -23t-24.5 -15.5t-27.5 -6
q-20 0 -32 11.5t-12 30.5v7.5t2 8.5zM290 709q6 25 27 41.5t46 16.5q21 0 33 -12t12 -31q0 -15 -6.5 -28.5t-17.5 -23t-24.5 -15.5t-27.5 -6q-20 0 -32 11.5t-12 30.5v7.5t2 8.5z" />
    <glyph glyph-name="eth" unicode="&#xf0;" horiz-adv-x="581" 
d="M301 449q-26 0 -48.5 -14.5t-40 -38.5t-31 -55t-22.5 -64t-13.5 -65.5t-4.5 -59.5q0 -57 19 -87t56 -30q46 0 80.5 31.5t57 77.5t34 96.5t11.5 89.5q0 57 -25 88t-73 31zM252 780q44 -14 85 -30.5t71 -37.5l149 75l20 -38l-134 -68q53 -45 77.5 -109t24.5 -142
q0 -92 -28.5 -172.5t-76 -140t-109 -93.5t-127.5 -34q-42 0 -75.5 14t-57.5 39t-37 60t-13 77q0 63 24 121t64 101.5t90.5 69.5t103.5 26q109 0 131 -86l4 2q-1 80 -16 135t-48 97l-149 -75l-19 38l139 71q-18 17 -45.5 32.5t-74.5 33.5z" />
    <glyph glyph-name="ntilde" unicode="&#xf1;" horiz-adv-x="627" 
d="M425 488q-24 0 -54.5 -24.5t-62 -65t-60.5 -92.5t-49 -106l-74 -200h-88l74 229q18 55 30 94t19.5 65.5t10.5 43t3 26.5q0 27 -17 27q-11 0 -26 -14t-30.5 -36.5t-29.5 -51.5t-24 -59l-30 15q35 103 78.5 152t99.5 49q32 0 45.5 -18t13.5 -61q0 -51 -17 -91l3 -3
q51 90 103.5 131.5t114.5 41.5q44 0 67 -21t23 -60q0 -13 -2.5 -29t-8.5 -38.5t-16.5 -53.5t-25.5 -76q-23 -68 -38 -114t-15 -65q0 -15 10 -15q14 0 41 23t73 74l26 -14q-16 -30 -41.5 -58.5t-53 -51.5t-54.5 -37t-47 -14q-25 0 -39.5 22t-14.5 58q0 14 2.5 28.5t10.5 41.5
t23.5 72.5t42.5 120.5q9 26 15 44t9.5 31.5t5 23.5t1.5 19q0 37 -27 37zM212 660q8 51 37.5 82.5t67.5 31.5q15 0 36 -5.5t50 -18.5t44.5 -17.5t28.5 -4.5q17 0 27 9.5t17 32.5h33q-2 -20 -11 -43t-21 -39q-27 -36 -67 -36q-14 0 -31.5 5.5t-52.5 19.5q-34 13 -52 18t-30 5
q-17 0 -26 -9t-16 -31h-34z" />
    <glyph glyph-name="ograve" unicode="&#xf2;" horiz-adv-x="523" 
d="M187 -10q-34 0 -63.5 13.5t-51.5 39.5t-35 63.5t-13 84.5q0 65 24.5 128t64.5 112t91.5 79t106.5 30q36 0 66.5 -13.5t52 -39t34 -61t12.5 -78.5q0 -63 -25 -127t-65.5 -115t-92.5 -83.5t-106 -32.5zM193 40q34 0 67.5 35t60 88.5t43 116.5t16.5 120q0 53 -18.5 73
t-50.5 20q-22 0 -44.5 -15.5t-42.5 -42.5t-37.5 -62t-30.5 -74t-20 -79.5t-7 -77.5q0 -56 18 -79t46 -23zM383 651l-119 65q-18 10 -28.5 20.5t-10.5 23.5q0 20 15.5 31.5t33.5 11.5q31 0 58 -33l98 -119h-47z" />
    <glyph glyph-name="oacute" unicode="&#xf3;" horiz-adv-x="523" 
d="M187 -10q-34 0 -63.5 13.5t-51.5 39.5t-35 63.5t-13 84.5q0 65 24.5 128t64.5 112t91.5 79t106.5 30q36 0 66.5 -13.5t52 -39t34 -61t12.5 -78.5q0 -63 -25 -127t-65.5 -115t-92.5 -83.5t-106 -32.5zM193 40q34 0 67.5 35t60 88.5t43 116.5t16.5 120q0 53 -18.5 73
t-50.5 20q-22 0 -44.5 -15.5t-42.5 -42.5t-37.5 -62t-30.5 -74t-20 -79.5t-7 -77.5q0 -56 18 -79t46 -23zM261 651l130 119q36 33 67 33q17 0 27.5 -9t10.5 -26q0 -16 -13.5 -28.5t-37.5 -23.5l-137 -65h-47z" />
    <glyph glyph-name="ocircumflex" unicode="&#xf4;" horiz-adv-x="523" 
d="M187 -10q-34 0 -63.5 13.5t-51.5 39.5t-35 63.5t-13 84.5q0 65 24.5 128t64.5 112t91.5 79t106.5 30q36 0 66.5 -13.5t52 -39t34 -61t12.5 -78.5q0 -63 -25 -127t-65.5 -115t-92.5 -83.5t-106 -32.5zM193 40q34 0 67.5 35t60 88.5t43 116.5t16.5 120q0 53 -18.5 73
t-50.5 20q-22 0 -44.5 -15.5t-42.5 -42.5t-37.5 -62t-30.5 -74t-20 -79.5t-7 -77.5q0 -56 18 -79t46 -23zM441 780l84 -129h-45l-101 68l-137 -68h-45l154 129h90z" />
    <glyph glyph-name="otilde" unicode="&#xf5;" horiz-adv-x="523" 
d="M187 -10q-34 0 -63.5 13.5t-51.5 39.5t-35 63.5t-13 84.5q0 65 24.5 128t64.5 112t91.5 79t106.5 30q36 0 66.5 -13.5t52 -39t34 -61t12.5 -78.5q0 -63 -25 -127t-65.5 -115t-92.5 -83.5t-106 -32.5zM193 40q34 0 67.5 35t60 88.5t43 116.5t16.5 120q0 53 -18.5 73
t-50.5 20q-22 0 -44.5 -15.5t-42.5 -42.5t-37.5 -62t-30.5 -74t-20 -79.5t-7 -77.5q0 -56 18 -79t46 -23zM180 660q8 51 37.5 82.5t67.5 31.5q15 0 36 -5.5t50 -18.5t44.5 -17.5t28.5 -4.5q17 0 27 9.5t17 32.5h33q-2 -20 -11 -43t-21 -39q-27 -36 -67 -36q-14 0 -31.5 5.5
t-52.5 19.5q-34 13 -52 18t-30 5q-17 0 -26 -9t-16 -31h-34z" />
    <glyph glyph-name="odieresis" unicode="&#xf6;" horiz-adv-x="523" 
d="M187 -10q-34 0 -63.5 13.5t-51.5 39.5t-35 63.5t-13 84.5q0 65 24.5 128t64.5 112t91.5 79t106.5 30q36 0 66.5 -13.5t52 -39t34 -61t12.5 -78.5q0 -63 -25 -127t-65.5 -115t-92.5 -83.5t-106 -32.5zM193 40q34 0 67.5 35t60 88.5t43 116.5t16.5 120q0 53 -18.5 73
t-50.5 20q-22 0 -44.5 -15.5t-42.5 -42.5t-37.5 -62t-30.5 -74t-20 -79.5t-7 -77.5q0 -56 18 -79t46 -23zM235 709q6 25 27 41.5t46 16.5q21 0 33 -12t12 -31q0 -15 -6.5 -28.5t-17.5 -23t-24.5 -15.5t-27.5 -6q-20 0 -32 11.5t-12 30.5v7.5t2 8.5zM402 709q6 25 27 41.5
t46 16.5q21 0 33 -12t12 -31q0 -15 -6.5 -28.5t-17.5 -23t-24.5 -15.5t-27.5 -6q-20 0 -32 11.5t-12 30.5v7.5t2 8.5z" />
    <glyph glyph-name="divide" unicode="&#xf7;" horiz-adv-x="602" 
d="M243 162q0 28 19 47t46 19q28 0 47 -19t19 -47q0 -27 -19 -46t-47 -19q-27 0 -46 19t-19 46zM243 512q0 28 19 47t46 19q28 0 47 -19t19 -47q0 -27 -19 -46t-47 -19q-27 0 -46 19t-19 46zM540 313h-468v50h468v-50z" />
    <glyph glyph-name="oslash" unicode="&#xf8;" horiz-adv-x="523" 
d="M187 -10q-54 0 -95 33l-67 -84h-68l99 125q-15 25 -23.5 57t-8.5 70q0 65 24.5 128t64.5 112t91.5 79t106.5 30t96 -32l66 84h69l-98 -124q15 -24 23.5 -54.5t8.5 -65.5q0 -63 -25 -127t-65.5 -115t-92.5 -83.5t-106 -32.5zM193 40q33 0 65.5 33t59 84t43.5 112.5
t19 117.5l-242 -306q16 -41 55 -41zM311 493q-33 0 -64.5 -32t-57 -81.5t-42 -109t-18.5 -114.5l240 304q-9 18 -23.5 25.5t-34.5 7.5z" />
    <glyph glyph-name="ugrave" unicode="&#xf9;" horiz-adv-x="593" 
d="M169 62q16 0 42 22.5t55 60t56.5 85.5t46.5 100l74 200h93l-74 -229q-16 -50 -27 -85.5t-18 -60t-10 -40t-3 -24.5q0 -26 18 -26q10 0 24 9.5t28.5 26t28 37t23.5 43.5l30 -15q-13 -33 -34 -64.5t-45.5 -56.5t-51.5 -40t-53 -15q-31 0 -42 22t-11 63q0 17 1.5 36.5
t5.5 38.5l-3 3q-27 -48 -52.5 -79t-49.5 -50t-47 -26.5t-45 -7.5q-47 0 -65.5 26t-18.5 64q0 42 16 92.5t34 95.5t30.5 76t20 52t11 34t3.5 21q0 4 -1.5 7.5t-7.5 3.5q-13 0 -37.5 -23t-66.5 -74l-26 14q15 29 38 58t49 52t54 37t52 14q50 0 50 -58q0 -35 -19.5 -90.5
t-50.5 -132.5q-20 -49 -33 -88t-13 -71q0 -21 6 -29.5t15 -8.5zM404 651l-119 65q-18 10 -28.5 20.5t-10.5 23.5q0 20 15.5 31.5t33.5 11.5q31 0 58 -33l98 -119h-47z" />
    <glyph glyph-name="uacute" unicode="&#xfa;" horiz-adv-x="593" 
d="M169 62q16 0 42 22.5t55 60t56.5 85.5t46.5 100l74 200h93l-74 -229q-16 -50 -27 -85.5t-18 -60t-10 -40t-3 -24.5q0 -26 18 -26q10 0 24 9.5t28.5 26t28 37t23.5 43.5l30 -15q-13 -33 -34 -64.5t-45.5 -56.5t-51.5 -40t-53 -15q-31 0 -42 22t-11 63q0 17 1.5 36.5
t5.5 38.5l-3 3q-27 -48 -52.5 -79t-49.5 -50t-47 -26.5t-45 -7.5q-47 0 -65.5 26t-18.5 64q0 42 16 92.5t34 95.5t30.5 76t20 52t11 34t3.5 21q0 4 -1.5 7.5t-7.5 3.5q-13 0 -37.5 -23t-66.5 -74l-26 14q15 29 38 58t49 52t54 37t52 14q50 0 50 -58q0 -35 -19.5 -90.5
t-50.5 -132.5q-20 -49 -33 -88t-13 -71q0 -21 6 -29.5t15 -8.5zM282 651l130 119q36 33 67 33q17 0 27.5 -9t10.5 -26q0 -16 -13.5 -28.5t-37.5 -23.5l-137 -65h-47z" />
    <glyph glyph-name="ucircumflex" unicode="&#xfb;" horiz-adv-x="593" 
d="M169 62q16 0 42 22.5t55 60t56.5 85.5t46.5 100l74 200h93l-74 -229q-16 -50 -27 -85.5t-18 -60t-10 -40t-3 -24.5q0 -26 18 -26q10 0 24 9.5t28.5 26t28 37t23.5 43.5l30 -15q-13 -33 -34 -64.5t-45.5 -56.5t-51.5 -40t-53 -15q-31 0 -42 22t-11 63q0 17 1.5 36.5
t5.5 38.5l-3 3q-27 -48 -52.5 -79t-49.5 -50t-47 -26.5t-45 -7.5q-47 0 -65.5 26t-18.5 64q0 42 16 92.5t34 95.5t30.5 76t20 52t11 34t3.5 21q0 4 -1.5 7.5t-7.5 3.5q-13 0 -37.5 -23t-66.5 -74l-26 14q15 29 38 58t49 52t54 37t52 14q50 0 50 -58q0 -35 -19.5 -90.5
t-50.5 -132.5q-20 -49 -33 -88t-13 -71q0 -21 6 -29.5t15 -8.5zM434 780l84 -129h-45l-101 68l-137 -68h-45l154 129h90z" />
    <glyph glyph-name="udieresis" unicode="&#xfc;" horiz-adv-x="593" 
d="M169 62q16 0 42 22.5t55 60t56.5 85.5t46.5 100l74 200h93l-74 -229q-16 -50 -27 -85.5t-18 -60t-10 -40t-3 -24.5q0 -26 18 -26q10 0 24 9.5t28.5 26t28 37t23.5 43.5l30 -15q-13 -33 -34 -64.5t-45.5 -56.5t-51.5 -40t-53 -15q-31 0 -42 22t-11 63q0 17 1.5 36.5
t5.5 38.5l-3 3q-27 -48 -52.5 -79t-49.5 -50t-47 -26.5t-45 -7.5q-47 0 -65.5 26t-18.5 64q0 42 16 92.5t34 95.5t30.5 76t20 52t11 34t3.5 21q0 4 -1.5 7.5t-7.5 3.5q-13 0 -37.5 -23t-66.5 -74l-26 14q15 29 38 58t49 52t54 37t52 14q50 0 50 -58q0 -35 -19.5 -90.5
t-50.5 -132.5q-20 -49 -33 -88t-13 -71q0 -21 6 -29.5t15 -8.5zM231 709q6 25 27 41.5t46 16.5q21 0 33 -12t12 -31q0 -15 -6.5 -28.5t-17.5 -23t-24.5 -15.5t-27.5 -6q-20 0 -32 11.5t-12 30.5v7.5t2 8.5zM398 709q6 25 27 41.5t46 16.5q21 0 33 -12t12 -31
q0 -15 -6.5 -28.5t-17.5 -23t-24.5 -15.5t-27.5 -6q-20 0 -32 11.5t-12 30.5v7.5t2 8.5z" />
    <glyph glyph-name="yacute" unicode="&#xfd;" horiz-adv-x="515" 
d="M161 292q-16 82 -32.5 113.5t-34.5 31.5q-19 0 -34.5 -28.5t-31.5 -90.5l-37 10q10 46 26.5 85t36 67.5t41.5 44t44 15.5q19 0 32.5 -14t27.5 -52q12 -32 26.5 -84.5t28.5 -120.5l34 -161h4q19 24 38.5 54.5t35.5 64t26 68t10 64.5q0 10 -1 25.5t-2.5 31.5t-2.5 30.5
t-1 23.5q0 36 18 53t38 17q26 0 38 -22t12 -51q0 -41 -22 -105t-58 -137.5t-83 -150t-97 -140.5q-76 -99 -140.5 -146.5t-120.5 -47.5q-42 0 -66.5 23t-24.5 56q0 25 14 40.5t37 15.5q20 0 29.5 -11.5t15.5 -26t12.5 -26t20.5 -11.5q19 0 48 21t58 52.5t54.5 68.5t36.5 69z
M226 651l130 119q36 33 67 33q17 0 27.5 -9t10.5 -26q0 -16 -13.5 -28.5t-37.5 -23.5l-137 -65h-47z" />
    <glyph glyph-name="thorn" unicode="&#xfe;" horiz-adv-x="540" 
d="M164 -10q-47 0 -73 35l-3 -1l-37 -145q-4 -15 -6 -25t-2 -18q0 -25 20.5 -35t72.5 -11l-6 -40h-283l6 40q42 0 61 10t27 36l257 855q5 18 10 36.5t5 27.5q0 35 -76 35l8 30l192 9l-127 -385l3 -2q29 46 72.5 71.5t92.5 25.5q61 0 94 -38t33 -104q0 -47 -14 -96t-38.5 -94
t-57.5 -84.5t-70.5 -69t-79 -46.5t-81.5 -17zM180 41q23 0 49 16.5t51 44.5t48 65t40 77.5t27.5 82t10.5 78.5q0 35 -16 58t-39 23q-22 0 -47.5 -16.5t-50 -45t-47 -65t-40 -77t-27.5 -81.5t-10 -78q0 -82 51 -82z" />
    <glyph glyph-name="ydieresis" unicode="&#xff;" horiz-adv-x="515" 
d="M161 292q-16 82 -32.5 113.5t-34.5 31.5q-19 0 -34.5 -28.5t-31.5 -90.5l-37 10q10 46 26.5 85t36 67.5t41.5 44t44 15.5q19 0 32.5 -14t27.5 -52q12 -32 26.5 -84.5t28.5 -120.5l34 -161h4q19 24 38.5 54.5t35.5 64t26 68t10 64.5q0 10 -1 25.5t-2.5 31.5t-2.5 30.5
t-1 23.5q0 36 18 53t38 17q26 0 38 -22t12 -51q0 -41 -22 -105t-58 -137.5t-83 -150t-97 -140.5q-76 -99 -140.5 -146.5t-120.5 -47.5q-42 0 -66.5 23t-24.5 56q0 25 14 40.5t37 15.5q20 0 29.5 -11.5t15.5 -26t12.5 -26t20.5 -11.5q19 0 48 21t58 52.5t54.5 68.5t36.5 69z
M178 709q6 25 27 41.5t46 16.5q21 0 33 -12t12 -31q0 -15 -6.5 -28.5t-17.5 -23t-24.5 -15.5t-27.5 -6q-20 0 -32 11.5t-12 30.5v7.5t2 8.5zM345 709q6 25 27 41.5t46 16.5q21 0 33 -12t12 -31q0 -15 -6.5 -28.5t-17.5 -23t-24.5 -15.5t-27.5 -6q-20 0 -32 11.5t-12 30.5
v7.5t2 8.5z" />
    <glyph glyph-name="Amacron" unicode="&#x100;" 
d="M551 166q-12 -53 -12 -77q0 -29 19 -39t74 -10l-10 -40h-296l10 40q29 0 48 4.5t31.5 18t21.5 38.5t18 66l27 123h-215l-63 -66q-41 -43 -64.5 -69.5t-35.5 -42.5t-15 -24t-3 -14q0 -19 16.5 -26.5t58.5 -7.5l-10 -40h-259l10 40q24 0 47.5 9.5t51.5 31.5t63 58.5
t81 91.5l461 549h84zM491 340l82 310h-4l-259 -310h181zM540 880l13 50h270l-13 -50h-270z" />
    <glyph glyph-name="amacron" unicode="&#x101;" horiz-adv-x="570" 
d="M332 488q-38 0 -78.5 -35t-73.5 -87.5t-54 -113t-21 -112.5q0 -36 15 -57.5t41 -21.5q23 0 48 18.5t48.5 49t44.5 69.5t37 80.5t25 81.5t9 72q0 26 -11 41t-30 15zM435 530h83l-57 -153q-14 -38 -27.5 -81t-24 -83t-16.5 -73t-6 -49q0 -29 19 -29q14 0 40.5 29t59.5 75
l26 -21q-42 -74 -90.5 -114.5t-93.5 -40.5q-23 0 -35.5 17.5t-12.5 57.5q0 9 0.5 21t2.5 32l-4 1q-15 -28 -35.5 -51.5t-44.5 -41t-50 -27t-51 -9.5q-51 0 -79.5 38.5t-28.5 106.5q0 69 29 141t75 130.5t102 96t110 37.5q33 0 54 -15.5t34 -50.5zM228 702l13 50h270l-13 -50
h-270z" />
    <glyph glyph-name="Abreve" unicode="&#x102;" 
d="M551 166q-12 -53 -12 -77q0 -29 19 -39t74 -10l-10 -40h-296l10 40q29 0 48 4.5t31.5 18t21.5 38.5t18 66l27 123h-215l-63 -66q-41 -43 -64.5 -69.5t-35.5 -42.5t-15 -24t-3 -14q0 -19 16.5 -26.5t58.5 -7.5l-10 -40h-259l10 40q24 0 47.5 9.5t51.5 31.5t63 58.5
t81 91.5l461 549h84zM491 340l82 310h-4l-259 -310h181zM845 960q-9 -25 -26 -46t-39.5 -36.5t-49 -24t-54.5 -8.5q-51 0 -80.5 25t-29.5 65q0 11 3 25h36q2 -21 26.5 -33.5t62.5 -12.5t69 12.5t45 33.5h37z" />
    <glyph glyph-name="abreve" unicode="&#x103;" horiz-adv-x="570" 
d="M332 488q-38 0 -78.5 -35t-73.5 -87.5t-54 -113t-21 -112.5q0 -36 15 -57.5t41 -21.5q23 0 48 18.5t48.5 49t44.5 69.5t37 80.5t25 81.5t9 72q0 26 -11 41t-30 15zM435 530h83l-57 -153q-14 -38 -27.5 -81t-24 -83t-16.5 -73t-6 -49q0 -29 19 -29q14 0 40.5 29t59.5 75
l26 -21q-42 -74 -90.5 -114.5t-93.5 -40.5q-23 0 -35.5 17.5t-12.5 57.5q0 9 0.5 21t2.5 32l-4 1q-15 -28 -35.5 -51.5t-44.5 -41t-50 -27t-51 -9.5q-51 0 -79.5 38.5t-28.5 106.5q0 69 29 141t75 130.5t102 96t110 37.5q33 0 54 -15.5t34 -50.5zM525 776q-9 -29 -27 -52.5
t-41 -41t-50 -27t-55 -9.5q-50 0 -78.5 27t-28.5 71q0 17 4 32h36q2 -28 25 -44.5t60 -16.5q38 0 70 16.5t48 44.5h37z" />
    <glyph glyph-name="Aogonek" unicode="&#x104;" 
d="M552 -152q-31 -40 -71.5 -61t-85.5 -21q-46 0 -71.5 22.5t-25.5 62.5q0 44 32.5 82.5t92.5 66.5h-97l10 40q29 0 48 4.5t31.5 18t21.5 38.5t18 66l27 123h-215l-63 -66q-41 -43 -64.5 -69.5t-35.5 -42.5t-15 -24t-3 -14q0 -19 16.5 -26.5t58.5 -7.5l-10 -40h-259l10 40
q24 0 47.5 9.5t51.5 31.5t63 58.5t81 91.5l461 549h84l-139 -614q-12 -53 -12 -77q0 -29 19 -39t74 -10l-10 -40h-134q-50 -26 -80.5 -61t-30.5 -65q0 -20 15 -34t36 -14q19 0 44 13.5t51 39.5zM491 340l82 310h-4l-259 -310h181z" />
    <glyph glyph-name="aogonek" unicode="&#x105;" horiz-adv-x="570" 
d="M438 -152q-31 -40 -71.5 -61t-85.5 -21q-46 0 -71.5 22.5t-25.5 62.5q0 45 34.5 84.5t97.5 67.5q-16 17 -16 62q0 9 0.5 21t2.5 32l-4 1q-15 -28 -35.5 -51.5t-44.5 -41t-50 -27t-51 -9.5q-51 0 -79.5 38.5t-28.5 106.5q0 69 29 141t75 130.5t102 96t110 37.5
q33 0 54 -15.5t34 -50.5l21 56h83l-57 -153q-14 -38 -27.5 -81t-24 -83t-16.5 -73t-6 -49q0 -29 19 -29q14 0 40.5 29t59.5 75l26 -21q-39 -70 -85 -110t-90 -44q-42 -26 -68 -58t-26 -59q0 -20 15 -34t36 -14q19 0 44 13.5t51 39.5zM332 488q-38 0 -78.5 -35t-73.5 -87.5
t-54 -113t-21 -112.5q0 -36 15 -57.5t41 -21.5q23 0 48 18.5t48.5 49t44.5 69.5t37 80.5t25 81.5t9 72q0 26 -11 41t-30 15z" />
    <glyph glyph-name="Cacute" unicode="&#x106;" horiz-adv-x="728" 
d="M665 189q-35 -53 -68.5 -91t-69.5 -62t-76 -35t-86 -11q-68 0 -122 21.5t-91.5 62t-58 98t-20.5 129.5q0 95 35 181.5t93.5 152.5t135.5 105.5t161 39.5q48 0 91.5 -14.5t88.5 -45.5l37 50h37l-46 -251h-38q-8 109 -46.5 159t-115.5 50q-66 0 -123 -33t-99 -91t-66 -136
t-24 -168q0 -248 193 -248q72 0 130.5 39t111.5 122zM408 850l150 77q32 17 54 25t42 8q30 0 30 -25q0 -20 -23 -34t-66 -23l-127 -28h-60z" />
    <glyph glyph-name="cacute" unicode="&#x107;" horiz-adv-x="441" 
d="M373 161q-42 -83 -97.5 -127t-118.5 -44q-65 0 -104 44.5t-39 118.5q0 44 13 90t35 89t52 81t64 66t70.5 44.5t71.5 16.5q48 0 79 -26t31 -65q0 -25 -14.5 -40.5t-37.5 -15.5t-37.5 14.5t-14.5 35.5q0 13 4 21t4 15q0 14 -24 14q-33 0 -67 -31t-61.5 -80t-45 -109.5
t-17.5 -120.5q0 -48 18.5 -75.5t51.5 -27.5q18 0 37.5 10t39.5 27.5t38.5 41.5t33.5 53zM257 651l130 119q36 33 67 33q17 0 27.5 -9t10.5 -26q0 -16 -13.5 -28.5t-37.5 -23.5l-137 -65h-47z" />
    <glyph glyph-name="Ccircumflex" unicode="&#x108;" horiz-adv-x="728" 
d="M665 189q-35 -53 -68.5 -91t-69.5 -62t-76 -35t-86 -11q-68 0 -122 21.5t-91.5 62t-58 98t-20.5 129.5q0 95 35 181.5t93.5 152.5t135.5 105.5t161 39.5q48 0 91.5 -14.5t88.5 -45.5l37 50h37l-46 -251h-38q-8 109 -46.5 159t-115.5 50q-66 0 -123 -33t-99 -91t-66 -136
t-24 -168q0 -248 193 -248q72 0 130.5 39t111.5 122zM611 960l80 -109h-45l-105 54l-133 -54h-45l138 109h110z" />
    <glyph glyph-name="ccircumflex" unicode="&#x109;" horiz-adv-x="441" 
d="M373 161q-42 -83 -97.5 -127t-118.5 -44q-65 0 -104 44.5t-39 118.5q0 44 13 90t35 89t52 81t64 66t70.5 44.5t71.5 16.5q48 0 79 -26t31 -65q0 -25 -14.5 -40.5t-37.5 -15.5t-37.5 14.5t-14.5 35.5q0 13 4 21t4 15q0 14 -24 14q-33 0 -67 -31t-61.5 -80t-45 -109.5
t-17.5 -120.5q0 -48 18.5 -75.5t51.5 -27.5q18 0 37.5 10t39.5 27.5t38.5 41.5t33.5 53zM409 780l84 -129h-45l-101 68l-137 -68h-45l154 129h90z" />
    <glyph glyph-name="Cdotaccent" unicode="&#x10a;" horiz-adv-x="728" 
d="M665 189q-35 -53 -68.5 -91t-69.5 -62t-76 -35t-86 -11q-68 0 -122 21.5t-91.5 62t-58 98t-20.5 129.5q0 95 35 181.5t93.5 152.5t135.5 105.5t161 39.5q48 0 91.5 -14.5t88.5 -45.5l37 50h37l-46 -251h-38q-8 109 -46.5 159t-115.5 50q-66 0 -123 -33t-99 -91t-66 -136
t-24 -168q0 -248 193 -248q72 0 130.5 39t111.5 122zM500 904q0 23 15.5 39t36.5 16q23 0 39 -16t16 -39q0 -21 -16 -36.5t-39 -15.5q-21 0 -36.5 15.5t-15.5 36.5z" />
    <glyph glyph-name="cdotaccent" unicode="&#x10b;" horiz-adv-x="441" 
d="M373 161q-42 -83 -97.5 -127t-118.5 -44q-65 0 -104 44.5t-39 118.5q0 44 13 90t35 89t52 81t64 66t70.5 44.5t71.5 16.5q48 0 79 -26t31 -65q0 -25 -14.5 -40.5t-37.5 -15.5t-37.5 14.5t-14.5 35.5q0 13 4 21t4 15q0 14 -24 14q-33 0 -67 -31t-61.5 -80t-45 -109.5
t-17.5 -120.5q0 -48 18.5 -75.5t51.5 -27.5q18 0 37.5 10t39.5 27.5t38.5 41.5t33.5 53zM285 743q0 26 18 44t44 18t44 -18t18 -44t-18 -44t-44 -18t-44 18t-18 44z" />
    <glyph glyph-name="Ccaron" unicode="&#x10c;" horiz-adv-x="728" 
d="M665 189q-35 -53 -68.5 -91t-69.5 -62t-76 -35t-86 -11q-68 0 -122 21.5t-91.5 62t-58 98t-20.5 129.5q0 95 35 181.5t93.5 152.5t135.5 105.5t161 39.5q48 0 91.5 -14.5t88.5 -45.5l37 50h37l-46 -251h-38q-8 109 -46.5 159t-115.5 50q-66 0 -123 -33t-99 -91t-66 -136
t-24 -168q0 -248 193 -248q72 0 130.5 39t111.5 122zM467 851l-80 109h45l105 -54l133 54h45l-138 -109h-110z" />
    <glyph glyph-name="ccaron" unicode="&#x10d;" horiz-adv-x="441" 
d="M373 161q-42 -83 -97.5 -127t-118.5 -44q-65 0 -104 44.5t-39 118.5q0 44 13 90t35 89t52 81t64 66t70.5 44.5t71.5 16.5q48 0 79 -26t31 -65q0 -25 -14.5 -40.5t-37.5 -15.5t-37.5 14.5t-14.5 35.5q0 13 4 21t4 15q0 14 -24 14q-33 0 -67 -31t-61.5 -80t-45 -109.5
t-17.5 -120.5q0 -48 18.5 -75.5t51.5 -27.5q18 0 37.5 10t39.5 27.5t38.5 41.5t33.5 53zM284 651l-84 129h45l101 -68l137 68h45l-154 -129h-90z" />
    <glyph glyph-name="Dcaron" unicode="&#x10e;" horiz-adv-x="836" 
d="M165 770h271q69 0 134 -16.5t118 -60.5q57 -47 83 -111.5t26 -134.5q0 -45 -10.5 -90.5t-29 -88t-44 -80t-55.5 -67.5q-70 -69 -155 -95t-182 -26h-350l11 40q32 0 53.5 4t36 16.5t25 35.5t20.5 62l115 442q2 7 5.5 18t7.5 24t6.5 25t2.5 21q0 15 -8.5 23t-21 12.5
t-27 5.5t-26.5 1h-19zM237 231q-8 -30 -13 -49.5t-7.5 -32t-3.5 -19.5t-1 -12q0 -27 11.5 -41.5t27.5 -22t33 -9t28 -1.5q65 0 118 18t94 49.5t70.5 72.5t49 87t28.5 93.5t9 92.5q0 126 -67.5 194.5t-185.5 68.5q-29 0 -46.5 -8.5t-26.5 -42.5zM433 851l-80 109h45l105 -54
l133 54h45l-138 -109h-110z" />
    <glyph glyph-name="dcaron" unicode="&#x10f;" horiz-adv-x="598" 
d="M468 692q8 27 12 45t4 26q0 15 -20 21t-72 6l11 40h193l-111 -405q-21 -78 -35 -133t-22.5 -92.5t-11.5 -61.5t-3 -40q0 -23 7 -32t18 -9q22 0 47.5 37t45.5 97l38 -9q-34 -99 -74.5 -145.5t-91.5 -46.5q-36 0 -55.5 23t-19.5 66q0 11 2 23t5 23l-8 2q-38 -66 -92 -101.5
t-103 -35.5q-26 0 -48 11.5t-38 32t-25.5 49t-9.5 63.5q0 43 13.5 89.5t37 90t54.5 82.5t65.5 68.5t71 46.5t71.5 17q34 0 51.5 -13t34.5 -41zM331 487q-26 0 -52.5 -16.5t-51.5 -44t-46.5 -63.5t-37.5 -75t-25.5 -79t-9.5 -75q0 -36 18 -57.5t48 -21.5q23 0 47 18.5
t47 48.5t43.5 68.5t36 79t24.5 80t9 71.5q0 31 -12 48.5t-38 17.5zM607 610q39 19 59.5 37.5t26.5 40.5q-11 -8 -28 -8q-33 0 -33 31q0 29 22.5 49t52.5 20q46 0 46 -47q0 -42 -29 -78.5t-102 -70.5z" />
    <glyph glyph-name="Dcroat" unicode="&#x110;" horiz-adv-x="839" 
d="M168 770h271q69 0 134 -16.5t118 -60.5q57 -47 83 -111.5t26 -134.5q0 -45 -10.5 -90.5t-29 -88t-44 -80t-55.5 -67.5q-70 -69 -155 -95t-182 -26h-350l11 40q32 0 53.5 4t36 16.5t25 35.5t20.5 62l54 208h-93l13 50h93l48 184q2 7 5.5 18t7.5 24t6.5 25t2.5 21
q0 15 -8.5 23t-21 12.5t-27 5.5t-26.5 1h-19zM290 416h114l-13 -50h-115l-36 -135q-8 -30 -13 -49.5t-7.5 -32t-3.5 -19.5t-1 -12q0 -27 11.5 -41.5t27.5 -22t33 -9t28 -1.5q65 0 118 18t94 49.5t70.5 72.5t49 87t28.5 93.5t9 92.5q0 126 -67.5 194.5t-185.5 68.5
q-29 0 -46.5 -8.5t-26.5 -42.5z" />
    <glyph glyph-name="dcroat" unicode="&#x111;" horiz-adv-x="598" 
d="M453 639h-113l15 53h113q8 27 12 45t4 26q0 15 -20 21t-72 6l11 40h193l-38 -138h76l-15 -53h-76l-58 -214q-21 -78 -35 -133t-22.5 -92.5t-11.5 -61.5t-3 -40q0 -23 7 -32t18 -9q22 0 47.5 37t45.5 97l38 -9q-34 -99 -74.5 -145.5t-91.5 -46.5q-36 0 -55.5 23t-19.5 66
q0 11 2 23t5 23l-8 2q-38 -66 -92 -101.5t-103 -35.5q-26 0 -48 11.5t-38 32t-25.5 49t-9.5 63.5q0 43 13.5 89.5t37 90t54.5 82.5t65.5 68.5t71 46.5t71.5 17q34 0 51.5 -13t34.5 -41zM331 487q-26 0 -52.5 -16.5t-51.5 -44t-46.5 -63.5t-37.5 -75t-25.5 -79t-9.5 -75
q0 -36 18 -57.5t48 -21.5q23 0 47 18.5t47 48.5t43.5 68.5t36 79t24.5 80t9 71.5q0 31 -12 48.5t-38 17.5z" />
    <glyph glyph-name="Emacron" unicode="&#x112;" horiz-adv-x="740" 
d="M-15 40q33 0 54.5 5t36 18.5t24.5 36t19 58.5l116 441q7 26 10.5 45t3.5 33q0 33 -23 43t-77 10l11 40h546v-202h-38q-13 48 -29 78.5t-36.5 48t-46 24.5t-56.5 7h-130l-78 -297h63q27 0 46 5t34.5 17.5t29 34.5t29.5 57h37l-60 -296h-40q3 30 3 52q0 45 -17 65.5
t-63 20.5h-75l-57 -215q-9 -33 -9 -56q0 -36 32 -53.5t110 -17.5q57 0 99.5 9t74 28.5t55 51.5t44.5 79h47l-78 -211h-623zM351 880l13 50h270l-13 -50h-270z" />
    <glyph glyph-name="emacron" unicode="&#x113;" horiz-adv-x="456" 
d="M371 133q-87 -143 -214 -143q-69 0 -106 42.5t-37 120.5q0 69 28.5 138t74.5 124.5t103 90t114 34.5q48 0 78.5 -24.5t30.5 -62.5q0 -35 -26 -72t-70.5 -70t-104 -60t-126.5 -42q-2 -14 -3 -27.5t-1 -27.5q0 -109 77 -109q37 0 76.5 29t73.5 80zM314 493q-26 0 -54 -20
t-53.5 -53.5t-46.5 -76.5t-34 -89q48 13 89 34t70.5 47.5t46.5 56t17 59.5q0 42 -35 42zM218 702l13 50h270l-13 -50h-270z" />
    <glyph glyph-name="Ebreve" unicode="&#x114;" horiz-adv-x="740" 
d="M-15 40q33 0 54.5 5t36 18.5t24.5 36t19 58.5l116 441q7 26 10.5 45t3.5 33q0 33 -23 43t-77 10l11 40h546v-202h-38q-13 48 -29 78.5t-36.5 48t-46 24.5t-56.5 7h-130l-78 -297h63q27 0 46 5t34.5 17.5t29 34.5t29.5 57h37l-60 -296h-40q3 30 3 52q0 45 -17 65.5
t-63 20.5h-75l-57 -215q-9 -33 -9 -56q0 -36 32 -53.5t110 -17.5q57 0 99.5 9t74 28.5t55 51.5t44.5 79h47l-78 -211h-623zM654 960q-9 -25 -26 -46t-39.5 -36.5t-49 -24t-54.5 -8.5q-51 0 -80.5 25t-29.5 65q0 11 3 25h36q2 -21 26.5 -33.5t62.5 -12.5t69 12.5t45 33.5h37z
" />
    <glyph glyph-name="ebreve" unicode="&#x115;" horiz-adv-x="456" 
d="M371 133q-87 -143 -214 -143q-69 0 -106 42.5t-37 120.5q0 69 28.5 138t74.5 124.5t103 90t114 34.5q48 0 78.5 -24.5t30.5 -62.5q0 -35 -26 -72t-70.5 -70t-104 -60t-126.5 -42q-2 -14 -3 -27.5t-1 -27.5q0 -109 77 -109q37 0 76.5 29t73.5 80zM314 493q-26 0 -54 -20
t-53.5 -53.5t-46.5 -76.5t-34 -89q48 13 89 34t70.5 47.5t46.5 56t17 59.5q0 42 -35 42zM515 776q-9 -29 -27 -52.5t-41 -41t-50 -27t-55 -9.5q-50 0 -78.5 27t-28.5 71q0 17 4 32h36q2 -28 25 -44.5t60 -16.5q38 0 70 16.5t48 44.5h37z" />
    <glyph glyph-name="Edotaccent" unicode="&#x116;" horiz-adv-x="740" 
d="M-15 40q33 0 54.5 5t36 18.5t24.5 36t19 58.5l116 441q7 26 10.5 45t3.5 33q0 33 -23 43t-77 10l11 40h546v-202h-38q-13 48 -29 78.5t-36.5 48t-46 24.5t-56.5 7h-130l-78 -297h63q27 0 46 5t34.5 17.5t29 34.5t29.5 57h37l-60 -296h-40q3 30 3 52q0 45 -17 65.5
t-63 20.5h-75l-57 -215q-9 -33 -9 -56q0 -36 32 -53.5t110 -17.5q57 0 99.5 9t74 28.5t55 51.5t44.5 79h47l-78 -211h-623zM456 904q0 23 15.5 39t36.5 16q23 0 39 -16t16 -39q0 -21 -16 -36.5t-39 -15.5q-21 0 -36.5 15.5t-15.5 36.5z" />
    <glyph glyph-name="edotaccent" unicode="&#x117;" horiz-adv-x="456" 
d="M371 133q-87 -143 -214 -143q-69 0 -106 42.5t-37 120.5q0 69 28.5 138t74.5 124.5t103 90t114 34.5q48 0 78.5 -24.5t30.5 -62.5q0 -35 -26 -72t-70.5 -70t-104 -60t-126.5 -42q-2 -14 -3 -27.5t-1 -27.5q0 -109 77 -109q37 0 76.5 29t73.5 80zM314 493q-26 0 -54 -20
t-53.5 -53.5t-46.5 -76.5t-34 -89q48 13 89 34t70.5 47.5t46.5 56t17 59.5q0 42 -35 42zM298 743q0 26 18 44t44 18t44 -18t18 -44t-18 -44t-44 -18t-44 18t-18 44z" />
    <glyph glyph-name="Eogonek" unicode="&#x118;" horiz-adv-x="740" 
d="M-15 40q33 0 54.5 5t36 18.5t24.5 36t19 58.5l116 441q7 26 10.5 45t3.5 33q0 33 -23 43t-77 10l11 40h546v-202h-38q-13 48 -29 78.5t-36.5 48t-46 24.5t-56.5 7h-130l-78 -297h63q27 0 46 5t34.5 17.5t29 34.5t29.5 57h37l-60 -296h-40q3 30 3 52q0 45 -17 65.5
t-63 20.5h-75l-57 -215q-9 -33 -9 -56q0 -36 32 -53.5t110 -17.5q57 0 99.5 9t74 28.5t55 51.5t44.5 79h47l-78 -211h-271q-50 -26 -80.5 -61t-30.5 -65q0 -20 15 -34t36 -14q19 0 44 13.5t51 39.5l29 -31q-31 -40 -71.5 -61t-85.5 -21q-46 0 -71.5 22.5t-25.5 62.5
q0 44 32.5 82.5t92.5 66.5h-287z" />
    <glyph glyph-name="eogonek" unicode="&#x119;" horiz-adv-x="456" 
d="M240 -152q-31 -40 -71.5 -61t-85.5 -21q-46 0 -71.5 22.5t-25.5 62.5q0 42 31.5 80.5t88.5 66.5q-45 14 -68.5 53.5t-23.5 101.5q0 69 28.5 138t74.5 124.5t103 90t114 34.5q48 0 78.5 -24.5t30.5 -62.5q0 -35 -26 -72t-70.5 -70t-104 -60t-126.5 -42q-2 -14 -3 -27.5
t-1 -27.5q0 -109 77 -109q37 0 76.5 29t73.5 80l32 -21q-86 -141 -213 -143q-42 -26 -67.5 -57.5t-25.5 -58.5q0 -20 15 -34t36 -14q19 0 44 13.5t51 39.5zM314 493q-26 0 -54 -20t-53.5 -53.5t-46.5 -76.5t-34 -89q48 13 89 34t70.5 47.5t46.5 56t17 59.5q0 42 -35 42z" />
    <glyph glyph-name="Ecaron" unicode="&#x11a;" horiz-adv-x="740" 
d="M-15 40q33 0 54.5 5t36 18.5t24.5 36t19 58.5l116 441q7 26 10.5 45t3.5 33q0 33 -23 43t-77 10l11 40h546v-202h-38q-13 48 -29 78.5t-36.5 48t-46 24.5t-56.5 7h-130l-78 -297h63q27 0 46 5t34.5 17.5t29 34.5t29.5 57h37l-60 -296h-40q3 30 3 52q0 45 -17 65.5
t-63 20.5h-75l-57 -215q-9 -33 -9 -56q0 -36 32 -53.5t110 -17.5q57 0 99.5 9t74 28.5t55 51.5t44.5 79h47l-78 -211h-623zM423 851l-80 109h45l105 -54l133 54h45l-138 -109h-110z" />
    <glyph glyph-name="ecaron" unicode="&#x11b;" horiz-adv-x="456" 
d="M371 133q-87 -143 -214 -143q-69 0 -106 42.5t-37 120.5q0 69 28.5 138t74.5 124.5t103 90t114 34.5q48 0 78.5 -24.5t30.5 -62.5q0 -35 -26 -72t-70.5 -70t-104 -60t-126.5 -42q-2 -14 -3 -27.5t-1 -27.5q0 -109 77 -109q37 0 76.5 29t73.5 80zM314 493q-26 0 -54 -20
t-53.5 -53.5t-46.5 -76.5t-34 -89q48 13 89 34t70.5 47.5t46.5 56t17 59.5q0 42 -35 42zM297 651l-84 129h45l101 -68l137 68h45l-154 -129h-90z" />
    <glyph glyph-name="Gcircumflex" unicode="&#x11c;" horiz-adv-x="809" 
d="M387 44q42 0 77.5 11.5t62 34t41 55.5t14.5 77q0 40 -17.5 59t-67.5 19l9 39h274l-10 -39q-21 0 -35.5 -3t-25.5 -16.5t-21 -40.5t-22 -74q-8 -29 -15 -58.5t-8 -58.5q-23 -4 -48.5 -13.5t-58 -19.5t-74.5 -18t-97 -8q-68 0 -122 21.5t-91.5 62t-58 98t-20.5 129.5
q0 95 36.5 181.5t98 152.5t142 105.5t168.5 39.5q54 0 102.5 -14.5t97.5 -45.5l37 50h37l-36 -220h-38q-10 92 -55.5 135t-136.5 43q-70 0 -130.5 -33t-105.5 -91t-70.5 -136t-25.5 -168q0 -256 193 -256zM627 960l80 -109h-45l-105 54l-133 -54h-45l138 109h110z" />
    <glyph glyph-name="gcircumflex" unicode="&#x11d;" horiz-adv-x="550" 
d="M435 -73q0 -43 -18.5 -77.5t-53 -59t-83.5 -37.5t-110 -13q-55 0 -100 10t-77.5 29t-50 44.5t-17.5 57.5q0 41 26.5 68t67.5 27q12 0 23 -3t28 -11q-56 -23 -56 -87q0 -42 42.5 -66t116.5 -24q40 0 74 9t58.5 23t38 31.5t13.5 34.5q0 28 -33.5 50.5t-94.5 33.5
q-109 19 -160 44t-51 70q0 29 25.5 49t91.5 40l2 4q-76 54 -76 139q0 46 19 87.5t51.5 73t76 49.5t91.5 18q74 0 124 -54q47 53 91 53q32 0 56 -19.5t24 -45.5q0 -20 -13.5 -33.5t-33.5 -13.5q-15 0 -23.5 6.5t-14.5 14.5t-13.5 14.5t-20.5 6.5q-7 0 -13 -2.5t-22 -13.5
q5 -14 7 -26.5t2 -31.5q0 -110 -61 -175.5t-168 -73.5q-48 -4 -68.5 -12t-20.5 -24q0 -21 22.5 -31.5t56.5 -17.5t73 -14t73 -20.5t56.5 -37t22.5 -63.5zM225 191q24 0 47 19t41.5 50.5t29.5 71.5t11 82q0 40 -18 63.5t-47 23.5q-23 0 -47 -20.5t-43.5 -52.5t-31.5 -72.5
t-12 -79.5q0 -38 19 -61.5t51 -23.5zM406 780l84 -129h-45l-101 68l-137 -68h-45l154 129h90z" />
    <glyph glyph-name="Gbreve" unicode="&#x11e;" horiz-adv-x="809" 
d="M387 44q42 0 77.5 11.5t62 34t41 55.5t14.5 77q0 40 -17.5 59t-67.5 19l9 39h274l-10 -39q-21 0 -35.5 -3t-25.5 -16.5t-21 -40.5t-22 -74q-8 -29 -15 -58.5t-8 -58.5q-23 -4 -48.5 -13.5t-58 -19.5t-74.5 -18t-97 -8q-68 0 -122 21.5t-91.5 62t-58 98t-20.5 129.5
q0 95 36.5 181.5t98 152.5t142 105.5t168.5 39.5q54 0 102.5 -14.5t97.5 -45.5l37 50h37l-36 -220h-38q-10 92 -55.5 135t-136.5 43q-70 0 -130.5 -33t-105.5 -91t-70.5 -136t-25.5 -168q0 -256 193 -256zM714 960q-9 -25 -26 -46t-39.5 -36.5t-49 -24t-54.5 -8.5
q-51 0 -80.5 25t-29.5 65q0 11 3 25h36q2 -21 26.5 -33.5t62.5 -12.5t69 12.5t45 33.5h37z" />
    <glyph glyph-name="gbreve" unicode="&#x11f;" horiz-adv-x="550" 
d="M435 -73q0 -43 -18.5 -77.5t-53 -59t-83.5 -37.5t-110 -13q-55 0 -100 10t-77.5 29t-50 44.5t-17.5 57.5q0 41 26.5 68t67.5 27q12 0 23 -3t28 -11q-56 -23 -56 -87q0 -42 42.5 -66t116.5 -24q40 0 74 9t58.5 23t38 31.5t13.5 34.5q0 28 -33.5 50.5t-94.5 33.5
q-109 19 -160 44t-51 70q0 29 25.5 49t91.5 40l2 4q-76 54 -76 139q0 46 19 87.5t51.5 73t76 49.5t91.5 18q74 0 124 -54q47 53 91 53q32 0 56 -19.5t24 -45.5q0 -20 -13.5 -33.5t-33.5 -13.5q-15 0 -23.5 6.5t-14.5 14.5t-13.5 14.5t-20.5 6.5q-7 0 -13 -2.5t-22 -13.5
q5 -14 7 -26.5t2 -31.5q0 -110 -61 -175.5t-168 -73.5q-48 -4 -68.5 -12t-20.5 -24q0 -21 22.5 -31.5t56.5 -17.5t73 -14t73 -20.5t56.5 -37t22.5 -63.5zM225 191q24 0 47 19t41.5 50.5t29.5 71.5t11 82q0 40 -18 63.5t-47 23.5q-23 0 -47 -20.5t-43.5 -52.5t-31.5 -72.5
t-12 -79.5q0 -38 19 -61.5t51 -23.5zM499 776q-9 -29 -27 -52.5t-41 -41t-50 -27t-55 -9.5q-50 0 -78.5 27t-28.5 71q0 17 4 32h36q2 -28 25 -44.5t60 -16.5q38 0 70 16.5t48 44.5h37z" />
    <glyph glyph-name="Gdotaccent" unicode="&#x120;" horiz-adv-x="809" 
d="M387 44q42 0 77.5 11.5t62 34t41 55.5t14.5 77q0 40 -17.5 59t-67.5 19l9 39h274l-10 -39q-21 0 -35.5 -3t-25.5 -16.5t-21 -40.5t-22 -74q-8 -29 -15 -58.5t-8 -58.5q-23 -4 -48.5 -13.5t-58 -19.5t-74.5 -18t-97 -8q-68 0 -122 21.5t-91.5 62t-58 98t-20.5 129.5
q0 95 36.5 181.5t98 152.5t142 105.5t168.5 39.5q54 0 102.5 -14.5t97.5 -45.5l37 50h37l-36 -220h-38q-10 92 -55.5 135t-136.5 43q-70 0 -130.5 -33t-105.5 -91t-70.5 -136t-25.5 -168q0 -256 193 -256zM514 904q0 23 15.5 39t36.5 16q23 0 39 -16t16 -39q0 -21 -16 -36.5
t-39 -15.5q-21 0 -36.5 15.5t-15.5 36.5z" />
    <glyph glyph-name="gdotaccent" unicode="&#x121;" horiz-adv-x="550" 
d="M435 -73q0 -43 -18.5 -77.5t-53 -59t-83.5 -37.5t-110 -13q-55 0 -100 10t-77.5 29t-50 44.5t-17.5 57.5q0 41 26.5 68t67.5 27q12 0 23 -3t28 -11q-56 -23 -56 -87q0 -42 42.5 -66t116.5 -24q40 0 74 9t58.5 23t38 31.5t13.5 34.5q0 28 -33.5 50.5t-94.5 33.5
q-109 19 -160 44t-51 70q0 29 25.5 49t91.5 40l2 4q-76 54 -76 139q0 46 19 87.5t51.5 73t76 49.5t91.5 18q74 0 124 -54q47 53 91 53q32 0 56 -19.5t24 -45.5q0 -20 -13.5 -33.5t-33.5 -13.5q-15 0 -23.5 6.5t-14.5 14.5t-13.5 14.5t-20.5 6.5q-7 0 -13 -2.5t-22 -13.5
q5 -14 7 -26.5t2 -31.5q0 -110 -61 -175.5t-168 -73.5q-48 -4 -68.5 -12t-20.5 -24q0 -21 22.5 -31.5t56.5 -17.5t73 -14t73 -20.5t56.5 -37t22.5 -63.5zM225 191q24 0 47 19t41.5 50.5t29.5 71.5t11 82q0 40 -18 63.5t-47 23.5q-23 0 -47 -20.5t-43.5 -52.5t-31.5 -72.5
t-12 -79.5q0 -38 19 -61.5t51 -23.5zM282 743q0 26 18 44t44 18t44 -18t18 -44t-18 -44t-44 -18t-44 18t-18 44z" />
    <glyph glyph-name="Gcommaaccent" unicode="&#x122;" horiz-adv-x="809" 
d="M387 44q42 0 77.5 11.5t62 34t41 55.5t14.5 77q0 40 -17.5 59t-67.5 19l9 39h274l-10 -39q-21 0 -35.5 -3t-25.5 -16.5t-21 -40.5t-22 -74q-8 -29 -15 -58.5t-8 -58.5q-23 -4 -48.5 -13.5t-58 -19.5t-74.5 -18t-97 -8q-68 0 -122 21.5t-91.5 62t-58 98t-20.5 129.5
q0 95 36.5 181.5t98 152.5t142 105.5t168.5 39.5q54 0 102.5 -14.5t97.5 -45.5l37 50h37l-36 -220h-38q-10 92 -55.5 135t-136.5 43q-70 0 -130.5 -33t-105.5 -91t-70.5 -136t-25.5 -168q0 -256 193 -256zM287 -224q34 19 49.5 37.5t15.5 40.5q-10 -8 -26 -8q-20 0 -32 13
t-12 34q0 23 16.5 38t42.5 15q30 0 46.5 -20.5t16.5 -58.5q0 -32 -21.5 -60.5t-73.5 -56.5z" />
    <glyph glyph-name="gcommaaccent" unicode="&#x123;" horiz-adv-x="550" 
d="M399 821q-34 -19 -49.5 -37.5t-15.5 -40.5q10 8 26 8q20 0 32 -13t12 -34q0 -23 -16.5 -38t-42.5 -15q-30 0 -46.5 20.5t-16.5 58.5q0 32 21.5 60.5t73.5 56.5zM435 -73q0 -43 -18.5 -77.5t-53 -59t-83.5 -37.5t-110 -13q-55 0 -100 10t-77.5 29t-50 44.5t-17.5 57.5
q0 41 26.5 68t67.5 27q12 0 23 -3t28 -11q-56 -23 -56 -87q0 -42 42.5 -66t116.5 -24q40 0 74 9t58.5 23t38 31.5t13.5 34.5q0 28 -33.5 50.5t-94.5 33.5q-109 19 -160 44t-51 70q0 29 25.5 49t91.5 40l2 4q-76 54 -76 139q0 46 19 87.5t51.5 73t76 49.5t91.5 18
q74 0 124 -54q47 53 91 53q32 0 56 -19.5t24 -45.5q0 -20 -13.5 -33.5t-33.5 -13.5q-15 0 -23.5 6.5t-14.5 14.5t-13.5 14.5t-20.5 6.5q-7 0 -13 -2.5t-22 -13.5q5 -14 7 -26.5t2 -31.5q0 -110 -61 -175.5t-168 -73.5q-48 -4 -68.5 -12t-20.5 -24q0 -21 22.5 -31.5
t56.5 -17.5t73 -14t73 -20.5t56.5 -37t22.5 -63.5zM225 191q24 0 47 19t41.5 50.5t29.5 71.5t11 82q0 40 -18 63.5t-47 23.5q-23 0 -47 -20.5t-43.5 -52.5t-31.5 -72.5t-12 -79.5q0 -38 19 -61.5t51 -23.5z" />
    <glyph glyph-name="Hcircumflex" unicode="&#x124;" horiz-adv-x="911" 
d="M715 168q-12 -44 -12 -70q0 -34 21.5 -46t69.5 -12l-12 -40h-319l11 40q30 0 51 4.5t36.5 17.5t26.5 36t21 60l55 209h-388l-52 -199q-12 -44 -12 -70q0 -34 21.5 -46t69.5 -12l-12 -40h-319l11 40q30 0 51 4.5t36.5 17.5t26.5 36t21 60l117 442q15 55 15 82
q0 31 -22.5 39.5t-76.5 8.5l11 40h325l-11 -40q-33 0 -55 -6.5t-38 -24.5t-28.5 -50t-25.5 -83l-39 -148h388l48 182q15 55 15 82q0 31 -22.5 39.5t-76.5 8.5l11 40h325l-11 -40q-33 0 -55 -6.5t-38 -24.5t-28.5 -50t-25.5 -83zM681 960l80 -109h-45l-105 54l-133 -54h-45
l138 109h110z" />
    <glyph glyph-name="hcircumflex" unicode="&#x125;" horiz-adv-x="574" 
d="M527 780l64 -129h-45l-81 68l-117 -68h-45l134 129h90zM356 311q17 51 24.5 81t7.5 53t-7.5 32.5t-25.5 9.5q-31 0 -61 -24t-60.5 -75t-63.5 -130t-70 -189l-23 -69h-84l198 678q7 25 11 44t4 30q0 20 -19 28t-70 10l7 40h204l-114 -386l3 -2q32 47 74 72.5t88 25.5
q48 0 73 -28t25 -81q0 -33 -10 -77t-31 -101q-20 -54 -31 -85t-16 -47.5t-6.5 -22.5t-1.5 -10q0 -23 19 -23q20 0 49.5 23.5t59.5 65.5l28 -21q-16 -29 -39.5 -55t-51 -45.5t-56 -31t-53.5 -11.5q-27 0 -39 15t-12 48q0 17 3 36t10.5 47.5t21 70t35.5 104.5z" />
    <glyph glyph-name="Hbar" unicode="&#x126;" horiz-adv-x="913" 
d="M815 541l-98 -373q-12 -44 -12 -70q0 -34 21.5 -46t69.5 -12l-12 -40h-319l11 40q30 0 51 4.5t36.5 17.5t26.5 36t21 60l55 209h-388l-52 -199q-12 -44 -12 -70q0 -34 21.5 -46t69.5 -12l-12 -40h-319l11 40q30 0 51 4.5t36.5 17.5t26.5 36t21 60l101 383h-106l13 50h106
l3 9q15 55 15 82q0 31 -22.5 39.5t-76.5 8.5l11 40h325l-11 -40q-31 0 -52.5 -5.5t-37 -21t-27 -42.5t-23.5 -70h387l3 9q15 55 15 82q0 31 -22.5 39.5t-76.5 8.5l11 40h325l-11 -40q-31 0 -52.5 -5.5t-37 -21t-27 -42.5t-23.5 -70h113l-13 -50h-114zM680 418l32 123h-388
l-32 -123h388z" />
    <glyph glyph-name="hbar" unicode="&#x127;" horiz-adv-x="574" 
d="M356 311q17 51 24.5 81t7.5 53t-7.5 32.5t-25.5 9.5q-31 0 -61 -24t-60.5 -75t-63.5 -130t-70 -189l-23 -69h-84l184 630h-88l13 50h89q7 24 11 42.5t4 29.5q0 20 -19 28t-70 10l7 40h204l-45 -150h119l-13 -50h-120l-55 -186l3 -2q32 47 74 72.5t88 25.5q48 0 73 -28
t25 -81q0 -33 -10 -77t-31 -101q-20 -54 -31 -85t-16 -47.5t-6.5 -22.5t-1.5 -10q0 -23 19 -23q20 0 49.5 23.5t59.5 65.5l28 -21q-16 -29 -39.5 -55t-51 -45.5t-56 -31t-53.5 -11.5q-27 0 -39 15t-12 48q0 17 3 36t10.5 47.5t21 70t35.5 104.5z" />
    <glyph glyph-name="Itilde" unicode="&#x128;" horiz-adv-x="420" 
d="M224 168q-12 -44 -12 -70q0 -34 21.5 -46t69.5 -12l-12 -40h-319l11 40q30 0 51 4.5t36.5 17.5t26.5 36t21 60l117 442q15 55 15 82q0 31 -22.5 39.5t-76.5 8.5l11 40h325l-11 -40q-33 0 -55 -6.5t-38 -24.5t-28.5 -50t-25.5 -83zM188 846q8 51 37.5 82.5t67.5 31.5
q22 0 43 -7t41 -16t38.5 -16t36.5 -7q17 0 27 9.5t17 32.5h33q-3 -23 -11 -44t-21 -37.5t-30 -26.5t-37 -10q-22 0 -44.5 7.5t-44 16.5t-41.5 16.5t-36 7.5q-17 0 -26 -9t-16 -31h-34z" />
    <glyph glyph-name="itilde" unicode="&#x129;" horiz-adv-x="344" 
d="M131 330q14 39 20 63t6 38t-4.5 18.5t-9.5 4.5q-11 0 -24 -10.5t-26 -24.5t-23 -28t-14 -22l-29 18q12 22 33.5 49t48.5 50t56 38.5t55 15.5q25 0 37.5 -14.5t12.5 -52.5q0 -29 -17 -77.5t-46 -126.5l-37 -101q-2 -5 -5.5 -15.5t-7 -22t-6 -22.5t-2.5 -18q0 -9 5 -16
t16 -7q15 0 31 12.5t31 29.5t27 34.5t18 27.5l30 -17q-12 -24 -32.5 -53t-46.5 -53.5t-57 -41t-64 -16.5q-29 0 -43.5 15t-14.5 50q0 29 9.5 62.5t27.5 84.5zM93 660q8 51 37.5 82.5t67.5 31.5q15 0 36 -5.5t50 -18.5t44.5 -17.5t28.5 -4.5q17 0 27 9.5t17 32.5h33
q-2 -20 -11 -43t-21 -39q-27 -36 -67 -36q-14 0 -31.5 5.5t-52.5 19.5q-34 13 -52 18t-30 5q-17 0 -26 -9t-16 -31h-34z" />
    <glyph glyph-name="Imacron" unicode="&#x12a;" horiz-adv-x="420" 
d="M224 168q-12 -44 -12 -70q0 -34 21.5 -46t69.5 -12l-12 -40h-319l11 40q30 0 51 4.5t36.5 17.5t26.5 36t21 60l117 442q15 55 15 82q0 31 -22.5 39.5t-76.5 8.5l11 40h325l-11 -40q-33 0 -55 -6.5t-38 -24.5t-28.5 -50t-25.5 -83zM218 880l13 50h270l-13 -50h-270z" />
    <glyph glyph-name="imacron" unicode="&#x12b;" horiz-adv-x="344" 
d="M131 330q14 39 20 63t6 38t-4.5 18.5t-9.5 4.5q-11 0 -24 -10.5t-26 -24.5t-23 -28t-14 -22l-29 18q12 22 33.5 49t48.5 50t56 38.5t55 15.5q25 0 37.5 -14.5t12.5 -52.5q0 -29 -17 -77.5t-46 -126.5l-37 -101q-2 -5 -5.5 -15.5t-7 -22t-6 -22.5t-2.5 -18q0 -9 5 -16
t16 -7q15 0 31 12.5t31 29.5t27 34.5t18 27.5l30 -17q-12 -24 -32.5 -53t-46.5 -53.5t-57 -41t-64 -16.5q-29 0 -43.5 15t-14.5 50q0 29 9.5 62.5t27.5 84.5zM122 702l13 50h270l-13 -50h-270z" />
    <glyph glyph-name="Ibreve" unicode="&#x12c;" horiz-adv-x="420" 
d="M224 168q-12 -44 -12 -70q0 -34 21.5 -46t69.5 -12l-12 -40h-319l11 40q30 0 51 4.5t36.5 17.5t26.5 36t21 60l117 442q15 55 15 82q0 31 -22.5 39.5t-76.5 8.5l11 40h325l-11 -40q-33 0 -55 -6.5t-38 -24.5t-28.5 -50t-25.5 -83zM521 960q-9 -25 -26 -46t-39.5 -36.5
t-49 -24t-54.5 -8.5q-51 0 -80.5 25t-29.5 65q0 11 3 25h36q2 -21 26.5 -33.5t62.5 -12.5t69 12.5t45 33.5h37z" />
    <glyph glyph-name="ibreve" unicode="&#x12d;" horiz-adv-x="344" 
d="M131 330q14 39 20 63t6 38t-4.5 18.5t-9.5 4.5q-11 0 -24 -10.5t-26 -24.5t-23 -28t-14 -22l-29 18q12 22 33.5 49t48.5 50t56 38.5t55 15.5q25 0 37.5 -14.5t12.5 -52.5q0 -29 -17 -77.5t-46 -126.5l-37 -101q-2 -5 -5.5 -15.5t-7 -22t-6 -22.5t-2.5 -18q0 -9 5 -16
t16 -7q15 0 31 12.5t31 29.5t27 34.5t18 27.5l30 -17q-12 -24 -32.5 -53t-46.5 -53.5t-57 -41t-64 -16.5q-29 0 -43.5 15t-14.5 50q0 29 9.5 62.5t27.5 84.5zM419 776q-9 -29 -27 -52.5t-41 -41t-50 -27t-55 -9.5q-50 0 -78.5 27t-28.5 71q0 17 4 32h36q2 -28 25 -44.5
t60 -16.5q38 0 70 16.5t48 44.5h37z" />
    <glyph glyph-name="Iogonek" unicode="&#x12e;" horiz-adv-x="420" 
d="M212 -152q-31 -40 -71.5 -61t-85.5 -21q-46 0 -71.5 22.5t-25.5 62.5q0 44 32.5 82.5t92.5 66.5h-111l11 40q30 0 51 4.5t36.5 17.5t26.5 36t21 60l117 442q15 55 15 82q0 31 -22.5 39.5t-76.5 8.5l11 40h325l-11 -40q-33 0 -55 -6.5t-38 -24.5t-28.5 -50t-25.5 -83
l-105 -398q-12 -44 -12 -70q0 -34 21.5 -46t69.5 -12l-12 -40h-143q-50 -26 -80.5 -61t-30.5 -65q0 -20 15 -34t36 -14q19 0 44 13.5t51 39.5z" />
    <glyph glyph-name="iogonek" unicode="&#x12f;" horiz-adv-x="343" 
d="M195 -152q-31 -40 -71.5 -61t-85.5 -21q-46 0 -71.5 22.5t-25.5 62.5q0 44 33.5 83t93.5 67q-19 15 -19 54q0 29 9.5 62.5t27.5 84.5l45 128q14 39 20 63t6 38t-4.5 18.5t-9.5 4.5q-11 0 -24 -10.5t-26 -24.5t-23 -28t-14 -22l-29 18q12 22 33.5 49t48.5 50t56 38.5
t55 15.5q25 0 37.5 -14.5t12.5 -52.5q0 -29 -17.5 -78t-45.5 -126l-37 -101q-2 -5 -5.5 -15.5t-7 -22t-6 -22.5t-2.5 -18q0 -9 5 -16t16 -7q15 0 31 12.5t31 29.5t27 34.5t18 27.5l30 -17q-12 -24 -31.5 -52t-45 -52t-55.5 -41t-62 -19q-42 -26 -67.5 -57.5t-25.5 -58.5
q0 -20 15 -34t36 -14q19 0 44 13.5t51 39.5zM278 704q-25 0 -43.5 17t-18.5 44t18 46t44 19q28 0 46 -19t18 -45t-19 -44t-45 -18z" />
    <glyph glyph-name="Idotaccent" unicode="&#x130;" horiz-adv-x="420" 
d="M224 168q-12 -44 -12 -70q0 -34 21.5 -46t69.5 -12l-12 -40h-319l11 40q30 0 51 4.5t36.5 17.5t26.5 36t21 60l117 442q15 55 15 82q0 31 -22.5 39.5t-76.5 8.5l11 40h325l-11 -40q-33 0 -55 -6.5t-38 -24.5t-28.5 -50t-25.5 -83zM316 904q0 23 15.5 39t36.5 16
q23 0 39 -16t16 -39q0 -21 -16 -36.5t-39 -15.5q-21 0 -36.5 15.5t-15.5 36.5z" />
    <glyph glyph-name="dotlessi" unicode="&#x131;" horiz-adv-x="344" 
d="M131 330q14 39 20 63t6 38t-4.5 18.5t-9.5 4.5q-11 0 -24 -10.5t-26 -24.5t-23 -28t-14 -22l-29 18q12 22 33.5 49t48.5 50t56 38.5t55 15.5q25 0 37.5 -14.5t12.5 -52.5q0 -29 -17 -77.5t-46 -126.5l-37 -101q-2 -5 -5.5 -15.5t-7 -22t-6 -22.5t-2.5 -18q0 -9 5 -16
t16 -7q15 0 31 12.5t31 29.5t27 34.5t18 27.5l30 -17q-12 -24 -32.5 -53t-46.5 -53.5t-57 -41t-64 -16.5q-29 0 -43.5 15t-14.5 50q0 29 9.5 62.5t27.5 84.5z" />
    <glyph glyph-name="IJ" unicode="&#x132;" horiz-adv-x="963" 
d="M224 168q-12 -44 -12 -70q0 -34 21.5 -46t69.5 -12l-12 -40h-319l11 40q30 0 51 4.5t36.5 17.5t26.5 36t21 60l117 442q15 55 15 82q0 31 -22.5 39.5t-76.5 8.5l11 40h325l-11 -40q-33 0 -55 -6.5t-38 -24.5t-28.5 -50t-25.5 -83zM554 43q49 0 87 47t61 132l99 378
q15 55 15 82q0 14 -5 23.5t-17 15t-33 7.5t-54 2l11 40h325l-11 -40q-30 0 -50.5 -6t-35 -24t-26.5 -50t-25 -84l-100 -380q-25 -95 -87.5 -145.5t-152.5 -50.5q-76 0 -117 34t-41 97q0 48 25 79t63 31q27 0 44.5 -16t17.5 -42q0 -19 -8 -29.5t-18 -19t-18 -16.5t-8 -21
q0 -20 16.5 -32t42.5 -12z" />
    <glyph glyph-name="ij" unicode="&#x133;" horiz-adv-x="643" 
d="M131 330q14 39 20 63t6 38t-4.5 18.5t-9.5 4.5q-11 0 -24 -10.5t-26 -24.5t-23 -28t-14 -22l-29 18q12 22 33.5 49t48.5 50t56 38.5t55 15.5q25 0 37.5 -14.5t12.5 -52.5q0 -29 -17.5 -78t-45.5 -126l-37 -101q-2 -5 -5.5 -15.5t-7 -22t-6 -22.5t-2.5 -18q0 -9 5 -16
t16 -7q15 0 31 12.5t31 29.5t27 34.5t18 27.5l30 -17q-12 -24 -32.5 -53t-46.5 -53.5t-57 -41t-64 -16.5q-29 0 -43.5 15t-14.5 50q0 29 9.5 62.5t27.5 84.5zM278 704q-25 0 -43.5 17t-18.5 44t18 46t44 19q28 0 46 -19t18 -45t-19 -44t-45 -18zM581 704q-25 0 -43.5 17
t-18.5 44t18 46t44 19q28 0 46 -19t18 -45t-19 -44t-45 -18zM466 331q10 39 15.5 64t5.5 39q0 20 -15 20q-11 0 -24 -10.5t-25.5 -24.5t-22.5 -28t-14 -22l-29 18q12 22 33.5 49t48.5 50t56 38.5t55 15.5q50 0 50 -56q0 -33 -13.5 -87t-34.5 -130l-83 -301
q-12 -43 -34.5 -83.5t-52 -72t-63.5 -51t-70 -19.5q-42 0 -69 22t-27 54q0 27 13 43t36 16q21 0 31 -11.5t16.5 -26t13.5 -26t21 -11.5q24 0 42.5 24t28.5 63z" />
    <glyph glyph-name="Jcircumflex" unicode="&#x134;" horiz-adv-x="543" 
d="M134 43q49 0 87 47t61 132l99 378q15 55 15 82q0 14 -5 23.5t-17 15t-33 7.5t-54 2l11 40h325l-11 -40q-30 0 -50.5 -6t-35 -24t-26.5 -50t-25 -84l-100 -380q-25 -95 -87.5 -145.5t-152.5 -50.5q-76 0 -117 34t-41 97q0 48 25 79t63 31q27 0 44.5 -16t17.5 -42
q0 -19 -8 -29.5t-18 -19t-18 -16.5t-8 -21q0 -20 16.5 -32t42.5 -12zM565 960l80 -109h-45l-105 54l-133 -54h-45l138 109h110z" />
    <glyph glyph-name="jcircumflex" unicode="&#x135;" horiz-adv-x="299" 
d="M122 331q10 39 15.5 64t5.5 39q0 20 -15 20q-11 0 -24 -10.5t-25.5 -24.5t-22.5 -28t-14 -22l-29 18q12 22 33.5 49t48.5 50t56 38.5t55 15.5q50 0 50 -56q0 -33 -13.5 -87t-34.5 -130l-83 -301q-12 -43 -34.5 -83.5t-52 -72t-63.5 -51t-70 -19.5q-42 0 -69 22t-27 54
q0 27 13 43t36 16q21 0 31 -11.5t16.5 -26t13.5 -26t21 -11.5q24 0 42.5 24t28.5 63zM318 780l84 -129h-45l-101 68l-137 -68h-45l154 129h90z" />
    <glyph glyph-name="Kcommaaccent" unicode="&#x136;" horiz-adv-x="825" 
d="M291 427l207 148q63 45 92 76.5t29 50.5q0 28 -67 28l10 40h284l-10 -40q-16 0 -33 -7t-46.5 -26t-77.5 -54t-127 -90l-154 -108l196 -258q40 -53 64.5 -83t42 -44t32.5 -17t35 -3l-11 -40h-314l11 40q35 0 54.5 5.5t19.5 22.5q0 14 -14 39.5t-43 65.5l-158 212l-40 -28
l-50 -189q-12 -44 -12 -70q0 -34 23.5 -46t77.5 -12l-12 -40h-319l11 40q28 0 47 4.5t33.5 17.5t24.5 36t20 60l117 442q15 55 15 82q0 31 -22.5 39.5t-76.5 8.5l11 40h325l-11 -40q-33 0 -55 -6.5t-38 -24.5t-28.5 -50t-25.5 -83zM304 -224q34 19 49.5 37.5t15.5 40.5
q-10 -8 -26 -8q-20 0 -32 13t-12 34q0 23 16.5 38t42.5 15q30 0 46.5 -20.5t16.5 -58.5q0 -32 -21.5 -60.5t-73.5 -56.5z" />
    <glyph glyph-name="kcommaaccent" unicode="&#x137;" horiz-adv-x="513" 
d="M357 80q29 0 82 75l26 -14q-72 -151 -149 -151q-24 0 -39.5 17t-34.5 61l-67 160l-22 -10l-63 -218h-91l193 717q7 27 7 37q0 21 -19 28.5t-74 7.5l9 30l199 10l-104 -385l4 -1q58 97 147 97q47 0 74 -22.5t27 -60.5q0 -47 -46.5 -94t-129.5 -85l-26 -12l51 -132
q20 -55 46 -55zM162 268q43 15 80 35t63.5 42t41.5 44.5t15 42.5q0 41 -41 41q-21 0 -44 -16.5t-45 -44.5t-40.5 -65.5t-29.5 -78.5zM108 -224q34 19 49.5 37.5t15.5 40.5q-10 -8 -26 -8q-20 0 -32 13t-12 34q0 23 16.5 38t42.5 15q30 0 46.5 -20.5t16.5 -58.5
q0 -32 -21.5 -60.5t-73.5 -56.5z" />
    <glyph glyph-name="kgreenlandic" unicode="&#x138;" horiz-adv-x="542" 
d="M386 80q29 0 82 75l26 -14q-72 -151 -149 -151q-24 0 -39.5 16.5t-34.5 61.5l-67 160l-22 -10l-63 -218h-91l115 427q7 27 7 37q0 21 -19 28.5t-74 7.5l9 30l199 10l-26 -95l4 -1q58 97 147 97q47 0 74 -22.5t27 -60.5q0 -47 -46.5 -94t-129.5 -85l-26 -12l51 -132
q20 -55 46 -55zM191 268q43 15 80 35t63.5 42t41.5 44.5t15 42.5q0 41 -41 41q-21 0 -44 -16.5t-45 -44.5t-40.5 -65.5t-29.5 -78.5z" />
    <glyph glyph-name="Lacute" unicode="&#x139;" horiz-adv-x="702" 
d="M-14 40q33 0 54.5 5t36 18.5t24.5 36t19 58.5l113 442q7 28 11 48t4 34q0 31 -22.5 39.5t-76.5 8.5l11 40h325l-11 -40q-33 0 -55 -6.5t-38 -24.5t-28.5 -50t-25.5 -83l-104 -396q-9 -33 -9 -56q0 -36 24.5 -53.5t87.5 -17.5q60 0 103.5 10t76.5 32.5t57.5 58t45.5 87.5
h47l-88 -231h-593zM224 850l150 77q32 17 54 25t42 8q30 0 30 -25q0 -20 -23 -34t-66 -23l-127 -28h-60z" />
    <glyph glyph-name="lacute" unicode="&#x13a;" horiz-adv-x="313" 
d="M183 691q5 18 10 36.5t5 27.5q0 35 -76 35l8 30l183 9l-179 -657q-8 -27 -12 -47.5t-4 -34.5q0 -9 5 -16t16 -7q16 0 34 13.5t34.5 32t29.5 38t19 30.5l30 -17q-15 -34 -39 -65.5t-51 -55.5t-54.5 -38.5t-50.5 -14.5q-35 0 -51.5 15t-16.5 50q0 20 6 54t21 93zM169 850
l150 77q32 17 54 25t42 8q30 0 30 -25q0 -20 -23 -34t-66 -23l-127 -28h-60z" />
    <glyph glyph-name="Lcommaaccent" unicode="&#x13b;" horiz-adv-x="702" 
d="M-14 40q33 0 54.5 5t36 18.5t24.5 36t19 58.5l113 442q7 28 11 48t4 34q0 31 -22.5 39.5t-76.5 8.5l11 40h325l-11 -40q-33 0 -55 -6.5t-38 -24.5t-28.5 -50t-25.5 -83l-104 -396q-9 -33 -9 -56q0 -36 24.5 -53.5t87.5 -17.5q60 0 103.5 10t76.5 32.5t57.5 58t45.5 87.5
h47l-88 -231h-593zM224 -224q34 19 49.5 37.5t15.5 40.5q-10 -8 -26 -8q-20 0 -32 13t-12 34q0 23 16.5 38t42.5 15q30 0 46.5 -20.5t16.5 -58.5q0 -32 -21.5 -60.5t-73.5 -56.5z" />
    <glyph glyph-name="lcommaaccent" unicode="&#x13c;" horiz-adv-x="313" 
d="M183 691q5 18 10 36.5t5 27.5q0 35 -76 35l8 30l183 9l-179 -657q-8 -27 -12 -47.5t-4 -34.5q0 -9 5 -16t16 -7q16 0 34 13.5t34.5 32t29.5 38t19 30.5l30 -17q-15 -34 -39 -65.5t-51 -55.5t-54.5 -38.5t-50.5 -14.5q-35 0 -51.5 15t-16.5 50q0 20 6 54t21 93zM1 -224
q34 19 49.5 37.5t15.5 40.5q-10 -8 -26 -8q-20 0 -32 13t-12 34q0 23 16.5 38t42.5 15q30 0 46.5 -20.5t16.5 -58.5q0 -32 -21.5 -60.5t-73.5 -56.5z" />
    <glyph glyph-name="Lcaron" unicode="&#x13d;" horiz-adv-x="702" 
d="M-14 40q33 0 54.5 5t36 18.5t24.5 36t19 58.5l113 442q7 28 11 48t4 34q0 31 -22.5 39.5t-76.5 8.5l11 40h325l-11 -40q-33 0 -55 -6.5t-38 -24.5t-28.5 -50t-25.5 -83l-104 -396q-9 -33 -9 -56q0 -36 24.5 -53.5t87.5 -17.5q60 0 103.5 10t76.5 32.5t57.5 58t45.5 87.5
h47l-88 -231h-593zM269 851l-80 109h45l105 -54l133 54h45l-138 -109h-110z" />
    <glyph glyph-name="lcaron" unicode="&#x13e;" horiz-adv-x="313" 
d="M183 691q5 18 10 36.5t5 27.5q0 35 -76 35l8 30l183 9l-179 -657q-8 -27 -12 -47.5t-4 -34.5q0 -9 5 -16t16 -7q16 0 34 13.5t34.5 32t29.5 38t19 30.5l30 -17q-15 -34 -39 -65.5t-51 -55.5t-54.5 -38.5t-50.5 -14.5q-35 0 -51.5 15t-16.5 50q0 20 6 54t21 93zM329 610
q39 19 59.5 37.5t26.5 40.5q-11 -8 -28 -8q-33 0 -33 31q0 29 22.5 49t52.5 20q46 0 46 -47q0 -42 -29 -78.5t-102 -70.5z" />
    <glyph glyph-name="Ldot" unicode="&#x13f;" horiz-adv-x="702" 
d="M-14 40q33 0 54.5 5t36 18.5t24.5 36t19 58.5l113 442q7 28 11 48t4 34q0 31 -22.5 39.5t-76.5 8.5l11 40h325l-11 -40q-33 0 -55 -6.5t-38 -24.5t-28.5 -50t-25.5 -83l-104 -396q-9 -33 -9 -56q0 -36 24.5 -53.5t87.5 -17.5q60 0 103.5 10t76.5 32.5t57.5 58t45.5 87.5
h47l-88 -231h-593zM416 400q0 26 18 44t44 18t44 -18t18 -44t-18 -44t-44 -18t-44 18t-18 44z" />
    <glyph glyph-name="ldot" unicode="&#x140;" horiz-adv-x="374" 
d="M183 691q5 18 10 36.5t5 27.5q0 35 -76 35l8 30l183 9l-179 -657q-8 -27 -12 -47.5t-4 -34.5q0 -9 5 -16t16 -7q16 0 34 13.5t34.5 32t29.5 38t19 30.5l30 -17q-15 -34 -39 -65.5t-51 -55.5t-54.5 -38.5t-50.5 -14.5q-35 0 -51.5 15t-16.5 50q0 20 6 54t21 93zM289 430
q0 26 18 44t44 18t44 -18t18 -44t-18 -44t-44 -18t-44 18t-18 44z" />
    <glyph glyph-name="Lslash" unicode="&#x141;" horiz-adv-x="704" 
d="M-12 40q33 0 54.5 5t36 18.5t24.5 36t19 58.5l47 186l-86 -46l17 65l86 45l49 192q7 28 11 48t4 34q0 31 -22.5 39.5t-76.5 8.5l11 40h325l-11 -40q-33 0 -55 -6.5t-38 -24.5t-28.5 -50t-25.5 -83l-25 -95l107 57l-17 -65l-107 -57l-62 -236q-9 -33 -9 -56
q0 -36 24.5 -53.5t87.5 -17.5q60 0 103.5 10t76.5 32.5t57.5 58t45.5 87.5h47l-88 -231h-593z" />
    <glyph glyph-name="lslash" unicode="&#x142;" horiz-adv-x="328" 
d="M118 399l-90 -48l17 65l91 49l62 226q5 18 10 36.5t5 27.5q0 35 -76 35l8 30l183 9l-84 -307l95 51l-17 -65l-96 -51l-77 -285q-8 -27 -12 -47.5t-4 -34.5q0 -9 5 -16t16 -7q16 0 34 13.5t34.5 32t29.5 38t19 30.5l30 -17q-15 -34 -39 -65.5t-51 -55.5t-54.5 -38.5
t-50.5 -14.5q-35 0 -51.5 15t-16.5 50q0 20 6 54t21 93z" />
    <glyph glyph-name="Nacute" unicode="&#x143;" horiz-adv-x="842" 
d="M580 0l-262 602h-4l-114 -434q-6 -24 -6 -43q0 -42 25 -63t70 -22l-12 -40h-286l11 40q47 0 84 33.5t51 84.5l118 444q4 15 4 31q0 48 -40.5 72t-106.5 25l12 40h235l250 -573h4l106 405q5 22 5 37q0 43 -24.5 66.5t-59.5 24.5l12 40h256l-11 -40q-19 0 -37 -9t-33 -24.5
t-26.5 -37.5t-18.5 -47l-162 -612h-40zM442 850l150 77q32 17 54 25t42 8q30 0 30 -25q0 -20 -23 -34t-66 -23l-127 -28h-60z" />
    <glyph glyph-name="nacute" unicode="&#x144;" horiz-adv-x="627" 
d="M425 488q-24 0 -54.5 -24.5t-62 -65t-60.5 -92.5t-49 -106l-74 -200h-88l74 229q18 55 30 94t19.5 65.5t10.5 43t3 26.5q0 27 -17 27q-11 0 -26 -14t-30.5 -36.5t-29.5 -51.5t-24 -59l-30 15q35 103 78.5 152t99.5 49q32 0 45.5 -18t13.5 -61q0 -51 -17 -91l3 -3
q51 90 103.5 131.5t114.5 41.5q44 0 67 -21t23 -60q0 -13 -2.5 -29t-8.5 -38.5t-16.5 -53.5t-25.5 -76q-23 -68 -38 -114t-15 -65q0 -15 10 -15q14 0 41 23t73 74l26 -14q-16 -30 -41.5 -58.5t-53 -51.5t-54.5 -37t-47 -14q-25 0 -39.5 22t-14.5 58q0 14 2.5 28.5t10.5 41.5
t23.5 72.5t42.5 120.5q9 26 15 44t9.5 31.5t5 23.5t1.5 19q0 37 -27 37zM293 651l130 119q36 33 67 33q17 0 27.5 -9t10.5 -26q0 -16 -13.5 -28.5t-37.5 -23.5l-137 -65h-47z" />
    <glyph glyph-name="Ncommaaccent" unicode="&#x145;" horiz-adv-x="842" 
d="M580 0l-262 602h-4l-114 -434q-6 -24 -6 -43q0 -42 25 -63t70 -22l-12 -40h-286l11 40q47 0 84 33.5t51 84.5l118 444q4 15 4 31q0 48 -40.5 72t-106.5 25l12 40h235l250 -573h4l106 405q5 22 5 37q0 43 -24.5 66.5t-59.5 24.5l12 40h256l-11 -40q-19 0 -37 -9t-33 -24.5
t-26.5 -37.5t-18.5 -47l-162 -612h-40zM330 -224q34 19 49.5 37.5t15.5 40.5q-10 -8 -26 -8q-20 0 -32 13t-12 34q0 23 16.5 38t42.5 15q30 0 46.5 -20.5t16.5 -58.5q0 -32 -21.5 -60.5t-73.5 -56.5z" />
    <glyph glyph-name="ncommaaccent" unicode="&#x146;" horiz-adv-x="627" 
d="M425 488q-24 0 -54.5 -24.5t-62 -65t-60.5 -92.5t-49 -106l-74 -200h-88l74 229q18 55 30 94t19.5 65.5t10.5 43t3 26.5q0 27 -17 27q-11 0 -26 -14t-30.5 -36.5t-29.5 -51.5t-24 -59l-30 15q35 103 78.5 152t99.5 49q32 0 45.5 -18t13.5 -61q0 -51 -17 -91l3 -3
q51 90 103.5 131.5t114.5 41.5q44 0 67 -21t23 -60q0 -13 -2.5 -29t-8.5 -38.5t-16.5 -53.5t-25.5 -76q-23 -68 -38 -114t-15 -65q0 -15 10 -15q14 0 41 23t73 74l26 -14q-16 -30 -41.5 -58.5t-53 -51.5t-54.5 -37t-47 -14q-25 0 -39.5 22t-14.5 58q0 14 2.5 28.5t10.5 41.5
t23.5 72.5t42.5 120.5q9 26 15 44t9.5 31.5t5 23.5t1.5 19q0 37 -27 37zM180 -224q34 19 49.5 37.5t15.5 40.5q-10 -8 -26 -8q-20 0 -32 13t-12 34q0 23 16.5 38t42.5 15q30 0 46.5 -20.5t16.5 -58.5q0 -32 -21.5 -60.5t-73.5 -56.5z" />
    <glyph glyph-name="Ncaron" unicode="&#x147;" horiz-adv-x="842" 
d="M580 0l-262 602h-4l-114 -434q-6 -24 -6 -43q0 -42 25 -63t70 -22l-12 -40h-286l11 40q47 0 84 33.5t51 84.5l118 444q4 15 4 31q0 48 -40.5 72t-106.5 25l12 40h235l250 -573h4l106 405q5 22 5 37q0 43 -24.5 66.5t-59.5 24.5l12 40h256l-11 -40q-19 0 -37 -9t-33 -24.5
t-26.5 -37.5t-18.5 -47l-162 -612h-40zM487 851l-80 109h45l105 -54l133 54h45l-138 -109h-110z" />
    <glyph glyph-name="ncaron" unicode="&#x148;" horiz-adv-x="627" 
d="M425 488q-24 0 -54.5 -24.5t-62 -65t-60.5 -92.5t-49 -106l-74 -200h-88l74 229q18 55 30 94t19.5 65.5t10.5 43t3 26.5q0 27 -17 27q-11 0 -26 -14t-30.5 -36.5t-29.5 -51.5t-24 -59l-30 15q35 103 78.5 152t99.5 49q32 0 45.5 -18t13.5 -61q0 -51 -17 -91l3 -3
q51 90 103.5 131.5t114.5 41.5q44 0 67 -21t23 -60q0 -13 -2.5 -29t-8.5 -38.5t-16.5 -53.5t-25.5 -76q-23 -68 -38 -114t-15 -65q0 -15 10 -15q14 0 41 23t73 74l26 -14q-16 -30 -41.5 -58.5t-53 -51.5t-54.5 -37t-47 -14q-25 0 -39.5 22t-14.5 58q0 14 2.5 28.5t10.5 41.5
t23.5 72.5t42.5 120.5q9 26 15 44t9.5 31.5t5 23.5t1.5 19q0 37 -27 37zM320 651l-84 129h45l101 -68l137 68h45l-154 -129h-90z" />
    <glyph glyph-name="napostrophe" unicode="&#x149;" horiz-adv-x="789" 
d="M566 488q-24 0 -54.5 -24.5t-62 -65t-60.5 -92.5t-49 -106l-74 -200h-88l74 229q18 55 30 94t19.5 65.5t10.5 43t3 26.5q0 27 -17 27q-11 0 -26 -14t-30.5 -36.5t-29.5 -51.5t-24 -59l-30 15q35 103 78.5 152t99.5 49q32 0 45.5 -18t13.5 -61q0 -51 -17 -91l3 -3
q51 90 103.5 131.5t114.5 41.5q44 0 67 -21t23 -60q0 -13 -2.5 -29t-8.5 -38.5t-16.5 -53.5t-25.5 -76q-23 -68 -38 -114t-15 -65q0 -15 10 -15q14 0 41 23t73 74l26 -14q-16 -30 -41.5 -58.5t-53 -51.5t-54.5 -37t-47 -14q-25 0 -39.5 22t-14.5 58q0 14 2.5 28.5t10.5 41.5
t23.5 72.5t42.5 120.5q9 26 15 44t9.5 31.5t5 23.5t1.5 19q0 37 -27 37zM128 611q4 52 5.5 93t7 69t18.5 42.5t42 14.5q17 0 26 -9.5t9 -25.5q0 -5 -2 -15q-2 -9 -11 -28.5t-20.5 -43.5t-24 -50t-21.5 -47h-29z" />
    <glyph glyph-name="Eng" unicode="&#x14a;" horiz-adv-x="842" 
d="M410 -207q46 0 84 47t61 132l14 53l-251 577h-4l-114 -434q-6 -24 -6 -43q0 -42 25 -63t70 -22l-12 -40h-286l11 40q47 0 84 33.5t51 84.5l118 444q4 15 4 31q0 48 -40.5 72t-106.5 25l12 40h235l250 -573h4l106 405q5 22 5 37q0 43 -24.5 66.5t-59.5 24.5l12 40h256
l-11 -40q-19 0 -37 -9t-33 -24.5t-26.5 -37.5t-18.5 -47l-177 -676q-50 -196 -205 -196q-65 0 -102.5 31.5t-37.5 85.5q0 46 25 77.5t62 31.5q23 0 38 -15t15 -38q0 -17 -6.5 -26t-14.5 -16.5t-14.5 -15t-6.5 -19.5q0 -19 14.5 -31t37.5 -12z" />
    <glyph glyph-name="eng" unicode="&#x14b;" horiz-adv-x="590" 
d="M299 -113q36 130 61.5 221.5t42.5 153.5t26.5 98.5t14.5 56.5t6.5 28t1.5 12q0 31 -28 31q-23 0 -53.5 -25t-62 -65.5t-60.5 -92t-49 -105.5l-74 -200h-88l74 229q18 55 30 94.5t19.5 66t10.5 43t3 26.5q0 26 -17 26q-11 0 -26 -14t-30.5 -36.5t-29.5 -51.5t-24 -59
l-30 15q35 103 78.5 152t99.5 49q32 0 45.5 -18t13.5 -62q0 -52 -17 -90l3 -3q51 89 103.5 131t113.5 42q44 0 67.5 -20.5t23.5 -58.5q0 -12 -4.5 -36t-18.5 -76.5t-40.5 -144t-70.5 -238.5q-14 -48 -38.5 -89.5t-54.5 -71.5t-63.5 -47.5t-66.5 -17.5q-41 0 -67.5 22
t-26.5 57q0 26 13 41t36 15q21 0 31 -11.5t16.5 -26t13.5 -26t23 -11.5q21 0 39.5 23t29.5 64z" />
    <glyph glyph-name="Omacron" unicode="&#x14c;" horiz-adv-x="820" 
d="M505 780q64 0 115.5 -22t88 -62.5t56 -98t19.5 -128.5q0 -96 -34.5 -183t-93.5 -153t-136.5 -104.5t-163.5 -38.5q-64 0 -116 22.5t-89 63.5t-57 98.5t-20 128.5q0 96 35 182.5t94 152t137.5 104t164.5 38.5zM505 728q-65 0 -121.5 -33t-98.5 -91t-66 -136t-24 -168
q0 -128 44.5 -192t130.5 -64q63 0 116.5 34t93 94t61.5 143t22 181q0 120 -38.5 176t-119.5 56zM407 880l13 50h270l-13 -50h-270z" />
    <glyph glyph-name="omacron" unicode="&#x14d;" horiz-adv-x="523" 
d="M187 -10q-34 0 -63.5 13.5t-51.5 39.5t-35 63.5t-13 84.5q0 65 24.5 128t64.5 112t91.5 79t106.5 30q36 0 66.5 -13.5t52 -39t34 -61t12.5 -78.5q0 -63 -25 -127t-65.5 -115t-92.5 -83.5t-106 -32.5zM193 40q34 0 67.5 35t60 88.5t43 116.5t16.5 120q0 53 -18.5 73
t-50.5 20q-22 0 -44.5 -15.5t-42.5 -42.5t-37.5 -62t-30.5 -74t-20 -79.5t-7 -77.5q0 -56 18 -79t46 -23zM241 702l13 50h270l-13 -50h-270z" />
    <glyph glyph-name="Obreve" unicode="&#x14e;" horiz-adv-x="820" 
d="M505 780q64 0 115.5 -22t88 -62.5t56 -98t19.5 -128.5q0 -96 -34.5 -183t-93.5 -153t-136.5 -104.5t-163.5 -38.5q-64 0 -116 22.5t-89 63.5t-57 98.5t-20 128.5q0 96 35 182.5t94 152t137.5 104t164.5 38.5zM505 728q-65 0 -121.5 -33t-98.5 -91t-66 -136t-24 -168
q0 -128 44.5 -192t130.5 -64q63 0 116.5 34t93 94t61.5 143t22 181q0 120 -38.5 176t-119.5 56zM724 960q-9 -25 -26 -46t-39.5 -36.5t-49 -24t-54.5 -8.5q-51 0 -80.5 25t-29.5 65q0 11 3 25h36q2 -21 26.5 -33.5t62.5 -12.5t69 12.5t45 33.5h37z" />
    <glyph glyph-name="obreve" unicode="&#x14f;" horiz-adv-x="523" 
d="M187 -10q-34 0 -63.5 13.5t-51.5 39.5t-35 63.5t-13 84.5q0 65 24.5 128t64.5 112t91.5 79t106.5 30q36 0 66.5 -13.5t52 -39t34 -61t12.5 -78.5q0 -63 -25 -127t-65.5 -115t-92.5 -83.5t-106 -32.5zM193 40q34 0 67.5 35t60 88.5t43 116.5t16.5 120q0 53 -18.5 73
t-50.5 20q-22 0 -44.5 -15.5t-42.5 -42.5t-37.5 -62t-30.5 -74t-20 -79.5t-7 -77.5q0 -56 18 -79t46 -23zM522 776q-9 -29 -27 -52.5t-41 -41t-50 -27t-55 -9.5q-50 0 -78.5 27t-28.5 71q0 17 4 32h36q2 -28 25 -44.5t60 -16.5q38 0 70 16.5t48 44.5h37z" />
    <glyph glyph-name="Ohungarumlaut" unicode="&#x150;" horiz-adv-x="820" 
d="M505 780q64 0 115.5 -22t88 -62.5t56 -98t19.5 -128.5q0 -96 -34.5 -183t-93.5 -153t-136.5 -104.5t-163.5 -38.5q-64 0 -116 22.5t-89 63.5t-57 98.5t-20 128.5q0 96 35 182.5t94 152t137.5 104t164.5 38.5zM505 728q-65 0 -121.5 -33t-98.5 -91t-66 -136t-24 -168
q0 -128 44.5 -192t130.5 -64q63 0 116.5 34t93 94t61.5 143t22 181q0 120 -38.5 176t-119.5 56zM361 850l120 77q27 17 47 25t40 8q17 0 27.5 -9t10.5 -26q0 -16 -20.5 -27.5t-54.5 -19.5l-110 -28h-60zM548 850l120 77q27 17 47 25t40 8q17 0 27.5 -9t10.5 -26
q0 -16 -20.5 -27.5t-54.5 -19.5l-110 -28h-60z" />
    <glyph glyph-name="ohungarumlaut" unicode="&#x151;" horiz-adv-x="523" 
d="M187 -10q-34 0 -63.5 13.5t-51.5 39.5t-35 63.5t-13 84.5q0 65 24.5 128t64.5 112t91.5 79t106.5 30q36 0 66.5 -13.5t52 -39t34 -61t12.5 -78.5q0 -63 -25 -127t-65.5 -115t-92.5 -83.5t-106 -32.5zM193 40q34 0 67.5 35t60 88.5t43 116.5t16.5 120q0 53 -18.5 73
t-50.5 20q-22 0 -44.5 -15.5t-42.5 -42.5t-37.5 -62t-30.5 -74t-20 -79.5t-7 -77.5q0 -56 18 -79t46 -23zM166 651l130 119q36 33 67 33q17 0 27.5 -9t10.5 -26q0 -16 -13.5 -28.5t-37.5 -23.5l-137 -65h-47zM364 651l130 119q36 33 67 33q17 0 27.5 -9t10.5 -26
q0 -16 -13.5 -28.5t-37.5 -23.5l-137 -65h-47z" />
    <glyph glyph-name="OE" unicode="&#x152;" horiz-adv-x="1158" 
d="M1124 770v-202h-38q-14 49 -29.5 80.5t-38.5 48.5t-55.5 23.5t-78.5 6.5h-81q-19 0 -19 -17l-68 -283q46 0 77 4t52.5 16t36.5 34.5t29 60.5h38l-60 -295h-40q1 16 1.5 29.5t0.5 25.5q0 26 -5.5 42.5t-21 25.5t-44 13t-73.5 4l-55 -230q-3 -13 -4 -24t-1 -20
q1 -40 35 -55t111 -15q53 0 91.5 9.5t68 30t51.5 52.5t42 76h47l-78 -211h-614q-76 0 -137.5 22.5t-105 62.5t-67 94.5t-23.5 119.5q0 64 20.5 124t56.5 112t85.5 95.5t107 74.5t120.5 48t127 17h539zM575 730q-66 0 -125 -24.5t-106.5 -70.5t-82.5 -111.5t-54 -147.5
q-15 -63 -15 -113q0 -104 58.5 -162.5t164.5 -58.5q35 0 57 4t35.5 16t22 33.5t16.5 56.5l111 466q3 17 5.5 31t2.5 25q0 34 -21 45t-69 11z" />
    <glyph glyph-name="oe" unicode="&#x153;" horiz-adv-x="792" 
d="M707 133q-87 -143 -214 -143q-101 0 -132 88q-38 -40 -82.5 -64t-91.5 -24q-34 0 -63.5 13.5t-51.5 39.5t-35 63.5t-13 84.5q0 65 24.5 128t64.5 112t91.5 79t106.5 30q54 0 94 -30t58 -83q45 51 99 82t108 31q48 0 78.5 -24.5t30.5 -62.5q0 -35 -26 -72t-70.5 -70
t-104 -60t-126.5 -42q-2 -14 -3 -27.5t-1 -27.5q0 -109 77 -109q37 0 76.5 29t73.5 80zM193 40q34 0 67.5 35t60 88.5t43 116.5t16.5 120q0 53 -18.5 73t-50.5 20q-22 0 -44.5 -15.5t-42.5 -42.5t-37.5 -62t-30.5 -74t-20 -79.5t-7 -77.5q0 -56 18 -79t46 -23zM650 493
q-26 0 -53.5 -19.5t-52.5 -51.5t-46 -73.5t-34 -86.5l-2 -8q48 13 89 34t70.5 47.5t46.5 56t17 59.5q0 42 -35 42z" />
    <glyph glyph-name="Racute" unicode="&#x154;" 
d="M233 207q-10 -35 -15.5 -62t-5.5 -40q0 -60 114 -60l-11 -45h-332l11 40q48 0 78 28.5t47 90.5l118 441q13 48 13 75q0 15 -5 25t-17 16.5t-32 9.5t-50 4l11 40h278q120 0 189 -45.5t69 -126.5q0 -41 -15.5 -75t-44.5 -61t-69.5 -46t-89.5 -29l74 -183q21 -51 37.5 -83
t34.5 -50t40.5 -24.5t55.5 -6.5l-11 -40h-190l-147 375h-88zM293 426h49q52 0 96.5 12t76 34.5t49.5 55.5t18 76q0 60 -37 90.5t-108 30.5q-20 0 -33.5 -3.5t-23 -12.5t-16.5 -24.5t-13 -39.5zM349 850l150 77q32 17 54 25t42 8q30 0 30 -25q0 -20 -23 -34t-66 -23l-127 -28
h-60z" />
    <glyph glyph-name="racute" unicode="&#x155;" horiz-adv-x="463" 
d="M21 391q11 25 33.5 51.5t49 48t53.5 35.5t47 14q24 0 35 -18t11 -58q0 -16 -1.5 -31t-5.5 -35l3 -3q12 29 34 57t47.5 49.5t52 35t49.5 13.5q29 0 48.5 -18.5t19.5 -45.5q0 -26 -16.5 -43t-42.5 -17q-16 0 -25.5 6t-16.5 12.5t-13 12.5t-15 6q-19 0 -44 -25.5t-52 -69.5
t-53.5 -103t-48.5 -127l-45 -138h-93l65 207q19 60 31.5 99.5t19.5 66t9.5 41.5t2.5 26q0 22 -15 22q-10 0 -24.5 -8t-28.5 -20t-26.5 -27t-18.5 -29zM239 651l130 119q36 33 67 33q17 0 27.5 -9t10.5 -26q0 -16 -13.5 -28.5t-37.5 -23.5l-137 -65h-47z" />
    <glyph glyph-name="Rcommaaccent" unicode="&#x156;" 
d="M233 207q-10 -35 -15.5 -62t-5.5 -40q0 -60 114 -60l-11 -45h-332l11 40q48 0 78 28.5t47 90.5l118 441q13 48 13 75q0 15 -5 25t-17 16.5t-32 9.5t-50 4l11 40h278q120 0 189 -45.5t69 -126.5q0 -41 -15.5 -75t-44.5 -61t-69.5 -46t-89.5 -29l74 -183q21 -51 37.5 -83
t34.5 -50t40.5 -24.5t55.5 -6.5l-11 -40h-190l-147 375h-88zM293 426h49q52 0 96.5 12t76 34.5t49.5 55.5t18 76q0 60 -37 90.5t-108 30.5q-20 0 -33.5 -3.5t-23 -12.5t-16.5 -24.5t-13 -39.5zM283 -224q34 19 49.5 37.5t15.5 40.5q-10 -8 -26 -8q-20 0 -32 13t-12 34
q0 23 16.5 38t42.5 15q30 0 46.5 -20.5t16.5 -58.5q0 -32 -21.5 -60.5t-73.5 -56.5z" />
    <glyph glyph-name="rcommaaccent" unicode="&#x157;" horiz-adv-x="463" 
d="M21 391q11 25 33.5 51.5t49 48t53.5 35.5t47 14q24 0 35 -18t11 -58q0 -16 -1.5 -31t-5.5 -35l3 -3q12 29 34 57t47.5 49.5t52 35t49.5 13.5q29 0 48.5 -18.5t19.5 -45.5q0 -26 -16.5 -43t-42.5 -17q-16 0 -25.5 6t-16.5 12.5t-13 12.5t-15 6q-19 0 -44 -25.5t-52 -69.5
t-53.5 -103t-48.5 -127l-45 -138h-93l65 207q19 60 31.5 99.5t19.5 66t9.5 41.5t2.5 26q0 22 -15 22q-10 0 -24.5 -8t-28.5 -20t-26.5 -27t-18.5 -29zM3 -224q34 19 49.5 37.5t15.5 40.5q-10 -8 -26 -8q-20 0 -32 13t-12 34q0 23 16.5 38t42.5 15q30 0 46.5 -20.5
t16.5 -58.5q0 -32 -21.5 -60.5t-73.5 -56.5z" />
    <glyph glyph-name="Rcaron" unicode="&#x158;" 
d="M233 207q-10 -35 -15.5 -62t-5.5 -40q0 -60 114 -60l-11 -45h-332l11 40q48 0 78 28.5t47 90.5l118 441q13 48 13 75q0 15 -5 25t-17 16.5t-32 9.5t-50 4l11 40h278q120 0 189 -45.5t69 -126.5q0 -41 -15.5 -75t-44.5 -61t-69.5 -46t-89.5 -29l74 -183q21 -51 37.5 -83
t34.5 -50t40.5 -24.5t55.5 -6.5l-11 -40h-190l-147 375h-88zM293 426h49q52 0 96.5 12t76 34.5t49.5 55.5t18 76q0 60 -37 90.5t-108 30.5q-20 0 -33.5 -3.5t-23 -12.5t-16.5 -24.5t-13 -39.5zM394 851l-80 109h45l105 -54l133 54h45l-138 -109h-110z" />
    <glyph glyph-name="rcaron" unicode="&#x159;" horiz-adv-x="463" 
d="M21 391q11 25 33.5 51.5t49 48t53.5 35.5t47 14q24 0 35 -18t11 -58q0 -16 -1.5 -31t-5.5 -35l3 -3q12 29 34 57t47.5 49.5t52 35t49.5 13.5q29 0 48.5 -18.5t19.5 -45.5q0 -26 -16.5 -43t-42.5 -17q-16 0 -25.5 6t-16.5 12.5t-13 12.5t-15 6q-19 0 -44 -25.5t-52 -69.5
t-53.5 -103t-48.5 -127l-45 -138h-93l65 207q19 60 31.5 99.5t19.5 66t9.5 41.5t2.5 26q0 22 -15 22q-10 0 -24.5 -8t-28.5 -20t-26.5 -27t-18.5 -29zM266 651l-84 129h45l101 -68l137 68h45l-154 -129h-90z" />
    <glyph glyph-name="Sacute" unicode="&#x15a;" horiz-adv-x="598" 
d="M558 755h30l-42 -197h-34q-3 91 -33 131t-94 40q-31 0 -57 -8.5t-44.5 -24.5t-29 -37.5t-10.5 -46.5q0 -36 20 -64t50.5 -52.5t66 -49.5t66 -55t50.5 -68t20 -89t-20 -95.5t-54.5 -77.5t-80.5 -52t-99 -19q-109 0 -191 86l-21 -76h-35l42 254h33q7 -103 51 -157t122 -54
q36 0 66 10.5t51.5 29t34 44t12.5 55.5q0 42 -21 74t-52 60t-68 54t-68 55.5t-52 65t-21 81.5q0 43 18.5 81t50.5 66t75 44.5t92 16.5q47 0 84 -16t72 -51zM295 850l150 77q32 17 54 25t42 8q30 0 30 -25q0 -20 -23 -34t-66 -23l-127 -28h-60z" />
    <glyph glyph-name="sacute" unicode="&#x15b;" horiz-adv-x="381" 
d="M77 387q0 33 12.5 61t34.5 48.5t52.5 32t66.5 11.5q48 0 80 -24t32 -62q0 -21 -11.5 -33t-31.5 -12q-23 0 -33 13.5t-17 30t-15 30.5t-27 14q-22 0 -37 -19t-15 -47q0 -33 19.5 -61.5t43.5 -59.5t43.5 -68t19.5 -87q0 -34 -14.5 -64t-39 -52.5t-56.5 -35.5t-66 -13
q-60 0 -95.5 26t-35.5 68q0 29 13.5 45.5t36.5 16.5q43 0 49 -59q3 -32 10.5 -42.5t30.5 -10.5q36 0 57 21.5t21 59.5q0 40 -20 71t-44 60.5t-44 62.5t-20 78zM192 651l130 119q36 33 67 33q17 0 27.5 -9t10.5 -26q0 -16 -13.5 -28.5t-37.5 -23.5l-137 -65h-47z" />
    <glyph glyph-name="Scircumflex" unicode="&#x15c;" horiz-adv-x="598" 
d="M558 755h30l-42 -197h-34q-3 91 -33 131t-94 40q-31 0 -57 -8.5t-44.5 -24.5t-29 -37.5t-10.5 -46.5q0 -36 20 -64t50.5 -52.5t66 -49.5t66 -55t50.5 -68t20 -89t-20 -95.5t-54.5 -77.5t-80.5 -52t-99 -19q-109 0 -191 86l-21 -76h-35l42 254h33q7 -103 51 -157t122 -54
q36 0 66 10.5t51.5 29t34 44t12.5 55.5q0 42 -21 74t-52 60t-68 54t-68 55.5t-52 65t-21 81.5q0 43 18.5 81t50.5 66t75 44.5t92 16.5q47 0 84 -16t72 -51zM489 960l80 -109h-45l-105 54l-133 -54h-45l138 109h110z" />
    <glyph glyph-name="scircumflex" unicode="&#x15d;" horiz-adv-x="381" 
d="M77 387q0 33 12.5 61t34.5 48.5t52.5 32t66.5 11.5q48 0 80 -24t32 -62q0 -21 -11.5 -33t-31.5 -12q-23 0 -33 13.5t-17 30t-15 30.5t-27 14q-22 0 -37 -19t-15 -47q0 -33 19.5 -61.5t43.5 -59.5t43.5 -68t19.5 -87q0 -34 -14.5 -64t-39 -52.5t-56.5 -35.5t-66 -13
q-60 0 -95.5 26t-35.5 68q0 29 13.5 45.5t36.5 16.5q43 0 49 -59q3 -32 10.5 -42.5t30.5 -10.5q36 0 57 21.5t21 59.5q0 40 -20 71t-44 60.5t-44 62.5t-20 78zM344 780l84 -129h-45l-101 68l-137 -68h-45l154 129h90z" />
    <glyph glyph-name="uni015E" unicode="&#x15e;" horiz-adv-x="598" 
d="M558 755h30l-42 -197h-34q-3 91 -33 131t-94 40q-31 0 -57 -8.5t-44.5 -24.5t-29 -37.5t-10.5 -46.5q0 -36 20 -64t50.5 -52.5t66 -49.5t66 -55t50.5 -68t20 -89q0 -50 -19 -93.5t-52 -76.5t-78 -52.5t-96 -21.5l-40 -62q51 0 77.5 -16t26.5 -47q0 -26 -13 -48.5
t-34.5 -39.5t-49 -27t-55.5 -10q-45 0 -72 18t-27 45q0 21 12 35t29 14q12 0 16.5 -11t8 -23.5t10.5 -23.5t25 -11q24 0 44.5 18t20.5 45q0 41 -67 41q-10 0 -20 -0.5t-15 -1.5l-1 3l72 106q-82 12 -148 82l-21 -76h-35l42 254h33q7 -103 51 -157t122 -54q36 0 66 10.5
t51.5 29t34 44t12.5 55.5q0 42 -21 74t-52 60t-68 54t-68 55.5t-52 65t-21 81.5q0 43 18.5 81t50.5 66t75 44.5t92 16.5q47 0 84 -16t72 -51z" />
    <glyph glyph-name="uni015F" unicode="&#x15f;" horiz-adv-x="381" 
d="M77 387q0 33 12.5 61t34.5 48.5t52.5 32t66.5 11.5q48 0 80 -24t32 -62q0 -21 -11.5 -33t-31.5 -12q-23 0 -33 13.5t-17 30t-15 30.5t-27 14q-22 0 -37 -19t-15 -47q0 -33 19.5 -61.5t43.5 -59.5t43.5 -68t19.5 -87q0 -34 -14.5 -64t-39 -52.5t-56.5 -35.5t-66 -13h-5
l-40 -62q51 0 77.5 -16t26.5 -47q0 -26 -13 -48.5t-34.5 -39.5t-49 -27t-55.5 -10q-45 0 -72 18t-27 45q0 21 12 35t29 14q12 0 16.5 -11t8 -23.5t10.5 -23.5t25 -11q24 0 44.5 18t20.5 45q0 41 -67 41q-10 0 -20 -0.5t-15 -1.5l-1 3l74 109q-35 10 -55.5 32.5t-20.5 54.5
q0 29 13.5 45.5t36.5 16.5q43 0 49 -59q3 -32 10.5 -42.5t30.5 -10.5q36 0 57 21.5t21 59.5q0 40 -20 71t-44 60.5t-44 62.5t-20 78z" />
    <glyph glyph-name="Scaron" unicode="&#x160;" horiz-adv-x="598" 
d="M558 755h30l-42 -197h-34q-3 91 -33 131t-94 40q-31 0 -57 -8.5t-44.5 -24.5t-29 -37.5t-10.5 -46.5q0 -36 20 -64t50.5 -52.5t66 -49.5t66 -55t50.5 -68t20 -89t-20 -95.5t-54.5 -77.5t-80.5 -52t-99 -19q-109 0 -191 86l-21 -76h-35l42 254h33q7 -103 51 -157t122 -54
q36 0 66 10.5t51.5 29t34 44t12.5 55.5q0 42 -21 74t-52 60t-68 54t-68 55.5t-52 65t-21 81.5q0 43 18.5 81t50.5 66t75 44.5t92 16.5q47 0 84 -16t72 -51zM348 851l-80 109h45l105 -54l133 54h45l-138 -109h-110z" />
    <glyph glyph-name="scaron" unicode="&#x161;" horiz-adv-x="381" 
d="M77 387q0 33 12.5 61t34.5 48.5t52.5 32t66.5 11.5q48 0 80 -24t32 -62q0 -21 -11.5 -33t-31.5 -12q-23 0 -33 13.5t-17 30t-15 30.5t-27 14q-22 0 -37 -19t-15 -47q0 -33 19.5 -61.5t43.5 -59.5t43.5 -68t19.5 -87q0 -34 -14.5 -64t-39 -52.5t-56.5 -35.5t-66 -13
q-60 0 -95.5 26t-35.5 68q0 29 13.5 45.5t36.5 16.5q43 0 49 -59q3 -32 10.5 -42.5t30.5 -10.5q36 0 57 21.5t21 59.5q0 40 -20 71t-44 60.5t-44 62.5t-20 78zM219 651l-84 129h45l101 -68l137 68h45l-154 -129h-90z" />
    <glyph glyph-name="uni0162" unicode="&#x162;" horiz-adv-x="780" 
d="M407 168q-6 -23 -11 -39.5t-5 -30.5q0 -32 26 -45t89 -13l-12 -40h-126l-46 -72q51 0 77.5 -16t26.5 -47q0 -26 -13 -48.5t-34.5 -39.5t-49 -27t-55.5 -10q-45 0 -72 18t-27 45q0 21 12 35t29 14q12 0 16.5 -11t8 -23.5t10.5 -23.5t25 -11q24 0 44.5 18t20.5 45
q0 41 -67 41q-10 0 -20 -0.5t-15 -1.5l-1 3l77 112h-169l11 40q30 0 52 4t39.5 16t30 35.5t23.5 62.5l122 456q9 36 9 60q0 29 -13 41.5t-42 12.5q-88 0 -152.5 -45t-107.5 -126h-40l95 213h668l-20 -213h-38q0 96 -35.5 133.5t-105.5 37.5q-25 0 -42.5 -5t-31 -18t-24 -36
t-19.5 -59z" />
    <glyph glyph-name="uni0163" unicode="&#x163;" horiz-adv-x="365" 
d="M235 447l-83 -275q-17 -54 -18 -82q0 -9 4.5 -16t15.5 -7q18 0 38 13.5t38.5 32t33 38t21.5 30.5l29 -17q-15 -30 -37 -58t-47 -51t-50.5 -39t-49.5 -22l-42 -66q51 0 77.5 -16t26.5 -47q0 -26 -13 -48.5t-34.5 -39.5t-49 -27t-55.5 -10q-45 0 -72 18t-27 45q0 21 12 35
t29 14q12 0 16.5 -11t8 -23.5t10.5 -23.5t25 -11q24 0 44.5 18t20.5 45q0 41 -67 41q-10 0 -20 -0.5t-15 -1.5l-1 3l72 105q-38 10 -38 62q0 20 7 54t24 93l74 245h-86l13 46h87l52 172h92l-52 -172h109l-14 -46h-109z" />
    <glyph glyph-name="Tcaron" unicode="&#x164;" horiz-adv-x="780" 
d="M407 168q-6 -23 -11 -39.5t-5 -30.5q0 -32 26 -45t89 -13l-12 -40h-348l11 40q30 0 52 4t39.5 16t30 35.5t23.5 62.5l122 456q9 36 9 60q0 29 -13 41.5t-42 12.5q-88 0 -152.5 -45t-107.5 -126h-40l95 213h668l-20 -213h-38q0 96 -35.5 133.5t-105.5 37.5q-25 0 -42.5 -5
t-31 -18t-24 -36t-19.5 -59zM477 851l-80 109h45l105 -54l133 54h45l-138 -109h-110z" />
    <glyph glyph-name="tcaron" unicode="&#x165;" horiz-adv-x="365" 
d="M235 447l-83 -275q-17 -54 -18 -82q0 -9 4.5 -16t15.5 -7q18 0 38 13.5t38.5 32t33 38t21.5 30.5l29 -17q-17 -34 -43 -65.5t-55 -55.5t-58.5 -38.5t-53.5 -14.5q-35 0 -50.5 15t-15.5 50q0 20 7 54t24 93l74 245h-86l13 46h87l52 172h92l-52 -172h109l-14 -46h-109z
M356 610q39 19 59.5 37.5t26.5 40.5q-11 -8 -28 -8q-33 0 -33 31q0 29 22.5 49t52.5 20q46 0 46 -47q0 -42 -29 -78.5t-102 -70.5z" />
    <glyph glyph-name="Tbar" unicode="&#x166;" horiz-adv-x="797" 
d="M486 449h271l-13 -50h-272l-61 -231q-6 -23 -11 -39.5t-5 -30.5q0 -32 26 -45t89 -13l-12 -40h-348l11 40q30 0 52 4t39.5 16t30 35.5t23.5 62.5l64 241h-260l13 50h261l44 165q9 36 9 60q0 29 -13 41.5t-42 12.5q-88 0 -152.5 -45t-107.5 -126h-40l95 213h668l-20 -213
h-38q0 96 -35.5 133.5t-105.5 37.5q-25 0 -42.5 -5t-31 -18t-24 -36t-19.5 -59z" />
    <glyph glyph-name="tbar" unicode="&#x167;" horiz-adv-x="366" 
d="M236 447l-20 -66h112l-15 -53h-113l-47 -156q-17 -54 -18 -82q0 -9 4.5 -16t15.5 -7q18 0 38 13.5t38.5 32t33 38t21.5 30.5l29 -17q-17 -34 -43 -65.5t-55 -55.5t-58.5 -38.5t-53.5 -14.5q-35 0 -50.5 15t-15.5 50q0 20 7 54t24 93l38 126h-74l15 53h75l20 66h-86l13 46
h87l52 172h92l-52 -172h109l-14 -46h-109z" />
    <glyph glyph-name="Utilde" unicode="&#x168;" horiz-adv-x="808" 
d="M200 599q5 20 9 41.5t4 35.5q0 30 -21 42t-73 12l13 40h319l-11 -40q-36 0 -58 -5.5t-37.5 -22.5t-27 -50t-25.5 -87l-65 -251q-7 -26 -10 -49.5t-3 -44.5q0 -80 41 -127t120 -47q49 0 87.5 18.5t68.5 51t52 77t39 97.5q15 48 29.5 107t26 114t18 98.5t6.5 60.5
q0 30 -27.5 44t-74.5 16l12 40h263l-12 -40q-24 0 -41 -4.5t-29 -19.5t-21 -42t-19 -72l-43 -200q-43 -199 -128 -300.5t-215 -101.5q-128 0 -190.5 59.5t-62.5 169.5q0 32 5 64.5t15 69.5zM372 846q8 51 37.5 82.5t67.5 31.5q22 0 43 -7t41 -16t38.5 -16t36.5 -7
q17 0 27 9.5t17 32.5h33q-3 -23 -11 -44t-21 -37.5t-30 -26.5t-37 -10q-22 0 -44.5 7.5t-44 16.5t-41.5 16.5t-36 7.5q-17 0 -26 -9t-16 -31h-34z" />
    <glyph glyph-name="utilde" unicode="&#x169;" horiz-adv-x="593" 
d="M169 62q16 0 42 22.5t55 60t56.5 85.5t46.5 100l74 200h93l-74 -229q-16 -50 -27 -85.5t-18 -60t-10 -40t-3 -24.5q0 -26 18 -26q10 0 24 9.5t28.5 26t28 37t23.5 43.5l30 -15q-13 -33 -34 -64.5t-45.5 -56.5t-51.5 -40t-53 -15q-31 0 -42 22t-11 63q0 17 1.5 36.5
t5.5 38.5l-3 3q-27 -48 -52.5 -79t-49.5 -50t-47 -26.5t-45 -7.5q-47 0 -65.5 26t-18.5 64q0 42 16 92.5t34 95.5t30.5 76t20 52t11 34t3.5 21q0 4 -1.5 7.5t-7.5 3.5q-13 0 -37.5 -23t-66.5 -74l-26 14q15 29 38 58t49 52t54 37t52 14q50 0 50 -58q0 -35 -19.5 -90.5
t-50.5 -132.5q-20 -49 -33 -88t-13 -71q0 -21 6 -29.5t15 -8.5zM201 660q8 51 37.5 82.5t67.5 31.5q15 0 36 -5.5t50 -18.5t44.5 -17.5t28.5 -4.5q17 0 27 9.5t17 32.5h33q-2 -20 -11 -43t-21 -39q-27 -36 -67 -36q-14 0 -31.5 5.5t-52.5 19.5q-34 13 -52 18t-30 5
q-17 0 -26 -9t-16 -31h-34z" />
    <glyph glyph-name="Umacron" unicode="&#x16a;" horiz-adv-x="808" 
d="M200 599q5 20 9 41.5t4 35.5q0 30 -21 42t-73 12l13 40h319l-11 -40q-36 0 -58 -5.5t-37.5 -22.5t-27 -50t-25.5 -87l-65 -251q-7 -26 -10 -49.5t-3 -44.5q0 -80 41 -127t120 -47q49 0 87.5 18.5t68.5 51t52 77t39 97.5q15 48 29.5 107t26 114t18 98.5t6.5 60.5
q0 30 -27.5 44t-74.5 16l12 40h263l-12 -40q-24 0 -41 -4.5t-29 -19.5t-21 -42t-19 -72l-43 -200q-43 -199 -128 -300.5t-215 -101.5q-128 0 -190.5 59.5t-62.5 169.5q0 32 5 64.5t15 69.5zM401 880l13 50h270l-13 -50h-270z" />
    <glyph glyph-name="umacron" unicode="&#x16b;" horiz-adv-x="593" 
d="M169 62q16 0 42 22.5t55 60t56.5 85.5t46.5 100l74 200h93l-74 -229q-16 -50 -27 -85.5t-18 -60t-10 -40t-3 -24.5q0 -26 18 -26q10 0 24 9.5t28.5 26t28 37t23.5 43.5l30 -15q-13 -33 -34 -64.5t-45.5 -56.5t-51.5 -40t-53 -15q-31 0 -42 22t-11 63q0 17 1.5 36.5
t5.5 38.5l-3 3q-27 -48 -52.5 -79t-49.5 -50t-47 -26.5t-45 -7.5q-47 0 -65.5 26t-18.5 64q0 42 16 92.5t34 95.5t30.5 76t20 52t11 34t3.5 21q0 4 -1.5 7.5t-7.5 3.5q-13 0 -37.5 -23t-66.5 -74l-26 14q15 29 38 58t49 52t54 37t52 14q50 0 50 -58q0 -35 -19.5 -90.5
t-50.5 -132.5q-20 -49 -33 -88t-13 -71q0 -21 6 -29.5t15 -8.5zM230 702l13 50h270l-13 -50h-270z" />
    <glyph glyph-name="Ubreve" unicode="&#x16c;" horiz-adv-x="808" 
d="M200 599q5 20 9 41.5t4 35.5q0 30 -21 42t-73 12l13 40h319l-11 -40q-36 0 -58 -5.5t-37.5 -22.5t-27 -50t-25.5 -87l-65 -251q-7 -26 -10 -49.5t-3 -44.5q0 -80 41 -127t120 -47q49 0 87.5 18.5t68.5 51t52 77t39 97.5q15 48 29.5 107t26 114t18 98.5t6.5 60.5
q0 30 -27.5 44t-74.5 16l12 40h263l-12 -40q-24 0 -41 -4.5t-29 -19.5t-21 -42t-19 -72l-43 -200q-43 -199 -128 -300.5t-215 -101.5q-128 0 -190.5 59.5t-62.5 169.5q0 32 5 64.5t15 69.5zM696 960q-9 -25 -26 -46t-39.5 -36.5t-49 -24t-54.5 -8.5q-51 0 -80.5 25t-29.5 65
q0 11 3 25h36q2 -21 26.5 -33.5t62.5 -12.5t69 12.5t45 33.5h37z" />
    <glyph glyph-name="ubreve" unicode="&#x16d;" horiz-adv-x="593" 
d="M169 62q16 0 42 22.5t55 60t56.5 85.5t46.5 100l74 200h93l-74 -229q-16 -50 -27 -85.5t-18 -60t-10 -40t-3 -24.5q0 -26 18 -26q10 0 24 9.5t28.5 26t28 37t23.5 43.5l30 -15q-13 -33 -34 -64.5t-45.5 -56.5t-51.5 -40t-53 -15q-31 0 -42 22t-11 63q0 17 1.5 36.5
t5.5 38.5l-3 3q-27 -48 -52.5 -79t-49.5 -50t-47 -26.5t-45 -7.5q-47 0 -65.5 26t-18.5 64q0 42 16 92.5t34 95.5t30.5 76t20 52t11 34t3.5 21q0 4 -1.5 7.5t-7.5 3.5q-13 0 -37.5 -23t-66.5 -74l-26 14q15 29 38 58t49 52t54 37t52 14q50 0 50 -58q0 -35 -19.5 -90.5
t-50.5 -132.5q-20 -49 -33 -88t-13 -71q0 -21 6 -29.5t15 -8.5zM527 776q-9 -29 -27 -52.5t-41 -41t-50 -27t-55 -9.5q-50 0 -78.5 27t-28.5 71q0 17 4 32h36q2 -28 25 -44.5t60 -16.5q38 0 70 16.5t48 44.5h37z" />
    <glyph glyph-name="Uring" unicode="&#x16e;" horiz-adv-x="808" 
d="M200 599q5 20 9 41.5t4 35.5q0 30 -21 42t-73 12l13 40h319l-11 -40q-36 0 -58 -5.5t-37.5 -22.5t-27 -50t-25.5 -87l-65 -251q-7 -26 -10 -49.5t-3 -44.5q0 -80 41 -127t120 -47q49 0 87.5 18.5t68.5 51t52 77t39 97.5q15 48 29.5 107t26 114t18 98.5t6.5 60.5
q0 30 -27.5 44t-74.5 16l12 40h263l-12 -40q-24 0 -41 -4.5t-29 -19.5t-21 -42t-19 -72l-43 -200q-43 -199 -128 -300.5t-215 -101.5q-128 0 -190.5 59.5t-62.5 169.5q0 32 5 64.5t15 69.5zM475 878q0 16 7 30.5t19 26t27 18.5t32 7q23 0 36.5 -13t13.5 -36
q0 -16 -7.5 -30.5t-19.5 -26t-27.5 -18t-31.5 -6.5q-23 0 -36 13t-13 35zM551 928q-17 0 -30.5 -13t-13.5 -30q0 -24 25 -24q17 0 31 12.5t14 29.5q0 25 -26 25z" />
    <glyph glyph-name="uring" unicode="&#x16f;" horiz-adv-x="593" 
d="M169 62q16 0 42 22.5t55 60t56.5 85.5t46.5 100l74 200h93l-74 -229q-16 -50 -27 -85.5t-18 -60t-10 -40t-3 -24.5q0 -26 18 -26q10 0 24 9.5t28.5 26t28 37t23.5 43.5l30 -15q-13 -33 -34 -64.5t-45.5 -56.5t-51.5 -40t-53 -15q-31 0 -42 22t-11 63q0 17 1.5 36.5
t5.5 38.5l-3 3q-27 -48 -52.5 -79t-49.5 -50t-47 -26.5t-45 -7.5q-47 0 -65.5 26t-18.5 64q0 42 16 92.5t34 95.5t30.5 76t20 52t11 34t3.5 21q0 4 -1.5 7.5t-7.5 3.5q-13 0 -37.5 -23t-66.5 -74l-26 14q15 29 38 58t49 52t54 37t52 14q50 0 50 -58q0 -35 -19.5 -90.5
t-50.5 -132.5q-20 -49 -33 -88t-13 -71q0 -21 6 -29.5t15 -8.5zM282 718q0 21 9 41t24.5 36t36 25.5t43.5 9.5q32 0 50 -17t18 -45q0 -23 -9.5 -43.5t-25.5 -35.5t-37 -24t-43 -9q-31 0 -48.5 17t-17.5 45zM385 788q-22 0 -41.5 -16.5t-19.5 -41.5q0 -15 10 -24.5t27 -9.5
q22 0 40.5 17.5t18.5 42.5q0 14 -9.5 23t-25.5 9z" />
    <glyph glyph-name="Uhungarumlaut" unicode="&#x170;" horiz-adv-x="808" 
d="M200 599q5 20 9 41.5t4 35.5q0 30 -21 42t-73 12l13 40h319l-11 -40q-36 0 -58 -5.5t-37.5 -22.5t-27 -50t-25.5 -87l-65 -251q-7 -26 -10 -49.5t-3 -44.5q0 -80 41 -127t120 -47q49 0 87.5 18.5t68.5 51t52 77t39 97.5q15 48 29.5 107t26 114t18 98.5t6.5 60.5
q0 30 -27.5 44t-74.5 16l12 40h263l-12 -40q-24 0 -41 -4.5t-29 -19.5t-21 -42t-19 -72l-43 -200q-43 -199 -128 -300.5t-215 -101.5q-128 0 -190.5 59.5t-62.5 169.5q0 32 5 64.5t15 69.5zM358 850l120 77q27 17 47 25t40 8q17 0 27.5 -9t10.5 -26q0 -16 -20.5 -27.5
t-54.5 -19.5l-110 -28h-60zM545 850l120 77q27 17 47 25t40 8q17 0 27.5 -9t10.5 -26q0 -16 -20.5 -27.5t-54.5 -19.5l-110 -28h-60z" />
    <glyph glyph-name="uhungarumlaut" unicode="&#x171;" horiz-adv-x="593" 
d="M169 62q16 0 42 22.5t55 60t56.5 85.5t46.5 100l74 200h93l-74 -229q-16 -50 -27 -85.5t-18 -60t-10 -40t-3 -24.5q0 -26 18 -26q10 0 24 9.5t28.5 26t28 37t23.5 43.5l30 -15q-13 -33 -34 -64.5t-45.5 -56.5t-51.5 -40t-53 -15q-31 0 -42 22t-11 63q0 17 1.5 36.5
t5.5 38.5l-3 3q-27 -48 -52.5 -79t-49.5 -50t-47 -26.5t-45 -7.5q-47 0 -65.5 26t-18.5 64q0 42 16 92.5t34 95.5t30.5 76t20 52t11 34t3.5 21q0 4 -1.5 7.5t-7.5 3.5q-13 0 -37.5 -23t-66.5 -74l-26 14q15 29 38 58t49 52t54 37t52 14q50 0 50 -58q0 -35 -19.5 -90.5
t-50.5 -132.5q-20 -49 -33 -88t-13 -71q0 -21 6 -29.5t15 -8.5zM187 651l130 119q36 33 67 33q17 0 27.5 -9t10.5 -26q0 -16 -13.5 -28.5t-37.5 -23.5l-137 -65h-47zM385 651l130 119q36 33 67 33q17 0 27.5 -9t10.5 -26q0 -16 -13.5 -28.5t-37.5 -23.5l-137 -65h-47z" />
    <glyph glyph-name="Uogonek" unicode="&#x172;" horiz-adv-x="808" 
d="M433 -152q-31 -40 -71.5 -61t-85.5 -21q-46 0 -71.5 22.5t-25.5 62.5q0 42 30 79.5t86 65.5q-91 15 -136 72t-45 151q0 32 5 64.5t15 69.5l66 246q5 20 9 41.5t4 35.5q0 30 -21 42t-73 12l13 40h319l-11 -40q-36 0 -58 -5.5t-37.5 -22.5t-27 -50t-25.5 -87l-65 -251
q-7 -26 -10 -49.5t-3 -44.5q0 -80 41 -127t120 -47q49 0 87.5 18.5t68.5 51t52 77t39 97.5q15 48 29.5 107t26 114t18 98.5t6.5 60.5q0 30 -27.5 44t-74.5 16l12 40h263l-12 -40q-24 0 -41 -4.5t-29 -19.5t-21 -42t-19 -72l-43 -200q-43 -199 -128 -300.5t-215 -101.5h-15
q-43 -26 -68.5 -57.5t-25.5 -58.5q0 -20 15 -34t36 -14q19 0 44 13.5t51 39.5z" />
    <glyph glyph-name="uogonek" unicode="&#x173;" horiz-adv-x="593" 
d="M446 -152q-31 -40 -71.5 -61t-85.5 -21q-46 0 -71.5 22.5t-25.5 62.5q0 47 37 87.5t104 68.5q-14 20 -14 68q0 17 1.5 36.5t5.5 38.5l-3 3q-27 -48 -52.5 -79t-49.5 -50t-47 -26.5t-45 -7.5q-47 0 -65.5 26t-18.5 64q0 42 16 92.5t34 95.5t30.5 76t20 52t11 34t3.5 21
q0 4 -1.5 7.5t-7.5 3.5q-13 0 -37.5 -23t-66.5 -74l-26 14q15 29 38 58t49 52t54 37t52 14q50 0 50 -58q0 -35 -19.5 -90.5t-50.5 -132.5q-20 -49 -33 -88t-13 -71q0 -21 6 -29.5t15 -8.5q16 0 42 22.5t55 60t56.5 85.5t46.5 100l74 200h93l-74 -229q-16 -50 -27 -85.5
t-18 -60t-10 -40t-3 -24.5q0 -26 18 -26q10 0 24 9.5t28.5 26t28 37t23.5 43.5l30 -15q-13 -33 -34 -64.5t-45.5 -56.5t-51.5 -40t-53 -15h-7q-43 -26 -68.5 -57.5t-25.5 -58.5q0 -20 15 -34t36 -14q19 0 44 13.5t51 39.5z" />
    <glyph glyph-name="Wcircumflex" unicode="&#x174;" horiz-adv-x="1064" 
d="M896 546q54 69 80 106.5t26 54.5q0 14 -15.5 18.5t-47.5 4.5l10 40h259l-10 -40q-24 0 -48.5 -8.5t-53 -30t-63.5 -58.5t-78 -94l-421 -549h-84l108 477l-366 -477h-84l139 614q12 52 12 77q0 29 -19 39t-74 10l10 40h276l-10 -40q-21 0 -35.5 -4.5t-26 -18.5t-20 -39
t-17.5 -65l-101 -451h4l339 435l4 17q12 52 12 77q0 29 -17 39t-66 10l10 40h286l-10 -40q-29 0 -48 -4.5t-32 -18t-21.5 -38.5t-17.5 -66l-101 -451h4zM752 960l80 -109h-45l-105 54l-133 -54h-45l138 109h110z" />
    <glyph glyph-name="wcircumflex" unicode="&#x175;" horiz-adv-x="850" 
d="M407 97q-45 -52 -94 -79.5t-98 -27.5q-55 0 -86 35.5t-31 99.5q0 125 129 299l-2 3q-27 0 -45 8t-30.5 18t-22 18t-20.5 8q-16 0 -16 -17q0 -9 5.5 -16t12 -14t12 -15.5t5.5 -20.5q0 -18 -14 -29.5t-36 -11.5q-26 0 -40 16t-14 45q0 24 10 46.5t27 40t39.5 27.5t46.5 10
q21 0 35 -6.5t26 -15t23.5 -15t26.5 -6.5q8 0 14.5 3t15.5 12q11 11 22 19.5t25 8.5q21 0 21 -20q0 -3 -1 -6.5t-5.5 -9.5t-12.5 -15.5t-22 -25.5q-29 -34 -51.5 -72t-37.5 -76.5t-23 -76t-8 -70.5q0 -49 16 -76.5t45 -27.5q27 0 63 26.5t77 74.5q-2 21 -3.5 43t-1.5 40
q0 54 12.5 106.5t32.5 94t46 66.5t53 25q22 0 39.5 -19t17.5 -64q0 -54 -29 -125t-84 -149q9 -48 33.5 -78t53.5 -30q28 0 57 26t53 66.5t39.5 90t15.5 96.5q0 23 -3.5 40t-8 31.5t-8 28t-3.5 29.5q0 57 52 57q31 0 44.5 -23t13.5 -77q0 -80 -26 -160.5t-67.5 -145
t-93.5 -104.5t-104 -40q-42 0 -72 27t-46 80zM463 247q26 43 42.5 86t16.5 87q0 38 -15 38q-10 0 -19 -13t-15.5 -35t-10.5 -51.5t-4 -62.5q0 -14 1 -26t4 -23zM627 780l84 -129h-45l-101 68l-137 -68h-45l154 129h90z" />
    <glyph glyph-name="Ycircumflex" unicode="&#x176;" horiz-adv-x="689" 
d="M393 168q-12 -44 -12 -70q0 -34 23.5 -46t77.5 -12l-12 -40h-339l11 40q32 0 55 4.5t40 17.5t28.5 36t21.5 60l46 178l-120 288q-15 36 -27 57t-25 32t-29.5 14t-41.5 3l11 40h281l-11 -40q-38 0 -54.5 -7.5t-16.5 -27.5q0 -7 1.5 -16t6.5 -20l107 -258l139 203
q22 31 31.5 48t9.5 35q0 21 -19.5 32t-54.5 11l11 40h247l-11 -40q-20 0 -34 -3t-26 -12t-24 -25t-30 -41l-214 -301zM563 960l80 -109h-45l-105 54l-133 -54h-45l138 109h110z" />
    <glyph glyph-name="ycircumflex" unicode="&#x177;" horiz-adv-x="515" 
d="M161 292q-16 82 -32.5 113.5t-34.5 31.5q-19 0 -34.5 -28.5t-31.5 -90.5l-37 10q10 46 26.5 85t36 67.5t41.5 44t44 15.5q19 0 32.5 -14t27.5 -52q12 -32 26.5 -84.5t28.5 -120.5l34 -161h4q19 24 38.5 54.5t35.5 64t26 68t10 64.5q0 10 -1 25.5t-2.5 31.5t-2.5 30.5
t-1 23.5q0 36 18 53t38 17q26 0 38 -22t12 -51q0 -41 -22 -105t-58 -137.5t-83 -150t-97 -140.5q-76 -99 -140.5 -146.5t-120.5 -47.5q-42 0 -66.5 23t-24.5 56q0 25 14 40.5t37 15.5q20 0 29.5 -11.5t15.5 -26t12.5 -26t20.5 -11.5q19 0 48 21t58 52.5t54.5 68.5t36.5 69z
M392 780l84 -129h-45l-101 68l-137 -68h-45l154 129h90z" />
    <glyph glyph-name="Ydieresis" unicode="&#x178;" horiz-adv-x="689" 
d="M393 168q-12 -44 -12 -70q0 -34 23.5 -46t77.5 -12l-12 -40h-339l11 40q32 0 55 4.5t40 17.5t28.5 36t21.5 60l46 178l-120 288q-15 36 -27 57t-25 32t-29.5 14t-41.5 3l11 40h281l-11 -40q-38 0 -54.5 -7.5t-16.5 -27.5q0 -7 1.5 -16t6.5 -20l107 -258l139 203
q22 31 31.5 48t9.5 35q0 21 -19.5 32t-54.5 11l11 40h247l-11 -40q-20 0 -34 -3t-26 -12t-24 -25t-30 -41l-214 -301zM355 910q5 21 23.5 35.5t39.5 14.5q18 0 29 -10.5t11 -26.5q0 -13 -6 -24.5t-15.5 -20.5t-21.5 -14t-24 -5q-17 0 -27.5 10t-10.5 26q0 10 2 15zM537 910
q5 21 23.5 35.5t40.5 14.5q17 0 28 -10.5t11 -26.5q0 -13 -6 -24.5t-15.5 -20.5t-21 -14t-23.5 -5q-18 0 -28.5 10t-10.5 26q0 10 2 15z" />
    <glyph glyph-name="Zacute" unicode="&#x179;" horiz-adv-x="672" 
d="M158 50h125q95 0 166.5 38.5t115.5 132.5h43l-84 -221h-531v21l543 701h-101q-60 0 -100.5 -5.5t-71.5 -22t-56 -46t-54 -76.5h-43l101 198h485v-19zM353 850l150 77q32 17 54 25t42 8q30 0 30 -25q0 -20 -23 -34t-66 -23l-127 -28h-60z" />
    <glyph glyph-name="zacute" unicode="&#x17a;" horiz-adv-x="519" 
d="M160 155l2 -3q22 0 45.5 -10.5t47.5 -23t48 -23t47 -10.5q29 0 50 18t39 66l34 -13q-10 -37 -28 -67.5t-41.5 -52.5t-51 -34t-56.5 -12q-35 0 -60.5 14t-46.5 31.5t-40.5 31.5t-41.5 14q-21 0 -28.5 -12.5t-12.5 -28t-12.5 -28t-29.5 -12.5q-33 0 -33 30q0 19 16 39
t50 53l276 267l-2 3q-20 0 -42.5 13t-46 29t-47 29t-44.5 13q-17 0 -26.5 -8.5t-9.5 -22.5t8 -21t17.5 -13.5t17.5 -15.5t8 -27q0 -46 -49 -46q-32 0 -49.5 20.5t-17.5 56.5q0 30 12 55.5t33.5 44.5t50.5 30t62 11q37 0 62 -12t43.5 -27t34.5 -27t34 -12q17 0 25.5 10.5
t15 23.5t14 23.5t24.5 10.5q29 0 29 -31q0 -8 -2 -15t-8.5 -17t-20 -23.5l-35.5 -35.5zM237 651l130 119q36 33 67 33q17 0 27.5 -9t10.5 -26q0 -16 -13.5 -28.5t-37.5 -23.5l-137 -65h-47z" />
    <glyph glyph-name="Zdotaccent" unicode="&#x17b;" horiz-adv-x="672" 
d="M158 50h125q95 0 166.5 38.5t115.5 132.5h43l-84 -221h-531v21l543 701h-101q-60 0 -100.5 -5.5t-71.5 -22t-56 -46t-54 -76.5h-43l101 198h485v-19zM416 904q0 23 15.5 39t36.5 16q23 0 39 -16t16 -39q0 -21 -16 -36.5t-39 -15.5q-21 0 -36.5 15.5t-15.5 36.5z" />
    <glyph glyph-name="zdotaccent" unicode="&#x17c;" horiz-adv-x="519" 
d="M160 155l2 -3q22 0 45.5 -10.5t47.5 -23t48 -23t47 -10.5q29 0 50 18t39 66l34 -13q-10 -37 -28 -67.5t-41.5 -52.5t-51 -34t-56.5 -12q-35 0 -60.5 14t-46.5 31.5t-40.5 31.5t-41.5 14q-21 0 -28.5 -12.5t-12.5 -28t-12.5 -28t-29.5 -12.5q-33 0 -33 30q0 19 16 39
t50 53l276 267l-2 3q-20 0 -42.5 13t-46 29t-47 29t-44.5 13q-17 0 -26.5 -8.5t-9.5 -22.5t8 -21t17.5 -13.5t17.5 -15.5t8 -27q0 -46 -49 -46q-32 0 -49.5 20.5t-17.5 56.5q0 30 12 55.5t33.5 44.5t50.5 30t62 11q37 0 62 -12t43.5 -27t34.5 -27t34 -12q17 0 25.5 10.5
t15 23.5t14 23.5t24.5 10.5q29 0 29 -31q0 -8 -2 -15t-8.5 -17t-20 -23.5l-35.5 -35.5zM265 743q0 26 18 44t44 18t44 -18t18 -44t-18 -44t-44 -18t-44 18t-18 44z" />
    <glyph glyph-name="Zcaron" unicode="&#x17d;" horiz-adv-x="672" 
d="M158 50h125q95 0 166.5 38.5t115.5 132.5h43l-84 -221h-531v21l543 701h-101q-60 0 -100.5 -5.5t-71.5 -22t-56 -46t-54 -76.5h-43l101 198h485v-19zM398 851l-80 109h45l105 -54l133 54h45l-138 -109h-110z" />
    <glyph glyph-name="zcaron" unicode="&#x17e;" horiz-adv-x="519" 
d="M160 155l2 -3q22 0 45.5 -10.5t47.5 -23t48 -23t47 -10.5q29 0 50 18t39 66l34 -13q-10 -37 -28 -67.5t-41.5 -52.5t-51 -34t-56.5 -12q-35 0 -60.5 14t-46.5 31.5t-40.5 31.5t-41.5 14q-21 0 -28.5 -12.5t-12.5 -28t-12.5 -28t-29.5 -12.5q-33 0 -33 30q0 19 16 39
t50 53l276 267l-2 3q-20 0 -42.5 13t-46 29t-47 29t-44.5 13q-17 0 -26.5 -8.5t-9.5 -22.5t8 -21t17.5 -13.5t17.5 -15.5t8 -27q0 -46 -49 -46q-32 0 -49.5 20.5t-17.5 56.5q0 30 12 55.5t33.5 44.5t50.5 30t62 11q37 0 62 -12t43.5 -27t34.5 -27t34 -12q17 0 25.5 10.5
t15 23.5t14 23.5t24.5 10.5q29 0 29 -31q0 -8 -2 -15t-8.5 -17t-20 -23.5l-35.5 -35.5zM264 651l-84 129h45l101 -68l137 68h45l-154 -129h-90z" />
    <glyph glyph-name="Schwa" unicode="&#x18f;" horiz-adv-x="644" 
d="M130 600q60 90 135 135.5t162 45.5q97 0 149 -61t52 -173q0 -66 -18.5 -133t-51.5 -129t-76.5 -116t-94.5 -93.5t-105.5 -62.5t-108.5 -23q-35 0 -63.5 9.5t-49.5 26t-32.5 39.5t-11.5 50q0 50 38.5 103t105 101t154.5 87t187 60q4 20 5 39.5t1 39.5q0 84 -29.5 128
t-86.5 44q-53 0 -110 -39t-105 -108zM199 48q41 0 83.5 29.5t81.5 79t71 113t52 131.5q-75 -20 -138 -51t-109.5 -70t-72.5 -83t-26 -89q0 -30 16 -45t42 -15z" />
    <glyph glyph-name="florin" unicode="&#x192;" horiz-adv-x="460" 
d="M77 -96q25 0 39.5 21.5t21.5 61.5l87 503h-86l8 41h85q13 79 31 135.5t42.5 93t56 53.5t72.5 17q52 0 85.5 -25t33.5 -63q0 -32 -22 -52.5t-55 -20.5q-29 0 -41 22q18 3 31 19.5t13 36.5q0 19 -13 31t-33 12q-89 0 -119 -259h90l-8 -41h-88l-55 -337q-13 -81 -30 -137.5
t-40 -92.5t-52.5 -52t-67.5 -16q-50 0 -79 24t-29 66q0 33 20 54.5t52 21.5q29 0 42 -27q-14 -3 -23 -16.5t-9 -33.5q0 -40 40 -40z" />
    <glyph glyph-name="uni01C4" unicode="&#x1c4;" horiz-adv-x="1508" 
d="M165 770h271q69 0 134 -16.5t118 -60.5q57 -47 83 -111.5t26 -134.5q0 -45 -10.5 -90.5t-29 -88t-44 -80t-55.5 -67.5q-70 -69 -155 -95t-182 -26h-350l11 40q32 0 53.5 4t36 16.5t25 35.5t20.5 62l115 442q2 7 5.5 18t7.5 24t6.5 25t2.5 21q0 15 -8.5 23t-21 12.5
t-27 5.5t-26.5 1h-19zM237 231q-8 -30 -13 -49.5t-7.5 -32t-3.5 -19.5t-1 -12q0 -27 11.5 -41.5t27.5 -22t33 -9t28 -1.5q65 0 118 18t94 49.5t70.5 72.5t49 87t28.5 93.5t9 92.5q0 126 -67.5 194.5t-185.5 68.5q-29 0 -46.5 -8.5t-26.5 -42.5zM994 50h125q95 0 166.5 38.5
t115.5 132.5h43l-84 -221h-531v21l543 701h-101q-60 0 -100.5 -5.5t-71.5 -22t-56 -46t-54 -76.5h-43l101 198h485v-19zM1234 851l-80 109h45l105 -54l133 54h45l-138 -109h-110z" />
    <glyph glyph-name="uni01C5" unicode="&#x1c5;" horiz-adv-x="1355" 
d="M165 770h271q69 0 134 -16.5t118 -60.5q57 -47 83 -111.5t26 -134.5q0 -45 -10.5 -90.5t-29 -88t-44 -80t-55.5 -67.5q-70 -69 -155 -95t-182 -26h-350l11 40q32 0 53.5 4t36 16.5t25 35.5t20.5 62l115 442q2 7 5.5 18t7.5 24t6.5 25t2.5 21q0 15 -8.5 23t-21 12.5
t-27 5.5t-26.5 1h-19zM237 231q-8 -30 -13 -49.5t-7.5 -32t-3.5 -19.5t-1 -12q0 -27 11.5 -41.5t27.5 -22t33 -9t28 -1.5q65 0 118 18t94 49.5t70.5 72.5t49 87t28.5 93.5t9 92.5q0 126 -67.5 194.5t-185.5 68.5q-29 0 -46.5 -8.5t-26.5 -42.5zM996 155l2 -3
q22 0 45.5 -10.5t47.5 -23t48 -23t47 -10.5q29 0 50 18t39 66l34 -13q-10 -37 -28 -67.5t-41.5 -52.5t-51 -34t-56.5 -12q-35 0 -60.5 14t-46.5 31.5t-40.5 31.5t-41.5 14q-21 0 -28.5 -12.5t-12.5 -28t-12.5 -28t-29.5 -12.5q-33 0 -33 30q0 19 16 39t50 53l276 267l-2 3
q-20 0 -42.5 13t-46 29t-47 29t-44.5 13q-17 0 -26.5 -8.5t-9.5 -22.5t8 -21t17.5 -13.5t17.5 -15.5t8 -27q0 -46 -49 -46q-32 0 -49.5 20.5t-17.5 56.5q0 30 12 55.5t33.5 44.5t50.5 30t62 11q37 0 62 -12t43.5 -27t34.5 -27t34 -12q17 0 25.5 10.5t15 23.5t14 23.5
t24.5 10.5q29 0 29 -31q0 -8 -2 -15t-8.5 -17t-20 -23.5l-35.5 -35.5zM1100 651l-84 129h45l101 -68l137 68h45l-154 -129h-90z" />
    <glyph glyph-name="uni01C6" unicode="&#x1c6;" horiz-adv-x="1117" 
d="M468 692q8 27 12 45t4 26q0 15 -20 21t-72 6l11 40h193l-111 -405q-21 -78 -35 -133t-22.5 -92.5t-11.5 -61.5t-3 -40q0 -23 7 -32t18 -9q22 0 47.5 37t45.5 97l38 -9q-34 -99 -74.5 -145.5t-91.5 -46.5q-36 0 -55.5 23t-19.5 66q0 11 2 23t5 23l-8 2q-38 -66 -92 -101.5
t-103 -35.5q-26 0 -48 11.5t-38 32t-25.5 49t-9.5 63.5q0 43 13.5 89.5t37 90t54.5 82.5t65.5 68.5t71 46.5t71.5 17q34 0 51.5 -13t34.5 -41zM331 487q-26 0 -52.5 -16.5t-51.5 -44t-46.5 -63.5t-37.5 -75t-25.5 -79t-9.5 -75q0 -36 18 -57.5t48 -21.5q23 0 47 18.5
t47 48.5t43.5 68.5t36 79t24.5 80t9 71.5q0 31 -12 48.5t-38 17.5zM758 155l2 -3q22 0 45.5 -10.5t47.5 -23t48 -23t47 -10.5q29 0 50 18t39 66l34 -13q-10 -37 -28 -67.5t-41.5 -52.5t-51 -34t-56.5 -12q-35 0 -60.5 14t-46.5 31.5t-40.5 31.5t-41.5 14q-21 0 -28.5 -12.5
t-12.5 -28t-12.5 -28t-29.5 -12.5q-33 0 -33 30q0 19 16 39t50 53l276 267l-2 3q-20 0 -42.5 13t-46 29t-47 29t-44.5 13q-17 0 -26.5 -8.5t-9.5 -22.5t8 -21t17.5 -13.5t17.5 -15.5t8 -27q0 -46 -49 -46q-32 0 -49.5 20.5t-17.5 56.5q0 30 12 55.5t33.5 44.5t50.5 30t62 11
q37 0 62 -12t43.5 -27t34.5 -27t34 -12q17 0 25.5 10.5t15 23.5t14 23.5t24.5 10.5q29 0 29 -31q0 -8 -2 -15t-8.5 -17t-20 -23.5l-35.5 -35.5zM862 651l-84 129h45l101 -68l137 68h45l-154 -129h-90z" />
    <glyph glyph-name="uni01C7" unicode="&#x1c7;" horiz-adv-x="1245" 
d="M-14 40q33 0 54.5 5t36 18.5t24.5 36t19 58.5l113 442q7 28 11 48t4 34q0 31 -22.5 39.5t-76.5 8.5l11 40h325l-11 -40q-33 0 -55 -6.5t-38 -24.5t-28.5 -50t-25.5 -83l-104 -396q-9 -33 -9 -56q0 -36 24.5 -53.5t87.5 -17.5q60 0 103.5 10t76.5 32.5t57.5 58t45.5 87.5
h47l-88 -231h-593zM836 43q49 0 87 47t61 132l99 378q15 55 15 82q0 14 -5 23.5t-17 15t-33 7.5t-54 2l11 40h325l-11 -40q-30 0 -50.5 -6t-35 -24t-26.5 -50t-25 -84l-100 -380q-25 -95 -87.5 -145.5t-152.5 -50.5q-76 0 -117 34t-41 97q0 48 25 79t63 31q27 0 44.5 -16
t17.5 -42q0 -19 -8 -29.5t-18 -19t-18 -16.5t-8 -21q0 -20 16.5 -32t42.5 -12z" />
    <glyph glyph-name="uni01C8" unicode="&#x1c8;" horiz-adv-x="977" 
d="M-14 40q33 0 54.5 5t36 18.5t24.5 36t19 58.5l113 442q7 28 11 48t4 34q0 31 -22.5 39.5t-76.5 8.5l11 40h325l-11 -40q-33 0 -55 -6.5t-38 -24.5t-28.5 -50t-25.5 -83l-104 -396q-9 -33 -9 -56q0 -36 24.5 -53.5t87.5 -17.5q60 0 103.5 10t76.5 32.5t57.5 58t45.5 87.5
h47l-88 -231h-593zM915 704q-25 0 -43.5 17t-18.5 44t18 46t44 19q28 0 46 -19t18 -45t-19 -44t-45 -18zM800 331q10 39 15.5 64t5.5 39q0 20 -15 20q-11 0 -24 -10.5t-25.5 -24.5t-22.5 -28t-14 -22l-29 18q12 22 33.5 49t48.5 50t56 38.5t55 15.5q50 0 50 -56
q0 -33 -13.5 -87t-34.5 -130l-83 -301q-12 -43 -34.5 -83.5t-52 -72t-63.5 -51t-70 -19.5q-42 0 -69 22t-27 54q0 27 13 43t36 16q21 0 31 -11.5t16.5 -26t13.5 -26t21 -11.5q24 0 42.5 24t28.5 63z" />
    <glyph glyph-name="uni01C9" unicode="&#x1c9;" horiz-adv-x="612" 
d="M183 691q5 18 10 36.5t5 27.5q0 35 -76 35l8 30l183 9l-179 -657q-8 -27 -12 -47.5t-4 -34.5q0 -9 5 -16t16 -7q16 0 34 13.5t34.5 32t29.5 38t19 30.5l30 -17q-15 -34 -39 -65.5t-51 -55.5t-54.5 -38.5t-50.5 -14.5q-35 0 -51.5 15t-16.5 50q0 20 6 54t21 93zM550 704
q-25 0 -43.5 17t-18.5 44t18 46t44 19q28 0 46 -19t18 -45t-19 -44t-45 -18zM435 331q10 39 15.5 64t5.5 39q0 20 -15 20q-11 0 -24 -10.5t-25.5 -24.5t-22.5 -28t-14 -22l-29 18q12 22 33.5 49t48.5 50t56 38.5t55 15.5q50 0 50 -56q0 -33 -13.5 -87t-34.5 -130l-83 -301
q-12 -43 -34.5 -83.5t-52 -72t-63.5 -51t-70 -19.5q-42 0 -69 22t-27 54q0 27 13 43t36 16q21 0 31 -11.5t16.5 -26t13.5 -26t21 -11.5q24 0 42.5 24t28.5 63z" />
    <glyph glyph-name="uni01CA" unicode="&#x1ca;" horiz-adv-x="1385" 
d="M580 0l-262 602h-4l-114 -434q-6 -24 -6 -43q0 -42 25 -63t70 -22l-12 -40h-286l11 40q47 0 84 33.5t51 84.5l118 444q4 15 4 31q0 48 -40.5 72t-106.5 25l12 40h235l250 -573h4l106 405q5 22 5 37q0 43 -24.5 66.5t-59.5 24.5l12 40h256l-11 -40q-19 0 -37 -9t-33 -24.5
t-26.5 -37.5t-18.5 -47l-162 -612h-40zM976 43q49 0 87 47t61 132l99 378q15 55 15 82q0 14 -5 23.5t-17 15t-33 7.5t-54 2l11 40h325l-11 -40q-30 0 -50.5 -6t-35 -24t-26.5 -50t-25 -84l-100 -380q-25 -95 -87.5 -145.5t-152.5 -50.5q-76 0 -117 34t-41 97q0 48 25 79
t63 31q27 0 44.5 -16t17.5 -42q0 -19 -8 -29.5t-18 -19t-18 -16.5t-8 -21q0 -20 16.5 -32t42.5 -12z" />
    <glyph glyph-name="uni01CB" unicode="&#x1cb;" horiz-adv-x="1136" 
d="M580 0l-262 602h-4l-114 -434q-6 -24 -6 -43q0 -42 25 -63t70 -22l-12 -40h-286l11 40q47 0 84 33.5t51 84.5l118 444q4 15 4 31q0 48 -40.5 72t-106.5 25l12 40h235l250 -573h4l106 405q5 22 5 37q0 43 -24.5 66.5t-59.5 24.5l12 40h256l-11 -40q-19 0 -37 -9t-33 -24.5
t-26.5 -37.5t-18.5 -47l-162 -612h-40zM1074 704q-25 0 -43.5 17t-18.5 44t18 46t44 19q28 0 46 -19t18 -45t-19 -44t-45 -18zM959 331q10 39 15.5 64t5.5 39q0 20 -15 20q-11 0 -24 -10.5t-25.5 -24.5t-22.5 -28t-14 -22l-29 18q12 22 33.5 49t48.5 50t56 38.5t55 15.5
q50 0 50 -56q0 -33 -13.5 -87t-34.5 -130l-83 -301q-12 -43 -34.5 -83.5t-52 -72t-63.5 -51t-70 -19.5q-42 0 -69 22t-27 54q0 27 13 43t36 16q21 0 31 -11.5t16.5 -26t13.5 -26t21 -11.5q24 0 42.5 24t28.5 63z" />
    <glyph glyph-name="uni01CC" unicode="&#x1cc;" horiz-adv-x="926" 
d="M425 488q-24 0 -54.5 -24.5t-62 -65t-60.5 -92.5t-49 -106l-74 -200h-88l74 229q18 55 30 94t19.5 65.5t10.5 43t3 26.5q0 27 -17 27q-11 0 -26 -14t-30.5 -36.5t-29.5 -51.5t-24 -59l-30 15q35 103 78.5 152t99.5 49q32 0 45.5 -18t13.5 -61q0 -51 -17 -91l3 -3
q51 90 103.5 131.5t114.5 41.5q44 0 67 -21t23 -60q0 -13 -2.5 -29t-8.5 -38.5t-16.5 -53.5t-25.5 -76q-23 -68 -38 -114t-15 -65q0 -15 10 -15q14 0 41 23t73 74l26 -14q-16 -30 -41.5 -58.5t-53 -51.5t-54.5 -37t-47 -14q-25 0 -39.5 22t-14.5 58q0 14 2.5 28.5t10.5 41.5
t23.5 72.5t42.5 120.5q9 26 15 44t9.5 31.5t5 23.5t1.5 19q0 37 -27 37zM864 704q-25 0 -43.5 17t-18.5 44t18 46t44 19q28 0 46 -19t18 -45t-19 -44t-45 -18zM749 331q10 39 15.5 64t5.5 39q0 20 -15 20q-11 0 -24 -10.5t-25.5 -24.5t-22.5 -28t-14 -22l-29 18
q12 22 33.5 49t48.5 50t56 38.5t55 15.5q50 0 50 -56q0 -33 -13.5 -87t-34.5 -130l-83 -301q-12 -43 -34.5 -83.5t-52 -72t-63.5 -51t-70 -19.5q-42 0 -69 22t-27 54q0 27 13 43t36 16q21 0 31 -11.5t16.5 -26t13.5 -26t21 -11.5q24 0 42.5 24t28.5 63z" />
    <glyph glyph-name="Oogonek" unicode="&#x1ea;" horiz-adv-x="820" 
d="M412 -152q-31 -40 -71.5 -61t-85.5 -21q-46 0 -71.5 22.5t-25.5 62.5q0 43 31.5 81.5t90.5 66.5q-48 12 -86 38.5t-64.5 65.5t-41 89.5t-14.5 110.5q0 96 35 182.5t94 152t137.5 104t164.5 38.5q64 0 115.5 -22t88 -62.5t56 -98t19.5 -128.5q0 -96 -34.5 -183t-93.5 -153
t-136.5 -104.5t-163.5 -38.5q-6 0 -12 0.5t-12 0.5q-43 -26 -69 -57.5t-26 -59.5q0 -20 15 -34t36 -14q19 0 44 13.5t51 39.5zM505 728q-65 0 -121.5 -33t-98.5 -91t-66 -136t-24 -168q0 -128 44.5 -192t130.5 -64q63 0 116.5 34t93 94t61.5 143t22 181q0 120 -38.5 176
t-119.5 56z" />
    <glyph glyph-name="oogonek" unicode="&#x1eb;" horiz-adv-x="523" 
d="M284 -152q-31 -40 -71.5 -61t-85.5 -21q-46 0 -71.5 22.5t-25.5 62.5q0 42 30 79.5t86 65.5q-53 14 -87.5 64t-34.5 131q0 65 24.5 128t64.5 112t91.5 79t106.5 30q36 0 66.5 -13.5t52 -39t34 -61t12.5 -78.5q0 -60 -23 -121.5t-61 -112t-87 -84.5t-101 -39
q-43 -26 -69 -57.5t-26 -59.5q0 -20 15 -34t36 -14q19 0 44 13.5t51 39.5zM193 40q34 0 67.5 35t60 88.5t43 116.5t16.5 120q0 53 -18.5 73t-50.5 20q-22 0 -44.5 -15.5t-42.5 -42.5t-37.5 -62t-30.5 -74t-20 -79.5t-7 -77.5q0 -56 18 -79t46 -23z" />
    <glyph glyph-name="uni01F1" unicode="&#x1f1;" horiz-adv-x="1499" 
d="M165 770h271q69 0 134 -16.5t118 -60.5q57 -47 83 -111.5t26 -134.5q0 -45 -10.5 -90.5t-29 -88t-44 -80t-55.5 -67.5q-70 -69 -155 -95t-182 -26h-350l11 40q32 0 53.5 4t36 16.5t25 35.5t20.5 62l115 442q2 7 5.5 18t7.5 24t6.5 25t2.5 21q0 15 -8.5 23t-21 12.5
t-27 5.5t-26.5 1h-19zM237 231q-8 -30 -13 -49.5t-7.5 -32t-3.5 -19.5t-1 -12q0 -27 11.5 -41.5t27.5 -22t33 -9t28 -1.5q65 0 118 18t94 49.5t70.5 72.5t49 87t28.5 93.5t9 92.5q0 126 -67.5 194.5t-185.5 68.5q-29 0 -46.5 -8.5t-26.5 -42.5zM985 50h125q95 0 166.5 38.5
t115.5 132.5h43l-84 -221h-531v21l543 701h-101q-60 0 -100.5 -5.5t-71.5 -22t-56 -46t-54 -76.5h-43l101 198h485v-19z" />
    <glyph glyph-name="uni01F2" unicode="&#x1f2;" horiz-adv-x="1350" 
d="M165 770h271q69 0 134 -16.5t118 -60.5q57 -47 83 -111.5t26 -134.5q0 -45 -10.5 -90.5t-29 -88t-44 -80t-55.5 -67.5q-70 -69 -155 -95t-182 -26h-350l11 40q32 0 53.5 4t36 16.5t25 35.5t20.5 62l115 442q2 7 5.5 18t7.5 24t6.5 25t2.5 21q0 15 -8.5 23t-21 12.5
t-27 5.5t-26.5 1h-19zM237 231q-8 -30 -13 -49.5t-7.5 -32t-3.5 -19.5t-1 -12q0 -27 11.5 -41.5t27.5 -22t33 -9t28 -1.5q65 0 118 18t94 49.5t70.5 72.5t49 87t28.5 93.5t9 92.5q0 126 -67.5 194.5t-185.5 68.5q-29 0 -46.5 -8.5t-26.5 -42.5zM991 155l2 -3
q22 0 45.5 -10.5t47.5 -23t48 -23t47 -10.5q29 0 50 18t39 66l34 -13q-10 -37 -28 -67.5t-41.5 -52.5t-51 -34t-56.5 -12q-35 0 -60.5 14t-46.5 31.5t-40.5 31.5t-41.5 14q-21 0 -28.5 -12.5t-12.5 -28t-12.5 -28t-29.5 -12.5q-33 0 -33 30q0 19 16 39t50 53l276 267l-2 3
q-20 0 -42.5 13t-46 29t-47 29t-44.5 13q-17 0 -26.5 -8.5t-9.5 -22.5t8 -21t17.5 -13.5t17.5 -15.5t8 -27q0 -46 -49 -46q-32 0 -49.5 20.5t-17.5 56.5q0 30 12 55.5t33.5 44.5t50.5 30t62 11q37 0 62 -12t43.5 -27t34.5 -27t34 -12q17 0 25.5 10.5t15 23.5t14 23.5
t24.5 10.5q29 0 29 -31q0 -8 -2 -15t-8.5 -17t-20 -23.5l-35.5 -35.5z" />
    <glyph glyph-name="uni01F3" unicode="&#x1f3;" horiz-adv-x="1117" 
d="M468 692q8 27 12 45t4 26q0 15 -20 21t-72 6l11 40h193l-111 -405q-21 -78 -35 -133t-22.5 -92.5t-11.5 -61.5t-3 -40q0 -23 7 -32t18 -9q22 0 47.5 37t45.5 97l38 -9q-34 -99 -74.5 -145.5t-91.5 -46.5q-36 0 -55.5 23t-19.5 66q0 11 2 23t5 23l-8 2q-38 -66 -92 -101.5
t-103 -35.5q-26 0 -48 11.5t-38 32t-25.5 49t-9.5 63.5q0 43 13.5 89.5t37 90t54.5 82.5t65.5 68.5t71 46.5t71.5 17q34 0 51.5 -13t34.5 -41zM331 487q-26 0 -52.5 -16.5t-51.5 -44t-46.5 -63.5t-37.5 -75t-25.5 -79t-9.5 -75q0 -36 18 -57.5t48 -21.5q23 0 47 18.5
t47 48.5t43.5 68.5t36 79t24.5 80t9 71.5q0 31 -12 48.5t-38 17.5zM758 155l2 -3q22 0 45.5 -10.5t47.5 -23t48 -23t47 -10.5q29 0 50 18t39 66l34 -13q-10 -37 -28 -67.5t-41.5 -52.5t-51 -34t-56.5 -12q-35 0 -60.5 14t-46.5 31.5t-40.5 31.5t-41.5 14q-21 0 -28.5 -12.5
t-12.5 -28t-12.5 -28t-29.5 -12.5q-33 0 -33 30q0 19 16 39t50 53l276 267l-2 3q-20 0 -42.5 13t-46 29t-47 29t-44.5 13q-17 0 -26.5 -8.5t-9.5 -22.5t8 -21t17.5 -13.5t17.5 -15.5t8 -27q0 -46 -49 -46q-32 0 -49.5 20.5t-17.5 56.5q0 30 12 55.5t33.5 44.5t50.5 30t62 11
q37 0 62 -12t43.5 -27t34.5 -27t34 -12q17 0 25.5 10.5t15 23.5t14 23.5t24.5 10.5q29 0 29 -31q0 -8 -2 -15t-8.5 -17t-20 -23.5l-35.5 -35.5z" />
    <glyph glyph-name="Aringacute" unicode="&#x1fa;" 
d="M622 894q7 27 30.5 46.5t52.5 19.5q25 0 40 -18q14 6 25 9.5t23 3.5q30 0 30 -20q0 -15 -18.5 -26t-52.5 -18q-8 -26 -31.5 -43.5t-51.5 -17.5q-17 0 -29 7.5t-17 20.5l-46 -8h-60zM696 928q-17 0 -30.5 -13t-13.5 -30q0 -24 25 -24q17 0 31 12.5t14 29.5q0 25 -26 25z
M551 166q-12 -53 -12 -77q0 -29 19 -39t74 -10l-10 -40h-296l10 40q29 0 48 4.5t31.5 18t21.5 38.5t18 66l27 123h-215l-63 -66q-41 -43 -64.5 -69.5t-35.5 -42.5t-15 -24t-3 -14q0 -19 16.5 -26.5t58.5 -7.5l-10 -40h-259l10 40q24 0 47.5 9.5t51.5 31.5t63 58.5t81 91.5
l461 549h84zM491 340l82 310h-4l-259 -310h181z" />
    <glyph glyph-name="aringacute" unicode="&#x1fb;" horiz-adv-x="570" 
d="M332 488q-38 0 -78.5 -35t-73.5 -87.5t-54 -113t-21 -112.5q0 -36 15 -57.5t41 -21.5q23 0 48 18.5t48.5 49t44.5 69.5t37 80.5t25 81.5t9 72q0 26 -11 41t-30 15zM435 530h83l-57 -153q-14 -38 -27.5 -81t-24 -83t-16.5 -73t-6 -49q0 -29 19 -29q14 0 40.5 29t59.5 75
l26 -21q-42 -74 -90.5 -114.5t-93.5 -40.5q-23 0 -35.5 17.5t-12.5 57.5q0 9 0.5 21t2.5 32l-4 1q-15 -28 -35.5 -51.5t-44.5 -41t-50 -27t-51 -9.5q-51 0 -79.5 38.5t-28.5 106.5q0 69 29 141t75 130.5t102 96t110 37.5q33 0 54 -15.5t34 -50.5zM301 646q0 21 9 41t24.5 36
t36 25.5t43.5 9.5q32 0 50 -17t18 -45q0 -23 -9.5 -43.5t-25.5 -35.5t-37 -24t-43 -9q-31 0 -48.5 17t-17.5 45zM404 716q-22 0 -41.5 -16.5t-19.5 -41.5q0 -15 10 -24.5t27 -9.5q22 0 40.5 17.5t18.5 42.5q0 14 -9.5 23t-25.5 9zM330 790l130 119q36 33 67 33q17 0 27.5 -9
t10.5 -26q0 -16 -13.5 -28.5t-37.5 -23.5l-137 -65h-47z" />
    <glyph glyph-name="AEacute" unicode="&#x1fc;" horiz-adv-x="1071" 
d="M349 0l10 40q29 0 48 4.5t31.5 18t21.5 38.5t18 66l27 123h-215l-63 -66q-41 -43 -64.5 -69.5t-35.5 -42.5t-15 -24t-3 -14q0 -19 16.5 -26.5t58.5 -7.5l-10 -40h-259l10 40q24 0 47.5 9.5t51.5 31.5t63 58.5t81 91.5l374 446q16 19 16 29q0 13 -25 18.5t-83 5.5l11 40
h576v-202h-38q-13 48 -29 78.5t-36.5 48t-46 24.5t-56.5 7h-130l-68 -297h53q27 0 46 5t34.5 17.5t29 34.5t29.5 57h37l-60 -296h-40q3 30 3 52q0 45 -17 65.5t-63 20.5h-62l-49 -219q-12 -53 -12 -77q0 -12 6 -20.5t20.5 -14.5t38.5 -8.5t59 -2.5q57 0 99.5 9t74 28.5
t55 51.5t44.5 79h47l-78 -211h-579zM514 340l82 310h-4l-259 -310h181zM644 850l150 77q32 17 54 25t42 8q30 0 30 -25q0 -20 -23 -34t-66 -23l-127 -28h-60z" />
    <glyph glyph-name="aeacute" unicode="&#x1fd;" horiz-adv-x="756" 
d="M671 133q-87 -143 -214 -143q-62 0 -98.5 35t-43.5 99q-17 -29 -41 -53.5t-50.5 -42.5t-54 -28t-52.5 -10q-50 0 -78.5 38.5t-28.5 106.5q0 69 29 141t75 130.5t102 96t110 37.5q33 0 54 -15.5t34 -50.5l28 76h83l-30 -74l3 -2q27 36 63.5 51t72.5 15q48 0 78.5 -24.5
t30.5 -62.5q0 -35 -26 -72t-70.5 -70t-104 -60t-126.5 -42q-2 -14 -3 -27.5t-1 -27.5q0 -109 77 -109q37 0 76.5 29t73.5 80zM329 488q-23 0 -48.5 -16t-50 -42.5t-47.5 -61t-40 -73t-27.5 -77.5t-10.5 -74q0 -39 14.5 -61t40.5 -22q24 0 49 16.5t48.5 44t44.5 64t37 77
t25 83t9 81.5q0 61 -44 61zM614 493q-26 0 -54 -20t-53.5 -53.5t-46.5 -76.5t-34 -89q48 13 89 34t70.5 47.5t46.5 56t17 59.5q0 42 -35 42zM415 651l130 119q36 33 67 33q17 0 27.5 -9t10.5 -26q0 -16 -13.5 -28.5t-37.5 -23.5l-137 -65h-47z" />
    <glyph glyph-name="Oslashacute" unicode="&#x1fe;" horiz-adv-x="820" 
d="M505 780q49 0 90.5 -13t75.5 -38l78 99h69l-107 -135q35 -41 54 -97.5t19 -126.5q0 -96 -34.5 -183t-93.5 -153t-136.5 -104.5t-163.5 -38.5q-96 0 -163 47l-78 -99h-68l106 135q-38 41 -58.5 99.5t-20.5 130.5q0 96 35 182.5t94 152t137.5 104t164.5 38.5zM505 728
q-65 0 -121.5 -33t-98.5 -91t-66 -136t-24 -168t22 -147l408 518q-39 57 -120 57zM663 496q0 68 -14 119l-405 -513q46 -58 126 -58q63 0 116.5 34t93 94t61.5 143t22 181zM432 850l150 77q32 17 54 25t42 8q30 0 30 -25q0 -20 -23 -34t-66 -23l-127 -28h-60z" />
    <glyph glyph-name="oslashacute" unicode="&#x1ff;" horiz-adv-x="522" 
d="M187 -10q-54 0 -95 33l-67 -84h-68l99 125q-15 25 -23.5 57t-8.5 70q0 65 24.5 128t64.5 112t91.5 79t106.5 30t96 -32l66 84h69l-98 -124q15 -24 23.5 -54.5t8.5 -65.5q0 -63 -25 -127t-65.5 -115t-92.5 -83.5t-106 -32.5zM193 40q33 0 65.5 33t59 84t43.5 112.5
t19 117.5l-242 -306q16 -41 55 -41zM311 493q-33 0 -64.5 -32t-57 -81.5t-42 -109t-18.5 -114.5l240 304q-9 18 -23.5 25.5t-34.5 7.5zM272 651l130 119q36 33 67 33q17 0 27.5 -9t10.5 -26q0 -16 -13.5 -28.5t-37.5 -23.5l-137 -65h-47z" />
    <glyph glyph-name="uni0218" unicode="&#x218;" horiz-adv-x="598" 
d="M558 755h30l-42 -197h-34q-3 91 -33 131t-94 40q-31 0 -57 -8.5t-44.5 -24.5t-29 -37.5t-10.5 -46.5q0 -36 20 -64t50.5 -52.5t66 -49.5t66 -55t50.5 -68t20 -89t-20 -95.5t-54.5 -77.5t-80.5 -52t-99 -19q-109 0 -191 86l-21 -76h-35l42 254h33q7 -103 51 -157t122 -54
q36 0 66 10.5t51.5 29t34 44t12.5 55.5q0 42 -21 74t-52 60t-68 54t-68 55.5t-52 65t-21 81.5q0 43 18.5 81t50.5 66t75 44.5t92 16.5q47 0 84 -16t72 -51zM185 -224q34 19 49.5 37.5t15.5 40.5q-10 -8 -26 -8q-20 0 -32 13t-12 34q0 23 16.5 38t42.5 15q30 0 46.5 -20.5
t16.5 -58.5q0 -32 -21.5 -60.5t-73.5 -56.5z" />
    <glyph glyph-name="uni0219" unicode="&#x219;" horiz-adv-x="381" 
d="M77 387q0 33 12.5 61t34.5 48.5t52.5 32t66.5 11.5q48 0 80 -24t32 -62q0 -21 -11.5 -33t-31.5 -12q-23 0 -33 13.5t-17 30t-15 30.5t-27 14q-22 0 -37 -19t-15 -47q0 -33 19.5 -61.5t43.5 -59.5t43.5 -68t19.5 -87q0 -34 -14.5 -64t-39 -52.5t-56.5 -35.5t-66 -13
q-60 0 -95.5 26t-35.5 68q0 29 13.5 45.5t36.5 16.5q43 0 49 -59q3 -32 10.5 -42.5t30.5 -10.5q36 0 57 21.5t21 59.5q0 40 -20 71t-44 60.5t-44 62.5t-20 78zM29 -224q34 19 49.5 37.5t15.5 40.5q-10 -8 -26 -8q-20 0 -32 13t-12 34q0 23 16.5 38t42.5 15q30 0 46.5 -20.5
t16.5 -58.5q0 -32 -21.5 -60.5t-73.5 -56.5z" />
    <glyph glyph-name="uni021A" unicode="&#x21a;" horiz-adv-x="780" 
d="M407 168q-6 -23 -11 -39.5t-5 -30.5q0 -32 26 -45t89 -13l-12 -40h-348l11 40q30 0 52 4t39.5 16t30 35.5t23.5 62.5l122 456q9 36 9 60q0 29 -13 41.5t-42 12.5q-88 0 -152.5 -45t-107.5 -126h-40l95 213h668l-20 -213h-38q0 96 -35.5 133.5t-105.5 37.5q-25 0 -42.5 -5
t-31 -18t-24 -36t-19.5 -59zM254 -224q34 19 49.5 37.5t15.5 40.5q-10 -8 -26 -8q-20 0 -32 13t-12 34q0 23 16.5 38t42.5 15q30 0 46.5 -20.5t16.5 -58.5q0 -32 -21.5 -60.5t-73.5 -56.5z" />
    <glyph glyph-name="uni021B" unicode="&#x21b;" horiz-adv-x="365" 
d="M235 447l-83 -275q-17 -54 -18 -82q0 -9 4.5 -16t15.5 -7q18 0 38 13.5t38.5 32t33 38t21.5 30.5l29 -17q-17 -34 -43 -65.5t-55 -55.5t-58.5 -38.5t-53.5 -14.5q-35 0 -50.5 15t-15.5 50q0 20 7 54t24 93l74 245h-86l13 46h87l52 172h92l-52 -172h109l-14 -46h-109z
M18 -224q34 19 49.5 37.5t15.5 40.5q-10 -8 -26 -8q-20 0 -32 13t-12 34q0 23 16.5 38t42.5 15q30 0 46.5 -20.5t16.5 -58.5q0 -32 -21.5 -60.5t-73.5 -56.5z" />
    <glyph glyph-name="dotlessj" unicode="&#x237;" horiz-adv-x="299" 
d="M122 331q10 39 15.5 64t5.5 39q0 20 -15 20q-11 0 -24 -10.5t-25.5 -24.5t-22.5 -28t-14 -22l-29 18q12 22 33.5 49t48.5 50t56 38.5t55 15.5q50 0 50 -56q0 -33 -13.5 -87t-34.5 -130l-83 -301q-12 -43 -34.5 -83.5t-52 -72t-63.5 -51t-70 -19.5q-42 0 -69 22t-27 54
q0 27 13 43t36 16q21 0 31 -11.5t16.5 -26t13.5 -26t21 -11.5q24 0 42.5 24t28.5 63z" />
    <glyph glyph-name="schwa" unicode="&#x259;" horiz-adv-x="457" 
d="M60 397q87 143 214 143q69 0 106 -42.5t37 -120.5q0 -69 -28.5 -138t-74.5 -124.5t-103 -90t-114 -34.5q-48 0 -78.5 24.5t-30.5 62.5q0 35 26 72t70.5 70t104 60t126.5 42q2 14 3 27.5t1 27.5q0 109 -77 109q-37 0 -76.5 -29t-73.5 -80zM117 37q26 0 54 20t53.5 53.5
t46.5 76.5t34 89q-48 -13 -89 -34t-70.5 -47.5t-46.5 -56t-17 -59.5q0 -42 35 -42z" />
    <glyph glyph-name="apostrophe" unicode="&#x2bc;" horiz-adv-x="194" 
d="M53 611q4 52 5.5 93t7 69t18.5 42.5t42 14.5q17 0 26 -9.5t9 -25.5q0 -5 -2 -15q-2 -9 -11 -28.5t-20.5 -43.5t-24 -50t-21.5 -47h-29z" />
    <glyph glyph-name="circumflex" unicode="&#x2c6;" horiz-adv-x="368" 
d="M246 780l84 -129h-45l-101 68l-137 -68h-45l154 129h90z" />
    <glyph glyph-name="caron" unicode="&#x2c7;" horiz-adv-x="368" 
d="M121 651l-84 129h45l101 -68l137 68h45l-154 -129h-90z" />
    <glyph glyph-name="breve" unicode="&#x2d8;" horiz-adv-x="316" 
d="M313 776q-9 -29 -27 -52.5t-41 -41t-50 -27t-55 -9.5q-50 0 -78.5 27t-28.5 71q0 17 4 32h36q2 -28 25 -44.5t60 -16.5q38 0 70 16.5t48 44.5h37z" />
    <glyph glyph-name="dotaccent" unicode="&#x2d9;" horiz-adv-x="164" 
d="M20 743q0 26 18 44t44 18t44 -18t18 -44t-18 -44t-44 -18t-44 18t-18 44z" />
    <glyph glyph-name="ring" unicode="&#x2da;" horiz-adv-x="214" 
d="M16 718q0 21 9 41t24.5 36t36 25.5t43.5 9.5q32 0 50 -17t18 -45q0 -23 -9.5 -43.5t-25.5 -35.5t-37 -24t-43 -9q-31 0 -48.5 17t-17.5 45zM119 788q-22 0 -41.5 -16.5t-19.5 -41.5q0 -15 10 -24.5t27 -9.5q22 0 40.5 17.5t18.5 42.5q0 14 -9.5 23t-25.5 9z" />
    <glyph glyph-name="ogonek" unicode="&#x2db;" horiz-adv-x="265" 
d="M254 -152q-31 -40 -71.5 -61t-85.5 -21q-46 0 -71.5 22.5t-25.5 62.5q0 48 39 89.5t110 69.5h53v-4q-27 -13 -49.5 -29.5t-39 -34t-25.5 -35t-9 -33.5q0 -20 15 -34t36 -14q19 0 44 13.5t51 39.5z" />
    <glyph glyph-name="tilde" unicode="&#x2dc;" horiz-adv-x="381" 
d="M20 660q8 51 37.5 82.5t67.5 31.5q15 0 36 -5.5t50 -18.5t44.5 -17.5t28.5 -4.5q17 0 27 9.5t17 32.5h33q-2 -20 -11 -43t-21 -39q-27 -36 -67 -36q-14 0 -31.5 5.5t-52.5 19.5q-34 13 -52 18t-30 5q-17 0 -26 -9t-16 -31h-34z" />
    <glyph glyph-name="hungarumlaut" unicode="&#x2dd;" horiz-adv-x="473" 
d="M20 651l130 119q36 33 67 33q17 0 27.5 -9t10.5 -26q0 -16 -13.5 -28.5t-37.5 -23.5l-137 -65h-47zM218 651l130 119q36 33 67 33q17 0 27.5 -9t10.5 -26q0 -16 -13.5 -28.5t-37.5 -23.5l-137 -65h-47z" />
    <glyph glyph-name="uni03BC" unicode="&#x3bc;" horiz-adv-x="640" 
d="M123 268q12 37 20 63t12.5 44.5t6.5 31t2 21.5q0 21 -11 21q-24 0 -93 -84l-26 14q16 32 40 61t50.5 51.5t53.5 35.5t49 13q23 0 36.5 -14.5t13.5 -40.5q0 -12 -1.5 -23.5t-8.5 -34.5t-20 -62t-36 -106q-17 -49 -26 -89.5t-9 -65.5q0 -42 27 -42q19 0 44.5 21.5t52 58.5
t52 85.5t45.5 102.5l74 200h93l-74 -229q-17 -51 -28 -87t-17.5 -60t-9.5 -39t-3 -24q0 -26 17 -26q10 0 24.5 9.5t29 26t28 37t23.5 43.5l30 -15q-15 -37 -37 -69t-46.5 -56t-51 -37.5t-50.5 -13.5q-28 0 -40 21t-12 70q0 15 1.5 29t3.5 28l-3 3q-32 -73 -71 -112t-80 -39
q-47 0 -63 36l-3 -1l-34 -206q-7 -41 -22.5 -60t-44.5 -19q-45 0 -45 50q0 17 6 41t20.5 74.5t33 112.5t39 128t38.5 122z" />
    <glyph glyph-name="Ddotbelow" unicode="&#x1e0c;" horiz-adv-x="836" 
d="M165 770h271q69 0 134 -16.5t118 -60.5q57 -47 83 -111.5t26 -134.5q0 -45 -10.5 -90.5t-29 -88t-44 -80t-55.5 -67.5q-70 -69 -155 -95t-182 -26h-350l11 40q32 0 53.5 4t36 16.5t25 35.5t20.5 62l115 442q2 7 5.5 18t7.5 24t6.5 25t2.5 21q0 15 -8.5 23t-21 12.5
t-27 5.5t-26.5 1h-19zM237 231q-8 -30 -13 -49.5t-7.5 -32t-3.5 -19.5t-1 -12q0 -27 11.5 -41.5t27.5 -22t33 -9t28 -1.5q65 0 118 18t94 49.5t70.5 72.5t49 87t28.5 93.5t9 92.5q0 126 -67.5 194.5t-185.5 68.5q-29 0 -46.5 -8.5t-26.5 -42.5zM229 -170q0 26 18 44t44 18
t44 -18t18 -44t-18 -44t-44 -18t-44 18t-18 44z" />
    </font>
</defs>
</svg>
