<?xml version="1.0" standalone="no"?>
<!DOCTYPE svg PUBLIC "-//W3C//DTD SVG 20010904//EN"
 "http://www.w3.org/TR/2001/REC-SVG-20010904/DTD/svg10.dtd">
<svg version="1.0" xmlns="http://www.w3.org/2000/svg"
 width="512.000000pt" height="512.000000pt" viewBox="0 0 512.000000 512.000000"
 preserveAspectRatio="xMidYMid meet">
<metadata>
Created by potrace 1.11, written by Peter Selinger 2001-2013
</metadata>
<g transform="translate(0.000000,512.000000) scale(0.100000,-0.100000)"
fill="#000000" stroke="none">
<path d="M1360 5106 c0 -19 107 -92 155 -105 50 -14 135 -14 169 -1 20 7 26
17 26 39 0 35 -13 41 -86 41 -41 0 -59 5 -74 20 -17 17 -33 20 -105 20 -65 0
-85 -3 -85 -14z"/>
<path d="M3512 5069 c4 -70 28 -87 61 -45 14 17 29 26 35 22 18 -11 14 -34 -5
-40 -25 -8 -65 -70 -58 -89 9 -21 42 -28 56 -11 14 17 29 9 29 -15 0 -10 15
-31 33 -48 17 -17 39 -44 48 -61 11 -20 39 -40 83 -62 37 -18 71 -41 77 -51 5
-10 19 -21 31 -25 13 -3 42 -23 65 -43 22 -20 62 -52 88 -71 114 -86 170 -134
197 -171 15 -21 32 -39 37 -39 11 0 164 -153 230 -229 72 -83 88 -69 72 65
-37 323 -63 490 -87 559 -7 22 -16 81 -20 130 -4 50 -12 108 -20 130 -7 22
-16 64 -20 93 l-7 52 -273 0 c-151 0 -274 -2 -274 -5 0 -3 13 -31 29 -63 15
-31 34 -82 40 -112 21 -90 43 -153 68 -190 31 -46 29 -54 -13 -80 -31 -20 -39
-21 -60 -10 -29 16 -55 98 -78 240 -8 52 -24 123 -37 158 l-22 62 -154 0 -154
0 3 -51z"/>
<path d="M4535 5074 c3 -25 12 -62 19 -82 7 -21 19 -91 26 -157 7 -66 19 -132
26 -146 12 -25 25 -94 44 -249 4 -36 15 -95 24 -132 9 -38 18 -124 20 -195 2
-90 8 -139 20 -165 9 -21 16 -56 16 -80 0 -23 7 -61 16 -85 18 -46 14 -73 -11
-73 -8 0 -71 56 -138 124 -67 69 -138 137 -158 153 -42 33 -130 136 -152 179
-19 36 -58 73 -117 109 -25 16 -70 52 -100 80 -59 56 -157 125 -177 125 -7 0
-17 -8 -22 -18 -12 -23 -79 -48 -93 -34 -17 17 -1 45 21 39 11 -3 29 2 41 10
17 12 19 18 9 30 -17 20 -64 43 -87 43 -10 0 -27 9 -37 20 -10 11 -29 20 -42
20 -14 0 -23 6 -23 16 0 20 -59 74 -81 74 -24 0 -30 -25 -14 -57 8 -16 24 -50
37 -78 12 -27 29 -58 37 -68 17 -20 71 -48 111 -57 20 -4 25 -12 26 -40 1 -19
5 -47 9 -63 10 -38 -6 -54 -72 -68 -48 -11 -57 -17 -69 -46 -8 -18 -28 -39
-44 -48 -17 -9 -30 -22 -30 -30 0 -8 -20 -36 -45 -62 -25 -25 -45 -52 -45 -58
0 -7 -8 -23 -19 -36 -10 -13 -26 -53 -35 -88 -9 -36 -21 -70 -26 -76 -15 -18
-50 -163 -50 -206 0 -21 -5 -41 -10 -44 -6 -4 -8 -26 -4 -56 4 -33 3 -54 -6
-64 -10 -13 -10 -19 5 -35 19 -21 23 -86 7 -102 -7 -7 -18 6 -34 38 -30 61
-60 70 -76 25 -13 -38 -20 -39 -32 -6 -12 31 -35 34 -27 3 7 -26 -17 -88 -35
-88 -29 0 -58 13 -58 25 0 7 -7 18 -15 25 -12 10 -16 9 -22 -5 -4 -11 0 -22
10 -30 25 -18 21 -25 -13 -25 -29 0 -30 2 -30 44 0 46 -15 70 -50 81 -11 3
-20 11 -20 16 0 5 -5 9 -11 9 -6 0 -9 -6 -6 -14 3 -8 9 -30 12 -49 6 -33 6
-34 -24 -29 -23 3 -31 0 -31 -11 0 -9 7 -20 17 -25 14 -8 12 -14 -19 -45 -20
-19 -46 -37 -59 -39 -35 -5 -38 -44 -5 -59 14 -7 28 -20 31 -31 13 -38 45 -14
45 33 0 14 7 19 25 19 28 0 44 -25 26 -43 -6 -6 -11 -23 -11 -37 0 -14 -9 -33
-20 -43 -38 -32 -16 -82 32 -75 15 2 24 11 26 26 4 26 38 30 68 7 10 -8 33
-15 51 -15 29 0 63 -21 63 -39 0 -4 -5 -12 -11 -18 -24 -24 16 -83 56 -83 16
0 31 -10 42 -27 9 -16 27 -41 40 -56 29 -36 30 -73 2 -89 -27 -17 -55 -76 -70
-146 -6 -31 -22 -84 -34 -117 -13 -33 -31 -81 -40 -107 -9 -26 -29 -57 -43
-69 l-27 -21 -21 25 c-12 14 -32 28 -45 32 -29 9 -59 34 -59 49 0 22 -121 136
-145 136 -8 0 -21 14 -30 30 -17 33 -45 39 -65 15 -22 -26 -48 -17 -72 25 -13
21 -33 44 -45 49 -13 6 -23 18 -23 27 0 9 -9 27 -20 42 l-20 25 22 24 c18 19
20 28 12 51 -13 36 -27 34 -35 -4 -3 -17 -16 -41 -27 -52 -12 -12 -22 -29 -22
-37 0 -21 -24 -29 -49 -15 -30 15 -27 54 6 78 26 19 26 20 13 66 -7 26 -17 49
-22 52 -16 10 -57 -6 -63 -25 -3 -10 -20 -22 -38 -27 -45 -13 -48 -45 -5 -66
27 -14 29 -17 12 -17 -12 -1 -27 -8 -34 -16 -19 -22 15 -102 52 -121 31 -16
38 -53 14 -73 -22 -18 -47 -1 -67 45 -13 31 -24 44 -39 44 -11 0 -29 9 -40 20
-11 11 -27 20 -35 20 -26 0 -17 21 30 71 32 34 45 57 45 77 0 16 7 35 15 42 8
7 14 27 13 46 -1 22 6 42 19 57 20 21 21 31 17 167 -2 80 -4 183 -5 230 0 47
-7 108 -15 136 -8 28 -21 90 -29 138 -25 160 -102 323 -220 470 -86 107 -93
113 -213 202 -99 73 -296 167 -410 195 -80 19 -99 21 -145 11 -28 -6 -95 -14
-148 -17 -115 -6 -231 -34 -302 -72 -61 -33 -161 -123 -193 -175 -13 -20 -44
-60 -69 -88 -24 -27 -48 -63 -51 -78 -3 -15 -17 -43 -29 -62 -13 -19 -40 -78
-60 -130 -21 -52 -48 -122 -61 -155 -20 -50 -25 -84 -29 -196 -4 -124 0 -173
27 -300 2 -9 -7 -14 -27 -14 -27 0 -30 3 -35 40 -4 34 -9 40 -32 43 -19 2 -30
-3 -38 -19 -12 -21 -12 -21 -41 10 -16 18 -29 41 -29 52 0 11 -10 23 -23 28
-29 11 -44 29 -52 64 -9 36 -16 39 -54 24 l-31 -11 0 -1698 0 -1698 2535 0
2535 0 11 28 c7 15 14 48 17 75 2 26 9 50 13 53 5 3 9 1088 9 2485 l0 2479
-296 0 -296 0 7 -46z m-3060 -746 c125 -37 231 -98 361 -210 128 -109 196
-184 234 -258 12 -25 36 -64 51 -87 16 -23 29 -50 29 -60 1 -10 10 -43 21 -73
31 -87 62 -443 49 -555 -10 -81 -62 -274 -82 -305 -9 -14 -26 -48 -38 -76 -12
-28 -32 -57 -45 -64 -12 -7 -28 -23 -35 -36 -7 -12 -50 -48 -96 -80 -92 -62
-249 -123 -319 -124 -22 0 -58 -10 -80 -21 -35 -19 -50 -21 -124 -15 -129 10
-166 48 -98 100 41 31 47 32 169 5 91 -21 98 -21 122 -6 14 10 36 17 50 17 41
0 56 34 56 128 0 77 -2 85 -26 107 -15 14 -43 29 -64 35 -56 15 -106 66 -119
122 -15 64 -15 65 16 85 20 13 43 17 92 14 51 -2 76 2 112 20 59 27 75 59 60
115 -6 22 -11 66 -12 99 -1 78 -36 175 -69 192 -14 7 -59 13 -100 13 -94 1
-193 21 -220 45 -23 20 -27 76 -10 137 11 38 66 95 119 123 37 19 48 53 32
106 -9 29 -40 67 -119 145 -59 58 -118 110 -132 116 -28 11 -110 2 -157 -17
-17 -7 -61 -36 -97 -64 -36 -28 -74 -51 -84 -51 -10 0 -30 12 -43 28 -13 15
-39 44 -56 65 -58 66 -43 111 60 179 63 41 120 65 267 111 97 31 213 29 325
-5z m2403 -31 c4 -21 -25 -34 -40 -19 -8 8 -8 16 2 27 16 19 34 15 38 -8z m92
-161 c50 -9 95 -26 135 -49 33 -20 83 -48 110 -63 69 -37 107 -72 220 -199
123 -139 216 -270 266 -375 163 -342 185 -421 173 -615 -3 -44 -7 -107 -9
-140 -3 -47 -14 -82 -53 -160 -27 -55 -59 -123 -72 -152 -26 -58 -55 -83 -132
-113 -90 -36 -176 -37 -316 -5 -150 35 -191 64 -140 99 26 18 86 21 140 6 43
-12 71 -2 88 31 12 22 23 329 12 346 -4 6 -29 22 -57 36 -27 14 -61 37 -75 52
-29 31 -35 24 80 98 40 26 66 50 68 63 2 11 -15 60 -38 108 -22 48 -40 93 -40
99 0 7 -11 35 -24 64 -30 64 -73 92 -108 69 -13 -8 -51 -17 -85 -21 l-62 -7
-21 34 c-41 67 -15 136 70 183 73 40 76 63 19 136 -65 84 -150 169 -191 190
-21 10 -56 19 -78 19 -35 0 -48 -6 -88 -45 -25 -25 -51 -45 -58 -45 -21 0
-114 113 -114 139 0 32 60 120 115 169 70 61 131 72 265 48z m-3178 -143 c45
-47 117 -177 105 -190 -4 -3 -59 -1 -123 6 l-117 12 -32 -36 c-18 -19 -35 -35
-39 -35 -11 0 -6 40 8 63 8 12 17 38 20 58 4 21 13 42 21 49 8 7 15 20 15 29
0 9 11 33 25 54 35 51 60 48 117 -10z m553 -78 c65 -64 105 -112 103 -122 -2
-9 -28 -30 -59 -47 -31 -17 -72 -48 -92 -69 -40 -43 -67 -42 -67 3 0 21 -10
37 -37 59 -21 17 -45 31 -53 31 -9 0 -27 12 -39 26 -19 21 -28 25 -55 20 -96
-18 -94 41 3 132 57 53 94 71 148 72 40 0 47 -5 148 -105z m2276 -167 c13 -28
35 -62 48 -74 28 -26 29 -25 -63 -43 -70 -13 -86 -5 -86 43 0 41 19 109 34
118 26 17 44 6 67 -44z m288 17 c41 -20 131 -125 131 -150 0 -24 -26 -50 -81
-83 -48 -29 -60 -27 -84 11 -11 17 -36 41 -55 54 -81 51 -84 55 -67 94 18 44
71 89 103 89 14 0 38 -7 53 -15z m-2638 -426 c10 -20 16 -21 78 -14 110 13
270 8 295 -9 16 -10 29 -38 44 -98 29 -108 28 -133 -3 -154 -19 -12 -40 -15
-83 -11 -114 10 -235 -37 -244 -95 -2 -10 -7 -20 -11 -21 -10 -2 -46 82 -82
188 -13 39 -30 83 -38 99 -16 29 -13 56 5 56 6 0 7 16 3 40 -5 32 -4 40 9 40
8 0 20 -10 27 -21z m1725 -116 c-10 -10 -19 5 -10 18 6 11 8 11 12 0 2 -7 1
-15 -2 -18z m283 13 c67 -1 86 -5 95 -18 14 -23 2 -32 -23 -17 -17 12 -23 10
-45 -10 -22 -21 -29 -22 -53 -12 -23 9 -37 9 -72 -4 -40 -14 -47 -14 -68 0
-15 10 -23 25 -23 44 0 29 0 29 53 24 28 -3 90 -6 136 -7z m947 -4 c20 -12 84
-161 84 -193 0 -30 -1 -30 -46 -27 -46 3 -47 4 -80 65 -42 81 -47 118 -18 147
16 17 42 20 60 8z m-4074 -89 c10 -9 18 -24 18 -34 0 -21 -26 -49 -46 -49 -21
0 -78 55 -70 68 6 9 41 24 75 31 3 1 13 -6 23 -16z m144 2 c8 -21 -14 -45 -34
-38 -22 8 -31 23 -25 40 7 18 52 17 59 -2z m2787 0 c-1 -5 -8 -14 -17 -20 -18
-11 -42 7 -31 25 8 13 51 9 48 -5z m-2699 -41 c3 -9 6 -23 6 -31 0 -13 -3 -13
-15 -3 -16 13 -21 50 -6 50 5 0 12 -7 15 -16z m2867 -89 c-29 -58 -46 -59 -37
-2 7 45 33 74 50 57 6 -6 2 -25 -13 -55z m-2987 -36 c-3 -5 -10 -7 -15 -3 -5
3 -7 10 -3 15 3 5 10 7 15 3 5 -3 7 -10 3 -15z m3166 -45 c0 -8 -4 -14 -10
-14 -5 0 -10 9 -10 21 0 11 5 17 10 14 6 -3 10 -13 10 -21z m-185 -34 c-3 -5
-10 -10 -16 -10 -5 0 -9 5 -9 10 0 6 7 10 16 10 8 0 12 -4 9 -10z m-2817 -37
c5 -18 -23 -16 -39 3 -11 14 -10 15 11 12 13 -1 25 -9 28 -15z m1127 -176 c17
-8 41 -27 54 -41 22 -23 23 -28 11 -57 -25 -60 -96 -71 -192 -29 -24 10 -65
22 -91 25 -55 8 -79 -6 -102 -62 -8 -20 -28 -39 -52 -51 l-39 -20 -35 21 c-20
12 -62 46 -94 75 -49 43 -55 52 -36 52 12 0 31 -5 42 -10 14 -8 27 -7 48 5 17
8 39 15 50 15 28 0 138 57 144 74 7 19 39 23 162 21 68 -2 110 -7 130 -18z
m2757 -128 c10 -92 0 -108 -54 -86 -47 20 -52 30 -28 60 11 14 20 30 20 35 0
19 35 72 45 69 6 -2 13 -37 17 -78z m-1842 36 c10 -12 10 -15 -4 -15 -9 0 -16
7 -16 15 0 8 2 15 4 15 2 0 9 -7 16 -15z m-253 -87 c20 -16 5 -28 -26 -22 -16
4 -32 1 -35 -5 -11 -18 -34 -13 -41 9 -10 33 3 43 48 36 23 -4 47 -12 54 -18z
m23 -77 c5 -11 19 -23 30 -26 23 -7 26 -37 6 -54 -12 -10 -18 -7 -31 13 -10
14 -24 26 -31 26 -15 0 -18 18 -8 44 8 21 21 20 34 -3z m467 -17 c-9 -9 -28 6
-21 18 4 6 10 6 17 -1 6 -6 8 -13 4 -17z m1317 2 c22 -34 1 -45 -30 -15 -29
27 -31 39 -5 39 10 0 26 -11 35 -24z m-642 -8 c-7 -7 -12 -8 -12 -2 0 14 12
26 19 19 2 -3 -1 -11 -7 -17z m-1218 -14 c30 -12 16 -24 -26 -24 -40 1 -42 2
-24 15 22 17 27 18 50 9z m431 -14 c3 -5 1 -10 -4 -10 -6 0 -11 5 -11 10 0 6
2 10 4 10 3 0 8 -4 11 -10z m-181 -27 c21 -9 36 -25 38 -37 2 -12 13 -25 26
-31 31 -14 28 -31 -8 -39 -20 -4 -34 -14 -40 -31 -16 -42 -32 -30 -25 18 8 53
-7 94 -36 99 -28 4 -36 25 -12 31 10 3 19 5 20 6 1 0 18 -6 37 -16z m-344 -42
c0 -15 -19 -23 -38 -16 -14 5 -14 7 -2 15 19 12 40 13 40 1z m230 -17 c0 -9
-5 -14 -12 -12 -18 6 -21 28 -4 28 9 0 16 -7 16 -16z m-55 -34 c-3 -5 -13 -10
-21 -10 -8 0 -14 5 -14 10 0 6 9 10 21 10 11 0 17 -4 14 -10z m75 -75 c0 -8
-7 -15 -15 -15 -8 0 -15 7 -15 15 0 8 7 15 15 15 8 0 15 -7 15 -15z m-533
-154 c26 -21 59 -57 73 -80 14 -23 39 -63 55 -89 43 -66 115 -210 115 -228 0
-14 78 -105 180 -209 26 -27 56 -65 65 -83 9 -18 32 -43 51 -54 20 -12 34 -28
34 -39 0 -11 8 -32 18 -47 10 -15 22 -34 27 -44 6 -9 31 -43 57 -77 26 -33 55
-77 63 -98 17 -40 43 -73 57 -73 20 0 58 51 58 77 0 15 12 46 25 68 14 22 25
47 25 56 0 14 19 48 76 133 10 16 28 44 39 61 11 18 33 52 49 76 77 115 95
146 101 171 4 14 15 34 26 44 10 9 19 21 19 26 0 17 139 295 154 307 9 8 16
20 16 28 0 21 46 63 70 63 36 0 64 -41 108 -155 76 -195 104 -246 256 -462 36
-50 78 -122 95 -160 49 -111 138 -277 154 -287 17 -11 57 17 57 40 0 7 10 25
23 41 13 15 26 35 30 43 3 8 38 60 76 115 39 55 78 115 87 134 9 19 55 93 103
165 48 72 104 156 124 186 20 30 47 68 59 84 13 16 37 54 53 85 53 98 121 93
145 -11 17 -70 137 -367 159 -393 41 -48 101 -154 101 -178 0 -48 147 -468
174 -496 22 -24 25 -36 30 -153 6 -131 -2 -178 -29 -178 -10 0 -15 10 -15 31
0 17 -13 57 -29 88 -16 31 -41 99 -56 151 -16 52 -36 118 -45 145 -10 28 -21
68 -25 90 -4 22 -11 45 -16 51 -9 11 -41 114 -53 169 -4 17 -59 136 -123 265
-64 129 -119 246 -123 260 -5 19 -14 26 -38 28 -18 2 -32 -1 -32 -6 0 -5 -22
-33 -49 -63 -65 -72 -110 -132 -151 -203 -19 -32 -44 -73 -55 -92 -11 -18 -35
-59 -54 -91 -18 -32 -57 -92 -86 -133 -76 -109 -117 -197 -130 -271 -3 -20
-19 -55 -35 -78 -45 -62 -91 -53 -117 24 -6 17 -31 61 -57 99 -25 38 -46 74
-46 80 0 6 -18 47 -39 91 -22 44 -59 120 -83 169 -58 119 -68 137 -101 177
-48 57 -109 155 -167 266 -30 59 -61 108 -68 111 -16 5 -80 -63 -98 -105 -8
-18 -27 -47 -42 -65 -42 -49 -69 -97 -98 -174 -14 -38 -32 -73 -41 -78 -8 -4
-26 -33 -40 -64 -14 -31 -40 -73 -59 -94 -19 -21 -34 -43 -34 -49 0 -6 -8 -23
-19 -37 -10 -15 -22 -41 -25 -59 -4 -18 -18 -48 -31 -67 -24 -35 -55 -138 -55
-182 0 -17 8 -27 26 -34 25 -10 26 -14 20 -53 -8 -48 -21 -66 -37 -50 -8 8 -7
17 2 32 12 17 11 23 -3 37 -15 15 -19 12 -57 -40 -26 -36 -49 -56 -62 -56 -20
0 -78 58 -91 91 -4 9 -18 36 -33 58 -26 42 -58 54 -83 29 -9 -9 -12 -7 -12 9
0 13 8 23 21 26 18 5 21 11 16 34 -11 54 -27 83 -51 92 -19 8 -25 20 -31 58
-6 40 -15 56 -60 100 -30 30 -56 65 -60 82 -3 16 -17 40 -29 53 -84 85 -192
245 -221 328 -19 53 -187 283 -221 303 -22 12 -52 -9 -154 -107 -52 -50 -129
-123 -170 -161 -41 -39 -104 -101 -140 -140 -36 -38 -103 -104 -148 -145 -46
-41 -113 -111 -150 -155 -36 -44 -103 -120 -147 -170 -45 -49 -99 -112 -121
-140 -21 -27 -68 -84 -104 -125 -36 -42 -81 -97 -100 -122 -49 -66 -89 -63
-76 5 6 34 41 81 169 231 44 50 93 112 110 139 17 26 33 47 37 47 3 0 62 64
131 143 68 78 160 176 203 217 44 41 107 103 140 137 34 34 131 133 217 220
86 87 159 167 163 178 5 18 109 95 128 95 3 0 28 -17 55 -39z m1253 -1406 c0
-8 -9 -15 -20 -15 -20 0 -26 11 -13 23 12 13 33 7 33 -8z m54 -34 c3 -4 -3
-16 -14 -26 -19 -18 -20 -17 -20 8 0 26 22 38 34 18z m-339 -50 c7 -13 -54
-83 -66 -75 -14 8 -11 32 7 59 16 25 48 33 59 16z m135 -6 c0 -3 -9 -24 -20
-45 -19 -37 -61 -62 -76 -47 -10 10 6 27 25 27 26 0 41 22 34 48 -4 18 -1 22
16 22 11 0 21 -2 21 -5z m130 -99 c0 -8 -4 -17 -9 -21 -12 -7 -24 12 -16 25 9
15 25 12 25 -4z m141 -106 c10 -6 19 -20 19 -31 0 -17 -3 -18 -22 -8 -23 12
-38 28 -38 42 0 10 18 9 41 -3z m-326 -76 c0 -10 -8 -20 -17 -22 -18 -3 -26
27 -11 42 12 11 28 0 28 -20z m173 3 c4 -21 -27 -35 -38 -17 -12 19 0 42 19
38 9 -2 17 -11 19 -21z m492 -152 c0 -8 -4 -15 -9 -15 -13 0 -22 16 -14 24 11
11 23 6 23 -9z"/>
<path d="M1200 3811 c-15 -28 -12 -44 9 -63 10 -8 21 -22 24 -29 4 -11 9 -9
21 6 8 11 20 26 27 33 8 10 5 20 -17 42 -34 35 -49 37 -64 11z"/>
<path d="M2111 4898 c-32 -34 -34 -55 -10 -103 42 -84 89 -107 144 -71 62 41
51 120 -23 167 -55 35 -84 37 -111 7z"/>
<path d="M3147 4732 c-10 -10 -17 -35 -17 -54 0 -32 7 -42 51 -77 57 -45 78
-50 102 -23 30 33 31 66 2 100 -15 18 -31 32 -37 32 -5 0 -21 9 -35 20 -32 25
-45 25 -66 2z"/>
<path d="M3555 4402 l-29 -15 29 -23 c32 -25 65 -18 65 14 0 30 -32 42 -65 24z"/>
<path d="M2955 3910 c-4 -7 -3 -16 3 -22 14 -14 45 -2 40 15 -6 16 -34 21 -43
7z"/>
<path d="M3327 3784 c-8 -8 1 -24 14 -24 5 0 9 7 9 15 0 15 -12 20 -23 9z"/>
<path d="M3245 3590 c-7 -12 2 -30 16 -30 12 0 12 27 0 35 -5 3 -12 1 -16 -5z"/>
<path d="M3015 3500 c-3 -5 -1 -10 4 -10 6 0 11 5 11 10 0 6 -2 10 -4 10 -3 0
-8 -4 -11 -10z"/>
<path d="M2807 3474 c-14 -14 -7 -35 11 -32 9 2 17 10 17 17 0 16 -18 25 -28
15z"/>
<path d="M2840 3371 c0 -16 7 -34 15 -41 12 -10 16 -8 25 15 16 42 12 55 -15
55 -21 0 -25 -5 -25 -29z"/>
<path d="M2740 3378 c0 -17 27 -44 36 -35 3 3 -3 16 -15 28 -16 18 -21 19 -21
7z"/>
<path d="M2810 3265 c0 -8 7 -15 15 -15 8 0 15 7 15 15 0 8 -7 15 -15 15 -8 0
-15 -7 -15 -15z"/>
<path d="M2750 3220 c0 -5 5 -10 10 -10 6 0 10 5 10 10 0 6 -4 10 -10 10 -5 0
-10 -4 -10 -10z"/>
<path d="M2766 3113 c-11 -11 -6 -23 9 -23 8 0 15 4 15 9 0 13 -16 22 -24 14z"/>
<path d="M2493 3073 c-22 -8 -14 -33 10 -33 25 0 53 15 41 22 -19 11 -40 15
-51 11z"/>
<path d="M2420 3046 c0 -9 5 -16 10 -16 6 0 10 4 10 9 0 6 -4 13 -10 16 -5 3
-10 -1 -10 -9z"/>
<path d="M2855 2950 c-3 -5 1 -10 10 -10 9 0 13 5 10 10 -3 6 -8 10 -10 10 -2
0 -7 -4 -10 -10z"/>
<path d="M2970 2935 c0 -17 5 -25 13 -22 6 2 12 12 12 22 0 10 -6 20 -12 23
-8 2 -13 -6 -13 -23z"/>
<path d="M2509 2928 c-9 -17 -8 -28 6 -55 19 -34 30 -39 53 -24 10 6 11 17 1
54 -13 53 -39 64 -60 25z"/>
<path d="M2720 2876 c0 -27 22 -40 38 -24 8 8 8 17 1 30 -14 26 -39 23 -39 -6z"/>
<path d="M2316 2875 c-8 -22 1 -35 25 -35 15 0 20 6 17 22 -4 27 -33 36 -42
13z"/>
<path d="M2867 2882 c-20 -2 -27 -8 -25 -20 4 -22 29 -26 53 -8 25 18 10 33
-28 28z"/>
<path d="M2849 2691 l-24 -19 54 -59 c30 -32 58 -62 62 -66 4 -5 16 -4 27 2
28 15 43 -6 36 -50 -7 -44 18 -78 43 -57 11 9 14 24 10 59 -4 34 -2 51 8 59
23 19 58 97 52 114 -7 16 -44 21 -62 8 -6 -4 -16 -19 -22 -33 -11 -25 -44 -39
-93 -39 -16 0 -17 4 -8 35 19 60 -32 88 -83 46z"/>
<path d="M2600 2615 c0 -9 11 -20 25 -25 15 -6 25 -17 25 -30 0 -11 7 -20 15
-20 20 0 19 4 -7 50 -23 40 -58 54 -58 25z"/>
</g>
</svg>
